ISO-10303-21;
HEADER;
FILE_DESCRIPTION(('Open CASCADE Model'),'2;1');
FILE_NAME('Open CASCADE Shape Model','2026-07-02T21:28:46',('Author'),(
    'Open CASCADE'),'Open CASCADE STEP processor 7.9','Open CASCADE 7.9'
  ,'Unknown');
FILE_SCHEMA(('AUTOMOTIVE_DESIGN { 1 0 10303 214 1 1 1 1 }'));
ENDSEC;
DATA;
#1 = APPLICATION_PROTOCOL_DEFINITION('international standard',
  'automotive_design',2000,#2);
#2 = APPLICATION_CONTEXT(
  'core data for automotive mechanical design processes');
#3 = SHAPE_DEFINITION_REPRESENTATION(#4,#10);
#4 = PRODUCT_DEFINITION_SHAPE('','',#5);
#5 = PRODUCT_DEFINITION('design','',#6,#9);
#6 = PRODUCT_DEFINITION_FORMATION('','',#7);
#7 = PRODUCT('Open CASCADE STEP translator 7.9 1',
  'Open CASCADE STEP translator 7.9 1','',(#8));
#8 = PRODUCT_CONTEXT('',#2,'mechanical');
#9 = PRODUCT_DEFINITION_CONTEXT('part definition',#2,'design');
#10 = SHAPE_REPRESENTATION('',(#11,#15,#19,#23,#27,#31),#35);
#11 = AXIS2_PLACEMENT_3D('',#12,#13,#14);
#12 = CARTESIAN_POINT('',(0.,0.,0.));
#13 = DIRECTION('',(0.,0.,1.));
#14 = DIRECTION('',(1.,0.,-0.));
#15 = AXIS2_PLACEMENT_3D('',#16,#17,#18);
#16 = CARTESIAN_POINT('',(0.,0.,0.));
#17 = DIRECTION('',(0.,0.,1.));
#18 = DIRECTION('',(1.,0.,-0.));
#19 = AXIS2_PLACEMENT_3D('',#20,#21,#22);
#20 = CARTESIAN_POINT('',(0.,0.,0.));
#21 = DIRECTION('',(0.,0.,1.));
#22 = DIRECTION('',(1.,0.,-0.));
#23 = AXIS2_PLACEMENT_3D('',#24,#25,#26);
#24 = CARTESIAN_POINT('',(0.,0.,0.));
#25 = DIRECTION('',(0.,0.,1.));
#26 = DIRECTION('',(1.,0.,-0.));
#27 = AXIS2_PLACEMENT_3D('',#28,#29,#30);
#28 = CARTESIAN_POINT('',(0.,0.,0.));
#29 = DIRECTION('',(0.,0.,1.));
#30 = DIRECTION('',(1.,0.,-0.));
#31 = AXIS2_PLACEMENT_3D('',#32,#33,#34);
#32 = CARTESIAN_POINT('',(0.,0.,0.));
#33 = DIRECTION('',(0.,0.,1.));
#34 = DIRECTION('',(1.,0.,-0.));
#35 = ( GEOMETRIC_REPRESENTATION_CONTEXT(3) 
GLOBAL_UNCERTAINTY_ASSIGNED_CONTEXT((#39)) GLOBAL_UNIT_ASSIGNED_CONTEXT(
(#36,#37,#38)) REPRESENTATION_CONTEXT('Context #1',
  '3D Context with UNIT and UNCERTAINTY') );
#36 = ( LENGTH_UNIT() NAMED_UNIT(*) SI_UNIT(.MILLI.,.METRE.) );
#37 = ( NAMED_UNIT(*) PLANE_ANGLE_UNIT() SI_UNIT($,.RADIAN.) );
#38 = ( NAMED_UNIT(*) SI_UNIT($,.STERADIAN.) SOLID_ANGLE_UNIT() );
#39 = UNCERTAINTY_MEASURE_WITH_UNIT(LENGTH_MEASURE(1.E-07),#36,
  'distance_accuracy_value','confusion accuracy');
#40 = PRODUCT_RELATED_PRODUCT_CATEGORY('part',$,(#7));
#41 = SHAPE_DEFINITION_REPRESENTATION(#42,#48);
#42 = PRODUCT_DEFINITION_SHAPE('','',#43);
#43 = PRODUCT_DEFINITION('design','',#44,#47);
#44 = PRODUCT_DEFINITION_FORMATION('','',#45);
#45 = PRODUCT('Open CASCADE STEP translator 7.9 1.1',
  'Open CASCADE STEP translator 7.9 1.1','',(#46));
#46 = PRODUCT_CONTEXT('',#2,'mechanical');
#47 = PRODUCT_DEFINITION_CONTEXT('part definition',#2,'design');
#48 = MANIFOLD_SURFACE_SHAPE_REPRESENTATION('',(#11,#49),#101);
#49 = SHELL_BASED_SURFACE_MODEL('',(#50));
#50 = OPEN_SHELL('',(#51));
#51 = ADVANCED_FACE('',(#52),#65,.T.);
#52 = FACE_BOUND('',#53,.T.);
#53 = EDGE_LOOP('',(#54,#75,#89));
#54 = ORIENTED_EDGE('',*,*,#55,.F.);
#55 = EDGE_CURVE('',#56,#58,#60,.T.);
#56 = VERTEX_POINT('',#57);
#57 = CARTESIAN_POINT('',(0.246051610943,0.405923053509,0.181176701074)
  );
#58 = VERTEX_POINT('',#59);
#59 = CARTESIAN_POINT('',(0.246051610943,0.405923053509,0.18079567396));
#60 = SURFACE_CURVE('',#61,(#64),.PCURVE_S1.);
#61 = B_SPLINE_CURVE_WITH_KNOTS('',1,(#62,#63),.UNSPECIFIED.,.F.,.F.,(2,
    2),(0.,1.),.PIECEWISE_BEZIER_KNOTS.);
#62 = CARTESIAN_POINT('',(0.246051610943,0.405923053509,0.181176701074)
  );
#63 = CARTESIAN_POINT('',(0.246051610943,0.405923053509,0.18079567396));
#64 = PCURVE('',#65,#70);
#65 = PLANE('',#66);
#66 = AXIS2_PLACEMENT_3D('',#67,#68,#69);
#67 = CARTESIAN_POINT('',(0.246051610943,0.405103452569,0.180900849061)
  );
#68 = DIRECTION('',(1.,0.,0.));
#69 = DIRECTION('',(-0.,0.,1.));
#70 = DEFINITIONAL_REPRESENTATION('',(#71),#74);
#71 = B_SPLINE_CURVE_WITH_KNOTS('',1,(#72,#73),.UNSPECIFIED.,.F.,.F.,(2,
    2),(0.,1.),.PIECEWISE_BEZIER_KNOTS.);
#72 = CARTESIAN_POINT('',(2.758520130524E-04,-8.196009404476E-04));
#73 = CARTESIAN_POINT('',(-1.051751009476E-04,-8.196009404476E-04));
#74 = ( GEOMETRIC_REPRESENTATION_CONTEXT(2) 
PARAMETRIC_REPRESENTATION_CONTEXT() REPRESENTATION_CONTEXT('2D SPACE',''
  ) );
#75 = ORIENTED_EDGE('',*,*,#76,.T.);
#76 = EDGE_CURVE('',#56,#77,#79,.T.);
#77 = VERTEX_POINT('',#78);
#78 = CARTESIAN_POINT('',(0.246051610943,0.404113174716,0.18079567396));
#79 = SURFACE_CURVE('',#80,(#83),.PCURVE_S1.);
#80 = B_SPLINE_CURVE_WITH_KNOTS('',1,(#81,#82),.UNSPECIFIED.,.F.,.F.,(2,
    2),(0.,1.),.PIECEWISE_BEZIER_KNOTS.);
#81 = CARTESIAN_POINT('',(0.246051610943,0.405923053509,0.181176701074)
  );
#82 = CARTESIAN_POINT('',(0.246051610943,0.404113174716,0.18079567396));
#83 = PCURVE('',#65,#84);
#84 = DEFINITIONAL_REPRESENTATION('',(#85),#88);
#85 = B_SPLINE_CURVE_WITH_KNOTS('',1,(#86,#87),.UNSPECIFIED.,.F.,.F.,(2,
    2),(0.,1.),.PIECEWISE_BEZIER_KNOTS.);
#86 = CARTESIAN_POINT('',(2.758520130524E-04,-8.196009404476E-04));
#87 = CARTESIAN_POINT('',(-1.051751009476E-04,9.902778525523E-04));
#88 = ( GEOMETRIC_REPRESENTATION_CONTEXT(2) 
PARAMETRIC_REPRESENTATION_CONTEXT() REPRESENTATION_CONTEXT('2D SPACE',''
  ) );
#89 = ORIENTED_EDGE('',*,*,#90,.F.);
#90 = EDGE_CURVE('',#58,#77,#91,.T.);
#91 = SURFACE_CURVE('',#92,(#95),.PCURVE_S1.);
#92 = B_SPLINE_CURVE_WITH_KNOTS('',1,(#93,#94),.UNSPECIFIED.,.F.,.F.,(2,
    2),(0.,1.),.PIECEWISE_BEZIER_KNOTS.);
#93 = CARTESIAN_POINT('',(0.246051610943,0.405923053509,0.18079567396));
#94 = CARTESIAN_POINT('',(0.246051610943,0.404113174716,0.18079567396));
#95 = PCURVE('',#65,#96);
#96 = DEFINITIONAL_REPRESENTATION('',(#97),#100);
#97 = B_SPLINE_CURVE_WITH_KNOTS('',1,(#98,#99),.UNSPECIFIED.,.F.,.F.,(2,
    2),(0.,1.),.PIECEWISE_BEZIER_KNOTS.);
#98 = CARTESIAN_POINT('',(-1.051751009476E-04,-8.196009404476E-04));
#99 = CARTESIAN_POINT('',(-1.051751009476E-04,9.902778525523E-04));
#100 = ( GEOMETRIC_REPRESENTATION_CONTEXT(2) 
PARAMETRIC_REPRESENTATION_CONTEXT() REPRESENTATION_CONTEXT('2D SPACE',''
  ) );
#101 = ( GEOMETRIC_REPRESENTATION_CONTEXT(3) 
GLOBAL_UNCERTAINTY_ASSIGNED_CONTEXT((#105)) GLOBAL_UNIT_ASSIGNED_CONTEXT
((#102,#103,#104)) REPRESENTATION_CONTEXT('Context #1',
  '3D Context with UNIT and UNCERTAINTY') );
#102 = ( LENGTH_UNIT() NAMED_UNIT(*) SI_UNIT(.MILLI.,.METRE.) );
#103 = ( NAMED_UNIT(*) PLANE_ANGLE_UNIT() SI_UNIT($,.RADIAN.) );
#104 = ( NAMED_UNIT(*) SI_UNIT($,.STERADIAN.) SOLID_ANGLE_UNIT() );
#105 = UNCERTAINTY_MEASURE_WITH_UNIT(LENGTH_MEASURE(1.E-07),#102,
  'distance_accuracy_value','confusion accuracy');
#106 = CONTEXT_DEPENDENT_SHAPE_REPRESENTATION(#107,#109);
#107 = ( REPRESENTATION_RELATIONSHIP('','',#48,#10) 
REPRESENTATION_RELATIONSHIP_WITH_TRANSFORMATION(#108) 
SHAPE_REPRESENTATION_RELATIONSHIP() );
#108 = ITEM_DEFINED_TRANSFORMATION('','',#11,#15);
#109 = PRODUCT_DEFINITION_SHAPE('Placement','Placement of an item',#110
  );
#110 = NEXT_ASSEMBLY_USAGE_OCCURRENCE('1','','',#5,#43,$);
#111 = PRODUCT_RELATED_PRODUCT_CATEGORY('part',$,(#45));
#112 = SHAPE_DEFINITION_REPRESENTATION(#113,#119);
#113 = PRODUCT_DEFINITION_SHAPE('','',#114);
#114 = PRODUCT_DEFINITION('design','',#115,#118);
#115 = PRODUCT_DEFINITION_FORMATION('','',#116);
#116 = PRODUCT('Open CASCADE STEP translator 7.9 1.2',
  'Open CASCADE STEP translator 7.9 1.2','',(#117));
#117 = PRODUCT_CONTEXT('',#2,'mechanical');
#118 = PRODUCT_DEFINITION_CONTEXT('part definition',#2,'design');
#119 = MANIFOLD_SURFACE_SHAPE_REPRESENTATION('',(#11,#120),#172);
#120 = SHELL_BASED_SURFACE_MODEL('',(#121));
#121 = OPEN_SHELL('',(#122));
#122 = ADVANCED_FACE('',(#123),#136,.T.);
#123 = FACE_BOUND('',#124,.T.);
#124 = EDGE_LOOP('',(#125,#146,#160));
#125 = ORIENTED_EDGE('',*,*,#126,.F.);
#126 = EDGE_CURVE('',#127,#129,#131,.T.);
#127 = VERTEX_POINT('',#128);
#128 = CARTESIAN_POINT('',(0.246006846879,0.405923053509,0.18079567396)
  );
#129 = VERTEX_POINT('',#130);
#130 = CARTESIAN_POINT('',(0.246006846879,0.405923053509,0.181176701074)
  );
#131 = SURFACE_CURVE('',#132,(#135),.PCURVE_S1.);
#132 = B_SPLINE_CURVE_WITH_KNOTS('',1,(#133,#134),.UNSPECIFIED.,.F.,.F.,
  (2,2),(0.,1.),.PIECEWISE_BEZIER_KNOTS.);
#133 = CARTESIAN_POINT('',(0.246006846879,0.405923053509,0.18079567396)
  );
#134 = CARTESIAN_POINT('',(0.246006846879,0.405923053509,0.181176701074)
  );
#135 = PCURVE('',#136,#141);
#136 = PLANE('',#137);
#137 = AXIS2_PLACEMENT_3D('',#138,#139,#140);
#138 = CARTESIAN_POINT('',(0.246006846879,0.405103452569,0.180900849061)
  );
#139 = DIRECTION('',(-1.,-0.,-0.));
#140 = DIRECTION('',(0.,0.,-1.));
#141 = DEFINITIONAL_REPRESENTATION('',(#142),#145);
#142 = B_SPLINE_CURVE_WITH_KNOTS('',1,(#143,#144),.UNSPECIFIED.,.F.,.F.,
  (2,2),(0.,1.),.PIECEWISE_BEZIER_KNOTS.);
#143 = CARTESIAN_POINT('',(1.051751009476E-04,-8.196009404476E-04));
#144 = CARTESIAN_POINT('',(-2.758520130524E-04,-8.196009404476E-04));
#145 = ( GEOMETRIC_REPRESENTATION_CONTEXT(2) 
PARAMETRIC_REPRESENTATION_CONTEXT() REPRESENTATION_CONTEXT('2D SPACE',''
  ) );
#146 = ORIENTED_EDGE('',*,*,#147,.F.);
#147 = EDGE_CURVE('',#148,#127,#150,.T.);
#148 = VERTEX_POINT('',#149);
#149 = CARTESIAN_POINT('',(0.246006846879,0.404113174716,0.18079567396)
  );
#150 = SURFACE_CURVE('',#151,(#154),.PCURVE_S1.);
#151 = B_SPLINE_CURVE_WITH_KNOTS('',1,(#152,#153),.UNSPECIFIED.,.F.,.F.,
  (2,2),(0.,1.),.PIECEWISE_BEZIER_KNOTS.);
#152 = CARTESIAN_POINT('',(0.246006846879,0.404113174716,0.18079567396)
  );
#153 = CARTESIAN_POINT('',(0.246006846879,0.405923053509,0.18079567396)
  );
#154 = PCURVE('',#136,#155);
#155 = DEFINITIONAL_REPRESENTATION('',(#156),#159);
#156 = B_SPLINE_CURVE_WITH_KNOTS('',1,(#157,#158),.UNSPECIFIED.,.F.,.F.,
  (2,2),(0.,1.),.PIECEWISE_BEZIER_KNOTS.);
#157 = CARTESIAN_POINT('',(1.051751009476E-04,9.902778525524E-04));
#158 = CARTESIAN_POINT('',(1.051751009476E-04,-8.196009404476E-04));
#159 = ( GEOMETRIC_REPRESENTATION_CONTEXT(2) 
PARAMETRIC_REPRESENTATION_CONTEXT() REPRESENTATION_CONTEXT('2D SPACE',''
  ) );
#160 = ORIENTED_EDGE('',*,*,#161,.F.);
#161 = EDGE_CURVE('',#129,#148,#162,.T.);
#162 = SURFACE_CURVE('',#163,(#166),.PCURVE_S1.);
#163 = B_SPLINE_CURVE_WITH_KNOTS('',1,(#164,#165),.UNSPECIFIED.,.F.,.F.,
  (2,2),(0.,1.),.PIECEWISE_BEZIER_KNOTS.);
#164 = CARTESIAN_POINT('',(0.246006846879,0.405923053509,0.181176701074)
  );
#165 = CARTESIAN_POINT('',(0.246006846879,0.404113174716,0.18079567396)
  );
#166 = PCURVE('',#136,#167);
#167 = DEFINITIONAL_REPRESENTATION('',(#168),#171);
#168 = B_SPLINE_CURVE_WITH_KNOTS('',1,(#169,#170),.UNSPECIFIED.,.F.,.F.,
  (2,2),(0.,1.),.PIECEWISE_BEZIER_KNOTS.);
#169 = CARTESIAN_POINT('',(-2.758520130524E-04,-8.196009404476E-04));
#170 = CARTESIAN_POINT('',(1.051751009476E-04,9.902778525524E-04));
#171 = ( GEOMETRIC_REPRESENTATION_CONTEXT(2) 
PARAMETRIC_REPRESENTATION_CONTEXT() REPRESENTATION_CONTEXT('2D SPACE',''
  ) );
#172 = ( GEOMETRIC_REPRESENTATION_CONTEXT(3) 
GLOBAL_UNCERTAINTY_ASSIGNED_CONTEXT((#176)) GLOBAL_UNIT_ASSIGNED_CONTEXT
((#173,#174,#175)) REPRESENTATION_CONTEXT('Context #1',
  '3D Context with UNIT and UNCERTAINTY') );
#173 = ( LENGTH_UNIT() NAMED_UNIT(*) SI_UNIT(.MILLI.,.METRE.) );
#174 = ( NAMED_UNIT(*) PLANE_ANGLE_UNIT() SI_UNIT($,.RADIAN.) );
#175 = ( NAMED_UNIT(*) SI_UNIT($,.STERADIAN.) SOLID_ANGLE_UNIT() );
#176 = UNCERTAINTY_MEASURE_WITH_UNIT(LENGTH_MEASURE(1.E-07),#173,
  'distance_accuracy_value','confusion accuracy');
#177 = CONTEXT_DEPENDENT_SHAPE_REPRESENTATION(#178,#180);
#178 = ( REPRESENTATION_RELATIONSHIP('','',#119,#10) 
REPRESENTATION_RELATIONSHIP_WITH_TRANSFORMATION(#179) 
SHAPE_REPRESENTATION_RELATIONSHIP() );
#179 = ITEM_DEFINED_TRANSFORMATION('','',#11,#19);
#180 = PRODUCT_DEFINITION_SHAPE('Placement','Placement of an item',#181
  );
#181 = NEXT_ASSEMBLY_USAGE_OCCURRENCE('2','','',#5,#114,$);
#182 = PRODUCT_RELATED_PRODUCT_CATEGORY('part',$,(#116));
#183 = SHAPE_DEFINITION_REPRESENTATION(#184,#190);
#184 = PRODUCT_DEFINITION_SHAPE('','',#185);
#185 = PRODUCT_DEFINITION('design','',#186,#189);
#186 = PRODUCT_DEFINITION_FORMATION('','',#187);
#187 = PRODUCT('Open CASCADE STEP translator 7.9 1.3',
  'Open CASCADE STEP translator 7.9 1.3','',(#188));
#188 = PRODUCT_CONTEXT('',#2,'mechanical');
#189 = PRODUCT_DEFINITION_CONTEXT('part definition',#2,'design');
#190 = MANIFOLD_SURFACE_SHAPE_REPRESENTATION('',(#11,#191),#261);
#191 = SHELL_BASED_SURFACE_MODEL('',(#192));
#192 = OPEN_SHELL('',(#193));
#193 = ADVANCED_FACE('',(#194),#207,.T.);
#194 = FACE_BOUND('',#195,.T.);
#195 = EDGE_LOOP('',(#196,#218,#233,#248));
#196 = ORIENTED_EDGE('',*,*,#197,.F.);
#197 = EDGE_CURVE('',#198,#200,#202,.T.);
#198 = VERTEX_POINT('',#199);
#199 = CARTESIAN_POINT('',(0.246006846879,0.404113174716,0.18079567396)
  );
#200 = VERTEX_POINT('',#201);
#201 = CARTESIAN_POINT('',(0.246051610944,0.404113174716,0.18079567396)
  );
#202 = SURFACE_CURVE('',#203,(#206),.PCURVE_S1.);
#203 = B_SPLINE_CURVE_WITH_KNOTS('',1,(#204,#205),.UNSPECIFIED.,.F.,.F.,
  (2,2),(0.,4.5E-05),.PIECEWISE_BEZIER_KNOTS.);
#204 = CARTESIAN_POINT('',(0.246006846879,0.404113174716,0.18079567396)
  );
#205 = CARTESIAN_POINT('',(0.246051610944,0.404113174716,0.18079567396)
  );
#206 = PCURVE('',#207,#212);
#207 = B_SPLINE_SURFACE_WITH_KNOTS('',1,1,(
    (#208,#209)
    ,(#210,#211
    )),.UNSPECIFIED.,.F.,.F.,.F.,(2,2),(2,2),(0.,1.81E-03),(0.,4.5E-05),
  .PIECEWISE_BEZIER_KNOTS.);
#208 = CARTESIAN_POINT('',(0.246006846879,0.404113174716,0.18079567396)
  );
#209 = CARTESIAN_POINT('',(0.246051610944,0.404113174716,0.18079567396)
  );
#210 = CARTESIAN_POINT('',(0.246006846879,0.405923053509,0.18079567396)
  );
#211 = CARTESIAN_POINT('',(0.246051610944,0.405923053509,0.18079567396)
  );
#212 = DEFINITIONAL_REPRESENTATION('',(#213),#217);
#213 = LINE('',#214,#215);
#214 = CARTESIAN_POINT('',(0.,0.));
#215 = VECTOR('',#216,1.);
#216 = DIRECTION('',(0.,1.));
#217 = ( GEOMETRIC_REPRESENTATION_CONTEXT(2) 
PARAMETRIC_REPRESENTATION_CONTEXT() REPRESENTATION_CONTEXT('2D SPACE',''
  ) );
#218 = ORIENTED_EDGE('',*,*,#219,.T.);
#219 = EDGE_CURVE('',#198,#220,#222,.T.);
#220 = VERTEX_POINT('',#221);
#221 = CARTESIAN_POINT('',(0.246006846879,0.405923053509,0.18079567396)
  );
#222 = SURFACE_CURVE('',#223,(#226),.PCURVE_S1.);
#223 = B_SPLINE_CURVE_WITH_KNOTS('',1,(#224,#225),.UNSPECIFIED.,.F.,.F.,
  (2,2),(0.,1.81E-03),.PIECEWISE_BEZIER_KNOTS.);
#224 = CARTESIAN_POINT('',(0.246006846879,0.404113174716,0.18079567396)
  );
#225 = CARTESIAN_POINT('',(0.246006846879,0.405923053509,0.18079567396)
  );
#226 = PCURVE('',#207,#227);
#227 = DEFINITIONAL_REPRESENTATION('',(#228),#232);
#228 = LINE('',#229,#230);
#229 = CARTESIAN_POINT('',(0.,0.));
#230 = VECTOR('',#231,1.);
#231 = DIRECTION('',(1.,0.));
#232 = ( GEOMETRIC_REPRESENTATION_CONTEXT(2) 
PARAMETRIC_REPRESENTATION_CONTEXT() REPRESENTATION_CONTEXT('2D SPACE',''
  ) );
#233 = ORIENTED_EDGE('',*,*,#234,.T.);
#234 = EDGE_CURVE('',#220,#235,#237,.T.);
#235 = VERTEX_POINT('',#236);
#236 = CARTESIAN_POINT('',(0.246051610944,0.405923053509,0.18079567396)
  );
#237 = SURFACE_CURVE('',#238,(#241),.PCURVE_S1.);
#238 = B_SPLINE_CURVE_WITH_KNOTS('',1,(#239,#240),.UNSPECIFIED.,.F.,.F.,
  (2,2),(0.,4.5E-05),.PIECEWISE_BEZIER_KNOTS.);
#239 = CARTESIAN_POINT('',(0.246006846879,0.405923053509,0.18079567396)
  );
#240 = CARTESIAN_POINT('',(0.246051610944,0.405923053509,0.18079567396)
  );
#241 = PCURVE('',#207,#242);
#242 = DEFINITIONAL_REPRESENTATION('',(#243),#247);
#243 = LINE('',#244,#245);
#244 = CARTESIAN_POINT('',(1.81E-03,0.));
#245 = VECTOR('',#246,1.);
#246 = DIRECTION('',(0.,1.));
#247 = ( GEOMETRIC_REPRESENTATION_CONTEXT(2) 
PARAMETRIC_REPRESENTATION_CONTEXT() REPRESENTATION_CONTEXT('2D SPACE',''
  ) );
#248 = ORIENTED_EDGE('',*,*,#249,.F.);
#249 = EDGE_CURVE('',#200,#235,#250,.T.);
#250 = SURFACE_CURVE('',#251,(#254),.PCURVE_S1.);
#251 = B_SPLINE_CURVE_WITH_KNOTS('',1,(#252,#253),.UNSPECIFIED.,.F.,.F.,
  (2,2),(0.,1.81E-03),.PIECEWISE_BEZIER_KNOTS.);
#252 = CARTESIAN_POINT('',(0.246051610944,0.404113174716,0.18079567396)
  );
#253 = CARTESIAN_POINT('',(0.246051610944,0.405923053509,0.18079567396)
  );
#254 = PCURVE('',#207,#255);
#255 = DEFINITIONAL_REPRESENTATION('',(#256),#260);
#256 = LINE('',#257,#258);
#257 = CARTESIAN_POINT('',(0.,4.5E-05));
#258 = VECTOR('',#259,1.);
#259 = DIRECTION('',(1.,0.));
#260 = ( GEOMETRIC_REPRESENTATION_CONTEXT(2) 
PARAMETRIC_REPRESENTATION_CONTEXT() REPRESENTATION_CONTEXT('2D SPACE',''
  ) );
#261 = ( GEOMETRIC_REPRESENTATION_CONTEXT(3) 
GLOBAL_UNCERTAINTY_ASSIGNED_CONTEXT((#265)) GLOBAL_UNIT_ASSIGNED_CONTEXT
((#262,#263,#264)) REPRESENTATION_CONTEXT('Context #1',
  '3D Context with UNIT and UNCERTAINTY') );
#262 = ( LENGTH_UNIT() NAMED_UNIT(*) SI_UNIT(.MILLI.,.METRE.) );
#263 = ( NAMED_UNIT(*) PLANE_ANGLE_UNIT() SI_UNIT($,.RADIAN.) );
#264 = ( NAMED_UNIT(*) SI_UNIT($,.STERADIAN.) SOLID_ANGLE_UNIT() );
#265 = UNCERTAINTY_MEASURE_WITH_UNIT(LENGTH_MEASURE(1.E-07),#262,
  'distance_accuracy_value','confusion accuracy');
#266 = CONTEXT_DEPENDENT_SHAPE_REPRESENTATION(#267,#269);
#267 = ( REPRESENTATION_RELATIONSHIP('','',#190,#10) 
REPRESENTATION_RELATIONSHIP_WITH_TRANSFORMATION(#268) 
SHAPE_REPRESENTATION_RELATIONSHIP() );
#268 = ITEM_DEFINED_TRANSFORMATION('','',#11,#23);
#269 = PRODUCT_DEFINITION_SHAPE('Placement','Placement of an item',#270
  );
#270 = NEXT_ASSEMBLY_USAGE_OCCURRENCE('3','','',#5,#185,$);
#271 = PRODUCT_RELATED_PRODUCT_CATEGORY('part',$,(#187));
#272 = SHAPE_DEFINITION_REPRESENTATION(#273,#279);
#273 = PRODUCT_DEFINITION_SHAPE('','',#274);
#274 = PRODUCT_DEFINITION('design','',#275,#278);
#275 = PRODUCT_DEFINITION_FORMATION('','',#276);
#276 = PRODUCT('Open CASCADE STEP translator 7.9 1.4',
  'Open CASCADE STEP translator 7.9 1.4','',(#277));
#277 = PRODUCT_CONTEXT('',#2,'mechanical');
#278 = PRODUCT_DEFINITION_CONTEXT('part definition',#2,'design');
#279 = MANIFOLD_SURFACE_SHAPE_REPRESENTATION('',(#11,#280),#350);
#280 = SHELL_BASED_SURFACE_MODEL('',(#281));
#281 = OPEN_SHELL('',(#282));
#282 = ADVANCED_FACE('',(#283),#296,.T.);
#283 = FACE_BOUND('',#284,.T.);
#284 = EDGE_LOOP('',(#285,#307,#322,#337));
#285 = ORIENTED_EDGE('',*,*,#286,.F.);
#286 = EDGE_CURVE('',#287,#289,#291,.T.);
#287 = VERTEX_POINT('',#288);
#288 = CARTESIAN_POINT('',(0.246006846879,0.405923053509,0.18079567396)
  );
#289 = VERTEX_POINT('',#290);
#290 = CARTESIAN_POINT('',(0.246051610944,0.405923053509,0.18079567396)
  );
#291 = SURFACE_CURVE('',#292,(#295),.PCURVE_S1.);
#292 = B_SPLINE_CURVE_WITH_KNOTS('',1,(#293,#294),.UNSPECIFIED.,.F.,.F.,
  (2,2),(0.,4.5E-05),.PIECEWISE_BEZIER_KNOTS.);
#293 = CARTESIAN_POINT('',(0.246006846879,0.405923053509,0.18079567396)
  );
#294 = CARTESIAN_POINT('',(0.246051610944,0.405923053509,0.18079567396)
  );
#295 = PCURVE('',#296,#301);
#296 = B_SPLINE_SURFACE_WITH_KNOTS('',1,1,(
    (#297,#298)
    ,(#299,#300
    )),.UNSPECIFIED.,.F.,.F.,.F.,(2,2),(2,2),(0.,3.81E-04),(0.,4.5E-05),
  .PIECEWISE_BEZIER_KNOTS.);
#297 = CARTESIAN_POINT('',(0.246006846879,0.405923053509,0.18079567396)
  );
#298 = CARTESIAN_POINT('',(0.246051610944,0.405923053509,0.18079567396)
  );
#299 = CARTESIAN_POINT('',(0.246006846879,0.405923053509,0.181176701074)
  );
#300 = CARTESIAN_POINT('',(0.246051610944,0.405923053509,0.181176701074)
  );
#301 = DEFINITIONAL_REPRESENTATION('',(#302),#306);
#302 = LINE('',#303,#304);
#303 = CARTESIAN_POINT('',(0.,0.));
#304 = VECTOR('',#305,1.);
#305 = DIRECTION('',(0.,1.));
#306 = ( GEOMETRIC_REPRESENTATION_CONTEXT(2) 
PARAMETRIC_REPRESENTATION_CONTEXT() REPRESENTATION_CONTEXT('2D SPACE',''
  ) );
#307 = ORIENTED_EDGE('',*,*,#308,.T.);
#308 = EDGE_CURVE('',#287,#309,#311,.T.);
#309 = VERTEX_POINT('',#310);
#310 = CARTESIAN_POINT('',(0.246006846879,0.405923053509,0.181176701074)
  );
#311 = SURFACE_CURVE('',#312,(#315),.PCURVE_S1.);
#312 = B_SPLINE_CURVE_WITH_KNOTS('',1,(#313,#314),.UNSPECIFIED.,.F.,.F.,
  (2,2),(0.,3.81E-04),.PIECEWISE_BEZIER_KNOTS.);
#313 = CARTESIAN_POINT('',(0.246006846879,0.405923053509,0.18079567396)
  );
#314 = CARTESIAN_POINT('',(0.246006846879,0.405923053509,0.181176701074)
  );
#315 = PCURVE('',#296,#316);
#316 = DEFINITIONAL_REPRESENTATION('',(#317),#321);
#317 = LINE('',#318,#319);
#318 = CARTESIAN_POINT('',(0.,0.));
#319 = VECTOR('',#320,1.);
#320 = DIRECTION('',(1.,0.));
#321 = ( GEOMETRIC_REPRESENTATION_CONTEXT(2) 
PARAMETRIC_REPRESENTATION_CONTEXT() REPRESENTATION_CONTEXT('2D SPACE',''
  ) );
#322 = ORIENTED_EDGE('',*,*,#323,.T.);
#323 = EDGE_CURVE('',#309,#324,#326,.T.);
#324 = VERTEX_POINT('',#325);
#325 = CARTESIAN_POINT('',(0.246051610944,0.405923053509,0.181176701074)
  );
#326 = SURFACE_CURVE('',#327,(#330),.PCURVE_S1.);
#327 = B_SPLINE_CURVE_WITH_KNOTS('',1,(#328,#329),.UNSPECIFIED.,.F.,.F.,
  (2,2),(0.,4.5E-05),.PIECEWISE_BEZIER_KNOTS.);
#328 = CARTESIAN_POINT('',(0.246006846879,0.405923053509,0.181176701074)
  );
#329 = CARTESIAN_POINT('',(0.246051610944,0.405923053509,0.181176701074)
  );
#330 = PCURVE('',#296,#331);
#331 = DEFINITIONAL_REPRESENTATION('',(#332),#336);
#332 = LINE('',#333,#334);
#333 = CARTESIAN_POINT('',(3.81E-04,0.));
#334 = VECTOR('',#335,1.);
#335 = DIRECTION('',(0.,1.));
#336 = ( GEOMETRIC_REPRESENTATION_CONTEXT(2) 
PARAMETRIC_REPRESENTATION_CONTEXT() REPRESENTATION_CONTEXT('2D SPACE',''
  ) );
#337 = ORIENTED_EDGE('',*,*,#338,.F.);
#338 = EDGE_CURVE('',#289,#324,#339,.T.);
#339 = SURFACE_CURVE('',#340,(#343),.PCURVE_S1.);
#340 = B_SPLINE_CURVE_WITH_KNOTS('',1,(#341,#342),.UNSPECIFIED.,.F.,.F.,
  (2,2),(0.,3.81E-04),.PIECEWISE_BEZIER_KNOTS.);
#341 = CARTESIAN_POINT('',(0.246051610944,0.405923053509,0.18079567396)
  );
#342 = CARTESIAN_POINT('',(0.246051610944,0.405923053509,0.181176701074)
  );
#343 = PCURVE('',#296,#344);
#344 = DEFINITIONAL_REPRESENTATION('',(#345),#349);
#345 = LINE('',#346,#347);
#346 = CARTESIAN_POINT('',(0.,4.5E-05));
#347 = VECTOR('',#348,1.);
#348 = DIRECTION('',(1.,0.));
#349 = ( GEOMETRIC_REPRESENTATION_CONTEXT(2) 
PARAMETRIC_REPRESENTATION_CONTEXT() REPRESENTATION_CONTEXT('2D SPACE',''
  ) );
#350 = ( GEOMETRIC_REPRESENTATION_CONTEXT(3) 
GLOBAL_UNCERTAINTY_ASSIGNED_CONTEXT((#354)) GLOBAL_UNIT_ASSIGNED_CONTEXT
((#351,#352,#353)) REPRESENTATION_CONTEXT('Context #1',
  '3D Context with UNIT and UNCERTAINTY') );
#351 = ( LENGTH_UNIT() NAMED_UNIT(*) SI_UNIT(.MILLI.,.METRE.) );
#352 = ( NAMED_UNIT(*) PLANE_ANGLE_UNIT() SI_UNIT($,.RADIAN.) );
#353 = ( NAMED_UNIT(*) SI_UNIT($,.STERADIAN.) SOLID_ANGLE_UNIT() );
#354 = UNCERTAINTY_MEASURE_WITH_UNIT(LENGTH_MEASURE(1.E-07),#351,
  'distance_accuracy_value','confusion accuracy');
#355 = CONTEXT_DEPENDENT_SHAPE_REPRESENTATION(#356,#358);
#356 = ( REPRESENTATION_RELATIONSHIP('','',#279,#10) 
REPRESENTATION_RELATIONSHIP_WITH_TRANSFORMATION(#357) 
SHAPE_REPRESENTATION_RELATIONSHIP() );
#357 = ITEM_DEFINED_TRANSFORMATION('','',#11,#27);
#358 = PRODUCT_DEFINITION_SHAPE('Placement','Placement of an item',#359
  );
#359 = NEXT_ASSEMBLY_USAGE_OCCURRENCE('4','','',#5,#274,$);
#360 = PRODUCT_RELATED_PRODUCT_CATEGORY('part',$,(#276));
#361 = SHAPE_DEFINITION_REPRESENTATION(#362,#368);
#362 = PRODUCT_DEFINITION_SHAPE('','',#363);
#363 = PRODUCT_DEFINITION('design','',#364,#367);
#364 = PRODUCT_DEFINITION_FORMATION('','',#365);
#365 = PRODUCT('Open CASCADE STEP translator 7.9 1.5',
  'Open CASCADE STEP translator 7.9 1.5','',(#366));
#366 = PRODUCT_CONTEXT('',#2,'mechanical');
#367 = PRODUCT_DEFINITION_CONTEXT('part definition',#2,'design');
#368 = MANIFOLD_SURFACE_SHAPE_REPRESENTATION('',(#11,#369),#439);
#369 = SHELL_BASED_SURFACE_MODEL('',(#370));
#370 = OPEN_SHELL('',(#371));
#371 = ADVANCED_FACE('',(#372),#385,.T.);
#372 = FACE_BOUND('',#373,.T.);
#373 = EDGE_LOOP('',(#374,#396,#411,#426));
#374 = ORIENTED_EDGE('',*,*,#375,.F.);
#375 = EDGE_CURVE('',#376,#378,#380,.T.);
#376 = VERTEX_POINT('',#377);
#377 = CARTESIAN_POINT('',(0.246006846879,0.405923053509,0.181176701074)
  );
#378 = VERTEX_POINT('',#379);
#379 = CARTESIAN_POINT('',(0.246051610944,0.405923053509,0.181176701074)
  );
#380 = SURFACE_CURVE('',#381,(#384),.PCURVE_S1.);
#381 = B_SPLINE_CURVE_WITH_KNOTS('',1,(#382,#383),.UNSPECIFIED.,.F.,.F.,
  (2,2),(0.,4.5E-05),.PIECEWISE_BEZIER_KNOTS.);
#382 = CARTESIAN_POINT('',(0.246006846879,0.405923053509,0.181176701074)
  );
#383 = CARTESIAN_POINT('',(0.246051610944,0.405923053509,0.181176701074)
  );
#384 = PCURVE('',#385,#390);
#385 = B_SPLINE_SURFACE_WITH_KNOTS('',1,1,(
    (#386,#387)
    ,(#388,#389
    )),.UNSPECIFIED.,.F.,.F.,.F.,(2,2),(2,2),(0.,1.85E-03),(0.,4.5E-05),
  .PIECEWISE_BEZIER_KNOTS.);
#386 = CARTESIAN_POINT('',(0.246006846879,0.405923053509,0.181176701074)
  );
#387 = CARTESIAN_POINT('',(0.246051610944,0.405923053509,0.181176701074)
  );
#388 = CARTESIAN_POINT('',(0.246006846879,0.404113174716,0.18079567396)
  );
#389 = CARTESIAN_POINT('',(0.246051610944,0.404113174716,0.18079567396)
  );
#390 = DEFINITIONAL_REPRESENTATION('',(#391),#395);
#391 = LINE('',#392,#393);
#392 = CARTESIAN_POINT('',(0.,0.));
#393 = VECTOR('',#394,1.);
#394 = DIRECTION('',(0.,1.));
#395 = ( GEOMETRIC_REPRESENTATION_CONTEXT(2) 
PARAMETRIC_REPRESENTATION_CONTEXT() REPRESENTATION_CONTEXT('2D SPACE',''
  ) );
#396 = ORIENTED_EDGE('',*,*,#397,.T.);
#397 = EDGE_CURVE('',#376,#398,#400,.T.);
#398 = VERTEX_POINT('',#399);
#399 = CARTESIAN_POINT('',(0.246006846879,0.404113174716,0.18079567396)
  );
#400 = SURFACE_CURVE('',#401,(#404),.PCURVE_S1.);
#401 = B_SPLINE_CURVE_WITH_KNOTS('',1,(#402,#403),.UNSPECIFIED.,.F.,.F.,
  (2,2),(0.,1.85E-03),.PIECEWISE_BEZIER_KNOTS.);
#402 = CARTESIAN_POINT('',(0.246006846879,0.405923053509,0.181176701074)
  );
#403 = CARTESIAN_POINT('',(0.246006846879,0.404113174716,0.18079567396)
  );
#404 = PCURVE('',#385,#405);
#405 = DEFINITIONAL_REPRESENTATION('',(#406),#410);
#406 = LINE('',#407,#408);
#407 = CARTESIAN_POINT('',(0.,0.));
#408 = VECTOR('',#409,1.);
#409 = DIRECTION('',(1.,0.));
#410 = ( GEOMETRIC_REPRESENTATION_CONTEXT(2) 
PARAMETRIC_REPRESENTATION_CONTEXT() REPRESENTATION_CONTEXT('2D SPACE',''
  ) );
#411 = ORIENTED_EDGE('',*,*,#412,.T.);
#412 = EDGE_CURVE('',#398,#413,#415,.T.);
#413 = VERTEX_POINT('',#414);
#414 = CARTESIAN_POINT('',(0.246051610944,0.404113174716,0.18079567396)
  );
#415 = SURFACE_CURVE('',#416,(#419),.PCURVE_S1.);
#416 = B_SPLINE_CURVE_WITH_KNOTS('',1,(#417,#418),.UNSPECIFIED.,.F.,.F.,
  (2,2),(0.,4.5E-05),.PIECEWISE_BEZIER_KNOTS.);
#417 = CARTESIAN_POINT('',(0.246006846879,0.404113174716,0.18079567396)
  );
#418 = CARTESIAN_POINT('',(0.246051610944,0.404113174716,0.18079567396)
  );
#419 = PCURVE('',#385,#420);
#420 = DEFINITIONAL_REPRESENTATION('',(#421),#425);
#421 = LINE('',#422,#423);
#422 = CARTESIAN_POINT('',(1.85E-03,0.));
#423 = VECTOR('',#424,1.);
#424 = DIRECTION('',(0.,1.));
#425 = ( GEOMETRIC_REPRESENTATION_CONTEXT(2) 
PARAMETRIC_REPRESENTATION_CONTEXT() REPRESENTATION_CONTEXT('2D SPACE',''
  ) );
#426 = ORIENTED_EDGE('',*,*,#427,.F.);
#427 = EDGE_CURVE('',#378,#413,#428,.T.);
#428 = SURFACE_CURVE('',#429,(#432),.PCURVE_S1.);
#429 = B_SPLINE_CURVE_WITH_KNOTS('',1,(#430,#431),.UNSPECIFIED.,.F.,.F.,
  (2,2),(0.,1.85E-03),.PIECEWISE_BEZIER_KNOTS.);
#430 = CARTESIAN_POINT('',(0.246051610944,0.405923053509,0.181176701074)
  );
#431 = CARTESIAN_POINT('',(0.246051610944,0.404113174716,0.18079567396)
  );
#432 = PCURVE('',#385,#433);
#433 = DEFINITIONAL_REPRESENTATION('',(#434),#438);
#434 = LINE('',#435,#436);
#435 = CARTESIAN_POINT('',(0.,4.5E-05));
#436 = VECTOR('',#437,1.);
#437 = DIRECTION('',(1.,0.));
#438 = ( GEOMETRIC_REPRESENTATION_CONTEXT(2) 
PARAMETRIC_REPRESENTATION_CONTEXT() REPRESENTATION_CONTEXT('2D SPACE',''
  ) );
#439 = ( GEOMETRIC_REPRESENTATION_CONTEXT(3) 
GLOBAL_UNCERTAINTY_ASSIGNED_CONTEXT((#443)) GLOBAL_UNIT_ASSIGNED_CONTEXT
((#440,#441,#442)) REPRESENTATION_CONTEXT('Context #1',
  '3D Context with UNIT and UNCERTAINTY') );
#440 = ( LENGTH_UNIT() NAMED_UNIT(*) SI_UNIT(.MILLI.,.METRE.) );
#441 = ( NAMED_UNIT(*) PLANE_ANGLE_UNIT() SI_UNIT($,.RADIAN.) );
#442 = ( NAMED_UNIT(*) SI_UNIT($,.STERADIAN.) SOLID_ANGLE_UNIT() );
#443 = UNCERTAINTY_MEASURE_WITH_UNIT(LENGTH_MEASURE(1.E-07),#440,
  'distance_accuracy_value','confusion accuracy');
#444 = CONTEXT_DEPENDENT_SHAPE_REPRESENTATION(#445,#447);
#445 = ( REPRESENTATION_RELATIONSHIP('','',#368,#10) 
REPRESENTATION_RELATIONSHIP_WITH_TRANSFORMATION(#446) 
SHAPE_REPRESENTATION_RELATIONSHIP() );
#446 = ITEM_DEFINED_TRANSFORMATION('','',#11,#31);
#447 = PRODUCT_DEFINITION_SHAPE('Placement','Placement of an item',#448
  );
#448 = NEXT_ASSEMBLY_USAGE_OCCURRENCE('5','','',#5,#363,$);
#449 = PRODUCT_RELATED_PRODUCT_CATEGORY('part',$,(#365));
ENDSEC;
END-ISO-10303-21;
