ISO-10303-21;
HEADER;
FILE_DESCRIPTION(('Open CASCADE Model'),'2;1');
FILE_NAME('Open CASCADE Shape Model','2026-07-02T21:05:01',('Author'),(
    'Open CASCADE'),'Open CASCADE STEP processor 7.9','Open CASCADE 7.9'
  ,'Unknown');
FILE_SCHEMA(('AUTOMOTIVE_DESIGN { 1 0 10303 214 1 1 1 1 }'));
ENDSEC;
DATA;
#1 = APPLICATION_PROTOCOL_DEFINITION('international standard',
  'automotive_design',2000,#2);
#2 = APPLICATION_CONTEXT(
  'core data for automotive mechanical design processes');
#3 = SHAPE_DEFINITION_REPRESENTATION(#4,#10);
#4 = PRODUCT_DEFINITION_SHAPE('','',#5);
#5 = PRODUCT_DEFINITION('design','',#6,#9);
#6 = PRODUCT_DEFINITION_FORMATION('','',#7);
#7 = PRODUCT('Open CASCADE STEP translator 7.9 1',
  'Open CASCADE STEP translator 7.9 1','',(#8));
#8 = PRODUCT_CONTEXT('',#2,'mechanical');
#9 = PRODUCT_DEFINITION_CONTEXT('part definition',#2,'design');
#10 = SHAPE_REPRESENTATION('',(#11,#15,#19,#23,#27,#31,#35,#39,#43,#47,
    #51,#55,#59),#63);
#11 = AXIS2_PLACEMENT_3D('',#12,#13,#14);
#12 = CARTESIAN_POINT('',(0.,0.,0.));
#13 = DIRECTION('',(0.,0.,1.));
#14 = DIRECTION('',(1.,0.,-0.));
#15 = AXIS2_PLACEMENT_3D('',#16,#17,#18);
#16 = CARTESIAN_POINT('',(0.,0.,0.));
#17 = DIRECTION('',(0.,0.,1.));
#18 = DIRECTION('',(1.,0.,-0.));
#19 = AXIS2_PLACEMENT_3D('',#20,#21,#22);
#20 = CARTESIAN_POINT('',(0.,0.,0.));
#21 = DIRECTION('',(0.,0.,1.));
#22 = DIRECTION('',(1.,0.,-0.));
#23 = AXIS2_PLACEMENT_3D('',#24,#25,#26);
#24 = CARTESIAN_POINT('',(0.,0.,0.));
#25 = DIRECTION('',(0.,0.,1.));
#26 = DIRECTION('',(1.,0.,-0.));
#27 = AXIS2_PLACEMENT_3D('',#28,#29,#30);
#28 = CARTESIAN_POINT('',(0.,0.,0.));
#29 = DIRECTION('',(0.,0.,1.));
#30 = DIRECTION('',(1.,0.,-0.));
#31 = AXIS2_PLACEMENT_3D('',#32,#33,#34);
#32 = CARTESIAN_POINT('',(0.,0.,0.));
#33 = DIRECTION('',(0.,0.,1.));
#34 = DIRECTION('',(1.,0.,-0.));
#35 = AXIS2_PLACEMENT_3D('',#36,#37,#38);
#36 = CARTESIAN_POINT('',(0.,0.,0.));
#37 = DIRECTION('',(0.,0.,1.));
#38 = DIRECTION('',(1.,0.,-0.));
#39 = AXIS2_PLACEMENT_3D('',#40,#41,#42);
#40 = CARTESIAN_POINT('',(0.,0.,0.));
#41 = DIRECTION('',(0.,0.,1.));
#42 = DIRECTION('',(1.,0.,-0.));
#43 = AXIS2_PLACEMENT_3D('',#44,#45,#46);
#44 = CARTESIAN_POINT('',(0.,0.,0.));
#45 = DIRECTION('',(0.,0.,1.));
#46 = DIRECTION('',(1.,0.,-0.));
#47 = AXIS2_PLACEMENT_3D('',#48,#49,#50);
#48 = CARTESIAN_POINT('',(0.,0.,0.));
#49 = DIRECTION('',(0.,0.,1.));
#50 = DIRECTION('',(1.,0.,-0.));
#51 = AXIS2_PLACEMENT_3D('',#52,#53,#54);
#52 = CARTESIAN_POINT('',(0.,0.,0.));
#53 = DIRECTION('',(0.,0.,1.));
#54 = DIRECTION('',(1.,0.,-0.));
#55 = AXIS2_PLACEMENT_3D('',#56,#57,#58);
#56 = CARTESIAN_POINT('',(0.,0.,0.));
#57 = DIRECTION('',(0.,0.,1.));
#58 = DIRECTION('',(1.,0.,-0.));
#59 = AXIS2_PLACEMENT_3D('',#60,#61,#62);
#60 = CARTESIAN_POINT('',(0.,0.,0.));
#61 = DIRECTION('',(0.,0.,1.));
#62 = DIRECTION('',(1.,0.,-0.));
#63 = ( GEOMETRIC_REPRESENTATION_CONTEXT(3) 
GLOBAL_UNCERTAINTY_ASSIGNED_CONTEXT((#67)) GLOBAL_UNIT_ASSIGNED_CONTEXT(
(#64,#65,#66)) REPRESENTATION_CONTEXT('Context #1',
  '3D Context with UNIT and UNCERTAINTY') );
#64 = ( LENGTH_UNIT() NAMED_UNIT(*) SI_UNIT(.MILLI.,.METRE.) );
#65 = ( NAMED_UNIT(*) PLANE_ANGLE_UNIT() SI_UNIT($,.RADIAN.) );
#66 = ( NAMED_UNIT(*) SI_UNIT($,.STERADIAN.) SOLID_ANGLE_UNIT() );
#67 = UNCERTAINTY_MEASURE_WITH_UNIT(LENGTH_MEASURE(1.E-07),#64,
  'distance_accuracy_value','confusion accuracy');
#68 = PRODUCT_RELATED_PRODUCT_CATEGORY('part',$,(#7));
#69 = SHAPE_DEFINITION_REPRESENTATION(#70,#76);
#70 = PRODUCT_DEFINITION_SHAPE('','',#71);
#71 = PRODUCT_DEFINITION('design','',#72,#75);
#72 = PRODUCT_DEFINITION_FORMATION('','',#73);
#73 = PRODUCT('Open CASCADE STEP translator 7.9 1.1',
  'Open CASCADE STEP translator 7.9 1.1','',(#74));
#74 = PRODUCT_CONTEXT('',#2,'mechanical');
#75 = PRODUCT_DEFINITION_CONTEXT('part definition',#2,'design');
#76 = MANIFOLD_SURFACE_SHAPE_REPRESENTATION('',(#11,#77),#147);
#77 = SHELL_BASED_SURFACE_MODEL('',(#78));
#78 = OPEN_SHELL('',(#79));
#79 = ADVANCED_FACE('',(#80),#93,.T.);
#80 = FACE_BOUND('',#81,.T.);
#81 = EDGE_LOOP('',(#82,#104,#119,#134));
#82 = ORIENTED_EDGE('',*,*,#83,.F.);
#83 = EDGE_CURVE('',#84,#86,#88,.T.);
#84 = VERTEX_POINT('',#85);
#85 = CARTESIAN_POINT('',(0.29488567574,0.194760246177,
    6.589267944998E-02));
#86 = VERTEX_POINT('',#87);
#87 = CARTESIAN_POINT('',(0.29488567574,0.194760246177,
    6.470604520773E-02));
#88 = SURFACE_CURVE('',#89,(#92),.PCURVE_S1.);
#89 = B_SPLINE_CURVE_WITH_KNOTS('',1,(#90,#91),.UNSPECIFIED.,.F.,.F.,(2,
    2),(0.,1.187E-03),.PIECEWISE_BEZIER_KNOTS.);
#90 = CARTESIAN_POINT('',(0.29488567574,0.194760246177,
    6.589267944998E-02));
#91 = CARTESIAN_POINT('',(0.29488567574,0.194760246177,
    6.470604520773E-02));
#92 = PCURVE('',#93,#98);
#93 = B_SPLINE_SURFACE_WITH_KNOTS('',1,1,(
    (#94,#95)
    ,(#96,#97
    )),.UNSPECIFIED.,.F.,.F.,.F.,(2,2),(2,2),(0.,6.597E-03),(0.,
    1.187E-03),.PIECEWISE_BEZIER_KNOTS.);
#94 = CARTESIAN_POINT('',(0.29488567574,0.194760246177,
    6.589267944998E-02));
#95 = CARTESIAN_POINT('',(0.29488567574,0.194760246177,
    6.470604520773E-02));
#96 = CARTESIAN_POINT('',(0.290224755813,0.19009932625,
    6.589267944998E-02));
#97 = CARTESIAN_POINT('',(0.290224755813,0.19009932625,
    6.470604520773E-02));
#98 = DEFINITIONAL_REPRESENTATION('',(#99),#103);
#99 = LINE('',#100,#101);
#100 = CARTESIAN_POINT('',(0.,0.));
#101 = VECTOR('',#102,1.);
#102 = DIRECTION('',(0.,1.));
#103 = ( GEOMETRIC_REPRESENTATION_CONTEXT(2) 
PARAMETRIC_REPRESENTATION_CONTEXT() REPRESENTATION_CONTEXT('2D SPACE',''
  ) );
#104 = ORIENTED_EDGE('',*,*,#105,.T.);
#105 = EDGE_CURVE('',#84,#106,#108,.T.);
#106 = VERTEX_POINT('',#107);
#107 = CARTESIAN_POINT('',(0.290224755813,0.19009932625,
    6.589267944998E-02));
#108 = SURFACE_CURVE('',#109,(#112),.PCURVE_S1.);
#109 = B_SPLINE_CURVE_WITH_KNOTS('',1,(#110,#111),.UNSPECIFIED.,.F.,.F.,
  (2,2),(0.,6.597E-03),.PIECEWISE_BEZIER_KNOTS.);
#110 = CARTESIAN_POINT('',(0.29488567574,0.194760246177,
    6.589267944998E-02));
#111 = CARTESIAN_POINT('',(0.290224755813,0.19009932625,
    6.589267944998E-02));
#112 = PCURVE('',#93,#113);
#113 = DEFINITIONAL_REPRESENTATION('',(#114),#118);
#114 = LINE('',#115,#116);
#115 = CARTESIAN_POINT('',(0.,0.));
#116 = VECTOR('',#117,1.);
#117 = DIRECTION('',(1.,0.));
#118 = ( GEOMETRIC_REPRESENTATION_CONTEXT(2) 
PARAMETRIC_REPRESENTATION_CONTEXT() REPRESENTATION_CONTEXT('2D SPACE',''
  ) );
#119 = ORIENTED_EDGE('',*,*,#120,.T.);
#120 = EDGE_CURVE('',#106,#121,#123,.T.);
#121 = VERTEX_POINT('',#122);
#122 = CARTESIAN_POINT('',(0.290224755813,0.19009932625,
    6.470604520773E-02));
#123 = SURFACE_CURVE('',#124,(#127),.PCURVE_S1.);
#124 = B_SPLINE_CURVE_WITH_KNOTS('',1,(#125,#126),.UNSPECIFIED.,.F.,.F.,
  (2,2),(0.,1.187E-03),.PIECEWISE_BEZIER_KNOTS.);
#125 = CARTESIAN_POINT('',(0.290224755813,0.19009932625,
    6.589267944998E-02));
#126 = CARTESIAN_POINT('',(0.290224755813,0.19009932625,
    6.470604520773E-02));
#127 = PCURVE('',#93,#128);
#128 = DEFINITIONAL_REPRESENTATION('',(#129),#133);
#129 = LINE('',#130,#131);
#130 = CARTESIAN_POINT('',(6.597E-03,0.));
#131 = VECTOR('',#132,1.);
#132 = DIRECTION('',(0.,1.));
#133 = ( GEOMETRIC_REPRESENTATION_CONTEXT(2) 
PARAMETRIC_REPRESENTATION_CONTEXT() REPRESENTATION_CONTEXT('2D SPACE',''
  ) );
#134 = ORIENTED_EDGE('',*,*,#135,.F.);
#135 = EDGE_CURVE('',#86,#121,#136,.T.);
#136 = SURFACE_CURVE('',#137,(#140),.PCURVE_S1.);
#137 = B_SPLINE_CURVE_WITH_KNOTS('',1,(#138,#139),.UNSPECIFIED.,.F.,.F.,
  (2,2),(0.,6.597E-03),.PIECEWISE_BEZIER_KNOTS.);
#138 = CARTESIAN_POINT('',(0.29488567574,0.194760246177,
    6.470604520773E-02));
#139 = CARTESIAN_POINT('',(0.290224755813,0.19009932625,
    6.470604520773E-02));
#140 = PCURVE('',#93,#141);
#141 = DEFINITIONAL_REPRESENTATION('',(#142),#146);
#142 = LINE('',#143,#144);
#143 = CARTESIAN_POINT('',(0.,1.187E-03));
#144 = VECTOR('',#145,1.);
#145 = DIRECTION('',(1.,0.));
#146 = ( GEOMETRIC_REPRESENTATION_CONTEXT(2) 
PARAMETRIC_REPRESENTATION_CONTEXT() REPRESENTATION_CONTEXT('2D SPACE',''
  ) );
#147 = ( GEOMETRIC_REPRESENTATION_CONTEXT(3) 
GLOBAL_UNCERTAINTY_ASSIGNED_CONTEXT((#151)) GLOBAL_UNIT_ASSIGNED_CONTEXT
((#148,#149,#150)) REPRESENTATION_CONTEXT('Context #1',
  '3D Context with UNIT and UNCERTAINTY') );
#148 = ( LENGTH_UNIT() NAMED_UNIT(*) SI_UNIT(.MILLI.,.METRE.) );
#149 = ( NAMED_UNIT(*) PLANE_ANGLE_UNIT() SI_UNIT($,.RADIAN.) );
#150 = ( NAMED_UNIT(*) SI_UNIT($,.STERADIAN.) SOLID_ANGLE_UNIT() );
#151 = UNCERTAINTY_MEASURE_WITH_UNIT(LENGTH_MEASURE(1.E-07),#148,
  'distance_accuracy_value','confusion accuracy');
#152 = CONTEXT_DEPENDENT_SHAPE_REPRESENTATION(#153,#155);
#153 = ( REPRESENTATION_RELATIONSHIP('','',#76,#10) 
REPRESENTATION_RELATIONSHIP_WITH_TRANSFORMATION(#154) 
SHAPE_REPRESENTATION_RELATIONSHIP() );
#154 = ITEM_DEFINED_TRANSFORMATION('','',#11,#15);
#155 = PRODUCT_DEFINITION_SHAPE('Placement','Placement of an item',#156
  );
#156 = NEXT_ASSEMBLY_USAGE_OCCURRENCE('1','','',#5,#71,$);
#157 = PRODUCT_RELATED_PRODUCT_CATEGORY('part',$,(#73));
#158 = SHAPE_DEFINITION_REPRESENTATION(#159,#165);
#159 = PRODUCT_DEFINITION_SHAPE('','',#160);
#160 = PRODUCT_DEFINITION('design','',#161,#164);
#161 = PRODUCT_DEFINITION_FORMATION('','',#162);
#162 = PRODUCT('Open CASCADE STEP translator 7.9 1.2',
  'Open CASCADE STEP translator 7.9 1.2','',(#163));
#163 = PRODUCT_CONTEXT('',#2,'mechanical');
#164 = PRODUCT_DEFINITION_CONTEXT('part definition',#2,'design');
#165 = MANIFOLD_SURFACE_SHAPE_REPRESENTATION('',(#11,#166),#350);
#166 = SHELL_BASED_SURFACE_MODEL('',(#167));
#167 = OPEN_SHELL('',(#168));
#168 = ADVANCED_FACE('',(#169),#183,.T.);
#169 = FACE_BOUND('',#170,.T.);
#170 = EDGE_LOOP('',(#171,#194,#210,#226,#242,#258,#274,#290,#306,#322,
    #336));
#171 = ORIENTED_EDGE('',*,*,#172,.T.);
#172 = EDGE_CURVE('',#173,#175,#177,.T.);
#173 = VERTEX_POINT('',#174);
#174 = CARTESIAN_POINT('',(0.290225,0.1901,6.5893E-02));
#175 = VERTEX_POINT('',#176);
#176 = CARTESIAN_POINT('',(0.290225,0.181233,6.5893E-02));
#177 = SURFACE_CURVE('',#178,(#182),.PCURVE_S1.);
#178 = LINE('',#179,#180);
#179 = CARTESIAN_POINT('',(0.290225,0.1901,6.5893E-02));
#180 = VECTOR('',#181,1.);
#181 = DIRECTION('',(0.,-1.,0.));
#182 = PCURVE('',#183,#188);
#183 = PLANE('',#184);
#184 = AXIS2_PLACEMENT_3D('',#185,#186,#187);
#185 = CARTESIAN_POINT('',(0.28622956326,0.188908949253,6.5893E-02));
#186 = DIRECTION('',(-0.,-0.,-1.));
#187 = DIRECTION('',(-1.,0.,0.));
#188 = DEFINITIONAL_REPRESENTATION('',(#189),#193);
#189 = LINE('',#190,#191);
#190 = CARTESIAN_POINT('',(-3.995436740108E-03,1.191050746691E-03));
#191 = VECTOR('',#192,1.);
#192 = DIRECTION('',(0.,-1.));
#193 = ( GEOMETRIC_REPRESENTATION_CONTEXT(2) 
PARAMETRIC_REPRESENTATION_CONTEXT() REPRESENTATION_CONTEXT('2D SPACE',''
  ) );
#194 = ORIENTED_EDGE('',*,*,#195,.T.);
#195 = EDGE_CURVE('',#175,#196,#198,.T.);
#196 = VERTEX_POINT('',#197);
#197 = CARTESIAN_POINT('',(0.279851,0.181233,6.5893E-02));
#198 = SURFACE_CURVE('',#199,(#203),.PCURVE_S1.);
#199 = LINE('',#200,#201);
#200 = CARTESIAN_POINT('',(0.290225,0.181233,6.5893E-02));
#201 = VECTOR('',#202,1.);
#202 = DIRECTION('',(-1.,0.,0.));
#203 = PCURVE('',#183,#204);
#204 = DEFINITIONAL_REPRESENTATION('',(#205),#209);
#205 = LINE('',#206,#207);
#206 = CARTESIAN_POINT('',(-3.995436740108E-03,-7.675949253309E-03));
#207 = VECTOR('',#208,1.);
#208 = DIRECTION('',(1.,0.));
#209 = ( GEOMETRIC_REPRESENTATION_CONTEXT(2) 
PARAMETRIC_REPRESENTATION_CONTEXT() REPRESENTATION_CONTEXT('2D SPACE',''
  ) );
#210 = ORIENTED_EDGE('',*,*,#211,.T.);
#211 = EDGE_CURVE('',#196,#212,#214,.T.);
#212 = VERTEX_POINT('',#213);
#213 = CARTESIAN_POINT('',(0.27519,0.185894,6.5893E-02));
#214 = SURFACE_CURVE('',#215,(#219),.PCURVE_S1.);
#215 = LINE('',#216,#217);
#216 = CARTESIAN_POINT('',(0.279851,0.181233,6.5893E-02));
#217 = VECTOR('',#218,1.);
#218 = DIRECTION('',(-0.707106781187,0.707106781187,0.));
#219 = PCURVE('',#183,#220);
#220 = DEFINITIONAL_REPRESENTATION('',(#221),#225);
#221 = LINE('',#222,#223);
#222 = CARTESIAN_POINT('',(6.378563259892E-03,-7.675949253309E-03));
#223 = VECTOR('',#224,1.);
#224 = DIRECTION('',(0.707106781187,0.707106781187));
#225 = ( GEOMETRIC_REPRESENTATION_CONTEXT(2) 
PARAMETRIC_REPRESENTATION_CONTEXT() REPRESENTATION_CONTEXT('2D SPACE',''
  ) );
#226 = ORIENTED_EDGE('',*,*,#227,.T.);
#227 = EDGE_CURVE('',#212,#228,#230,.T.);
#228 = VERTEX_POINT('',#229);
#229 = CARTESIAN_POINT('',(0.27519,0.19476,6.5893E-02));
#230 = SURFACE_CURVE('',#231,(#235),.PCURVE_S1.);
#231 = LINE('',#232,#233);
#232 = CARTESIAN_POINT('',(0.27519,0.185894,6.5893E-02));
#233 = VECTOR('',#234,1.);
#234 = DIRECTION('',(0.,1.,0.));
#235 = PCURVE('',#183,#236);
#236 = DEFINITIONAL_REPRESENTATION('',(#237),#241);
#237 = LINE('',#238,#239);
#238 = CARTESIAN_POINT('',(1.103956325989E-02,-3.014949253309E-03));
#239 = VECTOR('',#240,1.);
#240 = DIRECTION('',(0.,1.));
#241 = ( GEOMETRIC_REPRESENTATION_CONTEXT(2) 
PARAMETRIC_REPRESENTATION_CONTEXT() REPRESENTATION_CONTEXT('2D SPACE',''
  ) );
#242 = ORIENTED_EDGE('',*,*,#243,.T.);
#243 = EDGE_CURVE('',#228,#244,#246,.T.);
#244 = VERTEX_POINT('',#245);
#245 = CARTESIAN_POINT('',(0.279851,0.199421,6.5893E-02));
#246 = SURFACE_CURVE('',#247,(#251),.PCURVE_S1.);
#247 = LINE('',#248,#249);
#248 = CARTESIAN_POINT('',(0.27519,0.19476,6.5893E-02));
#249 = VECTOR('',#250,1.);
#250 = DIRECTION('',(0.707106781187,0.707106781187,0.));
#251 = PCURVE('',#183,#252);
#252 = DEFINITIONAL_REPRESENTATION('',(#253),#257);
#253 = LINE('',#254,#255);
#254 = CARTESIAN_POINT('',(1.103956325989E-02,5.851050746691E-03));
#255 = VECTOR('',#256,1.);
#256 = DIRECTION('',(-0.707106781187,0.707106781187));
#257 = ( GEOMETRIC_REPRESENTATION_CONTEXT(2) 
PARAMETRIC_REPRESENTATION_CONTEXT() REPRESENTATION_CONTEXT('2D SPACE',''
  ) );
#258 = ORIENTED_EDGE('',*,*,#259,.T.);
#259 = EDGE_CURVE('',#244,#260,#262,.T.);
#260 = VERTEX_POINT('',#261);
#261 = CARTESIAN_POINT('',(0.290225,0.199421,6.5893E-02));
#262 = SURFACE_CURVE('',#263,(#267),.PCURVE_S1.);
#263 = LINE('',#264,#265);
#264 = CARTESIAN_POINT('',(0.279851,0.199421,6.5893E-02));
#265 = VECTOR('',#266,1.);
#266 = DIRECTION('',(1.,0.,0.));
#267 = PCURVE('',#183,#268);
#268 = DEFINITIONAL_REPRESENTATION('',(#269),#273);
#269 = LINE('',#270,#271);
#270 = CARTESIAN_POINT('',(6.378563259892E-03,1.051205074669E-02));
#271 = VECTOR('',#272,1.);
#272 = DIRECTION('',(-1.,0.));
#273 = ( GEOMETRIC_REPRESENTATION_CONTEXT(2) 
PARAMETRIC_REPRESENTATION_CONTEXT() REPRESENTATION_CONTEXT('2D SPACE',''
  ) );
#274 = ORIENTED_EDGE('',*,*,#275,.T.);
#275 = EDGE_CURVE('',#260,#276,#278,.T.);
#276 = VERTEX_POINT('',#277);
#277 = CARTESIAN_POINT('',(0.290225,0.19476,6.5893E-02));
#278 = SURFACE_CURVE('',#279,(#283),.PCURVE_S1.);
#279 = LINE('',#280,#281);
#280 = CARTESIAN_POINT('',(0.290225,0.199421,6.5893E-02));
#281 = VECTOR('',#282,1.);
#282 = DIRECTION('',(0.,-1.,0.));
#283 = PCURVE('',#183,#284);
#284 = DEFINITIONAL_REPRESENTATION('',(#285),#289);
#285 = LINE('',#286,#287);
#286 = CARTESIAN_POINT('',(-3.995436740108E-03,1.051205074669E-02));
#287 = VECTOR('',#288,1.);
#288 = DIRECTION('',(0.,-1.));
#289 = ( GEOMETRIC_REPRESENTATION_CONTEXT(2) 
PARAMETRIC_REPRESENTATION_CONTEXT() REPRESENTATION_CONTEXT('2D SPACE',''
  ) );
#290 = ORIENTED_EDGE('',*,*,#291,.T.);
#291 = EDGE_CURVE('',#276,#292,#294,.T.);
#292 = VERTEX_POINT('',#293);
#293 = CARTESIAN_POINT('',(0.294886,0.1901,6.5893E-02));
#294 = SURFACE_CURVE('',#295,(#299),.PCURVE_S1.);
#295 = LINE('',#296,#297);
#296 = CARTESIAN_POINT('',(0.290225,0.19476,6.5893E-02));
#297 = VECTOR('',#298,1.);
#298 = DIRECTION('',(0.707182638803,-0.707030915431,0.));
#299 = PCURVE('',#183,#300);
#300 = DEFINITIONAL_REPRESENTATION('',(#301),#305);
#301 = LINE('',#302,#303);
#302 = CARTESIAN_POINT('',(-3.995436740108E-03,5.851050746691E-03));
#303 = VECTOR('',#304,1.);
#304 = DIRECTION('',(-0.707182638803,-0.707030915431));
#305 = ( GEOMETRIC_REPRESENTATION_CONTEXT(2) 
PARAMETRIC_REPRESENTATION_CONTEXT() REPRESENTATION_CONTEXT('2D SPACE',''
  ) );
#306 = ORIENTED_EDGE('',*,*,#307,.T.);
#307 = EDGE_CURVE('',#292,#308,#310,.T.);
#308 = VERTEX_POINT('',#309);
#309 = CARTESIAN_POINT('',(0.294886,0.181233,6.5893E-02));
#310 = SURFACE_CURVE('',#311,(#315),.PCURVE_S1.);
#311 = LINE('',#312,#313);
#312 = CARTESIAN_POINT('',(0.294886,0.1901,6.5893E-02));
#313 = VECTOR('',#314,1.);
#314 = DIRECTION('',(0.,-1.,0.));
#315 = PCURVE('',#183,#316);
#316 = DEFINITIONAL_REPRESENTATION('',(#317),#321);
#317 = LINE('',#318,#319);
#318 = CARTESIAN_POINT('',(-8.656436740108E-03,1.191050746691E-03));
#319 = VECTOR('',#320,1.);
#320 = DIRECTION('',(0.,-1.));
#321 = ( GEOMETRIC_REPRESENTATION_CONTEXT(2) 
PARAMETRIC_REPRESENTATION_CONTEXT() REPRESENTATION_CONTEXT('2D SPACE',''
  ) );
#322 = ORIENTED_EDGE('',*,*,#323,.T.);
#323 = EDGE_CURVE('',#308,#175,#324,.T.);
#324 = SURFACE_CURVE('',#325,(#329),.PCURVE_S1.);
#325 = LINE('',#326,#327);
#326 = CARTESIAN_POINT('',(0.294886,0.181233,6.5893E-02));
#327 = VECTOR('',#328,1.);
#328 = DIRECTION('',(-1.,0.,0.));
#329 = PCURVE('',#183,#330);
#330 = DEFINITIONAL_REPRESENTATION('',(#331),#335);
#331 = LINE('',#332,#333);
#332 = CARTESIAN_POINT('',(-8.656436740108E-03,-7.675949253309E-03));
#333 = VECTOR('',#334,1.);
#334 = DIRECTION('',(1.,0.));
#335 = ( GEOMETRIC_REPRESENTATION_CONTEXT(2) 
PARAMETRIC_REPRESENTATION_CONTEXT() REPRESENTATION_CONTEXT('2D SPACE',''
  ) );
#336 = ORIENTED_EDGE('',*,*,#337,.T.);
#337 = EDGE_CURVE('',#175,#173,#338,.T.);
#338 = SURFACE_CURVE('',#339,(#343),.PCURVE_S1.);
#339 = LINE('',#340,#341);
#340 = CARTESIAN_POINT('',(0.290225,0.181233,6.5893E-02));
#341 = VECTOR('',#342,1.);
#342 = DIRECTION('',(0.,1.,0.));
#343 = PCURVE('',#183,#344);
#344 = DEFINITIONAL_REPRESENTATION('',(#345),#349);
#345 = LINE('',#346,#347);
#346 = CARTESIAN_POINT('',(-3.995436740108E-03,-7.675949253309E-03));
#347 = VECTOR('',#348,1.);
#348 = DIRECTION('',(0.,1.));
#349 = ( GEOMETRIC_REPRESENTATION_CONTEXT(2) 
PARAMETRIC_REPRESENTATION_CONTEXT() REPRESENTATION_CONTEXT('2D SPACE',''
  ) );
#350 = ( GEOMETRIC_REPRESENTATION_CONTEXT(3) 
GLOBAL_UNCERTAINTY_ASSIGNED_CONTEXT((#354)) GLOBAL_UNIT_ASSIGNED_CONTEXT
((#351,#352,#353)) REPRESENTATION_CONTEXT('Context #1',
  '3D Context with UNIT and UNCERTAINTY') );
#351 = ( LENGTH_UNIT() NAMED_UNIT(*) SI_UNIT(.MILLI.,.METRE.) );
#352 = ( NAMED_UNIT(*) PLANE_ANGLE_UNIT() SI_UNIT($,.RADIAN.) );
#353 = ( NAMED_UNIT(*) SI_UNIT($,.STERADIAN.) SOLID_ANGLE_UNIT() );
#354 = UNCERTAINTY_MEASURE_WITH_UNIT(LENGTH_MEASURE(1.E-07),#351,
  'distance_accuracy_value','confusion accuracy');
#355 = CONTEXT_DEPENDENT_SHAPE_REPRESENTATION(#356,#358);
#356 = ( REPRESENTATION_RELATIONSHIP('','',#165,#10) 
REPRESENTATION_RELATIONSHIP_WITH_TRANSFORMATION(#357) 
SHAPE_REPRESENTATION_RELATIONSHIP() );
#357 = ITEM_DEFINED_TRANSFORMATION('','',#11,#19);
#358 = PRODUCT_DEFINITION_SHAPE('Placement','Placement of an item',#359
  );
#359 = NEXT_ASSEMBLY_USAGE_OCCURRENCE('2','','',#5,#160,$);
#360 = PRODUCT_RELATED_PRODUCT_CATEGORY('part',$,(#162));
#361 = SHAPE_DEFINITION_REPRESENTATION(#362,#368);
#362 = PRODUCT_DEFINITION_SHAPE('','',#363);
#363 = PRODUCT_DEFINITION('design','',#364,#367);
#364 = PRODUCT_DEFINITION_FORMATION('','',#365);
#365 = PRODUCT('Open CASCADE STEP translator 7.9 1.3',
  'Open CASCADE STEP translator 7.9 1.3','',(#366));
#366 = PRODUCT_CONTEXT('',#2,'mechanical');
#367 = PRODUCT_DEFINITION_CONTEXT('part definition',#2,'design');
#368 = MANIFOLD_SURFACE_SHAPE_REPRESENTATION('',(#11,#369),#443);
#369 = SHELL_BASED_SURFACE_MODEL('',(#370));
#370 = OPEN_SHELL('',(#371));
#371 = ADVANCED_FACE('',(#372),#386,.T.);
#372 = FACE_BOUND('',#373,.T.);
#373 = EDGE_LOOP('',(#374,#397,#413,#429));
#374 = ORIENTED_EDGE('',*,*,#375,.T.);
#375 = EDGE_CURVE('',#376,#378,#380,.T.);
#376 = VERTEX_POINT('',#377);
#377 = CARTESIAN_POINT('',(0.290225,0.181233,6.4706E-02));
#378 = VERTEX_POINT('',#379);
#379 = CARTESIAN_POINT('',(0.290225,0.1901,6.4706E-02));
#380 = SURFACE_CURVE('',#381,(#385),.PCURVE_S1.);
#381 = LINE('',#382,#383);
#382 = CARTESIAN_POINT('',(0.290225,0.181233,6.4706E-02));
#383 = VECTOR('',#384,1.);
#384 = DIRECTION('',(0.,1.,0.));
#385 = PCURVE('',#386,#391);
#386 = PLANE('',#387);
#387 = AXIS2_PLACEMENT_3D('',#388,#389,#390);
#388 = CARTESIAN_POINT('',(0.290225,0.1856665,6.52995E-02));
#389 = DIRECTION('',(1.,0.,0.));
#390 = DIRECTION('',(-0.,0.,1.));
#391 = DEFINITIONAL_REPRESENTATION('',(#392),#396);
#392 = LINE('',#393,#394);
#393 = CARTESIAN_POINT('',(-5.935E-04,4.4335E-03));
#394 = VECTOR('',#395,1.);
#395 = DIRECTION('',(0.,-1.));
#396 = ( GEOMETRIC_REPRESENTATION_CONTEXT(2) 
PARAMETRIC_REPRESENTATION_CONTEXT() REPRESENTATION_CONTEXT('2D SPACE',''
  ) );
#397 = ORIENTED_EDGE('',*,*,#398,.T.);
#398 = EDGE_CURVE('',#378,#399,#401,.T.);
#399 = VERTEX_POINT('',#400);
#400 = CARTESIAN_POINT('',(0.290225,0.1901,6.5893E-02));
#401 = SURFACE_CURVE('',#402,(#406),.PCURVE_S1.);
#402 = LINE('',#403,#404);
#403 = CARTESIAN_POINT('',(0.290225,0.1901,6.4706E-02));
#404 = VECTOR('',#405,1.);
#405 = DIRECTION('',(0.,0.,1.));
#406 = PCURVE('',#386,#407);
#407 = DEFINITIONAL_REPRESENTATION('',(#408),#412);
#408 = LINE('',#409,#410);
#409 = CARTESIAN_POINT('',(-5.935E-04,-4.4335E-03));
#410 = VECTOR('',#411,1.);
#411 = DIRECTION('',(1.,0.));
#412 = ( GEOMETRIC_REPRESENTATION_CONTEXT(2) 
PARAMETRIC_REPRESENTATION_CONTEXT() REPRESENTATION_CONTEXT('2D SPACE',''
  ) );
#413 = ORIENTED_EDGE('',*,*,#414,.T.);
#414 = EDGE_CURVE('',#399,#415,#417,.T.);
#415 = VERTEX_POINT('',#416);
#416 = CARTESIAN_POINT('',(0.290225,0.181233,6.5893E-02));
#417 = SURFACE_CURVE('',#418,(#422),.PCURVE_S1.);
#418 = LINE('',#419,#420);
#419 = CARTESIAN_POINT('',(0.290225,0.1901,6.5893E-02));
#420 = VECTOR('',#421,1.);
#421 = DIRECTION('',(0.,-1.,0.));
#422 = PCURVE('',#386,#423);
#423 = DEFINITIONAL_REPRESENTATION('',(#424),#428);
#424 = LINE('',#425,#426);
#425 = CARTESIAN_POINT('',(5.935E-04,-4.4335E-03));
#426 = VECTOR('',#427,1.);
#427 = DIRECTION('',(0.,1.));
#428 = ( GEOMETRIC_REPRESENTATION_CONTEXT(2) 
PARAMETRIC_REPRESENTATION_CONTEXT() REPRESENTATION_CONTEXT('2D SPACE',''
  ) );
#429 = ORIENTED_EDGE('',*,*,#430,.T.);
#430 = EDGE_CURVE('',#415,#376,#431,.T.);
#431 = SURFACE_CURVE('',#432,(#436),.PCURVE_S1.);
#432 = LINE('',#433,#434);
#433 = CARTESIAN_POINT('',(0.290225,0.181233,6.5893E-02));
#434 = VECTOR('',#435,1.);
#435 = DIRECTION('',(0.,0.,-1.));
#436 = PCURVE('',#386,#437);
#437 = DEFINITIONAL_REPRESENTATION('',(#438),#442);
#438 = LINE('',#439,#440);
#439 = CARTESIAN_POINT('',(5.935E-04,4.4335E-03));
#440 = VECTOR('',#441,1.);
#441 = DIRECTION('',(-1.,0.));
#442 = ( GEOMETRIC_REPRESENTATION_CONTEXT(2) 
PARAMETRIC_REPRESENTATION_CONTEXT() REPRESENTATION_CONTEXT('2D SPACE',''
  ) );
#443 = ( GEOMETRIC_REPRESENTATION_CONTEXT(3) 
GLOBAL_UNCERTAINTY_ASSIGNED_CONTEXT((#447)) GLOBAL_UNIT_ASSIGNED_CONTEXT
((#444,#445,#446)) REPRESENTATION_CONTEXT('Context #1',
  '3D Context with UNIT and UNCERTAINTY') );
#444 = ( LENGTH_UNIT() NAMED_UNIT(*) SI_UNIT(.MILLI.,.METRE.) );
#445 = ( NAMED_UNIT(*) PLANE_ANGLE_UNIT() SI_UNIT($,.RADIAN.) );
#446 = ( NAMED_UNIT(*) SI_UNIT($,.STERADIAN.) SOLID_ANGLE_UNIT() );
#447 = UNCERTAINTY_MEASURE_WITH_UNIT(LENGTH_MEASURE(1.E-07),#444,
  'distance_accuracy_value','confusion accuracy');
#448 = CONTEXT_DEPENDENT_SHAPE_REPRESENTATION(#449,#451);
#449 = ( REPRESENTATION_RELATIONSHIP('','',#368,#10) 
REPRESENTATION_RELATIONSHIP_WITH_TRANSFORMATION(#450) 
SHAPE_REPRESENTATION_RELATIONSHIP() );
#450 = ITEM_DEFINED_TRANSFORMATION('','',#11,#23);
#451 = PRODUCT_DEFINITION_SHAPE('Placement','Placement of an item',#452
  );
#452 = NEXT_ASSEMBLY_USAGE_OCCURRENCE('3','','',#5,#363,$);
#453 = PRODUCT_RELATED_PRODUCT_CATEGORY('part',$,(#365));
#454 = SHAPE_DEFINITION_REPRESENTATION(#455,#461);
#455 = PRODUCT_DEFINITION_SHAPE('','',#456);
#456 = PRODUCT_DEFINITION('design','',#457,#460);
#457 = PRODUCT_DEFINITION_FORMATION('','',#458);
#458 = PRODUCT('Open CASCADE STEP translator 7.9 1.4',
  'Open CASCADE STEP translator 7.9 1.4','',(#459));
#459 = PRODUCT_CONTEXT('',#2,'mechanical');
#460 = PRODUCT_DEFINITION_CONTEXT('part definition',#2,'design');
#461 = MANIFOLD_SURFACE_SHAPE_REPRESENTATION('',(#11,#462),#536);
#462 = SHELL_BASED_SURFACE_MODEL('',(#463));
#463 = OPEN_SHELL('',(#464));
#464 = ADVANCED_FACE('',(#465),#479,.T.);
#465 = FACE_BOUND('',#466,.T.);
#466 = EDGE_LOOP('',(#467,#490,#506,#522));
#467 = ORIENTED_EDGE('',*,*,#468,.T.);
#468 = EDGE_CURVE('',#469,#471,#473,.T.);
#469 = VERTEX_POINT('',#470);
#470 = CARTESIAN_POINT('',(0.294886,0.1901,6.4706E-02));
#471 = VERTEX_POINT('',#472);
#472 = CARTESIAN_POINT('',(0.290225,0.1901,6.4706E-02));
#473 = SURFACE_CURVE('',#474,(#478),.PCURVE_S1.);
#474 = LINE('',#475,#476);
#475 = CARTESIAN_POINT('',(0.294886,0.1901,6.4706E-02));
#476 = VECTOR('',#477,1.);
#477 = DIRECTION('',(-1.,0.,0.));
#478 = PCURVE('',#479,#484);
#479 = PLANE('',#480);
#480 = AXIS2_PLACEMENT_3D('',#481,#482,#483);
#481 = CARTESIAN_POINT('',(0.2925555,0.1856665,6.4706E-02));
#482 = DIRECTION('',(0.,0.,1.));
#483 = DIRECTION('',(1.,0.,-0.));
#484 = DEFINITIONAL_REPRESENTATION('',(#485),#489);
#485 = LINE('',#486,#487);
#486 = CARTESIAN_POINT('',(2.3305E-03,4.4335E-03));
#487 = VECTOR('',#488,1.);
#488 = DIRECTION('',(-1.,0.));
#489 = ( GEOMETRIC_REPRESENTATION_CONTEXT(2) 
PARAMETRIC_REPRESENTATION_CONTEXT() REPRESENTATION_CONTEXT('2D SPACE',''
  ) );
#490 = ORIENTED_EDGE('',*,*,#491,.T.);
#491 = EDGE_CURVE('',#471,#492,#494,.T.);
#492 = VERTEX_POINT('',#493);
#493 = CARTESIAN_POINT('',(0.290225,0.181233,6.4706E-02));
#494 = SURFACE_CURVE('',#495,(#499),.PCURVE_S1.);
#495 = LINE('',#496,#497);
#496 = CARTESIAN_POINT('',(0.290225,0.1901,6.4706E-02));
#497 = VECTOR('',#498,1.);
#498 = DIRECTION('',(0.,-1.,0.));
#499 = PCURVE('',#479,#500);
#500 = DEFINITIONAL_REPRESENTATION('',(#501),#505);
#501 = LINE('',#502,#503);
#502 = CARTESIAN_POINT('',(-2.3305E-03,4.4335E-03));
#503 = VECTOR('',#504,1.);
#504 = DIRECTION('',(0.,-1.));
#505 = ( GEOMETRIC_REPRESENTATION_CONTEXT(2) 
PARAMETRIC_REPRESENTATION_CONTEXT() REPRESENTATION_CONTEXT('2D SPACE',''
  ) );
#506 = ORIENTED_EDGE('',*,*,#507,.T.);
#507 = EDGE_CURVE('',#492,#508,#510,.T.);
#508 = VERTEX_POINT('',#509);
#509 = CARTESIAN_POINT('',(0.294886,0.181233,6.4706E-02));
#510 = SURFACE_CURVE('',#511,(#515),.PCURVE_S1.);
#511 = LINE('',#512,#513);
#512 = CARTESIAN_POINT('',(0.290225,0.181233,6.4706E-02));
#513 = VECTOR('',#514,1.);
#514 = DIRECTION('',(1.,0.,0.));
#515 = PCURVE('',#479,#516);
#516 = DEFINITIONAL_REPRESENTATION('',(#517),#521);
#517 = LINE('',#518,#519);
#518 = CARTESIAN_POINT('',(-2.3305E-03,-4.4335E-03));
#519 = VECTOR('',#520,1.);
#520 = DIRECTION('',(1.,0.));
#521 = ( GEOMETRIC_REPRESENTATION_CONTEXT(2) 
PARAMETRIC_REPRESENTATION_CONTEXT() REPRESENTATION_CONTEXT('2D SPACE',''
  ) );
#522 = ORIENTED_EDGE('',*,*,#523,.T.);
#523 = EDGE_CURVE('',#508,#469,#524,.T.);
#524 = SURFACE_CURVE('',#525,(#529),.PCURVE_S1.);
#525 = LINE('',#526,#527);
#526 = CARTESIAN_POINT('',(0.294886,0.181233,6.4706E-02));
#527 = VECTOR('',#528,1.);
#528 = DIRECTION('',(0.,1.,0.));
#529 = PCURVE('',#479,#530);
#530 = DEFINITIONAL_REPRESENTATION('',(#531),#535);
#531 = LINE('',#532,#533);
#532 = CARTESIAN_POINT('',(2.3305E-03,-4.4335E-03));
#533 = VECTOR('',#534,1.);
#534 = DIRECTION('',(0.,1.));
#535 = ( GEOMETRIC_REPRESENTATION_CONTEXT(2) 
PARAMETRIC_REPRESENTATION_CONTEXT() REPRESENTATION_CONTEXT('2D SPACE',''
  ) );
#536 = ( GEOMETRIC_REPRESENTATION_CONTEXT(3) 
GLOBAL_UNCERTAINTY_ASSIGNED_CONTEXT((#540)) GLOBAL_UNIT_ASSIGNED_CONTEXT
((#537,#538,#539)) REPRESENTATION_CONTEXT('Context #1',
  '3D Context with UNIT and UNCERTAINTY') );
#537 = ( LENGTH_UNIT() NAMED_UNIT(*) SI_UNIT(.MILLI.,.METRE.) );
#538 = ( NAMED_UNIT(*) PLANE_ANGLE_UNIT() SI_UNIT($,.RADIAN.) );
#539 = ( NAMED_UNIT(*) SI_UNIT($,.STERADIAN.) SOLID_ANGLE_UNIT() );
#540 = UNCERTAINTY_MEASURE_WITH_UNIT(LENGTH_MEASURE(1.E-07),#537,
  'distance_accuracy_value','confusion accuracy');
#541 = CONTEXT_DEPENDENT_SHAPE_REPRESENTATION(#542,#544);
#542 = ( REPRESENTATION_RELATIONSHIP('','',#461,#10) 
REPRESENTATION_RELATIONSHIP_WITH_TRANSFORMATION(#543) 
SHAPE_REPRESENTATION_RELATIONSHIP() );
#543 = ITEM_DEFINED_TRANSFORMATION('','',#11,#27);
#544 = PRODUCT_DEFINITION_SHAPE('Placement','Placement of an item',#545
  );
#545 = NEXT_ASSEMBLY_USAGE_OCCURRENCE('4','','',#5,#456,$);
#546 = PRODUCT_RELATED_PRODUCT_CATEGORY('part',$,(#458));
#547 = SHAPE_DEFINITION_REPRESENTATION(#548,#554);
#548 = PRODUCT_DEFINITION_SHAPE('','',#549);
#549 = PRODUCT_DEFINITION('design','',#550,#553);
#550 = PRODUCT_DEFINITION_FORMATION('','',#551);
#551 = PRODUCT('Open CASCADE STEP translator 7.9 1.5',
  'Open CASCADE STEP translator 7.9 1.5','',(#552));
#552 = PRODUCT_CONTEXT('',#2,'mechanical');
#553 = PRODUCT_DEFINITION_CONTEXT('part definition',#2,'design');
#554 = MANIFOLD_SURFACE_SHAPE_REPRESENTATION('',(#11,#555),#629);
#555 = SHELL_BASED_SURFACE_MODEL('',(#556));
#556 = OPEN_SHELL('',(#557));
#557 = ADVANCED_FACE('',(#558),#572,.T.);
#558 = FACE_BOUND('',#559,.T.);
#559 = EDGE_LOOP('',(#560,#583,#599,#615));
#560 = ORIENTED_EDGE('',*,*,#561,.T.);
#561 = EDGE_CURVE('',#562,#564,#566,.T.);
#562 = VERTEX_POINT('',#563);
#563 = CARTESIAN_POINT('',(0.290225,0.199421,6.5893E-02));
#564 = VERTEX_POINT('',#565);
#565 = CARTESIAN_POINT('',(0.290225,0.199421,6.4706E-02));
#566 = SURFACE_CURVE('',#567,(#571),.PCURVE_S1.);
#567 = LINE('',#568,#569);
#568 = CARTESIAN_POINT('',(0.290225,0.199421,6.5893E-02));
#569 = VECTOR('',#570,1.);
#570 = DIRECTION('',(0.,0.,-1.));
#571 = PCURVE('',#572,#577);
#572 = PLANE('',#573);
#573 = AXIS2_PLACEMENT_3D('',#574,#575,#576);
#574 = CARTESIAN_POINT('',(0.290225,0.1970905,6.52995E-02));
#575 = DIRECTION('',(-1.,-0.,-0.));
#576 = DIRECTION('',(0.,0.,-1.));
#577 = DEFINITIONAL_REPRESENTATION('',(#578),#582);
#578 = LINE('',#579,#580);
#579 = CARTESIAN_POINT('',(-5.935E-04,-2.3305E-03));
#580 = VECTOR('',#581,1.);
#581 = DIRECTION('',(1.,0.));
#582 = ( GEOMETRIC_REPRESENTATION_CONTEXT(2) 
PARAMETRIC_REPRESENTATION_CONTEXT() REPRESENTATION_CONTEXT('2D SPACE',''
  ) );
#583 = ORIENTED_EDGE('',*,*,#584,.T.);
#584 = EDGE_CURVE('',#564,#585,#587,.T.);
#585 = VERTEX_POINT('',#586);
#586 = CARTESIAN_POINT('',(0.290225,0.19476,6.4706E-02));
#587 = SURFACE_CURVE('',#588,(#592),.PCURVE_S1.);
#588 = LINE('',#589,#590);
#589 = CARTESIAN_POINT('',(0.290225,0.199421,6.4706E-02));
#590 = VECTOR('',#591,1.);
#591 = DIRECTION('',(0.,-1.,0.));
#592 = PCURVE('',#572,#593);
#593 = DEFINITIONAL_REPRESENTATION('',(#594),#598);
#594 = LINE('',#595,#596);
#595 = CARTESIAN_POINT('',(5.935E-04,-2.3305E-03));
#596 = VECTOR('',#597,1.);
#597 = DIRECTION('',(0.,1.));
#598 = ( GEOMETRIC_REPRESENTATION_CONTEXT(2) 
PARAMETRIC_REPRESENTATION_CONTEXT() REPRESENTATION_CONTEXT('2D SPACE',''
  ) );
#599 = ORIENTED_EDGE('',*,*,#600,.T.);
#600 = EDGE_CURVE('',#585,#601,#603,.T.);
#601 = VERTEX_POINT('',#602);
#602 = CARTESIAN_POINT('',(0.290225,0.19476,6.5893E-02));
#603 = SURFACE_CURVE('',#604,(#608),.PCURVE_S1.);
#604 = LINE('',#605,#606);
#605 = CARTESIAN_POINT('',(0.290225,0.19476,6.4706E-02));
#606 = VECTOR('',#607,1.);
#607 = DIRECTION('',(0.,0.,1.));
#608 = PCURVE('',#572,#609);
#609 = DEFINITIONAL_REPRESENTATION('',(#610),#614);
#610 = LINE('',#611,#612);
#611 = CARTESIAN_POINT('',(5.935E-04,2.3305E-03));
#612 = VECTOR('',#613,1.);
#613 = DIRECTION('',(-1.,0.));
#614 = ( GEOMETRIC_REPRESENTATION_CONTEXT(2) 
PARAMETRIC_REPRESENTATION_CONTEXT() REPRESENTATION_CONTEXT('2D SPACE',''
  ) );
#615 = ORIENTED_EDGE('',*,*,#616,.T.);
#616 = EDGE_CURVE('',#601,#562,#617,.T.);
#617 = SURFACE_CURVE('',#618,(#622),.PCURVE_S1.);
#618 = LINE('',#619,#620);
#619 = CARTESIAN_POINT('',(0.290225,0.19476,6.5893E-02));
#620 = VECTOR('',#621,1.);
#621 = DIRECTION('',(0.,1.,0.));
#622 = PCURVE('',#572,#623);
#623 = DEFINITIONAL_REPRESENTATION('',(#624),#628);
#624 = LINE('',#625,#626);
#625 = CARTESIAN_POINT('',(-5.935E-04,2.3305E-03));
#626 = VECTOR('',#627,1.);
#627 = DIRECTION('',(0.,-1.));
#628 = ( GEOMETRIC_REPRESENTATION_CONTEXT(2) 
PARAMETRIC_REPRESENTATION_CONTEXT() REPRESENTATION_CONTEXT('2D SPACE',''
  ) );
#629 = ( GEOMETRIC_REPRESENTATION_CONTEXT(3) 
GLOBAL_UNCERTAINTY_ASSIGNED_CONTEXT((#633)) GLOBAL_UNIT_ASSIGNED_CONTEXT
((#630,#631,#632)) REPRESENTATION_CONTEXT('Context #1',
  '3D Context with UNIT and UNCERTAINTY') );
#630 = ( LENGTH_UNIT() NAMED_UNIT(*) SI_UNIT(.MILLI.,.METRE.) );
#631 = ( NAMED_UNIT(*) PLANE_ANGLE_UNIT() SI_UNIT($,.RADIAN.) );
#632 = ( NAMED_UNIT(*) SI_UNIT($,.STERADIAN.) SOLID_ANGLE_UNIT() );
#633 = UNCERTAINTY_MEASURE_WITH_UNIT(LENGTH_MEASURE(1.E-07),#630,
  'distance_accuracy_value','confusion accuracy');
#634 = CONTEXT_DEPENDENT_SHAPE_REPRESENTATION(#635,#637);
#635 = ( REPRESENTATION_RELATIONSHIP('','',#554,#10) 
REPRESENTATION_RELATIONSHIP_WITH_TRANSFORMATION(#636) 
SHAPE_REPRESENTATION_RELATIONSHIP() );
#636 = ITEM_DEFINED_TRANSFORMATION('','',#11,#31);
#637 = PRODUCT_DEFINITION_SHAPE('Placement','Placement of an item',#638
  );
#638 = NEXT_ASSEMBLY_USAGE_OCCURRENCE('5','','',#5,#549,$);
#639 = PRODUCT_RELATED_PRODUCT_CATEGORY('part',$,(#551));
#640 = SHAPE_DEFINITION_REPRESENTATION(#641,#647);
#641 = PRODUCT_DEFINITION_SHAPE('','',#642);
#642 = PRODUCT_DEFINITION('design','',#643,#646);
#643 = PRODUCT_DEFINITION_FORMATION('','',#644);
#644 = PRODUCT('Open CASCADE STEP translator 7.9 1.6',
  'Open CASCADE STEP translator 7.9 1.6','',(#645));
#645 = PRODUCT_CONTEXT('',#2,'mechanical');
#646 = PRODUCT_DEFINITION_CONTEXT('part definition',#2,'design');
#647 = MANIFOLD_SURFACE_SHAPE_REPRESENTATION('',(#11,#648),#722);
#648 = SHELL_BASED_SURFACE_MODEL('',(#649));
#649 = OPEN_SHELL('',(#650));
#650 = ADVANCED_FACE('',(#651),#665,.T.);
#651 = FACE_BOUND('',#652,.T.);
#652 = EDGE_LOOP('',(#653,#676,#692,#708));
#653 = ORIENTED_EDGE('',*,*,#654,.T.);
#654 = EDGE_CURVE('',#655,#657,#659,.T.);
#655 = VERTEX_POINT('',#656);
#656 = CARTESIAN_POINT('',(0.294886,0.181233,6.4706E-02));
#657 = VERTEX_POINT('',#658);
#658 = CARTESIAN_POINT('',(0.290225,0.181233,6.4706E-02));
#659 = SURFACE_CURVE('',#660,(#664),.PCURVE_S1.);
#660 = LINE('',#661,#662);
#661 = CARTESIAN_POINT('',(0.294886,0.181233,6.4706E-02));
#662 = VECTOR('',#663,1.);
#663 = DIRECTION('',(-1.,0.,0.));
#664 = PCURVE('',#665,#670);
#665 = PLANE('',#666);
#666 = AXIS2_PLACEMENT_3D('',#667,#668,#669);
#667 = CARTESIAN_POINT('',(0.2925555,0.181233,6.52995E-02));
#668 = DIRECTION('',(0.,1.,0.));
#669 = DIRECTION('',(0.,-0.,1.));
#670 = DEFINITIONAL_REPRESENTATION('',(#671),#675);
#671 = LINE('',#672,#673);
#672 = CARTESIAN_POINT('',(-5.935E-04,2.3305E-03));
#673 = VECTOR('',#674,1.);
#674 = DIRECTION('',(0.,-1.));
#675 = ( GEOMETRIC_REPRESENTATION_CONTEXT(2) 
PARAMETRIC_REPRESENTATION_CONTEXT() REPRESENTATION_CONTEXT('2D SPACE',''
  ) );
#676 = ORIENTED_EDGE('',*,*,#677,.T.);
#677 = EDGE_CURVE('',#657,#678,#680,.T.);
#678 = VERTEX_POINT('',#679);
#679 = CARTESIAN_POINT('',(0.290225,0.181233,6.5893E-02));
#680 = SURFACE_CURVE('',#681,(#685),.PCURVE_S1.);
#681 = LINE('',#682,#683);
#682 = CARTESIAN_POINT('',(0.290225,0.181233,6.4706E-02));
#683 = VECTOR('',#684,1.);
#684 = DIRECTION('',(0.,0.,1.));
#685 = PCURVE('',#665,#686);
#686 = DEFINITIONAL_REPRESENTATION('',(#687),#691);
#687 = LINE('',#688,#689);
#688 = CARTESIAN_POINT('',(-5.935E-04,-2.3305E-03));
#689 = VECTOR('',#690,1.);
#690 = DIRECTION('',(1.,0.));
#691 = ( GEOMETRIC_REPRESENTATION_CONTEXT(2) 
PARAMETRIC_REPRESENTATION_CONTEXT() REPRESENTATION_CONTEXT('2D SPACE',''
  ) );
#692 = ORIENTED_EDGE('',*,*,#693,.T.);
#693 = EDGE_CURVE('',#678,#694,#696,.T.);
#694 = VERTEX_POINT('',#695);
#695 = CARTESIAN_POINT('',(0.294886,0.181233,6.5893E-02));
#696 = SURFACE_CURVE('',#697,(#701),.PCURVE_S1.);
#697 = LINE('',#698,#699);
#698 = CARTESIAN_POINT('',(0.290225,0.181233,6.5893E-02));
#699 = VECTOR('',#700,1.);
#700 = DIRECTION('',(1.,0.,0.));
#701 = PCURVE('',#665,#702);
#702 = DEFINITIONAL_REPRESENTATION('',(#703),#707);
#703 = LINE('',#704,#705);
#704 = CARTESIAN_POINT('',(5.935E-04,-2.3305E-03));
#705 = VECTOR('',#706,1.);
#706 = DIRECTION('',(0.,1.));
#707 = ( GEOMETRIC_REPRESENTATION_CONTEXT(2) 
PARAMETRIC_REPRESENTATION_CONTEXT() REPRESENTATION_CONTEXT('2D SPACE',''
  ) );
#708 = ORIENTED_EDGE('',*,*,#709,.T.);
#709 = EDGE_CURVE('',#694,#655,#710,.T.);
#710 = SURFACE_CURVE('',#711,(#715),.PCURVE_S1.);
#711 = LINE('',#712,#713);
#712 = CARTESIAN_POINT('',(0.294886,0.181233,6.5893E-02));
#713 = VECTOR('',#714,1.);
#714 = DIRECTION('',(0.,0.,-1.));
#715 = PCURVE('',#665,#716);
#716 = DEFINITIONAL_REPRESENTATION('',(#717),#721);
#717 = LINE('',#718,#719);
#718 = CARTESIAN_POINT('',(5.935E-04,2.3305E-03));
#719 = VECTOR('',#720,1.);
#720 = DIRECTION('',(-1.,0.));
#721 = ( GEOMETRIC_REPRESENTATION_CONTEXT(2) 
PARAMETRIC_REPRESENTATION_CONTEXT() REPRESENTATION_CONTEXT('2D SPACE',''
  ) );
#722 = ( GEOMETRIC_REPRESENTATION_CONTEXT(3) 
GLOBAL_UNCERTAINTY_ASSIGNED_CONTEXT((#726)) GLOBAL_UNIT_ASSIGNED_CONTEXT
((#723,#724,#725)) REPRESENTATION_CONTEXT('Context #1',
  '3D Context with UNIT and UNCERTAINTY') );
#723 = ( LENGTH_UNIT() NAMED_UNIT(*) SI_UNIT(.MILLI.,.METRE.) );
#724 = ( NAMED_UNIT(*) PLANE_ANGLE_UNIT() SI_UNIT($,.RADIAN.) );
#725 = ( NAMED_UNIT(*) SI_UNIT($,.STERADIAN.) SOLID_ANGLE_UNIT() );
#726 = UNCERTAINTY_MEASURE_WITH_UNIT(LENGTH_MEASURE(1.E-07),#723,
  'distance_accuracy_value','confusion accuracy');
#727 = CONTEXT_DEPENDENT_SHAPE_REPRESENTATION(#728,#730);
#728 = ( REPRESENTATION_RELATIONSHIP('','',#647,#10) 
REPRESENTATION_RELATIONSHIP_WITH_TRANSFORMATION(#729) 
SHAPE_REPRESENTATION_RELATIONSHIP() );
#729 = ITEM_DEFINED_TRANSFORMATION('','',#11,#35);
#730 = PRODUCT_DEFINITION_SHAPE('Placement','Placement of an item',#731
  );
#731 = NEXT_ASSEMBLY_USAGE_OCCURRENCE('6','','',#5,#642,$);
#732 = PRODUCT_RELATED_PRODUCT_CATEGORY('part',$,(#644));
#733 = SHAPE_DEFINITION_REPRESENTATION(#734,#740);
#734 = PRODUCT_DEFINITION_SHAPE('','',#735);
#735 = PRODUCT_DEFINITION('design','',#736,#739);
#736 = PRODUCT_DEFINITION_FORMATION('','',#737);
#737 = PRODUCT('Open CASCADE STEP translator 7.9 1.7',
  'Open CASCADE STEP translator 7.9 1.7','',(#738));
#738 = PRODUCT_CONTEXT('',#2,'mechanical');
#739 = PRODUCT_DEFINITION_CONTEXT('part definition',#2,'design');
#740 = MANIFOLD_SURFACE_SHAPE_REPRESENTATION('',(#11,#741),#815);
#741 = SHELL_BASED_SURFACE_MODEL('',(#742));
#742 = OPEN_SHELL('',(#743));
#743 = ADVANCED_FACE('',(#744),#758,.T.);
#744 = FACE_BOUND('',#745,.T.);
#745 = EDGE_LOOP('',(#746,#769,#785,#801));
#746 = ORIENTED_EDGE('',*,*,#747,.T.);
#747 = EDGE_CURVE('',#748,#750,#752,.T.);
#748 = VERTEX_POINT('',#749);
#749 = CARTESIAN_POINT('',(0.294886,0.1901,6.4706E-02));
#750 = VERTEX_POINT('',#751);
#751 = CARTESIAN_POINT('',(0.294886,0.181233,6.4706E-02));
#752 = SURFACE_CURVE('',#753,(#757),.PCURVE_S1.);
#753 = LINE('',#754,#755);
#754 = CARTESIAN_POINT('',(0.294886,0.1901,6.4706E-02));
#755 = VECTOR('',#756,1.);
#756 = DIRECTION('',(0.,-1.,0.));
#757 = PCURVE('',#758,#763);
#758 = PLANE('',#759);
#759 = AXIS2_PLACEMENT_3D('',#760,#761,#762);
#760 = CARTESIAN_POINT('',(0.294886,0.1856665,6.52995E-02));
#761 = DIRECTION('',(-1.,-0.,-0.));
#762 = DIRECTION('',(0.,0.,-1.));
#763 = DEFINITIONAL_REPRESENTATION('',(#764),#768);
#764 = LINE('',#765,#766);
#765 = CARTESIAN_POINT('',(5.935E-04,-4.4335E-03));
#766 = VECTOR('',#767,1.);
#767 = DIRECTION('',(0.,1.));
#768 = ( GEOMETRIC_REPRESENTATION_CONTEXT(2) 
PARAMETRIC_REPRESENTATION_CONTEXT() REPRESENTATION_CONTEXT('2D SPACE',''
  ) );
#769 = ORIENTED_EDGE('',*,*,#770,.T.);
#770 = EDGE_CURVE('',#750,#771,#773,.T.);
#771 = VERTEX_POINT('',#772);
#772 = CARTESIAN_POINT('',(0.294886,0.181233,6.5893E-02));
#773 = SURFACE_CURVE('',#774,(#778),.PCURVE_S1.);
#774 = LINE('',#775,#776);
#775 = CARTESIAN_POINT('',(0.294886,0.181233,6.4706E-02));
#776 = VECTOR('',#777,1.);
#777 = DIRECTION('',(0.,0.,1.));
#778 = PCURVE('',#758,#779);
#779 = DEFINITIONAL_REPRESENTATION('',(#780),#784);
#780 = LINE('',#781,#782);
#781 = CARTESIAN_POINT('',(5.935E-04,4.4335E-03));
#782 = VECTOR('',#783,1.);
#783 = DIRECTION('',(-1.,0.));
#784 = ( GEOMETRIC_REPRESENTATION_CONTEXT(2) 
PARAMETRIC_REPRESENTATION_CONTEXT() REPRESENTATION_CONTEXT('2D SPACE',''
  ) );
#785 = ORIENTED_EDGE('',*,*,#786,.T.);
#786 = EDGE_CURVE('',#771,#787,#789,.T.);
#787 = VERTEX_POINT('',#788);
#788 = CARTESIAN_POINT('',(0.294886,0.1901,6.5893E-02));
#789 = SURFACE_CURVE('',#790,(#794),.PCURVE_S1.);
#790 = LINE('',#791,#792);
#791 = CARTESIAN_POINT('',(0.294886,0.181233,6.5893E-02));
#792 = VECTOR('',#793,1.);
#793 = DIRECTION('',(0.,1.,0.));
#794 = PCURVE('',#758,#795);
#795 = DEFINITIONAL_REPRESENTATION('',(#796),#800);
#796 = LINE('',#797,#798);
#797 = CARTESIAN_POINT('',(-5.935E-04,4.4335E-03));
#798 = VECTOR('',#799,1.);
#799 = DIRECTION('',(0.,-1.));
#800 = ( GEOMETRIC_REPRESENTATION_CONTEXT(2) 
PARAMETRIC_REPRESENTATION_CONTEXT() REPRESENTATION_CONTEXT('2D SPACE',''
  ) );
#801 = ORIENTED_EDGE('',*,*,#802,.T.);
#802 = EDGE_CURVE('',#787,#748,#803,.T.);
#803 = SURFACE_CURVE('',#804,(#808),.PCURVE_S1.);
#804 = LINE('',#805,#806);
#805 = CARTESIAN_POINT('',(0.294886,0.1901,6.5893E-02));
#806 = VECTOR('',#807,1.);
#807 = DIRECTION('',(0.,0.,-1.));
#808 = PCURVE('',#758,#809);
#809 = DEFINITIONAL_REPRESENTATION('',(#810),#814);
#810 = LINE('',#811,#812);
#811 = CARTESIAN_POINT('',(-5.935E-04,-4.4335E-03));
#812 = VECTOR('',#813,1.);
#813 = DIRECTION('',(1.,0.));
#814 = ( GEOMETRIC_REPRESENTATION_CONTEXT(2) 
PARAMETRIC_REPRESENTATION_CONTEXT() REPRESENTATION_CONTEXT('2D SPACE',''
  ) );
#815 = ( GEOMETRIC_REPRESENTATION_CONTEXT(3) 
GLOBAL_UNCERTAINTY_ASSIGNED_CONTEXT((#819)) GLOBAL_UNIT_ASSIGNED_CONTEXT
((#816,#817,#818)) REPRESENTATION_CONTEXT('Context #1',
  '3D Context with UNIT and UNCERTAINTY') );
#816 = ( LENGTH_UNIT() NAMED_UNIT(*) SI_UNIT(.MILLI.,.METRE.) );
#817 = ( NAMED_UNIT(*) PLANE_ANGLE_UNIT() SI_UNIT($,.RADIAN.) );
#818 = ( NAMED_UNIT(*) SI_UNIT($,.STERADIAN.) SOLID_ANGLE_UNIT() );
#819 = UNCERTAINTY_MEASURE_WITH_UNIT(LENGTH_MEASURE(1.E-07),#816,
  'distance_accuracy_value','confusion accuracy');
#820 = CONTEXT_DEPENDENT_SHAPE_REPRESENTATION(#821,#823);
#821 = ( REPRESENTATION_RELATIONSHIP('','',#740,#10) 
REPRESENTATION_RELATIONSHIP_WITH_TRANSFORMATION(#822) 
SHAPE_REPRESENTATION_RELATIONSHIP() );
#822 = ITEM_DEFINED_TRANSFORMATION('','',#11,#39);
#823 = PRODUCT_DEFINITION_SHAPE('Placement','Placement of an item',#824
  );
#824 = NEXT_ASSEMBLY_USAGE_OCCURRENCE('7','','',#5,#735,$);
#825 = PRODUCT_RELATED_PRODUCT_CATEGORY('part',$,(#737));
#826 = SHAPE_DEFINITION_REPRESENTATION(#827,#833);
#827 = PRODUCT_DEFINITION_SHAPE('','',#828);
#828 = PRODUCT_DEFINITION('design','',#829,#832);
#829 = PRODUCT_DEFINITION_FORMATION('','',#830);
#830 = PRODUCT('Open CASCADE STEP translator 7.9 1.8',
  'Open CASCADE STEP translator 7.9 1.8','',(#831));
#831 = PRODUCT_CONTEXT('',#2,'mechanical');
#832 = PRODUCT_DEFINITION_CONTEXT('part definition',#2,'design');
#833 = MANIFOLD_SURFACE_SHAPE_REPRESENTATION('',(#11,#834),#908);
#834 = SHELL_BASED_SURFACE_MODEL('',(#835));
#835 = OPEN_SHELL('',(#836));
#836 = ADVANCED_FACE('',(#837),#851,.T.);
#837 = FACE_BOUND('',#838,.T.);
#838 = EDGE_LOOP('',(#839,#862,#878,#894));
#839 = ORIENTED_EDGE('',*,*,#840,.T.);
#840 = EDGE_CURVE('',#841,#843,#845,.T.);
#841 = VERTEX_POINT('',#842);
#842 = CARTESIAN_POINT('',(0.290225,0.199421,6.4706E-02));
#843 = VERTEX_POINT('',#844);
#844 = CARTESIAN_POINT('',(0.290225,0.199421,6.5893E-02));
#845 = SURFACE_CURVE('',#846,(#850),.PCURVE_S1.);
#846 = LINE('',#847,#848);
#847 = CARTESIAN_POINT('',(0.290225,0.199421,6.4706E-02));
#848 = VECTOR('',#849,1.);
#849 = DIRECTION('',(0.,0.,1.));
#850 = PCURVE('',#851,#856);
#851 = PLANE('',#852);
#852 = AXIS2_PLACEMENT_3D('',#853,#854,#855);
#853 = CARTESIAN_POINT('',(0.285038,0.199421,6.52995E-02));
#854 = DIRECTION('',(-0.,-1.,-0.));
#855 = DIRECTION('',(0.,0.,-1.));
#856 = DEFINITIONAL_REPRESENTATION('',(#857),#861);
#857 = LINE('',#858,#859);
#858 = CARTESIAN_POINT('',(5.935E-04,5.187E-03));
#859 = VECTOR('',#860,1.);
#860 = DIRECTION('',(-1.,0.));
#861 = ( GEOMETRIC_REPRESENTATION_CONTEXT(2) 
PARAMETRIC_REPRESENTATION_CONTEXT() REPRESENTATION_CONTEXT('2D SPACE',''
  ) );
#862 = ORIENTED_EDGE('',*,*,#863,.T.);
#863 = EDGE_CURVE('',#843,#864,#866,.T.);
#864 = VERTEX_POINT('',#865);
#865 = CARTESIAN_POINT('',(0.279851,0.199421,6.5893E-02));
#866 = SURFACE_CURVE('',#867,(#871),.PCURVE_S1.);
#867 = LINE('',#868,#869);
#868 = CARTESIAN_POINT('',(0.290225,0.199421,6.5893E-02));
#869 = VECTOR('',#870,1.);
#870 = DIRECTION('',(-1.,0.,0.));
#871 = PCURVE('',#851,#872);
#872 = DEFINITIONAL_REPRESENTATION('',(#873),#877);
#873 = LINE('',#874,#875);
#874 = CARTESIAN_POINT('',(-5.935E-04,5.187E-03));
#875 = VECTOR('',#876,1.);
#876 = DIRECTION('',(0.,-1.));
#877 = ( GEOMETRIC_REPRESENTATION_CONTEXT(2) 
PARAMETRIC_REPRESENTATION_CONTEXT() REPRESENTATION_CONTEXT('2D SPACE',''
  ) );
#878 = ORIENTED_EDGE('',*,*,#879,.T.);
#879 = EDGE_CURVE('',#864,#880,#882,.T.);
#880 = VERTEX_POINT('',#881);
#881 = CARTESIAN_POINT('',(0.279851,0.199421,6.4706E-02));
#882 = SURFACE_CURVE('',#883,(#887),.PCURVE_S1.);
#883 = LINE('',#884,#885);
#884 = CARTESIAN_POINT('',(0.279851,0.199421,6.5893E-02));
#885 = VECTOR('',#886,1.);
#886 = DIRECTION('',(0.,0.,-1.));
#887 = PCURVE('',#851,#888);
#888 = DEFINITIONAL_REPRESENTATION('',(#889),#893);
#889 = LINE('',#890,#891);
#890 = CARTESIAN_POINT('',(-5.935E-04,-5.187E-03));
#891 = VECTOR('',#892,1.);
#892 = DIRECTION('',(1.,0.));
#893 = ( GEOMETRIC_REPRESENTATION_CONTEXT(2) 
PARAMETRIC_REPRESENTATION_CONTEXT() REPRESENTATION_CONTEXT('2D SPACE',''
  ) );
#894 = ORIENTED_EDGE('',*,*,#895,.T.);
#895 = EDGE_CURVE('',#880,#841,#896,.T.);
#896 = SURFACE_CURVE('',#897,(#901),.PCURVE_S1.);
#897 = LINE('',#898,#899);
#898 = CARTESIAN_POINT('',(0.279851,0.199421,6.4706E-02));
#899 = VECTOR('',#900,1.);
#900 = DIRECTION('',(1.,0.,0.));
#901 = PCURVE('',#851,#902);
#902 = DEFINITIONAL_REPRESENTATION('',(#903),#907);
#903 = LINE('',#904,#905);
#904 = CARTESIAN_POINT('',(5.935E-04,-5.187E-03));
#905 = VECTOR('',#906,1.);
#906 = DIRECTION('',(0.,1.));
#907 = ( GEOMETRIC_REPRESENTATION_CONTEXT(2) 
PARAMETRIC_REPRESENTATION_CONTEXT() REPRESENTATION_CONTEXT('2D SPACE',''
  ) );
#908 = ( GEOMETRIC_REPRESENTATION_CONTEXT(3) 
GLOBAL_UNCERTAINTY_ASSIGNED_CONTEXT((#912)) GLOBAL_UNIT_ASSIGNED_CONTEXT
((#909,#910,#911)) REPRESENTATION_CONTEXT('Context #1',
  '3D Context with UNIT and UNCERTAINTY') );
#909 = ( LENGTH_UNIT() NAMED_UNIT(*) SI_UNIT(.MILLI.,.METRE.) );
#910 = ( NAMED_UNIT(*) PLANE_ANGLE_UNIT() SI_UNIT($,.RADIAN.) );
#911 = ( NAMED_UNIT(*) SI_UNIT($,.STERADIAN.) SOLID_ANGLE_UNIT() );
#912 = UNCERTAINTY_MEASURE_WITH_UNIT(LENGTH_MEASURE(1.E-07),#909,
  'distance_accuracy_value','confusion accuracy');
#913 = CONTEXT_DEPENDENT_SHAPE_REPRESENTATION(#914,#916);
#914 = ( REPRESENTATION_RELATIONSHIP('','',#833,#10) 
REPRESENTATION_RELATIONSHIP_WITH_TRANSFORMATION(#915) 
SHAPE_REPRESENTATION_RELATIONSHIP() );
#915 = ITEM_DEFINED_TRANSFORMATION('','',#11,#43);
#916 = PRODUCT_DEFINITION_SHAPE('Placement','Placement of an item',#917
  );
#917 = NEXT_ASSEMBLY_USAGE_OCCURRENCE('8','','',#5,#828,$);
#918 = PRODUCT_RELATED_PRODUCT_CATEGORY('part',$,(#830));
#919 = SHAPE_DEFINITION_REPRESENTATION(#920,#926);
#920 = PRODUCT_DEFINITION_SHAPE('','',#921);
#921 = PRODUCT_DEFINITION('design','',#922,#925);
#922 = PRODUCT_DEFINITION_FORMATION('','',#923);
#923 = PRODUCT('Open CASCADE STEP translator 7.9 1.9',
  'Open CASCADE STEP translator 7.9 1.9','',(#924));
#924 = PRODUCT_CONTEXT('',#2,'mechanical');
#925 = PRODUCT_DEFINITION_CONTEXT('part definition',#2,'design');
#926 = MANIFOLD_SURFACE_SHAPE_REPRESENTATION('',(#11,#927),#1001);
#927 = SHELL_BASED_SURFACE_MODEL('',(#928));
#928 = OPEN_SHELL('',(#929));
#929 = ADVANCED_FACE('',(#930),#944,.T.);
#930 = FACE_BOUND('',#931,.T.);
#931 = EDGE_LOOP('',(#932,#955,#971,#987));
#932 = ORIENTED_EDGE('',*,*,#933,.T.);
#933 = EDGE_CURVE('',#934,#936,#938,.T.);
#934 = VERTEX_POINT('',#935);
#935 = CARTESIAN_POINT('',(0.27519,0.19476,6.4706E-02));
#936 = VERTEX_POINT('',#937);
#937 = CARTESIAN_POINT('',(0.279851,0.199421,6.4706E-02));
#938 = SURFACE_CURVE('',#939,(#943),.PCURVE_S1.);
#939 = LINE('',#940,#941);
#940 = CARTESIAN_POINT('',(0.27519,0.19476,6.4706E-02));
#941 = VECTOR('',#942,1.);
#942 = DIRECTION('',(0.707106781187,0.707106781187,0.));
#943 = PCURVE('',#944,#949);
#944 = PLANE('',#945);
#945 = AXIS2_PLACEMENT_3D('',#946,#947,#948);
#946 = CARTESIAN_POINT('',(0.2775205,0.1970905,6.52995E-02));
#947 = DIRECTION('',(0.707106781187,-0.707106781187,-0.));
#948 = DIRECTION('',(-0.707106781187,-0.707106781187,0.));
#949 = DEFINITIONAL_REPRESENTATION('',(#950),#954);
#950 = LINE('',#951,#952);
#951 = CARTESIAN_POINT('',(3.295824707111E-03,5.935E-04));
#952 = VECTOR('',#953,1.);
#953 = DIRECTION('',(-1.,0.));
#954 = ( GEOMETRIC_REPRESENTATION_CONTEXT(2) 
PARAMETRIC_REPRESENTATION_CONTEXT() REPRESENTATION_CONTEXT('2D SPACE',''
  ) );
#955 = ORIENTED_EDGE('',*,*,#956,.T.);
#956 = EDGE_CURVE('',#936,#957,#959,.T.);
#957 = VERTEX_POINT('',#958);
#958 = CARTESIAN_POINT('',(0.279851,0.199421,6.5893E-02));
#959 = SURFACE_CURVE('',#960,(#964),.PCURVE_S1.);
#960 = LINE('',#961,#962);
#961 = CARTESIAN_POINT('',(0.279851,0.199421,6.4706E-02));
#962 = VECTOR('',#963,1.);
#963 = DIRECTION('',(0.,0.,1.));
#964 = PCURVE('',#944,#965);
#965 = DEFINITIONAL_REPRESENTATION('',(#966),#970);
#966 = LINE('',#967,#968);
#967 = CARTESIAN_POINT('',(-3.29582470711E-03,5.935E-04));
#968 = VECTOR('',#969,1.);
#969 = DIRECTION('',(0.,-1.));
#970 = ( GEOMETRIC_REPRESENTATION_CONTEXT(2) 
PARAMETRIC_REPRESENTATION_CONTEXT() REPRESENTATION_CONTEXT('2D SPACE',''
  ) );
#971 = ORIENTED_EDGE('',*,*,#972,.T.);
#972 = EDGE_CURVE('',#957,#973,#975,.T.);
#973 = VERTEX_POINT('',#974);
#974 = CARTESIAN_POINT('',(0.27519,0.19476,6.5893E-02));
#975 = SURFACE_CURVE('',#976,(#980),.PCURVE_S1.);
#976 = LINE('',#977,#978);
#977 = CARTESIAN_POINT('',(0.279851,0.199421,6.5893E-02));
#978 = VECTOR('',#979,1.);
#979 = DIRECTION('',(-0.707106781187,-0.707106781187,0.));
#980 = PCURVE('',#944,#981);
#981 = DEFINITIONAL_REPRESENTATION('',(#982),#986);
#982 = LINE('',#983,#984);
#983 = CARTESIAN_POINT('',(-3.29582470711E-03,-5.935E-04));
#984 = VECTOR('',#985,1.);
#985 = DIRECTION('',(1.,0.));
#986 = ( GEOMETRIC_REPRESENTATION_CONTEXT(2) 
PARAMETRIC_REPRESENTATION_CONTEXT() REPRESENTATION_CONTEXT('2D SPACE',''
  ) );
#987 = ORIENTED_EDGE('',*,*,#988,.T.);
#988 = EDGE_CURVE('',#973,#934,#989,.T.);
#989 = SURFACE_CURVE('',#990,(#994),.PCURVE_S1.);
#990 = LINE('',#991,#992);
#991 = CARTESIAN_POINT('',(0.27519,0.19476,6.5893E-02));
#992 = VECTOR('',#993,1.);
#993 = DIRECTION('',(0.,0.,-1.));
#994 = PCURVE('',#944,#995);
#995 = DEFINITIONAL_REPRESENTATION('',(#996),#1000);
#996 = LINE('',#997,#998);
#997 = CARTESIAN_POINT('',(3.295824707111E-03,-5.935E-04));
#998 = VECTOR('',#999,1.);
#999 = DIRECTION('',(-0.,1.));
#1000 = ( GEOMETRIC_REPRESENTATION_CONTEXT(2) 
PARAMETRIC_REPRESENTATION_CONTEXT() REPRESENTATION_CONTEXT('2D SPACE',''
  ) );
#1001 = ( GEOMETRIC_REPRESENTATION_CONTEXT(3) 
GLOBAL_UNCERTAINTY_ASSIGNED_CONTEXT((#1005)) 
GLOBAL_UNIT_ASSIGNED_CONTEXT((#1002,#1003,#1004)) REPRESENTATION_CONTEXT
('Context #1','3D Context with UNIT and UNCERTAINTY') );
#1002 = ( LENGTH_UNIT() NAMED_UNIT(*) SI_UNIT(.MILLI.,.METRE.) );
#1003 = ( NAMED_UNIT(*) PLANE_ANGLE_UNIT() SI_UNIT($,.RADIAN.) );
#1004 = ( NAMED_UNIT(*) SI_UNIT($,.STERADIAN.) SOLID_ANGLE_UNIT() );
#1005 = UNCERTAINTY_MEASURE_WITH_UNIT(LENGTH_MEASURE(1.E-07),#1002,
  'distance_accuracy_value','confusion accuracy');
#1006 = CONTEXT_DEPENDENT_SHAPE_REPRESENTATION(#1007,#1009);
#1007 = ( REPRESENTATION_RELATIONSHIP('','',#926,#10) 
REPRESENTATION_RELATIONSHIP_WITH_TRANSFORMATION(#1008) 
SHAPE_REPRESENTATION_RELATIONSHIP() );
#1008 = ITEM_DEFINED_TRANSFORMATION('','',#11,#47);
#1009 = PRODUCT_DEFINITION_SHAPE('Placement','Placement of an item',
  #1010);
#1010 = NEXT_ASSEMBLY_USAGE_OCCURRENCE('9','','',#5,#921,$);
#1011 = PRODUCT_RELATED_PRODUCT_CATEGORY('part',$,(#923));
#1012 = SHAPE_DEFINITION_REPRESENTATION(#1013,#1019);
#1013 = PRODUCT_DEFINITION_SHAPE('','',#1014);
#1014 = PRODUCT_DEFINITION('design','',#1015,#1018);
#1015 = PRODUCT_DEFINITION_FORMATION('','',#1016);
#1016 = PRODUCT('Open CASCADE STEP translator 7.9 1.10',
  'Open CASCADE STEP translator 7.9 1.10','',(#1017));
#1017 = PRODUCT_CONTEXT('',#2,'mechanical');
#1018 = PRODUCT_DEFINITION_CONTEXT('part definition',#2,'design');
#1019 = MANIFOLD_SURFACE_SHAPE_REPRESENTATION('',(#11,#1020),#1094);
#1020 = SHELL_BASED_SURFACE_MODEL('',(#1021));
#1021 = OPEN_SHELL('',(#1022));
#1022 = ADVANCED_FACE('',(#1023),#1037,.T.);
#1023 = FACE_BOUND('',#1024,.T.);
#1024 = EDGE_LOOP('',(#1025,#1048,#1064,#1080));
#1025 = ORIENTED_EDGE('',*,*,#1026,.T.);
#1026 = EDGE_CURVE('',#1027,#1029,#1031,.T.);
#1027 = VERTEX_POINT('',#1028);
#1028 = CARTESIAN_POINT('',(0.27519,0.185894,6.4706E-02));
#1029 = VERTEX_POINT('',#1030);
#1030 = CARTESIAN_POINT('',(0.27519,0.19476,6.4706E-02));
#1031 = SURFACE_CURVE('',#1032,(#1036),.PCURVE_S1.);
#1032 = LINE('',#1033,#1034);
#1033 = CARTESIAN_POINT('',(0.27519,0.185894,6.4706E-02));
#1034 = VECTOR('',#1035,1.);
#1035 = DIRECTION('',(0.,1.,0.));
#1036 = PCURVE('',#1037,#1042);
#1037 = PLANE('',#1038);
#1038 = AXIS2_PLACEMENT_3D('',#1039,#1040,#1041);
#1039 = CARTESIAN_POINT('',(0.27519,0.190327,6.52995E-02));
#1040 = DIRECTION('',(1.,0.,0.));
#1041 = DIRECTION('',(-0.,0.,1.));
#1042 = DEFINITIONAL_REPRESENTATION('',(#1043),#1047);
#1043 = LINE('',#1044,#1045);
#1044 = CARTESIAN_POINT('',(-5.935E-04,4.433E-03));
#1045 = VECTOR('',#1046,1.);
#1046 = DIRECTION('',(0.,-1.));
#1047 = ( GEOMETRIC_REPRESENTATION_CONTEXT(2) 
PARAMETRIC_REPRESENTATION_CONTEXT() REPRESENTATION_CONTEXT('2D SPACE',''
  ) );
#1048 = ORIENTED_EDGE('',*,*,#1049,.T.);
#1049 = EDGE_CURVE('',#1029,#1050,#1052,.T.);
#1050 = VERTEX_POINT('',#1051);
#1051 = CARTESIAN_POINT('',(0.27519,0.19476,6.5893E-02));
#1052 = SURFACE_CURVE('',#1053,(#1057),.PCURVE_S1.);
#1053 = LINE('',#1054,#1055);
#1054 = CARTESIAN_POINT('',(0.27519,0.19476,6.4706E-02));
#1055 = VECTOR('',#1056,1.);
#1056 = DIRECTION('',(0.,0.,1.));
#1057 = PCURVE('',#1037,#1058);
#1058 = DEFINITIONAL_REPRESENTATION('',(#1059),#1063);
#1059 = LINE('',#1060,#1061);
#1060 = CARTESIAN_POINT('',(-5.935E-04,-4.433E-03));
#1061 = VECTOR('',#1062,1.);
#1062 = DIRECTION('',(1.,0.));
#1063 = ( GEOMETRIC_REPRESENTATION_CONTEXT(2) 
PARAMETRIC_REPRESENTATION_CONTEXT() REPRESENTATION_CONTEXT('2D SPACE',''
  ) );
#1064 = ORIENTED_EDGE('',*,*,#1065,.T.);
#1065 = EDGE_CURVE('',#1050,#1066,#1068,.T.);
#1066 = VERTEX_POINT('',#1067);
#1067 = CARTESIAN_POINT('',(0.27519,0.185894,6.5893E-02));
#1068 = SURFACE_CURVE('',#1069,(#1073),.PCURVE_S1.);
#1069 = LINE('',#1070,#1071);
#1070 = CARTESIAN_POINT('',(0.27519,0.19476,6.5893E-02));
#1071 = VECTOR('',#1072,1.);
#1072 = DIRECTION('',(0.,-1.,0.));
#1073 = PCURVE('',#1037,#1074);
#1074 = DEFINITIONAL_REPRESENTATION('',(#1075),#1079);
#1075 = LINE('',#1076,#1077);
#1076 = CARTESIAN_POINT('',(5.935E-04,-4.433E-03));
#1077 = VECTOR('',#1078,1.);
#1078 = DIRECTION('',(0.,1.));
#1079 = ( GEOMETRIC_REPRESENTATION_CONTEXT(2) 
PARAMETRIC_REPRESENTATION_CONTEXT() REPRESENTATION_CONTEXT('2D SPACE',''
  ) );
#1080 = ORIENTED_EDGE('',*,*,#1081,.T.);
#1081 = EDGE_CURVE('',#1066,#1027,#1082,.T.);
#1082 = SURFACE_CURVE('',#1083,(#1087),.PCURVE_S1.);
#1083 = LINE('',#1084,#1085);
#1084 = CARTESIAN_POINT('',(0.27519,0.185894,6.5893E-02));
#1085 = VECTOR('',#1086,1.);
#1086 = DIRECTION('',(0.,0.,-1.));
#1087 = PCURVE('',#1037,#1088);
#1088 = DEFINITIONAL_REPRESENTATION('',(#1089),#1093);
#1089 = LINE('',#1090,#1091);
#1090 = CARTESIAN_POINT('',(5.935E-04,4.433E-03));
#1091 = VECTOR('',#1092,1.);
#1092 = DIRECTION('',(-1.,0.));
#1093 = ( GEOMETRIC_REPRESENTATION_CONTEXT(2) 
PARAMETRIC_REPRESENTATION_CONTEXT() REPRESENTATION_CONTEXT('2D SPACE',''
  ) );
#1094 = ( GEOMETRIC_REPRESENTATION_CONTEXT(3) 
GLOBAL_UNCERTAINTY_ASSIGNED_CONTEXT((#1098)) 
GLOBAL_UNIT_ASSIGNED_CONTEXT((#1095,#1096,#1097)) REPRESENTATION_CONTEXT
('Context #1','3D Context with UNIT and UNCERTAINTY') );
#1095 = ( LENGTH_UNIT() NAMED_UNIT(*) SI_UNIT(.MILLI.,.METRE.) );
#1096 = ( NAMED_UNIT(*) PLANE_ANGLE_UNIT() SI_UNIT($,.RADIAN.) );
#1097 = ( NAMED_UNIT(*) SI_UNIT($,.STERADIAN.) SOLID_ANGLE_UNIT() );
#1098 = UNCERTAINTY_MEASURE_WITH_UNIT(LENGTH_MEASURE(1.E-07),#1095,
  'distance_accuracy_value','confusion accuracy');
#1099 = CONTEXT_DEPENDENT_SHAPE_REPRESENTATION(#1100,#1102);
#1100 = ( REPRESENTATION_RELATIONSHIP('','',#1019,#10) 
REPRESENTATION_RELATIONSHIP_WITH_TRANSFORMATION(#1101) 
SHAPE_REPRESENTATION_RELATIONSHIP() );
#1101 = ITEM_DEFINED_TRANSFORMATION('','',#11,#51);
#1102 = PRODUCT_DEFINITION_SHAPE('Placement','Placement of an item',
  #1103);
#1103 = NEXT_ASSEMBLY_USAGE_OCCURRENCE('10','','',#5,#1014,$);
#1104 = PRODUCT_RELATED_PRODUCT_CATEGORY('part',$,(#1016));
#1105 = SHAPE_DEFINITION_REPRESENTATION(#1106,#1112);
#1106 = PRODUCT_DEFINITION_SHAPE('','',#1107);
#1107 = PRODUCT_DEFINITION('design','',#1108,#1111);
#1108 = PRODUCT_DEFINITION_FORMATION('','',#1109);
#1109 = PRODUCT('Open CASCADE STEP translator 7.9 1.11',
  'Open CASCADE STEP translator 7.9 1.11','',(#1110));
#1110 = PRODUCT_CONTEXT('',#2,'mechanical');
#1111 = PRODUCT_DEFINITION_CONTEXT('part definition',#2,'design');
#1112 = MANIFOLD_SURFACE_SHAPE_REPRESENTATION('',(#11,#1113),#1187);
#1113 = SHELL_BASED_SURFACE_MODEL('',(#1114));
#1114 = OPEN_SHELL('',(#1115));
#1115 = ADVANCED_FACE('',(#1116),#1130,.T.);
#1116 = FACE_BOUND('',#1117,.T.);
#1117 = EDGE_LOOP('',(#1118,#1141,#1157,#1173));
#1118 = ORIENTED_EDGE('',*,*,#1119,.T.);
#1119 = EDGE_CURVE('',#1120,#1122,#1124,.T.);
#1120 = VERTEX_POINT('',#1121);
#1121 = CARTESIAN_POINT('',(0.279851,0.181233,6.4706E-02));
#1122 = VERTEX_POINT('',#1123);
#1123 = CARTESIAN_POINT('',(0.27519,0.185894,6.4706E-02));
#1124 = SURFACE_CURVE('',#1125,(#1129),.PCURVE_S1.);
#1125 = LINE('',#1126,#1127);
#1126 = CARTESIAN_POINT('',(0.279851,0.181233,6.4706E-02));
#1127 = VECTOR('',#1128,1.);
#1128 = DIRECTION('',(-0.707106781187,0.707106781187,0.));
#1129 = PCURVE('',#1130,#1135);
#1130 = PLANE('',#1131);
#1131 = AXIS2_PLACEMENT_3D('',#1132,#1133,#1134);
#1132 = CARTESIAN_POINT('',(0.2775205,0.1835635,6.52995E-02));
#1133 = DIRECTION('',(0.707106781187,0.707106781187,0.));
#1134 = DIRECTION('',(0.707106781187,-0.707106781187,0.));
#1135 = DEFINITIONAL_REPRESENTATION('',(#1136),#1140);
#1136 = LINE('',#1137,#1138);
#1137 = CARTESIAN_POINT('',(3.295824707111E-03,5.935E-04));
#1138 = VECTOR('',#1139,1.);
#1139 = DIRECTION('',(-1.,0.));
#1140 = ( GEOMETRIC_REPRESENTATION_CONTEXT(2) 
PARAMETRIC_REPRESENTATION_CONTEXT() REPRESENTATION_CONTEXT('2D SPACE',''
  ) );
#1141 = ORIENTED_EDGE('',*,*,#1142,.T.);
#1142 = EDGE_CURVE('',#1122,#1143,#1145,.T.);
#1143 = VERTEX_POINT('',#1144);
#1144 = CARTESIAN_POINT('',(0.27519,0.185894,6.5893E-02));
#1145 = SURFACE_CURVE('',#1146,(#1150),.PCURVE_S1.);
#1146 = LINE('',#1147,#1148);
#1147 = CARTESIAN_POINT('',(0.27519,0.185894,6.4706E-02));
#1148 = VECTOR('',#1149,1.);
#1149 = DIRECTION('',(0.,0.,1.));
#1150 = PCURVE('',#1130,#1151);
#1151 = DEFINITIONAL_REPRESENTATION('',(#1152),#1156);
#1152 = LINE('',#1153,#1154);
#1153 = CARTESIAN_POINT('',(-3.29582470711E-03,5.935E-04));
#1154 = VECTOR('',#1155,1.);
#1155 = DIRECTION('',(0.,-1.));
#1156 = ( GEOMETRIC_REPRESENTATION_CONTEXT(2) 
PARAMETRIC_REPRESENTATION_CONTEXT() REPRESENTATION_CONTEXT('2D SPACE',''
  ) );
#1157 = ORIENTED_EDGE('',*,*,#1158,.T.);
#1158 = EDGE_CURVE('',#1143,#1159,#1161,.T.);
#1159 = VERTEX_POINT('',#1160);
#1160 = CARTESIAN_POINT('',(0.279851,0.181233,6.5893E-02));
#1161 = SURFACE_CURVE('',#1162,(#1166),.PCURVE_S1.);
#1162 = LINE('',#1163,#1164);
#1163 = CARTESIAN_POINT('',(0.27519,0.185894,6.5893E-02));
#1164 = VECTOR('',#1165,1.);
#1165 = DIRECTION('',(0.707106781187,-0.707106781187,0.));
#1166 = PCURVE('',#1130,#1167);
#1167 = DEFINITIONAL_REPRESENTATION('',(#1168),#1172);
#1168 = LINE('',#1169,#1170);
#1169 = CARTESIAN_POINT('',(-3.29582470711E-03,-5.935E-04));
#1170 = VECTOR('',#1171,1.);
#1171 = DIRECTION('',(1.,0.));
#1172 = ( GEOMETRIC_REPRESENTATION_CONTEXT(2) 
PARAMETRIC_REPRESENTATION_CONTEXT() REPRESENTATION_CONTEXT('2D SPACE',''
  ) );
#1173 = ORIENTED_EDGE('',*,*,#1174,.T.);
#1174 = EDGE_CURVE('',#1159,#1120,#1175,.T.);
#1175 = SURFACE_CURVE('',#1176,(#1180),.PCURVE_S1.);
#1176 = LINE('',#1177,#1178);
#1177 = CARTESIAN_POINT('',(0.279851,0.181233,6.5893E-02));
#1178 = VECTOR('',#1179,1.);
#1179 = DIRECTION('',(0.,0.,-1.));
#1180 = PCURVE('',#1130,#1181);
#1181 = DEFINITIONAL_REPRESENTATION('',(#1182),#1186);
#1182 = LINE('',#1183,#1184);
#1183 = CARTESIAN_POINT('',(3.295824707111E-03,-5.935E-04));
#1184 = VECTOR('',#1185,1.);
#1185 = DIRECTION('',(0.,1.));
#1186 = ( GEOMETRIC_REPRESENTATION_CONTEXT(2) 
PARAMETRIC_REPRESENTATION_CONTEXT() REPRESENTATION_CONTEXT('2D SPACE',''
  ) );
#1187 = ( GEOMETRIC_REPRESENTATION_CONTEXT(3) 
GLOBAL_UNCERTAINTY_ASSIGNED_CONTEXT((#1191)) 
GLOBAL_UNIT_ASSIGNED_CONTEXT((#1188,#1189,#1190)) REPRESENTATION_CONTEXT
('Context #1','3D Context with UNIT and UNCERTAINTY') );
#1188 = ( LENGTH_UNIT() NAMED_UNIT(*) SI_UNIT(.MILLI.,.METRE.) );
#1189 = ( NAMED_UNIT(*) PLANE_ANGLE_UNIT() SI_UNIT($,.RADIAN.) );
#1190 = ( NAMED_UNIT(*) SI_UNIT($,.STERADIAN.) SOLID_ANGLE_UNIT() );
#1191 = UNCERTAINTY_MEASURE_WITH_UNIT(LENGTH_MEASURE(1.E-07),#1188,
  'distance_accuracy_value','confusion accuracy');
#1192 = CONTEXT_DEPENDENT_SHAPE_REPRESENTATION(#1193,#1195);
#1193 = ( REPRESENTATION_RELATIONSHIP('','',#1112,#10) 
REPRESENTATION_RELATIONSHIP_WITH_TRANSFORMATION(#1194) 
SHAPE_REPRESENTATION_RELATIONSHIP() );
#1194 = ITEM_DEFINED_TRANSFORMATION('','',#11,#55);
#1195 = PRODUCT_DEFINITION_SHAPE('Placement','Placement of an item',
  #1196);
#1196 = NEXT_ASSEMBLY_USAGE_OCCURRENCE('11','','',#5,#1107,$);
#1197 = PRODUCT_RELATED_PRODUCT_CATEGORY('part',$,(#1109));
#1198 = SHAPE_DEFINITION_REPRESENTATION(#1199,#1205);
#1199 = PRODUCT_DEFINITION_SHAPE('','',#1200);
#1200 = PRODUCT_DEFINITION('design','',#1201,#1204);
#1201 = PRODUCT_DEFINITION_FORMATION('','',#1202);
#1202 = PRODUCT('Open CASCADE STEP translator 7.9 1.12',
  'Open CASCADE STEP translator 7.9 1.12','',(#1203));
#1203 = PRODUCT_CONTEXT('',#2,'mechanical');
#1204 = PRODUCT_DEFINITION_CONTEXT('part definition',#2,'design');
#1205 = MANIFOLD_SURFACE_SHAPE_REPRESENTATION('',(#11,#1206),#1280);
#1206 = SHELL_BASED_SURFACE_MODEL('',(#1207));
#1207 = OPEN_SHELL('',(#1208));
#1208 = ADVANCED_FACE('',(#1209),#1223,.T.);
#1209 = FACE_BOUND('',#1210,.T.);
#1210 = EDGE_LOOP('',(#1211,#1234,#1250,#1266));
#1211 = ORIENTED_EDGE('',*,*,#1212,.T.);
#1212 = EDGE_CURVE('',#1213,#1215,#1217,.T.);
#1213 = VERTEX_POINT('',#1214);
#1214 = CARTESIAN_POINT('',(0.290225,0.181233,6.4706E-02));
#1215 = VERTEX_POINT('',#1216);
#1216 = CARTESIAN_POINT('',(0.279851,0.181233,6.4706E-02));
#1217 = SURFACE_CURVE('',#1218,(#1222),.PCURVE_S1.);
#1218 = LINE('',#1219,#1220);
#1219 = CARTESIAN_POINT('',(0.290225,0.181233,6.4706E-02));
#1220 = VECTOR('',#1221,1.);
#1221 = DIRECTION('',(-1.,0.,0.));
#1222 = PCURVE('',#1223,#1228);
#1223 = PLANE('',#1224);
#1224 = AXIS2_PLACEMENT_3D('',#1225,#1226,#1227);
#1225 = CARTESIAN_POINT('',(0.285038,0.181233,6.52995E-02));
#1226 = DIRECTION('',(0.,1.,0.));
#1227 = DIRECTION('',(0.,-0.,1.));
#1228 = DEFINITIONAL_REPRESENTATION('',(#1229),#1233);
#1229 = LINE('',#1230,#1231);
#1230 = CARTESIAN_POINT('',(-5.935E-04,5.187E-03));
#1231 = VECTOR('',#1232,1.);
#1232 = DIRECTION('',(0.,-1.));
#1233 = ( GEOMETRIC_REPRESENTATION_CONTEXT(2) 
PARAMETRIC_REPRESENTATION_CONTEXT() REPRESENTATION_CONTEXT('2D SPACE',''
  ) );
#1234 = ORIENTED_EDGE('',*,*,#1235,.T.);
#1235 = EDGE_CURVE('',#1215,#1236,#1238,.T.);
#1236 = VERTEX_POINT('',#1237);
#1237 = CARTESIAN_POINT('',(0.279851,0.181233,6.5893E-02));
#1238 = SURFACE_CURVE('',#1239,(#1243),.PCURVE_S1.);
#1239 = LINE('',#1240,#1241);
#1240 = CARTESIAN_POINT('',(0.279851,0.181233,6.4706E-02));
#1241 = VECTOR('',#1242,1.);
#1242 = DIRECTION('',(0.,0.,1.));
#1243 = PCURVE('',#1223,#1244);
#1244 = DEFINITIONAL_REPRESENTATION('',(#1245),#1249);
#1245 = LINE('',#1246,#1247);
#1246 = CARTESIAN_POINT('',(-5.935E-04,-5.187E-03));
#1247 = VECTOR('',#1248,1.);
#1248 = DIRECTION('',(1.,0.));
#1249 = ( GEOMETRIC_REPRESENTATION_CONTEXT(2) 
PARAMETRIC_REPRESENTATION_CONTEXT() REPRESENTATION_CONTEXT('2D SPACE',''
  ) );
#1250 = ORIENTED_EDGE('',*,*,#1251,.T.);
#1251 = EDGE_CURVE('',#1236,#1252,#1254,.T.);
#1252 = VERTEX_POINT('',#1253);
#1253 = CARTESIAN_POINT('',(0.290225,0.181233,6.5893E-02));
#1254 = SURFACE_CURVE('',#1255,(#1259),.PCURVE_S1.);
#1255 = LINE('',#1256,#1257);
#1256 = CARTESIAN_POINT('',(0.279851,0.181233,6.5893E-02));
#1257 = VECTOR('',#1258,1.);
#1258 = DIRECTION('',(1.,0.,0.));
#1259 = PCURVE('',#1223,#1260);
#1260 = DEFINITIONAL_REPRESENTATION('',(#1261),#1265);
#1261 = LINE('',#1262,#1263);
#1262 = CARTESIAN_POINT('',(5.935E-04,-5.187E-03));
#1263 = VECTOR('',#1264,1.);
#1264 = DIRECTION('',(0.,1.));
#1265 = ( GEOMETRIC_REPRESENTATION_CONTEXT(2) 
PARAMETRIC_REPRESENTATION_CONTEXT() REPRESENTATION_CONTEXT('2D SPACE',''
  ) );
#1266 = ORIENTED_EDGE('',*,*,#1267,.T.);
#1267 = EDGE_CURVE('',#1252,#1213,#1268,.T.);
#1268 = SURFACE_CURVE('',#1269,(#1273),.PCURVE_S1.);
#1269 = LINE('',#1270,#1271);
#1270 = CARTESIAN_POINT('',(0.290225,0.181233,6.5893E-02));
#1271 = VECTOR('',#1272,1.);
#1272 = DIRECTION('',(0.,0.,-1.));
#1273 = PCURVE('',#1223,#1274);
#1274 = DEFINITIONAL_REPRESENTATION('',(#1275),#1279);
#1275 = LINE('',#1276,#1277);
#1276 = CARTESIAN_POINT('',(5.935E-04,5.187E-03));
#1277 = VECTOR('',#1278,1.);
#1278 = DIRECTION('',(-1.,0.));
#1279 = ( GEOMETRIC_REPRESENTATION_CONTEXT(2) 
PARAMETRIC_REPRESENTATION_CONTEXT() REPRESENTATION_CONTEXT('2D SPACE',''
  ) );
#1280 = ( GEOMETRIC_REPRESENTATION_CONTEXT(3) 
GLOBAL_UNCERTAINTY_ASSIGNED_CONTEXT((#1284)) 
GLOBAL_UNIT_ASSIGNED_CONTEXT((#1281,#1282,#1283)) REPRESENTATION_CONTEXT
('Context #1','3D Context with UNIT and UNCERTAINTY') );
#1281 = ( LENGTH_UNIT() NAMED_UNIT(*) SI_UNIT(.MILLI.,.METRE.) );
#1282 = ( NAMED_UNIT(*) PLANE_ANGLE_UNIT() SI_UNIT($,.RADIAN.) );
#1283 = ( NAMED_UNIT(*) SI_UNIT($,.STERADIAN.) SOLID_ANGLE_UNIT() );
#1284 = UNCERTAINTY_MEASURE_WITH_UNIT(LENGTH_MEASURE(1.E-07),#1281,
  'distance_accuracy_value','confusion accuracy');
#1285 = CONTEXT_DEPENDENT_SHAPE_REPRESENTATION(#1286,#1288);
#1286 = ( REPRESENTATION_RELATIONSHIP('','',#1205,#10) 
REPRESENTATION_RELATIONSHIP_WITH_TRANSFORMATION(#1287) 
SHAPE_REPRESENTATION_RELATIONSHIP() );
#1287 = ITEM_DEFINED_TRANSFORMATION('','',#11,#59);
#1288 = PRODUCT_DEFINITION_SHAPE('Placement','Placement of an item',
  #1289);
#1289 = NEXT_ASSEMBLY_USAGE_OCCURRENCE('12','','',#5,#1200,$);
#1290 = PRODUCT_RELATED_PRODUCT_CATEGORY('part',$,(#1202));
ENDSEC;
END-ISO-10303-21;
