ISO-10303-21;
HEADER;
FILE_DESCRIPTION(('Open CASCADE Model'),'2;1');
FILE_NAME('Open CASCADE Shape Model','2026-07-02T20:49:04',('Author'),(
    'Open CASCADE'),'Open CASCADE STEP processor 7.9','Open CASCADE 7.9'
  ,'Unknown');
FILE_SCHEMA(('AUTOMOTIVE_DESIGN { 1 0 10303 214 1 1 1 1 }'));
ENDSEC;
DATA;
#1 = APPLICATION_PROTOCOL_DEFINITION('international standard',
  'automotive_design',2000,#2);
#2 = APPLICATION_CONTEXT(
  'core data for automotive mechanical design processes');
#3 = SHAPE_DEFINITION_REPRESENTATION(#4,#10);
#4 = PRODUCT_DEFINITION_SHAPE('','',#5);
#5 = PRODUCT_DEFINITION('design','',#6,#9);
#6 = PRODUCT_DEFINITION_FORMATION('','',#7);
#7 = PRODUCT('Open CASCADE STEP translator 7.9 1',
  'Open CASCADE STEP translator 7.9 1','',(#8));
#8 = PRODUCT_CONTEXT('',#2,'mechanical');
#9 = PRODUCT_DEFINITION_CONTEXT('part definition',#2,'design');
#10 = SHAPE_REPRESENTATION('',(#11,#15,#19,#23,#27,#31,#35,#39,#43,#47),
  #51);
#11 = AXIS2_PLACEMENT_3D('',#12,#13,#14);
#12 = CARTESIAN_POINT('',(0.,0.,0.));
#13 = DIRECTION('',(0.,0.,1.));
#14 = DIRECTION('',(1.,0.,-0.));
#15 = AXIS2_PLACEMENT_3D('',#16,#17,#18);
#16 = CARTESIAN_POINT('',(0.,0.,0.));
#17 = DIRECTION('',(0.,0.,1.));
#18 = DIRECTION('',(1.,0.,-0.));
#19 = AXIS2_PLACEMENT_3D('',#20,#21,#22);
#20 = CARTESIAN_POINT('',(0.,0.,0.));
#21 = DIRECTION('',(0.,0.,1.));
#22 = DIRECTION('',(1.,0.,-0.));
#23 = AXIS2_PLACEMENT_3D('',#24,#25,#26);
#24 = CARTESIAN_POINT('',(0.,0.,0.));
#25 = DIRECTION('',(0.,0.,1.));
#26 = DIRECTION('',(1.,0.,-0.));
#27 = AXIS2_PLACEMENT_3D('',#28,#29,#30);
#28 = CARTESIAN_POINT('',(0.,0.,0.));
#29 = DIRECTION('',(0.,0.,1.));
#30 = DIRECTION('',(1.,0.,-0.));
#31 = AXIS2_PLACEMENT_3D('',#32,#33,#34);
#32 = CARTESIAN_POINT('',(0.,0.,0.));
#33 = DIRECTION('',(0.,0.,1.));
#34 = DIRECTION('',(1.,0.,-0.));
#35 = AXIS2_PLACEMENT_3D('',#36,#37,#38);
#36 = CARTESIAN_POINT('',(0.,0.,0.));
#37 = DIRECTION('',(0.,0.,1.));
#38 = DIRECTION('',(1.,0.,-0.));
#39 = AXIS2_PLACEMENT_3D('',#40,#41,#42);
#40 = CARTESIAN_POINT('',(0.,0.,0.));
#41 = DIRECTION('',(0.,0.,1.));
#42 = DIRECTION('',(1.,0.,-0.));
#43 = AXIS2_PLACEMENT_3D('',#44,#45,#46);
#44 = CARTESIAN_POINT('',(0.,0.,0.));
#45 = DIRECTION('',(0.,0.,1.));
#46 = DIRECTION('',(1.,0.,-0.));
#47 = AXIS2_PLACEMENT_3D('',#48,#49,#50);
#48 = CARTESIAN_POINT('',(0.,0.,0.));
#49 = DIRECTION('',(0.,0.,1.));
#50 = DIRECTION('',(1.,0.,-0.));
#51 = ( GEOMETRIC_REPRESENTATION_CONTEXT(3) 
GLOBAL_UNCERTAINTY_ASSIGNED_CONTEXT((#55)) GLOBAL_UNIT_ASSIGNED_CONTEXT(
(#52,#53,#54)) REPRESENTATION_CONTEXT('Context #1',
  '3D Context with UNIT and UNCERTAINTY') );
#52 = ( LENGTH_UNIT() NAMED_UNIT(*) SI_UNIT(.MILLI.,.METRE.) );
#53 = ( NAMED_UNIT(*) PLANE_ANGLE_UNIT() SI_UNIT($,.RADIAN.) );
#54 = ( NAMED_UNIT(*) SI_UNIT($,.STERADIAN.) SOLID_ANGLE_UNIT() );
#55 = UNCERTAINTY_MEASURE_WITH_UNIT(LENGTH_MEASURE(1.E-07),#52,
  'distance_accuracy_value','confusion accuracy');
#56 = PRODUCT_RELATED_PRODUCT_CATEGORY('part',$,(#7));
#57 = SHAPE_DEFINITION_REPRESENTATION(#58,#64);
#58 = PRODUCT_DEFINITION_SHAPE('','',#59);
#59 = PRODUCT_DEFINITION('design','',#60,#63);
#60 = PRODUCT_DEFINITION_FORMATION('','',#61);
#61 = PRODUCT('Open CASCADE STEP translator 7.9 1.1',
  'Open CASCADE STEP translator 7.9 1.1','',(#62));
#62 = PRODUCT_CONTEXT('',#2,'mechanical');
#63 = PRODUCT_DEFINITION_CONTEXT('part definition',#2,'design');
#64 = MANIFOLD_SURFACE_SHAPE_REPRESENTATION('',(#11,#65),#135);
#65 = SHELL_BASED_SURFACE_MODEL('',(#66));
#66 = OPEN_SHELL('',(#67));
#67 = ADVANCED_FACE('',(#68),#81,.T.);
#68 = FACE_BOUND('',#69,.T.);
#69 = EDGE_LOOP('',(#70,#92,#107,#122));
#70 = ORIENTED_EDGE('',*,*,#71,.F.);
#71 = EDGE_CURVE('',#72,#74,#76,.T.);
#72 = VERTEX_POINT('',#73);
#73 = CARTESIAN_POINT('',(0.132683668351,9.372921340585E-02,
    0.113191190889));
#74 = VERTEX_POINT('',#75);
#75 = CARTESIAN_POINT('',(0.132683668351,9.372921340585E-02,
    0.218454348545));
#76 = SURFACE_CURVE('',#77,(#80),.PCURVE_S1.);
#77 = B_SPLINE_CURVE_WITH_KNOTS('',1,(#78,#79),.UNSPECIFIED.,.F.,.F.,(2,
    2),(-5.2632E-02,5.2632E-02),.PIECEWISE_BEZIER_KNOTS.);
#78 = CARTESIAN_POINT('',(0.132683668351,9.372921340585E-02,
    0.113191190889));
#79 = CARTESIAN_POINT('',(0.132683668351,9.372921340585E-02,
    0.218454348545));
#80 = PCURVE('',#81,#86);
#81 = B_SPLINE_SURFACE_WITH_KNOTS('',1,1,(
    (#82,#83)
    ,(#84,#85
    )),.UNSPECIFIED.,.F.,.F.,.F.,(2,2),(2,2),(-0.367316,-0.191878),(
    -5.2632E-02,5.2632E-02),.PIECEWISE_BEZIER_KNOTS.);
#82 = CARTESIAN_POINT('',(0.132683668351,9.372921340585E-02,
    0.113191190889));
#83 = CARTESIAN_POINT('',(0.132683668351,9.372921340585E-02,
    0.218454348545));
#84 = CARTESIAN_POINT('',(0.308122264215,9.372921340585E-02,
    0.113191190889));
#85 = CARTESIAN_POINT('',(0.308122264215,9.372921340585E-02,
    0.218454348545));
#86 = DEFINITIONAL_REPRESENTATION('',(#87),#91);
#87 = LINE('',#88,#89);
#88 = CARTESIAN_POINT('',(-0.367316,0.));
#89 = VECTOR('',#90,1.);
#90 = DIRECTION('',(0.,1.));
#91 = ( GEOMETRIC_REPRESENTATION_CONTEXT(2) 
PARAMETRIC_REPRESENTATION_CONTEXT() REPRESENTATION_CONTEXT('2D SPACE',''
  ) );
#92 = ORIENTED_EDGE('',*,*,#93,.T.);
#93 = EDGE_CURVE('',#72,#94,#96,.T.);
#94 = VERTEX_POINT('',#95);
#95 = CARTESIAN_POINT('',(0.308122264215,9.372921340585E-02,
    0.113191190889));
#96 = SURFACE_CURVE('',#97,(#100),.PCURVE_S1.);
#97 = B_SPLINE_CURVE_WITH_KNOTS('',1,(#98,#99),.UNSPECIFIED.,.F.,.F.,(2,
    2),(-0.367316,-0.191878),.PIECEWISE_BEZIER_KNOTS.);
#98 = CARTESIAN_POINT('',(0.132683668351,9.372921340585E-02,
    0.113191190889));
#99 = CARTESIAN_POINT('',(0.308122264215,9.372921340585E-02,
    0.113191190889));
#100 = PCURVE('',#81,#101);
#101 = DEFINITIONAL_REPRESENTATION('',(#102),#106);
#102 = LINE('',#103,#104);
#103 = CARTESIAN_POINT('',(0.,-5.2632E-02));
#104 = VECTOR('',#105,1.);
#105 = DIRECTION('',(1.,0.));
#106 = ( GEOMETRIC_REPRESENTATION_CONTEXT(2) 
PARAMETRIC_REPRESENTATION_CONTEXT() REPRESENTATION_CONTEXT('2D SPACE',''
  ) );
#107 = ORIENTED_EDGE('',*,*,#108,.T.);
#108 = EDGE_CURVE('',#94,#109,#111,.T.);
#109 = VERTEX_POINT('',#110);
#110 = CARTESIAN_POINT('',(0.308122264215,9.372921340585E-02,
    0.218454348545));
#111 = SURFACE_CURVE('',#112,(#115),.PCURVE_S1.);
#112 = B_SPLINE_CURVE_WITH_KNOTS('',1,(#113,#114),.UNSPECIFIED.,.F.,.F.,
  (2,2),(-5.2632E-02,5.2632E-02),.PIECEWISE_BEZIER_KNOTS.);
#113 = CARTESIAN_POINT('',(0.308122264215,9.372921340585E-02,
    0.113191190889));
#114 = CARTESIAN_POINT('',(0.308122264215,9.372921340585E-02,
    0.218454348545));
#115 = PCURVE('',#81,#116);
#116 = DEFINITIONAL_REPRESENTATION('',(#117),#121);
#117 = LINE('',#118,#119);
#118 = CARTESIAN_POINT('',(-0.191878,0.));
#119 = VECTOR('',#120,1.);
#120 = DIRECTION('',(0.,1.));
#121 = ( GEOMETRIC_REPRESENTATION_CONTEXT(2) 
PARAMETRIC_REPRESENTATION_CONTEXT() REPRESENTATION_CONTEXT('2D SPACE',''
  ) );
#122 = ORIENTED_EDGE('',*,*,#123,.F.);
#123 = EDGE_CURVE('',#74,#109,#124,.T.);
#124 = SURFACE_CURVE('',#125,(#128),.PCURVE_S1.);
#125 = B_SPLINE_CURVE_WITH_KNOTS('',1,(#126,#127),.UNSPECIFIED.,.F.,.F.,
  (2,2),(-0.367316,-0.191878),.PIECEWISE_BEZIER_KNOTS.);
#126 = CARTESIAN_POINT('',(0.132683668351,9.372921340585E-02,
    0.218454348545));
#127 = CARTESIAN_POINT('',(0.308122264215,9.372921340585E-02,
    0.218454348545));
#128 = PCURVE('',#81,#129);
#129 = DEFINITIONAL_REPRESENTATION('',(#130),#134);
#130 = LINE('',#131,#132);
#131 = CARTESIAN_POINT('',(0.,5.2632E-02));
#132 = VECTOR('',#133,1.);
#133 = DIRECTION('',(1.,0.));
#134 = ( GEOMETRIC_REPRESENTATION_CONTEXT(2) 
PARAMETRIC_REPRESENTATION_CONTEXT() REPRESENTATION_CONTEXT('2D SPACE',''
  ) );
#135 = ( GEOMETRIC_REPRESENTATION_CONTEXT(3) 
GLOBAL_UNCERTAINTY_ASSIGNED_CONTEXT((#139)) GLOBAL_UNIT_ASSIGNED_CONTEXT
((#136,#137,#138)) REPRESENTATION_CONTEXT('Context #1',
  '3D Context with UNIT and UNCERTAINTY') );
#136 = ( LENGTH_UNIT() NAMED_UNIT(*) SI_UNIT(.MILLI.,.METRE.) );
#137 = ( NAMED_UNIT(*) PLANE_ANGLE_UNIT() SI_UNIT($,.RADIAN.) );
#138 = ( NAMED_UNIT(*) SI_UNIT($,.STERADIAN.) SOLID_ANGLE_UNIT() );
#139 = UNCERTAINTY_MEASURE_WITH_UNIT(LENGTH_MEASURE(1.E-07),#136,
  'distance_accuracy_value','confusion accuracy');
#140 = CONTEXT_DEPENDENT_SHAPE_REPRESENTATION(#141,#143);
#141 = ( REPRESENTATION_RELATIONSHIP('','',#64,#10) 
REPRESENTATION_RELATIONSHIP_WITH_TRANSFORMATION(#142) 
SHAPE_REPRESENTATION_RELATIONSHIP() );
#142 = ITEM_DEFINED_TRANSFORMATION('','',#11,#15);
#143 = PRODUCT_DEFINITION_SHAPE('Placement','Placement of an item',#144
  );
#144 = NEXT_ASSEMBLY_USAGE_OCCURRENCE('1','','',#5,#59,$);
#145 = PRODUCT_RELATED_PRODUCT_CATEGORY('part',$,(#61));
#146 = SHAPE_DEFINITION_REPRESENTATION(#147,#153);
#147 = PRODUCT_DEFINITION_SHAPE('','',#148);
#148 = PRODUCT_DEFINITION('design','',#149,#152);
#149 = PRODUCT_DEFINITION_FORMATION('','',#150);
#150 = PRODUCT('Open CASCADE STEP translator 7.9 1.2',
  'Open CASCADE STEP translator 7.9 1.2','',(#151));
#151 = PRODUCT_CONTEXT('',#2,'mechanical');
#152 = PRODUCT_DEFINITION_CONTEXT('part definition',#2,'design');
#153 = MANIFOLD_SURFACE_SHAPE_REPRESENTATION('',(#11,#154),#224);
#154 = SHELL_BASED_SURFACE_MODEL('',(#155));
#155 = OPEN_SHELL('',(#156));
#156 = ADVANCED_FACE('',(#157),#170,.T.);
#157 = FACE_BOUND('',#158,.T.);
#158 = EDGE_LOOP('',(#159,#181,#196,#211));
#159 = ORIENTED_EDGE('',*,*,#160,.F.);
#160 = EDGE_CURVE('',#161,#163,#165,.T.);
#161 = VERTEX_POINT('',#162);
#162 = CARTESIAN_POINT('',(0.132683668351,9.372921340585E-02,
    0.113191190889));
#163 = VERTEX_POINT('',#164);
#164 = CARTESIAN_POINT('',(0.132683668351,0.115788036873,0.113191190889)
  );
#165 = SURFACE_CURVE('',#166,(#169),.PCURVE_S1.);
#166 = B_SPLINE_CURVE_WITH_KNOTS('',1,(#167,#168),.UNSPECIFIED.,.F.,.F.,
  (2,2),(0.,2.2059E-02),.PIECEWISE_BEZIER_KNOTS.);
#167 = CARTESIAN_POINT('',(0.132683668351,9.372921340585E-02,
    0.113191190889));
#168 = CARTESIAN_POINT('',(0.132683668351,0.115788036873,0.113191190889)
  );
#169 = PCURVE('',#170,#175);
#170 = B_SPLINE_SURFACE_WITH_KNOTS('',1,1,(
    (#171,#172)
    ,(#173,#174
    )),.UNSPECIFIED.,.F.,.F.,.F.,(2,2),(2,2),(-8.7719E-02,8.7719E-02),(
    0.,2.2059E-02),.PIECEWISE_BEZIER_KNOTS.);
#171 = CARTESIAN_POINT('',(0.132683668351,9.372921340585E-02,
    0.113191190889));
#172 = CARTESIAN_POINT('',(0.132683668351,0.115788036873,0.113191190889)
  );
#173 = CARTESIAN_POINT('',(0.308122264215,9.372921340585E-02,
    0.113191190889));
#174 = CARTESIAN_POINT('',(0.308122264215,0.115788036873,0.113191190889)
  );
#175 = DEFINITIONAL_REPRESENTATION('',(#176),#180);
#176 = LINE('',#177,#178);
#177 = CARTESIAN_POINT('',(-8.7719E-02,0.));
#178 = VECTOR('',#179,1.);
#179 = DIRECTION('',(0.,1.));
#180 = ( GEOMETRIC_REPRESENTATION_CONTEXT(2) 
PARAMETRIC_REPRESENTATION_CONTEXT() REPRESENTATION_CONTEXT('2D SPACE',''
  ) );
#181 = ORIENTED_EDGE('',*,*,#182,.T.);
#182 = EDGE_CURVE('',#161,#183,#185,.T.);
#183 = VERTEX_POINT('',#184);
#184 = CARTESIAN_POINT('',(0.308122264215,9.372921340585E-02,
    0.113191190889));
#185 = SURFACE_CURVE('',#186,(#189),.PCURVE_S1.);
#186 = B_SPLINE_CURVE_WITH_KNOTS('',1,(#187,#188),.UNSPECIFIED.,.F.,.F.,
  (2,2),(-8.7719E-02,8.7719E-02),.PIECEWISE_BEZIER_KNOTS.);
#187 = CARTESIAN_POINT('',(0.132683668351,9.372921340585E-02,
    0.113191190889));
#188 = CARTESIAN_POINT('',(0.308122264215,9.372921340585E-02,
    0.113191190889));
#189 = PCURVE('',#170,#190);
#190 = DEFINITIONAL_REPRESENTATION('',(#191),#195);
#191 = LINE('',#192,#193);
#192 = CARTESIAN_POINT('',(0.,0.));
#193 = VECTOR('',#194,1.);
#194 = DIRECTION('',(1.,0.));
#195 = ( GEOMETRIC_REPRESENTATION_CONTEXT(2) 
PARAMETRIC_REPRESENTATION_CONTEXT() REPRESENTATION_CONTEXT('2D SPACE',''
  ) );
#196 = ORIENTED_EDGE('',*,*,#197,.T.);
#197 = EDGE_CURVE('',#183,#198,#200,.T.);
#198 = VERTEX_POINT('',#199);
#199 = CARTESIAN_POINT('',(0.308122264215,0.115788036873,0.113191190889)
  );
#200 = SURFACE_CURVE('',#201,(#204),.PCURVE_S1.);
#201 = B_SPLINE_CURVE_WITH_KNOTS('',1,(#202,#203),.UNSPECIFIED.,.F.,.F.,
  (2,2),(0.,2.2059E-02),.PIECEWISE_BEZIER_KNOTS.);
#202 = CARTESIAN_POINT('',(0.308122264215,9.372921340585E-02,
    0.113191190889));
#203 = CARTESIAN_POINT('',(0.308122264215,0.115788036873,0.113191190889)
  );
#204 = PCURVE('',#170,#205);
#205 = DEFINITIONAL_REPRESENTATION('',(#206),#210);
#206 = LINE('',#207,#208);
#207 = CARTESIAN_POINT('',(8.7719E-02,0.));
#208 = VECTOR('',#209,1.);
#209 = DIRECTION('',(0.,1.));
#210 = ( GEOMETRIC_REPRESENTATION_CONTEXT(2) 
PARAMETRIC_REPRESENTATION_CONTEXT() REPRESENTATION_CONTEXT('2D SPACE',''
  ) );
#211 = ORIENTED_EDGE('',*,*,#212,.F.);
#212 = EDGE_CURVE('',#163,#198,#213,.T.);
#213 = SURFACE_CURVE('',#214,(#217),.PCURVE_S1.);
#214 = B_SPLINE_CURVE_WITH_KNOTS('',1,(#215,#216),.UNSPECIFIED.,.F.,.F.,
  (2,2),(-8.7719E-02,8.7719E-02),.PIECEWISE_BEZIER_KNOTS.);
#215 = CARTESIAN_POINT('',(0.132683668351,0.115788036873,0.113191190889)
  );
#216 = CARTESIAN_POINT('',(0.308122264215,0.115788036873,0.113191190889)
  );
#217 = PCURVE('',#170,#218);
#218 = DEFINITIONAL_REPRESENTATION('',(#219),#223);
#219 = LINE('',#220,#221);
#220 = CARTESIAN_POINT('',(0.,2.2059E-02));
#221 = VECTOR('',#222,1.);
#222 = DIRECTION('',(1.,0.));
#223 = ( GEOMETRIC_REPRESENTATION_CONTEXT(2) 
PARAMETRIC_REPRESENTATION_CONTEXT() REPRESENTATION_CONTEXT('2D SPACE',''
  ) );
#224 = ( GEOMETRIC_REPRESENTATION_CONTEXT(3) 
GLOBAL_UNCERTAINTY_ASSIGNED_CONTEXT((#228)) GLOBAL_UNIT_ASSIGNED_CONTEXT
((#225,#226,#227)) REPRESENTATION_CONTEXT('Context #1',
  '3D Context with UNIT and UNCERTAINTY') );
#225 = ( LENGTH_UNIT() NAMED_UNIT(*) SI_UNIT(.MILLI.,.METRE.) );
#226 = ( NAMED_UNIT(*) PLANE_ANGLE_UNIT() SI_UNIT($,.RADIAN.) );
#227 = ( NAMED_UNIT(*) SI_UNIT($,.STERADIAN.) SOLID_ANGLE_UNIT() );
#228 = UNCERTAINTY_MEASURE_WITH_UNIT(LENGTH_MEASURE(1.E-07),#225,
  'distance_accuracy_value','confusion accuracy');
#229 = CONTEXT_DEPENDENT_SHAPE_REPRESENTATION(#230,#232);
#230 = ( REPRESENTATION_RELATIONSHIP('','',#153,#10) 
REPRESENTATION_RELATIONSHIP_WITH_TRANSFORMATION(#231) 
SHAPE_REPRESENTATION_RELATIONSHIP() );
#231 = ITEM_DEFINED_TRANSFORMATION('','',#11,#19);
#232 = PRODUCT_DEFINITION_SHAPE('Placement','Placement of an item',#233
  );
#233 = NEXT_ASSEMBLY_USAGE_OCCURRENCE('2','','',#5,#148,$);
#234 = PRODUCT_RELATED_PRODUCT_CATEGORY('part',$,(#150));
#235 = SHAPE_DEFINITION_REPRESENTATION(#236,#242);
#236 = PRODUCT_DEFINITION_SHAPE('','',#237);
#237 = PRODUCT_DEFINITION('design','',#238,#241);
#238 = PRODUCT_DEFINITION_FORMATION('','',#239);
#239 = PRODUCT('Open CASCADE STEP translator 7.9 1.3',
  'Open CASCADE STEP translator 7.9 1.3','',(#240));
#240 = PRODUCT_CONTEXT('',#2,'mechanical');
#241 = PRODUCT_DEFINITION_CONTEXT('part definition',#2,'design');
#242 = MANIFOLD_SURFACE_SHAPE_REPRESENTATION('',(#11,#243),#313);
#243 = SHELL_BASED_SURFACE_MODEL('',(#244));
#244 = OPEN_SHELL('',(#245));
#245 = ADVANCED_FACE('',(#246),#259,.T.);
#246 = FACE_BOUND('',#247,.T.);
#247 = EDGE_LOOP('',(#248,#270,#285,#300));
#248 = ORIENTED_EDGE('',*,*,#249,.F.);
#249 = EDGE_CURVE('',#250,#252,#254,.T.);
#250 = VERTEX_POINT('',#251);
#251 = CARTESIAN_POINT('',(0.132683668351,9.372921340585E-02,
    0.218454348545));
#252 = VERTEX_POINT('',#253);
#253 = CARTESIAN_POINT('',(0.132683668351,0.115788036873,0.218454348545)
  );
#254 = SURFACE_CURVE('',#255,(#258),.PCURVE_S1.);
#255 = B_SPLINE_CURVE_WITH_KNOTS('',1,(#256,#257),.UNSPECIFIED.,.F.,.F.,
  (2,2),(0.,2.2059E-02),.PIECEWISE_BEZIER_KNOTS.);
#256 = CARTESIAN_POINT('',(0.132683668351,9.372921340585E-02,
    0.218454348545));
#257 = CARTESIAN_POINT('',(0.132683668351,0.115788036873,0.218454348545)
  );
#258 = PCURVE('',#259,#264);
#259 = B_SPLINE_SURFACE_WITH_KNOTS('',1,1,(
    (#260,#261)
    ,(#262,#263
    )),.UNSPECIFIED.,.F.,.F.,.F.,(2,2),(2,2),(-8.7719E-02,8.7719E-02),(
    0.,2.2059E-02),.PIECEWISE_BEZIER_KNOTS.);
#260 = CARTESIAN_POINT('',(0.132683668351,9.372921340585E-02,
    0.218454348545));
#261 = CARTESIAN_POINT('',(0.132683668351,0.115788036873,0.218454348545)
  );
#262 = CARTESIAN_POINT('',(0.308122264215,9.372921340585E-02,
    0.218454348545));
#263 = CARTESIAN_POINT('',(0.308122264215,0.115788036873,0.218454348545)
  );
#264 = DEFINITIONAL_REPRESENTATION('',(#265),#269);
#265 = LINE('',#266,#267);
#266 = CARTESIAN_POINT('',(-8.7719E-02,0.));
#267 = VECTOR('',#268,1.);
#268 = DIRECTION('',(0.,1.));
#269 = ( GEOMETRIC_REPRESENTATION_CONTEXT(2) 
PARAMETRIC_REPRESENTATION_CONTEXT() REPRESENTATION_CONTEXT('2D SPACE',''
  ) );
#270 = ORIENTED_EDGE('',*,*,#271,.T.);
#271 = EDGE_CURVE('',#250,#272,#274,.T.);
#272 = VERTEX_POINT('',#273);
#273 = CARTESIAN_POINT('',(0.308122264215,9.372921340585E-02,
    0.218454348545));
#274 = SURFACE_CURVE('',#275,(#278),.PCURVE_S1.);
#275 = B_SPLINE_CURVE_WITH_KNOTS('',1,(#276,#277),.UNSPECIFIED.,.F.,.F.,
  (2,2),(-8.7719E-02,8.7719E-02),.PIECEWISE_BEZIER_KNOTS.);
#276 = CARTESIAN_POINT('',(0.132683668351,9.372921340585E-02,
    0.218454348545));
#277 = CARTESIAN_POINT('',(0.308122264215,9.372921340585E-02,
    0.218454348545));
#278 = PCURVE('',#259,#279);
#279 = DEFINITIONAL_REPRESENTATION('',(#280),#284);
#280 = LINE('',#281,#282);
#281 = CARTESIAN_POINT('',(0.,0.));
#282 = VECTOR('',#283,1.);
#283 = DIRECTION('',(1.,0.));
#284 = ( GEOMETRIC_REPRESENTATION_CONTEXT(2) 
PARAMETRIC_REPRESENTATION_CONTEXT() REPRESENTATION_CONTEXT('2D SPACE',''
  ) );
#285 = ORIENTED_EDGE('',*,*,#286,.T.);
#286 = EDGE_CURVE('',#272,#287,#289,.T.);
#287 = VERTEX_POINT('',#288);
#288 = CARTESIAN_POINT('',(0.308122264215,0.115788036873,0.218454348545)
  );
#289 = SURFACE_CURVE('',#290,(#293),.PCURVE_S1.);
#290 = B_SPLINE_CURVE_WITH_KNOTS('',1,(#291,#292),.UNSPECIFIED.,.F.,.F.,
  (2,2),(0.,2.2059E-02),.PIECEWISE_BEZIER_KNOTS.);
#291 = CARTESIAN_POINT('',(0.308122264215,9.372921340585E-02,
    0.218454348545));
#292 = CARTESIAN_POINT('',(0.308122264215,0.115788036873,0.218454348545)
  );
#293 = PCURVE('',#259,#294);
#294 = DEFINITIONAL_REPRESENTATION('',(#295),#299);
#295 = LINE('',#296,#297);
#296 = CARTESIAN_POINT('',(8.7719E-02,0.));
#297 = VECTOR('',#298,1.);
#298 = DIRECTION('',(0.,1.));
#299 = ( GEOMETRIC_REPRESENTATION_CONTEXT(2) 
PARAMETRIC_REPRESENTATION_CONTEXT() REPRESENTATION_CONTEXT('2D SPACE',''
  ) );
#300 = ORIENTED_EDGE('',*,*,#301,.F.);
#301 = EDGE_CURVE('',#252,#287,#302,.T.);
#302 = SURFACE_CURVE('',#303,(#306),.PCURVE_S1.);
#303 = B_SPLINE_CURVE_WITH_KNOTS('',1,(#304,#305),.UNSPECIFIED.,.F.,.F.,
  (2,2),(-8.7719E-02,8.7719E-02),.PIECEWISE_BEZIER_KNOTS.);
#304 = CARTESIAN_POINT('',(0.132683668351,0.115788036873,0.218454348545)
  );
#305 = CARTESIAN_POINT('',(0.308122264215,0.115788036873,0.218454348545)
  );
#306 = PCURVE('',#259,#307);
#307 = DEFINITIONAL_REPRESENTATION('',(#308),#312);
#308 = LINE('',#309,#310);
#309 = CARTESIAN_POINT('',(0.,2.2059E-02));
#310 = VECTOR('',#311,1.);
#311 = DIRECTION('',(1.,0.));
#312 = ( GEOMETRIC_REPRESENTATION_CONTEXT(2) 
PARAMETRIC_REPRESENTATION_CONTEXT() REPRESENTATION_CONTEXT('2D SPACE',''
  ) );
#313 = ( GEOMETRIC_REPRESENTATION_CONTEXT(3) 
GLOBAL_UNCERTAINTY_ASSIGNED_CONTEXT((#317)) GLOBAL_UNIT_ASSIGNED_CONTEXT
((#314,#315,#316)) REPRESENTATION_CONTEXT('Context #1',
  '3D Context with UNIT and UNCERTAINTY') );
#314 = ( LENGTH_UNIT() NAMED_UNIT(*) SI_UNIT(.MILLI.,.METRE.) );
#315 = ( NAMED_UNIT(*) PLANE_ANGLE_UNIT() SI_UNIT($,.RADIAN.) );
#316 = ( NAMED_UNIT(*) SI_UNIT($,.STERADIAN.) SOLID_ANGLE_UNIT() );
#317 = UNCERTAINTY_MEASURE_WITH_UNIT(LENGTH_MEASURE(1.E-07),#314,
  'distance_accuracy_value','confusion accuracy');
#318 = CONTEXT_DEPENDENT_SHAPE_REPRESENTATION(#319,#321);
#319 = ( REPRESENTATION_RELATIONSHIP('','',#242,#10) 
REPRESENTATION_RELATIONSHIP_WITH_TRANSFORMATION(#320) 
SHAPE_REPRESENTATION_RELATIONSHIP() );
#320 = ITEM_DEFINED_TRANSFORMATION('','',#11,#23);
#321 = PRODUCT_DEFINITION_SHAPE('Placement','Placement of an item',#322
  );
#322 = NEXT_ASSEMBLY_USAGE_OCCURRENCE('3','','',#5,#237,$);
#323 = PRODUCT_RELATED_PRODUCT_CATEGORY('part',$,(#239));
#324 = SHAPE_DEFINITION_REPRESENTATION(#325,#331);
#325 = PRODUCT_DEFINITION_SHAPE('','',#326);
#326 = PRODUCT_DEFINITION('design','',#327,#330);
#327 = PRODUCT_DEFINITION_FORMATION('','',#328);
#328 = PRODUCT('Open CASCADE STEP translator 7.9 1.4',
  'Open CASCADE STEP translator 7.9 1.4','',(#329));
#329 = PRODUCT_CONTEXT('',#2,'mechanical');
#330 = PRODUCT_DEFINITION_CONTEXT('part definition',#2,'design');
#331 = MANIFOLD_SURFACE_SHAPE_REPRESENTATION('',(#11,#332),#402);
#332 = SHELL_BASED_SURFACE_MODEL('',(#333));
#333 = OPEN_SHELL('',(#334));
#334 = ADVANCED_FACE('',(#335),#348,.T.);
#335 = FACE_BOUND('',#336,.T.);
#336 = EDGE_LOOP('',(#337,#359,#374,#389));
#337 = ORIENTED_EDGE('',*,*,#338,.F.);
#338 = EDGE_CURVE('',#339,#341,#343,.T.);
#339 = VERTEX_POINT('',#340);
#340 = CARTESIAN_POINT('',(0.308122264215,9.372921340585E-02,
    0.218454348545));
#341 = VERTEX_POINT('',#342);
#342 = CARTESIAN_POINT('',(0.308122264215,0.115788036873,0.218454348545)
  );
#343 = SURFACE_CURVE('',#344,(#347),.PCURVE_S1.);
#344 = B_SPLINE_CURVE_WITH_KNOTS('',1,(#345,#346),.UNSPECIFIED.,.F.,.F.,
  (2,2),(0.,2.2059E-02),.PIECEWISE_BEZIER_KNOTS.);
#345 = CARTESIAN_POINT('',(0.308122264215,9.372921340585E-02,
    0.218454348545));
#346 = CARTESIAN_POINT('',(0.308122264215,0.115788036873,0.218454348545)
  );
#347 = PCURVE('',#348,#353);
#348 = B_SPLINE_SURFACE_WITH_KNOTS('',1,1,(
    (#349,#350)
    ,(#351,#352
    )),.UNSPECIFIED.,.F.,.F.,.F.,(2,2),(2,2),(-5.2632E-02,5.2632E-02),(
    0.,2.2059E-02),.PIECEWISE_BEZIER_KNOTS.);
#349 = CARTESIAN_POINT('',(0.308122264215,9.372921340585E-02,
    0.218454348545));
#350 = CARTESIAN_POINT('',(0.308122264215,0.115788036873,0.218454348545)
  );
#351 = CARTESIAN_POINT('',(0.308122264215,9.372921340585E-02,
    0.113191190889));
#352 = CARTESIAN_POINT('',(0.308122264215,0.115788036873,0.113191190889)
  );
#353 = DEFINITIONAL_REPRESENTATION('',(#354),#358);
#354 = LINE('',#355,#356);
#355 = CARTESIAN_POINT('',(-5.2632E-02,0.));
#356 = VECTOR('',#357,1.);
#357 = DIRECTION('',(0.,1.));
#358 = ( GEOMETRIC_REPRESENTATION_CONTEXT(2) 
PARAMETRIC_REPRESENTATION_CONTEXT() REPRESENTATION_CONTEXT('2D SPACE',''
  ) );
#359 = ORIENTED_EDGE('',*,*,#360,.T.);
#360 = EDGE_CURVE('',#339,#361,#363,.T.);
#361 = VERTEX_POINT('',#362);
#362 = CARTESIAN_POINT('',(0.308122264215,9.372921340585E-02,
    0.113191190889));
#363 = SURFACE_CURVE('',#364,(#367),.PCURVE_S1.);
#364 = B_SPLINE_CURVE_WITH_KNOTS('',1,(#365,#366),.UNSPECIFIED.,.F.,.F.,
  (2,2),(-5.2632E-02,5.2632E-02),.PIECEWISE_BEZIER_KNOTS.);
#365 = CARTESIAN_POINT('',(0.308122264215,9.372921340585E-02,
    0.218454348545));
#366 = CARTESIAN_POINT('',(0.308122264215,9.372921340585E-02,
    0.113191190889));
#367 = PCURVE('',#348,#368);
#368 = DEFINITIONAL_REPRESENTATION('',(#369),#373);
#369 = LINE('',#370,#371);
#370 = CARTESIAN_POINT('',(0.,0.));
#371 = VECTOR('',#372,1.);
#372 = DIRECTION('',(1.,0.));
#373 = ( GEOMETRIC_REPRESENTATION_CONTEXT(2) 
PARAMETRIC_REPRESENTATION_CONTEXT() REPRESENTATION_CONTEXT('2D SPACE',''
  ) );
#374 = ORIENTED_EDGE('',*,*,#375,.T.);
#375 = EDGE_CURVE('',#361,#376,#378,.T.);
#376 = VERTEX_POINT('',#377);
#377 = CARTESIAN_POINT('',(0.308122264215,0.115788036873,0.113191190889)
  );
#378 = SURFACE_CURVE('',#379,(#382),.PCURVE_S1.);
#379 = B_SPLINE_CURVE_WITH_KNOTS('',1,(#380,#381),.UNSPECIFIED.,.F.,.F.,
  (2,2),(0.,2.2059E-02),.PIECEWISE_BEZIER_KNOTS.);
#380 = CARTESIAN_POINT('',(0.308122264215,9.372921340585E-02,
    0.113191190889));
#381 = CARTESIAN_POINT('',(0.308122264215,0.115788036873,0.113191190889)
  );
#382 = PCURVE('',#348,#383);
#383 = DEFINITIONAL_REPRESENTATION('',(#384),#388);
#384 = LINE('',#385,#386);
#385 = CARTESIAN_POINT('',(5.2632E-02,0.));
#386 = VECTOR('',#387,1.);
#387 = DIRECTION('',(0.,1.));
#388 = ( GEOMETRIC_REPRESENTATION_CONTEXT(2) 
PARAMETRIC_REPRESENTATION_CONTEXT() REPRESENTATION_CONTEXT('2D SPACE',''
  ) );
#389 = ORIENTED_EDGE('',*,*,#390,.F.);
#390 = EDGE_CURVE('',#341,#376,#391,.T.);
#391 = SURFACE_CURVE('',#392,(#395),.PCURVE_S1.);
#392 = B_SPLINE_CURVE_WITH_KNOTS('',1,(#393,#394),.UNSPECIFIED.,.F.,.F.,
  (2,2),(-5.2632E-02,5.2632E-02),.PIECEWISE_BEZIER_KNOTS.);
#393 = CARTESIAN_POINT('',(0.308122264215,0.115788036873,0.218454348545)
  );
#394 = CARTESIAN_POINT('',(0.308122264215,0.115788036873,0.113191190889)
  );
#395 = PCURVE('',#348,#396);
#396 = DEFINITIONAL_REPRESENTATION('',(#397),#401);
#397 = LINE('',#398,#399);
#398 = CARTESIAN_POINT('',(0.,2.2059E-02));
#399 = VECTOR('',#400,1.);
#400 = DIRECTION('',(1.,0.));
#401 = ( GEOMETRIC_REPRESENTATION_CONTEXT(2) 
PARAMETRIC_REPRESENTATION_CONTEXT() REPRESENTATION_CONTEXT('2D SPACE',''
  ) );
#402 = ( GEOMETRIC_REPRESENTATION_CONTEXT(3) 
GLOBAL_UNCERTAINTY_ASSIGNED_CONTEXT((#406)) GLOBAL_UNIT_ASSIGNED_CONTEXT
((#403,#404,#405)) REPRESENTATION_CONTEXT('Context #1',
  '3D Context with UNIT and UNCERTAINTY') );
#403 = ( LENGTH_UNIT() NAMED_UNIT(*) SI_UNIT(.MILLI.,.METRE.) );
#404 = ( NAMED_UNIT(*) PLANE_ANGLE_UNIT() SI_UNIT($,.RADIAN.) );
#405 = ( NAMED_UNIT(*) SI_UNIT($,.STERADIAN.) SOLID_ANGLE_UNIT() );
#406 = UNCERTAINTY_MEASURE_WITH_UNIT(LENGTH_MEASURE(1.E-07),#403,
  'distance_accuracy_value','confusion accuracy');
#407 = CONTEXT_DEPENDENT_SHAPE_REPRESENTATION(#408,#410);
#408 = ( REPRESENTATION_RELATIONSHIP('','',#331,#10) 
REPRESENTATION_RELATIONSHIP_WITH_TRANSFORMATION(#409) 
SHAPE_REPRESENTATION_RELATIONSHIP() );
#409 = ITEM_DEFINED_TRANSFORMATION('','',#11,#27);
#410 = PRODUCT_DEFINITION_SHAPE('Placement','Placement of an item',#411
  );
#411 = NEXT_ASSEMBLY_USAGE_OCCURRENCE('4','','',#5,#326,$);
#412 = PRODUCT_RELATED_PRODUCT_CATEGORY('part',$,(#328));
#413 = SHAPE_DEFINITION_REPRESENTATION(#414,#420);
#414 = PRODUCT_DEFINITION_SHAPE('','',#415);
#415 = PRODUCT_DEFINITION('design','',#416,#419);
#416 = PRODUCT_DEFINITION_FORMATION('','',#417);
#417 = PRODUCT('Open CASCADE STEP translator 7.9 1.5',
  'Open CASCADE STEP translator 7.9 1.5','',(#418));
#418 = PRODUCT_CONTEXT('',#2,'mechanical');
#419 = PRODUCT_DEFINITION_CONTEXT('part definition',#2,'design');
#420 = MANIFOLD_SURFACE_SHAPE_REPRESENTATION('',(#11,#421),#491);
#421 = SHELL_BASED_SURFACE_MODEL('',(#422));
#422 = OPEN_SHELL('',(#423));
#423 = ADVANCED_FACE('',(#424),#437,.T.);
#424 = FACE_BOUND('',#425,.T.);
#425 = EDGE_LOOP('',(#426,#448,#463,#478));
#426 = ORIENTED_EDGE('',*,*,#427,.F.);
#427 = EDGE_CURVE('',#428,#430,#432,.T.);
#428 = VERTEX_POINT('',#429);
#429 = CARTESIAN_POINT('',(0.132683668351,9.372921340585E-02,
    0.218454348545));
#430 = VERTEX_POINT('',#431);
#431 = CARTESIAN_POINT('',(0.132683668351,0.115788036873,0.218454348545)
  );
#432 = SURFACE_CURVE('',#433,(#436),.PCURVE_S1.);
#433 = B_SPLINE_CURVE_WITH_KNOTS('',1,(#434,#435),.UNSPECIFIED.,.F.,.F.,
  (2,2),(0.,2.2059E-02),.PIECEWISE_BEZIER_KNOTS.);
#434 = CARTESIAN_POINT('',(0.132683668351,9.372921340585E-02,
    0.218454348545));
#435 = CARTESIAN_POINT('',(0.132683668351,0.115788036873,0.218454348545)
  );
#436 = PCURVE('',#437,#442);
#437 = B_SPLINE_SURFACE_WITH_KNOTS('',1,1,(
    (#438,#439)
    ,(#440,#441
    )),.UNSPECIFIED.,.F.,.F.,.F.,(2,2),(2,2),(-5.2632E-02,5.2632E-02),(
    0.,2.2059E-02),.PIECEWISE_BEZIER_KNOTS.);
#438 = CARTESIAN_POINT('',(0.132683668351,9.372921340585E-02,
    0.218454348545));
#439 = CARTESIAN_POINT('',(0.132683668351,0.115788036873,0.218454348545)
  );
#440 = CARTESIAN_POINT('',(0.132683668351,9.372921340585E-02,
    0.113191190889));
#441 = CARTESIAN_POINT('',(0.132683668351,0.115788036873,0.113191190889)
  );
#442 = DEFINITIONAL_REPRESENTATION('',(#443),#447);
#443 = LINE('',#444,#445);
#444 = CARTESIAN_POINT('',(-5.2632E-02,0.));
#445 = VECTOR('',#446,1.);
#446 = DIRECTION('',(0.,1.));
#447 = ( GEOMETRIC_REPRESENTATION_CONTEXT(2) 
PARAMETRIC_REPRESENTATION_CONTEXT() REPRESENTATION_CONTEXT('2D SPACE',''
  ) );
#448 = ORIENTED_EDGE('',*,*,#449,.T.);
#449 = EDGE_CURVE('',#428,#450,#452,.T.);
#450 = VERTEX_POINT('',#451);
#451 = CARTESIAN_POINT('',(0.132683668351,9.372921340585E-02,
    0.113191190889));
#452 = SURFACE_CURVE('',#453,(#456),.PCURVE_S1.);
#453 = B_SPLINE_CURVE_WITH_KNOTS('',1,(#454,#455),.UNSPECIFIED.,.F.,.F.,
  (2,2),(-5.2632E-02,5.2632E-02),.PIECEWISE_BEZIER_KNOTS.);
#454 = CARTESIAN_POINT('',(0.132683668351,9.372921340585E-02,
    0.218454348545));
#455 = CARTESIAN_POINT('',(0.132683668351,9.372921340585E-02,
    0.113191190889));
#456 = PCURVE('',#437,#457);
#457 = DEFINITIONAL_REPRESENTATION('',(#458),#462);
#458 = LINE('',#459,#460);
#459 = CARTESIAN_POINT('',(0.,0.));
#460 = VECTOR('',#461,1.);
#461 = DIRECTION('',(1.,0.));
#462 = ( GEOMETRIC_REPRESENTATION_CONTEXT(2) 
PARAMETRIC_REPRESENTATION_CONTEXT() REPRESENTATION_CONTEXT('2D SPACE',''
  ) );
#463 = ORIENTED_EDGE('',*,*,#464,.T.);
#464 = EDGE_CURVE('',#450,#465,#467,.T.);
#465 = VERTEX_POINT('',#466);
#466 = CARTESIAN_POINT('',(0.132683668351,0.115788036873,0.113191190889)
  );
#467 = SURFACE_CURVE('',#468,(#471),.PCURVE_S1.);
#468 = B_SPLINE_CURVE_WITH_KNOTS('',1,(#469,#470),.UNSPECIFIED.,.F.,.F.,
  (2,2),(0.,2.2059E-02),.PIECEWISE_BEZIER_KNOTS.);
#469 = CARTESIAN_POINT('',(0.132683668351,9.372921340585E-02,
    0.113191190889));
#470 = CARTESIAN_POINT('',(0.132683668351,0.115788036873,0.113191190889)
  );
#471 = PCURVE('',#437,#472);
#472 = DEFINITIONAL_REPRESENTATION('',(#473),#477);
#473 = LINE('',#474,#475);
#474 = CARTESIAN_POINT('',(5.2632E-02,0.));
#475 = VECTOR('',#476,1.);
#476 = DIRECTION('',(0.,1.));
#477 = ( GEOMETRIC_REPRESENTATION_CONTEXT(2) 
PARAMETRIC_REPRESENTATION_CONTEXT() REPRESENTATION_CONTEXT('2D SPACE',''
  ) );
#478 = ORIENTED_EDGE('',*,*,#479,.F.);
#479 = EDGE_CURVE('',#430,#465,#480,.T.);
#480 = SURFACE_CURVE('',#481,(#484),.PCURVE_S1.);
#481 = B_SPLINE_CURVE_WITH_KNOTS('',1,(#482,#483),.UNSPECIFIED.,.F.,.F.,
  (2,2),(-5.2632E-02,5.2632E-02),.PIECEWISE_BEZIER_KNOTS.);
#482 = CARTESIAN_POINT('',(0.132683668351,0.115788036873,0.218454348545)
  );
#483 = CARTESIAN_POINT('',(0.132683668351,0.115788036873,0.113191190889)
  );
#484 = PCURVE('',#437,#485);
#485 = DEFINITIONAL_REPRESENTATION('',(#486),#490);
#486 = LINE('',#487,#488);
#487 = CARTESIAN_POINT('',(0.,2.2059E-02));
#488 = VECTOR('',#489,1.);
#489 = DIRECTION('',(1.,0.));
#490 = ( GEOMETRIC_REPRESENTATION_CONTEXT(2) 
PARAMETRIC_REPRESENTATION_CONTEXT() REPRESENTATION_CONTEXT('2D SPACE',''
  ) );
#491 = ( GEOMETRIC_REPRESENTATION_CONTEXT(3) 
GLOBAL_UNCERTAINTY_ASSIGNED_CONTEXT((#495)) GLOBAL_UNIT_ASSIGNED_CONTEXT
((#492,#493,#494)) REPRESENTATION_CONTEXT('Context #1',
  '3D Context with UNIT and UNCERTAINTY') );
#492 = ( LENGTH_UNIT() NAMED_UNIT(*) SI_UNIT(.MILLI.,.METRE.) );
#493 = ( NAMED_UNIT(*) PLANE_ANGLE_UNIT() SI_UNIT($,.RADIAN.) );
#494 = ( NAMED_UNIT(*) SI_UNIT($,.STERADIAN.) SOLID_ANGLE_UNIT() );
#495 = UNCERTAINTY_MEASURE_WITH_UNIT(LENGTH_MEASURE(1.E-07),#492,
  'distance_accuracy_value','confusion accuracy');
#496 = CONTEXT_DEPENDENT_SHAPE_REPRESENTATION(#497,#499);
#497 = ( REPRESENTATION_RELATIONSHIP('','',#420,#10) 
REPRESENTATION_RELATIONSHIP_WITH_TRANSFORMATION(#498) 
SHAPE_REPRESENTATION_RELATIONSHIP() );
#498 = ITEM_DEFINED_TRANSFORMATION('','',#11,#31);
#499 = PRODUCT_DEFINITION_SHAPE('Placement','Placement of an item',#500
  );
#500 = NEXT_ASSEMBLY_USAGE_OCCURRENCE('5','','',#5,#415,$);
#501 = PRODUCT_RELATED_PRODUCT_CATEGORY('part',$,(#417));
#502 = SHAPE_DEFINITION_REPRESENTATION(#503,#509);
#503 = PRODUCT_DEFINITION_SHAPE('','',#504);
#504 = PRODUCT_DEFINITION('design','',#505,#508);
#505 = PRODUCT_DEFINITION_FORMATION('','',#506);
#506 = PRODUCT('Open CASCADE STEP translator 7.9 1.6',
  'Open CASCADE STEP translator 7.9 1.6','',(#507));
#507 = PRODUCT_CONTEXT('',#2,'mechanical');
#508 = PRODUCT_DEFINITION_CONTEXT('part definition',#2,'design');
#509 = MANIFOLD_SURFACE_SHAPE_REPRESENTATION('',(#11,#510),#580);
#510 = SHELL_BASED_SURFACE_MODEL('',(#511));
#511 = OPEN_SHELL('',(#512));
#512 = ADVANCED_FACE('',(#513),#526,.T.);
#513 = FACE_BOUND('',#514,.T.);
#514 = EDGE_LOOP('',(#515,#537,#552,#567));
#515 = ORIENTED_EDGE('',*,*,#516,.F.);
#516 = EDGE_CURVE('',#517,#519,#521,.T.);
#517 = VERTEX_POINT('',#518);
#518 = CARTESIAN_POINT('',(0.132683668351,0.115788036873,0.113191190889)
  );
#519 = VERTEX_POINT('',#520);
#520 = CARTESIAN_POINT('',(0.132683668351,0.115788036873,0.218454348545)
  );
#521 = SURFACE_CURVE('',#522,(#525),.PCURVE_S1.);
#522 = B_SPLINE_CURVE_WITH_KNOTS('',1,(#523,#524),.UNSPECIFIED.,.F.,.F.,
  (2,2),(-5.2632E-02,5.2632E-02),.PIECEWISE_BEZIER_KNOTS.);
#523 = CARTESIAN_POINT('',(0.132683668351,0.115788036873,0.113191190889)
  );
#524 = CARTESIAN_POINT('',(0.132683668351,0.115788036873,0.218454348545)
  );
#525 = PCURVE('',#526,#531);
#526 = B_SPLINE_SURFACE_WITH_KNOTS('',1,1,(
    (#527,#528)
    ,(#529,#530
    )),.UNSPECIFIED.,.F.,.F.,.F.,(2,2),(2,2),(-0.367316,-0.191878),(
    -5.2632E-02,5.2632E-02),.PIECEWISE_BEZIER_KNOTS.);
#527 = CARTESIAN_POINT('',(0.132683668351,0.115788036873,0.113191190889)
  );
#528 = CARTESIAN_POINT('',(0.132683668351,0.115788036873,0.218454348545)
  );
#529 = CARTESIAN_POINT('',(0.308122264215,0.115788036873,0.113191190889)
  );
#530 = CARTESIAN_POINT('',(0.308122264215,0.115788036873,0.218454348545)
  );
#531 = DEFINITIONAL_REPRESENTATION('',(#532),#536);
#532 = LINE('',#533,#534);
#533 = CARTESIAN_POINT('',(-0.367316,0.));
#534 = VECTOR('',#535,1.);
#535 = DIRECTION('',(0.,1.));
#536 = ( GEOMETRIC_REPRESENTATION_CONTEXT(2) 
PARAMETRIC_REPRESENTATION_CONTEXT() REPRESENTATION_CONTEXT('2D SPACE',''
  ) );
#537 = ORIENTED_EDGE('',*,*,#538,.T.);
#538 = EDGE_CURVE('',#517,#539,#541,.T.);
#539 = VERTEX_POINT('',#540);
#540 = CARTESIAN_POINT('',(0.308122264215,0.115788036873,0.113191190889)
  );
#541 = SURFACE_CURVE('',#542,(#545),.PCURVE_S1.);
#542 = B_SPLINE_CURVE_WITH_KNOTS('',1,(#543,#544),.UNSPECIFIED.,.F.,.F.,
  (2,2),(-0.367316,-0.191878),.PIECEWISE_BEZIER_KNOTS.);
#543 = CARTESIAN_POINT('',(0.132683668351,0.115788036873,0.113191190889)
  );
#544 = CARTESIAN_POINT('',(0.308122264215,0.115788036873,0.113191190889)
  );
#545 = PCURVE('',#526,#546);
#546 = DEFINITIONAL_REPRESENTATION('',(#547),#551);
#547 = LINE('',#548,#549);
#548 = CARTESIAN_POINT('',(0.,-5.2632E-02));
#549 = VECTOR('',#550,1.);
#550 = DIRECTION('',(1.,0.));
#551 = ( GEOMETRIC_REPRESENTATION_CONTEXT(2) 
PARAMETRIC_REPRESENTATION_CONTEXT() REPRESENTATION_CONTEXT('2D SPACE',''
  ) );
#552 = ORIENTED_EDGE('',*,*,#553,.T.);
#553 = EDGE_CURVE('',#539,#554,#556,.T.);
#554 = VERTEX_POINT('',#555);
#555 = CARTESIAN_POINT('',(0.308122264215,0.115788036873,0.218454348545)
  );
#556 = SURFACE_CURVE('',#557,(#560),.PCURVE_S1.);
#557 = B_SPLINE_CURVE_WITH_KNOTS('',1,(#558,#559),.UNSPECIFIED.,.F.,.F.,
  (2,2),(-5.2632E-02,5.2632E-02),.PIECEWISE_BEZIER_KNOTS.);
#558 = CARTESIAN_POINT('',(0.308122264215,0.115788036873,0.113191190889)
  );
#559 = CARTESIAN_POINT('',(0.308122264215,0.115788036873,0.218454348545)
  );
#560 = PCURVE('',#526,#561);
#561 = DEFINITIONAL_REPRESENTATION('',(#562),#566);
#562 = LINE('',#563,#564);
#563 = CARTESIAN_POINT('',(-0.191878,0.));
#564 = VECTOR('',#565,1.);
#565 = DIRECTION('',(0.,1.));
#566 = ( GEOMETRIC_REPRESENTATION_CONTEXT(2) 
PARAMETRIC_REPRESENTATION_CONTEXT() REPRESENTATION_CONTEXT('2D SPACE',''
  ) );
#567 = ORIENTED_EDGE('',*,*,#568,.F.);
#568 = EDGE_CURVE('',#519,#554,#569,.T.);
#569 = SURFACE_CURVE('',#570,(#573),.PCURVE_S1.);
#570 = B_SPLINE_CURVE_WITH_KNOTS('',1,(#571,#572),.UNSPECIFIED.,.F.,.F.,
  (2,2),(-0.367316,-0.191878),.PIECEWISE_BEZIER_KNOTS.);
#571 = CARTESIAN_POINT('',(0.132683668351,0.115788036873,0.218454348545)
  );
#572 = CARTESIAN_POINT('',(0.308122264215,0.115788036873,0.218454348545)
  );
#573 = PCURVE('',#526,#574);
#574 = DEFINITIONAL_REPRESENTATION('',(#575),#579);
#575 = LINE('',#576,#577);
#576 = CARTESIAN_POINT('',(0.,5.2632E-02));
#577 = VECTOR('',#578,1.);
#578 = DIRECTION('',(1.,0.));
#579 = ( GEOMETRIC_REPRESENTATION_CONTEXT(2) 
PARAMETRIC_REPRESENTATION_CONTEXT() REPRESENTATION_CONTEXT('2D SPACE',''
  ) );
#580 = ( GEOMETRIC_REPRESENTATION_CONTEXT(3) 
GLOBAL_UNCERTAINTY_ASSIGNED_CONTEXT((#584)) GLOBAL_UNIT_ASSIGNED_CONTEXT
((#581,#582,#583)) REPRESENTATION_CONTEXT('Context #1',
  '3D Context with UNIT and UNCERTAINTY') );
#581 = ( LENGTH_UNIT() NAMED_UNIT(*) SI_UNIT(.MILLI.,.METRE.) );
#582 = ( NAMED_UNIT(*) PLANE_ANGLE_UNIT() SI_UNIT($,.RADIAN.) );
#583 = ( NAMED_UNIT(*) SI_UNIT($,.STERADIAN.) SOLID_ANGLE_UNIT() );
#584 = UNCERTAINTY_MEASURE_WITH_UNIT(LENGTH_MEASURE(1.E-07),#581,
  'distance_accuracy_value','confusion accuracy');
#585 = CONTEXT_DEPENDENT_SHAPE_REPRESENTATION(#586,#588);
#586 = ( REPRESENTATION_RELATIONSHIP('','',#509,#10) 
REPRESENTATION_RELATIONSHIP_WITH_TRANSFORMATION(#587) 
SHAPE_REPRESENTATION_RELATIONSHIP() );
#587 = ITEM_DEFINED_TRANSFORMATION('','',#11,#35);
#588 = PRODUCT_DEFINITION_SHAPE('Placement','Placement of an item',#589
  );
#589 = NEXT_ASSEMBLY_USAGE_OCCURRENCE('6','','',#5,#504,$);
#590 = PRODUCT_RELATED_PRODUCT_CATEGORY('part',$,(#506));
#591 = SHAPE_DEFINITION_REPRESENTATION(#592,#598);
#592 = PRODUCT_DEFINITION_SHAPE('','',#593);
#593 = PRODUCT_DEFINITION('design','',#594,#597);
#594 = PRODUCT_DEFINITION_FORMATION('','',#595);
#595 = PRODUCT('Open CASCADE STEP translator 7.9 1.7',
  'Open CASCADE STEP translator 7.9 1.7','',(#596));
#596 = PRODUCT_CONTEXT('',#2,'mechanical');
#597 = PRODUCT_DEFINITION_CONTEXT('part definition',#2,'design');
#598 = MANIFOLD_SURFACE_SHAPE_REPRESENTATION('',(#11,#599),#680);
#599 = SHELL_BASED_SURFACE_MODEL('',(#600));
#600 = OPEN_SHELL('',(#601));
#601 = ADVANCED_FACE('',(#602),#615,.T.);
#602 = FACE_BOUND('',#603,.T.);
#603 = EDGE_LOOP('',(#604,#643,#661,#662));
#604 = ORIENTED_EDGE('',*,*,#605,.F.);
#605 = EDGE_CURVE('',#606,#608,#610,.T.);
#606 = VERTEX_POINT('',#607);
#607 = CARTESIAN_POINT('',(0.151863973145,9.372921340585E-02,
    0.138556690089));
#608 = VERTEX_POINT('',#609);
#609 = CARTESIAN_POINT('',(0.151863973145,0.115788036873,0.138556690089)
  );
#610 = SEAM_CURVE('',#611,(#614,#636),.PCURVE_S1.);
#611 = B_SPLINE_CURVE_WITH_KNOTS('',1,(#612,#613),.UNSPECIFIED.,.F.,.F.,
  (2,2),(-0.105263,-8.3204E-02),.PIECEWISE_BEZIER_KNOTS.);
#612 = CARTESIAN_POINT('',(0.151863973145,9.372921340585E-02,
    0.138556690089));
#613 = CARTESIAN_POINT('',(0.151863973145,0.115788036873,0.138556690089)
  );
#614 = PCURVE('',#615,#630);
#615 = ( BOUNDED_SURFACE() B_SPLINE_SURFACE(2,1,(
    (#616,#617)
    ,(#618,#619)
    ,(#620,#621)
    ,(#622,#623)
    ,(#624,#625)
    ,(#626,#627)
,(#628,#629
    )),.UNSPECIFIED.,.T.,.F.,.F.) B_SPLINE_SURFACE_WITH_KNOTS((1,2,2,2,2
    ,1),(2,2),(-2.094395,0.,2.094395,4.18879,6.283185,8.37758),(
-0.105263,-8.3204E-02),.UNSPECIFIED.) GEOMETRIC_REPRESENTATION_ITEM() 
RATIONAL_B_SPLINE_SURFACE((
    (1.,1.)
    ,(0.5,0.5)
    ,(1.,1.)
    ,(0.5,0.5)
    ,(1.,1.)
    ,(0.5,0.5)
,(1.,1.))) REPRESENTATION_ITEM('') SURFACE() );
#616 = CARTESIAN_POINT('',(0.151863973145,9.372921340585E-02,
    0.138556690089));
#617 = CARTESIAN_POINT('',(0.151863973145,0.115788036873,0.138556690089)
  );
#618 = CARTESIAN_POINT('',(0.135530302832,9.372921340585E-02,
    0.138556690089));
#619 = CARTESIAN_POINT('',(0.135530302832,0.115788036873,0.138556690089)
  );
#620 = CARTESIAN_POINT('',(0.143697137988,9.372921340585E-02,
    0.152703420405));
#621 = CARTESIAN_POINT('',(0.143697137988,0.115788036873,0.152703420405)
  );
#622 = CARTESIAN_POINT('',(0.151863973145,9.372921340585E-02,
    0.166850150721));
#623 = CARTESIAN_POINT('',(0.151863973145,0.115788036873,0.166850150721)
  );
#624 = CARTESIAN_POINT('',(0.160030808302,9.372921340585E-02,
    0.152703420405));
#625 = CARTESIAN_POINT('',(0.160030808302,0.115788036873,0.152703420405)
  );
#626 = CARTESIAN_POINT('',(0.168197643458,9.372921340585E-02,
    0.138556690089));
#627 = CARTESIAN_POINT('',(0.168197643458,0.115788036873,0.138556690089)
  );
#628 = CARTESIAN_POINT('',(0.151863973145,9.372921340585E-02,
    0.138556690089));
#629 = CARTESIAN_POINT('',(0.151863973145,0.115788036873,0.138556690089)
  );
#630 = DEFINITIONAL_REPRESENTATION('',(#631),#635);
#631 = LINE('',#632,#633);
#632 = CARTESIAN_POINT('',(0.,0.));
#633 = VECTOR('',#634,1.);
#634 = DIRECTION('',(0.,1.));
#635 = ( GEOMETRIC_REPRESENTATION_CONTEXT(2) 
PARAMETRIC_REPRESENTATION_CONTEXT() REPRESENTATION_CONTEXT('2D SPACE',''
  ) );
#636 = PCURVE('',#615,#637);
#637 = DEFINITIONAL_REPRESENTATION('',(#638),#642);
#638 = LINE('',#639,#640);
#639 = CARTESIAN_POINT('',(6.283185,0.));
#640 = VECTOR('',#641,1.);
#641 = DIRECTION('',(0.,1.));
#642 = ( GEOMETRIC_REPRESENTATION_CONTEXT(2) 
PARAMETRIC_REPRESENTATION_CONTEXT() REPRESENTATION_CONTEXT('2D SPACE',''
  ) );
#643 = ORIENTED_EDGE('',*,*,#644,.T.);
#644 = EDGE_CURVE('',#606,#606,#645,.T.);
#645 = SURFACE_CURVE('',#646,(#654),.PCURVE_S1.);
#646 = ( BOUNDED_CURVE() B_SPLINE_CURVE(2,(#647,#648,#649,#650,#651,#652
,#653),.UNSPECIFIED.,.T.,.F.) B_SPLINE_CURVE_WITH_KNOTS((1,2,2,2,2,1),(
-2.094395,0.,2.094395,4.18879,6.283185,8.37758),.UNSPECIFIED.) CURVE() 
GEOMETRIC_REPRESENTATION_ITEM() RATIONAL_B_SPLINE_CURVE((1.,0.5,1.,0.5,
1.,0.5,1.)) REPRESENTATION_ITEM('') );
#647 = CARTESIAN_POINT('',(0.151863973145,9.372921340585E-02,
    0.138556690089));
#648 = CARTESIAN_POINT('',(0.135530302832,9.372921340585E-02,
    0.138556690089));
#649 = CARTESIAN_POINT('',(0.143697137988,9.372921340585E-02,
    0.152703420405));
#650 = CARTESIAN_POINT('',(0.151863973145,9.372921340585E-02,
    0.166850150721));
#651 = CARTESIAN_POINT('',(0.160030808302,9.372921340585E-02,
    0.152703420405));
#652 = CARTESIAN_POINT('',(0.168197643458,9.372921340585E-02,
    0.138556690089));
#653 = CARTESIAN_POINT('',(0.151863973145,9.372921340585E-02,
    0.138556690089));
#654 = PCURVE('',#615,#655);
#655 = DEFINITIONAL_REPRESENTATION('',(#656),#660);
#656 = LINE('',#657,#658);
#657 = CARTESIAN_POINT('',(0.,-0.105263));
#658 = VECTOR('',#659,1.);
#659 = DIRECTION('',(1.,0.));
#660 = ( GEOMETRIC_REPRESENTATION_CONTEXT(2) 
PARAMETRIC_REPRESENTATION_CONTEXT() REPRESENTATION_CONTEXT('2D SPACE',''
  ) );
#661 = ORIENTED_EDGE('',*,*,#605,.T.);
#662 = ORIENTED_EDGE('',*,*,#663,.F.);
#663 = EDGE_CURVE('',#608,#608,#664,.T.);
#664 = SURFACE_CURVE('',#665,(#673),.PCURVE_S1.);
#665 = ( BOUNDED_CURVE() B_SPLINE_CURVE(2,(#666,#667,#668,#669,#670,#671
,#672),.UNSPECIFIED.,.T.,.F.) B_SPLINE_CURVE_WITH_KNOTS((1,2,2,2,2,1),(
-2.094395,0.,2.094395,4.18879,6.283185,8.37758),.UNSPECIFIED.) CURVE() 
GEOMETRIC_REPRESENTATION_ITEM() RATIONAL_B_SPLINE_CURVE((1.,0.5,1.,0.5,
1.,0.5,1.)) REPRESENTATION_ITEM('') );
#666 = CARTESIAN_POINT('',(0.151863973145,0.115788036873,0.138556690089)
  );
#667 = CARTESIAN_POINT('',(0.135530302832,0.115788036873,0.138556690089)
  );
#668 = CARTESIAN_POINT('',(0.143697137988,0.115788036873,0.152703420405)
  );
#669 = CARTESIAN_POINT('',(0.151863973145,0.115788036873,0.166850150721)
  );
#670 = CARTESIAN_POINT('',(0.160030808302,0.115788036873,0.152703420405)
  );
#671 = CARTESIAN_POINT('',(0.168197643458,0.115788036873,0.138556690089)
  );
#672 = CARTESIAN_POINT('',(0.151863973145,0.115788036873,0.138556690089)
  );
#673 = PCURVE('',#615,#674);
#674 = DEFINITIONAL_REPRESENTATION('',(#675),#679);
#675 = LINE('',#676,#677);
#676 = CARTESIAN_POINT('',(0.,-8.3204E-02));
#677 = VECTOR('',#678,1.);
#678 = DIRECTION('',(1.,0.));
#679 = ( GEOMETRIC_REPRESENTATION_CONTEXT(2) 
PARAMETRIC_REPRESENTATION_CONTEXT() REPRESENTATION_CONTEXT('2D SPACE',''
  ) );
#680 = ( GEOMETRIC_REPRESENTATION_CONTEXT(3) 
GLOBAL_UNCERTAINTY_ASSIGNED_CONTEXT((#684)) GLOBAL_UNIT_ASSIGNED_CONTEXT
((#681,#682,#683)) REPRESENTATION_CONTEXT('Context #1',
  '3D Context with UNIT and UNCERTAINTY') );
#681 = ( LENGTH_UNIT() NAMED_UNIT(*) SI_UNIT(.MILLI.,.METRE.) );
#682 = ( NAMED_UNIT(*) PLANE_ANGLE_UNIT() SI_UNIT($,.RADIAN.) );
#683 = ( NAMED_UNIT(*) SI_UNIT($,.STERADIAN.) SOLID_ANGLE_UNIT() );
#684 = UNCERTAINTY_MEASURE_WITH_UNIT(LENGTH_MEASURE(1.E-07),#681,
  'distance_accuracy_value','confusion accuracy');
#685 = CONTEXT_DEPENDENT_SHAPE_REPRESENTATION(#686,#688);
#686 = ( REPRESENTATION_RELATIONSHIP('','',#598,#10) 
REPRESENTATION_RELATIONSHIP_WITH_TRANSFORMATION(#687) 
SHAPE_REPRESENTATION_RELATIONSHIP() );
#687 = ITEM_DEFINED_TRANSFORMATION('','',#11,#39);
#688 = PRODUCT_DEFINITION_SHAPE('Placement','Placement of an item',#689
  );
#689 = NEXT_ASSEMBLY_USAGE_OCCURRENCE('7','','',#5,#593,$);
#690 = PRODUCT_RELATED_PRODUCT_CATEGORY('part',$,(#595));
#691 = SHAPE_DEFINITION_REPRESENTATION(#692,#698);
#692 = PRODUCT_DEFINITION_SHAPE('','',#693);
#693 = PRODUCT_DEFINITION('design','',#694,#697);
#694 = PRODUCT_DEFINITION_FORMATION('','',#695);
#695 = PRODUCT('Open CASCADE STEP translator 7.9 1.8',
  'Open CASCADE STEP translator 7.9 1.8','',(#696));
#696 = PRODUCT_CONTEXT('',#2,'mechanical');
#697 = PRODUCT_DEFINITION_CONTEXT('part definition',#2,'design');
#698 = MANIFOLD_SURFACE_SHAPE_REPRESENTATION('',(#11,#699),#780);
#699 = SHELL_BASED_SURFACE_MODEL('',(#700));
#700 = OPEN_SHELL('',(#701));
#701 = ADVANCED_FACE('',(#702),#715,.T.);
#702 = FACE_BOUND('',#703,.T.);
#703 = EDGE_LOOP('',(#704,#743,#761,#762));
#704 = ORIENTED_EDGE('',*,*,#705,.F.);
#705 = EDGE_CURVE('',#706,#708,#710,.T.);
#706 = VERTEX_POINT('',#707);
#707 = CARTESIAN_POINT('',(0.293852975845,9.372921340585E-02,
    0.138556690089));
#708 = VERTEX_POINT('',#709);
#709 = CARTESIAN_POINT('',(0.293852975845,0.115788036873,0.138556690089)
  );
#710 = SEAM_CURVE('',#711,(#714,#736),.PCURVE_S1.);
#711 = B_SPLINE_CURVE_WITH_KNOTS('',1,(#712,#713),.UNSPECIFIED.,.F.,.F.,
  (2,2),(-0.105263,-8.3204E-02),.PIECEWISE_BEZIER_KNOTS.);
#712 = CARTESIAN_POINT('',(0.293852975845,9.372921340585E-02,
    0.138556690089));
#713 = CARTESIAN_POINT('',(0.293852975845,0.115788036873,0.138556690089)
  );
#714 = PCURVE('',#715,#730);
#715 = ( BOUNDED_SURFACE() B_SPLINE_SURFACE(2,1,(
    (#716,#717)
    ,(#718,#719)
    ,(#720,#721)
    ,(#722,#723)
    ,(#724,#725)
    ,(#726,#727)
,(#728,#729
    )),.UNSPECIFIED.,.T.,.F.,.F.) B_SPLINE_SURFACE_WITH_KNOTS((1,2,2,2,2
    ,1),(2,2),(-2.094395,0.,2.094395,4.18879,6.283185,8.37758),(
-0.105263,-8.3204E-02),.UNSPECIFIED.) GEOMETRIC_REPRESENTATION_ITEM() 
RATIONAL_B_SPLINE_SURFACE((
    (1.,1.)
    ,(0.5,0.5)
    ,(1.,1.)
    ,(0.5,0.5)
    ,(1.,1.)
    ,(0.5,0.5)
,(1.,1.))) REPRESENTATION_ITEM('') SURFACE() );
#716 = CARTESIAN_POINT('',(0.293852975845,9.372921340585E-02,
    0.138556690089));
#717 = CARTESIAN_POINT('',(0.293852975845,0.115788036873,0.138556690089)
  );
#718 = CARTESIAN_POINT('',(0.277519305532,9.372921340585E-02,
    0.138556690089));
#719 = CARTESIAN_POINT('',(0.277519305532,0.115788036873,0.138556690089)
  );
#720 = CARTESIAN_POINT('',(0.285686140688,9.372921340585E-02,
    0.152703420405));
#721 = CARTESIAN_POINT('',(0.285686140688,0.115788036873,0.152703420405)
  );
#722 = CARTESIAN_POINT('',(0.293852975845,9.372921340585E-02,
    0.166850150721));
#723 = CARTESIAN_POINT('',(0.293852975845,0.115788036873,0.166850150721)
  );
#724 = CARTESIAN_POINT('',(0.302019811002,9.372921340585E-02,
    0.152703420405));
#725 = CARTESIAN_POINT('',(0.302019811002,0.115788036873,0.152703420405)
  );
#726 = CARTESIAN_POINT('',(0.310186646158,9.372921340585E-02,
    0.138556690089));
#727 = CARTESIAN_POINT('',(0.310186646158,0.115788036873,0.138556690089)
  );
#728 = CARTESIAN_POINT('',(0.293852975845,9.372921340585E-02,
    0.138556690089));
#729 = CARTESIAN_POINT('',(0.293852975845,0.115788036873,0.138556690089)
  );
#730 = DEFINITIONAL_REPRESENTATION('',(#731),#735);
#731 = LINE('',#732,#733);
#732 = CARTESIAN_POINT('',(0.,0.));
#733 = VECTOR('',#734,1.);
#734 = DIRECTION('',(0.,1.));
#735 = ( GEOMETRIC_REPRESENTATION_CONTEXT(2) 
PARAMETRIC_REPRESENTATION_CONTEXT() REPRESENTATION_CONTEXT('2D SPACE',''
  ) );
#736 = PCURVE('',#715,#737);
#737 = DEFINITIONAL_REPRESENTATION('',(#738),#742);
#738 = LINE('',#739,#740);
#739 = CARTESIAN_POINT('',(6.283185,0.));
#740 = VECTOR('',#741,1.);
#741 = DIRECTION('',(0.,1.));
#742 = ( GEOMETRIC_REPRESENTATION_CONTEXT(2) 
PARAMETRIC_REPRESENTATION_CONTEXT() REPRESENTATION_CONTEXT('2D SPACE',''
  ) );
#743 = ORIENTED_EDGE('',*,*,#744,.T.);
#744 = EDGE_CURVE('',#706,#706,#745,.T.);
#745 = SURFACE_CURVE('',#746,(#754),.PCURVE_S1.);
#746 = ( BOUNDED_CURVE() B_SPLINE_CURVE(2,(#747,#748,#749,#750,#751,#752
,#753),.UNSPECIFIED.,.T.,.F.) B_SPLINE_CURVE_WITH_KNOTS((1,2,2,2,2,1),(
-2.094395,0.,2.094395,4.18879,6.283185,8.37758),.UNSPECIFIED.) CURVE() 
GEOMETRIC_REPRESENTATION_ITEM() RATIONAL_B_SPLINE_CURVE((1.,0.5,1.,0.5,
1.,0.5,1.)) REPRESENTATION_ITEM('') );
#747 = CARTESIAN_POINT('',(0.293852975845,9.372921340585E-02,
    0.138556690089));
#748 = CARTESIAN_POINT('',(0.277519305532,9.372921340585E-02,
    0.138556690089));
#749 = CARTESIAN_POINT('',(0.285686140688,9.372921340585E-02,
    0.152703420405));
#750 = CARTESIAN_POINT('',(0.293852975845,9.372921340585E-02,
    0.166850150721));
#751 = CARTESIAN_POINT('',(0.302019811002,9.372921340585E-02,
    0.152703420405));
#752 = CARTESIAN_POINT('',(0.310186646158,9.372921340585E-02,
    0.138556690089));
#753 = CARTESIAN_POINT('',(0.293852975845,9.372921340585E-02,
    0.138556690089));
#754 = PCURVE('',#715,#755);
#755 = DEFINITIONAL_REPRESENTATION('',(#756),#760);
#756 = LINE('',#757,#758);
#757 = CARTESIAN_POINT('',(0.,-0.105263));
#758 = VECTOR('',#759,1.);
#759 = DIRECTION('',(1.,0.));
#760 = ( GEOMETRIC_REPRESENTATION_CONTEXT(2) 
PARAMETRIC_REPRESENTATION_CONTEXT() REPRESENTATION_CONTEXT('2D SPACE',''
  ) );
#761 = ORIENTED_EDGE('',*,*,#705,.T.);
#762 = ORIENTED_EDGE('',*,*,#763,.F.);
#763 = EDGE_CURVE('',#708,#708,#764,.T.);
#764 = SURFACE_CURVE('',#765,(#773),.PCURVE_S1.);
#765 = ( BOUNDED_CURVE() B_SPLINE_CURVE(2,(#766,#767,#768,#769,#770,#771
,#772),.UNSPECIFIED.,.T.,.F.) B_SPLINE_CURVE_WITH_KNOTS((1,2,2,2,2,1),(
-2.094395,0.,2.094395,4.18879,6.283185,8.37758),.UNSPECIFIED.) CURVE() 
GEOMETRIC_REPRESENTATION_ITEM() RATIONAL_B_SPLINE_CURVE((1.,0.5,1.,0.5,
1.,0.5,1.)) REPRESENTATION_ITEM('') );
#766 = CARTESIAN_POINT('',(0.293852975845,0.115788036873,0.138556690089)
  );
#767 = CARTESIAN_POINT('',(0.277519305532,0.115788036873,0.138556690089)
  );
#768 = CARTESIAN_POINT('',(0.285686140688,0.115788036873,0.152703420405)
  );
#769 = CARTESIAN_POINT('',(0.293852975845,0.115788036873,0.166850150721)
  );
#770 = CARTESIAN_POINT('',(0.302019811002,0.115788036873,0.152703420405)
  );
#771 = CARTESIAN_POINT('',(0.310186646158,0.115788036873,0.138556690089)
  );
#772 = CARTESIAN_POINT('',(0.293852975845,0.115788036873,0.138556690089)
  );
#773 = PCURVE('',#715,#774);
#774 = DEFINITIONAL_REPRESENTATION('',(#775),#779);
#775 = LINE('',#776,#777);
#776 = CARTESIAN_POINT('',(0.,-8.3204E-02));
#777 = VECTOR('',#778,1.);
#778 = DIRECTION('',(1.,0.));
#779 = ( GEOMETRIC_REPRESENTATION_CONTEXT(2) 
PARAMETRIC_REPRESENTATION_CONTEXT() REPRESENTATION_CONTEXT('2D SPACE',''
  ) );
#780 = ( GEOMETRIC_REPRESENTATION_CONTEXT(3) 
GLOBAL_UNCERTAINTY_ASSIGNED_CONTEXT((#784)) GLOBAL_UNIT_ASSIGNED_CONTEXT
((#781,#782,#783)) REPRESENTATION_CONTEXT('Context #1',
  '3D Context with UNIT and UNCERTAINTY') );
#781 = ( LENGTH_UNIT() NAMED_UNIT(*) SI_UNIT(.MILLI.,.METRE.) );
#782 = ( NAMED_UNIT(*) PLANE_ANGLE_UNIT() SI_UNIT($,.RADIAN.) );
#783 = ( NAMED_UNIT(*) SI_UNIT($,.STERADIAN.) SOLID_ANGLE_UNIT() );
#784 = UNCERTAINTY_MEASURE_WITH_UNIT(LENGTH_MEASURE(1.E-07),#781,
  'distance_accuracy_value','confusion accuracy');
#785 = CONTEXT_DEPENDENT_SHAPE_REPRESENTATION(#786,#788);
#786 = ( REPRESENTATION_RELATIONSHIP('','',#698,#10) 
REPRESENTATION_RELATIONSHIP_WITH_TRANSFORMATION(#787) 
SHAPE_REPRESENTATION_RELATIONSHIP() );
#787 = ITEM_DEFINED_TRANSFORMATION('','',#11,#43);
#788 = PRODUCT_DEFINITION_SHAPE('Placement','Placement of an item',#789
  );
#789 = NEXT_ASSEMBLY_USAGE_OCCURRENCE('8','','',#5,#693,$);
#790 = PRODUCT_RELATED_PRODUCT_CATEGORY('part',$,(#695));
#791 = SHAPE_DEFINITION_REPRESENTATION(#792,#798);
#792 = PRODUCT_DEFINITION_SHAPE('','',#793);
#793 = PRODUCT_DEFINITION('design','',#794,#797);
#794 = PRODUCT_DEFINITION_FORMATION('','',#795);
#795 = PRODUCT('Open CASCADE STEP translator 7.9 1.9',
  'Open CASCADE STEP translator 7.9 1.9','',(#796));
#796 = PRODUCT_CONTEXT('',#2,'mechanical');
#797 = PRODUCT_DEFINITION_CONTEXT('part definition',#2,'design');
#798 = MANIFOLD_SURFACE_SHAPE_REPRESENTATION('',(#11,#799),#880);
#799 = SHELL_BASED_SURFACE_MODEL('',(#800));
#800 = OPEN_SHELL('',(#801));
#801 = ADVANCED_FACE('',(#802),#815,.T.);
#802 = FACE_BOUND('',#803,.T.);
#803 = EDGE_LOOP('',(#804,#843,#861,#862));
#804 = ORIENTED_EDGE('',*,*,#805,.F.);
#805 = EDGE_CURVE('',#806,#808,#810,.T.);
#806 = VERTEX_POINT('',#807);
#807 = CARTESIAN_POINT('',(0.262868119495,9.372921340585E-02,
    0.138556690089));
#808 = VERTEX_POINT('',#809);
#809 = CARTESIAN_POINT('',(0.262868119495,0.115788036873,0.138556690089)
  );
#810 = SEAM_CURVE('',#811,(#814,#836),.PCURVE_S1.);
#811 = B_SPLINE_CURVE_WITH_KNOTS('',1,(#812,#813),.UNSPECIFIED.,.F.,.F.,
  (2,2),(-0.105263,-8.3204E-02),.PIECEWISE_BEZIER_KNOTS.);
#812 = CARTESIAN_POINT('',(0.262868119495,9.372921340585E-02,
    0.138556690089));
#813 = CARTESIAN_POINT('',(0.262868119495,0.115788036873,0.138556690089)
  );
#814 = PCURVE('',#815,#830);
#815 = ( BOUNDED_SURFACE() B_SPLINE_SURFACE(2,1,(
    (#816,#817)
    ,(#818,#819)
    ,(#820,#821)
    ,(#822,#823)
    ,(#824,#825)
    ,(#826,#827)
,(#828,#829
    )),.UNSPECIFIED.,.T.,.F.,.F.) B_SPLINE_SURFACE_WITH_KNOTS((1,2,2,2,2
    ,1),(2,2),(-2.094395,0.,2.094395,4.18879,6.283185,8.37758),(
-0.105263,-8.3204E-02),.UNSPECIFIED.) GEOMETRIC_REPRESENTATION_ITEM() 
RATIONAL_B_SPLINE_SURFACE((
    (1.,1.)
    ,(0.5,0.5)
    ,(1.,1.)
    ,(0.5,0.5)
    ,(1.,1.)
    ,(0.5,0.5)
,(1.,1.))) REPRESENTATION_ITEM('') SURFACE() );
#816 = CARTESIAN_POINT('',(0.262868119495,9.372921340585E-02,
    0.138556690089));
#817 = CARTESIAN_POINT('',(0.262868119495,0.115788036873,0.138556690089)
  );
#818 = CARTESIAN_POINT('',(0.246534449182,9.372921340585E-02,
    0.138556690089));
#819 = CARTESIAN_POINT('',(0.246534449182,0.115788036873,0.138556690089)
  );
#820 = CARTESIAN_POINT('',(0.254701284338,9.372921340585E-02,
    0.152703420405));
#821 = CARTESIAN_POINT('',(0.254701284338,0.115788036873,0.152703420405)
  );
#822 = CARTESIAN_POINT('',(0.262868119495,9.372921340585E-02,
    0.166850150721));
#823 = CARTESIAN_POINT('',(0.262868119495,0.115788036873,0.166850150721)
  );
#824 = CARTESIAN_POINT('',(0.271034954652,9.372921340585E-02,
    0.152703420405));
#825 = CARTESIAN_POINT('',(0.271034954652,0.115788036873,0.152703420405)
  );
#826 = CARTESIAN_POINT('',(0.279201789808,9.372921340585E-02,
    0.138556690089));
#827 = CARTESIAN_POINT('',(0.279201789808,0.115788036873,0.138556690089)
  );
#828 = CARTESIAN_POINT('',(0.262868119495,9.372921340585E-02,
    0.138556690089));
#829 = CARTESIAN_POINT('',(0.262868119495,0.115788036873,0.138556690089)
  );
#830 = DEFINITIONAL_REPRESENTATION('',(#831),#835);
#831 = LINE('',#832,#833);
#832 = CARTESIAN_POINT('',(0.,0.));
#833 = VECTOR('',#834,1.);
#834 = DIRECTION('',(0.,1.));
#835 = ( GEOMETRIC_REPRESENTATION_CONTEXT(2) 
PARAMETRIC_REPRESENTATION_CONTEXT() REPRESENTATION_CONTEXT('2D SPACE',''
  ) );
#836 = PCURVE('',#815,#837);
#837 = DEFINITIONAL_REPRESENTATION('',(#838),#842);
#838 = LINE('',#839,#840);
#839 = CARTESIAN_POINT('',(6.283185,0.));
#840 = VECTOR('',#841,1.);
#841 = DIRECTION('',(0.,1.));
#842 = ( GEOMETRIC_REPRESENTATION_CONTEXT(2) 
PARAMETRIC_REPRESENTATION_CONTEXT() REPRESENTATION_CONTEXT('2D SPACE',''
  ) );
#843 = ORIENTED_EDGE('',*,*,#844,.T.);
#844 = EDGE_CURVE('',#806,#806,#845,.T.);
#845 = SURFACE_CURVE('',#846,(#854),.PCURVE_S1.);
#846 = ( BOUNDED_CURVE() B_SPLINE_CURVE(2,(#847,#848,#849,#850,#851,#852
,#853),.UNSPECIFIED.,.T.,.F.) B_SPLINE_CURVE_WITH_KNOTS((1,2,2,2,2,1),(
-2.094395,0.,2.094395,4.18879,6.283185,8.37758),.UNSPECIFIED.) CURVE() 
GEOMETRIC_REPRESENTATION_ITEM() RATIONAL_B_SPLINE_CURVE((1.,0.5,1.,0.5,
1.,0.5,1.)) REPRESENTATION_ITEM('') );
#847 = CARTESIAN_POINT('',(0.262868119495,9.372921340585E-02,
    0.138556690089));
#848 = CARTESIAN_POINT('',(0.246534449182,9.372921340585E-02,
    0.138556690089));
#849 = CARTESIAN_POINT('',(0.254701284338,9.372921340585E-02,
    0.152703420405));
#850 = CARTESIAN_POINT('',(0.262868119495,9.372921340585E-02,
    0.166850150721));
#851 = CARTESIAN_POINT('',(0.271034954652,9.372921340585E-02,
    0.152703420405));
#852 = CARTESIAN_POINT('',(0.279201789808,9.372921340585E-02,
    0.138556690089));
#853 = CARTESIAN_POINT('',(0.262868119495,9.372921340585E-02,
    0.138556690089));
#854 = PCURVE('',#815,#855);
#855 = DEFINITIONAL_REPRESENTATION('',(#856),#860);
#856 = LINE('',#857,#858);
#857 = CARTESIAN_POINT('',(0.,-0.105263));
#858 = VECTOR('',#859,1.);
#859 = DIRECTION('',(1.,0.));
#860 = ( GEOMETRIC_REPRESENTATION_CONTEXT(2) 
PARAMETRIC_REPRESENTATION_CONTEXT() REPRESENTATION_CONTEXT('2D SPACE',''
  ) );
#861 = ORIENTED_EDGE('',*,*,#805,.T.);
#862 = ORIENTED_EDGE('',*,*,#863,.F.);
#863 = EDGE_CURVE('',#808,#808,#864,.T.);
#864 = SURFACE_CURVE('',#865,(#873),.PCURVE_S1.);
#865 = ( BOUNDED_CURVE() B_SPLINE_CURVE(2,(#866,#867,#868,#869,#870,#871
,#872),.UNSPECIFIED.,.T.,.F.) B_SPLINE_CURVE_WITH_KNOTS((1,2,2,2,2,1),(
-2.094395,0.,2.094395,4.18879,6.283185,8.37758),.UNSPECIFIED.) CURVE() 
GEOMETRIC_REPRESENTATION_ITEM() RATIONAL_B_SPLINE_CURVE((1.,0.5,1.,0.5,
1.,0.5,1.)) REPRESENTATION_ITEM('') );
#866 = CARTESIAN_POINT('',(0.262868119495,0.115788036873,0.138556690089)
  );
#867 = CARTESIAN_POINT('',(0.246534449182,0.115788036873,0.138556690089)
  );
#868 = CARTESIAN_POINT('',(0.254701284338,0.115788036873,0.152703420405)
  );
#869 = CARTESIAN_POINT('',(0.262868119495,0.115788036873,0.166850150721)
  );
#870 = CARTESIAN_POINT('',(0.271034954652,0.115788036873,0.152703420405)
  );
#871 = CARTESIAN_POINT('',(0.279201789808,0.115788036873,0.138556690089)
  );
#872 = CARTESIAN_POINT('',(0.262868119495,0.115788036873,0.138556690089)
  );
#873 = PCURVE('',#815,#874);
#874 = DEFINITIONAL_REPRESENTATION('',(#875),#879);
#875 = LINE('',#876,#877);
#876 = CARTESIAN_POINT('',(0.,-8.3204E-02));
#877 = VECTOR('',#878,1.);
#878 = DIRECTION('',(1.,0.));
#879 = ( GEOMETRIC_REPRESENTATION_CONTEXT(2) 
PARAMETRIC_REPRESENTATION_CONTEXT() REPRESENTATION_CONTEXT('2D SPACE',''
  ) );
#880 = ( GEOMETRIC_REPRESENTATION_CONTEXT(3) 
GLOBAL_UNCERTAINTY_ASSIGNED_CONTEXT((#884)) GLOBAL_UNIT_ASSIGNED_CONTEXT
((#881,#882,#883)) REPRESENTATION_CONTEXT('Context #1',
  '3D Context with UNIT and UNCERTAINTY') );
#881 = ( LENGTH_UNIT() NAMED_UNIT(*) SI_UNIT(.MILLI.,.METRE.) );
#882 = ( NAMED_UNIT(*) PLANE_ANGLE_UNIT() SI_UNIT($,.RADIAN.) );
#883 = ( NAMED_UNIT(*) SI_UNIT($,.STERADIAN.) SOLID_ANGLE_UNIT() );
#884 = UNCERTAINTY_MEASURE_WITH_UNIT(LENGTH_MEASURE(1.E-07),#881,
  'distance_accuracy_value','confusion accuracy');
#885 = CONTEXT_DEPENDENT_SHAPE_REPRESENTATION(#886,#888);
#886 = ( REPRESENTATION_RELATIONSHIP('','',#798,#10) 
REPRESENTATION_RELATIONSHIP_WITH_TRANSFORMATION(#887) 
SHAPE_REPRESENTATION_RELATIONSHIP() );
#887 = ITEM_DEFINED_TRANSFORMATION('','',#11,#47);
#888 = PRODUCT_DEFINITION_SHAPE('Placement','Placement of an item',#889
  );
#889 = NEXT_ASSEMBLY_USAGE_OCCURRENCE('9','','',#5,#793,$);
#890 = PRODUCT_RELATED_PRODUCT_CATEGORY('part',$,(#795));
ENDSEC;
END-ISO-10303-21;
