ISO-10303-21;
HEADER;
FILE_DESCRIPTION(('Open CASCADE Model'),'2;1');
FILE_NAME('Open CASCADE Shape Model','2026-07-02T21:07:20',('Author'),(
    'Open CASCADE'),'Open CASCADE STEP processor 7.9','Open CASCADE 7.9'
  ,'Unknown');
FILE_SCHEMA(('AUTOMOTIVE_DESIGN { 1 0 10303 214 1 1 1 1 }'));
ENDSEC;
DATA;
#1 = APPLICATION_PROTOCOL_DEFINITION('international standard',
  'automotive_design',2000,#2);
#2 = APPLICATION_CONTEXT(
  'core data for automotive mechanical design processes');
#3 = SHAPE_DEFINITION_REPRESENTATION(#4,#10);
#4 = PRODUCT_DEFINITION_SHAPE('','',#5);
#5 = PRODUCT_DEFINITION('design','',#6,#9);
#6 = PRODUCT_DEFINITION_FORMATION('','',#7);
#7 = PRODUCT('Open CASCADE STEP translator 7.9 1',
  'Open CASCADE STEP translator 7.9 1','',(#8));
#8 = PRODUCT_CONTEXT('',#2,'mechanical');
#9 = PRODUCT_DEFINITION_CONTEXT('part definition',#2,'design');
#10 = SHAPE_REPRESENTATION('',(#11,#15,#19,#23,#27,#31,#35),#39);
#11 = AXIS2_PLACEMENT_3D('',#12,#13,#14);
#12 = CARTESIAN_POINT('',(0.,0.,0.));
#13 = DIRECTION('',(0.,0.,1.));
#14 = DIRECTION('',(1.,0.,-0.));
#15 = AXIS2_PLACEMENT_3D('',#16,#17,#18);
#16 = CARTESIAN_POINT('',(0.,0.,0.));
#17 = DIRECTION('',(0.,0.,1.));
#18 = DIRECTION('',(1.,0.,-0.));
#19 = AXIS2_PLACEMENT_3D('',#20,#21,#22);
#20 = CARTESIAN_POINT('',(0.,0.,0.));
#21 = DIRECTION('',(0.,0.,1.));
#22 = DIRECTION('',(1.,0.,-0.));
#23 = AXIS2_PLACEMENT_3D('',#24,#25,#26);
#24 = CARTESIAN_POINT('',(0.,0.,0.));
#25 = DIRECTION('',(0.,0.,1.));
#26 = DIRECTION('',(1.,0.,-0.));
#27 = AXIS2_PLACEMENT_3D('',#28,#29,#30);
#28 = CARTESIAN_POINT('',(0.,0.,0.));
#29 = DIRECTION('',(0.,0.,1.));
#30 = DIRECTION('',(1.,0.,-0.));
#31 = AXIS2_PLACEMENT_3D('',#32,#33,#34);
#32 = CARTESIAN_POINT('',(0.,0.,0.));
#33 = DIRECTION('',(0.,0.,1.));
#34 = DIRECTION('',(1.,0.,-0.));
#35 = AXIS2_PLACEMENT_3D('',#36,#37,#38);
#36 = CARTESIAN_POINT('',(0.,0.,0.));
#37 = DIRECTION('',(0.,0.,1.));
#38 = DIRECTION('',(1.,0.,-0.));
#39 = ( GEOMETRIC_REPRESENTATION_CONTEXT(3) 
GLOBAL_UNCERTAINTY_ASSIGNED_CONTEXT((#43)) GLOBAL_UNIT_ASSIGNED_CONTEXT(
(#40,#41,#42)) REPRESENTATION_CONTEXT('Context #1',
  '3D Context with UNIT and UNCERTAINTY') );
#40 = ( LENGTH_UNIT() NAMED_UNIT(*) SI_UNIT(.MILLI.,.METRE.) );
#41 = ( NAMED_UNIT(*) PLANE_ANGLE_UNIT() SI_UNIT($,.RADIAN.) );
#42 = ( NAMED_UNIT(*) SI_UNIT($,.STERADIAN.) SOLID_ANGLE_UNIT() );
#43 = UNCERTAINTY_MEASURE_WITH_UNIT(LENGTH_MEASURE(1.E-07),#40,
  'distance_accuracy_value','confusion accuracy');
#44 = PRODUCT_RELATED_PRODUCT_CATEGORY('part',$,(#7));
#45 = SHAPE_DEFINITION_REPRESENTATION(#46,#52);
#46 = PRODUCT_DEFINITION_SHAPE('','',#47);
#47 = PRODUCT_DEFINITION('design','',#48,#51);
#48 = PRODUCT_DEFINITION_FORMATION('','',#49);
#49 = PRODUCT('Open CASCADE STEP translator 7.9 1.1',
  'Open CASCADE STEP translator 7.9 1.1','',(#50));
#50 = PRODUCT_CONTEXT('',#2,'mechanical');
#51 = PRODUCT_DEFINITION_CONTEXT('part definition',#2,'design');
#52 = MANIFOLD_SURFACE_SHAPE_REPRESENTATION('',(#11,#53),#123);
#53 = SHELL_BASED_SURFACE_MODEL('',(#54));
#54 = OPEN_SHELL('',(#55));
#55 = ADVANCED_FACE('',(#56),#69,.T.);
#56 = FACE_BOUND('',#57,.T.);
#57 = EDGE_LOOP('',(#58,#80,#95,#110));
#58 = ORIENTED_EDGE('',*,*,#59,.F.);
#59 = EDGE_CURVE('',#60,#62,#64,.T.);
#60 = VERTEX_POINT('',#61);
#61 = CARTESIAN_POINT('',(0.295735969801,6.619446347631E-02,
    0.18091869182));
#62 = VERTEX_POINT('',#63);
#63 = CARTESIAN_POINT('',(0.295735969801,6.619446347631E-02,
    0.181044629797));
#64 = SURFACE_CURVE('',#65,(#68),.PCURVE_S1.);
#65 = B_SPLINE_CURVE_WITH_KNOTS('',1,(#66,#67),.UNSPECIFIED.,.F.,.F.,(2,
    2),(0.,1.26E-04),.PIECEWISE_BEZIER_KNOTS.);
#66 = CARTESIAN_POINT('',(0.295735969801,6.619446347631E-02,
    0.18091869182));
#67 = CARTESIAN_POINT('',(0.295735969801,6.619446347631E-02,
    0.181044629797));
#68 = PCURVE('',#69,#74);
#69 = B_SPLINE_SURFACE_WITH_KNOTS('',1,1,(
    (#70,#71)
    ,(#72,#73
    )),.UNSPECIFIED.,.F.,.F.,.F.,(2,2),(2,2),(-8.35E-04,0.),(0.,1.26E-04
    ),.PIECEWISE_BEZIER_KNOTS.);
#70 = CARTESIAN_POINT('',(0.295735969801,6.619446347631E-02,
    0.18091869182));
#71 = CARTESIAN_POINT('',(0.295735969801,6.619446347631E-02,
    0.181044629797));
#72 = CARTESIAN_POINT('',(0.295735969801,6.702899223999E-02,
    0.18091869182));
#73 = CARTESIAN_POINT('',(0.295735969801,6.702899223999E-02,
    0.181044629797));
#74 = DEFINITIONAL_REPRESENTATION('',(#75),#79);
#75 = LINE('',#76,#77);
#76 = CARTESIAN_POINT('',(-8.35E-04,0.));
#77 = VECTOR('',#78,1.);
#78 = DIRECTION('',(0.,1.));
#79 = ( GEOMETRIC_REPRESENTATION_CONTEXT(2) 
PARAMETRIC_REPRESENTATION_CONTEXT() REPRESENTATION_CONTEXT('2D SPACE',''
  ) );
#80 = ORIENTED_EDGE('',*,*,#81,.T.);
#81 = EDGE_CURVE('',#60,#82,#84,.T.);
#82 = VERTEX_POINT('',#83);
#83 = CARTESIAN_POINT('',(0.295735969801,6.702899223999E-02,
    0.18091869182));
#84 = SURFACE_CURVE('',#85,(#88),.PCURVE_S1.);
#85 = B_SPLINE_CURVE_WITH_KNOTS('',1,(#86,#87),.UNSPECIFIED.,.F.,.F.,(2,
    2),(-8.35E-04,0.),.PIECEWISE_BEZIER_KNOTS.);
#86 = CARTESIAN_POINT('',(0.295735969801,6.619446347631E-02,
    0.18091869182));
#87 = CARTESIAN_POINT('',(0.295735969801,6.702899223999E-02,
    0.18091869182));
#88 = PCURVE('',#69,#89);
#89 = DEFINITIONAL_REPRESENTATION('',(#90),#94);
#90 = LINE('',#91,#92);
#91 = CARTESIAN_POINT('',(0.,0.));
#92 = VECTOR('',#93,1.);
#93 = DIRECTION('',(1.,0.));
#94 = ( GEOMETRIC_REPRESENTATION_CONTEXT(2) 
PARAMETRIC_REPRESENTATION_CONTEXT() REPRESENTATION_CONTEXT('2D SPACE',''
  ) );
#95 = ORIENTED_EDGE('',*,*,#96,.T.);
#96 = EDGE_CURVE('',#82,#97,#99,.T.);
#97 = VERTEX_POINT('',#98);
#98 = CARTESIAN_POINT('',(0.295735969801,6.702899223999E-02,
    0.181044629797));
#99 = SURFACE_CURVE('',#100,(#103),.PCURVE_S1.);
#100 = B_SPLINE_CURVE_WITH_KNOTS('',1,(#101,#102),.UNSPECIFIED.,.F.,.F.,
  (2,2),(0.,1.26E-04),.PIECEWISE_BEZIER_KNOTS.);
#101 = CARTESIAN_POINT('',(0.295735969801,6.702899223999E-02,
    0.18091869182));
#102 = CARTESIAN_POINT('',(0.295735969801,6.702899223999E-02,
    0.181044629797));
#103 = PCURVE('',#69,#104);
#104 = DEFINITIONAL_REPRESENTATION('',(#105),#109);
#105 = LINE('',#106,#107);
#106 = CARTESIAN_POINT('',(0.,0.));
#107 = VECTOR('',#108,1.);
#108 = DIRECTION('',(0.,1.));
#109 = ( GEOMETRIC_REPRESENTATION_CONTEXT(2) 
PARAMETRIC_REPRESENTATION_CONTEXT() REPRESENTATION_CONTEXT('2D SPACE',''
  ) );
#110 = ORIENTED_EDGE('',*,*,#111,.F.);
#111 = EDGE_CURVE('',#62,#97,#112,.T.);
#112 = SURFACE_CURVE('',#113,(#116),.PCURVE_S1.);
#113 = B_SPLINE_CURVE_WITH_KNOTS('',1,(#114,#115),.UNSPECIFIED.,.F.,.F.,
  (2,2),(-8.35E-04,0.),.PIECEWISE_BEZIER_KNOTS.);
#114 = CARTESIAN_POINT('',(0.295735969801,6.619446347631E-02,
    0.181044629797));
#115 = CARTESIAN_POINT('',(0.295735969801,6.702899223999E-02,
    0.181044629797));
#116 = PCURVE('',#69,#117);
#117 = DEFINITIONAL_REPRESENTATION('',(#118),#122);
#118 = LINE('',#119,#120);
#119 = CARTESIAN_POINT('',(0.,1.26E-04));
#120 = VECTOR('',#121,1.);
#121 = DIRECTION('',(1.,0.));
#122 = ( GEOMETRIC_REPRESENTATION_CONTEXT(2) 
PARAMETRIC_REPRESENTATION_CONTEXT() REPRESENTATION_CONTEXT('2D SPACE',''
  ) );
#123 = ( GEOMETRIC_REPRESENTATION_CONTEXT(3) 
GLOBAL_UNCERTAINTY_ASSIGNED_CONTEXT((#127)) GLOBAL_UNIT_ASSIGNED_CONTEXT
((#124,#125,#126)) REPRESENTATION_CONTEXT('Context #1',
  '3D Context with UNIT and UNCERTAINTY') );
#124 = ( LENGTH_UNIT() NAMED_UNIT(*) SI_UNIT(.MILLI.,.METRE.) );
#125 = ( NAMED_UNIT(*) PLANE_ANGLE_UNIT() SI_UNIT($,.RADIAN.) );
#126 = ( NAMED_UNIT(*) SI_UNIT($,.STERADIAN.) SOLID_ANGLE_UNIT() );
#127 = UNCERTAINTY_MEASURE_WITH_UNIT(LENGTH_MEASURE(1.E-07),#124,
  'distance_accuracy_value','confusion accuracy');
#128 = CONTEXT_DEPENDENT_SHAPE_REPRESENTATION(#129,#131);
#129 = ( REPRESENTATION_RELATIONSHIP('','',#52,#10) 
REPRESENTATION_RELATIONSHIP_WITH_TRANSFORMATION(#130) 
SHAPE_REPRESENTATION_RELATIONSHIP() );
#130 = ITEM_DEFINED_TRANSFORMATION('','',#11,#15);
#131 = PRODUCT_DEFINITION_SHAPE('Placement','Placement of an item',#132
  );
#132 = NEXT_ASSEMBLY_USAGE_OCCURRENCE('1','','',#5,#47,$);
#133 = PRODUCT_RELATED_PRODUCT_CATEGORY('part',$,(#49));
#134 = SHAPE_DEFINITION_REPRESENTATION(#135,#141);
#135 = PRODUCT_DEFINITION_SHAPE('','',#136);
#136 = PRODUCT_DEFINITION('design','',#137,#140);
#137 = PRODUCT_DEFINITION_FORMATION('','',#138);
#138 = PRODUCT('Open CASCADE STEP translator 7.9 1.2',
  'Open CASCADE STEP translator 7.9 1.2','',(#139));
#139 = PRODUCT_CONTEXT('',#2,'mechanical');
#140 = PRODUCT_DEFINITION_CONTEXT('part definition',#2,'design');
#141 = MANIFOLD_SURFACE_SHAPE_REPRESENTATION('',(#11,#142),#212);
#142 = SHELL_BASED_SURFACE_MODEL('',(#143));
#143 = OPEN_SHELL('',(#144));
#144 = ADVANCED_FACE('',(#145),#158,.T.);
#145 = FACE_BOUND('',#146,.T.);
#146 = EDGE_LOOP('',(#147,#169,#184,#199));
#147 = ORIENTED_EDGE('',*,*,#148,.F.);
#148 = EDGE_CURVE('',#149,#151,#153,.T.);
#149 = VERTEX_POINT('',#150);
#150 = CARTESIAN_POINT('',(0.295735969801,6.702899224001E-02,
    0.181044629797));
#151 = VERTEX_POINT('',#152);
#152 = CARTESIAN_POINT('',(0.295423476158,6.702899224001E-02,
    0.181044629797));
#153 = SURFACE_CURVE('',#154,(#157),.PCURVE_S1.);
#154 = B_SPLINE_CURVE_WITH_KNOTS('',1,(#155,#156),.UNSPECIFIED.,.F.,.F.,
  (2,2),(-3.12E-04,0.),.PIECEWISE_BEZIER_KNOTS.);
#155 = CARTESIAN_POINT('',(0.295735969801,6.702899224001E-02,
    0.181044629797));
#156 = CARTESIAN_POINT('',(0.295423476158,6.702899224001E-02,
    0.181044629797));
#157 = PCURVE('',#158,#163);
#158 = B_SPLINE_SURFACE_WITH_KNOTS('',1,1,(
    (#159,#160)
    ,(#161,#162
    )),.UNSPECIFIED.,.F.,.F.,.F.,(2,2),(2,2),(0.,8.35E-04),(-3.12E-04,0.
    ),.PIECEWISE_BEZIER_KNOTS.);
#159 = CARTESIAN_POINT('',(0.295735969801,6.702899224001E-02,
    0.181044629797));
#160 = CARTESIAN_POINT('',(0.295423476158,6.702899224001E-02,
    0.181044629797));
#161 = CARTESIAN_POINT('',(0.295735969801,6.619446347633E-02,
    0.181044629797));
#162 = CARTESIAN_POINT('',(0.295423476158,6.619446347633E-02,
    0.181044629797));
#163 = DEFINITIONAL_REPRESENTATION('',(#164),#168);
#164 = LINE('',#165,#166);
#165 = CARTESIAN_POINT('',(0.,0.));
#166 = VECTOR('',#167,1.);
#167 = DIRECTION('',(0.,1.));
#168 = ( GEOMETRIC_REPRESENTATION_CONTEXT(2) 
PARAMETRIC_REPRESENTATION_CONTEXT() REPRESENTATION_CONTEXT('2D SPACE',''
  ) );
#169 = ORIENTED_EDGE('',*,*,#170,.T.);
#170 = EDGE_CURVE('',#149,#171,#173,.T.);
#171 = VERTEX_POINT('',#172);
#172 = CARTESIAN_POINT('',(0.295735969801,6.619446347633E-02,
    0.181044629797));
#173 = SURFACE_CURVE('',#174,(#177),.PCURVE_S1.);
#174 = B_SPLINE_CURVE_WITH_KNOTS('',1,(#175,#176),.UNSPECIFIED.,.F.,.F.,
  (2,2),(0.,8.35E-04),.PIECEWISE_BEZIER_KNOTS.);
#175 = CARTESIAN_POINT('',(0.295735969801,6.702899224001E-02,
    0.181044629797));
#176 = CARTESIAN_POINT('',(0.295735969801,6.619446347633E-02,
    0.181044629797));
#177 = PCURVE('',#158,#178);
#178 = DEFINITIONAL_REPRESENTATION('',(#179),#183);
#179 = LINE('',#180,#181);
#180 = CARTESIAN_POINT('',(0.,-3.12E-04));
#181 = VECTOR('',#182,1.);
#182 = DIRECTION('',(1.,0.));
#183 = ( GEOMETRIC_REPRESENTATION_CONTEXT(2) 
PARAMETRIC_REPRESENTATION_CONTEXT() REPRESENTATION_CONTEXT('2D SPACE',''
  ) );
#184 = ORIENTED_EDGE('',*,*,#185,.T.);
#185 = EDGE_CURVE('',#171,#186,#188,.T.);
#186 = VERTEX_POINT('',#187);
#187 = CARTESIAN_POINT('',(0.295423476158,6.619446347633E-02,
    0.181044629797));
#188 = SURFACE_CURVE('',#189,(#192),.PCURVE_S1.);
#189 = B_SPLINE_CURVE_WITH_KNOTS('',1,(#190,#191),.UNSPECIFIED.,.F.,.F.,
  (2,2),(-3.12E-04,0.),.PIECEWISE_BEZIER_KNOTS.);
#190 = CARTESIAN_POINT('',(0.295735969801,6.619446347633E-02,
    0.181044629797));
#191 = CARTESIAN_POINT('',(0.295423476158,6.619446347633E-02,
    0.181044629797));
#192 = PCURVE('',#158,#193);
#193 = DEFINITIONAL_REPRESENTATION('',(#194),#198);
#194 = LINE('',#195,#196);
#195 = CARTESIAN_POINT('',(8.35E-04,0.));
#196 = VECTOR('',#197,1.);
#197 = DIRECTION('',(0.,1.));
#198 = ( GEOMETRIC_REPRESENTATION_CONTEXT(2) 
PARAMETRIC_REPRESENTATION_CONTEXT() REPRESENTATION_CONTEXT('2D SPACE',''
  ) );
#199 = ORIENTED_EDGE('',*,*,#200,.F.);
#200 = EDGE_CURVE('',#151,#186,#201,.T.);
#201 = SURFACE_CURVE('',#202,(#205),.PCURVE_S1.);
#202 = B_SPLINE_CURVE_WITH_KNOTS('',1,(#203,#204),.UNSPECIFIED.,.F.,.F.,
  (2,2),(0.,8.35E-04),.PIECEWISE_BEZIER_KNOTS.);
#203 = CARTESIAN_POINT('',(0.295423476158,6.702899224001E-02,
    0.181044629797));
#204 = CARTESIAN_POINT('',(0.295423476158,6.619446347633E-02,
    0.181044629797));
#205 = PCURVE('',#158,#206);
#206 = DEFINITIONAL_REPRESENTATION('',(#207),#211);
#207 = LINE('',#208,#209);
#208 = CARTESIAN_POINT('',(0.,0.));
#209 = VECTOR('',#210,1.);
#210 = DIRECTION('',(1.,0.));
#211 = ( GEOMETRIC_REPRESENTATION_CONTEXT(2) 
PARAMETRIC_REPRESENTATION_CONTEXT() REPRESENTATION_CONTEXT('2D SPACE',''
  ) );
#212 = ( GEOMETRIC_REPRESENTATION_CONTEXT(3) 
GLOBAL_UNCERTAINTY_ASSIGNED_CONTEXT((#216)) GLOBAL_UNIT_ASSIGNED_CONTEXT
((#213,#214,#215)) REPRESENTATION_CONTEXT('Context #1',
  '3D Context with UNIT and UNCERTAINTY') );
#213 = ( LENGTH_UNIT() NAMED_UNIT(*) SI_UNIT(.MILLI.,.METRE.) );
#214 = ( NAMED_UNIT(*) PLANE_ANGLE_UNIT() SI_UNIT($,.RADIAN.) );
#215 = ( NAMED_UNIT(*) SI_UNIT($,.STERADIAN.) SOLID_ANGLE_UNIT() );
#216 = UNCERTAINTY_MEASURE_WITH_UNIT(LENGTH_MEASURE(1.E-07),#213,
  'distance_accuracy_value','confusion accuracy');
#217 = CONTEXT_DEPENDENT_SHAPE_REPRESENTATION(#218,#220);
#218 = ( REPRESENTATION_RELATIONSHIP('','',#141,#10) 
REPRESENTATION_RELATIONSHIP_WITH_TRANSFORMATION(#219) 
SHAPE_REPRESENTATION_RELATIONSHIP() );
#219 = ITEM_DEFINED_TRANSFORMATION('','',#11,#19);
#220 = PRODUCT_DEFINITION_SHAPE('Placement','Placement of an item',#221
  );
#221 = NEXT_ASSEMBLY_USAGE_OCCURRENCE('2','','',#5,#136,$);
#222 = PRODUCT_RELATED_PRODUCT_CATEGORY('part',$,(#138));
#223 = SHAPE_DEFINITION_REPRESENTATION(#224,#230);
#224 = PRODUCT_DEFINITION_SHAPE('','',#225);
#225 = PRODUCT_DEFINITION('design','',#226,#229);
#226 = PRODUCT_DEFINITION_FORMATION('','',#227);
#227 = PRODUCT('Open CASCADE STEP translator 7.9 1.3',
  'Open CASCADE STEP translator 7.9 1.3','',(#228));
#228 = PRODUCT_CONTEXT('',#2,'mechanical');
#229 = PRODUCT_DEFINITION_CONTEXT('part definition',#2,'design');
#230 = MANIFOLD_SURFACE_SHAPE_REPRESENTATION('',(#11,#231),#301);
#231 = SHELL_BASED_SURFACE_MODEL('',(#232));
#232 = OPEN_SHELL('',(#233));
#233 = ADVANCED_FACE('',(#234),#247,.T.);
#234 = FACE_BOUND('',#235,.T.);
#235 = EDGE_LOOP('',(#236,#258,#273,#288));
#236 = ORIENTED_EDGE('',*,*,#237,.F.);
#237 = EDGE_CURVE('',#238,#240,#242,.T.);
#238 = VERTEX_POINT('',#239);
#239 = CARTESIAN_POINT('',(0.295423476158,6.619446347631E-02,
    0.181044629797));
#240 = VERTEX_POINT('',#241);
#241 = CARTESIAN_POINT('',(0.295423476158,6.619446347631E-02,
    0.181170567774));
#242 = SURFACE_CURVE('',#243,(#246),.PCURVE_S1.);
#243 = B_SPLINE_CURVE_WITH_KNOTS('',1,(#244,#245),.UNSPECIFIED.,.F.,.F.,
  (2,2),(0.,1.26E-04),.PIECEWISE_BEZIER_KNOTS.);
#244 = CARTESIAN_POINT('',(0.295423476158,6.619446347631E-02,
    0.181044629797));
#245 = CARTESIAN_POINT('',(0.295423476158,6.619446347631E-02,
    0.181170567774));
#246 = PCURVE('',#247,#252);
#247 = B_SPLINE_SURFACE_WITH_KNOTS('',1,1,(
    (#248,#249)
    ,(#250,#251
    )),.UNSPECIFIED.,.F.,.F.,.F.,(2,2),(2,2),(-8.35E-04,0.),(0.,1.26E-04
    ),.PIECEWISE_BEZIER_KNOTS.);
#248 = CARTESIAN_POINT('',(0.295423476158,6.619446347631E-02,
    0.181044629797));
#249 = CARTESIAN_POINT('',(0.295423476158,6.619446347631E-02,
    0.181170567774));
#250 = CARTESIAN_POINT('',(0.295423476158,6.702899223999E-02,
    0.181044629797));
#251 = CARTESIAN_POINT('',(0.295423476158,6.702899223999E-02,
    0.181170567774));
#252 = DEFINITIONAL_REPRESENTATION('',(#253),#257);
#253 = LINE('',#254,#255);
#254 = CARTESIAN_POINT('',(-8.35E-04,0.));
#255 = VECTOR('',#256,1.);
#256 = DIRECTION('',(0.,1.));
#257 = ( GEOMETRIC_REPRESENTATION_CONTEXT(2) 
PARAMETRIC_REPRESENTATION_CONTEXT() REPRESENTATION_CONTEXT('2D SPACE',''
  ) );
#258 = ORIENTED_EDGE('',*,*,#259,.T.);
#259 = EDGE_CURVE('',#238,#260,#262,.T.);
#260 = VERTEX_POINT('',#261);
#261 = CARTESIAN_POINT('',(0.295423476158,6.702899223999E-02,
    0.181044629797));
#262 = SURFACE_CURVE('',#263,(#266),.PCURVE_S1.);
#263 = B_SPLINE_CURVE_WITH_KNOTS('',1,(#264,#265),.UNSPECIFIED.,.F.,.F.,
  (2,2),(-8.35E-04,0.),.PIECEWISE_BEZIER_KNOTS.);
#264 = CARTESIAN_POINT('',(0.295423476158,6.619446347631E-02,
    0.181044629797));
#265 = CARTESIAN_POINT('',(0.295423476158,6.702899223999E-02,
    0.181044629797));
#266 = PCURVE('',#247,#267);
#267 = DEFINITIONAL_REPRESENTATION('',(#268),#272);
#268 = LINE('',#269,#270);
#269 = CARTESIAN_POINT('',(0.,0.));
#270 = VECTOR('',#271,1.);
#271 = DIRECTION('',(1.,0.));
#272 = ( GEOMETRIC_REPRESENTATION_CONTEXT(2) 
PARAMETRIC_REPRESENTATION_CONTEXT() REPRESENTATION_CONTEXT('2D SPACE',''
  ) );
#273 = ORIENTED_EDGE('',*,*,#274,.T.);
#274 = EDGE_CURVE('',#260,#275,#277,.T.);
#275 = VERTEX_POINT('',#276);
#276 = CARTESIAN_POINT('',(0.295423476158,6.702899223999E-02,
    0.181170567774));
#277 = SURFACE_CURVE('',#278,(#281),.PCURVE_S1.);
#278 = B_SPLINE_CURVE_WITH_KNOTS('',1,(#279,#280),.UNSPECIFIED.,.F.,.F.,
  (2,2),(0.,1.26E-04),.PIECEWISE_BEZIER_KNOTS.);
#279 = CARTESIAN_POINT('',(0.295423476158,6.702899223999E-02,
    0.181044629797));
#280 = CARTESIAN_POINT('',(0.295423476158,6.702899223999E-02,
    0.181170567774));
#281 = PCURVE('',#247,#282);
#282 = DEFINITIONAL_REPRESENTATION('',(#283),#287);
#283 = LINE('',#284,#285);
#284 = CARTESIAN_POINT('',(0.,0.));
#285 = VECTOR('',#286,1.);
#286 = DIRECTION('',(0.,1.));
#287 = ( GEOMETRIC_REPRESENTATION_CONTEXT(2) 
PARAMETRIC_REPRESENTATION_CONTEXT() REPRESENTATION_CONTEXT('2D SPACE',''
  ) );
#288 = ORIENTED_EDGE('',*,*,#289,.F.);
#289 = EDGE_CURVE('',#240,#275,#290,.T.);
#290 = SURFACE_CURVE('',#291,(#294),.PCURVE_S1.);
#291 = B_SPLINE_CURVE_WITH_KNOTS('',1,(#292,#293),.UNSPECIFIED.,.F.,.F.,
  (2,2),(-8.35E-04,0.),.PIECEWISE_BEZIER_KNOTS.);
#292 = CARTESIAN_POINT('',(0.295423476158,6.619446347631E-02,
    0.181170567774));
#293 = CARTESIAN_POINT('',(0.295423476158,6.702899223999E-02,
    0.181170567774));
#294 = PCURVE('',#247,#295);
#295 = DEFINITIONAL_REPRESENTATION('',(#296),#300);
#296 = LINE('',#297,#298);
#297 = CARTESIAN_POINT('',(0.,1.26E-04));
#298 = VECTOR('',#299,1.);
#299 = DIRECTION('',(1.,0.));
#300 = ( GEOMETRIC_REPRESENTATION_CONTEXT(2) 
PARAMETRIC_REPRESENTATION_CONTEXT() REPRESENTATION_CONTEXT('2D SPACE',''
  ) );
#301 = ( GEOMETRIC_REPRESENTATION_CONTEXT(3) 
GLOBAL_UNCERTAINTY_ASSIGNED_CONTEXT((#305)) GLOBAL_UNIT_ASSIGNED_CONTEXT
((#302,#303,#304)) REPRESENTATION_CONTEXT('Context #1',
  '3D Context with UNIT and UNCERTAINTY') );
#302 = ( LENGTH_UNIT() NAMED_UNIT(*) SI_UNIT(.MILLI.,.METRE.) );
#303 = ( NAMED_UNIT(*) PLANE_ANGLE_UNIT() SI_UNIT($,.RADIAN.) );
#304 = ( NAMED_UNIT(*) SI_UNIT($,.STERADIAN.) SOLID_ANGLE_UNIT() );
#305 = UNCERTAINTY_MEASURE_WITH_UNIT(LENGTH_MEASURE(1.E-07),#302,
  'distance_accuracy_value','confusion accuracy');
#306 = CONTEXT_DEPENDENT_SHAPE_REPRESENTATION(#307,#309);
#307 = ( REPRESENTATION_RELATIONSHIP('','',#230,#10) 
REPRESENTATION_RELATIONSHIP_WITH_TRANSFORMATION(#308) 
SHAPE_REPRESENTATION_RELATIONSHIP() );
#308 = ITEM_DEFINED_TRANSFORMATION('','',#11,#23);
#309 = PRODUCT_DEFINITION_SHAPE('Placement','Placement of an item',#310
  );
#310 = NEXT_ASSEMBLY_USAGE_OCCURRENCE('3','','',#5,#225,$);
#311 = PRODUCT_RELATED_PRODUCT_CATEGORY('part',$,(#227));
#312 = SHAPE_DEFINITION_REPRESENTATION(#313,#319);
#313 = PRODUCT_DEFINITION_SHAPE('','',#314);
#314 = PRODUCT_DEFINITION('design','',#315,#318);
#315 = PRODUCT_DEFINITION_FORMATION('','',#316);
#316 = PRODUCT('Open CASCADE STEP translator 7.9 1.4',
  'Open CASCADE STEP translator 7.9 1.4','',(#317));
#317 = PRODUCT_CONTEXT('',#2,'mechanical');
#318 = PRODUCT_DEFINITION_CONTEXT('part definition',#2,'design');
#319 = MANIFOLD_SURFACE_SHAPE_REPRESENTATION('',(#11,#320),#390);
#320 = SHELL_BASED_SURFACE_MODEL('',(#321));
#321 = OPEN_SHELL('',(#322));
#322 = ADVANCED_FACE('',(#323),#336,.T.);
#323 = FACE_BOUND('',#324,.T.);
#324 = EDGE_LOOP('',(#325,#347,#362,#377));
#325 = ORIENTED_EDGE('',*,*,#326,.F.);
#326 = EDGE_CURVE('',#327,#329,#331,.T.);
#327 = VERTEX_POINT('',#328);
#328 = CARTESIAN_POINT('',(0.295423476158,6.619446347631E-02,
    0.181170567774));
#329 = VERTEX_POINT('',#330);
#330 = CARTESIAN_POINT('',(0.295423476158,6.702899223999E-02,
    0.181170567774));
#331 = SURFACE_CURVE('',#332,(#335),.PCURVE_S1.);
#332 = B_SPLINE_CURVE_WITH_KNOTS('',1,(#333,#334),.UNSPECIFIED.,.F.,.F.,
  (2,2),(-8.35E-04,0.),.PIECEWISE_BEZIER_KNOTS.);
#333 = CARTESIAN_POINT('',(0.295423476158,6.619446347631E-02,
    0.181170567774));
#334 = CARTESIAN_POINT('',(0.295423476158,6.702899223999E-02,
    0.181170567774));
#335 = PCURVE('',#336,#341);
#336 = B_SPLINE_SURFACE_WITH_KNOTS('',1,1,(
    (#337,#338)
    ,(#339,#340
    )),.UNSPECIFIED.,.F.,.F.,.F.,(2,2),(2,2),(0.,3.12E-04),(-8.35E-04,0.
    ),.PIECEWISE_BEZIER_KNOTS.);
#337 = CARTESIAN_POINT('',(0.295423476158,6.619446347631E-02,
    0.181170567774));
#338 = CARTESIAN_POINT('',(0.295423476158,6.702899223999E-02,
    0.181170567774));
#339 = CARTESIAN_POINT('',(0.295735969801,6.619446347631E-02,
    0.181170567774));
#340 = CARTESIAN_POINT('',(0.295735969801,6.702899223999E-02,
    0.181170567774));
#341 = DEFINITIONAL_REPRESENTATION('',(#342),#346);
#342 = LINE('',#343,#344);
#343 = CARTESIAN_POINT('',(0.,0.));
#344 = VECTOR('',#345,1.);
#345 = DIRECTION('',(0.,1.));
#346 = ( GEOMETRIC_REPRESENTATION_CONTEXT(2) 
PARAMETRIC_REPRESENTATION_CONTEXT() REPRESENTATION_CONTEXT('2D SPACE',''
  ) );
#347 = ORIENTED_EDGE('',*,*,#348,.T.);
#348 = EDGE_CURVE('',#327,#349,#351,.T.);
#349 = VERTEX_POINT('',#350);
#350 = CARTESIAN_POINT('',(0.295735969801,6.619446347631E-02,
    0.181170567774));
#351 = SURFACE_CURVE('',#352,(#355),.PCURVE_S1.);
#352 = B_SPLINE_CURVE_WITH_KNOTS('',1,(#353,#354),.UNSPECIFIED.,.F.,.F.,
  (2,2),(0.,3.12E-04),.PIECEWISE_BEZIER_KNOTS.);
#353 = CARTESIAN_POINT('',(0.295423476158,6.619446347631E-02,
    0.181170567774));
#354 = CARTESIAN_POINT('',(0.295735969801,6.619446347631E-02,
    0.181170567774));
#355 = PCURVE('',#336,#356);
#356 = DEFINITIONAL_REPRESENTATION('',(#357),#361);
#357 = LINE('',#358,#359);
#358 = CARTESIAN_POINT('',(0.,-8.35E-04));
#359 = VECTOR('',#360,1.);
#360 = DIRECTION('',(1.,0.));
#361 = ( GEOMETRIC_REPRESENTATION_CONTEXT(2) 
PARAMETRIC_REPRESENTATION_CONTEXT() REPRESENTATION_CONTEXT('2D SPACE',''
  ) );
#362 = ORIENTED_EDGE('',*,*,#363,.T.);
#363 = EDGE_CURVE('',#349,#364,#366,.T.);
#364 = VERTEX_POINT('',#365);
#365 = CARTESIAN_POINT('',(0.295735969801,6.702899223999E-02,
    0.181170567774));
#366 = SURFACE_CURVE('',#367,(#370),.PCURVE_S1.);
#367 = B_SPLINE_CURVE_WITH_KNOTS('',1,(#368,#369),.UNSPECIFIED.,.F.,.F.,
  (2,2),(-8.35E-04,0.),.PIECEWISE_BEZIER_KNOTS.);
#368 = CARTESIAN_POINT('',(0.295735969801,6.619446347631E-02,
    0.181170567774));
#369 = CARTESIAN_POINT('',(0.295735969801,6.702899223999E-02,
    0.181170567774));
#370 = PCURVE('',#336,#371);
#371 = DEFINITIONAL_REPRESENTATION('',(#372),#376);
#372 = LINE('',#373,#374);
#373 = CARTESIAN_POINT('',(3.12E-04,0.));
#374 = VECTOR('',#375,1.);
#375 = DIRECTION('',(0.,1.));
#376 = ( GEOMETRIC_REPRESENTATION_CONTEXT(2) 
PARAMETRIC_REPRESENTATION_CONTEXT() REPRESENTATION_CONTEXT('2D SPACE',''
  ) );
#377 = ORIENTED_EDGE('',*,*,#378,.F.);
#378 = EDGE_CURVE('',#329,#364,#379,.T.);
#379 = SURFACE_CURVE('',#380,(#383),.PCURVE_S1.);
#380 = B_SPLINE_CURVE_WITH_KNOTS('',1,(#381,#382),.UNSPECIFIED.,.F.,.F.,
  (2,2),(0.,3.12E-04),.PIECEWISE_BEZIER_KNOTS.);
#381 = CARTESIAN_POINT('',(0.295423476158,6.702899223999E-02,
    0.181170567774));
#382 = CARTESIAN_POINT('',(0.295735969801,6.702899223999E-02,
    0.181170567774));
#383 = PCURVE('',#336,#384);
#384 = DEFINITIONAL_REPRESENTATION('',(#385),#389);
#385 = LINE('',#386,#387);
#386 = CARTESIAN_POINT('',(0.,0.));
#387 = VECTOR('',#388,1.);
#388 = DIRECTION('',(1.,0.));
#389 = ( GEOMETRIC_REPRESENTATION_CONTEXT(2) 
PARAMETRIC_REPRESENTATION_CONTEXT() REPRESENTATION_CONTEXT('2D SPACE',''
  ) );
#390 = ( GEOMETRIC_REPRESENTATION_CONTEXT(3) 
GLOBAL_UNCERTAINTY_ASSIGNED_CONTEXT((#394)) GLOBAL_UNIT_ASSIGNED_CONTEXT
((#391,#392,#393)) REPRESENTATION_CONTEXT('Context #1',
  '3D Context with UNIT and UNCERTAINTY') );
#391 = ( LENGTH_UNIT() NAMED_UNIT(*) SI_UNIT(.MILLI.,.METRE.) );
#392 = ( NAMED_UNIT(*) PLANE_ANGLE_UNIT() SI_UNIT($,.RADIAN.) );
#393 = ( NAMED_UNIT(*) SI_UNIT($,.STERADIAN.) SOLID_ANGLE_UNIT() );
#394 = UNCERTAINTY_MEASURE_WITH_UNIT(LENGTH_MEASURE(1.E-07),#391,
  'distance_accuracy_value','confusion accuracy');
#395 = CONTEXT_DEPENDENT_SHAPE_REPRESENTATION(#396,#398);
#396 = ( REPRESENTATION_RELATIONSHIP('','',#319,#10) 
REPRESENTATION_RELATIONSHIP_WITH_TRANSFORMATION(#397) 
SHAPE_REPRESENTATION_RELATIONSHIP() );
#397 = ITEM_DEFINED_TRANSFORMATION('','',#11,#27);
#398 = PRODUCT_DEFINITION_SHAPE('Placement','Placement of an item',#399
  );
#399 = NEXT_ASSEMBLY_USAGE_OCCURRENCE('4','','',#5,#314,$);
#400 = PRODUCT_RELATED_PRODUCT_CATEGORY('part',$,(#316));
#401 = SHAPE_DEFINITION_REPRESENTATION(#402,#408);
#402 = PRODUCT_DEFINITION_SHAPE('','',#403);
#403 = PRODUCT_DEFINITION('design','',#404,#407);
#404 = PRODUCT_DEFINITION_FORMATION('','',#405);
#405 = PRODUCT('Open CASCADE STEP translator 7.9 1.5',
  'Open CASCADE STEP translator 7.9 1.5','',(#406));
#406 = PRODUCT_CONTEXT('',#2,'mechanical');
#407 = PRODUCT_DEFINITION_CONTEXT('part definition',#2,'design');
#408 = MANIFOLD_SURFACE_SHAPE_REPRESENTATION('',(#11,#409),#479);
#409 = SHELL_BASED_SURFACE_MODEL('',(#410));
#410 = OPEN_SHELL('',(#411));
#411 = ADVANCED_FACE('',(#412),#425,.T.);
#412 = FACE_BOUND('',#413,.T.);
#413 = EDGE_LOOP('',(#414,#436,#451,#466));
#414 = ORIENTED_EDGE('',*,*,#415,.F.);
#415 = EDGE_CURVE('',#416,#418,#420,.T.);
#416 = VERTEX_POINT('',#417);
#417 = CARTESIAN_POINT('',(0.295735969801,6.619446347631E-02,
    0.181170567774));
#418 = VERTEX_POINT('',#419);
#419 = CARTESIAN_POINT('',(0.295423476158,6.619446347631E-02,
    0.181170567774));
#420 = SURFACE_CURVE('',#421,(#424),.PCURVE_S1.);
#421 = B_SPLINE_CURVE_WITH_KNOTS('',1,(#422,#423),.UNSPECIFIED.,.F.,.F.,
  (2,2),(-3.12E-04,0.),.PIECEWISE_BEZIER_KNOTS.);
#422 = CARTESIAN_POINT('',(0.295735969801,6.619446347631E-02,
    0.181170567774));
#423 = CARTESIAN_POINT('',(0.295423476158,6.619446347631E-02,
    0.181170567774));
#424 = PCURVE('',#425,#430);
#425 = B_SPLINE_SURFACE_WITH_KNOTS('',1,1,(
    (#426,#427)
    ,(#428,#429
    )),.UNSPECIFIED.,.F.,.F.,.F.,(2,2),(2,2),(-1.26E-04,0.),(-3.12E-04,
    0.),.PIECEWISE_BEZIER_KNOTS.);
#426 = CARTESIAN_POINT('',(0.295735969801,6.619446347631E-02,
    0.181170567774));
#427 = CARTESIAN_POINT('',(0.295423476158,6.619446347631E-02,
    0.181170567774));
#428 = CARTESIAN_POINT('',(0.295735969801,6.619446347631E-02,
    0.181044629797));
#429 = CARTESIAN_POINT('',(0.295423476158,6.619446347631E-02,
    0.181044629797));
#430 = DEFINITIONAL_REPRESENTATION('',(#431),#435);
#431 = LINE('',#432,#433);
#432 = CARTESIAN_POINT('',(-1.26E-04,0.));
#433 = VECTOR('',#434,1.);
#434 = DIRECTION('',(0.,1.));
#435 = ( GEOMETRIC_REPRESENTATION_CONTEXT(2) 
PARAMETRIC_REPRESENTATION_CONTEXT() REPRESENTATION_CONTEXT('2D SPACE',''
  ) );
#436 = ORIENTED_EDGE('',*,*,#437,.T.);
#437 = EDGE_CURVE('',#416,#438,#440,.T.);
#438 = VERTEX_POINT('',#439);
#439 = CARTESIAN_POINT('',(0.295735969801,6.619446347631E-02,
    0.181044629797));
#440 = SURFACE_CURVE('',#441,(#444),.PCURVE_S1.);
#441 = B_SPLINE_CURVE_WITH_KNOTS('',1,(#442,#443),.UNSPECIFIED.,.F.,.F.,
  (2,2),(-1.26E-04,0.),.PIECEWISE_BEZIER_KNOTS.);
#442 = CARTESIAN_POINT('',(0.295735969801,6.619446347631E-02,
    0.181170567774));
#443 = CARTESIAN_POINT('',(0.295735969801,6.619446347631E-02,
    0.181044629797));
#444 = PCURVE('',#425,#445);
#445 = DEFINITIONAL_REPRESENTATION('',(#446),#450);
#446 = LINE('',#447,#448);
#447 = CARTESIAN_POINT('',(0.,-3.12E-04));
#448 = VECTOR('',#449,1.);
#449 = DIRECTION('',(1.,0.));
#450 = ( GEOMETRIC_REPRESENTATION_CONTEXT(2) 
PARAMETRIC_REPRESENTATION_CONTEXT() REPRESENTATION_CONTEXT('2D SPACE',''
  ) );
#451 = ORIENTED_EDGE('',*,*,#452,.T.);
#452 = EDGE_CURVE('',#438,#453,#455,.T.);
#453 = VERTEX_POINT('',#454);
#454 = CARTESIAN_POINT('',(0.295423476158,6.619446347631E-02,
    0.181044629797));
#455 = SURFACE_CURVE('',#456,(#459),.PCURVE_S1.);
#456 = B_SPLINE_CURVE_WITH_KNOTS('',1,(#457,#458),.UNSPECIFIED.,.F.,.F.,
  (2,2),(-3.12E-04,0.),.PIECEWISE_BEZIER_KNOTS.);
#457 = CARTESIAN_POINT('',(0.295735969801,6.619446347631E-02,
    0.181044629797));
#458 = CARTESIAN_POINT('',(0.295423476158,6.619446347631E-02,
    0.181044629797));
#459 = PCURVE('',#425,#460);
#460 = DEFINITIONAL_REPRESENTATION('',(#461),#465);
#461 = LINE('',#462,#463);
#462 = CARTESIAN_POINT('',(0.,0.));
#463 = VECTOR('',#464,1.);
#464 = DIRECTION('',(0.,1.));
#465 = ( GEOMETRIC_REPRESENTATION_CONTEXT(2) 
PARAMETRIC_REPRESENTATION_CONTEXT() REPRESENTATION_CONTEXT('2D SPACE',''
  ) );
#466 = ORIENTED_EDGE('',*,*,#467,.F.);
#467 = EDGE_CURVE('',#418,#453,#468,.T.);
#468 = SURFACE_CURVE('',#469,(#472),.PCURVE_S1.);
#469 = B_SPLINE_CURVE_WITH_KNOTS('',1,(#470,#471),.UNSPECIFIED.,.F.,.F.,
  (2,2),(-1.26E-04,0.),.PIECEWISE_BEZIER_KNOTS.);
#470 = CARTESIAN_POINT('',(0.295423476158,6.619446347631E-02,
    0.181170567774));
#471 = CARTESIAN_POINT('',(0.295423476158,6.619446347631E-02,
    0.181044629797));
#472 = PCURVE('',#425,#473);
#473 = DEFINITIONAL_REPRESENTATION('',(#474),#478);
#474 = LINE('',#475,#476);
#475 = CARTESIAN_POINT('',(0.,0.));
#476 = VECTOR('',#477,1.);
#477 = DIRECTION('',(1.,0.));
#478 = ( GEOMETRIC_REPRESENTATION_CONTEXT(2) 
PARAMETRIC_REPRESENTATION_CONTEXT() REPRESENTATION_CONTEXT('2D SPACE',''
  ) );
#479 = ( GEOMETRIC_REPRESENTATION_CONTEXT(3) 
GLOBAL_UNCERTAINTY_ASSIGNED_CONTEXT((#483)) GLOBAL_UNIT_ASSIGNED_CONTEXT
((#480,#481,#482)) REPRESENTATION_CONTEXT('Context #1',
  '3D Context with UNIT and UNCERTAINTY') );
#480 = ( LENGTH_UNIT() NAMED_UNIT(*) SI_UNIT(.MILLI.,.METRE.) );
#481 = ( NAMED_UNIT(*) PLANE_ANGLE_UNIT() SI_UNIT($,.RADIAN.) );
#482 = ( NAMED_UNIT(*) SI_UNIT($,.STERADIAN.) SOLID_ANGLE_UNIT() );
#483 = UNCERTAINTY_MEASURE_WITH_UNIT(LENGTH_MEASURE(1.E-07),#480,
  'distance_accuracy_value','confusion accuracy');
#484 = CONTEXT_DEPENDENT_SHAPE_REPRESENTATION(#485,#487);
#485 = ( REPRESENTATION_RELATIONSHIP('','',#408,#10) 
REPRESENTATION_RELATIONSHIP_WITH_TRANSFORMATION(#486) 
SHAPE_REPRESENTATION_RELATIONSHIP() );
#486 = ITEM_DEFINED_TRANSFORMATION('','',#11,#31);
#487 = PRODUCT_DEFINITION_SHAPE('Placement','Placement of an item',#488
  );
#488 = NEXT_ASSEMBLY_USAGE_OCCURRENCE('5','','',#5,#403,$);
#489 = PRODUCT_RELATED_PRODUCT_CATEGORY('part',$,(#405));
#490 = SHAPE_DEFINITION_REPRESENTATION(#491,#497);
#491 = PRODUCT_DEFINITION_SHAPE('','',#492);
#492 = PRODUCT_DEFINITION('design','',#493,#496);
#493 = PRODUCT_DEFINITION_FORMATION('','',#494);
#494 = PRODUCT('Open CASCADE STEP translator 7.9 1.6',
  'Open CASCADE STEP translator 7.9 1.6','',(#495));
#495 = PRODUCT_CONTEXT('',#2,'mechanical');
#496 = PRODUCT_DEFINITION_CONTEXT('part definition',#2,'design');
#497 = MANIFOLD_SURFACE_SHAPE_REPRESENTATION('',(#11,#498),#568);
#498 = SHELL_BASED_SURFACE_MODEL('',(#499));
#499 = OPEN_SHELL('',(#500));
#500 = ADVANCED_FACE('',(#501),#514,.T.);
#501 = FACE_BOUND('',#502,.T.);
#502 = EDGE_LOOP('',(#503,#525,#540,#555));
#503 = ORIENTED_EDGE('',*,*,#504,.F.);
#504 = EDGE_CURVE('',#505,#507,#509,.T.);
#505 = VERTEX_POINT('',#506);
#506 = CARTESIAN_POINT('',(0.295735969801,6.702899224001E-02,
    0.181170567774));
#507 = VERTEX_POINT('',#508);
#508 = CARTESIAN_POINT('',(0.295423476158,6.702899224001E-02,
    0.181170567774));
#509 = SURFACE_CURVE('',#510,(#513),.PCURVE_S1.);
#510 = B_SPLINE_CURVE_WITH_KNOTS('',1,(#511,#512),.UNSPECIFIED.,.F.,.F.,
  (2,2),(-3.12E-04,0.),.PIECEWISE_BEZIER_KNOTS.);
#511 = CARTESIAN_POINT('',(0.295735969801,6.702899224001E-02,
    0.181170567774));
#512 = CARTESIAN_POINT('',(0.295423476158,6.702899224001E-02,
    0.181170567774));
#513 = PCURVE('',#514,#519);
#514 = B_SPLINE_SURFACE_WITH_KNOTS('',1,1,(
    (#515,#516)
    ,(#517,#518
    )),.UNSPECIFIED.,.F.,.F.,.F.,(2,2),(2,2),(-1.26E-04,0.),(-3.12E-04,
    0.),.PIECEWISE_BEZIER_KNOTS.);
#515 = CARTESIAN_POINT('',(0.295735969801,6.702899224001E-02,
    0.181170567774));
#516 = CARTESIAN_POINT('',(0.295423476158,6.702899224001E-02,
    0.181170567774));
#517 = CARTESIAN_POINT('',(0.295735969801,6.702899224001E-02,
    0.181044629797));
#518 = CARTESIAN_POINT('',(0.295423476158,6.702899224001E-02,
    0.181044629797));
#519 = DEFINITIONAL_REPRESENTATION('',(#520),#524);
#520 = LINE('',#521,#522);
#521 = CARTESIAN_POINT('',(-1.26E-04,0.));
#522 = VECTOR('',#523,1.);
#523 = DIRECTION('',(0.,1.));
#524 = ( GEOMETRIC_REPRESENTATION_CONTEXT(2) 
PARAMETRIC_REPRESENTATION_CONTEXT() REPRESENTATION_CONTEXT('2D SPACE',''
  ) );
#525 = ORIENTED_EDGE('',*,*,#526,.T.);
#526 = EDGE_CURVE('',#505,#527,#529,.T.);
#527 = VERTEX_POINT('',#528);
#528 = CARTESIAN_POINT('',(0.295735969801,6.702899224001E-02,
    0.181044629797));
#529 = SURFACE_CURVE('',#530,(#533),.PCURVE_S1.);
#530 = B_SPLINE_CURVE_WITH_KNOTS('',1,(#531,#532),.UNSPECIFIED.,.F.,.F.,
  (2,2),(-1.26E-04,0.),.PIECEWISE_BEZIER_KNOTS.);
#531 = CARTESIAN_POINT('',(0.295735969801,6.702899224001E-02,
    0.181170567774));
#532 = CARTESIAN_POINT('',(0.295735969801,6.702899224001E-02,
    0.181044629797));
#533 = PCURVE('',#514,#534);
#534 = DEFINITIONAL_REPRESENTATION('',(#535),#539);
#535 = LINE('',#536,#537);
#536 = CARTESIAN_POINT('',(0.,-3.12E-04));
#537 = VECTOR('',#538,1.);
#538 = DIRECTION('',(1.,0.));
#539 = ( GEOMETRIC_REPRESENTATION_CONTEXT(2) 
PARAMETRIC_REPRESENTATION_CONTEXT() REPRESENTATION_CONTEXT('2D SPACE',''
  ) );
#540 = ORIENTED_EDGE('',*,*,#541,.T.);
#541 = EDGE_CURVE('',#527,#542,#544,.T.);
#542 = VERTEX_POINT('',#543);
#543 = CARTESIAN_POINT('',(0.295423476158,6.702899224001E-02,
    0.181044629797));
#544 = SURFACE_CURVE('',#545,(#548),.PCURVE_S1.);
#545 = B_SPLINE_CURVE_WITH_KNOTS('',1,(#546,#547),.UNSPECIFIED.,.F.,.F.,
  (2,2),(-3.12E-04,0.),.PIECEWISE_BEZIER_KNOTS.);
#546 = CARTESIAN_POINT('',(0.295735969801,6.702899224001E-02,
    0.181044629797));
#547 = CARTESIAN_POINT('',(0.295423476158,6.702899224001E-02,
    0.181044629797));
#548 = PCURVE('',#514,#549);
#549 = DEFINITIONAL_REPRESENTATION('',(#550),#554);
#550 = LINE('',#551,#552);
#551 = CARTESIAN_POINT('',(0.,0.));
#552 = VECTOR('',#553,1.);
#553 = DIRECTION('',(0.,1.));
#554 = ( GEOMETRIC_REPRESENTATION_CONTEXT(2) 
PARAMETRIC_REPRESENTATION_CONTEXT() REPRESENTATION_CONTEXT('2D SPACE',''
  ) );
#555 = ORIENTED_EDGE('',*,*,#556,.F.);
#556 = EDGE_CURVE('',#507,#542,#557,.T.);
#557 = SURFACE_CURVE('',#558,(#561),.PCURVE_S1.);
#558 = B_SPLINE_CURVE_WITH_KNOTS('',1,(#559,#560),.UNSPECIFIED.,.F.,.F.,
  (2,2),(-1.26E-04,0.),.PIECEWISE_BEZIER_KNOTS.);
#559 = CARTESIAN_POINT('',(0.295423476158,6.702899224001E-02,
    0.181170567774));
#560 = CARTESIAN_POINT('',(0.295423476158,6.702899224001E-02,
    0.181044629797));
#561 = PCURVE('',#514,#562);
#562 = DEFINITIONAL_REPRESENTATION('',(#563),#567);
#563 = LINE('',#564,#565);
#564 = CARTESIAN_POINT('',(0.,0.));
#565 = VECTOR('',#566,1.);
#566 = DIRECTION('',(1.,0.));
#567 = ( GEOMETRIC_REPRESENTATION_CONTEXT(2) 
PARAMETRIC_REPRESENTATION_CONTEXT() REPRESENTATION_CONTEXT('2D SPACE',''
  ) );
#568 = ( GEOMETRIC_REPRESENTATION_CONTEXT(3) 
GLOBAL_UNCERTAINTY_ASSIGNED_CONTEXT((#572)) GLOBAL_UNIT_ASSIGNED_CONTEXT
((#569,#570,#571)) REPRESENTATION_CONTEXT('Context #1',
  '3D Context with UNIT and UNCERTAINTY') );
#569 = ( LENGTH_UNIT() NAMED_UNIT(*) SI_UNIT(.MILLI.,.METRE.) );
#570 = ( NAMED_UNIT(*) PLANE_ANGLE_UNIT() SI_UNIT($,.RADIAN.) );
#571 = ( NAMED_UNIT(*) SI_UNIT($,.STERADIAN.) SOLID_ANGLE_UNIT() );
#572 = UNCERTAINTY_MEASURE_WITH_UNIT(LENGTH_MEASURE(1.E-07),#569,
  'distance_accuracy_value','confusion accuracy');
#573 = CONTEXT_DEPENDENT_SHAPE_REPRESENTATION(#574,#576);
#574 = ( REPRESENTATION_RELATIONSHIP('','',#497,#10) 
REPRESENTATION_RELATIONSHIP_WITH_TRANSFORMATION(#575) 
SHAPE_REPRESENTATION_RELATIONSHIP() );
#575 = ITEM_DEFINED_TRANSFORMATION('','',#11,#35);
#576 = PRODUCT_DEFINITION_SHAPE('Placement','Placement of an item',#577
  );
#577 = NEXT_ASSEMBLY_USAGE_OCCURRENCE('6','','',#5,#492,$);
#578 = PRODUCT_RELATED_PRODUCT_CATEGORY('part',$,(#494));
ENDSEC;
END-ISO-10303-21;
