ISO-10303-21;
HEADER;
FILE_DESCRIPTION(('Open CASCADE Model'),'2;1');
FILE_NAME('Open CASCADE Shape Model','2026-07-02T20:27:37',('Author'),(
    'Open CASCADE'),'Open CASCADE STEP processor 7.9','Open CASCADE 7.9'
  ,'Unknown');
FILE_SCHEMA(('AUTOMOTIVE_DESIGN { 1 0 10303 214 1 1 1 1 }'));
ENDSEC;
DATA;
#1 = APPLICATION_PROTOCOL_DEFINITION('international standard',
  'automotive_design',2000,#2);
#2 = APPLICATION_CONTEXT(
  'core data for automotive mechanical design processes');
#3 = SHAPE_DEFINITION_REPRESENTATION(#4,#10);
#4 = PRODUCT_DEFINITION_SHAPE('','',#5);
#5 = PRODUCT_DEFINITION('design','',#6,#9);
#6 = PRODUCT_DEFINITION_FORMATION('','',#7);
#7 = PRODUCT('Open CASCADE STEP translator 7.9 1',
  'Open CASCADE STEP translator 7.9 1','',(#8));
#8 = PRODUCT_CONTEXT('',#2,'mechanical');
#9 = PRODUCT_DEFINITION_CONTEXT('part definition',#2,'design');
#10 = SHAPE_REPRESENTATION('',(#11,#15,#19,#23,#27,#31,#35,#39,#43,#47),
  #51);
#11 = AXIS2_PLACEMENT_3D('',#12,#13,#14);
#12 = CARTESIAN_POINT('',(0.,0.,0.));
#13 = DIRECTION('',(0.,0.,1.));
#14 = DIRECTION('',(1.,0.,-0.));
#15 = AXIS2_PLACEMENT_3D('',#16,#17,#18);
#16 = CARTESIAN_POINT('',(0.,0.,0.));
#17 = DIRECTION('',(0.,0.,1.));
#18 = DIRECTION('',(1.,0.,-0.));
#19 = AXIS2_PLACEMENT_3D('',#20,#21,#22);
#20 = CARTESIAN_POINT('',(0.,0.,0.));
#21 = DIRECTION('',(0.,0.,1.));
#22 = DIRECTION('',(1.,0.,-0.));
#23 = AXIS2_PLACEMENT_3D('',#24,#25,#26);
#24 = CARTESIAN_POINT('',(0.,0.,0.));
#25 = DIRECTION('',(0.,0.,1.));
#26 = DIRECTION('',(1.,0.,-0.));
#27 = AXIS2_PLACEMENT_3D('',#28,#29,#30);
#28 = CARTESIAN_POINT('',(0.,0.,0.));
#29 = DIRECTION('',(0.,0.,1.));
#30 = DIRECTION('',(1.,0.,-0.));
#31 = AXIS2_PLACEMENT_3D('',#32,#33,#34);
#32 = CARTESIAN_POINT('',(0.,0.,0.));
#33 = DIRECTION('',(0.,0.,1.));
#34 = DIRECTION('',(1.,0.,-0.));
#35 = AXIS2_PLACEMENT_3D('',#36,#37,#38);
#36 = CARTESIAN_POINT('',(0.,0.,0.));
#37 = DIRECTION('',(0.,0.,1.));
#38 = DIRECTION('',(1.,0.,-0.));
#39 = AXIS2_PLACEMENT_3D('',#40,#41,#42);
#40 = CARTESIAN_POINT('',(0.,0.,0.));
#41 = DIRECTION('',(0.,0.,1.));
#42 = DIRECTION('',(1.,0.,-0.));
#43 = AXIS2_PLACEMENT_3D('',#44,#45,#46);
#44 = CARTESIAN_POINT('',(0.,0.,0.));
#45 = DIRECTION('',(0.,0.,1.));
#46 = DIRECTION('',(1.,0.,-0.));
#47 = AXIS2_PLACEMENT_3D('',#48,#49,#50);
#48 = CARTESIAN_POINT('',(0.,0.,0.));
#49 = DIRECTION('',(0.,0.,1.));
#50 = DIRECTION('',(1.,0.,-0.));
#51 = ( GEOMETRIC_REPRESENTATION_CONTEXT(3) 
GLOBAL_UNCERTAINTY_ASSIGNED_CONTEXT((#55)) GLOBAL_UNIT_ASSIGNED_CONTEXT(
(#52,#53,#54)) REPRESENTATION_CONTEXT('Context #1',
  '3D Context with UNIT and UNCERTAINTY') );
#52 = ( LENGTH_UNIT() NAMED_UNIT(*) SI_UNIT(.MILLI.,.METRE.) );
#53 = ( NAMED_UNIT(*) PLANE_ANGLE_UNIT() SI_UNIT($,.RADIAN.) );
#54 = ( NAMED_UNIT(*) SI_UNIT($,.STERADIAN.) SOLID_ANGLE_UNIT() );
#55 = UNCERTAINTY_MEASURE_WITH_UNIT(LENGTH_MEASURE(1.E-07),#52,
  'distance_accuracy_value','confusion accuracy');
#56 = PRODUCT_RELATED_PRODUCT_CATEGORY('part',$,(#7));
#57 = SHAPE_DEFINITION_REPRESENTATION(#58,#64);
#58 = PRODUCT_DEFINITION_SHAPE('','',#59);
#59 = PRODUCT_DEFINITION('design','',#60,#63);
#60 = PRODUCT_DEFINITION_FORMATION('','',#61);
#61 = PRODUCT('Open CASCADE STEP translator 7.9 1.1',
  'Open CASCADE STEP translator 7.9 1.1','',(#62));
#62 = PRODUCT_CONTEXT('',#2,'mechanical');
#63 = PRODUCT_DEFINITION_CONTEXT('part definition',#2,'design');
#64 = MANIFOLD_SURFACE_SHAPE_REPRESENTATION('',(#11,#65),#135);
#65 = SHELL_BASED_SURFACE_MODEL('',(#66));
#66 = OPEN_SHELL('',(#67));
#67 = ADVANCED_FACE('',(#68),#81,.T.);
#68 = FACE_BOUND('',#69,.T.);
#69 = EDGE_LOOP('',(#70,#92,#107,#122));
#70 = ORIENTED_EDGE('',*,*,#71,.F.);
#71 = EDGE_CURVE('',#72,#74,#76,.T.);
#72 = VERTEX_POINT('',#73);
#73 = CARTESIAN_POINT('',(0.630480630474,8.651911492045E-02,
    2.073778789751E-02));
#74 = VERTEX_POINT('',#75);
#75 = CARTESIAN_POINT('',(0.630480630474,8.651911492045E-02,
    2.096505994469E-02));
#76 = SURFACE_CURVE('',#77,(#80),.PCURVE_S1.);
#77 = B_SPLINE_CURVE_WITH_KNOTS('',1,(#78,#79),.UNSPECIFIED.,.F.,.F.,(2,
    2),(0.,2.27E-04),.PIECEWISE_BEZIER_KNOTS.);
#78 = CARTESIAN_POINT('',(0.630480630474,8.651911492045E-02,
    2.073778789751E-02));
#79 = CARTESIAN_POINT('',(0.630480630474,8.651911492045E-02,
    2.096505994469E-02));
#80 = PCURVE('',#81,#86);
#81 = B_SPLINE_SURFACE_WITH_KNOTS('',1,1,(
    (#82,#83)
    ,(#84,#85
    )),.UNSPECIFIED.,.F.,.F.,.F.,(2,2),(2,2),(0.,2.009E-03),(0.,2.27E-04
    ),.PIECEWISE_BEZIER_KNOTS.);
#82 = CARTESIAN_POINT('',(0.630480630474,8.651911492045E-02,
    2.073778789751E-02));
#83 = CARTESIAN_POINT('',(0.630480630474,8.651911492045E-02,
    2.096505994469E-02));
#84 = CARTESIAN_POINT('',(0.629060175929,8.509866037542E-02,
    2.073778789751E-02));
#85 = CARTESIAN_POINT('',(0.629060175929,8.509866037542E-02,
    2.096505994469E-02));
#86 = DEFINITIONAL_REPRESENTATION('',(#87),#91);
#87 = LINE('',#88,#89);
#88 = CARTESIAN_POINT('',(0.,0.));
#89 = VECTOR('',#90,1.);
#90 = DIRECTION('',(0.,1.));
#91 = ( GEOMETRIC_REPRESENTATION_CONTEXT(2) 
PARAMETRIC_REPRESENTATION_CONTEXT() REPRESENTATION_CONTEXT('2D SPACE',''
  ) );
#92 = ORIENTED_EDGE('',*,*,#93,.T.);
#93 = EDGE_CURVE('',#72,#94,#96,.T.);
#94 = VERTEX_POINT('',#95);
#95 = CARTESIAN_POINT('',(0.629060175929,8.509866037542E-02,
    2.073778789751E-02));
#96 = SURFACE_CURVE('',#97,(#100),.PCURVE_S1.);
#97 = B_SPLINE_CURVE_WITH_KNOTS('',1,(#98,#99),.UNSPECIFIED.,.F.,.F.,(2,
    2),(0.,2.009E-03),.PIECEWISE_BEZIER_KNOTS.);
#98 = CARTESIAN_POINT('',(0.630480630474,8.651911492045E-02,
    2.073778789751E-02));
#99 = CARTESIAN_POINT('',(0.629060175929,8.509866037542E-02,
    2.073778789751E-02));
#100 = PCURVE('',#81,#101);
#101 = DEFINITIONAL_REPRESENTATION('',(#102),#106);
#102 = LINE('',#103,#104);
#103 = CARTESIAN_POINT('',(0.,0.));
#104 = VECTOR('',#105,1.);
#105 = DIRECTION('',(1.,0.));
#106 = ( GEOMETRIC_REPRESENTATION_CONTEXT(2) 
PARAMETRIC_REPRESENTATION_CONTEXT() REPRESENTATION_CONTEXT('2D SPACE',''
  ) );
#107 = ORIENTED_EDGE('',*,*,#108,.T.);
#108 = EDGE_CURVE('',#94,#109,#111,.T.);
#109 = VERTEX_POINT('',#110);
#110 = CARTESIAN_POINT('',(0.629060175929,8.509866037542E-02,
    2.096505994469E-02));
#111 = SURFACE_CURVE('',#112,(#115),.PCURVE_S1.);
#112 = B_SPLINE_CURVE_WITH_KNOTS('',1,(#113,#114),.UNSPECIFIED.,.F.,.F.,
  (2,2),(0.,2.27E-04),.PIECEWISE_BEZIER_KNOTS.);
#113 = CARTESIAN_POINT('',(0.629060175929,8.509866037542E-02,
    2.073778789751E-02));
#114 = CARTESIAN_POINT('',(0.629060175929,8.509866037542E-02,
    2.096505994469E-02));
#115 = PCURVE('',#81,#116);
#116 = DEFINITIONAL_REPRESENTATION('',(#117),#121);
#117 = LINE('',#118,#119);
#118 = CARTESIAN_POINT('',(2.009E-03,0.));
#119 = VECTOR('',#120,1.);
#120 = DIRECTION('',(0.,1.));
#121 = ( GEOMETRIC_REPRESENTATION_CONTEXT(2) 
PARAMETRIC_REPRESENTATION_CONTEXT() REPRESENTATION_CONTEXT('2D SPACE',''
  ) );
#122 = ORIENTED_EDGE('',*,*,#123,.F.);
#123 = EDGE_CURVE('',#74,#109,#124,.T.);
#124 = SURFACE_CURVE('',#125,(#128),.PCURVE_S1.);
#125 = B_SPLINE_CURVE_WITH_KNOTS('',1,(#126,#127),.UNSPECIFIED.,.F.,.F.,
  (2,2),(0.,2.009E-03),.PIECEWISE_BEZIER_KNOTS.);
#126 = CARTESIAN_POINT('',(0.630480630474,8.651911492045E-02,
    2.096505994469E-02));
#127 = CARTESIAN_POINT('',(0.629060175929,8.509866037542E-02,
    2.096505994469E-02));
#128 = PCURVE('',#81,#129);
#129 = DEFINITIONAL_REPRESENTATION('',(#130),#134);
#130 = LINE('',#131,#132);
#131 = CARTESIAN_POINT('',(0.,2.27E-04));
#132 = VECTOR('',#133,1.);
#133 = DIRECTION('',(1.,0.));
#134 = ( GEOMETRIC_REPRESENTATION_CONTEXT(2) 
PARAMETRIC_REPRESENTATION_CONTEXT() REPRESENTATION_CONTEXT('2D SPACE',''
  ) );
#135 = ( GEOMETRIC_REPRESENTATION_CONTEXT(3) 
GLOBAL_UNCERTAINTY_ASSIGNED_CONTEXT((#139)) GLOBAL_UNIT_ASSIGNED_CONTEXT
((#136,#137,#138)) REPRESENTATION_CONTEXT('Context #1',
  '3D Context with UNIT and UNCERTAINTY') );
#136 = ( LENGTH_UNIT() NAMED_UNIT(*) SI_UNIT(.MILLI.,.METRE.) );
#137 = ( NAMED_UNIT(*) PLANE_ANGLE_UNIT() SI_UNIT($,.RADIAN.) );
#138 = ( NAMED_UNIT(*) SI_UNIT($,.STERADIAN.) SOLID_ANGLE_UNIT() );
#139 = UNCERTAINTY_MEASURE_WITH_UNIT(LENGTH_MEASURE(1.E-07),#136,
  'distance_accuracy_value','confusion accuracy');
#140 = CONTEXT_DEPENDENT_SHAPE_REPRESENTATION(#141,#143);
#141 = ( REPRESENTATION_RELATIONSHIP('','',#64,#10) 
REPRESENTATION_RELATIONSHIP_WITH_TRANSFORMATION(#142) 
SHAPE_REPRESENTATION_RELATIONSHIP() );
#142 = ITEM_DEFINED_TRANSFORMATION('','',#11,#15);
#143 = PRODUCT_DEFINITION_SHAPE('Placement','Placement of an item',#144
  );
#144 = NEXT_ASSEMBLY_USAGE_OCCURRENCE('1','','',#5,#59,$);
#145 = PRODUCT_RELATED_PRODUCT_CATEGORY('part',$,(#61));
#146 = SHAPE_DEFINITION_REPRESENTATION(#147,#153);
#147 = PRODUCT_DEFINITION_SHAPE('','',#148);
#148 = PRODUCT_DEFINITION('design','',#149,#152);
#149 = PRODUCT_DEFINITION_FORMATION('','',#150);
#150 = PRODUCT('Open CASCADE STEP translator 7.9 1.2',
  'Open CASCADE STEP translator 7.9 1.2','',(#151));
#151 = PRODUCT_CONTEXT('',#2,'mechanical');
#152 = PRODUCT_DEFINITION_CONTEXT('part definition',#2,'design');
#153 = MANIFOLD_SURFACE_SHAPE_REPRESENTATION('',(#11,#154),#224);
#154 = SHELL_BASED_SURFACE_MODEL('',(#155));
#155 = OPEN_SHELL('',(#156));
#156 = ADVANCED_FACE('',(#157),#170,.T.);
#157 = FACE_BOUND('',#158,.T.);
#158 = EDGE_LOOP('',(#159,#181,#196,#211));
#159 = ORIENTED_EDGE('',*,*,#160,.F.);
#160 = EDGE_CURVE('',#161,#163,#165,.T.);
#161 = VERTEX_POINT('',#162);
#162 = CARTESIAN_POINT('',(0.630480630474,8.651911492045E-02,
    2.096505994469E-02));
#163 = VERTEX_POINT('',#164);
#164 = CARTESIAN_POINT('',(0.630480630474,8.651911492045E-02,
    2.073778789751E-02));
#165 = SURFACE_CURVE('',#166,(#169),.PCURVE_S1.);
#166 = B_SPLINE_CURVE_WITH_KNOTS('',1,(#167,#168),.UNSPECIFIED.,.F.,.F.,
  (2,2),(-2.27E-04,0.),.PIECEWISE_BEZIER_KNOTS.);
#167 = CARTESIAN_POINT('',(0.630480630474,8.651911492045E-02,
    2.096505994469E-02));
#168 = CARTESIAN_POINT('',(0.630480630474,8.651911492045E-02,
    2.073778789751E-02));
#169 = PCURVE('',#170,#175);
#170 = B_SPLINE_SURFACE_WITH_KNOTS('',1,1,(
    (#171,#172)
    ,(#173,#174
    )),.UNSPECIFIED.,.F.,.F.,.F.,(2,2),(2,2),(0.,2.009E-03),(-2.27E-04,
    0.),.PIECEWISE_BEZIER_KNOTS.);
#171 = CARTESIAN_POINT('',(0.630480630474,8.651911492045E-02,
    2.096505994469E-02));
#172 = CARTESIAN_POINT('',(0.630480630474,8.651911492045E-02,
    2.073778789751E-02));
#173 = CARTESIAN_POINT('',(0.629060175929,8.509866037542E-02,
    2.096505994469E-02));
#174 = CARTESIAN_POINT('',(0.629060175929,8.509866037542E-02,
    2.073778789751E-02));
#175 = DEFINITIONAL_REPRESENTATION('',(#176),#180);
#176 = LINE('',#177,#178);
#177 = CARTESIAN_POINT('',(0.,0.));
#178 = VECTOR('',#179,1.);
#179 = DIRECTION('',(0.,1.));
#180 = ( GEOMETRIC_REPRESENTATION_CONTEXT(2) 
PARAMETRIC_REPRESENTATION_CONTEXT() REPRESENTATION_CONTEXT('2D SPACE',''
  ) );
#181 = ORIENTED_EDGE('',*,*,#182,.T.);
#182 = EDGE_CURVE('',#161,#183,#185,.T.);
#183 = VERTEX_POINT('',#184);
#184 = CARTESIAN_POINT('',(0.629060175929,8.509866037542E-02,
    2.096505994469E-02));
#185 = SURFACE_CURVE('',#186,(#189),.PCURVE_S1.);
#186 = B_SPLINE_CURVE_WITH_KNOTS('',1,(#187,#188),.UNSPECIFIED.,.F.,.F.,
  (2,2),(0.,2.009E-03),.PIECEWISE_BEZIER_KNOTS.);
#187 = CARTESIAN_POINT('',(0.630480630474,8.651911492045E-02,
    2.096505994469E-02));
#188 = CARTESIAN_POINT('',(0.629060175929,8.509866037542E-02,
    2.096505994469E-02));
#189 = PCURVE('',#170,#190);
#190 = DEFINITIONAL_REPRESENTATION('',(#191),#195);
#191 = LINE('',#192,#193);
#192 = CARTESIAN_POINT('',(0.,-2.27E-04));
#193 = VECTOR('',#194,1.);
#194 = DIRECTION('',(1.,0.));
#195 = ( GEOMETRIC_REPRESENTATION_CONTEXT(2) 
PARAMETRIC_REPRESENTATION_CONTEXT() REPRESENTATION_CONTEXT('2D SPACE',''
  ) );
#196 = ORIENTED_EDGE('',*,*,#197,.T.);
#197 = EDGE_CURVE('',#183,#198,#200,.T.);
#198 = VERTEX_POINT('',#199);
#199 = CARTESIAN_POINT('',(0.629060175929,8.509866037542E-02,
    2.073778789751E-02));
#200 = SURFACE_CURVE('',#201,(#204),.PCURVE_S1.);
#201 = B_SPLINE_CURVE_WITH_KNOTS('',1,(#202,#203),.UNSPECIFIED.,.F.,.F.,
  (2,2),(-2.27E-04,0.),.PIECEWISE_BEZIER_KNOTS.);
#202 = CARTESIAN_POINT('',(0.629060175929,8.509866037542E-02,
    2.096505994469E-02));
#203 = CARTESIAN_POINT('',(0.629060175929,8.509866037542E-02,
    2.073778789751E-02));
#204 = PCURVE('',#170,#205);
#205 = DEFINITIONAL_REPRESENTATION('',(#206),#210);
#206 = LINE('',#207,#208);
#207 = CARTESIAN_POINT('',(2.009E-03,0.));
#208 = VECTOR('',#209,1.);
#209 = DIRECTION('',(0.,1.));
#210 = ( GEOMETRIC_REPRESENTATION_CONTEXT(2) 
PARAMETRIC_REPRESENTATION_CONTEXT() REPRESENTATION_CONTEXT('2D SPACE',''
  ) );
#211 = ORIENTED_EDGE('',*,*,#212,.F.);
#212 = EDGE_CURVE('',#163,#198,#213,.T.);
#213 = SURFACE_CURVE('',#214,(#217),.PCURVE_S1.);
#214 = B_SPLINE_CURVE_WITH_KNOTS('',1,(#215,#216),.UNSPECIFIED.,.F.,.F.,
  (2,2),(0.,2.009E-03),.PIECEWISE_BEZIER_KNOTS.);
#215 = CARTESIAN_POINT('',(0.630480630474,8.651911492045E-02,
    2.073778789751E-02));
#216 = CARTESIAN_POINT('',(0.629060175929,8.509866037542E-02,
    2.073778789751E-02));
#217 = PCURVE('',#170,#218);
#218 = DEFINITIONAL_REPRESENTATION('',(#219),#223);
#219 = LINE('',#220,#221);
#220 = CARTESIAN_POINT('',(0.,0.));
#221 = VECTOR('',#222,1.);
#222 = DIRECTION('',(1.,0.));
#223 = ( GEOMETRIC_REPRESENTATION_CONTEXT(2) 
PARAMETRIC_REPRESENTATION_CONTEXT() REPRESENTATION_CONTEXT('2D SPACE',''
  ) );
#224 = ( GEOMETRIC_REPRESENTATION_CONTEXT(3) 
GLOBAL_UNCERTAINTY_ASSIGNED_CONTEXT((#228)) GLOBAL_UNIT_ASSIGNED_CONTEXT
((#225,#226,#227)) REPRESENTATION_CONTEXT('Context #1',
  '3D Context with UNIT and UNCERTAINTY') );
#225 = ( LENGTH_UNIT() NAMED_UNIT(*) SI_UNIT(.MILLI.,.METRE.) );
#226 = ( NAMED_UNIT(*) PLANE_ANGLE_UNIT() SI_UNIT($,.RADIAN.) );
#227 = ( NAMED_UNIT(*) SI_UNIT($,.STERADIAN.) SOLID_ANGLE_UNIT() );
#228 = UNCERTAINTY_MEASURE_WITH_UNIT(LENGTH_MEASURE(1.E-07),#225,
  'distance_accuracy_value','confusion accuracy');
#229 = CONTEXT_DEPENDENT_SHAPE_REPRESENTATION(#230,#232);
#230 = ( REPRESENTATION_RELATIONSHIP('','',#153,#10) 
REPRESENTATION_RELATIONSHIP_WITH_TRANSFORMATION(#231) 
SHAPE_REPRESENTATION_RELATIONSHIP() );
#231 = ITEM_DEFINED_TRANSFORMATION('','',#11,#19);
#232 = PRODUCT_DEFINITION_SHAPE('Placement','Placement of an item',#233
  );
#233 = NEXT_ASSEMBLY_USAGE_OCCURRENCE('2','','',#5,#148,$);
#234 = PRODUCT_RELATED_PRODUCT_CATEGORY('part',$,(#150));
#235 = SHAPE_DEFINITION_REPRESENTATION(#236,#242);
#236 = PRODUCT_DEFINITION_SHAPE('','',#237);
#237 = PRODUCT_DEFINITION('design','',#238,#241);
#238 = PRODUCT_DEFINITION_FORMATION('','',#239);
#239 = PRODUCT('Open CASCADE STEP translator 7.9 1.3',
  'Open CASCADE STEP translator 7.9 1.3','',(#240));
#240 = PRODUCT_CONTEXT('',#2,'mechanical');
#241 = PRODUCT_DEFINITION_CONTEXT('part definition',#2,'design');
#242 = MANIFOLD_SURFACE_SHAPE_REPRESENTATION('',(#11,#243),#313);
#243 = SHELL_BASED_SURFACE_MODEL('',(#244));
#244 = OPEN_SHELL('',(#245));
#245 = ADVANCED_FACE('',(#246),#259,.T.);
#246 = FACE_BOUND('',#247,.T.);
#247 = EDGE_LOOP('',(#248,#270,#285,#300));
#248 = ORIENTED_EDGE('',*,*,#249,.F.);
#249 = EDGE_CURVE('',#250,#252,#254,.T.);
#250 = VERTEX_POINT('',#251);
#251 = CARTESIAN_POINT('',(0.629060175929,8.509866037542E-02,
    2.073778789751E-02));
#252 = VERTEX_POINT('',#253);
#253 = CARTESIAN_POINT('',(0.629060175929,8.509866037542E-02,
    2.096505994469E-02));
#254 = SURFACE_CURVE('',#255,(#258),.PCURVE_S1.);
#255 = B_SPLINE_CURVE_WITH_KNOTS('',1,(#256,#257),.UNSPECIFIED.,.F.,.F.,
  (2,2),(0.,2.27E-04),.PIECEWISE_BEZIER_KNOTS.);
#256 = CARTESIAN_POINT('',(0.629060175929,8.509866037542E-02,
    2.073778789751E-02));
#257 = CARTESIAN_POINT('',(0.629060175929,8.509866037542E-02,
    2.096505994469E-02));
#258 = PCURVE('',#259,#264);
#259 = B_SPLINE_SURFACE_WITH_KNOTS('',1,1,(
    (#260,#261)
    ,(#262,#263
    )),.UNSPECIFIED.,.F.,.F.,.F.,(2,2),(2,2),(0.,2.009E-03),(0.,2.27E-04
    ),.PIECEWISE_BEZIER_KNOTS.);
#260 = CARTESIAN_POINT('',(0.629060175929,8.509866037542E-02,
    2.073778789751E-02));
#261 = CARTESIAN_POINT('',(0.629060175929,8.509866037542E-02,
    2.096505994469E-02));
#262 = CARTESIAN_POINT('',(0.627639721384,8.651911492045E-02,
    2.073778789751E-02));
#263 = CARTESIAN_POINT('',(0.627639721384,8.651911492045E-02,
    2.096505994469E-02));
#264 = DEFINITIONAL_REPRESENTATION('',(#265),#269);
#265 = LINE('',#266,#267);
#266 = CARTESIAN_POINT('',(0.,0.));
#267 = VECTOR('',#268,1.);
#268 = DIRECTION('',(0.,1.));
#269 = ( GEOMETRIC_REPRESENTATION_CONTEXT(2) 
PARAMETRIC_REPRESENTATION_CONTEXT() REPRESENTATION_CONTEXT('2D SPACE',''
  ) );
#270 = ORIENTED_EDGE('',*,*,#271,.T.);
#271 = EDGE_CURVE('',#250,#272,#274,.T.);
#272 = VERTEX_POINT('',#273);
#273 = CARTESIAN_POINT('',(0.627639721384,8.651911492045E-02,
    2.073778789751E-02));
#274 = SURFACE_CURVE('',#275,(#278),.PCURVE_S1.);
#275 = B_SPLINE_CURVE_WITH_KNOTS('',1,(#276,#277),.UNSPECIFIED.,.F.,.F.,
  (2,2),(0.,2.009E-03),.PIECEWISE_BEZIER_KNOTS.);
#276 = CARTESIAN_POINT('',(0.629060175929,8.509866037542E-02,
    2.073778789751E-02));
#277 = CARTESIAN_POINT('',(0.627639721384,8.651911492045E-02,
    2.073778789751E-02));
#278 = PCURVE('',#259,#279);
#279 = DEFINITIONAL_REPRESENTATION('',(#280),#284);
#280 = LINE('',#281,#282);
#281 = CARTESIAN_POINT('',(0.,0.));
#282 = VECTOR('',#283,1.);
#283 = DIRECTION('',(1.,0.));
#284 = ( GEOMETRIC_REPRESENTATION_CONTEXT(2) 
PARAMETRIC_REPRESENTATION_CONTEXT() REPRESENTATION_CONTEXT('2D SPACE',''
  ) );
#285 = ORIENTED_EDGE('',*,*,#286,.T.);
#286 = EDGE_CURVE('',#272,#287,#289,.T.);
#287 = VERTEX_POINT('',#288);
#288 = CARTESIAN_POINT('',(0.627639721384,8.651911492045E-02,
    2.096505994469E-02));
#289 = SURFACE_CURVE('',#290,(#293),.PCURVE_S1.);
#290 = B_SPLINE_CURVE_WITH_KNOTS('',1,(#291,#292),.UNSPECIFIED.,.F.,.F.,
  (2,2),(0.,2.27E-04),.PIECEWISE_BEZIER_KNOTS.);
#291 = CARTESIAN_POINT('',(0.627639721384,8.651911492045E-02,
    2.073778789751E-02));
#292 = CARTESIAN_POINT('',(0.627639721384,8.651911492045E-02,
    2.096505994469E-02));
#293 = PCURVE('',#259,#294);
#294 = DEFINITIONAL_REPRESENTATION('',(#295),#299);
#295 = LINE('',#296,#297);
#296 = CARTESIAN_POINT('',(2.009E-03,0.));
#297 = VECTOR('',#298,1.);
#298 = DIRECTION('',(0.,1.));
#299 = ( GEOMETRIC_REPRESENTATION_CONTEXT(2) 
PARAMETRIC_REPRESENTATION_CONTEXT() REPRESENTATION_CONTEXT('2D SPACE',''
  ) );
#300 = ORIENTED_EDGE('',*,*,#301,.F.);
#301 = EDGE_CURVE('',#252,#287,#302,.T.);
#302 = SURFACE_CURVE('',#303,(#306),.PCURVE_S1.);
#303 = B_SPLINE_CURVE_WITH_KNOTS('',1,(#304,#305),.UNSPECIFIED.,.F.,.F.,
  (2,2),(0.,2.009E-03),.PIECEWISE_BEZIER_KNOTS.);
#304 = CARTESIAN_POINT('',(0.629060175929,8.509866037542E-02,
    2.096505994469E-02));
#305 = CARTESIAN_POINT('',(0.627639721384,8.651911492045E-02,
    2.096505994469E-02));
#306 = PCURVE('',#259,#307);
#307 = DEFINITIONAL_REPRESENTATION('',(#308),#312);
#308 = LINE('',#309,#310);
#309 = CARTESIAN_POINT('',(0.,2.27E-04));
#310 = VECTOR('',#311,1.);
#311 = DIRECTION('',(1.,0.));
#312 = ( GEOMETRIC_REPRESENTATION_CONTEXT(2) 
PARAMETRIC_REPRESENTATION_CONTEXT() REPRESENTATION_CONTEXT('2D SPACE',''
  ) );
#313 = ( GEOMETRIC_REPRESENTATION_CONTEXT(3) 
GLOBAL_UNCERTAINTY_ASSIGNED_CONTEXT((#317)) GLOBAL_UNIT_ASSIGNED_CONTEXT
((#314,#315,#316)) REPRESENTATION_CONTEXT('Context #1',
  '3D Context with UNIT and UNCERTAINTY') );
#314 = ( LENGTH_UNIT() NAMED_UNIT(*) SI_UNIT(.MILLI.,.METRE.) );
#315 = ( NAMED_UNIT(*) PLANE_ANGLE_UNIT() SI_UNIT($,.RADIAN.) );
#316 = ( NAMED_UNIT(*) SI_UNIT($,.STERADIAN.) SOLID_ANGLE_UNIT() );
#317 = UNCERTAINTY_MEASURE_WITH_UNIT(LENGTH_MEASURE(1.E-07),#314,
  'distance_accuracy_value','confusion accuracy');
#318 = CONTEXT_DEPENDENT_SHAPE_REPRESENTATION(#319,#321);
#319 = ( REPRESENTATION_RELATIONSHIP('','',#242,#10) 
REPRESENTATION_RELATIONSHIP_WITH_TRANSFORMATION(#320) 
SHAPE_REPRESENTATION_RELATIONSHIP() );
#320 = ITEM_DEFINED_TRANSFORMATION('','',#11,#23);
#321 = PRODUCT_DEFINITION_SHAPE('Placement','Placement of an item',#322
  );
#322 = NEXT_ASSEMBLY_USAGE_OCCURRENCE('3','','',#5,#237,$);
#323 = PRODUCT_RELATED_PRODUCT_CATEGORY('part',$,(#239));
#324 = SHAPE_DEFINITION_REPRESENTATION(#325,#331);
#325 = PRODUCT_DEFINITION_SHAPE('','',#326);
#326 = PRODUCT_DEFINITION('design','',#327,#330);
#327 = PRODUCT_DEFINITION_FORMATION('','',#328);
#328 = PRODUCT('Open CASCADE STEP translator 7.9 1.4',
  'Open CASCADE STEP translator 7.9 1.4','',(#329));
#329 = PRODUCT_CONTEXT('',#2,'mechanical');
#330 = PRODUCT_DEFINITION_CONTEXT('part definition',#2,'design');
#331 = MANIFOLD_SURFACE_SHAPE_REPRESENTATION('',(#11,#332),#402);
#332 = SHELL_BASED_SURFACE_MODEL('',(#333));
#333 = OPEN_SHELL('',(#334));
#334 = ADVANCED_FACE('',(#335),#348,.T.);
#335 = FACE_BOUND('',#336,.T.);
#336 = EDGE_LOOP('',(#337,#359,#374,#389));
#337 = ORIENTED_EDGE('',*,*,#338,.F.);
#338 = EDGE_CURVE('',#339,#341,#343,.T.);
#339 = VERTEX_POINT('',#340);
#340 = CARTESIAN_POINT('',(0.627639721384,8.651911492045E-02,
    2.073778789751E-02));
#341 = VERTEX_POINT('',#342);
#342 = CARTESIAN_POINT('',(0.627639721384,8.793956946548E-02,
    2.073778789751E-02));
#343 = SURFACE_CURVE('',#344,(#347),.PCURVE_S1.);
#344 = B_SPLINE_CURVE_WITH_KNOTS('',1,(#345,#346),.UNSPECIFIED.,.F.,.F.,
  (2,2),(-1.42E-03,0.),.PIECEWISE_BEZIER_KNOTS.);
#345 = CARTESIAN_POINT('',(0.627639721384,8.651911492045E-02,
    2.073778789751E-02));
#346 = CARTESIAN_POINT('',(0.627639721384,8.793956946548E-02,
    2.073778789751E-02));
#347 = PCURVE('',#348,#353);
#348 = B_SPLINE_SURFACE_WITH_KNOTS('',1,1,(
    (#349,#350)
    ,(#351,#352
    )),.UNSPECIFIED.,.F.,.F.,.F.,(2,2),(2,2),(0.,2.27E-04),(-1.42E-03,0.
    ),.PIECEWISE_BEZIER_KNOTS.);
#349 = CARTESIAN_POINT('',(0.627639721384,8.651911492045E-02,
    2.073778789751E-02));
#350 = CARTESIAN_POINT('',(0.627639721384,8.793956946548E-02,
    2.073778789751E-02));
#351 = CARTESIAN_POINT('',(0.627639721384,8.651911492045E-02,
    2.096505994469E-02));
#352 = CARTESIAN_POINT('',(0.627639721384,8.793956946548E-02,
    2.096505994469E-02));
#353 = DEFINITIONAL_REPRESENTATION('',(#354),#358);
#354 = LINE('',#355,#356);
#355 = CARTESIAN_POINT('',(0.,0.));
#356 = VECTOR('',#357,1.);
#357 = DIRECTION('',(0.,1.));
#358 = ( GEOMETRIC_REPRESENTATION_CONTEXT(2) 
PARAMETRIC_REPRESENTATION_CONTEXT() REPRESENTATION_CONTEXT('2D SPACE',''
  ) );
#359 = ORIENTED_EDGE('',*,*,#360,.T.);
#360 = EDGE_CURVE('',#339,#361,#363,.T.);
#361 = VERTEX_POINT('',#362);
#362 = CARTESIAN_POINT('',(0.627639721384,8.651911492045E-02,
    2.096505994469E-02));
#363 = SURFACE_CURVE('',#364,(#367),.PCURVE_S1.);
#364 = B_SPLINE_CURVE_WITH_KNOTS('',1,(#365,#366),.UNSPECIFIED.,.F.,.F.,
  (2,2),(0.,2.27E-04),.PIECEWISE_BEZIER_KNOTS.);
#365 = CARTESIAN_POINT('',(0.627639721384,8.651911492045E-02,
    2.073778789751E-02));
#366 = CARTESIAN_POINT('',(0.627639721384,8.651911492045E-02,
    2.096505994469E-02));
#367 = PCURVE('',#348,#368);
#368 = DEFINITIONAL_REPRESENTATION('',(#369),#373);
#369 = LINE('',#370,#371);
#370 = CARTESIAN_POINT('',(0.,-1.42E-03));
#371 = VECTOR('',#372,1.);
#372 = DIRECTION('',(1.,0.));
#373 = ( GEOMETRIC_REPRESENTATION_CONTEXT(2) 
PARAMETRIC_REPRESENTATION_CONTEXT() REPRESENTATION_CONTEXT('2D SPACE',''
  ) );
#374 = ORIENTED_EDGE('',*,*,#375,.T.);
#375 = EDGE_CURVE('',#361,#376,#378,.T.);
#376 = VERTEX_POINT('',#377);
#377 = CARTESIAN_POINT('',(0.627639721384,8.793956946548E-02,
    2.096505994469E-02));
#378 = SURFACE_CURVE('',#379,(#382),.PCURVE_S1.);
#379 = B_SPLINE_CURVE_WITH_KNOTS('',1,(#380,#381),.UNSPECIFIED.,.F.,.F.,
  (2,2),(-1.42E-03,0.),.PIECEWISE_BEZIER_KNOTS.);
#380 = CARTESIAN_POINT('',(0.627639721384,8.651911492045E-02,
    2.096505994469E-02));
#381 = CARTESIAN_POINT('',(0.627639721384,8.793956946548E-02,
    2.096505994469E-02));
#382 = PCURVE('',#348,#383);
#383 = DEFINITIONAL_REPRESENTATION('',(#384),#388);
#384 = LINE('',#385,#386);
#385 = CARTESIAN_POINT('',(2.27E-04,0.));
#386 = VECTOR('',#387,1.);
#387 = DIRECTION('',(0.,1.));
#388 = ( GEOMETRIC_REPRESENTATION_CONTEXT(2) 
PARAMETRIC_REPRESENTATION_CONTEXT() REPRESENTATION_CONTEXT('2D SPACE',''
  ) );
#389 = ORIENTED_EDGE('',*,*,#390,.F.);
#390 = EDGE_CURVE('',#341,#376,#391,.T.);
#391 = SURFACE_CURVE('',#392,(#395),.PCURVE_S1.);
#392 = B_SPLINE_CURVE_WITH_KNOTS('',1,(#393,#394),.UNSPECIFIED.,.F.,.F.,
  (2,2),(0.,2.27E-04),.PIECEWISE_BEZIER_KNOTS.);
#393 = CARTESIAN_POINT('',(0.627639721384,8.793956946548E-02,
    2.073778789751E-02));
#394 = CARTESIAN_POINT('',(0.627639721384,8.793956946548E-02,
    2.096505994469E-02));
#395 = PCURVE('',#348,#396);
#396 = DEFINITIONAL_REPRESENTATION('',(#397),#401);
#397 = LINE('',#398,#399);
#398 = CARTESIAN_POINT('',(0.,0.));
#399 = VECTOR('',#400,1.);
#400 = DIRECTION('',(1.,0.));
#401 = ( GEOMETRIC_REPRESENTATION_CONTEXT(2) 
PARAMETRIC_REPRESENTATION_CONTEXT() REPRESENTATION_CONTEXT('2D SPACE',''
  ) );
#402 = ( GEOMETRIC_REPRESENTATION_CONTEXT(3) 
GLOBAL_UNCERTAINTY_ASSIGNED_CONTEXT((#406)) GLOBAL_UNIT_ASSIGNED_CONTEXT
((#403,#404,#405)) REPRESENTATION_CONTEXT('Context #1',
  '3D Context with UNIT and UNCERTAINTY') );
#403 = ( LENGTH_UNIT() NAMED_UNIT(*) SI_UNIT(.MILLI.,.METRE.) );
#404 = ( NAMED_UNIT(*) PLANE_ANGLE_UNIT() SI_UNIT($,.RADIAN.) );
#405 = ( NAMED_UNIT(*) SI_UNIT($,.STERADIAN.) SOLID_ANGLE_UNIT() );
#406 = UNCERTAINTY_MEASURE_WITH_UNIT(LENGTH_MEASURE(1.E-07),#403,
  'distance_accuracy_value','confusion accuracy');
#407 = CONTEXT_DEPENDENT_SHAPE_REPRESENTATION(#408,#410);
#408 = ( REPRESENTATION_RELATIONSHIP('','',#331,#10) 
REPRESENTATION_RELATIONSHIP_WITH_TRANSFORMATION(#409) 
SHAPE_REPRESENTATION_RELATIONSHIP() );
#409 = ITEM_DEFINED_TRANSFORMATION('','',#11,#27);
#410 = PRODUCT_DEFINITION_SHAPE('Placement','Placement of an item',#411
  );
#411 = NEXT_ASSEMBLY_USAGE_OCCURRENCE('4','','',#5,#326,$);
#412 = PRODUCT_RELATED_PRODUCT_CATEGORY('part',$,(#328));
#413 = SHAPE_DEFINITION_REPRESENTATION(#414,#420);
#414 = PRODUCT_DEFINITION_SHAPE('','',#415);
#415 = PRODUCT_DEFINITION('design','',#416,#419);
#416 = PRODUCT_DEFINITION_FORMATION('','',#417);
#417 = PRODUCT('Open CASCADE STEP translator 7.9 1.5',
  'Open CASCADE STEP translator 7.9 1.5','',(#418));
#418 = PRODUCT_CONTEXT('',#2,'mechanical');
#419 = PRODUCT_DEFINITION_CONTEXT('part definition',#2,'design');
#420 = MANIFOLD_SURFACE_SHAPE_REPRESENTATION('',(#11,#421),#491);
#421 = SHELL_BASED_SURFACE_MODEL('',(#422));
#422 = OPEN_SHELL('',(#423));
#423 = ADVANCED_FACE('',(#424),#437,.T.);
#424 = FACE_BOUND('',#425,.T.);
#425 = EDGE_LOOP('',(#426,#448,#463,#478));
#426 = ORIENTED_EDGE('',*,*,#427,.F.);
#427 = EDGE_CURVE('',#428,#430,#432,.T.);
#428 = VERTEX_POINT('',#429);
#429 = CARTESIAN_POINT('',(0.629060175929,8.793956946548E-02,
    2.073778789751E-02));
#430 = VERTEX_POINT('',#431);
#431 = CARTESIAN_POINT('',(0.629060175929,8.793956946548E-02,
    2.096505994469E-02));
#432 = SURFACE_CURVE('',#433,(#436),.PCURVE_S1.);
#433 = B_SPLINE_CURVE_WITH_KNOTS('',1,(#434,#435),.UNSPECIFIED.,.F.,.F.,
  (2,2),(0.,2.27E-04),.PIECEWISE_BEZIER_KNOTS.);
#434 = CARTESIAN_POINT('',(0.629060175929,8.793956946548E-02,
    2.073778789751E-02));
#435 = CARTESIAN_POINT('',(0.629060175929,8.793956946548E-02,
    2.096505994469E-02));
#436 = PCURVE('',#437,#442);
#437 = B_SPLINE_SURFACE_WITH_KNOTS('',1,1,(
    (#438,#439)
    ,(#440,#441
    )),.UNSPECIFIED.,.F.,.F.,.F.,(2,2),(2,2),(0.,2.009E-03),(0.,2.27E-04
    ),.PIECEWISE_BEZIER_KNOTS.);
#438 = CARTESIAN_POINT('',(0.629060175929,8.793956946548E-02,
    2.073778789751E-02));
#439 = CARTESIAN_POINT('',(0.629060175929,8.793956946548E-02,
    2.096505994469E-02));
#440 = CARTESIAN_POINT('',(0.627639721384,8.651911492045E-02,
    2.073778789751E-02));
#441 = CARTESIAN_POINT('',(0.627639721384,8.651911492045E-02,
    2.096505994469E-02));
#442 = DEFINITIONAL_REPRESENTATION('',(#443),#447);
#443 = LINE('',#444,#445);
#444 = CARTESIAN_POINT('',(0.,0.));
#445 = VECTOR('',#446,1.);
#446 = DIRECTION('',(0.,1.));
#447 = ( GEOMETRIC_REPRESENTATION_CONTEXT(2) 
PARAMETRIC_REPRESENTATION_CONTEXT() REPRESENTATION_CONTEXT('2D SPACE',''
  ) );
#448 = ORIENTED_EDGE('',*,*,#449,.T.);
#449 = EDGE_CURVE('',#428,#450,#452,.T.);
#450 = VERTEX_POINT('',#451);
#451 = CARTESIAN_POINT('',(0.627639721384,8.651911492045E-02,
    2.073778789751E-02));
#452 = SURFACE_CURVE('',#453,(#456),.PCURVE_S1.);
#453 = B_SPLINE_CURVE_WITH_KNOTS('',1,(#454,#455),.UNSPECIFIED.,.F.,.F.,
  (2,2),(0.,2.009E-03),.PIECEWISE_BEZIER_KNOTS.);
#454 = CARTESIAN_POINT('',(0.629060175929,8.793956946548E-02,
    2.073778789751E-02));
#455 = CARTESIAN_POINT('',(0.627639721384,8.651911492045E-02,
    2.073778789751E-02));
#456 = PCURVE('',#437,#457);
#457 = DEFINITIONAL_REPRESENTATION('',(#458),#462);
#458 = LINE('',#459,#460);
#459 = CARTESIAN_POINT('',(0.,0.));
#460 = VECTOR('',#461,1.);
#461 = DIRECTION('',(1.,0.));
#462 = ( GEOMETRIC_REPRESENTATION_CONTEXT(2) 
PARAMETRIC_REPRESENTATION_CONTEXT() REPRESENTATION_CONTEXT('2D SPACE',''
  ) );
#463 = ORIENTED_EDGE('',*,*,#464,.T.);
#464 = EDGE_CURVE('',#450,#465,#467,.T.);
#465 = VERTEX_POINT('',#466);
#466 = CARTESIAN_POINT('',(0.627639721384,8.651911492045E-02,
    2.096505994469E-02));
#467 = SURFACE_CURVE('',#468,(#471),.PCURVE_S1.);
#468 = B_SPLINE_CURVE_WITH_KNOTS('',1,(#469,#470),.UNSPECIFIED.,.F.,.F.,
  (2,2),(0.,2.27E-04),.PIECEWISE_BEZIER_KNOTS.);
#469 = CARTESIAN_POINT('',(0.627639721384,8.651911492045E-02,
    2.073778789751E-02));
#470 = CARTESIAN_POINT('',(0.627639721384,8.651911492045E-02,
    2.096505994469E-02));
#471 = PCURVE('',#437,#472);
#472 = DEFINITIONAL_REPRESENTATION('',(#473),#477);
#473 = LINE('',#474,#475);
#474 = CARTESIAN_POINT('',(2.009E-03,0.));
#475 = VECTOR('',#476,1.);
#476 = DIRECTION('',(0.,1.));
#477 = ( GEOMETRIC_REPRESENTATION_CONTEXT(2) 
PARAMETRIC_REPRESENTATION_CONTEXT() REPRESENTATION_CONTEXT('2D SPACE',''
  ) );
#478 = ORIENTED_EDGE('',*,*,#479,.F.);
#479 = EDGE_CURVE('',#430,#465,#480,.T.);
#480 = SURFACE_CURVE('',#481,(#484),.PCURVE_S1.);
#481 = B_SPLINE_CURVE_WITH_KNOTS('',1,(#482,#483),.UNSPECIFIED.,.F.,.F.,
  (2,2),(0.,2.009E-03),.PIECEWISE_BEZIER_KNOTS.);
#482 = CARTESIAN_POINT('',(0.629060175929,8.793956946548E-02,
    2.096505994469E-02));
#483 = CARTESIAN_POINT('',(0.627639721384,8.651911492045E-02,
    2.096505994469E-02));
#484 = PCURVE('',#437,#485);
#485 = DEFINITIONAL_REPRESENTATION('',(#486),#490);
#486 = LINE('',#487,#488);
#487 = CARTESIAN_POINT('',(0.,2.27E-04));
#488 = VECTOR('',#489,1.);
#489 = DIRECTION('',(1.,0.));
#490 = ( GEOMETRIC_REPRESENTATION_CONTEXT(2) 
PARAMETRIC_REPRESENTATION_CONTEXT() REPRESENTATION_CONTEXT('2D SPACE',''
  ) );
#491 = ( GEOMETRIC_REPRESENTATION_CONTEXT(3) 
GLOBAL_UNCERTAINTY_ASSIGNED_CONTEXT((#495)) GLOBAL_UNIT_ASSIGNED_CONTEXT
((#492,#493,#494)) REPRESENTATION_CONTEXT('Context #1',
  '3D Context with UNIT and UNCERTAINTY') );
#492 = ( LENGTH_UNIT() NAMED_UNIT(*) SI_UNIT(.MILLI.,.METRE.) );
#493 = ( NAMED_UNIT(*) PLANE_ANGLE_UNIT() SI_UNIT($,.RADIAN.) );
#494 = ( NAMED_UNIT(*) SI_UNIT($,.STERADIAN.) SOLID_ANGLE_UNIT() );
#495 = UNCERTAINTY_MEASURE_WITH_UNIT(LENGTH_MEASURE(1.E-07),#492,
  'distance_accuracy_value','confusion accuracy');
#496 = CONTEXT_DEPENDENT_SHAPE_REPRESENTATION(#497,#499);
#497 = ( REPRESENTATION_RELATIONSHIP('','',#420,#10) 
REPRESENTATION_RELATIONSHIP_WITH_TRANSFORMATION(#498) 
SHAPE_REPRESENTATION_RELATIONSHIP() );
#498 = ITEM_DEFINED_TRANSFORMATION('','',#11,#31);
#499 = PRODUCT_DEFINITION_SHAPE('Placement','Placement of an item',#500
  );
#500 = NEXT_ASSEMBLY_USAGE_OCCURRENCE('5','','',#5,#415,$);
#501 = PRODUCT_RELATED_PRODUCT_CATEGORY('part',$,(#417));
#502 = SHAPE_DEFINITION_REPRESENTATION(#503,#509);
#503 = PRODUCT_DEFINITION_SHAPE('','',#504);
#504 = PRODUCT_DEFINITION('design','',#505,#508);
#505 = PRODUCT_DEFINITION_FORMATION('','',#506);
#506 = PRODUCT('Open CASCADE STEP translator 7.9 1.6',
  'Open CASCADE STEP translator 7.9 1.6','',(#507));
#507 = PRODUCT_CONTEXT('',#2,'mechanical');
#508 = PRODUCT_DEFINITION_CONTEXT('part definition',#2,'design');
#509 = MANIFOLD_SURFACE_SHAPE_REPRESENTATION('',(#11,#510),#607);
#510 = SHELL_BASED_SURFACE_MODEL('',(#511));
#511 = OPEN_SHELL('',(#512));
#512 = ADVANCED_FACE('',(#513,#584),#527,.T.);
#513 = FACE_BOUND('',#514,.T.);
#514 = EDGE_LOOP('',(#515,#538,#554,#570));
#515 = ORIENTED_EDGE('',*,*,#516,.T.);
#516 = EDGE_CURVE('',#517,#519,#521,.T.);
#517 = VERTEX_POINT('',#518);
#518 = CARTESIAN_POINT('',(0.62764,8.6519E-02,2.0965E-02));
#519 = VERTEX_POINT('',#520);
#520 = CARTESIAN_POINT('',(0.62906,8.794E-02,2.0965E-02));
#521 = SURFACE_CURVE('',#522,(#526),.PCURVE_S1.);
#522 = LINE('',#523,#524);
#523 = CARTESIAN_POINT('',(0.62764,8.6519E-02,2.0965E-02));
#524 = VECTOR('',#525,1.);
#525 = DIRECTION('',(0.706857843776,0.70735563099,0.));
#526 = PCURVE('',#527,#532);
#527 = PLANE('',#528);
#528 = AXIS2_PLACEMENT_3D('',#529,#530,#531);
#529 = CARTESIAN_POINT('',(0.62764,8.7939624956E-02,2.0965E-02));
#530 = DIRECTION('',(0.,0.,1.));
#531 = DIRECTION('',(1.,0.,-0.));
#532 = DEFINITIONAL_REPRESENTATION('',(#533),#537);
#533 = LINE('',#534,#535);
#534 = CARTESIAN_POINT('',(0.,-1.420624955998E-03));
#535 = VECTOR('',#536,1.);
#536 = DIRECTION('',(0.706857843776,0.70735563099));
#537 = ( GEOMETRIC_REPRESENTATION_CONTEXT(2) 
PARAMETRIC_REPRESENTATION_CONTEXT() REPRESENTATION_CONTEXT('2D SPACE',''
  ) );
#538 = ORIENTED_EDGE('',*,*,#539,.T.);
#539 = EDGE_CURVE('',#519,#540,#542,.T.);
#540 = VERTEX_POINT('',#541);
#541 = CARTESIAN_POINT('',(0.62764,8.936E-02,2.0965E-02));
#542 = SURFACE_CURVE('',#543,(#547),.PCURVE_S1.);
#543 = LINE('',#544,#545);
#544 = CARTESIAN_POINT('',(0.62906,8.794E-02,2.0965E-02));
#545 = VECTOR('',#546,1.);
#546 = DIRECTION('',(-0.707106781187,0.707106781187,0.));
#547 = PCURVE('',#527,#548);
#548 = DEFINITIONAL_REPRESENTATION('',(#549),#553);
#549 = LINE('',#550,#551);
#550 = CARTESIAN_POINT('',(1.42E-03,3.750440024791E-07));
#551 = VECTOR('',#552,1.);
#552 = DIRECTION('',(-0.707106781187,0.707106781187));
#553 = ( GEOMETRIC_REPRESENTATION_CONTEXT(2) 
PARAMETRIC_REPRESENTATION_CONTEXT() REPRESENTATION_CONTEXT('2D SPACE',''
  ) );
#554 = ORIENTED_EDGE('',*,*,#555,.T.);
#555 = EDGE_CURVE('',#540,#556,#558,.T.);
#556 = VERTEX_POINT('',#557);
#557 = CARTESIAN_POINT('',(0.62622,8.794E-02,2.0965E-02));
#558 = SURFACE_CURVE('',#559,(#563),.PCURVE_S1.);
#559 = LINE('',#560,#561);
#560 = CARTESIAN_POINT('',(0.62764,8.936E-02,2.0965E-02));
#561 = VECTOR('',#562,1.);
#562 = DIRECTION('',(-0.707106781187,-0.707106781187,0.));
#563 = PCURVE('',#527,#564);
#564 = DEFINITIONAL_REPRESENTATION('',(#565),#569);
#565 = LINE('',#566,#567);
#566 = CARTESIAN_POINT('',(0.,1.420375044002E-03));
#567 = VECTOR('',#568,1.);
#568 = DIRECTION('',(-0.707106781187,-0.707106781187));
#569 = ( GEOMETRIC_REPRESENTATION_CONTEXT(2) 
PARAMETRIC_REPRESENTATION_CONTEXT() REPRESENTATION_CONTEXT('2D SPACE',''
  ) );
#570 = ORIENTED_EDGE('',*,*,#571,.T.);
#571 = EDGE_CURVE('',#556,#517,#572,.T.);
#572 = SURFACE_CURVE('',#573,(#577),.PCURVE_S1.);
#573 = LINE('',#574,#575);
#574 = CARTESIAN_POINT('',(0.62622,8.794E-02,2.0965E-02));
#575 = VECTOR('',#576,1.);
#576 = DIRECTION('',(0.706857843776,-0.70735563099,0.));
#577 = PCURVE('',#527,#578);
#578 = DEFINITIONAL_REPRESENTATION('',(#579),#583);
#579 = LINE('',#580,#581);
#580 = CARTESIAN_POINT('',(-1.42E-03,3.750440024791E-07));
#581 = VECTOR('',#582,1.);
#582 = DIRECTION('',(0.706857843776,-0.70735563099));
#583 = ( GEOMETRIC_REPRESENTATION_CONTEXT(2) 
PARAMETRIC_REPRESENTATION_CONTEXT() REPRESENTATION_CONTEXT('2D SPACE',''
  ) );
#584 = FACE_BOUND('',#585,.F.);
#585 = EDGE_LOOP('',(#586));
#586 = ORIENTED_EDGE('',*,*,#587,.T.);
#587 = EDGE_CURVE('',#588,#588,#590,.T.);
#588 = VERTEX_POINT('',#589);
#589 = CARTESIAN_POINT('',(0.626845,8.794E-02,2.0965E-02));
#590 = SURFACE_CURVE('',#591,(#596),.PCURVE_S1.);
#591 = CIRCLE('',#592,7.95E-04);
#592 = AXIS2_PLACEMENT_3D('',#593,#594,#595);
#593 = CARTESIAN_POINT('',(0.62764,8.794E-02,2.0965E-02));
#594 = DIRECTION('',(0.,0.,-1.));
#595 = DIRECTION('',(-1.,0.,-0.));
#596 = PCURVE('',#527,#597);
#597 = DEFINITIONAL_REPRESENTATION('',(#598),#606);
#598 = ( BOUNDED_CURVE() B_SPLINE_CURVE(2,(#599,#600,#601,#602,#603,#604
,#605),.UNSPECIFIED.,.T.,.F.) B_SPLINE_CURVE_WITH_KNOTS((1,2,2,2,2,1),(
    -2.094395102393,0.,2.094395102393,4.188790204786,6.28318530718,
8.377580409573),.UNSPECIFIED.) CURVE() GEOMETRIC_REPRESENTATION_ITEM() 
RATIONAL_B_SPLINE_CURVE((1.,0.5,1.,0.5,1.,0.5,1.)) REPRESENTATION_ITEM(
  '') );
#599 = CARTESIAN_POINT('',(-7.95E-04,3.750440024791E-07));
#600 = CARTESIAN_POINT('',(-7.95E-04,1.37735543602E-03));
#601 = CARTESIAN_POINT('',(3.975E-04,6.888652400111E-04));
#602 = CARTESIAN_POINT('',(1.59E-03,3.750440024793E-07));
#603 = CARTESIAN_POINT('',(3.975E-04,-6.881151520061E-04));
#604 = CARTESIAN_POINT('',(-7.95E-04,-1.376605348015E-03));
#605 = CARTESIAN_POINT('',(-7.95E-04,3.750440024791E-07));
#606 = ( GEOMETRIC_REPRESENTATION_CONTEXT(2) 
PARAMETRIC_REPRESENTATION_CONTEXT() REPRESENTATION_CONTEXT('2D SPACE',''
  ) );
#607 = ( GEOMETRIC_REPRESENTATION_CONTEXT(3) 
GLOBAL_UNCERTAINTY_ASSIGNED_CONTEXT((#611)) GLOBAL_UNIT_ASSIGNED_CONTEXT
((#608,#609,#610)) REPRESENTATION_CONTEXT('Context #1',
  '3D Context with UNIT and UNCERTAINTY') );
#608 = ( LENGTH_UNIT() NAMED_UNIT(*) SI_UNIT(.MILLI.,.METRE.) );
#609 = ( NAMED_UNIT(*) PLANE_ANGLE_UNIT() SI_UNIT($,.RADIAN.) );
#610 = ( NAMED_UNIT(*) SI_UNIT($,.STERADIAN.) SOLID_ANGLE_UNIT() );
#611 = UNCERTAINTY_MEASURE_WITH_UNIT(LENGTH_MEASURE(1.E-07),#608,
  'distance_accuracy_value','confusion accuracy');
#612 = CONTEXT_DEPENDENT_SHAPE_REPRESENTATION(#613,#615);
#613 = ( REPRESENTATION_RELATIONSHIP('','',#509,#10) 
REPRESENTATION_RELATIONSHIP_WITH_TRANSFORMATION(#614) 
SHAPE_REPRESENTATION_RELATIONSHIP() );
#614 = ITEM_DEFINED_TRANSFORMATION('','',#11,#35);
#615 = PRODUCT_DEFINITION_SHAPE('Placement','Placement of an item',#616
  );
#616 = NEXT_ASSEMBLY_USAGE_OCCURRENCE('6','','',#5,#504,$);
#617 = PRODUCT_RELATED_PRODUCT_CATEGORY('part',$,(#506));
#618 = SHAPE_DEFINITION_REPRESENTATION(#619,#625);
#619 = PRODUCT_DEFINITION_SHAPE('','',#620);
#620 = PRODUCT_DEFINITION('design','',#621,#624);
#621 = PRODUCT_DEFINITION_FORMATION('','',#622);
#622 = PRODUCT('Open CASCADE STEP translator 7.9 1.7',
  'Open CASCADE STEP translator 7.9 1.7','',(#623));
#623 = PRODUCT_CONTEXT('',#2,'mechanical');
#624 = PRODUCT_DEFINITION_CONTEXT('part definition',#2,'design');
#625 = MANIFOLD_SURFACE_SHAPE_REPRESENTATION('',(#11,#626),#719);
#626 = SHELL_BASED_SURFACE_MODEL('',(#627));
#627 = OPEN_SHELL('',(#628));
#628 = ADVANCED_FACE('',(#629,#700),#643,.T.);
#629 = FACE_BOUND('',#630,.T.);
#630 = EDGE_LOOP('',(#631,#654,#670,#686));
#631 = ORIENTED_EDGE('',*,*,#632,.T.);
#632 = EDGE_CURVE('',#633,#635,#637,.T.);
#633 = VERTEX_POINT('',#634);
#634 = CARTESIAN_POINT('',(0.62906,8.794E-02,2.0738E-02));
#635 = VERTEX_POINT('',#636);
#636 = CARTESIAN_POINT('',(0.62764,8.6519E-02,2.0738E-02));
#637 = SURFACE_CURVE('',#638,(#642),.PCURVE_S1.);
#638 = LINE('',#639,#640);
#639 = CARTESIAN_POINT('',(0.62906,8.794E-02,2.0738E-02));
#640 = VECTOR('',#641,1.);
#641 = DIRECTION('',(-0.706857843776,-0.70735563099,0.));
#642 = PCURVE('',#643,#648);
#643 = PLANE('',#644);
#644 = AXIS2_PLACEMENT_3D('',#645,#646,#647);
#645 = CARTESIAN_POINT('',(0.62764,8.7939624956E-02,2.0738E-02));
#646 = DIRECTION('',(-0.,-0.,-1.));
#647 = DIRECTION('',(-1.,0.,0.));
#648 = DEFINITIONAL_REPRESENTATION('',(#649),#653);
#649 = LINE('',#650,#651);
#650 = CARTESIAN_POINT('',(-1.42E-03,3.750440024652E-07));
#651 = VECTOR('',#652,1.);
#652 = DIRECTION('',(0.706857843776,-0.70735563099));
#653 = ( GEOMETRIC_REPRESENTATION_CONTEXT(2) 
PARAMETRIC_REPRESENTATION_CONTEXT() REPRESENTATION_CONTEXT('2D SPACE',''
  ) );
#654 = ORIENTED_EDGE('',*,*,#655,.T.);
#655 = EDGE_CURVE('',#635,#656,#658,.T.);
#656 = VERTEX_POINT('',#657);
#657 = CARTESIAN_POINT('',(0.62622,8.794E-02,2.0738E-02));
#658 = SURFACE_CURVE('',#659,(#663),.PCURVE_S1.);
#659 = LINE('',#660,#661);
#660 = CARTESIAN_POINT('',(0.62764,8.6519E-02,2.0738E-02));
#661 = VECTOR('',#662,1.);
#662 = DIRECTION('',(-0.706857843776,0.70735563099,0.));
#663 = PCURVE('',#643,#664);
#664 = DEFINITIONAL_REPRESENTATION('',(#665),#669);
#665 = LINE('',#666,#667);
#666 = CARTESIAN_POINT('',(-1.110223024625E-16,-1.420624955998E-03));
#667 = VECTOR('',#668,1.);
#668 = DIRECTION('',(0.706857843776,0.70735563099));
#669 = ( GEOMETRIC_REPRESENTATION_CONTEXT(2) 
PARAMETRIC_REPRESENTATION_CONTEXT() REPRESENTATION_CONTEXT('2D SPACE',''
  ) );
#670 = ORIENTED_EDGE('',*,*,#671,.T.);
#671 = EDGE_CURVE('',#656,#672,#674,.T.);
#672 = VERTEX_POINT('',#673);
#673 = CARTESIAN_POINT('',(0.62764,8.936E-02,2.0738E-02));
#674 = SURFACE_CURVE('',#675,(#679),.PCURVE_S1.);
#675 = LINE('',#676,#677);
#676 = CARTESIAN_POINT('',(0.62622,8.794E-02,2.0738E-02));
#677 = VECTOR('',#678,1.);
#678 = DIRECTION('',(0.707106781187,0.707106781187,0.));
#679 = PCURVE('',#643,#680);
#680 = DEFINITIONAL_REPRESENTATION('',(#681),#685);
#681 = LINE('',#682,#683);
#682 = CARTESIAN_POINT('',(1.42E-03,3.750440024652E-07));
#683 = VECTOR('',#684,1.);
#684 = DIRECTION('',(-0.707106781187,0.707106781187));
#685 = ( GEOMETRIC_REPRESENTATION_CONTEXT(2) 
PARAMETRIC_REPRESENTATION_CONTEXT() REPRESENTATION_CONTEXT('2D SPACE',''
  ) );
#686 = ORIENTED_EDGE('',*,*,#687,.T.);
#687 = EDGE_CURVE('',#672,#633,#688,.T.);
#688 = SURFACE_CURVE('',#689,(#693),.PCURVE_S1.);
#689 = LINE('',#690,#691);
#690 = CARTESIAN_POINT('',(0.62764,8.936E-02,2.0738E-02));
#691 = VECTOR('',#692,1.);
#692 = DIRECTION('',(0.707106781187,-0.707106781187,0.));
#693 = PCURVE('',#643,#694);
#694 = DEFINITIONAL_REPRESENTATION('',(#695),#699);
#695 = LINE('',#696,#697);
#696 = CARTESIAN_POINT('',(-1.110223024625E-16,1.420375044002E-03));
#697 = VECTOR('',#698,1.);
#698 = DIRECTION('',(-0.707106781187,-0.707106781187));
#699 = ( GEOMETRIC_REPRESENTATION_CONTEXT(2) 
PARAMETRIC_REPRESENTATION_CONTEXT() REPRESENTATION_CONTEXT('2D SPACE',''
  ) );
#700 = FACE_BOUND('',#701,.F.);
#701 = EDGE_LOOP('',(#702));
#702 = ORIENTED_EDGE('',*,*,#703,.F.);
#703 = EDGE_CURVE('',#704,#704,#706,.T.);
#704 = VERTEX_POINT('',#705);
#705 = CARTESIAN_POINT('',(0.626845,8.794E-02,2.0738E-02));
#706 = SURFACE_CURVE('',#707,(#712),.PCURVE_S1.);
#707 = CIRCLE('',#708,7.95E-04);
#708 = AXIS2_PLACEMENT_3D('',#709,#710,#711);
#709 = CARTESIAN_POINT('',(0.62764,8.794E-02,2.0738E-02));
#710 = DIRECTION('',(0.,0.,-1.));
#711 = DIRECTION('',(-1.,0.,-0.));
#712 = PCURVE('',#643,#713);
#713 = DEFINITIONAL_REPRESENTATION('',(#714),#718);
#714 = CIRCLE('',#715,7.95E-04);
#715 = AXIS2_PLACEMENT_2D('',#716,#717);
#716 = CARTESIAN_POINT('',(-1.110223024625E-16,3.750440024652E-07));
#717 = DIRECTION('',(1.,0.));
#718 = ( GEOMETRIC_REPRESENTATION_CONTEXT(2) 
PARAMETRIC_REPRESENTATION_CONTEXT() REPRESENTATION_CONTEXT('2D SPACE',''
  ) );
#719 = ( GEOMETRIC_REPRESENTATION_CONTEXT(3) 
GLOBAL_UNCERTAINTY_ASSIGNED_CONTEXT((#723)) GLOBAL_UNIT_ASSIGNED_CONTEXT
((#720,#721,#722)) REPRESENTATION_CONTEXT('Context #1',
  '3D Context with UNIT and UNCERTAINTY') );
#720 = ( LENGTH_UNIT() NAMED_UNIT(*) SI_UNIT(.MILLI.,.METRE.) );
#721 = ( NAMED_UNIT(*) PLANE_ANGLE_UNIT() SI_UNIT($,.RADIAN.) );
#722 = ( NAMED_UNIT(*) SI_UNIT($,.STERADIAN.) SOLID_ANGLE_UNIT() );
#723 = UNCERTAINTY_MEASURE_WITH_UNIT(LENGTH_MEASURE(1.E-07),#720,
  'distance_accuracy_value','confusion accuracy');
#724 = CONTEXT_DEPENDENT_SHAPE_REPRESENTATION(#725,#727);
#725 = ( REPRESENTATION_RELATIONSHIP('','',#625,#10) 
REPRESENTATION_RELATIONSHIP_WITH_TRANSFORMATION(#726) 
SHAPE_REPRESENTATION_RELATIONSHIP() );
#726 = ITEM_DEFINED_TRANSFORMATION('','',#11,#39);
#727 = PRODUCT_DEFINITION_SHAPE('Placement','Placement of an item',#728
  );
#728 = NEXT_ASSEMBLY_USAGE_OCCURRENCE('7','','',#5,#620,$);
#729 = PRODUCT_RELATED_PRODUCT_CATEGORY('part',$,(#622));
#730 = SHAPE_DEFINITION_REPRESENTATION(#731,#737);
#731 = PRODUCT_DEFINITION_SHAPE('','',#732);
#732 = PRODUCT_DEFINITION('design','',#733,#736);
#733 = PRODUCT_DEFINITION_FORMATION('','',#734);
#734 = PRODUCT('Open CASCADE STEP translator 7.9 1.8',
  'Open CASCADE STEP translator 7.9 1.8','',(#735));
#735 = PRODUCT_CONTEXT('',#2,'mechanical');
#736 = PRODUCT_DEFINITION_CONTEXT('part definition',#2,'design');
#737 = MANIFOLD_SURFACE_SHAPE_REPRESENTATION('',(#11,#738),#827);
#738 = SHELL_BASED_SURFACE_MODEL('',(#739));
#739 = OPEN_SHELL('',(#740));
#740 = ADVANCED_FACE('',(#741),#754,.T.);
#741 = FACE_BOUND('',#742,.T.);
#742 = EDGE_LOOP('',(#743,#786,#806,#807));
#743 = ORIENTED_EDGE('',*,*,#744,.F.);
#744 = EDGE_CURVE('',#745,#747,#749,.T.);
#745 = VERTEX_POINT('',#746);
#746 = CARTESIAN_POINT('',(0.626845436481,8.793956946548E-02,
    2.096505994469E-02));
#747 = VERTEX_POINT('',#748);
#748 = CARTESIAN_POINT('',(0.626845436481,8.793956946548E-02,
    2.073778789751E-02));
#749 = SEAM_CURVE('',#750,(#753,#779),.PCURVE_S1.);
#750 = B_SPLINE_CURVE_WITH_KNOTS('',1,(#751,#752),.UNSPECIFIED.,.F.,.F.,
  (2,2),(-2.27E-04,0.),.PIECEWISE_BEZIER_KNOTS.);
#751 = CARTESIAN_POINT('',(0.626845436481,8.793956946548E-02,
    2.096505994469E-02));
#752 = CARTESIAN_POINT('',(0.626845436481,8.793956946548E-02,
    2.073778789751E-02));
#753 = PCURVE('',#754,#773);
#754 = ( BOUNDED_SURFACE() B_SPLINE_SURFACE(2,1,(
    (#755,#756)
    ,(#757,#758)
    ,(#759,#760)
    ,(#761,#762)
    ,(#763,#764)
    ,(#765,#766)
    ,(#767,#768)
    ,(#769,#770)
,(#771,#772
    )),.UNSPECIFIED.,.T.,.F.,.F.) B_SPLINE_SURFACE_WITH_KNOTS((3,2,2,2,3
    ),(2,2),(3.141593,4.18879,6.283185,8.37758,9.424778),(-2.27E-04,0.),
.UNSPECIFIED.) GEOMETRIC_REPRESENTATION_ITEM() RATIONAL_B_SPLINE_SURFACE
((
    (0.75,0.75)
    ,(0.75,0.75)
    ,(1.,1.)
    ,(0.5,0.5)
    ,(1.,1.)
    ,(0.5,0.5)
    ,(1.,1.)
    ,(0.75,0.75)
,(0.75,0.75))) REPRESENTATION_ITEM('') SURFACE() );
#755 = CARTESIAN_POINT('',(0.626845436481,8.793956946548E-02,
    2.096505994469E-02));
#756 = CARTESIAN_POINT('',(0.626845436481,8.793956946548E-02,
    2.073778789751E-02));
#757 = CARTESIAN_POINT('',(0.626845436481,8.839887755553E-02,
    2.096505994469E-02));
#758 = CARTESIAN_POINT('',(0.626845436481,8.839887755553E-02,
    2.073778789751E-02));
#759 = CARTESIAN_POINT('',(0.627242971893,8.862853160055E-02,
    2.096505994469E-02));
#760 = CARTESIAN_POINT('',(0.627242971893,8.862853160055E-02,
    2.073778789751E-02));
#761 = CARTESIAN_POINT('',(0.628435578131,8.931749373562E-02,
    2.096505994469E-02));
#762 = CARTESIAN_POINT('',(0.628435578131,8.931749373562E-02,
    2.073778789751E-02));
#763 = CARTESIAN_POINT('',(0.628435578131,8.793956946548E-02,
    2.096505994469E-02));
#764 = CARTESIAN_POINT('',(0.628435578131,8.793956946548E-02,
    2.073778789751E-02));
#765 = CARTESIAN_POINT('',(0.628435578131,8.656164519534E-02,
    2.096505994469E-02));
#766 = CARTESIAN_POINT('',(0.628435578131,8.656164519534E-02,
    2.073778789751E-02));
#767 = CARTESIAN_POINT('',(0.627242971893,8.725060733041E-02,
    2.096505994469E-02));
#768 = CARTESIAN_POINT('',(0.627242971893,8.725060733041E-02,
    2.073778789751E-02));
#769 = CARTESIAN_POINT('',(0.626845436481,8.748026137543E-02,
    2.096505994469E-02));
#770 = CARTESIAN_POINT('',(0.626845436481,8.748026137543E-02,
    2.073778789751E-02));
#771 = CARTESIAN_POINT('',(0.626845436481,8.793956946548E-02,
    2.096505994469E-02));
#772 = CARTESIAN_POINT('',(0.626845436481,8.793956946548E-02,
    2.073778789751E-02));
#773 = DEFINITIONAL_REPRESENTATION('',(#774),#778);
#774 = LINE('',#775,#776);
#775 = CARTESIAN_POINT('',(3.141593,0.));
#776 = VECTOR('',#777,1.);
#777 = DIRECTION('',(0.,1.));
#778 = ( GEOMETRIC_REPRESENTATION_CONTEXT(2) 
PARAMETRIC_REPRESENTATION_CONTEXT() REPRESENTATION_CONTEXT('2D SPACE',''
  ) );
#779 = PCURVE('',#754,#780);
#780 = DEFINITIONAL_REPRESENTATION('',(#781),#785);
#781 = LINE('',#782,#783);
#782 = CARTESIAN_POINT('',(9.424778,0.));
#783 = VECTOR('',#784,1.);
#784 = DIRECTION('',(0.,1.));
#785 = ( GEOMETRIC_REPRESENTATION_CONTEXT(2) 
PARAMETRIC_REPRESENTATION_CONTEXT() REPRESENTATION_CONTEXT('2D SPACE',''
  ) );
#786 = ORIENTED_EDGE('',*,*,#787,.T.);
#787 = EDGE_CURVE('',#745,#745,#788,.T.);
#788 = SURFACE_CURVE('',#789,(#799),.PCURVE_S1.);
#789 = ( BOUNDED_CURVE() B_SPLINE_CURVE(2,(#790,#791,#792,#793,#794,#795
,#796,#797,#798),.UNSPECIFIED.,.T.,.F.) B_SPLINE_CURVE_WITH_KNOTS((3,2,2
    ,2,3),(3.141593,4.18879,6.283185,8.37758,9.424778),.UNSPECIFIED.) 
CURVE() GEOMETRIC_REPRESENTATION_ITEM() RATIONAL_B_SPLINE_CURVE((0.75,
0.75,1.,0.5,1.,0.5,1.,0.75,0.75)) REPRESENTATION_ITEM('') );
#790 = CARTESIAN_POINT('',(0.626845436481,8.793956946548E-02,
    2.096505994469E-02));
#791 = CARTESIAN_POINT('',(0.626845436481,8.839887755553E-02,
    2.096505994469E-02));
#792 = CARTESIAN_POINT('',(0.627242971893,8.862853160055E-02,
    2.096505994469E-02));
#793 = CARTESIAN_POINT('',(0.628435578131,8.931749373562E-02,
    2.096505994469E-02));
#794 = CARTESIAN_POINT('',(0.628435578131,8.793956946548E-02,
    2.096505994469E-02));
#795 = CARTESIAN_POINT('',(0.628435578131,8.656164519534E-02,
    2.096505994469E-02));
#796 = CARTESIAN_POINT('',(0.627242971893,8.725060733041E-02,
    2.096505994469E-02));
#797 = CARTESIAN_POINT('',(0.626845436481,8.748026137543E-02,
    2.096505994469E-02));
#798 = CARTESIAN_POINT('',(0.626845436481,8.793956946548E-02,
    2.096505994469E-02));
#799 = PCURVE('',#754,#800);
#800 = DEFINITIONAL_REPRESENTATION('',(#801),#805);
#801 = LINE('',#802,#803);
#802 = CARTESIAN_POINT('',(0.,-2.27E-04));
#803 = VECTOR('',#804,1.);
#804 = DIRECTION('',(1.,0.));
#805 = ( GEOMETRIC_REPRESENTATION_CONTEXT(2) 
PARAMETRIC_REPRESENTATION_CONTEXT() REPRESENTATION_CONTEXT('2D SPACE',''
  ) );
#806 = ORIENTED_EDGE('',*,*,#744,.T.);
#807 = ORIENTED_EDGE('',*,*,#808,.F.);
#808 = EDGE_CURVE('',#747,#747,#809,.T.);
#809 = SURFACE_CURVE('',#810,(#820),.PCURVE_S1.);
#810 = ( BOUNDED_CURVE() B_SPLINE_CURVE(2,(#811,#812,#813,#814,#815,#816
,#817,#818,#819),.UNSPECIFIED.,.T.,.F.) B_SPLINE_CURVE_WITH_KNOTS((3,2,2
    ,2,3),(3.141593,4.18879,6.283185,8.37758,9.424778),.UNSPECIFIED.) 
CURVE() GEOMETRIC_REPRESENTATION_ITEM() RATIONAL_B_SPLINE_CURVE((0.75,
0.75,1.,0.5,1.,0.5,1.,0.75,0.75)) REPRESENTATION_ITEM('') );
#811 = CARTESIAN_POINT('',(0.626845436481,8.793956946548E-02,
    2.073778789751E-02));
#812 = CARTESIAN_POINT('',(0.626845436481,8.839887755553E-02,
    2.073778789751E-02));
#813 = CARTESIAN_POINT('',(0.627242971893,8.862853160055E-02,
    2.073778789751E-02));
#814 = CARTESIAN_POINT('',(0.628435578131,8.931749373562E-02,
    2.073778789751E-02));
#815 = CARTESIAN_POINT('',(0.628435578131,8.793956946548E-02,
    2.073778789751E-02));
#816 = CARTESIAN_POINT('',(0.628435578131,8.656164519534E-02,
    2.073778789751E-02));
#817 = CARTESIAN_POINT('',(0.627242971893,8.725060733041E-02,
    2.073778789751E-02));
#818 = CARTESIAN_POINT('',(0.626845436481,8.748026137543E-02,
    2.073778789751E-02));
#819 = CARTESIAN_POINT('',(0.626845436481,8.793956946548E-02,
    2.073778789751E-02));
#820 = PCURVE('',#754,#821);
#821 = DEFINITIONAL_REPRESENTATION('',(#822),#826);
#822 = LINE('',#823,#824);
#823 = CARTESIAN_POINT('',(0.,0.));
#824 = VECTOR('',#825,1.);
#825 = DIRECTION('',(1.,0.));
#826 = ( GEOMETRIC_REPRESENTATION_CONTEXT(2) 
PARAMETRIC_REPRESENTATION_CONTEXT() REPRESENTATION_CONTEXT('2D SPACE',''
  ) );
#827 = ( GEOMETRIC_REPRESENTATION_CONTEXT(3) 
GLOBAL_UNCERTAINTY_ASSIGNED_CONTEXT((#831)) GLOBAL_UNIT_ASSIGNED_CONTEXT
((#828,#829,#830)) REPRESENTATION_CONTEXT('Context #1',
  '3D Context with UNIT and UNCERTAINTY') );
#828 = ( LENGTH_UNIT() NAMED_UNIT(*) SI_UNIT(.MILLI.,.METRE.) );
#829 = ( NAMED_UNIT(*) PLANE_ANGLE_UNIT() SI_UNIT($,.RADIAN.) );
#830 = ( NAMED_UNIT(*) SI_UNIT($,.STERADIAN.) SOLID_ANGLE_UNIT() );
#831 = UNCERTAINTY_MEASURE_WITH_UNIT(LENGTH_MEASURE(1.E-07),#828,
  'distance_accuracy_value','confusion accuracy');
#832 = CONTEXT_DEPENDENT_SHAPE_REPRESENTATION(#833,#835);
#833 = ( REPRESENTATION_RELATIONSHIP('','',#737,#10) 
REPRESENTATION_RELATIONSHIP_WITH_TRANSFORMATION(#834) 
SHAPE_REPRESENTATION_RELATIONSHIP() );
#834 = ITEM_DEFINED_TRANSFORMATION('','',#11,#43);
#835 = PRODUCT_DEFINITION_SHAPE('Placement','Placement of an item',#836
  );
#836 = NEXT_ASSEMBLY_USAGE_OCCURRENCE('8','','',#5,#732,$);
#837 = PRODUCT_RELATED_PRODUCT_CATEGORY('part',$,(#734));
#838 = SHAPE_DEFINITION_REPRESENTATION(#839,#845);
#839 = PRODUCT_DEFINITION_SHAPE('','',#840);
#840 = PRODUCT_DEFINITION('design','',#841,#844);
#841 = PRODUCT_DEFINITION_FORMATION('','',#842);
#842 = PRODUCT('Open CASCADE STEP translator 7.9 1.9',
  'Open CASCADE STEP translator 7.9 1.9','',(#843));
#843 = PRODUCT_CONTEXT('',#2,'mechanical');
#844 = PRODUCT_DEFINITION_CONTEXT('part definition',#2,'design');
#845 = MANIFOLD_SURFACE_SHAPE_REPRESENTATION('',(#11,#846),#916);
#846 = SHELL_BASED_SURFACE_MODEL('',(#847));
#847 = OPEN_SHELL('',(#848));
#848 = ADVANCED_FACE('',(#849),#862,.T.);
#849 = FACE_BOUND('',#850,.T.);
#850 = EDGE_LOOP('',(#851,#873,#888,#903));
#851 = ORIENTED_EDGE('',*,*,#852,.F.);
#852 = EDGE_CURVE('',#853,#855,#857,.T.);
#853 = VERTEX_POINT('',#854);
#854 = CARTESIAN_POINT('',(0.627639721384,8.793956946548E-02,
    2.073778789751E-02));
#855 = VERTEX_POINT('',#856);
#856 = CARTESIAN_POINT('',(0.626219266839,8.936002401051E-02,
    2.073778789751E-02));
#857 = SURFACE_CURVE('',#858,(#861),.PCURVE_S1.);
#858 = B_SPLINE_CURVE_WITH_KNOTS('',1,(#859,#860),.UNSPECIFIED.,.F.,.F.,
  (2,2),(0.,2.009E-03),.PIECEWISE_BEZIER_KNOTS.);
#859 = CARTESIAN_POINT('',(0.627639721384,8.793956946548E-02,
    2.073778789751E-02));
#860 = CARTESIAN_POINT('',(0.626219266839,8.936002401051E-02,
    2.073778789751E-02));
#861 = PCURVE('',#862,#867);
#862 = B_SPLINE_SURFACE_WITH_KNOTS('',1,1,(
    (#863,#864)
    ,(#865,#866
    )),.UNSPECIFIED.,.F.,.F.,.F.,(2,2),(2,2),(0.,2.27E-04),(0.,2.009E-03
    ),.PIECEWISE_BEZIER_KNOTS.);
#863 = CARTESIAN_POINT('',(0.627639721384,8.793956946548E-02,
    2.073778789751E-02));
#864 = CARTESIAN_POINT('',(0.626219266839,8.936002401051E-02,
    2.073778789751E-02));
#865 = CARTESIAN_POINT('',(0.627639721384,8.793956946548E-02,
    2.096505994469E-02));
#866 = CARTESIAN_POINT('',(0.626219266839,8.936002401051E-02,
    2.096505994469E-02));
#867 = DEFINITIONAL_REPRESENTATION('',(#868),#872);
#868 = LINE('',#869,#870);
#869 = CARTESIAN_POINT('',(0.,0.));
#870 = VECTOR('',#871,1.);
#871 = DIRECTION('',(0.,1.));
#872 = ( GEOMETRIC_REPRESENTATION_CONTEXT(2) 
PARAMETRIC_REPRESENTATION_CONTEXT() REPRESENTATION_CONTEXT('2D SPACE',''
  ) );
#873 = ORIENTED_EDGE('',*,*,#874,.T.);
#874 = EDGE_CURVE('',#853,#875,#877,.T.);
#875 = VERTEX_POINT('',#876);
#876 = CARTESIAN_POINT('',(0.627639721384,8.793956946548E-02,
    2.096505994469E-02));
#877 = SURFACE_CURVE('',#878,(#881),.PCURVE_S1.);
#878 = B_SPLINE_CURVE_WITH_KNOTS('',1,(#879,#880),.UNSPECIFIED.,.F.,.F.,
  (2,2),(0.,2.27E-04),.PIECEWISE_BEZIER_KNOTS.);
#879 = CARTESIAN_POINT('',(0.627639721384,8.793956946548E-02,
    2.073778789751E-02));
#880 = CARTESIAN_POINT('',(0.627639721384,8.793956946548E-02,
    2.096505994469E-02));
#881 = PCURVE('',#862,#882);
#882 = DEFINITIONAL_REPRESENTATION('',(#883),#887);
#883 = LINE('',#884,#885);
#884 = CARTESIAN_POINT('',(0.,0.));
#885 = VECTOR('',#886,1.);
#886 = DIRECTION('',(1.,0.));
#887 = ( GEOMETRIC_REPRESENTATION_CONTEXT(2) 
PARAMETRIC_REPRESENTATION_CONTEXT() REPRESENTATION_CONTEXT('2D SPACE',''
  ) );
#888 = ORIENTED_EDGE('',*,*,#889,.T.);
#889 = EDGE_CURVE('',#875,#890,#892,.T.);
#890 = VERTEX_POINT('',#891);
#891 = CARTESIAN_POINT('',(0.626219266839,8.936002401051E-02,
    2.096505994469E-02));
#892 = SURFACE_CURVE('',#893,(#896),.PCURVE_S1.);
#893 = B_SPLINE_CURVE_WITH_KNOTS('',1,(#894,#895),.UNSPECIFIED.,.F.,.F.,
  (2,2),(0.,2.009E-03),.PIECEWISE_BEZIER_KNOTS.);
#894 = CARTESIAN_POINT('',(0.627639721384,8.793956946548E-02,
    2.096505994469E-02));
#895 = CARTESIAN_POINT('',(0.626219266839,8.936002401051E-02,
    2.096505994469E-02));
#896 = PCURVE('',#862,#897);
#897 = DEFINITIONAL_REPRESENTATION('',(#898),#902);
#898 = LINE('',#899,#900);
#899 = CARTESIAN_POINT('',(2.27E-04,0.));
#900 = VECTOR('',#901,1.);
#901 = DIRECTION('',(0.,1.));
#902 = ( GEOMETRIC_REPRESENTATION_CONTEXT(2) 
PARAMETRIC_REPRESENTATION_CONTEXT() REPRESENTATION_CONTEXT('2D SPACE',''
  ) );
#903 = ORIENTED_EDGE('',*,*,#904,.F.);
#904 = EDGE_CURVE('',#855,#890,#905,.T.);
#905 = SURFACE_CURVE('',#906,(#909),.PCURVE_S1.);
#906 = B_SPLINE_CURVE_WITH_KNOTS('',1,(#907,#908),.UNSPECIFIED.,.F.,.F.,
  (2,2),(0.,2.27E-04),.PIECEWISE_BEZIER_KNOTS.);
#907 = CARTESIAN_POINT('',(0.626219266839,8.936002401051E-02,
    2.073778789751E-02));
#908 = CARTESIAN_POINT('',(0.626219266839,8.936002401051E-02,
    2.096505994469E-02));
#909 = PCURVE('',#862,#910);
#910 = DEFINITIONAL_REPRESENTATION('',(#911),#915);
#911 = LINE('',#912,#913);
#912 = CARTESIAN_POINT('',(0.,2.009E-03));
#913 = VECTOR('',#914,1.);
#914 = DIRECTION('',(1.,0.));
#915 = ( GEOMETRIC_REPRESENTATION_CONTEXT(2) 
PARAMETRIC_REPRESENTATION_CONTEXT() REPRESENTATION_CONTEXT('2D SPACE',''
  ) );
#916 = ( GEOMETRIC_REPRESENTATION_CONTEXT(3) 
GLOBAL_UNCERTAINTY_ASSIGNED_CONTEXT((#920)) GLOBAL_UNIT_ASSIGNED_CONTEXT
((#917,#918,#919)) REPRESENTATION_CONTEXT('Context #1',
  '3D Context with UNIT and UNCERTAINTY') );
#917 = ( LENGTH_UNIT() NAMED_UNIT(*) SI_UNIT(.MILLI.,.METRE.) );
#918 = ( NAMED_UNIT(*) PLANE_ANGLE_UNIT() SI_UNIT($,.RADIAN.) );
#919 = ( NAMED_UNIT(*) SI_UNIT($,.STERADIAN.) SOLID_ANGLE_UNIT() );
#920 = UNCERTAINTY_MEASURE_WITH_UNIT(LENGTH_MEASURE(1.E-07),#917,
  'distance_accuracy_value','confusion accuracy');
#921 = CONTEXT_DEPENDENT_SHAPE_REPRESENTATION(#922,#924);
#922 = ( REPRESENTATION_RELATIONSHIP('','',#845,#10) 
REPRESENTATION_RELATIONSHIP_WITH_TRANSFORMATION(#923) 
SHAPE_REPRESENTATION_RELATIONSHIP() );
#923 = ITEM_DEFINED_TRANSFORMATION('','',#11,#47);
#924 = PRODUCT_DEFINITION_SHAPE('Placement','Placement of an item',#925
  );
#925 = NEXT_ASSEMBLY_USAGE_OCCURRENCE('9','','',#5,#840,$);
#926 = PRODUCT_RELATED_PRODUCT_CATEGORY('part',$,(#842));
ENDSEC;
END-ISO-10303-21;
