ISO-10303-21;
HEADER;
FILE_DESCRIPTION(('Open CASCADE Model'),'2;1');
FILE_NAME('Open CASCADE Shape Model','2026-06-29T02:10:42',('Author'),(
    'Open CASCADE'),'Open CASCADE STEP processor 7.9','Open CASCADE 7.9'
  ,'Unknown');
FILE_SCHEMA(('AUTOMOTIVE_DESIGN { 1 0 10303 214 1 1 1 1 }'));
ENDSEC;
DATA;
#1 = APPLICATION_PROTOCOL_DEFINITION('international standard',
  'automotive_design',2000,#2);
#2 = APPLICATION_CONTEXT(
  'core data for automotive mechanical design processes');
#3 = SHAPE_DEFINITION_REPRESENTATION(#4,#10);
#4 = PRODUCT_DEFINITION_SHAPE('','',#5);
#5 = PRODUCT_DEFINITION('design','',#6,#9);
#6 = PRODUCT_DEFINITION_FORMATION('','',#7);
#7 = PRODUCT('Open CASCADE STEP translator 7.9 1',
  'Open CASCADE STEP translator 7.9 1','',(#8));
#8 = PRODUCT_CONTEXT('',#2,'mechanical');
#9 = PRODUCT_DEFINITION_CONTEXT('part definition',#2,'design');
#10 = SHAPE_REPRESENTATION('',(#11,#15,#19,#23,#27,#31,#35,#39),#43);
#11 = AXIS2_PLACEMENT_3D('',#12,#13,#14);
#12 = CARTESIAN_POINT('',(0.,0.,0.));
#13 = DIRECTION('',(0.,0.,1.));
#14 = DIRECTION('',(1.,0.,-0.));
#15 = AXIS2_PLACEMENT_3D('',#16,#17,#18);
#16 = CARTESIAN_POINT('',(0.,0.,0.));
#17 = DIRECTION('',(0.,0.,1.));
#18 = DIRECTION('',(1.,0.,-0.));
#19 = AXIS2_PLACEMENT_3D('',#20,#21,#22);
#20 = CARTESIAN_POINT('',(0.,0.,0.));
#21 = DIRECTION('',(0.,0.,1.));
#22 = DIRECTION('',(1.,0.,-0.));
#23 = AXIS2_PLACEMENT_3D('',#24,#25,#26);
#24 = CARTESIAN_POINT('',(0.,0.,0.));
#25 = DIRECTION('',(0.,0.,1.));
#26 = DIRECTION('',(1.,0.,-0.));
#27 = AXIS2_PLACEMENT_3D('',#28,#29,#30);
#28 = CARTESIAN_POINT('',(0.,0.,0.));
#29 = DIRECTION('',(0.,0.,1.));
#30 = DIRECTION('',(1.,0.,-0.));
#31 = AXIS2_PLACEMENT_3D('',#32,#33,#34);
#32 = CARTESIAN_POINT('',(0.,0.,0.));
#33 = DIRECTION('',(0.,0.,1.));
#34 = DIRECTION('',(1.,0.,-0.));
#35 = AXIS2_PLACEMENT_3D('',#36,#37,#38);
#36 = CARTESIAN_POINT('',(0.,0.,0.));
#37 = DIRECTION('',(0.,0.,1.));
#38 = DIRECTION('',(1.,0.,-0.));
#39 = AXIS2_PLACEMENT_3D('',#40,#41,#42);
#40 = CARTESIAN_POINT('',(0.,0.,0.));
#41 = DIRECTION('',(0.,0.,1.));
#42 = DIRECTION('',(1.,0.,-0.));
#43 = ( GEOMETRIC_REPRESENTATION_CONTEXT(3) 
GLOBAL_UNCERTAINTY_ASSIGNED_CONTEXT((#47)) GLOBAL_UNIT_ASSIGNED_CONTEXT(
(#44,#45,#46)) REPRESENTATION_CONTEXT('Context #1',
  '3D Context with UNIT and UNCERTAINTY') );
#44 = ( LENGTH_UNIT() NAMED_UNIT(*) SI_UNIT(.MILLI.,.METRE.) );
#45 = ( NAMED_UNIT(*) PLANE_ANGLE_UNIT() SI_UNIT($,.RADIAN.) );
#46 = ( NAMED_UNIT(*) SI_UNIT($,.STERADIAN.) SOLID_ANGLE_UNIT() );
#47 = UNCERTAINTY_MEASURE_WITH_UNIT(LENGTH_MEASURE(1.E-07),#44,
  'distance_accuracy_value','confusion accuracy');
#48 = PRODUCT_RELATED_PRODUCT_CATEGORY('part',$,(#7));
#49 = SHAPE_DEFINITION_REPRESENTATION(#50,#56);
#50 = PRODUCT_DEFINITION_SHAPE('','',#51);
#51 = PRODUCT_DEFINITION('design','',#52,#55);
#52 = PRODUCT_DEFINITION_FORMATION('','',#53);
#53 = PRODUCT('Open CASCADE STEP translator 7.9 1.1',
  'Open CASCADE STEP translator 7.9 1.1','',(#54));
#54 = PRODUCT_CONTEXT('',#2,'mechanical');
#55 = PRODUCT_DEFINITION_CONTEXT('part definition',#2,'design');
#56 = MANIFOLD_SURFACE_SHAPE_REPRESENTATION('',(#11,#57),#127);
#57 = SHELL_BASED_SURFACE_MODEL('',(#58));
#58 = OPEN_SHELL('',(#59));
#59 = ADVANCED_FACE('',(#60),#73,.T.);
#60 = FACE_BOUND('',#61,.T.);
#61 = EDGE_LOOP('',(#62,#84,#99,#114));
#62 = ORIENTED_EDGE('',*,*,#63,.F.);
#63 = EDGE_CURVE('',#64,#66,#68,.T.);
#64 = VERTEX_POINT('',#65);
#65 = CARTESIAN_POINT('',(0.180359015242,5.131165242445E-02,
    0.50084459292));
#66 = VERTEX_POINT('',#67);
#67 = CARTESIAN_POINT('',(0.180359015242,5.181843609904E-02,
    0.50084459292));
#68 = SURFACE_CURVE('',#69,(#72),.PCURVE_S1.);
#69 = B_SPLINE_CURVE_WITH_KNOTS('',1,(#70,#71),.UNSPECIFIED.,.F.,.F.,(2,
    2),(-5.07E-04,0.),.PIECEWISE_BEZIER_KNOTS.);
#70 = CARTESIAN_POINT('',(0.180359015242,5.131165242445E-02,
    0.50084459292));
#71 = CARTESIAN_POINT('',(0.180359015242,5.181843609904E-02,
    0.50084459292));
#72 = PCURVE('',#73,#78);
#73 = B_SPLINE_SURFACE_WITH_KNOTS('',1,1,(
    (#74,#75)
    ,(#76,#77
    )),.UNSPECIFIED.,.F.,.F.,.F.,(2,2),(2,2),(0.,8.446E-03),(-5.07E-04,
    0.),.PIECEWISE_BEZIER_KNOTS.);
#74 = CARTESIAN_POINT('',(0.180359015242,5.131165242445E-02,
    0.50084459292));
#75 = CARTESIAN_POINT('',(0.180359015242,5.181843609904E-02,
    0.50084459292));
#76 = CARTESIAN_POINT('',(0.180359015242,5.131165242445E-02,
    0.509290522119));
#77 = CARTESIAN_POINT('',(0.180359015242,5.181843609904E-02,
    0.509290522119));
#78 = DEFINITIONAL_REPRESENTATION('',(#79),#83);
#79 = LINE('',#80,#81);
#80 = CARTESIAN_POINT('',(0.,0.));
#81 = VECTOR('',#82,1.);
#82 = DIRECTION('',(0.,1.));
#83 = ( GEOMETRIC_REPRESENTATION_CONTEXT(2) 
PARAMETRIC_REPRESENTATION_CONTEXT() REPRESENTATION_CONTEXT('2D SPACE',''
  ) );
#84 = ORIENTED_EDGE('',*,*,#85,.T.);
#85 = EDGE_CURVE('',#64,#86,#88,.T.);
#86 = VERTEX_POINT('',#87);
#87 = CARTESIAN_POINT('',(0.180359015242,5.131165242445E-02,
    0.509290522119));
#88 = SURFACE_CURVE('',#89,(#92),.PCURVE_S1.);
#89 = B_SPLINE_CURVE_WITH_KNOTS('',1,(#90,#91),.UNSPECIFIED.,.F.,.F.,(2,
    2),(0.,8.446E-03),.PIECEWISE_BEZIER_KNOTS.);
#90 = CARTESIAN_POINT('',(0.180359015242,5.131165242445E-02,
    0.50084459292));
#91 = CARTESIAN_POINT('',(0.180359015242,5.131165242445E-02,
    0.509290522119));
#92 = PCURVE('',#73,#93);
#93 = DEFINITIONAL_REPRESENTATION('',(#94),#98);
#94 = LINE('',#95,#96);
#95 = CARTESIAN_POINT('',(0.,-5.07E-04));
#96 = VECTOR('',#97,1.);
#97 = DIRECTION('',(1.,0.));
#98 = ( GEOMETRIC_REPRESENTATION_CONTEXT(2) 
PARAMETRIC_REPRESENTATION_CONTEXT() REPRESENTATION_CONTEXT('2D SPACE',''
  ) );
#99 = ORIENTED_EDGE('',*,*,#100,.T.);
#100 = EDGE_CURVE('',#86,#101,#103,.T.);
#101 = VERTEX_POINT('',#102);
#102 = CARTESIAN_POINT('',(0.180359015242,5.181843609904E-02,
    0.509290522119));
#103 = SURFACE_CURVE('',#104,(#107),.PCURVE_S1.);
#104 = B_SPLINE_CURVE_WITH_KNOTS('',1,(#105,#106),.UNSPECIFIED.,.F.,.F.,
  (2,2),(-5.07E-04,0.),.PIECEWISE_BEZIER_KNOTS.);
#105 = CARTESIAN_POINT('',(0.180359015242,5.131165242445E-02,
    0.509290522119));
#106 = CARTESIAN_POINT('',(0.180359015242,5.181843609904E-02,
    0.509290522119));
#107 = PCURVE('',#73,#108);
#108 = DEFINITIONAL_REPRESENTATION('',(#109),#113);
#109 = LINE('',#110,#111);
#110 = CARTESIAN_POINT('',(8.446E-03,0.));
#111 = VECTOR('',#112,1.);
#112 = DIRECTION('',(0.,1.));
#113 = ( GEOMETRIC_REPRESENTATION_CONTEXT(2) 
PARAMETRIC_REPRESENTATION_CONTEXT() REPRESENTATION_CONTEXT('2D SPACE',''
  ) );
#114 = ORIENTED_EDGE('',*,*,#115,.F.);
#115 = EDGE_CURVE('',#66,#101,#116,.T.);
#116 = SURFACE_CURVE('',#117,(#120),.PCURVE_S1.);
#117 = B_SPLINE_CURVE_WITH_KNOTS('',1,(#118,#119),.UNSPECIFIED.,.F.,.F.,
  (2,2),(0.,8.446E-03),.PIECEWISE_BEZIER_KNOTS.);
#118 = CARTESIAN_POINT('',(0.180359015242,5.181843609904E-02,
    0.50084459292));
#119 = CARTESIAN_POINT('',(0.180359015242,5.181843609904E-02,
    0.509290522119));
#120 = PCURVE('',#73,#121);
#121 = DEFINITIONAL_REPRESENTATION('',(#122),#126);
#122 = LINE('',#123,#124);
#123 = CARTESIAN_POINT('',(0.,0.));
#124 = VECTOR('',#125,1.);
#125 = DIRECTION('',(1.,0.));
#126 = ( GEOMETRIC_REPRESENTATION_CONTEXT(2) 
PARAMETRIC_REPRESENTATION_CONTEXT() REPRESENTATION_CONTEXT('2D SPACE',''
  ) );
#127 = ( GEOMETRIC_REPRESENTATION_CONTEXT(3) 
GLOBAL_UNCERTAINTY_ASSIGNED_CONTEXT((#131)) GLOBAL_UNIT_ASSIGNED_CONTEXT
((#128,#129,#130)) REPRESENTATION_CONTEXT('Context #1',
  '3D Context with UNIT and UNCERTAINTY') );
#128 = ( LENGTH_UNIT() NAMED_UNIT(*) SI_UNIT(.MILLI.,.METRE.) );
#129 = ( NAMED_UNIT(*) PLANE_ANGLE_UNIT() SI_UNIT($,.RADIAN.) );
#130 = ( NAMED_UNIT(*) SI_UNIT($,.STERADIAN.) SOLID_ANGLE_UNIT() );
#131 = UNCERTAINTY_MEASURE_WITH_UNIT(LENGTH_MEASURE(1.E-07),#128,
  'distance_accuracy_value','confusion accuracy');
#132 = CONTEXT_DEPENDENT_SHAPE_REPRESENTATION(#133,#135);
#133 = ( REPRESENTATION_RELATIONSHIP('','',#56,#10) 
REPRESENTATION_RELATIONSHIP_WITH_TRANSFORMATION(#134) 
SHAPE_REPRESENTATION_RELATIONSHIP() );
#134 = ITEM_DEFINED_TRANSFORMATION('','',#11,#15);
#135 = PRODUCT_DEFINITION_SHAPE('Placement','Placement of an item',#136
  );
#136 = NEXT_ASSEMBLY_USAGE_OCCURRENCE('1','','',#5,#51,$);
#137 = PRODUCT_RELATED_PRODUCT_CATEGORY('part',$,(#53));
#138 = SHAPE_DEFINITION_REPRESENTATION(#139,#145);
#139 = PRODUCT_DEFINITION_SHAPE('','',#140);
#140 = PRODUCT_DEFINITION('design','',#141,#144);
#141 = PRODUCT_DEFINITION_FORMATION('','',#142);
#142 = PRODUCT('Open CASCADE STEP translator 7.9 1.2',
  'Open CASCADE STEP translator 7.9 1.2','',(#143));
#143 = PRODUCT_CONTEXT('',#2,'mechanical');
#144 = PRODUCT_DEFINITION_CONTEXT('part definition',#2,'design');
#145 = MANIFOLD_SURFACE_SHAPE_REPRESENTATION('',(#11,#146),#216);
#146 = SHELL_BASED_SURFACE_MODEL('',(#147));
#147 = OPEN_SHELL('',(#148));
#148 = ADVANCED_FACE('',(#149),#162,.T.);
#149 = FACE_BOUND('',#150,.T.);
#150 = EDGE_LOOP('',(#151,#173,#188,#203));
#151 = ORIENTED_EDGE('',*,*,#152,.F.);
#152 = EDGE_CURVE('',#153,#155,#157,.T.);
#153 = VERTEX_POINT('',#154);
#154 = CARTESIAN_POINT('',(0.180359015242,5.181843609904E-02,
    0.509290522119));
#155 = VERTEX_POINT('',#156);
#156 = CARTESIAN_POINT('',(0.180359015242,5.181843609904E-02,
    0.50084459292));
#157 = SURFACE_CURVE('',#158,(#161),.PCURVE_S1.);
#158 = B_SPLINE_CURVE_WITH_KNOTS('',1,(#159,#160),.UNSPECIFIED.,.F.,.F.,
  (2,2),(-4.223E-03,4.223E-03),.PIECEWISE_BEZIER_KNOTS.);
#159 = CARTESIAN_POINT('',(0.180359015242,5.181843609904E-02,
    0.509290522119));
#160 = CARTESIAN_POINT('',(0.180359015242,5.181843609904E-02,
    0.50084459292));
#161 = PCURVE('',#162,#167);
#162 = B_SPLINE_SURFACE_WITH_KNOTS('',1,1,(
    (#163,#164)
    ,(#165,#166
    )),.UNSPECIFIED.,.F.,.F.,.F.,(2,2),(2,2),(-4.223E-03,4.223E-03),(
    -4.223E-03,4.223E-03),.PIECEWISE_BEZIER_KNOTS.);
#163 = CARTESIAN_POINT('',(0.180359015242,5.181843609904E-02,
    0.509290522119));
#164 = CARTESIAN_POINT('',(0.180359015242,5.181843609904E-02,
    0.50084459292));
#165 = CARTESIAN_POINT('',(0.188804944441,5.181843609904E-02,
    0.509290522119));
#166 = CARTESIAN_POINT('',(0.188804944441,5.181843609904E-02,
    0.50084459292));
#167 = DEFINITIONAL_REPRESENTATION('',(#168),#172);
#168 = LINE('',#169,#170);
#169 = CARTESIAN_POINT('',(-4.223E-03,0.));
#170 = VECTOR('',#171,1.);
#171 = DIRECTION('',(0.,1.));
#172 = ( GEOMETRIC_REPRESENTATION_CONTEXT(2) 
PARAMETRIC_REPRESENTATION_CONTEXT() REPRESENTATION_CONTEXT('2D SPACE',''
  ) );
#173 = ORIENTED_EDGE('',*,*,#174,.T.);
#174 = EDGE_CURVE('',#153,#175,#177,.T.);
#175 = VERTEX_POINT('',#176);
#176 = CARTESIAN_POINT('',(0.188804944441,5.181843609904E-02,
    0.509290522119));
#177 = SURFACE_CURVE('',#178,(#181),.PCURVE_S1.);
#178 = B_SPLINE_CURVE_WITH_KNOTS('',1,(#179,#180),.UNSPECIFIED.,.F.,.F.,
  (2,2),(-4.223E-03,4.223E-03),.PIECEWISE_BEZIER_KNOTS.);
#179 = CARTESIAN_POINT('',(0.180359015242,5.181843609904E-02,
    0.509290522119));
#180 = CARTESIAN_POINT('',(0.188804944441,5.181843609904E-02,
    0.509290522119));
#181 = PCURVE('',#162,#182);
#182 = DEFINITIONAL_REPRESENTATION('',(#183),#187);
#183 = LINE('',#184,#185);
#184 = CARTESIAN_POINT('',(0.,-4.223E-03));
#185 = VECTOR('',#186,1.);
#186 = DIRECTION('',(1.,0.));
#187 = ( GEOMETRIC_REPRESENTATION_CONTEXT(2) 
PARAMETRIC_REPRESENTATION_CONTEXT() REPRESENTATION_CONTEXT('2D SPACE',''
  ) );
#188 = ORIENTED_EDGE('',*,*,#189,.T.);
#189 = EDGE_CURVE('',#175,#190,#192,.T.);
#190 = VERTEX_POINT('',#191);
#191 = CARTESIAN_POINT('',(0.188804944441,5.181843609904E-02,
    0.50084459292));
#192 = SURFACE_CURVE('',#193,(#196),.PCURVE_S1.);
#193 = B_SPLINE_CURVE_WITH_KNOTS('',1,(#194,#195),.UNSPECIFIED.,.F.,.F.,
  (2,2),(-4.223E-03,4.223E-03),.PIECEWISE_BEZIER_KNOTS.);
#194 = CARTESIAN_POINT('',(0.188804944441,5.181843609904E-02,
    0.509290522119));
#195 = CARTESIAN_POINT('',(0.188804944441,5.181843609904E-02,
    0.50084459292));
#196 = PCURVE('',#162,#197);
#197 = DEFINITIONAL_REPRESENTATION('',(#198),#202);
#198 = LINE('',#199,#200);
#199 = CARTESIAN_POINT('',(4.223E-03,0.));
#200 = VECTOR('',#201,1.);
#201 = DIRECTION('',(0.,1.));
#202 = ( GEOMETRIC_REPRESENTATION_CONTEXT(2) 
PARAMETRIC_REPRESENTATION_CONTEXT() REPRESENTATION_CONTEXT('2D SPACE',''
  ) );
#203 = ORIENTED_EDGE('',*,*,#204,.F.);
#204 = EDGE_CURVE('',#155,#190,#205,.T.);
#205 = SURFACE_CURVE('',#206,(#209),.PCURVE_S1.);
#206 = B_SPLINE_CURVE_WITH_KNOTS('',1,(#207,#208),.UNSPECIFIED.,.F.,.F.,
  (2,2),(-4.223E-03,4.223E-03),.PIECEWISE_BEZIER_KNOTS.);
#207 = CARTESIAN_POINT('',(0.180359015242,5.181843609904E-02,
    0.50084459292));
#208 = CARTESIAN_POINT('',(0.188804944441,5.181843609904E-02,
    0.50084459292));
#209 = PCURVE('',#162,#210);
#210 = DEFINITIONAL_REPRESENTATION('',(#211),#215);
#211 = LINE('',#212,#213);
#212 = CARTESIAN_POINT('',(0.,4.223E-03));
#213 = VECTOR('',#214,1.);
#214 = DIRECTION('',(1.,0.));
#215 = ( GEOMETRIC_REPRESENTATION_CONTEXT(2) 
PARAMETRIC_REPRESENTATION_CONTEXT() REPRESENTATION_CONTEXT('2D SPACE',''
  ) );
#216 = ( GEOMETRIC_REPRESENTATION_CONTEXT(3) 
GLOBAL_UNCERTAINTY_ASSIGNED_CONTEXT((#220)) GLOBAL_UNIT_ASSIGNED_CONTEXT
((#217,#218,#219)) REPRESENTATION_CONTEXT('Context #1',
  '3D Context with UNIT and UNCERTAINTY') );
#217 = ( LENGTH_UNIT() NAMED_UNIT(*) SI_UNIT(.MILLI.,.METRE.) );
#218 = ( NAMED_UNIT(*) PLANE_ANGLE_UNIT() SI_UNIT($,.RADIAN.) );
#219 = ( NAMED_UNIT(*) SI_UNIT($,.STERADIAN.) SOLID_ANGLE_UNIT() );
#220 = UNCERTAINTY_MEASURE_WITH_UNIT(LENGTH_MEASURE(1.E-07),#217,
  'distance_accuracy_value','confusion accuracy');
#221 = CONTEXT_DEPENDENT_SHAPE_REPRESENTATION(#222,#224);
#222 = ( REPRESENTATION_RELATIONSHIP('','',#145,#10) 
REPRESENTATION_RELATIONSHIP_WITH_TRANSFORMATION(#223) 
SHAPE_REPRESENTATION_RELATIONSHIP() );
#223 = ITEM_DEFINED_TRANSFORMATION('','',#11,#19);
#224 = PRODUCT_DEFINITION_SHAPE('Placement','Placement of an item',#225
  );
#225 = NEXT_ASSEMBLY_USAGE_OCCURRENCE('2','','',#5,#140,$);
#226 = PRODUCT_RELATED_PRODUCT_CATEGORY('part',$,(#142));
#227 = SHAPE_DEFINITION_REPRESENTATION(#228,#234);
#228 = PRODUCT_DEFINITION_SHAPE('','',#229);
#229 = PRODUCT_DEFINITION('design','',#230,#233);
#230 = PRODUCT_DEFINITION_FORMATION('','',#231);
#231 = PRODUCT('Open CASCADE STEP translator 7.9 1.3',
  'Open CASCADE STEP translator 7.9 1.3','',(#232));
#232 = PRODUCT_CONTEXT('',#2,'mechanical');
#233 = PRODUCT_DEFINITION_CONTEXT('part definition',#2,'design');
#234 = MANIFOLD_SURFACE_SHAPE_REPRESENTATION('',(#11,#235),#305);
#235 = SHELL_BASED_SURFACE_MODEL('',(#236));
#236 = OPEN_SHELL('',(#237));
#237 = ADVANCED_FACE('',(#238),#251,.T.);
#238 = FACE_BOUND('',#239,.T.);
#239 = EDGE_LOOP('',(#240,#262,#277,#292));
#240 = ORIENTED_EDGE('',*,*,#241,.F.);
#241 = EDGE_CURVE('',#242,#244,#246,.T.);
#242 = VERTEX_POINT('',#243);
#243 = CARTESIAN_POINT('',(0.180359015242,5.131165242445E-02,
    0.509290522119));
#244 = VERTEX_POINT('',#245);
#245 = CARTESIAN_POINT('',(0.180359015242,5.131165242445E-02,
    0.50084459292));
#246 = SURFACE_CURVE('',#247,(#250),.PCURVE_S1.);
#247 = B_SPLINE_CURVE_WITH_KNOTS('',1,(#248,#249),.UNSPECIFIED.,.F.,.F.,
  (2,2),(-4.223E-03,4.223E-03),.PIECEWISE_BEZIER_KNOTS.);
#248 = CARTESIAN_POINT('',(0.180359015242,5.131165242445E-02,
    0.509290522119));
#249 = CARTESIAN_POINT('',(0.180359015242,5.131165242445E-02,
    0.50084459292));
#250 = PCURVE('',#251,#256);
#251 = B_SPLINE_SURFACE_WITH_KNOTS('',1,1,(
    (#252,#253)
    ,(#254,#255
    )),.UNSPECIFIED.,.F.,.F.,.F.,(2,2),(2,2),(-4.223E-03,4.223E-03),(
    -4.223E-03,4.223E-03),.PIECEWISE_BEZIER_KNOTS.);
#252 = CARTESIAN_POINT('',(0.180359015242,5.131165242445E-02,
    0.509290522119));
#253 = CARTESIAN_POINT('',(0.180359015242,5.131165242445E-02,
    0.50084459292));
#254 = CARTESIAN_POINT('',(0.188804944441,5.131165242445E-02,
    0.509290522119));
#255 = CARTESIAN_POINT('',(0.188804944441,5.131165242445E-02,
    0.50084459292));
#256 = DEFINITIONAL_REPRESENTATION('',(#257),#261);
#257 = LINE('',#258,#259);
#258 = CARTESIAN_POINT('',(-4.223E-03,0.));
#259 = VECTOR('',#260,1.);
#260 = DIRECTION('',(0.,1.));
#261 = ( GEOMETRIC_REPRESENTATION_CONTEXT(2) 
PARAMETRIC_REPRESENTATION_CONTEXT() REPRESENTATION_CONTEXT('2D SPACE',''
  ) );
#262 = ORIENTED_EDGE('',*,*,#263,.T.);
#263 = EDGE_CURVE('',#242,#264,#266,.T.);
#264 = VERTEX_POINT('',#265);
#265 = CARTESIAN_POINT('',(0.188804944441,5.131165242445E-02,
    0.509290522119));
#266 = SURFACE_CURVE('',#267,(#270),.PCURVE_S1.);
#267 = B_SPLINE_CURVE_WITH_KNOTS('',1,(#268,#269),.UNSPECIFIED.,.F.,.F.,
  (2,2),(-4.223E-03,4.223E-03),.PIECEWISE_BEZIER_KNOTS.);
#268 = CARTESIAN_POINT('',(0.180359015242,5.131165242445E-02,
    0.509290522119));
#269 = CARTESIAN_POINT('',(0.188804944441,5.131165242445E-02,
    0.509290522119));
#270 = PCURVE('',#251,#271);
#271 = DEFINITIONAL_REPRESENTATION('',(#272),#276);
#272 = LINE('',#273,#274);
#273 = CARTESIAN_POINT('',(0.,-4.223E-03));
#274 = VECTOR('',#275,1.);
#275 = DIRECTION('',(1.,0.));
#276 = ( GEOMETRIC_REPRESENTATION_CONTEXT(2) 
PARAMETRIC_REPRESENTATION_CONTEXT() REPRESENTATION_CONTEXT('2D SPACE',''
  ) );
#277 = ORIENTED_EDGE('',*,*,#278,.T.);
#278 = EDGE_CURVE('',#264,#279,#281,.T.);
#279 = VERTEX_POINT('',#280);
#280 = CARTESIAN_POINT('',(0.188804944441,5.131165242445E-02,
    0.50084459292));
#281 = SURFACE_CURVE('',#282,(#285),.PCURVE_S1.);
#282 = B_SPLINE_CURVE_WITH_KNOTS('',1,(#283,#284),.UNSPECIFIED.,.F.,.F.,
  (2,2),(-4.223E-03,4.223E-03),.PIECEWISE_BEZIER_KNOTS.);
#283 = CARTESIAN_POINT('',(0.188804944441,5.131165242445E-02,
    0.509290522119));
#284 = CARTESIAN_POINT('',(0.188804944441,5.131165242445E-02,
    0.50084459292));
#285 = PCURVE('',#251,#286);
#286 = DEFINITIONAL_REPRESENTATION('',(#287),#291);
#287 = LINE('',#288,#289);
#288 = CARTESIAN_POINT('',(4.223E-03,0.));
#289 = VECTOR('',#290,1.);
#290 = DIRECTION('',(0.,1.));
#291 = ( GEOMETRIC_REPRESENTATION_CONTEXT(2) 
PARAMETRIC_REPRESENTATION_CONTEXT() REPRESENTATION_CONTEXT('2D SPACE',''
  ) );
#292 = ORIENTED_EDGE('',*,*,#293,.F.);
#293 = EDGE_CURVE('',#244,#279,#294,.T.);
#294 = SURFACE_CURVE('',#295,(#298),.PCURVE_S1.);
#295 = B_SPLINE_CURVE_WITH_KNOTS('',1,(#296,#297),.UNSPECIFIED.,.F.,.F.,
  (2,2),(-4.223E-03,4.223E-03),.PIECEWISE_BEZIER_KNOTS.);
#296 = CARTESIAN_POINT('',(0.180359015242,5.131165242445E-02,
    0.50084459292));
#297 = CARTESIAN_POINT('',(0.188804944441,5.131165242445E-02,
    0.50084459292));
#298 = PCURVE('',#251,#299);
#299 = DEFINITIONAL_REPRESENTATION('',(#300),#304);
#300 = LINE('',#301,#302);
#301 = CARTESIAN_POINT('',(0.,4.223E-03));
#302 = VECTOR('',#303,1.);
#303 = DIRECTION('',(1.,0.));
#304 = ( GEOMETRIC_REPRESENTATION_CONTEXT(2) 
PARAMETRIC_REPRESENTATION_CONTEXT() REPRESENTATION_CONTEXT('2D SPACE',''
  ) );
#305 = ( GEOMETRIC_REPRESENTATION_CONTEXT(3) 
GLOBAL_UNCERTAINTY_ASSIGNED_CONTEXT((#309)) GLOBAL_UNIT_ASSIGNED_CONTEXT
((#306,#307,#308)) REPRESENTATION_CONTEXT('Context #1',
  '3D Context with UNIT and UNCERTAINTY') );
#306 = ( LENGTH_UNIT() NAMED_UNIT(*) SI_UNIT(.MILLI.,.METRE.) );
#307 = ( NAMED_UNIT(*) PLANE_ANGLE_UNIT() SI_UNIT($,.RADIAN.) );
#308 = ( NAMED_UNIT(*) SI_UNIT($,.STERADIAN.) SOLID_ANGLE_UNIT() );
#309 = UNCERTAINTY_MEASURE_WITH_UNIT(LENGTH_MEASURE(1.E-07),#306,
  'distance_accuracy_value','confusion accuracy');
#310 = CONTEXT_DEPENDENT_SHAPE_REPRESENTATION(#311,#313);
#311 = ( REPRESENTATION_RELATIONSHIP('','',#234,#10) 
REPRESENTATION_RELATIONSHIP_WITH_TRANSFORMATION(#312) 
SHAPE_REPRESENTATION_RELATIONSHIP() );
#312 = ITEM_DEFINED_TRANSFORMATION('','',#11,#23);
#313 = PRODUCT_DEFINITION_SHAPE('Placement','Placement of an item',#314
  );
#314 = NEXT_ASSEMBLY_USAGE_OCCURRENCE('3','','',#5,#229,$);
#315 = PRODUCT_RELATED_PRODUCT_CATEGORY('part',$,(#231));
#316 = SHAPE_DEFINITION_REPRESENTATION(#317,#323);
#317 = PRODUCT_DEFINITION_SHAPE('','',#318);
#318 = PRODUCT_DEFINITION('design','',#319,#322);
#319 = PRODUCT_DEFINITION_FORMATION('','',#320);
#320 = PRODUCT('Open CASCADE STEP translator 7.9 1.4',
  'Open CASCADE STEP translator 7.9 1.4','',(#321));
#321 = PRODUCT_CONTEXT('',#2,'mechanical');
#322 = PRODUCT_DEFINITION_CONTEXT('part definition',#2,'design');
#323 = MANIFOLD_SURFACE_SHAPE_REPRESENTATION('',(#11,#324),#394);
#324 = SHELL_BASED_SURFACE_MODEL('',(#325));
#325 = OPEN_SHELL('',(#326));
#326 = ADVANCED_FACE('',(#327),#340,.T.);
#327 = FACE_BOUND('',#328,.T.);
#328 = EDGE_LOOP('',(#329,#351,#366,#381));
#329 = ORIENTED_EDGE('',*,*,#330,.F.);
#330 = EDGE_CURVE('',#331,#333,#335,.T.);
#331 = VERTEX_POINT('',#332);
#332 = CARTESIAN_POINT('',(0.180359015242,5.131165242445E-02,
    0.509290522119));
#333 = VERTEX_POINT('',#334);
#334 = CARTESIAN_POINT('',(0.180359015242,5.181843609904E-02,
    0.509290522119));
#335 = SURFACE_CURVE('',#336,(#339),.PCURVE_S1.);
#336 = B_SPLINE_CURVE_WITH_KNOTS('',1,(#337,#338),.UNSPECIFIED.,.F.,.F.,
  (2,2),(-5.07E-04,0.),.PIECEWISE_BEZIER_KNOTS.);
#337 = CARTESIAN_POINT('',(0.180359015242,5.131165242445E-02,
    0.509290522119));
#338 = CARTESIAN_POINT('',(0.180359015242,5.181843609904E-02,
    0.509290522119));
#339 = PCURVE('',#340,#345);
#340 = B_SPLINE_SURFACE_WITH_KNOTS('',1,1,(
    (#341,#342)
    ,(#343,#344
  )),.UNSPECIFIED.,.F.,.F.,.F.,(2,2),(2,2),(-8.446E-03,0.),(-5.07E-04,0.
    ),.PIECEWISE_BEZIER_KNOTS.);
#341 = CARTESIAN_POINT('',(0.180359015242,5.131165242445E-02,
    0.509290522119));
#342 = CARTESIAN_POINT('',(0.180359015242,5.181843609904E-02,
    0.509290522119));
#343 = CARTESIAN_POINT('',(0.188804944441,5.131165242445E-02,
    0.509290522119));
#344 = CARTESIAN_POINT('',(0.188804944441,5.181843609904E-02,
    0.509290522119));
#345 = DEFINITIONAL_REPRESENTATION('',(#346),#350);
#346 = LINE('',#347,#348);
#347 = CARTESIAN_POINT('',(-8.446E-03,0.));
#348 = VECTOR('',#349,1.);
#349 = DIRECTION('',(0.,1.));
#350 = ( GEOMETRIC_REPRESENTATION_CONTEXT(2) 
PARAMETRIC_REPRESENTATION_CONTEXT() REPRESENTATION_CONTEXT('2D SPACE',''
  ) );
#351 = ORIENTED_EDGE('',*,*,#352,.T.);
#352 = EDGE_CURVE('',#331,#353,#355,.T.);
#353 = VERTEX_POINT('',#354);
#354 = CARTESIAN_POINT('',(0.188804944441,5.131165242445E-02,
    0.509290522119));
#355 = SURFACE_CURVE('',#356,(#359),.PCURVE_S1.);
#356 = B_SPLINE_CURVE_WITH_KNOTS('',1,(#357,#358),.UNSPECIFIED.,.F.,.F.,
  (2,2),(-8.446E-03,0.),.PIECEWISE_BEZIER_KNOTS.);
#357 = CARTESIAN_POINT('',(0.180359015242,5.131165242445E-02,
    0.509290522119));
#358 = CARTESIAN_POINT('',(0.188804944441,5.131165242445E-02,
    0.509290522119));
#359 = PCURVE('',#340,#360);
#360 = DEFINITIONAL_REPRESENTATION('',(#361),#365);
#361 = LINE('',#362,#363);
#362 = CARTESIAN_POINT('',(0.,-5.07E-04));
#363 = VECTOR('',#364,1.);
#364 = DIRECTION('',(1.,0.));
#365 = ( GEOMETRIC_REPRESENTATION_CONTEXT(2) 
PARAMETRIC_REPRESENTATION_CONTEXT() REPRESENTATION_CONTEXT('2D SPACE',''
  ) );
#366 = ORIENTED_EDGE('',*,*,#367,.T.);
#367 = EDGE_CURVE('',#353,#368,#370,.T.);
#368 = VERTEX_POINT('',#369);
#369 = CARTESIAN_POINT('',(0.188804944441,5.181843609904E-02,
    0.509290522119));
#370 = SURFACE_CURVE('',#371,(#374),.PCURVE_S1.);
#371 = B_SPLINE_CURVE_WITH_KNOTS('',1,(#372,#373),.UNSPECIFIED.,.F.,.F.,
  (2,2),(-5.07E-04,0.),.PIECEWISE_BEZIER_KNOTS.);
#372 = CARTESIAN_POINT('',(0.188804944441,5.131165242445E-02,
    0.509290522119));
#373 = CARTESIAN_POINT('',(0.188804944441,5.181843609904E-02,
    0.509290522119));
#374 = PCURVE('',#340,#375);
#375 = DEFINITIONAL_REPRESENTATION('',(#376),#380);
#376 = LINE('',#377,#378);
#377 = CARTESIAN_POINT('',(0.,0.));
#378 = VECTOR('',#379,1.);
#379 = DIRECTION('',(0.,1.));
#380 = ( GEOMETRIC_REPRESENTATION_CONTEXT(2) 
PARAMETRIC_REPRESENTATION_CONTEXT() REPRESENTATION_CONTEXT('2D SPACE',''
  ) );
#381 = ORIENTED_EDGE('',*,*,#382,.F.);
#382 = EDGE_CURVE('',#333,#368,#383,.T.);
#383 = SURFACE_CURVE('',#384,(#387),.PCURVE_S1.);
#384 = B_SPLINE_CURVE_WITH_KNOTS('',1,(#385,#386),.UNSPECIFIED.,.F.,.F.,
  (2,2),(-8.446E-03,0.),.PIECEWISE_BEZIER_KNOTS.);
#385 = CARTESIAN_POINT('',(0.180359015242,5.181843609904E-02,
    0.509290522119));
#386 = CARTESIAN_POINT('',(0.188804944441,5.181843609904E-02,
    0.509290522119));
#387 = PCURVE('',#340,#388);
#388 = DEFINITIONAL_REPRESENTATION('',(#389),#393);
#389 = LINE('',#390,#391);
#390 = CARTESIAN_POINT('',(0.,0.));
#391 = VECTOR('',#392,1.);
#392 = DIRECTION('',(1.,0.));
#393 = ( GEOMETRIC_REPRESENTATION_CONTEXT(2) 
PARAMETRIC_REPRESENTATION_CONTEXT() REPRESENTATION_CONTEXT('2D SPACE',''
  ) );
#394 = ( GEOMETRIC_REPRESENTATION_CONTEXT(3) 
GLOBAL_UNCERTAINTY_ASSIGNED_CONTEXT((#398)) GLOBAL_UNIT_ASSIGNED_CONTEXT
((#395,#396,#397)) REPRESENTATION_CONTEXT('Context #1',
  '3D Context with UNIT and UNCERTAINTY') );
#395 = ( LENGTH_UNIT() NAMED_UNIT(*) SI_UNIT(.MILLI.,.METRE.) );
#396 = ( NAMED_UNIT(*) PLANE_ANGLE_UNIT() SI_UNIT($,.RADIAN.) );
#397 = ( NAMED_UNIT(*) SI_UNIT($,.STERADIAN.) SOLID_ANGLE_UNIT() );
#398 = UNCERTAINTY_MEASURE_WITH_UNIT(LENGTH_MEASURE(1.E-07),#395,
  'distance_accuracy_value','confusion accuracy');
#399 = CONTEXT_DEPENDENT_SHAPE_REPRESENTATION(#400,#402);
#400 = ( REPRESENTATION_RELATIONSHIP('','',#323,#10) 
REPRESENTATION_RELATIONSHIP_WITH_TRANSFORMATION(#401) 
SHAPE_REPRESENTATION_RELATIONSHIP() );
#401 = ITEM_DEFINED_TRANSFORMATION('','',#11,#27);
#402 = PRODUCT_DEFINITION_SHAPE('Placement','Placement of an item',#403
  );
#403 = NEXT_ASSEMBLY_USAGE_OCCURRENCE('4','','',#5,#318,$);
#404 = PRODUCT_RELATED_PRODUCT_CATEGORY('part',$,(#320));
#405 = SHAPE_DEFINITION_REPRESENTATION(#406,#412);
#406 = PRODUCT_DEFINITION_SHAPE('','',#407);
#407 = PRODUCT_DEFINITION('design','',#408,#411);
#408 = PRODUCT_DEFINITION_FORMATION('','',#409);
#409 = PRODUCT('Open CASCADE STEP translator 7.9 1.5',
  'Open CASCADE STEP translator 7.9 1.5','',(#410));
#410 = PRODUCT_CONTEXT('',#2,'mechanical');
#411 = PRODUCT_DEFINITION_CONTEXT('part definition',#2,'design');
#412 = MANIFOLD_SURFACE_SHAPE_REPRESENTATION('',(#11,#413),#483);
#413 = SHELL_BASED_SURFACE_MODEL('',(#414));
#414 = OPEN_SHELL('',(#415));
#415 = ADVANCED_FACE('',(#416),#429,.T.);
#416 = FACE_BOUND('',#417,.T.);
#417 = EDGE_LOOP('',(#418,#440,#455,#470));
#418 = ORIENTED_EDGE('',*,*,#419,.F.);
#419 = EDGE_CURVE('',#420,#422,#424,.T.);
#420 = VERTEX_POINT('',#421);
#421 = CARTESIAN_POINT('',(0.180359015242,5.131165242445E-02,
    0.50084459292));
#422 = VERTEX_POINT('',#423);
#423 = CARTESIAN_POINT('',(0.188804944441,5.131165242445E-02,
    0.50084459292));
#424 = SURFACE_CURVE('',#425,(#428),.PCURVE_S1.);
#425 = B_SPLINE_CURVE_WITH_KNOTS('',1,(#426,#427),.UNSPECIFIED.,.F.,.F.,
  (2,2),(-8.446E-03,0.),.PIECEWISE_BEZIER_KNOTS.);
#426 = CARTESIAN_POINT('',(0.180359015242,5.131165242445E-02,
    0.50084459292));
#427 = CARTESIAN_POINT('',(0.188804944441,5.131165242445E-02,
    0.50084459292));
#428 = PCURVE('',#429,#434);
#429 = B_SPLINE_SURFACE_WITH_KNOTS('',1,1,(
    (#430,#431)
    ,(#432,#433
    )),.UNSPECIFIED.,.F.,.F.,.F.,(2,2),(2,2),(-5.07E-04,0.),(-8.446E-03,
    0.),.PIECEWISE_BEZIER_KNOTS.);
#430 = CARTESIAN_POINT('',(0.180359015242,5.131165242445E-02,
    0.50084459292));
#431 = CARTESIAN_POINT('',(0.188804944441,5.131165242445E-02,
    0.50084459292));
#432 = CARTESIAN_POINT('',(0.180359015242,5.181843609904E-02,
    0.50084459292));
#433 = CARTESIAN_POINT('',(0.188804944441,5.181843609904E-02,
    0.50084459292));
#434 = DEFINITIONAL_REPRESENTATION('',(#435),#439);
#435 = LINE('',#436,#437);
#436 = CARTESIAN_POINT('',(-5.07E-04,0.));
#437 = VECTOR('',#438,1.);
#438 = DIRECTION('',(0.,1.));
#439 = ( GEOMETRIC_REPRESENTATION_CONTEXT(2) 
PARAMETRIC_REPRESENTATION_CONTEXT() REPRESENTATION_CONTEXT('2D SPACE',''
  ) );
#440 = ORIENTED_EDGE('',*,*,#441,.T.);
#441 = EDGE_CURVE('',#420,#442,#444,.T.);
#442 = VERTEX_POINT('',#443);
#443 = CARTESIAN_POINT('',(0.180359015242,5.181843609904E-02,
    0.50084459292));
#444 = SURFACE_CURVE('',#445,(#448),.PCURVE_S1.);
#445 = B_SPLINE_CURVE_WITH_KNOTS('',1,(#446,#447),.UNSPECIFIED.,.F.,.F.,
  (2,2),(-5.07E-04,0.),.PIECEWISE_BEZIER_KNOTS.);
#446 = CARTESIAN_POINT('',(0.180359015242,5.131165242445E-02,
    0.50084459292));
#447 = CARTESIAN_POINT('',(0.180359015242,5.181843609904E-02,
    0.50084459292));
#448 = PCURVE('',#429,#449);
#449 = DEFINITIONAL_REPRESENTATION('',(#450),#454);
#450 = LINE('',#451,#452);
#451 = CARTESIAN_POINT('',(0.,-8.446E-03));
#452 = VECTOR('',#453,1.);
#453 = DIRECTION('',(1.,0.));
#454 = ( GEOMETRIC_REPRESENTATION_CONTEXT(2) 
PARAMETRIC_REPRESENTATION_CONTEXT() REPRESENTATION_CONTEXT('2D SPACE',''
  ) );
#455 = ORIENTED_EDGE('',*,*,#456,.T.);
#456 = EDGE_CURVE('',#442,#457,#459,.T.);
#457 = VERTEX_POINT('',#458);
#458 = CARTESIAN_POINT('',(0.188804944441,5.181843609904E-02,
    0.50084459292));
#459 = SURFACE_CURVE('',#460,(#463),.PCURVE_S1.);
#460 = B_SPLINE_CURVE_WITH_KNOTS('',1,(#461,#462),.UNSPECIFIED.,.F.,.F.,
  (2,2),(-8.446E-03,0.),.PIECEWISE_BEZIER_KNOTS.);
#461 = CARTESIAN_POINT('',(0.180359015242,5.181843609904E-02,
    0.50084459292));
#462 = CARTESIAN_POINT('',(0.188804944441,5.181843609904E-02,
    0.50084459292));
#463 = PCURVE('',#429,#464);
#464 = DEFINITIONAL_REPRESENTATION('',(#465),#469);
#465 = LINE('',#466,#467);
#466 = CARTESIAN_POINT('',(0.,0.));
#467 = VECTOR('',#468,1.);
#468 = DIRECTION('',(0.,1.));
#469 = ( GEOMETRIC_REPRESENTATION_CONTEXT(2) 
PARAMETRIC_REPRESENTATION_CONTEXT() REPRESENTATION_CONTEXT('2D SPACE',''
  ) );
#470 = ORIENTED_EDGE('',*,*,#471,.F.);
#471 = EDGE_CURVE('',#422,#457,#472,.T.);
#472 = SURFACE_CURVE('',#473,(#476),.PCURVE_S1.);
#473 = B_SPLINE_CURVE_WITH_KNOTS('',1,(#474,#475),.UNSPECIFIED.,.F.,.F.,
  (2,2),(-5.07E-04,0.),.PIECEWISE_BEZIER_KNOTS.);
#474 = CARTESIAN_POINT('',(0.188804944441,5.131165242445E-02,
    0.50084459292));
#475 = CARTESIAN_POINT('',(0.188804944441,5.181843609904E-02,
    0.50084459292));
#476 = PCURVE('',#429,#477);
#477 = DEFINITIONAL_REPRESENTATION('',(#478),#482);
#478 = LINE('',#479,#480);
#479 = CARTESIAN_POINT('',(0.,0.));
#480 = VECTOR('',#481,1.);
#481 = DIRECTION('',(1.,0.));
#482 = ( GEOMETRIC_REPRESENTATION_CONTEXT(2) 
PARAMETRIC_REPRESENTATION_CONTEXT() REPRESENTATION_CONTEXT('2D SPACE',''
  ) );
#483 = ( GEOMETRIC_REPRESENTATION_CONTEXT(3) 
GLOBAL_UNCERTAINTY_ASSIGNED_CONTEXT((#487)) GLOBAL_UNIT_ASSIGNED_CONTEXT
((#484,#485,#486)) REPRESENTATION_CONTEXT('Context #1',
  '3D Context with UNIT and UNCERTAINTY') );
#484 = ( LENGTH_UNIT() NAMED_UNIT(*) SI_UNIT(.MILLI.,.METRE.) );
#485 = ( NAMED_UNIT(*) PLANE_ANGLE_UNIT() SI_UNIT($,.RADIAN.) );
#486 = ( NAMED_UNIT(*) SI_UNIT($,.STERADIAN.) SOLID_ANGLE_UNIT() );
#487 = UNCERTAINTY_MEASURE_WITH_UNIT(LENGTH_MEASURE(1.E-07),#484,
  'distance_accuracy_value','confusion accuracy');
#488 = CONTEXT_DEPENDENT_SHAPE_REPRESENTATION(#489,#491);
#489 = ( REPRESENTATION_RELATIONSHIP('','',#412,#10) 
REPRESENTATION_RELATIONSHIP_WITH_TRANSFORMATION(#490) 
SHAPE_REPRESENTATION_RELATIONSHIP() );
#490 = ITEM_DEFINED_TRANSFORMATION('','',#11,#31);
#491 = PRODUCT_DEFINITION_SHAPE('Placement','Placement of an item',#492
  );
#492 = NEXT_ASSEMBLY_USAGE_OCCURRENCE('5','','',#5,#407,$);
#493 = PRODUCT_RELATED_PRODUCT_CATEGORY('part',$,(#409));
#494 = SHAPE_DEFINITION_REPRESENTATION(#495,#501);
#495 = PRODUCT_DEFINITION_SHAPE('','',#496);
#496 = PRODUCT_DEFINITION('design','',#497,#500);
#497 = PRODUCT_DEFINITION_FORMATION('','',#498);
#498 = PRODUCT('Open CASCADE STEP translator 7.9 1.6',
  'Open CASCADE STEP translator 7.9 1.6','',(#499));
#499 = PRODUCT_CONTEXT('',#2,'mechanical');
#500 = PRODUCT_DEFINITION_CONTEXT('part definition',#2,'design');
#501 = MANIFOLD_SURFACE_SHAPE_REPRESENTATION('',(#11,#502),#572);
#502 = SHELL_BASED_SURFACE_MODEL('',(#503));
#503 = OPEN_SHELL('',(#504));
#504 = ADVANCED_FACE('',(#505),#518,.T.);
#505 = FACE_BOUND('',#506,.T.);
#506 = EDGE_LOOP('',(#507,#529,#544,#559));
#507 = ORIENTED_EDGE('',*,*,#508,.F.);
#508 = EDGE_CURVE('',#509,#511,#513,.T.);
#509 = VERTEX_POINT('',#510);
#510 = CARTESIAN_POINT('',(0.188804944441,5.181843609904E-02,
    0.509290522119));
#511 = VERTEX_POINT('',#512);
#512 = CARTESIAN_POINT('',(0.180359015242,5.181843609904E-02,
    0.509290522119));
#513 = SURFACE_CURVE('',#514,(#517),.PCURVE_S1.);
#514 = B_SPLINE_CURVE_WITH_KNOTS('',1,(#515,#516),.UNSPECIFIED.,.F.,.F.,
  (2,2),(-8.446E-03,0.),.PIECEWISE_BEZIER_KNOTS.);
#515 = CARTESIAN_POINT('',(0.188804944441,5.181843609904E-02,
    0.509290522119));
#516 = CARTESIAN_POINT('',(0.180359015242,5.181843609904E-02,
    0.509290522119));
#517 = PCURVE('',#518,#523);
#518 = B_SPLINE_SURFACE_WITH_KNOTS('',1,1,(
    (#519,#520)
    ,(#521,#522
    )),.UNSPECIFIED.,.F.,.F.,.F.,(2,2),(2,2),(0.,5.07E-04),(-8.446E-03,
    0.),.PIECEWISE_BEZIER_KNOTS.);
#519 = CARTESIAN_POINT('',(0.188804944441,5.181843609904E-02,
    0.509290522119));
#520 = CARTESIAN_POINT('',(0.180359015242,5.181843609904E-02,
    0.509290522119));
#521 = CARTESIAN_POINT('',(0.188804944441,5.131165242445E-02,
    0.509290522119));
#522 = CARTESIAN_POINT('',(0.180359015242,5.131165242445E-02,
    0.509290522119));
#523 = DEFINITIONAL_REPRESENTATION('',(#524),#528);
#524 = LINE('',#525,#526);
#525 = CARTESIAN_POINT('',(0.,0.));
#526 = VECTOR('',#527,1.);
#527 = DIRECTION('',(0.,1.));
#528 = ( GEOMETRIC_REPRESENTATION_CONTEXT(2) 
PARAMETRIC_REPRESENTATION_CONTEXT() REPRESENTATION_CONTEXT('2D SPACE',''
  ) );
#529 = ORIENTED_EDGE('',*,*,#530,.T.);
#530 = EDGE_CURVE('',#509,#531,#533,.T.);
#531 = VERTEX_POINT('',#532);
#532 = CARTESIAN_POINT('',(0.188804944441,5.131165242445E-02,
    0.509290522119));
#533 = SURFACE_CURVE('',#534,(#537),.PCURVE_S1.);
#534 = B_SPLINE_CURVE_WITH_KNOTS('',1,(#535,#536),.UNSPECIFIED.,.F.,.F.,
  (2,2),(0.,5.07E-04),.PIECEWISE_BEZIER_KNOTS.);
#535 = CARTESIAN_POINT('',(0.188804944441,5.181843609904E-02,
    0.509290522119));
#536 = CARTESIAN_POINT('',(0.188804944441,5.131165242445E-02,
    0.509290522119));
#537 = PCURVE('',#518,#538);
#538 = DEFINITIONAL_REPRESENTATION('',(#539),#543);
#539 = LINE('',#540,#541);
#540 = CARTESIAN_POINT('',(0.,-8.446E-03));
#541 = VECTOR('',#542,1.);
#542 = DIRECTION('',(1.,0.));
#543 = ( GEOMETRIC_REPRESENTATION_CONTEXT(2) 
PARAMETRIC_REPRESENTATION_CONTEXT() REPRESENTATION_CONTEXT('2D SPACE',''
  ) );
#544 = ORIENTED_EDGE('',*,*,#545,.T.);
#545 = EDGE_CURVE('',#531,#546,#548,.T.);
#546 = VERTEX_POINT('',#547);
#547 = CARTESIAN_POINT('',(0.180359015242,5.131165242445E-02,
    0.509290522119));
#548 = SURFACE_CURVE('',#549,(#552),.PCURVE_S1.);
#549 = B_SPLINE_CURVE_WITH_KNOTS('',1,(#550,#551),.UNSPECIFIED.,.F.,.F.,
  (2,2),(-8.446E-03,0.),.PIECEWISE_BEZIER_KNOTS.);
#550 = CARTESIAN_POINT('',(0.188804944441,5.131165242445E-02,
    0.509290522119));
#551 = CARTESIAN_POINT('',(0.180359015242,5.131165242445E-02,
    0.509290522119));
#552 = PCURVE('',#518,#553);
#553 = DEFINITIONAL_REPRESENTATION('',(#554),#558);
#554 = LINE('',#555,#556);
#555 = CARTESIAN_POINT('',(5.07E-04,0.));
#556 = VECTOR('',#557,1.);
#557 = DIRECTION('',(0.,1.));
#558 = ( GEOMETRIC_REPRESENTATION_CONTEXT(2) 
PARAMETRIC_REPRESENTATION_CONTEXT() REPRESENTATION_CONTEXT('2D SPACE',''
  ) );
#559 = ORIENTED_EDGE('',*,*,#560,.F.);
#560 = EDGE_CURVE('',#511,#546,#561,.T.);
#561 = SURFACE_CURVE('',#562,(#565),.PCURVE_S1.);
#562 = B_SPLINE_CURVE_WITH_KNOTS('',1,(#563,#564),.UNSPECIFIED.,.F.,.F.,
  (2,2),(0.,5.07E-04),.PIECEWISE_BEZIER_KNOTS.);
#563 = CARTESIAN_POINT('',(0.180359015242,5.181843609904E-02,
    0.509290522119));
#564 = CARTESIAN_POINT('',(0.180359015242,5.131165242445E-02,
    0.509290522119));
#565 = PCURVE('',#518,#566);
#566 = DEFINITIONAL_REPRESENTATION('',(#567),#571);
#567 = LINE('',#568,#569);
#568 = CARTESIAN_POINT('',(0.,0.));
#569 = VECTOR('',#570,1.);
#570 = DIRECTION('',(1.,0.));
#571 = ( GEOMETRIC_REPRESENTATION_CONTEXT(2) 
PARAMETRIC_REPRESENTATION_CONTEXT() REPRESENTATION_CONTEXT('2D SPACE',''
  ) );
#572 = ( GEOMETRIC_REPRESENTATION_CONTEXT(3) 
GLOBAL_UNCERTAINTY_ASSIGNED_CONTEXT((#576)) GLOBAL_UNIT_ASSIGNED_CONTEXT
((#573,#574,#575)) REPRESENTATION_CONTEXT('Context #1',
  '3D Context with UNIT and UNCERTAINTY') );
#573 = ( LENGTH_UNIT() NAMED_UNIT(*) SI_UNIT(.MILLI.,.METRE.) );
#574 = ( NAMED_UNIT(*) PLANE_ANGLE_UNIT() SI_UNIT($,.RADIAN.) );
#575 = ( NAMED_UNIT(*) SI_UNIT($,.STERADIAN.) SOLID_ANGLE_UNIT() );
#576 = UNCERTAINTY_MEASURE_WITH_UNIT(LENGTH_MEASURE(1.E-07),#573,
  'distance_accuracy_value','confusion accuracy');
#577 = CONTEXT_DEPENDENT_SHAPE_REPRESENTATION(#578,#580);
#578 = ( REPRESENTATION_RELATIONSHIP('','',#501,#10) 
REPRESENTATION_RELATIONSHIP_WITH_TRANSFORMATION(#579) 
SHAPE_REPRESENTATION_RELATIONSHIP() );
#579 = ITEM_DEFINED_TRANSFORMATION('','',#11,#35);
#580 = PRODUCT_DEFINITION_SHAPE('Placement','Placement of an item',#581
  );
#581 = NEXT_ASSEMBLY_USAGE_OCCURRENCE('6','','',#5,#496,$);
#582 = PRODUCT_RELATED_PRODUCT_CATEGORY('part',$,(#498));
#583 = SHAPE_DEFINITION_REPRESENTATION(#584,#590);
#584 = PRODUCT_DEFINITION_SHAPE('','',#585);
#585 = PRODUCT_DEFINITION('design','',#586,#589);
#586 = PRODUCT_DEFINITION_FORMATION('','',#587);
#587 = PRODUCT('Open CASCADE STEP translator 7.9 1.7',
  'Open CASCADE STEP translator 7.9 1.7','',(#588));
#588 = PRODUCT_CONTEXT('',#2,'mechanical');
#589 = PRODUCT_DEFINITION_CONTEXT('part definition',#2,'design');
#590 = MANIFOLD_SURFACE_SHAPE_REPRESENTATION('',(#11,#591),#661);
#591 = SHELL_BASED_SURFACE_MODEL('',(#592));
#592 = OPEN_SHELL('',(#593));
#593 = ADVANCED_FACE('',(#594),#607,.T.);
#594 = FACE_BOUND('',#595,.T.);
#595 = EDGE_LOOP('',(#596,#618,#633,#648));
#596 = ORIENTED_EDGE('',*,*,#597,.F.);
#597 = EDGE_CURVE('',#598,#600,#602,.T.);
#598 = VERTEX_POINT('',#599);
#599 = CARTESIAN_POINT('',(0.188804944441,5.131165242445E-02,
    0.50084459292));
#600 = VERTEX_POINT('',#601);
#601 = CARTESIAN_POINT('',(0.188804944441,5.131165242445E-02,
    0.509290522119));
#602 = SURFACE_CURVE('',#603,(#606),.PCURVE_S1.);
#603 = B_SPLINE_CURVE_WITH_KNOTS('',1,(#604,#605),.UNSPECIFIED.,.F.,.F.,
  (2,2),(0.,8.446E-03),.PIECEWISE_BEZIER_KNOTS.);
#604 = CARTESIAN_POINT('',(0.188804944441,5.131165242445E-02,
    0.50084459292));
#605 = CARTESIAN_POINT('',(0.188804944441,5.131165242445E-02,
    0.509290522119));
#606 = PCURVE('',#607,#612);
#607 = B_SPLINE_SURFACE_WITH_KNOTS('',1,1,(
    (#608,#609)
    ,(#610,#611
    )),.UNSPECIFIED.,.F.,.F.,.F.,(2,2),(2,2),(-5.07E-04,0.),(0.,
    8.446E-03),.PIECEWISE_BEZIER_KNOTS.);
#608 = CARTESIAN_POINT('',(0.188804944441,5.131165242445E-02,
    0.50084459292));
#609 = CARTESIAN_POINT('',(0.188804944441,5.131165242445E-02,
    0.509290522119));
#610 = CARTESIAN_POINT('',(0.188804944441,5.181843609904E-02,
    0.50084459292));
#611 = CARTESIAN_POINT('',(0.188804944441,5.181843609904E-02,
    0.509290522119));
#612 = DEFINITIONAL_REPRESENTATION('',(#613),#617);
#613 = LINE('',#614,#615);
#614 = CARTESIAN_POINT('',(-5.07E-04,0.));
#615 = VECTOR('',#616,1.);
#616 = DIRECTION('',(0.,1.));
#617 = ( GEOMETRIC_REPRESENTATION_CONTEXT(2) 
PARAMETRIC_REPRESENTATION_CONTEXT() REPRESENTATION_CONTEXT('2D SPACE',''
  ) );
#618 = ORIENTED_EDGE('',*,*,#619,.T.);
#619 = EDGE_CURVE('',#598,#620,#622,.T.);
#620 = VERTEX_POINT('',#621);
#621 = CARTESIAN_POINT('',(0.188804944441,5.181843609904E-02,
    0.50084459292));
#622 = SURFACE_CURVE('',#623,(#626),.PCURVE_S1.);
#623 = B_SPLINE_CURVE_WITH_KNOTS('',1,(#624,#625),.UNSPECIFIED.,.F.,.F.,
  (2,2),(-5.07E-04,0.),.PIECEWISE_BEZIER_KNOTS.);
#624 = CARTESIAN_POINT('',(0.188804944441,5.131165242445E-02,
    0.50084459292));
#625 = CARTESIAN_POINT('',(0.188804944441,5.181843609904E-02,
    0.50084459292));
#626 = PCURVE('',#607,#627);
#627 = DEFINITIONAL_REPRESENTATION('',(#628),#632);
#628 = LINE('',#629,#630);
#629 = CARTESIAN_POINT('',(0.,0.));
#630 = VECTOR('',#631,1.);
#631 = DIRECTION('',(1.,0.));
#632 = ( GEOMETRIC_REPRESENTATION_CONTEXT(2) 
PARAMETRIC_REPRESENTATION_CONTEXT() REPRESENTATION_CONTEXT('2D SPACE',''
  ) );
#633 = ORIENTED_EDGE('',*,*,#634,.T.);
#634 = EDGE_CURVE('',#620,#635,#637,.T.);
#635 = VERTEX_POINT('',#636);
#636 = CARTESIAN_POINT('',(0.188804944441,5.181843609904E-02,
    0.509290522119));
#637 = SURFACE_CURVE('',#638,(#641),.PCURVE_S1.);
#638 = B_SPLINE_CURVE_WITH_KNOTS('',1,(#639,#640),.UNSPECIFIED.,.F.,.F.,
  (2,2),(0.,8.446E-03),.PIECEWISE_BEZIER_KNOTS.);
#639 = CARTESIAN_POINT('',(0.188804944441,5.181843609904E-02,
    0.50084459292));
#640 = CARTESIAN_POINT('',(0.188804944441,5.181843609904E-02,
    0.509290522119));
#641 = PCURVE('',#607,#642);
#642 = DEFINITIONAL_REPRESENTATION('',(#643),#647);
#643 = LINE('',#644,#645);
#644 = CARTESIAN_POINT('',(0.,0.));
#645 = VECTOR('',#646,1.);
#646 = DIRECTION('',(0.,1.));
#647 = ( GEOMETRIC_REPRESENTATION_CONTEXT(2) 
PARAMETRIC_REPRESENTATION_CONTEXT() REPRESENTATION_CONTEXT('2D SPACE',''
  ) );
#648 = ORIENTED_EDGE('',*,*,#649,.F.);
#649 = EDGE_CURVE('',#600,#635,#650,.T.);
#650 = SURFACE_CURVE('',#651,(#654),.PCURVE_S1.);
#651 = B_SPLINE_CURVE_WITH_KNOTS('',1,(#652,#653),.UNSPECIFIED.,.F.,.F.,
  (2,2),(-5.07E-04,0.),.PIECEWISE_BEZIER_KNOTS.);
#652 = CARTESIAN_POINT('',(0.188804944441,5.131165242445E-02,
    0.509290522119));
#653 = CARTESIAN_POINT('',(0.188804944441,5.181843609904E-02,
    0.509290522119));
#654 = PCURVE('',#607,#655);
#655 = DEFINITIONAL_REPRESENTATION('',(#656),#660);
#656 = LINE('',#657,#658);
#657 = CARTESIAN_POINT('',(0.,8.446E-03));
#658 = VECTOR('',#659,1.);
#659 = DIRECTION('',(1.,0.));
#660 = ( GEOMETRIC_REPRESENTATION_CONTEXT(2) 
PARAMETRIC_REPRESENTATION_CONTEXT() REPRESENTATION_CONTEXT('2D SPACE',''
  ) );
#661 = ( GEOMETRIC_REPRESENTATION_CONTEXT(3) 
GLOBAL_UNCERTAINTY_ASSIGNED_CONTEXT((#665)) GLOBAL_UNIT_ASSIGNED_CONTEXT
((#662,#663,#664)) REPRESENTATION_CONTEXT('Context #1',
  '3D Context with UNIT and UNCERTAINTY') );
#662 = ( LENGTH_UNIT() NAMED_UNIT(*) SI_UNIT(.MILLI.,.METRE.) );
#663 = ( NAMED_UNIT(*) PLANE_ANGLE_UNIT() SI_UNIT($,.RADIAN.) );
#664 = ( NAMED_UNIT(*) SI_UNIT($,.STERADIAN.) SOLID_ANGLE_UNIT() );
#665 = UNCERTAINTY_MEASURE_WITH_UNIT(LENGTH_MEASURE(1.E-07),#662,
  'distance_accuracy_value','confusion accuracy');
#666 = CONTEXT_DEPENDENT_SHAPE_REPRESENTATION(#667,#669);
#667 = ( REPRESENTATION_RELATIONSHIP('','',#590,#10) 
REPRESENTATION_RELATIONSHIP_WITH_TRANSFORMATION(#668) 
SHAPE_REPRESENTATION_RELATIONSHIP() );
#668 = ITEM_DEFINED_TRANSFORMATION('','',#11,#39);
#669 = PRODUCT_DEFINITION_SHAPE('Placement','Placement of an item',#670
  );
#670 = NEXT_ASSEMBLY_USAGE_OCCURRENCE('7','','',#5,#585,$);
#671 = PRODUCT_RELATED_PRODUCT_CATEGORY('part',$,(#587));
ENDSEC;
END-ISO-10303-21;
