ISO-10303-21;
HEADER;
FILE_DESCRIPTION(('Open CASCADE Model'),'2;1');
FILE_NAME('Open CASCADE Shape Model','2026-07-02T20:57:04',('Author'),(
    'Open CASCADE'),'Open CASCADE STEP processor 7.9','Open CASCADE 7.9'
  ,'Unknown');
FILE_SCHEMA(('AUTOMOTIVE_DESIGN { 1 0 10303 214 1 1 1 1 }'));
ENDSEC;
DATA;
#1 = APPLICATION_PROTOCOL_DEFINITION('international standard',
  'automotive_design',2000,#2);
#2 = APPLICATION_CONTEXT(
  'core data for automotive mechanical design processes');
#3 = SHAPE_DEFINITION_REPRESENTATION(#4,#10);
#4 = PRODUCT_DEFINITION_SHAPE('','',#5);
#5 = PRODUCT_DEFINITION('design','',#6,#9);
#6 = PRODUCT_DEFINITION_FORMATION('','',#7);
#7 = PRODUCT('Open CASCADE STEP translator 7.9 1',
  'Open CASCADE STEP translator 7.9 1','',(#8));
#8 = PRODUCT_CONTEXT('',#2,'mechanical');
#9 = PRODUCT_DEFINITION_CONTEXT('part definition',#2,'design');
#10 = SHAPE_REPRESENTATION('',(#11,#15,#19,#23),#27);
#11 = AXIS2_PLACEMENT_3D('',#12,#13,#14);
#12 = CARTESIAN_POINT('',(0.,0.,0.));
#13 = DIRECTION('',(0.,0.,1.));
#14 = DIRECTION('',(1.,0.,-0.));
#15 = AXIS2_PLACEMENT_3D('',#16,#17,#18);
#16 = CARTESIAN_POINT('',(0.,0.,0.));
#17 = DIRECTION('',(0.,0.,1.));
#18 = DIRECTION('',(1.,0.,-0.));
#19 = AXIS2_PLACEMENT_3D('',#20,#21,#22);
#20 = CARTESIAN_POINT('',(0.,0.,0.));
#21 = DIRECTION('',(0.,0.,1.));
#22 = DIRECTION('',(1.,0.,-0.));
#23 = AXIS2_PLACEMENT_3D('',#24,#25,#26);
#24 = CARTESIAN_POINT('',(0.,0.,0.));
#25 = DIRECTION('',(0.,0.,1.));
#26 = DIRECTION('',(1.,0.,-0.));
#27 = ( GEOMETRIC_REPRESENTATION_CONTEXT(3) 
GLOBAL_UNCERTAINTY_ASSIGNED_CONTEXT((#31)) GLOBAL_UNIT_ASSIGNED_CONTEXT(
(#28,#29,#30)) REPRESENTATION_CONTEXT('Context #1',
  '3D Context with UNIT and UNCERTAINTY') );
#28 = ( LENGTH_UNIT() NAMED_UNIT(*) SI_UNIT(.MILLI.,.METRE.) );
#29 = ( NAMED_UNIT(*) PLANE_ANGLE_UNIT() SI_UNIT($,.RADIAN.) );
#30 = ( NAMED_UNIT(*) SI_UNIT($,.STERADIAN.) SOLID_ANGLE_UNIT() );
#31 = UNCERTAINTY_MEASURE_WITH_UNIT(LENGTH_MEASURE(1.E-07),#28,
  'distance_accuracy_value','confusion accuracy');
#32 = PRODUCT_RELATED_PRODUCT_CATEGORY('part',$,(#7));
#33 = SHAPE_DEFINITION_REPRESENTATION(#34,#40);
#34 = PRODUCT_DEFINITION_SHAPE('','',#35);
#35 = PRODUCT_DEFINITION('design','',#36,#39);
#36 = PRODUCT_DEFINITION_FORMATION('','',#37);
#37 = PRODUCT('Open CASCADE STEP translator 7.9 1.1',
  'Open CASCADE STEP translator 7.9 1.1','',(#38));
#38 = PRODUCT_CONTEXT('',#2,'mechanical');
#39 = PRODUCT_DEFINITION_CONTEXT('part definition',#2,'design');
#40 = MANIFOLD_SURFACE_SHAPE_REPRESENTATION('',(#11,#41),#122);
#41 = SHELL_BASED_SURFACE_MODEL('',(#42));
#42 = OPEN_SHELL('',(#43));
#43 = ADVANCED_FACE('',(#44),#57,.T.);
#44 = FACE_BOUND('',#45,.T.);
#45 = EDGE_LOOP('',(#46,#85,#103,#104));
#46 = ORIENTED_EDGE('',*,*,#47,.F.);
#47 = EDGE_CURVE('',#48,#50,#52,.T.);
#48 = VERTEX_POINT('',#49);
#49 = CARTESIAN_POINT('',(0.333333333552,0.999999999173,0.333333333552)
  );
#50 = VERTEX_POINT('',#51);
#51 = CARTESIAN_POINT('',(0.333333333552,8.270000240174E-10,
    0.333333333552));
#52 = SEAM_CURVE('',#53,(#56,#78),.PCURVE_S1.);
#53 = B_SPLINE_CURVE_WITH_KNOTS('',1,(#54,#55),.UNSPECIFIED.,.F.,.F.,(2,
    2),(-0.5,0.5),.PIECEWISE_BEZIER_KNOTS.);
#54 = CARTESIAN_POINT('',(0.333333333552,0.999999999173,0.333333333552)
  );
#55 = CARTESIAN_POINT('',(0.333333333552,8.270000240174E-10,
    0.333333333552));
#56 = PCURVE('',#57,#72);
#57 = ( BOUNDED_SURFACE() B_SPLINE_SURFACE(2,1,(
    (#58,#59)
    ,(#60,#61)
    ,(#62,#63)
    ,(#64,#65)
    ,(#66,#67)
    ,(#68,#69)
,(#70,#71
    )),.UNSPECIFIED.,.T.,.F.,.F.) B_SPLINE_SURFACE_WITH_KNOTS((1,2,2,2,2
    ,1),(2,2),(-2.094395,0.,2.094395,4.18879,6.283185,8.37758),(-0.5,0.5
),.UNSPECIFIED.) GEOMETRIC_REPRESENTATION_ITEM() 
RATIONAL_B_SPLINE_SURFACE((
    (1.,1.)
    ,(0.5,0.5)
    ,(1.,1.)
    ,(0.5,0.5)
    ,(1.,1.)
    ,(0.5,0.5)
,(1.,1.))) REPRESENTATION_ITEM('') SURFACE() );
#58 = CARTESIAN_POINT('',(0.333333333552,0.999999999173,0.333333333552)
  );
#59 = CARTESIAN_POINT('',(0.333333333552,8.270000240174E-10,
    0.333333333552));
#60 = CARTESIAN_POINT('',(0.333333333552,0.999999999173,
    4.46581994115E-02));
#61 = CARTESIAN_POINT('',(0.333333333552,8.270000240174E-10,
    4.46581994115E-02));
#62 = CARTESIAN_POINT('',(8.3333333966E-02,0.999999999173,0.188995766482
    ));
#63 = CARTESIAN_POINT('',(8.3333333966E-02,8.270000240174E-10,
    0.188995766482));
#64 = CARTESIAN_POINT('',(-0.16666666562,0.999999999173,0.333333333552)
  );
#65 = CARTESIAN_POINT('',(-0.16666666562,8.270000240174E-10,
    0.333333333552));
#66 = CARTESIAN_POINT('',(8.3333333966E-02,0.999999999173,0.477670900622
    ));
#67 = CARTESIAN_POINT('',(8.3333333966E-02,8.270000240174E-10,
    0.477670900622));
#68 = CARTESIAN_POINT('',(0.333333333552,0.999999999173,0.622008467693)
  );
#69 = CARTESIAN_POINT('',(0.333333333552,8.270000240174E-10,
    0.622008467693));
#70 = CARTESIAN_POINT('',(0.333333333552,0.999999999173,0.333333333552)
  );
#71 = CARTESIAN_POINT('',(0.333333333552,8.270000240174E-10,
    0.333333333552));
#72 = DEFINITIONAL_REPRESENTATION('',(#73),#77);
#73 = LINE('',#74,#75);
#74 = CARTESIAN_POINT('',(0.,0.));
#75 = VECTOR('',#76,1.);
#76 = DIRECTION('',(0.,1.));
#77 = ( GEOMETRIC_REPRESENTATION_CONTEXT(2) 
PARAMETRIC_REPRESENTATION_CONTEXT() REPRESENTATION_CONTEXT('2D SPACE',''
  ) );
#78 = PCURVE('',#57,#79);
#79 = DEFINITIONAL_REPRESENTATION('',(#80),#84);
#80 = LINE('',#81,#82);
#81 = CARTESIAN_POINT('',(6.283185,0.));
#82 = VECTOR('',#83,1.);
#83 = DIRECTION('',(0.,1.));
#84 = ( GEOMETRIC_REPRESENTATION_CONTEXT(2) 
PARAMETRIC_REPRESENTATION_CONTEXT() REPRESENTATION_CONTEXT('2D SPACE',''
  ) );
#85 = ORIENTED_EDGE('',*,*,#86,.T.);
#86 = EDGE_CURVE('',#48,#48,#87,.T.);
#87 = SURFACE_CURVE('',#88,(#96),.PCURVE_S1.);
#88 = ( BOUNDED_CURVE() B_SPLINE_CURVE(2,(#89,#90,#91,#92,#93,#94,#95),
.UNSPECIFIED.,.T.,.F.) B_SPLINE_CURVE_WITH_KNOTS((1,2,2,2,2,1),(
-2.094395,0.,2.094395,4.18879,6.283185,8.37758),.UNSPECIFIED.) CURVE() 
GEOMETRIC_REPRESENTATION_ITEM() RATIONAL_B_SPLINE_CURVE((1.,0.5,1.,0.5,
1.,0.5,1.)) REPRESENTATION_ITEM('') );
#89 = CARTESIAN_POINT('',(0.333333333552,0.999999999173,0.333333333552)
  );
#90 = CARTESIAN_POINT('',(0.333333333552,0.999999999173,
    4.46581994115E-02));
#91 = CARTESIAN_POINT('',(8.3333333966E-02,0.999999999173,0.188995766482
    ));
#92 = CARTESIAN_POINT('',(-0.16666666562,0.999999999173,0.333333333552)
  );
#93 = CARTESIAN_POINT('',(8.3333333966E-02,0.999999999173,0.477670900622
    ));
#94 = CARTESIAN_POINT('',(0.333333333552,0.999999999173,0.622008467693)
  );
#95 = CARTESIAN_POINT('',(0.333333333552,0.999999999173,0.333333333552)
  );
#96 = PCURVE('',#57,#97);
#97 = DEFINITIONAL_REPRESENTATION('',(#98),#102);
#98 = LINE('',#99,#100);
#99 = CARTESIAN_POINT('',(0.,-0.5));
#100 = VECTOR('',#101,1.);
#101 = DIRECTION('',(1.,0.));
#102 = ( GEOMETRIC_REPRESENTATION_CONTEXT(2) 
PARAMETRIC_REPRESENTATION_CONTEXT() REPRESENTATION_CONTEXT('2D SPACE',''
  ) );
#103 = ORIENTED_EDGE('',*,*,#47,.T.);
#104 = ORIENTED_EDGE('',*,*,#105,.F.);
#105 = EDGE_CURVE('',#50,#50,#106,.T.);
#106 = SURFACE_CURVE('',#107,(#115),.PCURVE_S1.);
#107 = ( BOUNDED_CURVE() B_SPLINE_CURVE(2,(#108,#109,#110,#111,#112,#113
,#114),.UNSPECIFIED.,.T.,.F.) B_SPLINE_CURVE_WITH_KNOTS((1,2,2,2,2,1),(
-2.094395,0.,2.094395,4.18879,6.283185,8.37758),.UNSPECIFIED.) CURVE() 
GEOMETRIC_REPRESENTATION_ITEM() RATIONAL_B_SPLINE_CURVE((1.,0.5,1.,0.5,
1.,0.5,1.)) REPRESENTATION_ITEM('') );
#108 = CARTESIAN_POINT('',(0.333333333552,8.270000240174E-10,
    0.333333333552));
#109 = CARTESIAN_POINT('',(0.333333333552,8.270000240174E-10,
    4.46581994115E-02));
#110 = CARTESIAN_POINT('',(8.3333333966E-02,8.270000240174E-10,
    0.188995766482));
#111 = CARTESIAN_POINT('',(-0.16666666562,8.270000240174E-10,
    0.333333333552));
#112 = CARTESIAN_POINT('',(8.3333333966E-02,8.270000240174E-10,
    0.477670900622));
#113 = CARTESIAN_POINT('',(0.333333333552,8.270000240174E-10,
    0.622008467693));
#114 = CARTESIAN_POINT('',(0.333333333552,8.270000240174E-10,
    0.333333333552));
#115 = PCURVE('',#57,#116);
#116 = DEFINITIONAL_REPRESENTATION('',(#117),#121);
#117 = LINE('',#118,#119);
#118 = CARTESIAN_POINT('',(0.,0.5));
#119 = VECTOR('',#120,1.);
#120 = DIRECTION('',(1.,0.));
#121 = ( GEOMETRIC_REPRESENTATION_CONTEXT(2) 
PARAMETRIC_REPRESENTATION_CONTEXT() REPRESENTATION_CONTEXT('2D SPACE',''
  ) );
#122 = ( GEOMETRIC_REPRESENTATION_CONTEXT(3) 
GLOBAL_UNCERTAINTY_ASSIGNED_CONTEXT((#126)) GLOBAL_UNIT_ASSIGNED_CONTEXT
((#123,#124,#125)) REPRESENTATION_CONTEXT('Context #1',
  '3D Context with UNIT and UNCERTAINTY') );
#123 = ( LENGTH_UNIT() NAMED_UNIT(*) SI_UNIT(.MILLI.,.METRE.) );
#124 = ( NAMED_UNIT(*) PLANE_ANGLE_UNIT() SI_UNIT($,.RADIAN.) );
#125 = ( NAMED_UNIT(*) SI_UNIT($,.STERADIAN.) SOLID_ANGLE_UNIT() );
#126 = UNCERTAINTY_MEASURE_WITH_UNIT(LENGTH_MEASURE(1.E-07),#123,
  'distance_accuracy_value','confusion accuracy');
#127 = CONTEXT_DEPENDENT_SHAPE_REPRESENTATION(#128,#130);
#128 = ( REPRESENTATION_RELATIONSHIP('','',#40,#10) 
REPRESENTATION_RELATIONSHIP_WITH_TRANSFORMATION(#129) 
SHAPE_REPRESENTATION_RELATIONSHIP() );
#129 = ITEM_DEFINED_TRANSFORMATION('','',#11,#15);
#130 = PRODUCT_DEFINITION_SHAPE('Placement','Placement of an item',#131
  );
#131 = NEXT_ASSEMBLY_USAGE_OCCURRENCE('1','','',#5,#35,$);
#132 = PRODUCT_RELATED_PRODUCT_CATEGORY('part',$,(#37));
#133 = SHAPE_DEFINITION_REPRESENTATION(#134,#140);
#134 = PRODUCT_DEFINITION_SHAPE('','',#135);
#135 = PRODUCT_DEFINITION('design','',#136,#139);
#136 = PRODUCT_DEFINITION_FORMATION('','',#137);
#137 = PRODUCT('Open CASCADE STEP translator 7.9 1.2',
  'Open CASCADE STEP translator 7.9 1.2','',(#138));
#138 = PRODUCT_CONTEXT('',#2,'mechanical');
#139 = PRODUCT_DEFINITION_CONTEXT('part definition',#2,'design');
#140 = MANIFOLD_SURFACE_SHAPE_REPRESENTATION('',(#11,#141),#172);
#141 = SHELL_BASED_SURFACE_MODEL('',(#142));
#142 = OPEN_SHELL('',(#143));
#143 = ADVANCED_FACE('',(#144),#157,.T.);
#144 = FACE_BOUND('',#145,.T.);
#145 = EDGE_LOOP('',(#146));
#146 = ORIENTED_EDGE('',*,*,#147,.F.);
#147 = EDGE_CURVE('',#148,#148,#150,.T.);
#148 = VERTEX_POINT('',#149);
#149 = CARTESIAN_POINT('',(0.166667,0.,0.5));
#150 = SURFACE_CURVE('',#151,(#156),.PCURVE_S1.);
#151 = CIRCLE('',#152,0.166667);
#152 = AXIS2_PLACEMENT_3D('',#153,#154,#155);
#153 = CARTESIAN_POINT('',(0.166667,0.,0.333333));
#154 = DIRECTION('',(0.,1.,0.));
#155 = DIRECTION('',(0.,-0.,1.));
#156 = PCURVE('',#157,#162);
#157 = PLANE('',#158);
#158 = AXIS2_PLACEMENT_3D('',#159,#160,#161);
#159 = CARTESIAN_POINT('',(0.166667,0.,0.333332995074));
#160 = DIRECTION('',(-0.,-1.,-0.));
#161 = DIRECTION('',(0.,0.,-1.));
#162 = DEFINITIONAL_REPRESENTATION('',(#163),#171);
#163 = ( BOUNDED_CURVE() B_SPLINE_CURVE(2,(#164,#165,#166,#167,#168,#169
,#170),.UNSPECIFIED.,.T.,.F.) B_SPLINE_CURVE_WITH_KNOTS((1,2,2,2,2,1),(
    -2.094395102393,0.,2.094395102393,4.188790204786,6.28318530718,
8.377580409573),.UNSPECIFIED.) CURVE() GEOMETRIC_REPRESENTATION_ITEM() 
RATIONAL_B_SPLINE_CURVE((1.,0.5,1.,0.5,1.,0.5,1.)) REPRESENTATION_ITEM(
  '') );
#164 = CARTESIAN_POINT('',(-0.166667004926,-7.771561172376E-16));
#165 = CARTESIAN_POINT('',(-0.166667004926,0.288675711945));
#166 = CARTESIAN_POINT('',(8.333349507359E-02,0.144337855973));
#167 = CARTESIAN_POINT('',(0.333333995074,-7.363344756229E-16));
#168 = CARTESIAN_POINT('',(8.333349507359E-02,-0.144337855973));
#169 = CARTESIAN_POINT('',(-0.166667004926,-0.288675711945));
#170 = CARTESIAN_POINT('',(-0.166667004926,-7.771561172376E-16));
#171 = ( GEOMETRIC_REPRESENTATION_CONTEXT(2) 
PARAMETRIC_REPRESENTATION_CONTEXT() REPRESENTATION_CONTEXT('2D SPACE',''
  ) );
#172 = ( GEOMETRIC_REPRESENTATION_CONTEXT(3) 
GLOBAL_UNCERTAINTY_ASSIGNED_CONTEXT((#176)) GLOBAL_UNIT_ASSIGNED_CONTEXT
((#173,#174,#175)) REPRESENTATION_CONTEXT('Context #1',
  '3D Context with UNIT and UNCERTAINTY') );
#173 = ( LENGTH_UNIT() NAMED_UNIT(*) SI_UNIT(.MILLI.,.METRE.) );
#174 = ( NAMED_UNIT(*) PLANE_ANGLE_UNIT() SI_UNIT($,.RADIAN.) );
#175 = ( NAMED_UNIT(*) SI_UNIT($,.STERADIAN.) SOLID_ANGLE_UNIT() );
#176 = UNCERTAINTY_MEASURE_WITH_UNIT(LENGTH_MEASURE(1.E-07),#173,
  'distance_accuracy_value','confusion accuracy');
#177 = CONTEXT_DEPENDENT_SHAPE_REPRESENTATION(#178,#180);
#178 = ( REPRESENTATION_RELATIONSHIP('','',#140,#10) 
REPRESENTATION_RELATIONSHIP_WITH_TRANSFORMATION(#179) 
SHAPE_REPRESENTATION_RELATIONSHIP() );
#179 = ITEM_DEFINED_TRANSFORMATION('','',#11,#19);
#180 = PRODUCT_DEFINITION_SHAPE('Placement','Placement of an item',#181
  );
#181 = NEXT_ASSEMBLY_USAGE_OCCURRENCE('2','','',#5,#135,$);
#182 = PRODUCT_RELATED_PRODUCT_CATEGORY('part',$,(#137));
#183 = SHAPE_DEFINITION_REPRESENTATION(#184,#190);
#184 = PRODUCT_DEFINITION_SHAPE('','',#185);
#185 = PRODUCT_DEFINITION('design','',#186,#189);
#186 = PRODUCT_DEFINITION_FORMATION('','',#187);
#187 = PRODUCT('Open CASCADE STEP translator 7.9 1.3',
  'Open CASCADE STEP translator 7.9 1.3','',(#188));
#188 = PRODUCT_CONTEXT('',#2,'mechanical');
#189 = PRODUCT_DEFINITION_CONTEXT('part definition',#2,'design');
#190 = MANIFOLD_SURFACE_SHAPE_REPRESENTATION('',(#11,#191),#218);
#191 = SHELL_BASED_SURFACE_MODEL('',(#192));
#192 = OPEN_SHELL('',(#193));
#193 = ADVANCED_FACE('',(#194),#207,.T.);
#194 = FACE_BOUND('',#195,.T.);
#195 = EDGE_LOOP('',(#196));
#196 = ORIENTED_EDGE('',*,*,#197,.T.);
#197 = EDGE_CURVE('',#198,#198,#200,.T.);
#198 = VERTEX_POINT('',#199);
#199 = CARTESIAN_POINT('',(0.166667,1.,0.5));
#200 = SURFACE_CURVE('',#201,(#206),.PCURVE_S1.);
#201 = CIRCLE('',#202,0.166667);
#202 = AXIS2_PLACEMENT_3D('',#203,#204,#205);
#203 = CARTESIAN_POINT('',(0.166667,1.,0.333333));
#204 = DIRECTION('',(0.,1.,0.));
#205 = DIRECTION('',(0.,-0.,1.));
#206 = PCURVE('',#207,#212);
#207 = PLANE('',#208);
#208 = AXIS2_PLACEMENT_3D('',#209,#210,#211);
#209 = CARTESIAN_POINT('',(0.166667,1.,0.333332995074));
#210 = DIRECTION('',(0.,1.,0.));
#211 = DIRECTION('',(0.,-0.,1.));
#212 = DEFINITIONAL_REPRESENTATION('',(#213),#217);
#213 = CIRCLE('',#214,0.166667);
#214 = AXIS2_PLACEMENT_2D('',#215,#216);
#215 = CARTESIAN_POINT('',(4.926405339223E-09,-7.771561172376E-16));
#216 = DIRECTION('',(1.,0.));
#217 = ( GEOMETRIC_REPRESENTATION_CONTEXT(2) 
PARAMETRIC_REPRESENTATION_CONTEXT() REPRESENTATION_CONTEXT('2D SPACE',''
  ) );
#218 = ( GEOMETRIC_REPRESENTATION_CONTEXT(3) 
GLOBAL_UNCERTAINTY_ASSIGNED_CONTEXT((#222)) GLOBAL_UNIT_ASSIGNED_CONTEXT
((#219,#220,#221)) REPRESENTATION_CONTEXT('Context #1',
  '3D Context with UNIT and UNCERTAINTY') );
#219 = ( LENGTH_UNIT() NAMED_UNIT(*) SI_UNIT(.MILLI.,.METRE.) );
#220 = ( NAMED_UNIT(*) PLANE_ANGLE_UNIT() SI_UNIT($,.RADIAN.) );
#221 = ( NAMED_UNIT(*) SI_UNIT($,.STERADIAN.) SOLID_ANGLE_UNIT() );
#222 = UNCERTAINTY_MEASURE_WITH_UNIT(LENGTH_MEASURE(1.E-07),#219,
  'distance_accuracy_value','confusion accuracy');
#223 = CONTEXT_DEPENDENT_SHAPE_REPRESENTATION(#224,#226);
#224 = ( REPRESENTATION_RELATIONSHIP('','',#190,#10) 
REPRESENTATION_RELATIONSHIP_WITH_TRANSFORMATION(#225) 
SHAPE_REPRESENTATION_RELATIONSHIP() );
#225 = ITEM_DEFINED_TRANSFORMATION('','',#11,#23);
#226 = PRODUCT_DEFINITION_SHAPE('Placement','Placement of an item',#227
  );
#227 = NEXT_ASSEMBLY_USAGE_OCCURRENCE('3','','',#5,#185,$);
#228 = PRODUCT_RELATED_PRODUCT_CATEGORY('part',$,(#187));
ENDSEC;
END-ISO-10303-21;
