solid 
 facet normal -9.973723e-01  0.000000e+00  7.244643e-02
   outer loop
     vertex  3.315838e-01  8.270000e-10  3.092480e-01
     vertex  3.333333e-01  8.270000e-10  3.333333e-01
     vertex  3.333333e-01  1.000000e+00  3.333333e-01
   endloop
 endfacet
 facet normal -9.973723e-01  0.000000e+00  7.244643e-02
   outer loop
     vertex  3.315838e-01  8.270000e-10  3.092480e-01
     vertex  3.333333e-01  1.000000e+00  3.333333e-01
     vertex  3.315838e-01  1.000000e+00  3.092480e-01
   endloop
 endfacet
 facet normal -9.769844e-01  0.000000e+00  2.133109e-01
   outer loop
     vertex  3.266147e-01  8.270000e-10  2.864889e-01
     vertex  3.315838e-01  1.000000e+00  3.092480e-01
     vertex  3.266147e-01  1.000000e+00  2.864889e-01
   endloop
 endfacet
 facet normal -9.769844e-01  0.000000e+00  2.133109e-01
   outer loop
     vertex  3.266147e-01  8.270000e-10  2.864889e-01
     vertex  3.315838e-01  8.270000e-10  3.092480e-01
     vertex  3.315838e-01  1.000000e+00  3.092480e-01
   endloop
 endfacet
 facet normal -9.371240e-01  0.000000e+00  3.489966e-01
   outer loop
     vertex  3.182931e-01  8.270000e-10  2.641436e-01
     vertex  3.266147e-01  1.000000e+00  2.864889e-01
     vertex  3.182931e-01  1.000000e+00  2.641436e-01
   endloop
 endfacet
 facet normal -9.371240e-01  0.000000e+00  3.489966e-01
   outer loop
     vertex  3.182931e-01  8.270000e-10  2.641436e-01
     vertex  3.266147e-01  8.270000e-10  2.864889e-01
     vertex  3.266147e-01  1.000000e+00  2.864889e-01
   endloop
 endfacet
 facet normal -8.779285e-01  0.000000e+00  4.787917e-01
   outer loop
     vertex  3.069420e-01  8.270000e-10  2.433300e-01
     vertex  3.182931e-01  1.000000e+00  2.641436e-01
     vertex  3.069420e-01  1.000000e+00  2.433300e-01
   endloop
 endfacet
 facet normal -8.779285e-01  0.000000e+00  4.787917e-01
   outer loop
     vertex  3.069420e-01  8.270000e-10  2.433300e-01
     vertex  3.182931e-01  8.270000e-10  2.641436e-01
     vertex  3.182931e-01  1.000000e+00  2.641436e-01
   endloop
 endfacet
 facet normal -8.013442e-01  0.000000e+00  5.982035e-01
   outer loop
     vertex  2.928369e-01  8.270000e-10  2.244350e-01
     vertex  3.069420e-01  1.000000e+00  2.433300e-01
     vertex  2.928369e-01  1.000000e+00  2.244350e-01
   endloop
 endfacet
 facet normal -8.013442e-01  0.000000e+00  5.982035e-01
   outer loop
     vertex  2.928369e-01  8.270000e-10  2.244350e-01
     vertex  3.069420e-01  8.270000e-10  2.433300e-01
     vertex  3.069420e-01  1.000000e+00  2.433300e-01
   endloop
 endfacet
 facet normal -7.091652e-01  0.000000e+00  7.050423e-01
   outer loop
     vertex  2.762988e-01  8.270000e-10  2.078002e-01
     vertex  2.928369e-01  1.000000e+00  2.244350e-01
     vertex  2.762988e-01  1.000000e+00  2.078002e-01
   endloop
 endfacet
 facet normal -7.091652e-01  0.000000e+00  7.050423e-01
   outer loop
     vertex  2.762988e-01  8.270000e-10  2.078002e-01
     vertex  2.928369e-01  8.270000e-10  2.244350e-01
     vertex  2.928369e-01  1.000000e+00  2.244350e-01
   endloop
 endfacet
 facet normal -6.034407e-01  0.000000e+00  7.974079e-01
   outer loop
     vertex  2.576878e-01  8.270000e-10  1.937162e-01
     vertex  2.762988e-01  1.000000e+00  2.078002e-01
     vertex  2.576878e-01  1.000000e+00  1.937162e-01
   endloop
 endfacet
 facet normal -6.034407e-01  0.000000e+00  7.974079e-01
   outer loop
     vertex  2.576878e-01  8.270000e-10  1.937162e-01
     vertex  2.762988e-01  8.270000e-10  2.078002e-01
     vertex  2.762988e-01  1.000000e+00  2.078002e-01
   endloop
 endfacet
 facet normal -4.796592e-01  0.000000e+00  8.774549e-01
   outer loop
     vertex  2.350525e-01  8.270000e-10  1.813427e-01
     vertex  2.576878e-01  1.000000e+00  1.937162e-01
     vertex  2.350525e-01  1.000000e+00  1.813427e-01
   endloop
 endfacet
 facet normal -4.796592e-01  0.000000e+00  8.774549e-01
   outer loop
     vertex  2.350525e-01  8.270000e-10  1.813427e-01
     vertex  2.576878e-01  8.270000e-10  1.937162e-01
     vertex  2.576878e-01  1.000000e+00  1.937162e-01
   endloop
 endfacet
 facet normal -3.389433e-01  0.000000e+00  9.408068e-01
   outer loop
     vertex  2.109272e-01  8.270000e-10  1.726511e-01
     vertex  2.350525e-01  1.000000e+00  1.813427e-01
     vertex  2.109272e-01  1.000000e+00  1.726511e-01
   endloop
 endfacet
 facet normal -3.389433e-01  0.000000e+00  9.408068e-01
   outer loop
     vertex  2.109272e-01  8.270000e-10  1.726511e-01
     vertex  2.350525e-01  8.270000e-10  1.813427e-01
     vertex  2.350525e-01  1.000000e+00  1.813427e-01
   endloop
 endfacet
 facet normal -1.910573e-01  0.000000e+00  9.815789e-01
   outer loop
     vertex  1.859054e-01  8.270000e-10  1.677808e-01
     vertex  2.109272e-01  1.000000e+00  1.726511e-01
     vertex  1.859054e-01  1.000000e+00  1.677808e-01
   endloop
 endfacet
 facet normal -1.910573e-01  0.000000e+00  9.815789e-01
   outer loop
     vertex  1.859054e-01  8.270000e-10  1.677808e-01
     vertex  2.109272e-01  8.270000e-10  1.726511e-01
     vertex  2.109272e-01  1.000000e+00  1.726511e-01
   endloop
 endfacet
 facet normal -3.958898e-02  0.000000e+00  9.992160e-01
   outer loop
     vertex  1.605861e-01  8.270000e-10  1.667776e-01
     vertex  1.859054e-01  1.000000e+00  1.677808e-01
     vertex  1.605861e-01  1.000000e+00  1.667776e-01
   endloop
 endfacet
 facet normal -3.958898e-02  0.000000e+00  9.992160e-01
   outer loop
     vertex  1.605861e-01  8.270000e-10  1.667776e-01
     vertex  1.859054e-01  8.270000e-10  1.677808e-01
     vertex  1.859054e-01  1.000000e+00  1.677808e-01
   endloop
 endfacet
 facet normal  1.118841e-01 -0.000000e+00  9.937213e-01
   outer loop
     vertex  1.355592e-01  8.270000e-10  1.695954e-01
     vertex  1.605861e-01  1.000000e+00  1.667776e-01
     vertex  1.355592e-01  1.000000e+00  1.695954e-01
   endloop
 endfacet
 facet normal  1.118841e-01  0.000000e+00  9.937213e-01
   outer loop
     vertex  1.355592e-01  8.270000e-10  1.695954e-01
     vertex  1.605861e-01  8.270000e-10  1.667776e-01
     vertex  1.605861e-01  1.000000e+00  1.667776e-01
   endloop
 endfacet
 facet normal  2.598795e-01  0.000000e+00  9.656411e-01
   outer loop
     vertex  1.113922e-01  8.270000e-10  1.760994e-01
     vertex  1.355592e-01  8.270000e-10  1.695954e-01
     vertex  1.355592e-01  1.000000e+00  1.695954e-01
   endloop
 endfacet
 facet normal  2.598795e-01 -0.000000e+00  9.656411e-01
   outer loop
     vertex  1.113922e-01  8.270000e-10  1.760994e-01
     vertex  1.355592e-01  1.000000e+00  1.695954e-01
     vertex  1.113922e-01  1.000000e+00  1.760994e-01
   endloop
 endfacet
 facet normal  4.010901e-01 -0.000000e+00  9.160386e-01
   outer loop
     vertex  8.861689e-02  8.270000e-10  1.860716e-01
     vertex  1.113922e-01  1.000000e+00  1.760994e-01
     vertex  8.861689e-02  1.000000e+00  1.860716e-01
   endloop
 endfacet
 facet normal  4.010901e-01  0.000000e+00  9.160386e-01
   outer loop
     vertex  8.861689e-02  8.270000e-10  1.860716e-01
     vertex  1.113922e-01  8.270000e-10  1.760994e-01
     vertex  1.113922e-01  1.000000e+00  1.760994e-01
   endloop
 endfacet
 facet normal  5.289070e-01  0.000000e+00  8.486798e-01
   outer loop
     vertex  6.884524e-02  8.270000e-10  1.983935e-01
     vertex  8.861689e-02  8.270000e-10  1.860716e-01
     vertex  8.861689e-02  1.000000e+00  1.860716e-01
   endloop
 endfacet
 facet normal  5.289070e-01 -0.000000e+00  8.486798e-01
   outer loop
     vertex  6.884524e-02  8.270000e-10  1.983935e-01
     vertex  8.861689e-02  1.000000e+00  1.860716e-01
     vertex  6.884524e-02  1.000000e+00  1.983935e-01
   endloop
 endfacet
 facet normal  6.437733e-01 -0.000000e+00  7.652162e-01
   outer loop
     vertex  5.045542e-02  8.270000e-10  2.138648e-01
     vertex  6.884524e-02  1.000000e+00  1.983935e-01
     vertex  5.045542e-02  1.000000e+00  2.138648e-01
   endloop
 endfacet
 facet normal  6.437733e-01  0.000000e+00  7.652162e-01
   outer loop
     vertex  5.045542e-02  8.270000e-10  2.138648e-01
     vertex  6.884524e-02  8.270000e-10  1.983935e-01
     vertex  6.884524e-02  1.000000e+00  1.983935e-01
   endloop
 endfacet
 facet normal  7.468308e-01  0.000000e+00  6.650141e-01
   outer loop
     vertex  3.457402e-02  8.270000e-10  2.317001e-01
     vertex  5.045542e-02  8.270000e-10  2.138648e-01
     vertex  5.045542e-02  1.000000e+00  2.138648e-01
   endloop
 endfacet
 facet normal  7.468308e-01 -0.000000e+00  6.650141e-01
   outer loop
     vertex  3.457402e-02  8.270000e-10  2.317001e-01
     vertex  5.045542e-02  1.000000e+00  2.138648e-01
     vertex  3.457402e-02  1.000000e+00  2.317001e-01
   endloop
 endfacet
 facet normal  8.339764e-01 -0.000000e+00  5.518001e-01
   outer loop
     vertex  2.147322e-02  8.270000e-10  2.515003e-01
     vertex  3.457402e-02  1.000000e+00  2.317001e-01
     vertex  2.147322e-02  1.000000e+00  2.515003e-01
   endloop
 endfacet
 facet normal  8.339764e-01  0.000000e+00  5.518001e-01
   outer loop
     vertex  2.147322e-02  8.270000e-10  2.515003e-01
     vertex  3.457402e-02  8.270000e-10  2.317001e-01
     vertex  3.457402e-02  1.000000e+00  2.317001e-01
   endloop
 endfacet
 facet normal  9.037520e-01  0.000000e+00  4.280565e-01
   outer loop
     vertex  1.136618e-02  8.270000e-10  2.728392e-01
     vertex  2.147322e-02  8.270000e-10  2.515003e-01
     vertex  2.147322e-02  1.000000e+00  2.515003e-01
   endloop
 endfacet
 facet normal  9.037520e-01 -0.000000e+00  4.280565e-01
   outer loop
     vertex  1.136618e-02  8.270000e-10  2.728392e-01
     vertex  2.147322e-02  1.000000e+00  2.515003e-01
     vertex  1.136618e-02  1.000000e+00  2.728392e-01
   endloop
 endfacet
 facet normal  9.550625e-01 -0.000000e+00  2.964044e-01
   outer loop
     vertex  4.404294e-03  8.270000e-10  2.952715e-01
     vertex  1.136618e-02  1.000000e+00  2.728392e-01
     vertex  4.404294e-03  1.000000e+00  2.952715e-01
   endloop
 endfacet
 facet normal  9.550625e-01  0.000000e+00  2.964044e-01
   outer loop
     vertex  4.404294e-03  8.270000e-10  2.952715e-01
     vertex  1.136618e-02  8.270000e-10  2.728392e-01
     vertex  1.136618e-02  1.000000e+00  2.728392e-01
   endloop
 endfacet
 facet normal  9.871892e-01  0.000000e+00  1.595537e-01
   outer loop
     vertex  6.756440e-04  8.270000e-10  3.183414e-01
     vertex  4.404294e-03  8.270000e-10  2.952715e-01
     vertex  4.404294e-03  1.000000e+00  2.952715e-01
   endloop
 endfacet
 facet normal  9.871892e-01 -0.000000e+00  1.595537e-01
   outer loop
     vertex  6.756440e-04  8.270000e-10  3.183414e-01
     vertex  4.404294e-03  1.000000e+00  2.952715e-01
     vertex  6.756440e-04  1.000000e+00  3.183414e-01
   endloop
 endfacet
 facet normal  9.997949e-01 -0.000000e+00  2.025219e-02
   outer loop
     vertex  2.046926e-04  8.270000e-10  3.415910e-01
     vertex  6.756440e-04  1.000000e+00  3.183414e-01
     vertex  2.046926e-04  1.000000e+00  3.415910e-01
   endloop
 endfacet
 facet normal  9.997949e-01  0.000000e+00  2.025219e-02
   outer loop
     vertex  2.046926e-04  8.270000e-10  3.415910e-01
     vertex  6.756440e-04  8.270000e-10  3.183414e-01
     vertex  6.756440e-04  1.000000e+00  3.183414e-01
   endloop
 endfacet
 facet normal  9.919813e-01  0.000000e+00 -1.263850e-01
   outer loop
     vertex  3.451996e-03  8.270000e-10  3.670787e-01
     vertex  2.046926e-04  8.270000e-10  3.415910e-01
     vertex  2.046926e-04  1.000000e+00  3.415910e-01
   endloop
 endfacet
 facet normal  9.919813e-01  0.000000e+00 -1.263850e-01
   outer loop
     vertex  3.451996e-03  8.270000e-10  3.670787e-01
     vertex  2.046926e-04  1.000000e+00  3.415910e-01
     vertex  3.451996e-03  1.000000e+00  3.670787e-01
   endloop
 endfacet
 facet normal  9.608945e-01  0.000000e+00 -2.769146e-01
   outer loop
     vertex  1.052483e-02  8.270000e-10  3.916215e-01
     vertex  3.451996e-03  8.270000e-10  3.670787e-01
     vertex  3.451996e-03  1.000000e+00  3.670787e-01
   endloop
 endfacet
 facet normal  9.608945e-01  0.000000e+00 -2.769146e-01
   outer loop
     vertex  1.052483e-02  8.270000e-10  3.916215e-01
     vertex  3.451996e-03  1.000000e+00  3.670787e-01
     vertex  1.052483e-02  1.000000e+00  3.916215e-01
   endloop
 endfacet
 facet normal  9.074908e-01  0.000000e+00 -4.200720e-01
   outer loop
     vertex  2.119036e-02  8.270000e-10  4.146624e-01
     vertex  1.052483e-02  8.270000e-10  3.916215e-01
     vertex  1.052483e-02  1.000000e+00  3.916215e-01
   endloop
 endfacet
 facet normal  9.074908e-01  0.000000e+00 -4.200720e-01
   outer loop
     vertex  2.119036e-02  8.270000e-10  4.146624e-01
     vertex  1.052483e-02  1.000000e+00  3.916215e-01
     vertex  2.119036e-02  1.000000e+00  4.146624e-01
   endloop
 endfacet
 facet normal  8.334084e-01  0.000000e+00 -5.526576e-01
   outer loop
     vertex  3.513748e-02  8.270000e-10  4.356947e-01
     vertex  2.119036e-02  1.000000e+00  4.146624e-01
     vertex  3.513748e-02  1.000000e+00  4.356947e-01
   endloop
 endfacet
 facet normal  8.334084e-01  0.000000e+00 -5.526576e-01
   outer loop
     vertex  3.513748e-02  8.270000e-10  4.356947e-01
     vertex  2.119036e-02  8.270000e-10  4.146624e-01
     vertex  2.119036e-02  1.000000e+00  4.146624e-01
   endloop
 endfacet
 facet normal  7.407284e-01  0.000000e+00 -6.718046e-01
   outer loop
     vertex  5.198624e-02  8.270000e-10  4.542721e-01
     vertex  3.513748e-02  1.000000e+00  4.356947e-01
     vertex  5.198624e-02  1.000000e+00  4.542721e-01
   endloop
 endfacet
 facet normal  7.407284e-01  0.000000e+00 -6.718046e-01
   outer loop
     vertex  5.198624e-02  8.270000e-10  4.542721e-01
     vertex  3.513748e-02  8.270000e-10  4.356947e-01
     vertex  3.513748e-02  1.000000e+00  4.356947e-01
   endloop
 endfacet
 facet normal  6.319135e-01  0.000000e+00 -7.750389e-01
   outer loop
     vertex  7.129863e-02  8.270000e-10  4.700181e-01
     vertex  5.198624e-02  1.000000e+00  4.542721e-01
     vertex  7.129863e-02  1.000000e+00  4.700181e-01
   endloop
 endfacet
 facet normal  6.319135e-01  0.000000e+00 -7.750389e-01
   outer loop
     vertex  7.129863e-02  8.270000e-10  4.700181e-01
     vertex  5.198624e-02  8.270000e-10  4.542721e-01
     vertex  5.198624e-02  1.000000e+00  4.542721e-01
   endloop
 endfacet
 facet normal  5.087152e-01  0.000000e+00 -8.609349e-01
   outer loop
     vertex  9.294609e-02  8.270000e-10  4.828093e-01
     vertex  7.129863e-02  8.270000e-10  4.700181e-01
     vertex  7.129863e-02  1.000000e+00  4.700181e-01
   endloop
 endfacet
 facet normal  5.087152e-01  0.000000e+00 -8.609349e-01
   outer loop
     vertex  9.294609e-02  8.270000e-10  4.828093e-01
     vertex  7.129863e-02  1.000000e+00  4.700181e-01
     vertex  9.294609e-02  1.000000e+00  4.828093e-01
   endloop
 endfacet
 facet normal  3.763947e-01  0.000000e+00 -9.264594e-01
   outer loop
     vertex  1.152500e-01  8.270000e-10  4.918707e-01
     vertex  9.294609e-02  1.000000e+00  4.828093e-01
     vertex  1.152500e-01  1.000000e+00  4.918707e-01
   endloop
 endfacet
 facet normal  3.763947e-01  0.000000e+00 -9.264594e-01
   outer loop
     vertex  1.152500e-01  8.270000e-10  4.918707e-01
     vertex  9.294609e-02  8.270000e-10  4.828093e-01
     vertex  9.294609e-02  1.000000e+00  4.828093e-01
   endloop
 endfacet
 facet normal  2.394452e-01  0.000000e+00 -9.709099e-01
   outer loop
     vertex  1.384740e-01  8.270000e-10  4.975982e-01
     vertex  1.152500e-01  8.270000e-10  4.918707e-01
     vertex  1.152500e-01  1.000000e+00  4.918707e-01
   endloop
 endfacet
 facet normal  2.394452e-01  0.000000e+00 -9.709099e-01
   outer loop
     vertex  1.384740e-01  8.270000e-10  4.975982e-01
     vertex  1.152500e-01  1.000000e+00  4.918707e-01
     vertex  1.384740e-01  1.000000e+00  4.975982e-01
   endloop
 endfacet
 facet normal  9.841955e-02  0.000000e+00 -9.951450e-01
   outer loop
     vertex  1.621364e-01  8.270000e-10  4.999384e-01
     vertex  1.384740e-01  1.000000e+00  4.975982e-01
     vertex  1.621364e-01  1.000000e+00  4.999384e-01
   endloop
 endfacet
 facet normal  9.841955e-02  0.000000e+00 -9.951450e-01
   outer loop
     vertex  1.621364e-01  8.270000e-10  4.999384e-01
     vertex  1.384740e-01  8.270000e-10  4.975982e-01
     vertex  1.384740e-01  1.000000e+00  4.975982e-01
   endloop
 endfacet
 facet normal -4.379583e-02  0.000000e+00 -9.990405e-01
   outer loop
     vertex  1.857588e-01  8.270000e-10  4.989029e-01
     vertex  1.621364e-01  8.270000e-10  4.999384e-01
     vertex  1.621364e-01  1.000000e+00  4.999384e-01
   endloop
 endfacet
 facet normal -4.379583e-02  0.000000e+00 -9.990405e-01
   outer loop
     vertex  1.857588e-01  8.270000e-10  4.989029e-01
     vertex  1.621364e-01  1.000000e+00  4.999384e-01
     vertex  1.857588e-01  1.000000e+00  4.989029e-01
   endloop
 endfacet
 facet normal -1.843625e-01  0.000000e+00 -9.828583e-01
   outer loop
     vertex  2.088755e-01  8.270000e-10  4.945667e-01
     vertex  1.857588e-01  1.000000e+00  4.989029e-01
     vertex  2.088755e-01  1.000000e+00  4.945667e-01
   endloop
 endfacet
 facet normal -1.843625e-01  0.000000e+00 -9.828583e-01
   outer loop
     vertex  2.088755e-01  8.270000e-10  4.945667e-01
     vertex  1.857588e-01  8.270000e-10  4.989029e-01
     vertex  1.857588e-01  1.000000e+00  4.989029e-01
   endloop
 endfacet
 facet normal -3.205401e-01  0.000000e+00 -9.472349e-01
   outer loop
     vertex  2.310409e-01  8.270000e-10  4.870660e-01
     vertex  2.088755e-01  8.270000e-10  4.945667e-01
     vertex  2.088755e-01  1.000000e+00  4.945667e-01
   endloop
 endfacet
 facet normal -3.205401e-01  0.000000e+00 -9.472349e-01
   outer loop
     vertex  2.310409e-01  8.270000e-10  4.870660e-01
     vertex  2.088755e-01  1.000000e+00  4.945667e-01
     vertex  2.310409e-01  1.000000e+00  4.870660e-01
   endloop
 endfacet
 facet normal -4.497343e-01  0.000000e+00 -8.931624e-01
   outer loop
     vertex  2.518377e-01  8.270000e-10  4.765942e-01
     vertex  2.310409e-01  1.000000e+00  4.870660e-01
     vertex  2.518377e-01  1.000000e+00  4.765942e-01
   endloop
 endfacet
 facet normal -4.497343e-01  0.000000e+00 -8.931624e-01
   outer loop
     vertex  2.518377e-01  8.270000e-10  4.765942e-01
     vertex  2.310409e-01  8.270000e-10  4.870660e-01
     vertex  2.310409e-01  1.000000e+00  4.870660e-01
   endloop
 endfacet
 facet normal -5.758514e-01  0.000000e+00 -8.175544e-01
   outer loop
     vertex  2.728734e-01  8.270000e-10  4.617775e-01
     vertex  2.518377e-01  8.270000e-10  4.765942e-01
     vertex  2.518377e-01  1.000000e+00  4.765942e-01
   endloop
 endfacet
 facet normal -5.758514e-01  0.000000e+00 -8.175544e-01
   outer loop
     vertex  2.728734e-01  8.270000e-10  4.617775e-01
     vertex  2.518377e-01  1.000000e+00  4.765942e-01
     vertex  2.728734e-01  1.000000e+00  4.617775e-01
   endloop
 endfacet
 facet normal -6.944971e-01  0.000000e+00 -7.194955e-01
   outer loop
     vertex  2.912764e-01  8.270000e-10  4.440139e-01
     vertex  2.728734e-01  8.270000e-10  4.617775e-01
     vertex  2.728734e-01  1.000000e+00  4.617775e-01
   endloop
 endfacet
 facet normal -6.944971e-01  0.000000e+00 -7.194955e-01
   outer loop
     vertex  2.912764e-01  8.270000e-10  4.440139e-01
     vertex  2.728734e-01  1.000000e+00  4.617775e-01
     vertex  2.912764e-01  1.000000e+00  4.440139e-01
   endloop
 endfacet
 facet normal -7.961350e-01  0.000000e+00 -6.051190e-01
   outer loop
     vertex  3.066621e-01  8.270000e-10  4.237715e-01
     vertex  2.912764e-01  8.270000e-10  4.440139e-01
     vertex  2.912764e-01  1.000000e+00  4.440139e-01
   endloop
 endfacet
 facet normal -7.961350e-01  0.000000e+00 -6.051190e-01
   outer loop
     vertex  3.066621e-01  8.270000e-10  4.237715e-01
     vertex  2.912764e-01  1.000000e+00  4.440139e-01
     vertex  3.066621e-01  1.000000e+00  4.237715e-01
   endloop
 endfacet
 facet normal -8.786966e-01  0.000000e+00 -4.773807e-01
   outer loop
     vertex  3.187270e-01  8.270000e-10  4.015641e-01
     vertex  3.066621e-01  8.270000e-10  4.237715e-01
     vertex  3.066621e-01  1.000000e+00  4.237715e-01
   endloop
 endfacet
 facet normal -8.786966e-01  0.000000e+00 -4.773807e-01
   outer loop
     vertex  3.187270e-01  8.270000e-10  4.015641e-01
     vertex  3.066621e-01  1.000000e+00  4.237715e-01
     vertex  3.187270e-01  1.000000e+00  4.015641e-01
   endloop
 endfacet
 facet normal -9.406162e-01  0.000000e+00 -3.394719e-01
   outer loop
     vertex  3.272537e-01  8.270000e-10  3.779382e-01
     vertex  3.187270e-01  8.270000e-10  4.015641e-01
     vertex  3.187270e-01  1.000000e+00  4.015641e-01
   endloop
 endfacet
 facet normal -9.406162e-01  0.000000e+00 -3.394719e-01
   outer loop
     vertex  3.272537e-01  8.270000e-10  3.779382e-01
     vertex  3.187270e-01  1.000000e+00  4.015641e-01
     vertex  3.272537e-01  1.000000e+00  3.779382e-01
   endloop
 endfacet
 facet normal -9.798789e-01  0.000000e+00 -1.995929e-01
   outer loop
     vertex  3.319063e-01  8.270000e-10  3.550965e-01
     vertex  3.272537e-01  8.270000e-10  3.779382e-01
     vertex  3.272537e-01  1.000000e+00  3.779382e-01
   endloop
 endfacet
 facet normal -9.798789e-01  0.000000e+00 -1.995929e-01
   outer loop
     vertex  3.319063e-01  8.270000e-10  3.550965e-01
     vertex  3.272537e-01  1.000000e+00  3.779382e-01
     vertex  3.319063e-01  1.000000e+00  3.550965e-01
   endloop
 endfacet
 facet normal -9.978572e-01  0.000000e+00 -6.542982e-02
   outer loop
     vertex  3.333333e-01  8.270000e-10  3.333333e-01
     vertex  3.319063e-01  8.270000e-10  3.550965e-01
     vertex  3.319063e-01  1.000000e+00  3.550965e-01
   endloop
 endfacet
 facet normal -9.978572e-01  0.000000e+00 -6.542982e-02
   outer loop
     vertex  3.333333e-01  8.270000e-10  3.333333e-01
     vertex  3.319063e-01  1.000000e+00  3.550965e-01
     vertex  3.333333e-01  1.000000e+00  3.333333e-01
   endloop
 endfacet
 facet normal -0.000000e+00 -1.000000e+00  0.000000e+00
   outer loop
     vertex  1.794253e-01  0.000000e+00  1.671550e-01
     vertex  1.286914e-01  0.000000e+00  1.710501e-01
     vertex  1.539088e-01  0.000000e+00  1.671550e-01
   endloop
 endfacet
 facet normal  0.000000e+00 -1.000000e+00  0.000000e+00
   outer loop
     vertex  2.910928e-01  0.000000e+00  2.224452e-01
     vertex  1.921086e-01  0.000000e+00  4.980467e-01
     vertex  1.666670e-01  0.000000e+00  5.000000e-01
   endloop
 endfacet
 facet normal  0.000000e+00 -1.000000e+00  0.000000e+00
   outer loop
     vertex  2.910928e-01  0.000000e+00  2.224452e-01
     vertex  2.169539e-01  0.000000e+00  4.922327e-01
     vertex  1.921086e-01  0.000000e+00  4.980467e-01
   endloop
 endfacet
 facet normal  0.000000e+00 -1.000000e+00  0.000000e+00
   outer loop
     vertex  2.910928e-01  0.000000e+00  2.224452e-01
     vertex  2.406205e-01  0.000000e+00  4.826942e-01
     vertex  2.169539e-01  0.000000e+00  4.922327e-01
   endloop
 endfacet
 facet normal  0.000000e+00 -1.000000e+00  0.000000e+00
   outer loop
     vertex  2.910928e-01  0.000000e+00  2.224452e-01
     vertex  2.625536e-01  0.000000e+00  4.696548e-01
     vertex  2.406205e-01  0.000000e+00  4.826942e-01
   endloop
 endfacet
 facet normal  0.000000e+00 -1.000000e+00  0.000000e+00
   outer loop
     vertex  2.910928e-01  0.000000e+00  2.224452e-01
     vertex  2.822393e-01  0.000000e+00  4.534202e-01
     vertex  2.625536e-01  0.000000e+00  4.696548e-01
   endloop
 endfacet
 facet normal  0.000000e+00 -1.000000e+00  0.000000e+00
   outer loop
     vertex  2.910928e-01  0.000000e+00  2.224452e-01
     vertex  2.992161e-01  0.000000e+00  4.343708e-01
     vertex  2.822393e-01  0.000000e+00  4.534202e-01
   endloop
 endfacet
 facet normal  0.000000e+00 -1.000000e+00  0.000000e+00
   outer loop
     vertex  2.910928e-01  0.000000e+00  2.224452e-01
     vertex  3.130860e-01  0.000000e+00  4.129531e-01
     vertex  2.992161e-01  0.000000e+00  4.343708e-01
   endloop
 endfacet
 facet normal  0.000000e+00 -1.000000e+00  0.000000e+00
   outer loop
     vertex  2.910928e-01  0.000000e+00  2.224452e-01
     vertex  3.235240e-01  0.000000e+00  3.896693e-01
     vertex  3.130860e-01  0.000000e+00  4.129531e-01
   endloop
 endfacet
 facet normal  0.000000e+00 -1.000000e+00  0.000000e+00
   outer loop
     vertex  2.910928e-01  0.000000e+00  2.224452e-01
     vertex  3.302854e-01  0.000000e+00  3.650649e-01
     vertex  3.235240e-01  0.000000e+00  3.896693e-01
   endloop
 endfacet
 facet normal  0.000000e+00 -1.000000e+00  0.000000e+00
   outer loop
     vertex  2.910928e-01  0.000000e+00  2.224452e-01
     vertex  3.332117e-01  0.000000e+00  3.397168e-01
     vertex  3.302854e-01  0.000000e+00  3.650649e-01
   endloop
 endfacet
 facet normal  0.000000e+00 -1.000000e+00  0.000000e+00
   outer loop
     vertex  2.910928e-01  0.000000e+00  2.224452e-01
     vertex  3.322343e-01  0.000000e+00  3.142191e-01
     vertex  3.332117e-01  0.000000e+00  3.397168e-01
   endloop
 endfacet
 facet normal  0.000000e+00 -1.000000e+00  0.000000e+00
   outer loop
     vertex  2.910928e-01  0.000000e+00  2.224452e-01
     vertex  3.273762e-01  0.000000e+00  2.891693e-01
     vertex  3.322343e-01  0.000000e+00  3.142191e-01
   endloop
 endfacet
 facet normal  0.000000e+00 -1.000000e+00  0.000000e+00
   outer loop
     vertex  2.910928e-01  0.000000e+00  2.224452e-01
     vertex  3.187512e-01  0.000000e+00  2.651548e-01
     vertex  3.273762e-01  0.000000e+00  2.891693e-01
   endloop
 endfacet
 facet normal  0.000000e+00 -1.000000e+00  0.000000e+00
   outer loop
     vertex  2.910928e-01  0.000000e+00  2.224452e-01
     vertex  3.065615e-01  0.000000e+00  2.427382e-01
     vertex  3.187512e-01  0.000000e+00  2.651548e-01
   endloop
 endfacet
 facet normal  0.000000e+00 -1.000000e+00  0.000000e+00
   outer loop
     vertex  2.910928e-01  0.000000e+00  2.224452e-01
     vertex  2.518370e-01  0.000000e+00  1.900711e-01
     vertex  2.727076e-01  0.000000e+00  2.047512e-01
   endloop
 endfacet
 facet normal  0.000000e+00 -1.000000e+00  0.000000e+00
   outer loop
     vertex  2.910928e-01  0.000000e+00  2.224452e-01
     vertex  2.289700e-01  0.000000e+00  1.787490e-01
     vertex  2.518370e-01  0.000000e+00  1.900711e-01
   endloop
 endfacet
 facet normal  0.000000e+00 -1.000000e+00  0.000000e+00
   outer loop
     vertex  2.910928e-01  0.000000e+00  2.224452e-01
     vertex  2.046427e-01  0.000000e+00  1.710501e-01
     vertex  2.289700e-01  0.000000e+00  1.787490e-01
   endloop
 endfacet
 facet normal  0.000000e+00 -1.000000e+00  0.000000e+00
   outer loop
     vertex  2.910928e-01  0.000000e+00  2.224452e-01
     vertex  1.794253e-01  0.000000e+00  1.671550e-01
     vertex  2.046427e-01  0.000000e+00  1.710501e-01
   endloop
 endfacet
 facet normal  0.000000e+00 -1.000000e+00  0.000000e+00
   outer loop
     vertex  2.910928e-01  0.000000e+00  2.224452e-01
     vertex  1.043641e-01  0.000000e+00  1.787489e-01
     vertex  1.286914e-01  0.000000e+00  1.710501e-01
   endloop
 endfacet
 facet normal  0.000000e+00 -1.000000e+00  0.000000e+00
   outer loop
     vertex  2.910928e-01  0.000000e+00  2.224452e-01
     vertex  8.149708e-02  0.000000e+00  1.900711e-01
     vertex  1.043641e-01  0.000000e+00  1.787489e-01
   endloop
 endfacet
 facet normal  0.000000e+00 -1.000000e+00  0.000000e+00
   outer loop
     vertex  2.910928e-01  0.000000e+00  2.224452e-01
     vertex  6.062640e-02  0.000000e+00  2.047512e-01
     vertex  8.149708e-02  0.000000e+00  1.900711e-01
   endloop
 endfacet
 facet normal  0.000000e+00 -1.000000e+00  0.000000e+00
   outer loop
     vertex  2.910928e-01  0.000000e+00  2.224452e-01
     vertex  4.224124e-02  0.000000e+00  2.224451e-01
     vertex  6.062640e-02  0.000000e+00  2.047512e-01
   endloop
 endfacet
 facet normal -0.000000e+00 -1.000000e+00  0.000000e+00
   outer loop
     vertex  2.910928e-01  0.000000e+00  2.224452e-01
     vertex  2.677250e-02  0.000000e+00  2.427382e-01
     vertex  4.224124e-02  0.000000e+00  2.224451e-01
   endloop
 endfacet
 facet normal  0.000000e+00 -1.000000e+00  0.000000e+00
   outer loop
     vertex  2.910928e-01  0.000000e+00  2.224452e-01
     vertex  1.458277e-02  0.000000e+00  2.651547e-01
     vertex  2.677250e-02  0.000000e+00  2.427382e-01
   endloop
 endfacet
 facet normal  0.000000e+00 -1.000000e+00  0.000000e+00
   outer loop
     vertex  2.910928e-01  0.000000e+00  2.224452e-01
     vertex  5.957772e-03  0.000000e+00  2.891693e-01
     vertex  1.458277e-02  0.000000e+00  2.651547e-01
   endloop
 endfacet
 facet normal  0.000000e+00 -1.000000e+00  0.000000e+00
   outer loop
     vertex  2.910928e-01  0.000000e+00  2.224452e-01
     vertex  1.099658e-03  0.000000e+00  3.142190e-01
     vertex  5.957772e-03  0.000000e+00  2.891693e-01
   endloop
 endfacet
 facet normal  0.000000e+00 -1.000000e+00  0.000000e+00
   outer loop
     vertex  2.910928e-01  0.000000e+00  2.224452e-01
     vertex  1.223019e-04  0.000000e+00  3.397168e-01
     vertex  1.099658e-03  0.000000e+00  3.142190e-01
   endloop
 endfacet
 facet normal  0.000000e+00 -1.000000e+00  0.000000e+00
   outer loop
     vertex  2.910928e-01  0.000000e+00  2.224452e-01
     vertex  3.048612e-03  0.000000e+00  3.650649e-01
     vertex  1.223019e-04  0.000000e+00  3.397168e-01
   endloop
 endfacet
 facet normal  0.000000e+00 -1.000000e+00  0.000000e+00
   outer loop
     vertex  2.910928e-01  0.000000e+00  2.224452e-01
     vertex  9.809998e-03  0.000000e+00  3.896692e-01
     vertex  3.048612e-03  0.000000e+00  3.650649e-01
   endloop
 endfacet
 facet normal  0.000000e+00 -1.000000e+00  0.000000e+00
   outer loop
     vertex  2.910928e-01  0.000000e+00  2.224452e-01
     vertex  2.024798e-02  0.000000e+00  4.129531e-01
     vertex  9.809998e-03  0.000000e+00  3.896692e-01
   endloop
 endfacet
 facet normal  0.000000e+00 -1.000000e+00  0.000000e+00
   outer loop
     vertex  2.910928e-01  0.000000e+00  2.224452e-01
     vertex  3.411790e-02  0.000000e+00  4.343707e-01
     vertex  2.024798e-02  0.000000e+00  4.129531e-01
   endloop
 endfacet
 facet normal  0.000000e+00 -1.000000e+00  0.000000e+00
   outer loop
     vertex  2.910928e-01  0.000000e+00  2.224452e-01
     vertex  5.109465e-02  0.000000e+00  4.534201e-01
     vertex  3.411790e-02  0.000000e+00  4.343707e-01
   endloop
 endfacet
 facet normal  0.000000e+00 -1.000000e+00  0.000000e+00
   outer loop
     vertex  2.910928e-01  0.000000e+00  2.224452e-01
     vertex  7.078033e-02  0.000000e+00  4.696548e-01
     vertex  5.109465e-02  0.000000e+00  4.534201e-01
   endloop
 endfacet
 facet normal  0.000000e+00 -1.000000e+00  0.000000e+00
   outer loop
     vertex  2.910928e-01  0.000000e+00  2.224452e-01
     vertex  9.271350e-02  0.000000e+00  4.826942e-01
     vertex  7.078033e-02  0.000000e+00  4.696548e-01
   endloop
 endfacet
 facet normal  0.000000e+00 -1.000000e+00  0.000000e+00
   outer loop
     vertex  2.910928e-01  0.000000e+00  2.224452e-01
     vertex  1.163801e-01  0.000000e+00  4.922327e-01
     vertex  9.271350e-02  0.000000e+00  4.826942e-01
   endloop
 endfacet
 facet normal  0.000000e+00 -1.000000e+00  0.000000e+00
   outer loop
     vertex  2.910928e-01  0.000000e+00  2.224452e-01
     vertex  1.412254e-01  0.000000e+00  4.980467e-01
     vertex  1.163801e-01  0.000000e+00  4.922327e-01
   endloop
 endfacet
 facet normal  0.000000e+00 -1.000000e+00  0.000000e+00
   outer loop
     vertex  2.910928e-01  0.000000e+00  2.224452e-01
     vertex  1.666670e-01  0.000000e+00  5.000000e-01
     vertex  1.412254e-01  0.000000e+00  4.980467e-01
   endloop
 endfacet
 facet normal  0.000000e+00 -1.000000e+00  0.000000e+00
   outer loop
     vertex  2.910928e-01  0.000000e+00  2.224452e-01
     vertex  1.286914e-01  0.000000e+00  1.710501e-01
     vertex  1.794253e-01  0.000000e+00  1.671550e-01
   endloop
 endfacet
 facet normal  0.000000e+00  1.000000e+00  0.000000e+00
   outer loop
     vertex  1.163801e-01  1.000000e+00  4.922327e-01
     vertex  7.078033e-02  1.000000e+00  4.696548e-01
     vertex  9.271350e-02  1.000000e+00  4.826942e-01
   endloop
 endfacet
 facet normal  0.000000e+00  1.000000e+00  0.000000e+00
   outer loop
     vertex  2.992161e-01  1.000000e+00  4.343708e-01
     vertex  3.130860e-01  1.000000e+00  4.129531e-01
     vertex  3.235240e-01  1.000000e+00  3.896693e-01
   endloop
 endfacet
 facet normal  0.000000e+00  1.000000e+00  0.000000e+00
   outer loop
     vertex  2.822393e-01  1.000000e+00  4.534202e-01
     vertex  1.666670e-01  1.000000e+00  5.000000e-01
     vertex  1.921086e-01  1.000000e+00  4.980467e-01
   endloop
 endfacet
 facet normal  0.000000e+00  1.000000e+00  0.000000e+00
   outer loop
     vertex  2.822393e-01  1.000000e+00  4.534202e-01
     vertex  1.921086e-01  1.000000e+00  4.980467e-01
     vertex  2.169539e-01  1.000000e+00  4.922327e-01
   endloop
 endfacet
 facet normal  0.000000e+00  1.000000e+00  0.000000e+00
   outer loop
     vertex  2.822393e-01  1.000000e+00  4.534202e-01
     vertex  2.169539e-01  1.000000e+00  4.922327e-01
     vertex  2.406205e-01  1.000000e+00  4.826942e-01
   endloop
 endfacet
 facet normal  0.000000e+00  1.000000e+00  0.000000e+00
   outer loop
     vertex  2.822393e-01  1.000000e+00  4.534202e-01
     vertex  2.406205e-01  1.000000e+00  4.826942e-01
     vertex  2.625536e-01  1.000000e+00  4.696548e-01
   endloop
 endfacet
 facet normal  0.000000e+00  1.000000e+00  0.000000e+00
   outer loop
     vertex  2.822393e-01  1.000000e+00  4.534202e-01
     vertex  3.235240e-01  1.000000e+00  3.896693e-01
     vertex  3.302854e-01  1.000000e+00  3.650649e-01
   endloop
 endfacet
 facet normal  0.000000e+00  1.000000e+00  0.000000e+00
   outer loop
     vertex  2.822393e-01  1.000000e+00  4.534202e-01
     vertex  3.302854e-01  1.000000e+00  3.650649e-01
     vertex  3.332117e-01  1.000000e+00  3.397168e-01
   endloop
 endfacet
 facet normal  0.000000e+00  1.000000e+00  0.000000e+00
   outer loop
     vertex  2.822393e-01  1.000000e+00  4.534202e-01
     vertex  3.332117e-01  1.000000e+00  3.397168e-01
     vertex  3.322343e-01  1.000000e+00  3.142191e-01
   endloop
 endfacet
 facet normal  0.000000e+00  1.000000e+00  0.000000e+00
   outer loop
     vertex  2.822393e-01  1.000000e+00  4.534202e-01
     vertex  3.322343e-01  1.000000e+00  3.142191e-01
     vertex  3.273762e-01  1.000000e+00  2.891693e-01
   endloop
 endfacet
 facet normal  0.000000e+00  1.000000e+00  0.000000e+00
   outer loop
     vertex  2.822393e-01  1.000000e+00  4.534202e-01
     vertex  3.273762e-01  1.000000e+00  2.891693e-01
     vertex  3.187512e-01  1.000000e+00  2.651548e-01
   endloop
 endfacet
 facet normal  0.000000e+00  1.000000e+00  0.000000e+00
   outer loop
     vertex  2.822393e-01  1.000000e+00  4.534202e-01
     vertex  3.187512e-01  1.000000e+00  2.651548e-01
     vertex  3.065615e-01  1.000000e+00  2.427382e-01
   endloop
 endfacet
 facet normal  0.000000e+00  1.000000e+00  0.000000e+00
   outer loop
     vertex  2.822393e-01  1.000000e+00  4.534202e-01
     vertex  3.065615e-01  1.000000e+00  2.427382e-01
     vertex  2.910928e-01  1.000000e+00  2.224452e-01
   endloop
 endfacet
 facet normal  0.000000e+00  1.000000e+00  0.000000e+00
   outer loop
     vertex  2.822393e-01  1.000000e+00  4.534202e-01
     vertex  2.910928e-01  1.000000e+00  2.224452e-01
     vertex  2.727076e-01  1.000000e+00  2.047512e-01
   endloop
 endfacet
 facet normal  0.000000e+00  1.000000e+00  0.000000e+00
   outer loop
     vertex  2.822393e-01  1.000000e+00  4.534202e-01
     vertex  2.727076e-01  1.000000e+00  2.047512e-01
     vertex  2.518370e-01  1.000000e+00  1.900711e-01
   endloop
 endfacet
 facet normal  0.000000e+00  1.000000e+00  0.000000e+00
   outer loop
     vertex  2.822393e-01  1.000000e+00  4.534202e-01
     vertex  2.518370e-01  1.000000e+00  1.900711e-01
     vertex  2.289700e-01  1.000000e+00  1.787490e-01
   endloop
 endfacet
 facet normal  0.000000e+00  1.000000e+00  0.000000e+00
   outer loop
     vertex  2.822393e-01  1.000000e+00  4.534202e-01
     vertex  2.289700e-01  1.000000e+00  1.787490e-01
     vertex  2.046427e-01  1.000000e+00  1.710501e-01
   endloop
 endfacet
 facet normal  0.000000e+00  1.000000e+00  0.000000e+00
   outer loop
     vertex  2.822393e-01  1.000000e+00  4.534202e-01
     vertex  2.046427e-01  1.000000e+00  1.710501e-01
     vertex  1.794253e-01  1.000000e+00  1.671550e-01
   endloop
 endfacet
 facet normal  0.000000e+00  1.000000e+00  0.000000e+00
   outer loop
     vertex  2.822393e-01  1.000000e+00  4.534202e-01
     vertex  1.794253e-01  1.000000e+00  1.671550e-01
     vertex  1.539088e-01  1.000000e+00  1.671550e-01
   endloop
 endfacet
 facet normal  0.000000e+00  1.000000e+00  0.000000e+00
   outer loop
     vertex  2.822393e-01  1.000000e+00  4.534202e-01
     vertex  1.539088e-01  1.000000e+00  1.671550e-01
     vertex  1.286914e-01  1.000000e+00  1.710501e-01
   endloop
 endfacet
 facet normal  0.000000e+00  1.000000e+00  0.000000e+00
   outer loop
     vertex  2.822393e-01  1.000000e+00  4.534202e-01
     vertex  1.286914e-01  1.000000e+00  1.710501e-01
     vertex  1.043641e-01  1.000000e+00  1.787489e-01
   endloop
 endfacet
 facet normal  0.000000e+00  1.000000e+00  0.000000e+00
   outer loop
     vertex  2.822393e-01  1.000000e+00  4.534202e-01
     vertex  1.043641e-01  1.000000e+00  1.787489e-01
     vertex  8.149708e-02  1.000000e+00  1.900711e-01
   endloop
 endfacet
 facet normal  0.000000e+00  1.000000e+00  0.000000e+00
   outer loop
     vertex  2.822393e-01  1.000000e+00  4.534202e-01
     vertex  8.149708e-02  1.000000e+00  1.900711e-01
     vertex  6.062640e-02  1.000000e+00  2.047512e-01
   endloop
 endfacet
 facet normal  0.000000e+00  1.000000e+00  0.000000e+00
   outer loop
     vertex  2.822393e-01  1.000000e+00  4.534202e-01
     vertex  6.062640e-02  1.000000e+00  2.047512e-01
     vertex  4.224124e-02  1.000000e+00  2.224451e-01
   endloop
 endfacet
 facet normal  0.000000e+00  1.000000e+00  0.000000e+00
   outer loop
     vertex  2.822393e-01  1.000000e+00  4.534202e-01
     vertex  4.224124e-02  1.000000e+00  2.224451e-01
     vertex  2.677250e-02  1.000000e+00  2.427382e-01
   endloop
 endfacet
 facet normal  0.000000e+00  1.000000e+00  0.000000e+00
   outer loop
     vertex  2.822393e-01  1.000000e+00  4.534202e-01
     vertex  2.677250e-02  1.000000e+00  2.427382e-01
     vertex  1.458277e-02  1.000000e+00  2.651547e-01
   endloop
 endfacet
 facet normal  0.000000e+00  1.000000e+00  0.000000e+00
   outer loop
     vertex  2.822393e-01  1.000000e+00  4.534202e-01
     vertex  1.458277e-02  1.000000e+00  2.651547e-01
     vertex  5.957772e-03  1.000000e+00  2.891693e-01
   endloop
 endfacet
 facet normal  0.000000e+00  1.000000e+00  0.000000e+00
   outer loop
     vertex  2.822393e-01  1.000000e+00  4.534202e-01
     vertex  5.957772e-03  1.000000e+00  2.891693e-01
     vertex  1.099658e-03  1.000000e+00  3.142190e-01
   endloop
 endfacet
 facet normal  0.000000e+00  1.000000e+00  0.000000e+00
   outer loop
     vertex  2.822393e-01  1.000000e+00  4.534202e-01
     vertex  1.099658e-03  1.000000e+00  3.142190e-01
     vertex  1.223019e-04  1.000000e+00  3.397168e-01
   endloop
 endfacet
 facet normal  0.000000e+00  1.000000e+00  0.000000e+00
   outer loop
     vertex  2.822393e-01  1.000000e+00  4.534202e-01
     vertex  1.223019e-04  1.000000e+00  3.397168e-01
     vertex  3.048612e-03  1.000000e+00  3.650649e-01
   endloop
 endfacet
 facet normal  0.000000e+00  1.000000e+00  0.000000e+00
   outer loop
     vertex  2.822393e-01  1.000000e+00  4.534202e-01
     vertex  3.048612e-03  1.000000e+00  3.650649e-01
     vertex  9.809998e-03  1.000000e+00  3.896692e-01
   endloop
 endfacet
 facet normal  0.000000e+00  1.000000e+00  0.000000e+00
   outer loop
     vertex  2.822393e-01  1.000000e+00  4.534202e-01
     vertex  9.809998e-03  1.000000e+00  3.896692e-01
     vertex  2.024798e-02  1.000000e+00  4.129531e-01
   endloop
 endfacet
 facet normal  0.000000e+00  1.000000e+00  0.000000e+00
   outer loop
     vertex  2.822393e-01  1.000000e+00  4.534202e-01
     vertex  2.024798e-02  1.000000e+00  4.129531e-01
     vertex  3.411790e-02  1.000000e+00  4.343707e-01
   endloop
 endfacet
 facet normal  0.000000e+00  1.000000e+00  0.000000e+00
   outer loop
     vertex  2.822393e-01  1.000000e+00  4.534202e-01
     vertex  3.411790e-02  1.000000e+00  4.343707e-01
     vertex  5.109465e-02  1.000000e+00  4.534201e-01
   endloop
 endfacet
 facet normal  0.000000e+00  1.000000e+00  0.000000e+00
   outer loop
     vertex  2.822393e-01  1.000000e+00  4.534202e-01
     vertex  5.109465e-02  1.000000e+00  4.534201e-01
     vertex  7.078033e-02  1.000000e+00  4.696548e-01
   endloop
 endfacet
 facet normal  0.000000e+00  1.000000e+00  0.000000e+00
   outer loop
     vertex  2.822393e-01  1.000000e+00  4.534202e-01
     vertex  1.163801e-01  1.000000e+00  4.922327e-01
     vertex  1.412254e-01  1.000000e+00  4.980467e-01
   endloop
 endfacet
 facet normal  0.000000e+00  1.000000e+00  0.000000e+00
   outer loop
     vertex  2.822393e-01  1.000000e+00  4.534202e-01
     vertex  1.412254e-01  1.000000e+00  4.980467e-01
     vertex  1.666670e-01  1.000000e+00  5.000000e-01
   endloop
 endfacet
 facet normal  0.000000e+00  1.000000e+00  0.000000e+00
   outer loop
     vertex  2.822393e-01  1.000000e+00  4.534202e-01
     vertex  7.078033e-02  1.000000e+00  4.696548e-01
     vertex  1.163801e-01  1.000000e+00  4.922327e-01
   endloop
 endfacet
 facet normal  0.000000e+00  1.000000e+00  0.000000e+00
   outer loop
     vertex  2.822393e-01  1.000000e+00  4.534202e-01
     vertex  2.992161e-01  1.000000e+00  4.343708e-01
     vertex  3.235240e-01  1.000000e+00  3.896693e-01
   endloop
 endfacet
endsolid
