ISO-10303-21;
HEADER;
FILE_DESCRIPTION(('Open CASCADE Model'),'2;1');
FILE_NAME('Open CASCADE Shape Model','2026-07-02T21:30:34',('Author'),(
    'Open CASCADE'),'Open CASCADE STEP processor 7.9','Open CASCADE 7.9'
  ,'Unknown');
FILE_SCHEMA(('AUTOMOTIVE_DESIGN { 1 0 10303 214 1 1 1 1 }'));
ENDSEC;
DATA;
#1 = APPLICATION_PROTOCOL_DEFINITION('international standard',
  'automotive_design',2000,#2);
#2 = APPLICATION_CONTEXT(
  'core data for automotive mechanical design processes');
#3 = SHAPE_DEFINITION_REPRESENTATION(#4,#10);
#4 = PRODUCT_DEFINITION_SHAPE('','',#5);
#5 = PRODUCT_DEFINITION('design','',#6,#9);
#6 = PRODUCT_DEFINITION_FORMATION('','',#7);
#7 = PRODUCT('Open CASCADE STEP translator 7.9 1',
  'Open CASCADE STEP translator 7.9 1','',(#8));
#8 = PRODUCT_CONTEXT('',#2,'mechanical');
#9 = PRODUCT_DEFINITION_CONTEXT('part definition',#2,'design');
#10 = MANIFOLD_SURFACE_SHAPE_REPRESENTATION('',(#11,#15),#58);
#11 = AXIS2_PLACEMENT_3D('',#12,#13,#14);
#12 = CARTESIAN_POINT('',(0.,0.,0.));
#13 = DIRECTION('',(0.,0.,1.));
#14 = DIRECTION('',(1.,0.,-0.));
#15 = SHELL_BASED_SURFACE_MODEL('',(#16));
#16 = OPEN_SHELL('',(#17));
#17 = ADVANCED_FACE('',(#18),#22,.T.);
#18 = FACE_BOUND('',#19,.T.);
#19 = VERTEX_LOOP('',#20);
#20 = VERTEX_POINT('',#21);
#21 = CARTESIAN_POINT('',(0.127000147061,0.155528470681,0.491324814309)
  );
#22 = B_SPLINE_SURFACE_WITH_KNOTS('',2,2,(
    (#23,#24,#25,#26,#27)
    ,(#28,#29,#30,#31,#32)
    ,(#33,#34,#35,#36,#37)
    ,(#38,#39,#40,#41,#42)
    ,(#43,#44,#45,#46,#47)
    ,(#48,#49,#50,#51,#52)
    ,(#53,#54,#55,#56,#57
    )),.UNSPECIFIED.,.T.,.F.,.F.,(1,2,2,2,2,1),(3,2,3),(-2.094395,0.,
    2.094395,4.18879,6.283185,8.37758),(-1.570796,0.,1.570796),
  .UNSPECIFIED.);
#23 = CARTESIAN_POINT('',(0.127000147061,0.155528470681,0.491324814309)
  );
#24 = CARTESIAN_POINT('',(0.127000147061,0.155528470681,0.492659093153)
  );
#25 = CARTESIAN_POINT('',(0.127000147061,0.154194191837,0.492659093153)
  );
#26 = CARTESIAN_POINT('',(0.127000147061,0.152859912993,0.492659093153)
  );
#27 = CARTESIAN_POINT('',(0.127000147061,0.152859912993,0.491324814309)
  );
#28 = CARTESIAN_POINT('',(0.127000147061,0.155528470681,0.491324814309)
  );
#29 = CARTESIAN_POINT('',(0.124689108311,0.155528470681,0.492659093153)
  );
#30 = CARTESIAN_POINT('',(0.124689108311,0.154194191837,0.492659093153)
  );
#31 = CARTESIAN_POINT('',(0.124689108311,0.152859912993,0.492659093153)
  );
#32 = CARTESIAN_POINT('',(0.127000147061,0.152859912993,0.491324814309)
  );
#33 = CARTESIAN_POINT('',(0.127000147061,0.155528470681,0.491324814309)
  );
#34 = CARTESIAN_POINT('',(0.125844627686,0.155528470681,0.490657674887)
  );
#35 = CARTESIAN_POINT('',(0.125844627686,0.154194191837,0.490657674887)
  );
#36 = CARTESIAN_POINT('',(0.125844627686,0.152859912993,0.490657674887)
  );
#37 = CARTESIAN_POINT('',(0.127000147061,0.152859912993,0.491324814309)
  );
#38 = CARTESIAN_POINT('',(0.127000147061,0.155528470681,0.491324814309)
  );
#39 = CARTESIAN_POINT('',(0.127000147061,0.155528470681,0.488656256621)
  );
#40 = CARTESIAN_POINT('',(0.127000147061,0.154194191837,0.488656256621)
  );
#41 = CARTESIAN_POINT('',(0.127000147061,0.152859912993,0.488656256621)
  );
#42 = CARTESIAN_POINT('',(0.127000147061,0.152859912993,0.491324814309)
  );
#43 = CARTESIAN_POINT('',(0.127000147061,0.155528470681,0.491324814309)
  );
#44 = CARTESIAN_POINT('',(0.128155666436,0.155528470681,0.490657674887)
  );
#45 = CARTESIAN_POINT('',(0.128155666436,0.154194191837,0.490657674887)
  );
#46 = CARTESIAN_POINT('',(0.128155666436,0.152859912993,0.490657674887)
  );
#47 = CARTESIAN_POINT('',(0.127000147061,0.152859912993,0.491324814309)
  );
#48 = CARTESIAN_POINT('',(0.127000147061,0.155528470681,0.491324814309)
  );
#49 = CARTESIAN_POINT('',(0.129311185811,0.155528470681,0.492659093153)
  );
#50 = CARTESIAN_POINT('',(0.129311185811,0.154194191837,0.492659093153)
  );
#51 = CARTESIAN_POINT('',(0.129311185811,0.152859912993,0.492659093153)
  );
#52 = CARTESIAN_POINT('',(0.127000147061,0.152859912993,0.491324814309)
  );
#53 = CARTESIAN_POINT('',(0.127000147061,0.155528470681,0.491324814309)
  );
#54 = CARTESIAN_POINT('',(0.127000147061,0.155528470681,0.492659093153)
  );
#55 = CARTESIAN_POINT('',(0.127000147061,0.154194191837,0.492659093153)
  );
#56 = CARTESIAN_POINT('',(0.127000147061,0.152859912993,0.492659093153)
  );
#57 = CARTESIAN_POINT('',(0.127000147061,0.152859912993,0.491324814309)
  );
#58 = ( GEOMETRIC_REPRESENTATION_CONTEXT(3) 
GLOBAL_UNCERTAINTY_ASSIGNED_CONTEXT((#62)) GLOBAL_UNIT_ASSIGNED_CONTEXT(
(#59,#60,#61)) REPRESENTATION_CONTEXT('Context #1',
  '3D Context with UNIT and UNCERTAINTY') );
#59 = ( LENGTH_UNIT() NAMED_UNIT(*) SI_UNIT(.MILLI.,.METRE.) );
#60 = ( NAMED_UNIT(*) PLANE_ANGLE_UNIT() SI_UNIT($,.RADIAN.) );
#61 = ( NAMED_UNIT(*) SI_UNIT($,.STERADIAN.) SOLID_ANGLE_UNIT() );
#62 = UNCERTAINTY_MEASURE_WITH_UNIT(LENGTH_MEASURE(1.E-07),#59,
  'distance_accuracy_value','confusion accuracy');
#63 = PRODUCT_RELATED_PRODUCT_CATEGORY('part',$,(#7));
ENDSEC;
END-ISO-10303-21;
