ISO-10303-21;
HEADER;
FILE_DESCRIPTION(('Open CASCADE Model'),'2;1');
FILE_NAME('Open CASCADE Shape Model','2026-07-02T20:40:41',('Author'),(
    'Open CASCADE'),'Open CASCADE STEP processor 7.9','Open CASCADE 7.9'
  ,'Unknown');
FILE_SCHEMA(('AUTOMOTIVE_DESIGN { 1 0 10303 214 1 1 1 1 }'));
ENDSEC;
DATA;
#1 = APPLICATION_PROTOCOL_DEFINITION('international standard',
  'automotive_design',2000,#2);
#2 = APPLICATION_CONTEXT(
  'core data for automotive mechanical design processes');
#3 = SHAPE_DEFINITION_REPRESENTATION(#4,#10);
#4 = PRODUCT_DEFINITION_SHAPE('','',#5);
#5 = PRODUCT_DEFINITION('design','',#6,#9);
#6 = PRODUCT_DEFINITION_FORMATION('','',#7);
#7 = PRODUCT('Open CASCADE STEP translator 7.9 1',
  'Open CASCADE STEP translator 7.9 1','',(#8));
#8 = PRODUCT_CONTEXT('',#2,'mechanical');
#9 = PRODUCT_DEFINITION_CONTEXT('part definition',#2,'design');
#10 = SHAPE_REPRESENTATION('',(#11,#15,#19,#23,#27,#31,#35),#39);
#11 = AXIS2_PLACEMENT_3D('',#12,#13,#14);
#12 = CARTESIAN_POINT('',(0.,0.,0.));
#13 = DIRECTION('',(0.,0.,1.));
#14 = DIRECTION('',(1.,0.,-0.));
#15 = AXIS2_PLACEMENT_3D('',#16,#17,#18);
#16 = CARTESIAN_POINT('',(0.,0.,0.));
#17 = DIRECTION('',(0.,0.,1.));
#18 = DIRECTION('',(1.,0.,-0.));
#19 = AXIS2_PLACEMENT_3D('',#20,#21,#22);
#20 = CARTESIAN_POINT('',(0.,0.,0.));
#21 = DIRECTION('',(0.,0.,1.));
#22 = DIRECTION('',(1.,0.,-0.));
#23 = AXIS2_PLACEMENT_3D('',#24,#25,#26);
#24 = CARTESIAN_POINT('',(0.,0.,0.));
#25 = DIRECTION('',(0.,0.,1.));
#26 = DIRECTION('',(1.,0.,-0.));
#27 = AXIS2_PLACEMENT_3D('',#28,#29,#30);
#28 = CARTESIAN_POINT('',(0.,0.,0.));
#29 = DIRECTION('',(0.,0.,1.));
#30 = DIRECTION('',(1.,0.,-0.));
#31 = AXIS2_PLACEMENT_3D('',#32,#33,#34);
#32 = CARTESIAN_POINT('',(0.,0.,0.));
#33 = DIRECTION('',(0.,0.,1.));
#34 = DIRECTION('',(1.,0.,-0.));
#35 = AXIS2_PLACEMENT_3D('',#36,#37,#38);
#36 = CARTESIAN_POINT('',(0.,0.,0.));
#37 = DIRECTION('',(0.,0.,1.));
#38 = DIRECTION('',(1.,0.,-0.));
#39 = ( GEOMETRIC_REPRESENTATION_CONTEXT(3) 
GLOBAL_UNCERTAINTY_ASSIGNED_CONTEXT((#43)) GLOBAL_UNIT_ASSIGNED_CONTEXT(
(#40,#41,#42)) REPRESENTATION_CONTEXT('Context #1',
  '3D Context with UNIT and UNCERTAINTY') );
#40 = ( LENGTH_UNIT() NAMED_UNIT(*) SI_UNIT(.MILLI.,.METRE.) );
#41 = ( NAMED_UNIT(*) PLANE_ANGLE_UNIT() SI_UNIT($,.RADIAN.) );
#42 = ( NAMED_UNIT(*) SI_UNIT($,.STERADIAN.) SOLID_ANGLE_UNIT() );
#43 = UNCERTAINTY_MEASURE_WITH_UNIT(LENGTH_MEASURE(1.E-07),#40,
  'distance_accuracy_value','confusion accuracy');
#44 = PRODUCT_RELATED_PRODUCT_CATEGORY('part',$,(#7));
#45 = SHAPE_DEFINITION_REPRESENTATION(#46,#52);
#46 = PRODUCT_DEFINITION_SHAPE('','',#47);
#47 = PRODUCT_DEFINITION('design','',#48,#51);
#48 = PRODUCT_DEFINITION_FORMATION('','',#49);
#49 = PRODUCT('Open CASCADE STEP translator 7.9 1.1',
  'Open CASCADE STEP translator 7.9 1.1','',(#50));
#50 = PRODUCT_CONTEXT('',#2,'mechanical');
#51 = PRODUCT_DEFINITION_CONTEXT('part definition',#2,'design');
#52 = MANIFOLD_SURFACE_SHAPE_REPRESENTATION('',(#11,#53),#150);
#53 = SHELL_BASED_SURFACE_MODEL('',(#54));
#54 = OPEN_SHELL('',(#55));
#55 = ADVANCED_FACE('',(#56),#72,.T.);
#56 = FACE_BOUND('',#57,.T.);
#57 = EDGE_LOOP('',(#58,#107,#131,#149));
#58 = ORIENTED_EDGE('',*,*,#59,.F.);
#59 = EDGE_CURVE('',#60,#60,#62,.T.);
#60 = VERTEX_POINT('',#61);
#61 = CARTESIAN_POINT('',(0.267857143253,0.5,0.357142857347));
#62 = SURFACE_CURVE('',#63,(#71),.PCURVE_S1.);
#63 = B_SPLINE_CURVE_WITH_KNOTS('',3,(#64,#65,#66,#67,#68,#69,#70),
  .UNSPECIFIED.,.T.,.F.,(1,3,3,3,1),(-0.785398,0.,0.785398,1.570796,
    2.356194),.UNSPECIFIED.);
#64 = CARTESIAN_POINT('',(0.267857143253,0.5,0.357142857347));
#65 = CARTESIAN_POINT('',(0.267857143253,0.642857142536,0.357142857347)
  );
#66 = CARTESIAN_POINT('',(0.410714285789,0.642857142536,0.357142857347)
  );
#67 = CARTESIAN_POINT('',(0.410714285789,0.5,0.357142857347));
#68 = CARTESIAN_POINT('',(0.410714285789,0.357142857464,0.357142857347)
  );
#69 = CARTESIAN_POINT('',(0.267857143253,0.357142857464,0.357142857347)
  );
#70 = CARTESIAN_POINT('',(0.267857143253,0.5,0.357142857347));
#71 = PCURVE('',#72,#101);
#72 = B_SPLINE_SURFACE_WITH_KNOTS('',3,3,(
    (#73,#74,#75,#76,#77,#78,#79)
    ,(#80,#81,#82,#83,#84,#85,#86)
    ,(#87,#88,#89,#90,#91,#92,#93)
    ,(#94,#95,#96,#97,#98,#99,#100
    )),.UNSPECIFIED.,.F.,.T.,.F.,(4,4),(1,3,3,3,1),(0.,6.283185),(
    -0.785398,0.,0.785398,1.570796,2.356194),.UNSPECIFIED.);
#73 = CARTESIAN_POINT('',(0.267857143253,0.5,0.357142857347));
#74 = CARTESIAN_POINT('',(0.267857143253,0.642857142536,0.357142857347)
  );
#75 = CARTESIAN_POINT('',(0.410714285789,0.642857142536,0.357142857347)
  );
#76 = CARTESIAN_POINT('',(0.410714285789,0.5,0.357142857347));
#77 = CARTESIAN_POINT('',(0.410714285789,0.357142857464,0.357142857347)
  );
#78 = CARTESIAN_POINT('',(0.267857143253,0.357142857464,0.357142857347)
  );
#79 = CARTESIAN_POINT('',(0.267857143253,0.5,0.357142857347));
#80 = CARTESIAN_POINT('',(0.38214285736,0.5,0.357142857347));
#81 = CARTESIAN_POINT('',(0.38214285736,0.87142857075,0.357142857347));
#82 = CARTESIAN_POINT('',(0.296428571682,0.87142857075,0.357142857347));
#83 = CARTESIAN_POINT('',(0.296428571682,0.5,0.357142857347));
#84 = CARTESIAN_POINT('',(0.296428571682,0.12857142925,0.357142857347));
#85 = CARTESIAN_POINT('',(0.38214285736,0.12857142925,0.357142857347));
#86 = CARTESIAN_POINT('',(0.38214285736,0.5,0.357142857347));
#87 = CARTESIAN_POINT('',(0.46785714291,0.5,0.271428571797));
#88 = CARTESIAN_POINT('',(0.46785714291,1.04285714185,0.271428571797));
#89 = CARTESIAN_POINT('',(0.210714286132,1.04285714185,0.271428571797));
#90 = CARTESIAN_POINT('',(0.210714286132,0.5,0.271428571797));
#91 = CARTESIAN_POINT('',(0.210714286132,-4.285714185E-02,0.271428571797
    ));
#92 = CARTESIAN_POINT('',(0.46785714291,-4.285714185E-02,0.271428571797)
  );
#93 = CARTESIAN_POINT('',(0.46785714291,0.5,0.271428571797));
#94 = CARTESIAN_POINT('',(0.46785714291,0.5,0.15714285769));
#95 = CARTESIAN_POINT('',(0.46785714291,1.04285714185,0.15714285769));
#96 = CARTESIAN_POINT('',(0.210714286132,1.04285714185,0.15714285769));
#97 = CARTESIAN_POINT('',(0.210714286132,0.5,0.15714285769));
#98 = CARTESIAN_POINT('',(0.210714286132,-4.285714185E-02,0.15714285769)
  );
#99 = CARTESIAN_POINT('',(0.46785714291,-4.285714185E-02,0.15714285769)
  );
#100 = CARTESIAN_POINT('',(0.46785714291,0.5,0.15714285769));
#101 = DEFINITIONAL_REPRESENTATION('',(#102),#106);
#102 = LINE('',#103,#104);
#103 = CARTESIAN_POINT('',(0.,0.));
#104 = VECTOR('',#105,1.);
#105 = DIRECTION('',(0.,1.));
#106 = ( GEOMETRIC_REPRESENTATION_CONTEXT(2) 
PARAMETRIC_REPRESENTATION_CONTEXT() REPRESENTATION_CONTEXT('2D SPACE',''
  ) );
#107 = ORIENTED_EDGE('',*,*,#108,.T.);
#108 = EDGE_CURVE('',#60,#109,#111,.T.);
#109 = VERTEX_POINT('',#110);
#110 = CARTESIAN_POINT('',(0.46785714291,0.5,0.15714285769));
#111 = SEAM_CURVE('',#112,(#117,#124),.PCURVE_S1.);
#112 = B_SPLINE_CURVE_WITH_KNOTS('',3,(#113,#114,#115,#116),
  .UNSPECIFIED.,.F.,.F.,(4,4),(0.,6.283185),.PIECEWISE_BEZIER_KNOTS.);
#113 = CARTESIAN_POINT('',(0.267857143253,0.5,0.357142857347));
#114 = CARTESIAN_POINT('',(0.38214285736,0.5,0.357142857347));
#115 = CARTESIAN_POINT('',(0.46785714291,0.5,0.271428571797));
#116 = CARTESIAN_POINT('',(0.46785714291,0.5,0.15714285769));
#117 = PCURVE('',#72,#118);
#118 = DEFINITIONAL_REPRESENTATION('',(#119),#123);
#119 = LINE('',#120,#121);
#120 = CARTESIAN_POINT('',(0.,0.));
#121 = VECTOR('',#122,1.);
#122 = DIRECTION('',(1.,0.));
#123 = ( GEOMETRIC_REPRESENTATION_CONTEXT(2) 
PARAMETRIC_REPRESENTATION_CONTEXT() REPRESENTATION_CONTEXT('2D SPACE',''
  ) );
#124 = PCURVE('',#72,#125);
#125 = DEFINITIONAL_REPRESENTATION('',(#126),#130);
#126 = LINE('',#127,#128);
#127 = CARTESIAN_POINT('',(0.,1.570796));
#128 = VECTOR('',#129,1.);
#129 = DIRECTION('',(1.,0.));
#130 = ( GEOMETRIC_REPRESENTATION_CONTEXT(2) 
PARAMETRIC_REPRESENTATION_CONTEXT() REPRESENTATION_CONTEXT('2D SPACE',''
  ) );
#131 = ORIENTED_EDGE('',*,*,#132,.T.);
#132 = EDGE_CURVE('',#109,#109,#133,.T.);
#133 = SURFACE_CURVE('',#134,(#142),.PCURVE_S1.);
#134 = B_SPLINE_CURVE_WITH_KNOTS('',3,(#135,#136,#137,#138,#139,#140,
    #141),.UNSPECIFIED.,.T.,.F.,(1,3,3,3,1),(-0.785398,0.,0.785398,
    1.570796,2.356194),.UNSPECIFIED.);
#135 = CARTESIAN_POINT('',(0.46785714291,0.5,0.15714285769));
#136 = CARTESIAN_POINT('',(0.46785714291,1.04285714185,0.15714285769));
#137 = CARTESIAN_POINT('',(0.210714286132,1.04285714185,0.15714285769));
#138 = CARTESIAN_POINT('',(0.210714286132,0.5,0.15714285769));
#139 = CARTESIAN_POINT('',(0.210714286132,-4.285714185E-02,0.15714285769
    ));
#140 = CARTESIAN_POINT('',(0.46785714291,-4.285714185E-02,0.15714285769)
  );
#141 = CARTESIAN_POINT('',(0.46785714291,0.5,0.15714285769));
#142 = PCURVE('',#72,#143);
#143 = DEFINITIONAL_REPRESENTATION('',(#144),#148);
#144 = LINE('',#145,#146);
#145 = CARTESIAN_POINT('',(6.283185,0.));
#146 = VECTOR('',#147,1.);
#147 = DIRECTION('',(0.,1.));
#148 = ( GEOMETRIC_REPRESENTATION_CONTEXT(2) 
PARAMETRIC_REPRESENTATION_CONTEXT() REPRESENTATION_CONTEXT('2D SPACE',''
  ) );
#149 = ORIENTED_EDGE('',*,*,#108,.F.);
#150 = ( GEOMETRIC_REPRESENTATION_CONTEXT(3) 
GLOBAL_UNCERTAINTY_ASSIGNED_CONTEXT((#154)) GLOBAL_UNIT_ASSIGNED_CONTEXT
((#151,#152,#153)) REPRESENTATION_CONTEXT('Context #1',
  '3D Context with UNIT and UNCERTAINTY') );
#151 = ( LENGTH_UNIT() NAMED_UNIT(*) SI_UNIT(.MILLI.,.METRE.) );
#152 = ( NAMED_UNIT(*) PLANE_ANGLE_UNIT() SI_UNIT($,.RADIAN.) );
#153 = ( NAMED_UNIT(*) SI_UNIT($,.STERADIAN.) SOLID_ANGLE_UNIT() );
#154 = UNCERTAINTY_MEASURE_WITH_UNIT(LENGTH_MEASURE(1.E-07),#151,
  'distance_accuracy_value','confusion accuracy');
#155 = CONTEXT_DEPENDENT_SHAPE_REPRESENTATION(#156,#158);
#156 = ( REPRESENTATION_RELATIONSHIP('','',#52,#10) 
REPRESENTATION_RELATIONSHIP_WITH_TRANSFORMATION(#157) 
SHAPE_REPRESENTATION_RELATIONSHIP() );
#157 = ITEM_DEFINED_TRANSFORMATION('','',#11,#15);
#158 = PRODUCT_DEFINITION_SHAPE('Placement','Placement of an item',#159
  );
#159 = NEXT_ASSEMBLY_USAGE_OCCURRENCE('1','','',#5,#47,$);
#160 = PRODUCT_RELATED_PRODUCT_CATEGORY('part',$,(#49));
#161 = SHAPE_DEFINITION_REPRESENTATION(#162,#168);
#162 = PRODUCT_DEFINITION_SHAPE('','',#163);
#163 = PRODUCT_DEFINITION('design','',#164,#167);
#164 = PRODUCT_DEFINITION_FORMATION('','',#165);
#165 = PRODUCT('Open CASCADE STEP translator 7.9 1.2',
  'Open CASCADE STEP translator 7.9 1.2','',(#166));
#166 = PRODUCT_CONTEXT('',#2,'mechanical');
#167 = PRODUCT_DEFINITION_CONTEXT('part definition',#2,'design');
#168 = MANIFOLD_SURFACE_SHAPE_REPRESENTATION('',(#11,#169),#250);
#169 = SHELL_BASED_SURFACE_MODEL('',(#170));
#170 = OPEN_SHELL('',(#171));
#171 = ADVANCED_FACE('',(#172),#185,.T.);
#172 = FACE_BOUND('',#173,.T.);
#173 = EDGE_LOOP('',(#174,#213,#231,#232));
#174 = ORIENTED_EDGE('',*,*,#175,.F.);
#175 = EDGE_CURVE('',#176,#178,#180,.T.);
#176 = VERTEX_POINT('',#177);
#177 = CARTESIAN_POINT('',(0.267857143253,0.5,0.357142857347));
#178 = VERTEX_POINT('',#179);
#179 = CARTESIAN_POINT('',(0.267857143253,0.5,9.090000419043E-10));
#180 = SEAM_CURVE('',#181,(#184,#206),.PCURVE_S1.);
#181 = B_SPLINE_CURVE_WITH_KNOTS('',1,(#182,#183),.UNSPECIFIED.,.F.,.F.,
  (2,2),(-0.178571,0.178571),.PIECEWISE_BEZIER_KNOTS.);
#182 = CARTESIAN_POINT('',(0.267857143253,0.5,0.357142857347));
#183 = CARTESIAN_POINT('',(0.267857143253,0.5,9.090000419043E-10));
#184 = PCURVE('',#185,#200);
#185 = ( BOUNDED_SURFACE() B_SPLINE_SURFACE(2,1,(
    (#186,#187)
    ,(#188,#189)
    ,(#190,#191)
    ,(#192,#193)
    ,(#194,#195)
    ,(#196,#197)
,(#198,#199
    )),.UNSPECIFIED.,.T.,.F.,.F.) B_SPLINE_SURFACE_WITH_KNOTS((1,2,2,2,2
    ,1),(2,2),(-2.094395,0.,2.094395,4.18879,6.283185,8.37758),(
-0.178571,0.178571),.UNSPECIFIED.) GEOMETRIC_REPRESENTATION_ITEM() 
RATIONAL_B_SPLINE_SURFACE((
    (1.,1.)
    ,(0.5,0.5)
    ,(1.,1.)
    ,(0.5,0.5)
    ,(1.,1.)
    ,(0.5,0.5)
,(1.,1.))) REPRESENTATION_ITEM('') SURFACE() );
#186 = CARTESIAN_POINT('',(0.267857143253,0.5,0.357142857347));
#187 = CARTESIAN_POINT('',(0.267857143253,0.5,9.090000419043E-10));
#188 = CARTESIAN_POINT('',(0.267857143253,0.252564170902,0.357142857347)
  );
#189 = CARTESIAN_POINT('',(0.267857143253,0.252564170902,
    9.090000419043E-10));
#190 = CARTESIAN_POINT('',(5.3571429344E-02,0.376282085451,
    0.357142857347));
#191 = CARTESIAN_POINT('',(5.3571429344E-02,0.376282085451,
    9.090000419043E-10));
#192 = CARTESIAN_POINT('',(-0.160714284565,0.5,0.357142857347));
#193 = CARTESIAN_POINT('',(-0.160714284565,0.5,9.090000419043E-10));
#194 = CARTESIAN_POINT('',(5.3571429344E-02,0.623717914549,
    0.357142857347));
#195 = CARTESIAN_POINT('',(5.3571429344E-02,0.623717914549,
    9.090000419043E-10));
#196 = CARTESIAN_POINT('',(0.267857143253,0.747435829098,0.357142857347)
  );
#197 = CARTESIAN_POINT('',(0.267857143253,0.747435829098,
    9.090000419043E-10));
#198 = CARTESIAN_POINT('',(0.267857143253,0.5,0.357142857347));
#199 = CARTESIAN_POINT('',(0.267857143253,0.5,9.090000419043E-10));
#200 = DEFINITIONAL_REPRESENTATION('',(#201),#205);
#201 = LINE('',#202,#203);
#202 = CARTESIAN_POINT('',(0.,0.));
#203 = VECTOR('',#204,1.);
#204 = DIRECTION('',(0.,1.));
#205 = ( GEOMETRIC_REPRESENTATION_CONTEXT(2) 
PARAMETRIC_REPRESENTATION_CONTEXT() REPRESENTATION_CONTEXT('2D SPACE',''
  ) );
#206 = PCURVE('',#185,#207);
#207 = DEFINITIONAL_REPRESENTATION('',(#208),#212);
#208 = LINE('',#209,#210);
#209 = CARTESIAN_POINT('',(6.283185,0.));
#210 = VECTOR('',#211,1.);
#211 = DIRECTION('',(0.,1.));
#212 = ( GEOMETRIC_REPRESENTATION_CONTEXT(2) 
PARAMETRIC_REPRESENTATION_CONTEXT() REPRESENTATION_CONTEXT('2D SPACE',''
  ) );
#213 = ORIENTED_EDGE('',*,*,#214,.T.);
#214 = EDGE_CURVE('',#176,#176,#215,.T.);
#215 = SURFACE_CURVE('',#216,(#224),.PCURVE_S1.);
#216 = ( BOUNDED_CURVE() B_SPLINE_CURVE(2,(#217,#218,#219,#220,#221,#222
,#223),.UNSPECIFIED.,.T.,.F.) B_SPLINE_CURVE_WITH_KNOTS((1,2,2,2,2,1),(
-2.094395,0.,2.094395,4.18879,6.283185,8.37758),.UNSPECIFIED.) CURVE() 
GEOMETRIC_REPRESENTATION_ITEM() RATIONAL_B_SPLINE_CURVE((1.,0.5,1.,0.5,
1.,0.5,1.)) REPRESENTATION_ITEM('') );
#217 = CARTESIAN_POINT('',(0.267857143253,0.5,0.357142857347));
#218 = CARTESIAN_POINT('',(0.267857143253,0.252564170902,0.357142857347)
  );
#219 = CARTESIAN_POINT('',(5.3571429344E-02,0.376282085451,
    0.357142857347));
#220 = CARTESIAN_POINT('',(-0.160714284565,0.5,0.357142857347));
#221 = CARTESIAN_POINT('',(5.3571429344E-02,0.623717914549,
    0.357142857347));
#222 = CARTESIAN_POINT('',(0.267857143253,0.747435829098,0.357142857347)
  );
#223 = CARTESIAN_POINT('',(0.267857143253,0.5,0.357142857347));
#224 = PCURVE('',#185,#225);
#225 = DEFINITIONAL_REPRESENTATION('',(#226),#230);
#226 = LINE('',#227,#228);
#227 = CARTESIAN_POINT('',(0.,-0.178571));
#228 = VECTOR('',#229,1.);
#229 = DIRECTION('',(1.,0.));
#230 = ( GEOMETRIC_REPRESENTATION_CONTEXT(2) 
PARAMETRIC_REPRESENTATION_CONTEXT() REPRESENTATION_CONTEXT('2D SPACE',''
  ) );
#231 = ORIENTED_EDGE('',*,*,#175,.T.);
#232 = ORIENTED_EDGE('',*,*,#233,.F.);
#233 = EDGE_CURVE('',#178,#178,#234,.T.);
#234 = SURFACE_CURVE('',#235,(#243),.PCURVE_S1.);
#235 = ( BOUNDED_CURVE() B_SPLINE_CURVE(2,(#236,#237,#238,#239,#240,#241
,#242),.UNSPECIFIED.,.T.,.F.) B_SPLINE_CURVE_WITH_KNOTS((1,2,2,2,2,1),(
-2.094395,0.,2.094395,4.18879,6.283185,8.37758),.UNSPECIFIED.) CURVE() 
GEOMETRIC_REPRESENTATION_ITEM() RATIONAL_B_SPLINE_CURVE((1.,0.5,1.,0.5,
1.,0.5,1.)) REPRESENTATION_ITEM('') );
#236 = CARTESIAN_POINT('',(0.267857143253,0.5,9.090000419043E-10));
#237 = CARTESIAN_POINT('',(0.267857143253,0.252564170902,
    9.090000419043E-10));
#238 = CARTESIAN_POINT('',(5.3571429344E-02,0.376282085451,
    9.090000419043E-10));
#239 = CARTESIAN_POINT('',(-0.160714284565,0.5,9.090000419043E-10));
#240 = CARTESIAN_POINT('',(5.3571429344E-02,0.623717914549,
    9.090000419043E-10));
#241 = CARTESIAN_POINT('',(0.267857143253,0.747435829098,
    9.090000419043E-10));
#242 = CARTESIAN_POINT('',(0.267857143253,0.5,9.090000419043E-10));
#243 = PCURVE('',#185,#244);
#244 = DEFINITIONAL_REPRESENTATION('',(#245),#249);
#245 = LINE('',#246,#247);
#246 = CARTESIAN_POINT('',(0.,0.178571));
#247 = VECTOR('',#248,1.);
#248 = DIRECTION('',(1.,0.));
#249 = ( GEOMETRIC_REPRESENTATION_CONTEXT(2) 
PARAMETRIC_REPRESENTATION_CONTEXT() REPRESENTATION_CONTEXT('2D SPACE',''
  ) );
#250 = ( GEOMETRIC_REPRESENTATION_CONTEXT(3) 
GLOBAL_UNCERTAINTY_ASSIGNED_CONTEXT((#254)) GLOBAL_UNIT_ASSIGNED_CONTEXT
((#251,#252,#253)) REPRESENTATION_CONTEXT('Context #1',
  '3D Context with UNIT and UNCERTAINTY') );
#251 = ( LENGTH_UNIT() NAMED_UNIT(*) SI_UNIT(.MILLI.,.METRE.) );
#252 = ( NAMED_UNIT(*) PLANE_ANGLE_UNIT() SI_UNIT($,.RADIAN.) );
#253 = ( NAMED_UNIT(*) SI_UNIT($,.STERADIAN.) SOLID_ANGLE_UNIT() );
#254 = UNCERTAINTY_MEASURE_WITH_UNIT(LENGTH_MEASURE(1.E-07),#251,
  'distance_accuracy_value','confusion accuracy');
#255 = CONTEXT_DEPENDENT_SHAPE_REPRESENTATION(#256,#258);
#256 = ( REPRESENTATION_RELATIONSHIP('','',#168,#10) 
REPRESENTATION_RELATIONSHIP_WITH_TRANSFORMATION(#257) 
SHAPE_REPRESENTATION_RELATIONSHIP() );
#257 = ITEM_DEFINED_TRANSFORMATION('','',#11,#19);
#258 = PRODUCT_DEFINITION_SHAPE('Placement','Placement of an item',#259
  );
#259 = NEXT_ASSEMBLY_USAGE_OCCURRENCE('2','','',#5,#163,$);
#260 = PRODUCT_RELATED_PRODUCT_CATEGORY('part',$,(#165));
#261 = SHAPE_DEFINITION_REPRESENTATION(#262,#268);
#262 = PRODUCT_DEFINITION_SHAPE('','',#263);
#263 = PRODUCT_DEFINITION('design','',#264,#267);
#264 = PRODUCT_DEFINITION_FORMATION('','',#265);
#265 = PRODUCT('Open CASCADE STEP translator 7.9 1.3',
  'Open CASCADE STEP translator 7.9 1.3','',(#266));
#266 = PRODUCT_CONTEXT('',#2,'mechanical');
#267 = PRODUCT_DEFINITION_CONTEXT('part definition',#2,'design');
#268 = MANIFOLD_SURFACE_SHAPE_REPRESENTATION('',(#11,#269),#323);
#269 = SHELL_BASED_SURFACE_MODEL('',(#270));
#270 = OPEN_SHELL('',(#271));
#271 = ADVANCED_FACE('',(#272,#300),#285,.T.);
#272 = FACE_BOUND('',#273,.T.);
#273 = EDGE_LOOP('',(#274));
#274 = ORIENTED_EDGE('',*,*,#275,.F.);
#275 = EDGE_CURVE('',#276,#276,#278,.T.);
#276 = VERTEX_POINT('',#277);
#277 = CARTESIAN_POINT('',(0.267858,0.5,0.));
#278 = SURFACE_CURVE('',#279,(#284),.PCURVE_S1.);
#279 = CIRCLE('',#280,0.133929);
#280 = AXIS2_PLACEMENT_3D('',#281,#282,#283);
#281 = CARTESIAN_POINT('',(0.133929,0.5,0.));
#282 = DIRECTION('',(0.,0.,1.));
#283 = DIRECTION('',(1.,0.,-0.));
#284 = PCURVE('',#285,#290);
#285 = PLANE('',#286);
#286 = AXIS2_PLACEMENT_3D('',#287,#288,#289);
#287 = CARTESIAN_POINT('',(0.133928996041,0.5,0.));
#288 = DIRECTION('',(-0.,-0.,-1.));
#289 = DIRECTION('',(-1.,0.,0.));
#290 = DEFINITIONAL_REPRESENTATION('',(#291),#299);
#291 = ( BOUNDED_CURVE() B_SPLINE_CURVE(2,(#292,#293,#294,#295,#296,#297
,#298),.UNSPECIFIED.,.T.,.F.) B_SPLINE_CURVE_WITH_KNOTS((1,2,2,2,2,1),(
    -2.094395102393,0.,2.094395102393,4.188790204786,6.28318530718,
8.377580409573),.UNSPECIFIED.) CURVE() GEOMETRIC_REPRESENTATION_ITEM() 
RATIONAL_B_SPLINE_CURVE((1.,0.5,1.,0.5,1.,0.5,1.)) REPRESENTATION_ITEM(
  '') );
#292 = CARTESIAN_POINT('',(-0.133929003959,-6.661338147751E-16));
#293 = CARTESIAN_POINT('',(-0.133929003959,0.231971832607));
#294 = CARTESIAN_POINT('',(6.696449604128E-02,0.115985916303));
#295 = CARTESIAN_POINT('',(0.267857996041,-6.333306705425E-16));
#296 = CARTESIAN_POINT('',(6.696449604128E-02,-0.115985916303));
#297 = CARTESIAN_POINT('',(-0.133929003959,-0.231971832607));
#298 = CARTESIAN_POINT('',(-0.133929003959,-6.661338147751E-16));
#299 = ( GEOMETRIC_REPRESENTATION_CONTEXT(2) 
PARAMETRIC_REPRESENTATION_CONTEXT() REPRESENTATION_CONTEXT('2D SPACE',''
  ) );
#300 = FACE_BOUND('',#301,.F.);
#301 = EDGE_LOOP('',(#302));
#302 = ORIENTED_EDGE('',*,*,#303,.T.);
#303 = EDGE_CURVE('',#304,#304,#306,.T.);
#304 = VERTEX_POINT('',#305);
#305 = CARTESIAN_POINT('',(0.217858,0.5,0.));
#306 = SURFACE_CURVE('',#307,(#312),.PCURVE_S1.);
#307 = CIRCLE('',#308,8.3929E-02);
#308 = AXIS2_PLACEMENT_3D('',#309,#310,#311);
#309 = CARTESIAN_POINT('',(0.133929,0.5,0.));
#310 = DIRECTION('',(0.,0.,1.));
#311 = DIRECTION('',(1.,0.,-0.));
#312 = PCURVE('',#285,#313);
#313 = DEFINITIONAL_REPRESENTATION('',(#314),#322);
#314 = ( BOUNDED_CURVE() B_SPLINE_CURVE(2,(#315,#316,#317,#318,#319,#320
,#321),.UNSPECIFIED.,.T.,.F.) B_SPLINE_CURVE_WITH_KNOTS((1,2,2,2,2,1),(
    -2.094395102393,0.,2.094395102393,4.188790204786,6.28318530718,
8.377580409573),.UNSPECIFIED.) CURVE() GEOMETRIC_REPRESENTATION_ITEM() 
RATIONAL_B_SPLINE_CURVE((1.,0.5,1.,0.5,1.,0.5,1.)) REPRESENTATION_ITEM(
  '') );
#315 = CARTESIAN_POINT('',(-8.392900395872E-02,-6.661338147751E-16));
#316 = CARTESIAN_POINT('',(-8.392900395872E-02,0.145369292228));
#317 = CARTESIAN_POINT('',(4.196449604128E-02,7.268464611422E-02));
#318 = CARTESIAN_POINT('',(0.167857996041,-6.45577138534E-16));
#319 = CARTESIAN_POINT('',(4.196449604128E-02,-7.268464611422E-02));
#320 = CARTESIAN_POINT('',(-8.392900395872E-02,-0.145369292228));
#321 = CARTESIAN_POINT('',(-8.392900395872E-02,-6.661338147751E-16));
#322 = ( GEOMETRIC_REPRESENTATION_CONTEXT(2) 
PARAMETRIC_REPRESENTATION_CONTEXT() REPRESENTATION_CONTEXT('2D SPACE',''
  ) );
#323 = ( GEOMETRIC_REPRESENTATION_CONTEXT(3) 
GLOBAL_UNCERTAINTY_ASSIGNED_CONTEXT((#327)) GLOBAL_UNIT_ASSIGNED_CONTEXT
((#324,#325,#326)) REPRESENTATION_CONTEXT('Context #1',
  '3D Context with UNIT and UNCERTAINTY') );
#324 = ( LENGTH_UNIT() NAMED_UNIT(*) SI_UNIT(.MILLI.,.METRE.) );
#325 = ( NAMED_UNIT(*) PLANE_ANGLE_UNIT() SI_UNIT($,.RADIAN.) );
#326 = ( NAMED_UNIT(*) SI_UNIT($,.STERADIAN.) SOLID_ANGLE_UNIT() );
#327 = UNCERTAINTY_MEASURE_WITH_UNIT(LENGTH_MEASURE(1.E-07),#324,
  'distance_accuracy_value','confusion accuracy');
#328 = CONTEXT_DEPENDENT_SHAPE_REPRESENTATION(#329,#331);
#329 = ( REPRESENTATION_RELATIONSHIP('','',#268,#10) 
REPRESENTATION_RELATIONSHIP_WITH_TRANSFORMATION(#330) 
SHAPE_REPRESENTATION_RELATIONSHIP() );
#330 = ITEM_DEFINED_TRANSFORMATION('','',#11,#23);
#331 = PRODUCT_DEFINITION_SHAPE('Placement','Placement of an item',#332
  );
#332 = NEXT_ASSEMBLY_USAGE_OCCURRENCE('3','','',#5,#263,$);
#333 = PRODUCT_RELATED_PRODUCT_CATEGORY('part',$,(#265));
#334 = SHAPE_DEFINITION_REPRESENTATION(#335,#341);
#335 = PRODUCT_DEFINITION_SHAPE('','',#336);
#336 = PRODUCT_DEFINITION('design','',#337,#340);
#337 = PRODUCT_DEFINITION_FORMATION('','',#338);
#338 = PRODUCT('Open CASCADE STEP translator 7.9 1.4',
  'Open CASCADE STEP translator 7.9 1.4','',(#339));
#339 = PRODUCT_CONTEXT('',#2,'mechanical');
#340 = PRODUCT_DEFINITION_CONTEXT('part definition',#2,'design');
#341 = MANIFOLD_SURFACE_SHAPE_REPRESENTATION('',(#11,#342),#439);
#342 = SHELL_BASED_SURFACE_MODEL('',(#343));
#343 = OPEN_SHELL('',(#344));
#344 = ADVANCED_FACE('',(#345),#361,.T.);
#345 = FACE_BOUND('',#346,.T.);
#346 = EDGE_LOOP('',(#347,#396,#420,#438));
#347 = ORIENTED_EDGE('',*,*,#348,.F.);
#348 = EDGE_CURVE('',#349,#349,#351,.T.);
#349 = VERTEX_POINT('',#350);
#350 = CARTESIAN_POINT('',(0.217857143408,0.5,0.357142857347));
#351 = SURFACE_CURVE('',#352,(#360),.PCURVE_S1.);
#352 = B_SPLINE_CURVE_WITH_KNOTS('',3,(#353,#354,#355,#356,#357,#358,
    #359),.UNSPECIFIED.,.T.,.F.,(1,3,3,3,1),(-0.785398,0.,0.785398,
    1.570796,2.356194),.UNSPECIFIED.);
#353 = CARTESIAN_POINT('',(0.217857143408,0.5,0.357142857347));
#354 = CARTESIAN_POINT('',(0.217857143408,0.667857142596,0.357142857347)
  );
#355 = CARTESIAN_POINT('',(5.0000000812E-02,0.667857142596,
    0.357142857347));
#356 = CARTESIAN_POINT('',(5.0000000812E-02,0.5,0.357142857347));
#357 = CARTESIAN_POINT('',(5.0000000812E-02,0.332142857404,
    0.357142857347));
#358 = CARTESIAN_POINT('',(0.217857143408,0.332142857404,0.357142857347)
  );
#359 = CARTESIAN_POINT('',(0.217857143408,0.5,0.357142857347));
#360 = PCURVE('',#361,#390);
#361 = B_SPLINE_SURFACE_WITH_KNOTS('',3,3,(
    (#362,#363,#364,#365,#366,#367,#368)
    ,(#369,#370,#371,#372,#373,#374,#375)
    ,(#376,#377,#378,#379,#380,#381,#382)
    ,(#383,#384,#385,#386,#387,#388,#389
    )),.UNSPECIFIED.,.F.,.T.,.F.,(4,4),(1,3,3,3,1),(0.,6.283185),(
    -0.785398,0.,0.785398,1.570796,2.356194),.UNSPECIFIED.);
#362 = CARTESIAN_POINT('',(0.217857143408,0.5,0.357142857347));
#363 = CARTESIAN_POINT('',(0.217857143408,0.667857142596,0.357142857347)
  );
#364 = CARTESIAN_POINT('',(5.0000000812E-02,0.667857142596,
    0.357142857347));
#365 = CARTESIAN_POINT('',(5.0000000812E-02,0.5,0.357142857347));
#366 = CARTESIAN_POINT('',(5.0000000812E-02,0.332142857404,
    0.357142857347));
#367 = CARTESIAN_POINT('',(0.217857143408,0.332142857404,0.357142857347)
  );
#368 = CARTESIAN_POINT('',(0.217857143408,0.5,0.357142857347));
#369 = CARTESIAN_POINT('',(0.346428571781,0.5,0.357142857347));
#370 = CARTESIAN_POINT('',(0.346428571781,0.924999999342,0.357142857347)
  );
#371 = CARTESIAN_POINT('',(-7.8571427561E-02,0.924999999342,
    0.357142857347));
#372 = CARTESIAN_POINT('',(-7.8571427561E-02,0.5,0.357142857347));
#373 = CARTESIAN_POINT('',(-7.8571427561E-02,7.5000000658E-02,
    0.357142857347));
#374 = CARTESIAN_POINT('',(0.346428571781,7.5000000658E-02,
    0.357142857347));
#375 = CARTESIAN_POINT('',(0.346428571781,0.5,0.357142857347));
#376 = CARTESIAN_POINT('',(0.432142857317,0.5,0.271428571797));
#377 = CARTESIAN_POINT('',(0.432142857317,1.096428570414,0.271428571797)
  );
#378 = CARTESIAN_POINT('',(-0.164285713097,1.096428570414,0.271428571797
    ));
#379 = CARTESIAN_POINT('',(-0.164285713097,0.5,0.271428571797));
#380 = CARTESIAN_POINT('',(-0.164285713097,-9.6428570414E-02,
    0.271428571797));
#381 = CARTESIAN_POINT('',(0.432142857317,-9.6428570414E-02,
    0.271428571797));
#382 = CARTESIAN_POINT('',(0.432142857317,0.5,0.271428571797));
#383 = CARTESIAN_POINT('',(0.432142857317,0.5,0.142857143438));
#384 = CARTESIAN_POINT('',(0.432142857317,1.096428570414,0.142857143438)
  );
#385 = CARTESIAN_POINT('',(-0.164285713097,1.096428570414,0.142857143438
    ));
#386 = CARTESIAN_POINT('',(-0.164285713097,0.5,0.142857143438));
#387 = CARTESIAN_POINT('',(-0.164285713097,-9.6428570414E-02,
    0.142857143438));
#388 = CARTESIAN_POINT('',(0.432142857317,-9.6428570414E-02,
    0.142857143438));
#389 = CARTESIAN_POINT('',(0.432142857317,0.5,0.142857143438));
#390 = DEFINITIONAL_REPRESENTATION('',(#391),#395);
#391 = LINE('',#392,#393);
#392 = CARTESIAN_POINT('',(0.,0.));
#393 = VECTOR('',#394,1.);
#394 = DIRECTION('',(0.,1.));
#395 = ( GEOMETRIC_REPRESENTATION_CONTEXT(2) 
PARAMETRIC_REPRESENTATION_CONTEXT() REPRESENTATION_CONTEXT('2D SPACE',''
  ) );
#396 = ORIENTED_EDGE('',*,*,#397,.T.);
#397 = EDGE_CURVE('',#349,#398,#400,.T.);
#398 = VERTEX_POINT('',#399);
#399 = CARTESIAN_POINT('',(0.432142857317,0.5,0.142857143438));
#400 = SEAM_CURVE('',#401,(#406,#413),.PCURVE_S1.);
#401 = B_SPLINE_CURVE_WITH_KNOTS('',3,(#402,#403,#404,#405),
  .UNSPECIFIED.,.F.,.F.,(4,4),(0.,6.283185),.PIECEWISE_BEZIER_KNOTS.);
#402 = CARTESIAN_POINT('',(0.217857143408,0.5,0.357142857347));
#403 = CARTESIAN_POINT('',(0.346428571781,0.5,0.357142857347));
#404 = CARTESIAN_POINT('',(0.432142857317,0.5,0.271428571797));
#405 = CARTESIAN_POINT('',(0.432142857317,0.5,0.142857143438));
#406 = PCURVE('',#361,#407);
#407 = DEFINITIONAL_REPRESENTATION('',(#408),#412);
#408 = LINE('',#409,#410);
#409 = CARTESIAN_POINT('',(0.,0.));
#410 = VECTOR('',#411,1.);
#411 = DIRECTION('',(1.,0.));
#412 = ( GEOMETRIC_REPRESENTATION_CONTEXT(2) 
PARAMETRIC_REPRESENTATION_CONTEXT() REPRESENTATION_CONTEXT('2D SPACE',''
  ) );
#413 = PCURVE('',#361,#414);
#414 = DEFINITIONAL_REPRESENTATION('',(#415),#419);
#415 = LINE('',#416,#417);
#416 = CARTESIAN_POINT('',(0.,1.570796));
#417 = VECTOR('',#418,1.);
#418 = DIRECTION('',(1.,0.));
#419 = ( GEOMETRIC_REPRESENTATION_CONTEXT(2) 
PARAMETRIC_REPRESENTATION_CONTEXT() REPRESENTATION_CONTEXT('2D SPACE',''
  ) );
#420 = ORIENTED_EDGE('',*,*,#421,.T.);
#421 = EDGE_CURVE('',#398,#398,#422,.T.);
#422 = SURFACE_CURVE('',#423,(#431),.PCURVE_S1.);
#423 = B_SPLINE_CURVE_WITH_KNOTS('',3,(#424,#425,#426,#427,#428,#429,
    #430),.UNSPECIFIED.,.T.,.F.,(1,3,3,3,1),(-0.785398,0.,0.785398,
    1.570796,2.356194),.UNSPECIFIED.);
#424 = CARTESIAN_POINT('',(0.432142857317,0.5,0.142857143438));
#425 = CARTESIAN_POINT('',(0.432142857317,1.096428570414,0.142857143438)
  );
#426 = CARTESIAN_POINT('',(-0.164285713097,1.096428570414,0.142857143438
    ));
#427 = CARTESIAN_POINT('',(-0.164285713097,0.5,0.142857143438));
#428 = CARTESIAN_POINT('',(-0.164285713097,-9.6428570414E-02,
    0.142857143438));
#429 = CARTESIAN_POINT('',(0.432142857317,-9.6428570414E-02,
    0.142857143438));
#430 = CARTESIAN_POINT('',(0.432142857317,0.5,0.142857143438));
#431 = PCURVE('',#361,#432);
#432 = DEFINITIONAL_REPRESENTATION('',(#433),#437);
#433 = LINE('',#434,#435);
#434 = CARTESIAN_POINT('',(6.283185,0.));
#435 = VECTOR('',#436,1.);
#436 = DIRECTION('',(0.,1.));
#437 = ( GEOMETRIC_REPRESENTATION_CONTEXT(2) 
PARAMETRIC_REPRESENTATION_CONTEXT() REPRESENTATION_CONTEXT('2D SPACE',''
  ) );
#438 = ORIENTED_EDGE('',*,*,#397,.F.);
#439 = ( GEOMETRIC_REPRESENTATION_CONTEXT(3) 
GLOBAL_UNCERTAINTY_ASSIGNED_CONTEXT((#443)) GLOBAL_UNIT_ASSIGNED_CONTEXT
((#440,#441,#442)) REPRESENTATION_CONTEXT('Context #1',
  '3D Context with UNIT and UNCERTAINTY') );
#440 = ( LENGTH_UNIT() NAMED_UNIT(*) SI_UNIT(.MILLI.,.METRE.) );
#441 = ( NAMED_UNIT(*) PLANE_ANGLE_UNIT() SI_UNIT($,.RADIAN.) );
#442 = ( NAMED_UNIT(*) SI_UNIT($,.STERADIAN.) SOLID_ANGLE_UNIT() );
#443 = UNCERTAINTY_MEASURE_WITH_UNIT(LENGTH_MEASURE(1.E-07),#440,
  'distance_accuracy_value','confusion accuracy');
#444 = CONTEXT_DEPENDENT_SHAPE_REPRESENTATION(#445,#447);
#445 = ( REPRESENTATION_RELATIONSHIP('','',#341,#10) 
REPRESENTATION_RELATIONSHIP_WITH_TRANSFORMATION(#446) 
SHAPE_REPRESENTATION_RELATIONSHIP() );
#446 = ITEM_DEFINED_TRANSFORMATION('','',#11,#27);
#447 = PRODUCT_DEFINITION_SHAPE('Placement','Placement of an item',#448
  );
#448 = NEXT_ASSEMBLY_USAGE_OCCURRENCE('4','','',#5,#336,$);
#449 = PRODUCT_RELATED_PRODUCT_CATEGORY('part',$,(#338));
#450 = SHAPE_DEFINITION_REPRESENTATION(#451,#457);
#451 = PRODUCT_DEFINITION_SHAPE('','',#452);
#452 = PRODUCT_DEFINITION('design','',#453,#456);
#453 = PRODUCT_DEFINITION_FORMATION('','',#454);
#454 = PRODUCT('Open CASCADE STEP translator 7.9 1.5',
  'Open CASCADE STEP translator 7.9 1.5','',(#455));
#455 = PRODUCT_CONTEXT('',#2,'mechanical');
#456 = PRODUCT_DEFINITION_CONTEXT('part definition',#2,'design');
#457 = MANIFOLD_SURFACE_SHAPE_REPRESENTATION('',(#11,#458),#504);
#458 = SHELL_BASED_SURFACE_MODEL('',(#459));
#459 = OPEN_SHELL('',(#460));
#460 = ADVANCED_FACE('',(#461,#485),#474,.T.);
#461 = FACE_BOUND('',#462,.T.);
#462 = EDGE_LOOP('',(#463));
#463 = ORIENTED_EDGE('',*,*,#464,.T.);
#464 = EDGE_CURVE('',#465,#465,#467,.T.);
#465 = VERTEX_POINT('',#466);
#466 = CARTESIAN_POINT('',(0.267858,0.5,0.357143));
#467 = SURFACE_CURVE('',#468,(#473),.PCURVE_S1.);
#468 = CIRCLE('',#469,0.133929);
#469 = AXIS2_PLACEMENT_3D('',#470,#471,#472);
#470 = CARTESIAN_POINT('',(0.133929,0.5,0.357143));
#471 = DIRECTION('',(0.,0.,1.));
#472 = DIRECTION('',(1.,0.,-0.));
#473 = PCURVE('',#474,#479);
#474 = PLANE('',#475);
#475 = AXIS2_PLACEMENT_3D('',#476,#477,#478);
#476 = CARTESIAN_POINT('',(0.133928996041,0.5,0.357143));
#477 = DIRECTION('',(0.,0.,1.));
#478 = DIRECTION('',(1.,0.,-0.));
#479 = DEFINITIONAL_REPRESENTATION('',(#480),#484);
#480 = CIRCLE('',#481,0.133929);
#481 = AXIS2_PLACEMENT_2D('',#482,#483);
#482 = CARTESIAN_POINT('',(3.958723321373E-09,-6.661338147751E-16));
#483 = DIRECTION('',(1.,0.));
#484 = ( GEOMETRIC_REPRESENTATION_CONTEXT(2) 
PARAMETRIC_REPRESENTATION_CONTEXT() REPRESENTATION_CONTEXT('2D SPACE',''
  ) );
#485 = FACE_BOUND('',#486,.F.);
#486 = EDGE_LOOP('',(#487));
#487 = ORIENTED_EDGE('',*,*,#488,.F.);
#488 = EDGE_CURVE('',#489,#489,#491,.T.);
#489 = VERTEX_POINT('',#490);
#490 = CARTESIAN_POINT('',(0.217858,0.5,0.357143));
#491 = SURFACE_CURVE('',#492,(#497),.PCURVE_S1.);
#492 = CIRCLE('',#493,8.3929E-02);
#493 = AXIS2_PLACEMENT_3D('',#494,#495,#496);
#494 = CARTESIAN_POINT('',(0.133929,0.5,0.357143));
#495 = DIRECTION('',(0.,0.,1.));
#496 = DIRECTION('',(1.,0.,-0.));
#497 = PCURVE('',#474,#498);
#498 = DEFINITIONAL_REPRESENTATION('',(#499),#503);
#499 = CIRCLE('',#500,8.3929E-02);
#500 = AXIS2_PLACEMENT_2D('',#501,#502);
#501 = CARTESIAN_POINT('',(3.958723321373E-09,-6.661338147751E-16));
#502 = DIRECTION('',(1.,0.));
#503 = ( GEOMETRIC_REPRESENTATION_CONTEXT(2) 
PARAMETRIC_REPRESENTATION_CONTEXT() REPRESENTATION_CONTEXT('2D SPACE',''
  ) );
#504 = ( GEOMETRIC_REPRESENTATION_CONTEXT(3) 
GLOBAL_UNCERTAINTY_ASSIGNED_CONTEXT((#508)) GLOBAL_UNIT_ASSIGNED_CONTEXT
((#505,#506,#507)) REPRESENTATION_CONTEXT('Context #1',
  '3D Context with UNIT and UNCERTAINTY') );
#505 = ( LENGTH_UNIT() NAMED_UNIT(*) SI_UNIT(.MILLI.,.METRE.) );
#506 = ( NAMED_UNIT(*) PLANE_ANGLE_UNIT() SI_UNIT($,.RADIAN.) );
#507 = ( NAMED_UNIT(*) SI_UNIT($,.STERADIAN.) SOLID_ANGLE_UNIT() );
#508 = UNCERTAINTY_MEASURE_WITH_UNIT(LENGTH_MEASURE(1.E-07),#505,
  'distance_accuracy_value','confusion accuracy');
#509 = CONTEXT_DEPENDENT_SHAPE_REPRESENTATION(#510,#512);
#510 = ( REPRESENTATION_RELATIONSHIP('','',#457,#10) 
REPRESENTATION_RELATIONSHIP_WITH_TRANSFORMATION(#511) 
SHAPE_REPRESENTATION_RELATIONSHIP() );
#511 = ITEM_DEFINED_TRANSFORMATION('','',#11,#31);
#512 = PRODUCT_DEFINITION_SHAPE('Placement','Placement of an item',#513
  );
#513 = NEXT_ASSEMBLY_USAGE_OCCURRENCE('5','','',#5,#452,$);
#514 = PRODUCT_RELATED_PRODUCT_CATEGORY('part',$,(#454));
#515 = SHAPE_DEFINITION_REPRESENTATION(#516,#522);
#516 = PRODUCT_DEFINITION_SHAPE('','',#517);
#517 = PRODUCT_DEFINITION('design','',#518,#521);
#518 = PRODUCT_DEFINITION_FORMATION('','',#519);
#519 = PRODUCT('Open CASCADE STEP translator 7.9 1.6',
  'Open CASCADE STEP translator 7.9 1.6','',(#520));
#520 = PRODUCT_CONTEXT('',#2,'mechanical');
#521 = PRODUCT_DEFINITION_CONTEXT('part definition',#2,'design');
#522 = MANIFOLD_SURFACE_SHAPE_REPRESENTATION('',(#11,#523),#604);
#523 = SHELL_BASED_SURFACE_MODEL('',(#524));
#524 = OPEN_SHELL('',(#525));
#525 = ADVANCED_FACE('',(#526),#539,.T.);
#526 = FACE_BOUND('',#527,.T.);
#527 = EDGE_LOOP('',(#528,#567,#585,#586));
#528 = ORIENTED_EDGE('',*,*,#529,.F.);
#529 = EDGE_CURVE('',#530,#532,#534,.T.);
#530 = VERTEX_POINT('',#531);
#531 = CARTESIAN_POINT('',(0.217857143408,0.5,0.357142857347));
#532 = VERTEX_POINT('',#533);
#533 = CARTESIAN_POINT('',(0.217857143408,0.5,9.090000419043E-10));
#534 = SEAM_CURVE('',#535,(#538,#560),.PCURVE_S1.);
#535 = B_SPLINE_CURVE_WITH_KNOTS('',1,(#536,#537),.UNSPECIFIED.,.F.,.F.,
  (2,2),(-0.178571,0.178571),.PIECEWISE_BEZIER_KNOTS.);
#536 = CARTESIAN_POINT('',(0.217857143408,0.5,0.357142857347));
#537 = CARTESIAN_POINT('',(0.217857143408,0.5,9.090000419043E-10));
#538 = PCURVE('',#539,#554);
#539 = ( BOUNDED_SURFACE() B_SPLINE_SURFACE(2,1,(
    (#540,#541)
    ,(#542,#543)
    ,(#544,#545)
    ,(#546,#547)
    ,(#548,#549)
    ,(#550,#551)
,(#552,#553
    )),.UNSPECIFIED.,.T.,.F.,.F.) B_SPLINE_SURFACE_WITH_KNOTS((1,2,2,2,2
    ,1),(2,2),(-2.094395,0.,2.094395,4.18879,6.283185,8.37758),(
-0.178571,0.178571),.UNSPECIFIED.) GEOMETRIC_REPRESENTATION_ITEM() 
RATIONAL_B_SPLINE_SURFACE((
    (1.,1.)
    ,(0.5,0.5)
    ,(1.,1.)
    ,(0.5,0.5)
    ,(1.,1.)
    ,(0.5,0.5)
,(1.,1.))) REPRESENTATION_ITEM('') SURFACE() );
#540 = CARTESIAN_POINT('',(0.217857143408,0.5,0.357142857347));
#541 = CARTESIAN_POINT('',(0.217857143408,0.5,9.090000419043E-10));
#542 = CARTESIAN_POINT('',(0.217857143408,0.354613019114,0.357142857347)
  );
#543 = CARTESIAN_POINT('',(0.217857143408,0.354613019114,
    9.090000419043E-10));
#544 = CARTESIAN_POINT('',(9.18571436135E-02,0.427306509557,
    0.357142857347));
#545 = CARTESIAN_POINT('',(9.18571436135E-02,0.427306509557,
    9.090000419043E-10));
#546 = CARTESIAN_POINT('',(-3.4142856181E-02,0.5,0.357142857347));
#547 = CARTESIAN_POINT('',(-3.4142856181E-02,0.5,9.090000419043E-10));
#548 = CARTESIAN_POINT('',(9.18571436135E-02,0.572693490443,
    0.357142857347));
#549 = CARTESIAN_POINT('',(9.18571436135E-02,0.572693490443,
    9.090000419043E-10));
#550 = CARTESIAN_POINT('',(0.217857143408,0.645386980886,0.357142857347)
  );
#551 = CARTESIAN_POINT('',(0.217857143408,0.645386980886,
    9.090000419043E-10));
#552 = CARTESIAN_POINT('',(0.217857143408,0.5,0.357142857347));
#553 = CARTESIAN_POINT('',(0.217857143408,0.5,9.090000419043E-10));
#554 = DEFINITIONAL_REPRESENTATION('',(#555),#559);
#555 = LINE('',#556,#557);
#556 = CARTESIAN_POINT('',(0.,0.));
#557 = VECTOR('',#558,1.);
#558 = DIRECTION('',(0.,1.));
#559 = ( GEOMETRIC_REPRESENTATION_CONTEXT(2) 
PARAMETRIC_REPRESENTATION_CONTEXT() REPRESENTATION_CONTEXT('2D SPACE',''
  ) );
#560 = PCURVE('',#539,#561);
#561 = DEFINITIONAL_REPRESENTATION('',(#562),#566);
#562 = LINE('',#563,#564);
#563 = CARTESIAN_POINT('',(6.283185,0.));
#564 = VECTOR('',#565,1.);
#565 = DIRECTION('',(0.,1.));
#566 = ( GEOMETRIC_REPRESENTATION_CONTEXT(2) 
PARAMETRIC_REPRESENTATION_CONTEXT() REPRESENTATION_CONTEXT('2D SPACE',''
  ) );
#567 = ORIENTED_EDGE('',*,*,#568,.T.);
#568 = EDGE_CURVE('',#530,#530,#569,.T.);
#569 = SURFACE_CURVE('',#570,(#578),.PCURVE_S1.);
#570 = ( BOUNDED_CURVE() B_SPLINE_CURVE(2,(#571,#572,#573,#574,#575,#576
,#577),.UNSPECIFIED.,.T.,.F.) B_SPLINE_CURVE_WITH_KNOTS((1,2,2,2,2,1),(
-2.094395,0.,2.094395,4.18879,6.283185,8.37758),.UNSPECIFIED.) CURVE() 
GEOMETRIC_REPRESENTATION_ITEM() RATIONAL_B_SPLINE_CURVE((1.,0.5,1.,0.5,
1.,0.5,1.)) REPRESENTATION_ITEM('') );
#571 = CARTESIAN_POINT('',(0.217857143408,0.5,0.357142857347));
#572 = CARTESIAN_POINT('',(0.217857143408,0.354613019114,0.357142857347)
  );
#573 = CARTESIAN_POINT('',(9.18571436135E-02,0.427306509557,
    0.357142857347));
#574 = CARTESIAN_POINT('',(-3.4142856181E-02,0.5,0.357142857347));
#575 = CARTESIAN_POINT('',(9.18571436135E-02,0.572693490443,
    0.357142857347));
#576 = CARTESIAN_POINT('',(0.217857143408,0.645386980886,0.357142857347)
  );
#577 = CARTESIAN_POINT('',(0.217857143408,0.5,0.357142857347));
#578 = PCURVE('',#539,#579);
#579 = DEFINITIONAL_REPRESENTATION('',(#580),#584);
#580 = LINE('',#581,#582);
#581 = CARTESIAN_POINT('',(0.,-0.178571));
#582 = VECTOR('',#583,1.);
#583 = DIRECTION('',(1.,0.));
#584 = ( GEOMETRIC_REPRESENTATION_CONTEXT(2) 
PARAMETRIC_REPRESENTATION_CONTEXT() REPRESENTATION_CONTEXT('2D SPACE',''
  ) );
#585 = ORIENTED_EDGE('',*,*,#529,.T.);
#586 = ORIENTED_EDGE('',*,*,#587,.F.);
#587 = EDGE_CURVE('',#532,#532,#588,.T.);
#588 = SURFACE_CURVE('',#589,(#597),.PCURVE_S1.);
#589 = ( BOUNDED_CURVE() B_SPLINE_CURVE(2,(#590,#591,#592,#593,#594,#595
,#596),.UNSPECIFIED.,.T.,.F.) B_SPLINE_CURVE_WITH_KNOTS((1,2,2,2,2,1),(
-2.094395,0.,2.094395,4.18879,6.283185,8.37758),.UNSPECIFIED.) CURVE() 
GEOMETRIC_REPRESENTATION_ITEM() RATIONAL_B_SPLINE_CURVE((1.,0.5,1.,0.5,
1.,0.5,1.)) REPRESENTATION_ITEM('') );
#590 = CARTESIAN_POINT('',(0.217857143408,0.5,9.090000419043E-10));
#591 = CARTESIAN_POINT('',(0.217857143408,0.354613019114,
    9.090000419043E-10));
#592 = CARTESIAN_POINT('',(9.18571436135E-02,0.427306509557,
    9.090000419043E-10));
#593 = CARTESIAN_POINT('',(-3.4142856181E-02,0.5,9.090000419043E-10));
#594 = CARTESIAN_POINT('',(9.18571436135E-02,0.572693490443,
    9.090000419043E-10));
#595 = CARTESIAN_POINT('',(0.217857143408,0.645386980886,
    9.090000419043E-10));
#596 = CARTESIAN_POINT('',(0.217857143408,0.5,9.090000419043E-10));
#597 = PCURVE('',#539,#598);
#598 = DEFINITIONAL_REPRESENTATION('',(#599),#603);
#599 = LINE('',#600,#601);
#600 = CARTESIAN_POINT('',(0.,0.178571));
#601 = VECTOR('',#602,1.);
#602 = DIRECTION('',(1.,0.));
#603 = ( GEOMETRIC_REPRESENTATION_CONTEXT(2) 
PARAMETRIC_REPRESENTATION_CONTEXT() REPRESENTATION_CONTEXT('2D SPACE',''
  ) );
#604 = ( GEOMETRIC_REPRESENTATION_CONTEXT(3) 
GLOBAL_UNCERTAINTY_ASSIGNED_CONTEXT((#608)) GLOBAL_UNIT_ASSIGNED_CONTEXT
((#605,#606,#607)) REPRESENTATION_CONTEXT('Context #1',
  '3D Context with UNIT and UNCERTAINTY') );
#605 = ( LENGTH_UNIT() NAMED_UNIT(*) SI_UNIT(.MILLI.,.METRE.) );
#606 = ( NAMED_UNIT(*) PLANE_ANGLE_UNIT() SI_UNIT($,.RADIAN.) );
#607 = ( NAMED_UNIT(*) SI_UNIT($,.STERADIAN.) SOLID_ANGLE_UNIT() );
#608 = UNCERTAINTY_MEASURE_WITH_UNIT(LENGTH_MEASURE(1.E-07),#605,
  'distance_accuracy_value','confusion accuracy');
#609 = CONTEXT_DEPENDENT_SHAPE_REPRESENTATION(#610,#612);
#610 = ( REPRESENTATION_RELATIONSHIP('','',#522,#10) 
REPRESENTATION_RELATIONSHIP_WITH_TRANSFORMATION(#611) 
SHAPE_REPRESENTATION_RELATIONSHIP() );
#611 = ITEM_DEFINED_TRANSFORMATION('','',#11,#35);
#612 = PRODUCT_DEFINITION_SHAPE('Placement','Placement of an item',#613
  );
#613 = NEXT_ASSEMBLY_USAGE_OCCURRENCE('6','','',#5,#517,$);
#614 = PRODUCT_RELATED_PRODUCT_CATEGORY('part',$,(#519));
ENDSEC;
END-ISO-10303-21;
