ISO-10303-21;
HEADER;
FILE_DESCRIPTION(('Open CASCADE Model'),'2;1');
FILE_NAME('Open CASCADE Shape Model','2026-07-02T20:55:49',('Author'),(
    'Open CASCADE'),'Open CASCADE STEP processor 7.9','Open CASCADE 7.9'
  ,'Unknown');
FILE_SCHEMA(('AUTOMOTIVE_DESIGN { 1 0 10303 214 1 1 1 1 }'));
ENDSEC;
DATA;
#1 = APPLICATION_PROTOCOL_DEFINITION('international standard',
  'automotive_design',2000,#2);
#2 = APPLICATION_CONTEXT(
  'core data for automotive mechanical design processes');
#3 = SHAPE_DEFINITION_REPRESENTATION(#4,#10);
#4 = PRODUCT_DEFINITION_SHAPE('','',#5);
#5 = PRODUCT_DEFINITION('design','',#6,#9);
#6 = PRODUCT_DEFINITION_FORMATION('','',#7);
#7 = PRODUCT('Open CASCADE STEP translator 7.9 1',
  'Open CASCADE STEP translator 7.9 1','',(#8));
#8 = PRODUCT_CONTEXT('',#2,'mechanical');
#9 = PRODUCT_DEFINITION_CONTEXT('part definition',#2,'design');
#10 = SHAPE_REPRESENTATION('',(#11,#15,#19,#23,#27,#31,#35,#39,#43,#47,
    #51,#55),#59);
#11 = AXIS2_PLACEMENT_3D('',#12,#13,#14);
#12 = CARTESIAN_POINT('',(0.,0.,0.));
#13 = DIRECTION('',(0.,0.,1.));
#14 = DIRECTION('',(1.,0.,-0.));
#15 = AXIS2_PLACEMENT_3D('',#16,#17,#18);
#16 = CARTESIAN_POINT('',(0.,0.,0.));
#17 = DIRECTION('',(0.,0.,1.));
#18 = DIRECTION('',(1.,0.,-0.));
#19 = AXIS2_PLACEMENT_3D('',#20,#21,#22);
#20 = CARTESIAN_POINT('',(0.,0.,0.));
#21 = DIRECTION('',(0.,0.,1.));
#22 = DIRECTION('',(1.,0.,-0.));
#23 = AXIS2_PLACEMENT_3D('',#24,#25,#26);
#24 = CARTESIAN_POINT('',(0.,0.,0.));
#25 = DIRECTION('',(0.,0.,1.));
#26 = DIRECTION('',(1.,0.,-0.));
#27 = AXIS2_PLACEMENT_3D('',#28,#29,#30);
#28 = CARTESIAN_POINT('',(0.,0.,0.));
#29 = DIRECTION('',(0.,0.,1.));
#30 = DIRECTION('',(1.,0.,-0.));
#31 = AXIS2_PLACEMENT_3D('',#32,#33,#34);
#32 = CARTESIAN_POINT('',(0.,0.,0.));
#33 = DIRECTION('',(0.,0.,1.));
#34 = DIRECTION('',(1.,0.,-0.));
#35 = AXIS2_PLACEMENT_3D('',#36,#37,#38);
#36 = CARTESIAN_POINT('',(0.,0.,0.));
#37 = DIRECTION('',(0.,0.,1.));
#38 = DIRECTION('',(1.,0.,-0.));
#39 = AXIS2_PLACEMENT_3D('',#40,#41,#42);
#40 = CARTESIAN_POINT('',(0.,0.,0.));
#41 = DIRECTION('',(0.,0.,1.));
#42 = DIRECTION('',(1.,0.,-0.));
#43 = AXIS2_PLACEMENT_3D('',#44,#45,#46);
#44 = CARTESIAN_POINT('',(0.,0.,0.));
#45 = DIRECTION('',(0.,0.,1.));
#46 = DIRECTION('',(1.,0.,-0.));
#47 = AXIS2_PLACEMENT_3D('',#48,#49,#50);
#48 = CARTESIAN_POINT('',(0.,0.,0.));
#49 = DIRECTION('',(0.,0.,1.));
#50 = DIRECTION('',(1.,0.,-0.));
#51 = AXIS2_PLACEMENT_3D('',#52,#53,#54);
#52 = CARTESIAN_POINT('',(0.,0.,0.));
#53 = DIRECTION('',(0.,0.,1.));
#54 = DIRECTION('',(1.,0.,-0.));
#55 = AXIS2_PLACEMENT_3D('',#56,#57,#58);
#56 = CARTESIAN_POINT('',(0.,0.,0.));
#57 = DIRECTION('',(0.,0.,1.));
#58 = DIRECTION('',(1.,0.,-0.));
#59 = ( GEOMETRIC_REPRESENTATION_CONTEXT(3) 
GLOBAL_UNCERTAINTY_ASSIGNED_CONTEXT((#63)) GLOBAL_UNIT_ASSIGNED_CONTEXT(
(#60,#61,#62)) REPRESENTATION_CONTEXT('Context #1',
  '3D Context with UNIT and UNCERTAINTY') );
#60 = ( LENGTH_UNIT() NAMED_UNIT(*) SI_UNIT(.MILLI.,.METRE.) );
#61 = ( NAMED_UNIT(*) PLANE_ANGLE_UNIT() SI_UNIT($,.RADIAN.) );
#62 = ( NAMED_UNIT(*) SI_UNIT($,.STERADIAN.) SOLID_ANGLE_UNIT() );
#63 = UNCERTAINTY_MEASURE_WITH_UNIT(LENGTH_MEASURE(1.E-07),#60,
  'distance_accuracy_value','confusion accuracy');
#64 = PRODUCT_RELATED_PRODUCT_CATEGORY('part',$,(#7));
#65 = SHAPE_DEFINITION_REPRESENTATION(#66,#72);
#66 = PRODUCT_DEFINITION_SHAPE('','',#67);
#67 = PRODUCT_DEFINITION('design','',#68,#71);
#68 = PRODUCT_DEFINITION_FORMATION('','',#69);
#69 = PRODUCT('Open CASCADE STEP translator 7.9 1.1',
  'Open CASCADE STEP translator 7.9 1.1','',(#70));
#70 = PRODUCT_CONTEXT('',#2,'mechanical');
#71 = PRODUCT_DEFINITION_CONTEXT('part definition',#2,'design');
#72 = MANIFOLD_SURFACE_SHAPE_REPRESENTATION('',(#11,#73),#154);
#73 = SHELL_BASED_SURFACE_MODEL('',(#74));
#74 = OPEN_SHELL('',(#75));
#75 = ADVANCED_FACE('',(#76),#89,.T.);
#76 = FACE_BOUND('',#77,.T.);
#77 = EDGE_LOOP('',(#78,#117,#135,#136));
#78 = ORIENTED_EDGE('',*,*,#79,.F.);
#79 = EDGE_CURVE('',#80,#82,#84,.T.);
#80 = VERTEX_POINT('',#81);
#81 = CARTESIAN_POINT('',(0.624999999918,0.5,0.999999999584));
#82 = VERTEX_POINT('',#83);
#83 = CARTESIAN_POINT('',(0.624999999918,0.5,4.169998790715E-10));
#84 = SEAM_CURVE('',#85,(#88,#110),.PCURVE_S1.);
#85 = B_SPLINE_CURVE_WITH_KNOTS('',1,(#86,#87),.UNSPECIFIED.,.F.,.F.,(2,
    2),(-1.3125,-0.3125),.PIECEWISE_BEZIER_KNOTS.);
#86 = CARTESIAN_POINT('',(0.624999999918,0.5,0.999999999584));
#87 = CARTESIAN_POINT('',(0.624999999918,0.5,4.169998790715E-10));
#88 = PCURVE('',#89,#104);
#89 = ( BOUNDED_SURFACE() B_SPLINE_SURFACE(2,1,(
    (#90,#91)
    ,(#92,#93)
    ,(#94,#95)
    ,(#96,#97)
    ,(#98,#99)
    ,(#100,#101)
,(#102,#103
    )),.UNSPECIFIED.,.T.,.F.,.F.) B_SPLINE_SURFACE_WITH_KNOTS((1,2,2,2,2
    ,1),(2,2),(-2.094395,0.,2.094395,4.18879,6.283185,8.37758),(-1.3125,
-0.3125),.UNSPECIFIED.) GEOMETRIC_REPRESENTATION_ITEM() 
RATIONAL_B_SPLINE_SURFACE((
    (1.,1.)
    ,(0.5,0.5)
    ,(1.,1.)
    ,(0.5,0.5)
    ,(1.,1.)
    ,(0.5,0.5)
,(1.,1.))) REPRESENTATION_ITEM('') SURFACE() );
#90 = CARTESIAN_POINT('',(0.624999999918,0.5,0.999999999584));
#91 = CARTESIAN_POINT('',(0.624999999918,0.5,4.169998790715E-10));
#92 = CARTESIAN_POINT('',(0.624999999918,0.283493649236,0.999999999584)
  );
#93 = CARTESIAN_POINT('',(0.624999999918,0.283493649236,
    4.169998790715E-10));
#94 = CARTESIAN_POINT('',(0.437500000041,0.391746824618,0.999999999584)
  );
#95 = CARTESIAN_POINT('',(0.437500000041,0.391746824618,
    4.169998790715E-10));
#96 = CARTESIAN_POINT('',(0.250000000164,0.5,0.999999999584));
#97 = CARTESIAN_POINT('',(0.250000000164,0.5,4.169998790715E-10));
#98 = CARTESIAN_POINT('',(0.437500000041,0.608253175382,0.999999999584)
  );
#99 = CARTESIAN_POINT('',(0.437500000041,0.608253175382,
    4.169998790715E-10));
#100 = CARTESIAN_POINT('',(0.624999999918,0.716506350764,0.999999999584)
  );
#101 = CARTESIAN_POINT('',(0.624999999918,0.716506350764,
    4.169998790715E-10));
#102 = CARTESIAN_POINT('',(0.624999999918,0.5,0.999999999584));
#103 = CARTESIAN_POINT('',(0.624999999918,0.5,4.169998790715E-10));
#104 = DEFINITIONAL_REPRESENTATION('',(#105),#109);
#105 = LINE('',#106,#107);
#106 = CARTESIAN_POINT('',(0.,0.));
#107 = VECTOR('',#108,1.);
#108 = DIRECTION('',(0.,1.));
#109 = ( GEOMETRIC_REPRESENTATION_CONTEXT(2) 
PARAMETRIC_REPRESENTATION_CONTEXT() REPRESENTATION_CONTEXT('2D SPACE',''
  ) );
#110 = PCURVE('',#89,#111);
#111 = DEFINITIONAL_REPRESENTATION('',(#112),#116);
#112 = LINE('',#113,#114);
#113 = CARTESIAN_POINT('',(6.283185,0.));
#114 = VECTOR('',#115,1.);
#115 = DIRECTION('',(0.,1.));
#116 = ( GEOMETRIC_REPRESENTATION_CONTEXT(2) 
PARAMETRIC_REPRESENTATION_CONTEXT() REPRESENTATION_CONTEXT('2D SPACE',''
  ) );
#117 = ORIENTED_EDGE('',*,*,#118,.T.);
#118 = EDGE_CURVE('',#80,#80,#119,.T.);
#119 = SURFACE_CURVE('',#120,(#128),.PCURVE_S1.);
#120 = ( BOUNDED_CURVE() B_SPLINE_CURVE(2,(#121,#122,#123,#124,#125,#126
,#127),.UNSPECIFIED.,.T.,.F.) B_SPLINE_CURVE_WITH_KNOTS((1,2,2,2,2,1),(
-2.094395,0.,2.094395,4.18879,6.283185,8.37758),.UNSPECIFIED.) CURVE() 
GEOMETRIC_REPRESENTATION_ITEM() RATIONAL_B_SPLINE_CURVE((1.,0.5,1.,0.5,
1.,0.5,1.)) REPRESENTATION_ITEM('') );
#121 = CARTESIAN_POINT('',(0.624999999918,0.5,0.999999999584));
#122 = CARTESIAN_POINT('',(0.624999999918,0.283493649236,0.999999999584)
  );
#123 = CARTESIAN_POINT('',(0.437500000041,0.391746824618,0.999999999584)
  );
#124 = CARTESIAN_POINT('',(0.250000000164,0.5,0.999999999584));
#125 = CARTESIAN_POINT('',(0.437500000041,0.608253175382,0.999999999584)
  );
#126 = CARTESIAN_POINT('',(0.624999999918,0.716506350764,0.999999999584)
  );
#127 = CARTESIAN_POINT('',(0.624999999918,0.5,0.999999999584));
#128 = PCURVE('',#89,#129);
#129 = DEFINITIONAL_REPRESENTATION('',(#130),#134);
#130 = LINE('',#131,#132);
#131 = CARTESIAN_POINT('',(0.,-1.3125));
#132 = VECTOR('',#133,1.);
#133 = DIRECTION('',(1.,0.));
#134 = ( GEOMETRIC_REPRESENTATION_CONTEXT(2) 
PARAMETRIC_REPRESENTATION_CONTEXT() REPRESENTATION_CONTEXT('2D SPACE',''
  ) );
#135 = ORIENTED_EDGE('',*,*,#79,.T.);
#136 = ORIENTED_EDGE('',*,*,#137,.F.);
#137 = EDGE_CURVE('',#82,#82,#138,.T.);
#138 = SURFACE_CURVE('',#139,(#147),.PCURVE_S1.);
#139 = ( BOUNDED_CURVE() B_SPLINE_CURVE(2,(#140,#141,#142,#143,#144,#145
,#146),.UNSPECIFIED.,.T.,.F.) B_SPLINE_CURVE_WITH_KNOTS((1,2,2,2,2,1),(
-2.094395,0.,2.094395,4.18879,6.283185,8.37758),.UNSPECIFIED.) CURVE() 
GEOMETRIC_REPRESENTATION_ITEM() RATIONAL_B_SPLINE_CURVE((1.,0.5,1.,0.5,
1.,0.5,1.)) REPRESENTATION_ITEM('') );
#140 = CARTESIAN_POINT('',(0.624999999918,0.5,4.169998790715E-10));
#141 = CARTESIAN_POINT('',(0.624999999918,0.283493649236,
    4.169998790715E-10));
#142 = CARTESIAN_POINT('',(0.437500000041,0.391746824618,
    4.169998790715E-10));
#143 = CARTESIAN_POINT('',(0.250000000164,0.5,4.169998790715E-10));
#144 = CARTESIAN_POINT('',(0.437500000041,0.608253175382,
    4.169998790715E-10));
#145 = CARTESIAN_POINT('',(0.624999999918,0.716506350764,
    4.169998790715E-10));
#146 = CARTESIAN_POINT('',(0.624999999918,0.5,4.169998790715E-10));
#147 = PCURVE('',#89,#148);
#148 = DEFINITIONAL_REPRESENTATION('',(#149),#153);
#149 = LINE('',#150,#151);
#150 = CARTESIAN_POINT('',(0.,-0.3125));
#151 = VECTOR('',#152,1.);
#152 = DIRECTION('',(1.,0.));
#153 = ( GEOMETRIC_REPRESENTATION_CONTEXT(2) 
PARAMETRIC_REPRESENTATION_CONTEXT() REPRESENTATION_CONTEXT('2D SPACE',''
  ) );
#154 = ( GEOMETRIC_REPRESENTATION_CONTEXT(3) 
GLOBAL_UNCERTAINTY_ASSIGNED_CONTEXT((#158)) GLOBAL_UNIT_ASSIGNED_CONTEXT
((#155,#156,#157)) REPRESENTATION_CONTEXT('Context #1',
  '3D Context with UNIT and UNCERTAINTY') );
#155 = ( LENGTH_UNIT() NAMED_UNIT(*) SI_UNIT(.MILLI.,.METRE.) );
#156 = ( NAMED_UNIT(*) PLANE_ANGLE_UNIT() SI_UNIT($,.RADIAN.) );
#157 = ( NAMED_UNIT(*) SI_UNIT($,.STERADIAN.) SOLID_ANGLE_UNIT() );
#158 = UNCERTAINTY_MEASURE_WITH_UNIT(LENGTH_MEASURE(1.E-07),#155,
  'distance_accuracy_value','confusion accuracy');
#159 = CONTEXT_DEPENDENT_SHAPE_REPRESENTATION(#160,#162);
#160 = ( REPRESENTATION_RELATIONSHIP('','',#72,#10) 
REPRESENTATION_RELATIONSHIP_WITH_TRANSFORMATION(#161) 
SHAPE_REPRESENTATION_RELATIONSHIP() );
#161 = ITEM_DEFINED_TRANSFORMATION('','',#11,#15);
#162 = PRODUCT_DEFINITION_SHAPE('Placement','Placement of an item',#163
  );
#163 = NEXT_ASSEMBLY_USAGE_OCCURRENCE('1','','',#5,#67,$);
#164 = PRODUCT_RELATED_PRODUCT_CATEGORY('part',$,(#69));
#165 = SHAPE_DEFINITION_REPRESENTATION(#166,#172);
#166 = PRODUCT_DEFINITION_SHAPE('','',#167);
#167 = PRODUCT_DEFINITION('design','',#168,#171);
#168 = PRODUCT_DEFINITION_FORMATION('','',#169);
#169 = PRODUCT('Open CASCADE STEP translator 7.9 1.2',
  'Open CASCADE STEP translator 7.9 1.2','',(#170));
#170 = PRODUCT_CONTEXT('',#2,'mechanical');
#171 = PRODUCT_DEFINITION_CONTEXT('part definition',#2,'design');
#172 = MANIFOLD_SURFACE_SHAPE_REPRESENTATION('',(#11,#173),#221);
#173 = SHELL_BASED_SURFACE_MODEL('',(#174));
#174 = OPEN_SHELL('',(#175));
#175 = ADVANCED_FACE('',(#176,#202),#191,.T.);
#176 = FACE_BOUND('',#177,.T.);
#177 = EDGE_LOOP('',(#178));
#178 = ORIENTED_EDGE('',*,*,#179,.F.);
#179 = EDGE_CURVE('',#180,#182,#184,.T.);
#180 = VERTEX_POINT('',#181);
#181 = CARTESIAN_POINT('',(1.,0.5,0.));
#182 = VERTEX_POINT('',#183);
#183 = CARTESIAN_POINT('',(1.,0.49999984641,0.));
#184 = SURFACE_CURVE('',#185,(#190),.PCURVE_S1.);
#185 = CIRCLE('',#186,0.5);
#186 = AXIS2_PLACEMENT_3D('',#187,#188,#189);
#187 = CARTESIAN_POINT('',(0.5,0.5,0.));
#188 = DIRECTION('',(0.,0.,1.));
#189 = DIRECTION('',(1.,0.,-0.));
#190 = PCURVE('',#191,#196);
#191 = PLANE('',#192);
#192 = AXIS2_PLACEMENT_3D('',#193,#194,#195);
#193 = CARTESIAN_POINT('',(0.499999985221,0.5,0.));
#194 = DIRECTION('',(0.,0.,1.));
#195 = DIRECTION('',(1.,0.,-0.));
#196 = DEFINITIONAL_REPRESENTATION('',(#197),#201);
#197 = CIRCLE('',#198,0.5);
#198 = AXIS2_PLACEMENT_2D('',#199,#200);
#199 = CARTESIAN_POINT('',(1.477918648574E-08,-2.331468351713E-15));
#200 = DIRECTION('',(1.,0.));
#201 = ( GEOMETRIC_REPRESENTATION_CONTEXT(2) 
PARAMETRIC_REPRESENTATION_CONTEXT() REPRESENTATION_CONTEXT('2D SPACE',''
  ) );
#202 = FACE_BOUND('',#203,.F.);
#203 = EDGE_LOOP('',(#204));
#204 = ORIENTED_EDGE('',*,*,#205,.T.);
#205 = EDGE_CURVE('',#206,#206,#208,.T.);
#206 = VERTEX_POINT('',#207);
#207 = CARTESIAN_POINT('',(0.625,0.5,0.));
#208 = SURFACE_CURVE('',#209,(#214),.PCURVE_S1.);
#209 = CIRCLE('',#210,0.125);
#210 = AXIS2_PLACEMENT_3D('',#211,#212,#213);
#211 = CARTESIAN_POINT('',(0.5,0.5,0.));
#212 = DIRECTION('',(0.,0.,1.));
#213 = DIRECTION('',(1.,0.,-0.));
#214 = PCURVE('',#191,#215);
#215 = DEFINITIONAL_REPRESENTATION('',(#216),#220);
#216 = CIRCLE('',#217,0.125);
#217 = AXIS2_PLACEMENT_2D('',#218,#219);
#218 = CARTESIAN_POINT('',(1.477918648574E-08,-2.331468351713E-15));
#219 = DIRECTION('',(1.,0.));
#220 = ( GEOMETRIC_REPRESENTATION_CONTEXT(2) 
PARAMETRIC_REPRESENTATION_CONTEXT() REPRESENTATION_CONTEXT('2D SPACE',''
  ) );
#221 = ( GEOMETRIC_REPRESENTATION_CONTEXT(3) 
GLOBAL_UNCERTAINTY_ASSIGNED_CONTEXT((#225)) GLOBAL_UNIT_ASSIGNED_CONTEXT
((#222,#223,#224)) REPRESENTATION_CONTEXT('Context #1',
  '3D Context with UNIT and UNCERTAINTY') );
#222 = ( LENGTH_UNIT() NAMED_UNIT(*) SI_UNIT(.MILLI.,.METRE.) );
#223 = ( NAMED_UNIT(*) PLANE_ANGLE_UNIT() SI_UNIT($,.RADIAN.) );
#224 = ( NAMED_UNIT(*) SI_UNIT($,.STERADIAN.) SOLID_ANGLE_UNIT() );
#225 = UNCERTAINTY_MEASURE_WITH_UNIT(LENGTH_MEASURE(1.E-07),#222,
  'distance_accuracy_value','confusion accuracy');
#226 = CONTEXT_DEPENDENT_SHAPE_REPRESENTATION(#227,#229);
#227 = ( REPRESENTATION_RELATIONSHIP('','',#172,#10) 
REPRESENTATION_RELATIONSHIP_WITH_TRANSFORMATION(#228) 
SHAPE_REPRESENTATION_RELATIONSHIP() );
#228 = ITEM_DEFINED_TRANSFORMATION('','',#11,#19);
#229 = PRODUCT_DEFINITION_SHAPE('Placement','Placement of an item',#230
  );
#230 = NEXT_ASSEMBLY_USAGE_OCCURRENCE('2','','',#5,#167,$);
#231 = PRODUCT_RELATED_PRODUCT_CATEGORY('part',$,(#169));
#232 = SHAPE_DEFINITION_REPRESENTATION(#233,#239);
#233 = PRODUCT_DEFINITION_SHAPE('','',#234);
#234 = PRODUCT_DEFINITION('design','',#235,#238);
#235 = PRODUCT_DEFINITION_FORMATION('','',#236);
#236 = PRODUCT('Open CASCADE STEP translator 7.9 1.3',
  'Open CASCADE STEP translator 7.9 1.3','',(#237));
#237 = PRODUCT_CONTEXT('',#2,'mechanical');
#238 = PRODUCT_DEFINITION_CONTEXT('part definition',#2,'design');
#239 = MANIFOLD_SURFACE_SHAPE_REPRESENTATION('',(#11,#240),#329);
#240 = SHELL_BASED_SURFACE_MODEL('',(#241));
#241 = OPEN_SHELL('',(#242));
#242 = ADVANCED_FACE('',(#243),#256,.T.);
#243 = FACE_BOUND('',#244,.T.);
#244 = EDGE_LOOP('',(#245,#288,#308,#309));
#245 = ORIENTED_EDGE('',*,*,#246,.F.);
#246 = EDGE_CURVE('',#247,#249,#251,.T.);
#247 = VERTEX_POINT('',#248);
#248 = CARTESIAN_POINT('',(0.999999999584,0.5,4.165999989425E-09));
#249 = VERTEX_POINT('',#250);
#250 = CARTESIAN_POINT('',(0.999999999584,0.5,0.12500000375));
#251 = SEAM_CURVE('',#252,(#255,#281),.PCURVE_S1.);
#252 = B_SPLINE_CURVE_WITH_KNOTS('',1,(#253,#254),.UNSPECIFIED.,.F.,.F.,
  (2,2),(-0.125,0.),.PIECEWISE_BEZIER_KNOTS.);
#253 = CARTESIAN_POINT('',(0.999999999584,0.5,4.165999989425E-09));
#254 = CARTESIAN_POINT('',(0.999999999584,0.5,0.12500000375));
#255 = PCURVE('',#256,#275);
#256 = ( BOUNDED_SURFACE() B_SPLINE_SURFACE(2,1,(
    (#257,#258)
    ,(#259,#260)
    ,(#261,#262)
    ,(#263,#264)
    ,(#265,#266)
    ,(#267,#268)
    ,(#269,#270)
    ,(#271,#272)
,(#273,#274
    )),.UNSPECIFIED.,.T.,.F.,.F.) B_SPLINE_SURFACE_WITH_KNOTS((3,2,2,2,3
    ),(2,2),(3.141593,4.18879,6.283185,8.37758,9.424778),(-0.125,0.),
.UNSPECIFIED.) GEOMETRIC_REPRESENTATION_ITEM() RATIONAL_B_SPLINE_SURFACE
((
    (0.75,0.75)
    ,(0.75,0.75)
    ,(1.,1.)
    ,(0.5,0.5)
    ,(1.,1.)
    ,(0.5,0.5)
    ,(1.,1.)
    ,(0.75,0.75)
,(0.75,0.75))) REPRESENTATION_ITEM('') SURFACE() );
#257 = CARTESIAN_POINT('',(0.999999999584,0.5,4.165999989425E-09));
#258 = CARTESIAN_POINT('',(0.999999999584,0.5,0.12500000375));
#259 = CARTESIAN_POINT('',(0.999999999584,0.788675134027,
    4.165999989425E-09));
#260 = CARTESIAN_POINT('',(0.999999999584,0.788675134027,0.12500000375)
  );
#261 = CARTESIAN_POINT('',(0.750000000001,0.93301270104,
    4.165999989425E-09));
#262 = CARTESIAN_POINT('',(0.750000000001,0.93301270104,0.12500000375));
#263 = CARTESIAN_POINT('',(1.250000658537E-09,1.36602540208,
    4.165999989425E-09));
#264 = CARTESIAN_POINT('',(1.250000658537E-09,1.36602540208,
    0.12500000375));
#265 = CARTESIAN_POINT('',(1.249999992403E-09,0.5,4.165999989425E-09));
#266 = CARTESIAN_POINT('',(1.249999992403E-09,0.5,0.12500000375));
#267 = CARTESIAN_POINT('',(1.249999992403E-09,-0.36602540208,
    4.165999989425E-09));
#268 = CARTESIAN_POINT('',(1.249999992403E-09,-0.36602540208,
    0.12500000375));
#269 = CARTESIAN_POINT('',(0.75,6.698729895995E-02,4.165999989425E-09));
#270 = CARTESIAN_POINT('',(0.75,6.698729895995E-02,0.12500000375));
#271 = CARTESIAN_POINT('',(0.999999999584,0.211324865973,
    4.165999989425E-09));
#272 = CARTESIAN_POINT('',(0.999999999584,0.211324865973,0.12500000375)
  );
#273 = CARTESIAN_POINT('',(0.999999999584,0.5,4.165999989425E-09));
#274 = CARTESIAN_POINT('',(0.999999999584,0.5,0.12500000375));
#275 = DEFINITIONAL_REPRESENTATION('',(#276),#280);
#276 = LINE('',#277,#278);
#277 = CARTESIAN_POINT('',(3.141593,0.));
#278 = VECTOR('',#279,1.);
#279 = DIRECTION('',(0.,1.));
#280 = ( GEOMETRIC_REPRESENTATION_CONTEXT(2) 
PARAMETRIC_REPRESENTATION_CONTEXT() REPRESENTATION_CONTEXT('2D SPACE',''
  ) );
#281 = PCURVE('',#256,#282);
#282 = DEFINITIONAL_REPRESENTATION('',(#283),#287);
#283 = LINE('',#284,#285);
#284 = CARTESIAN_POINT('',(9.424778,0.));
#285 = VECTOR('',#286,1.);
#286 = DIRECTION('',(0.,1.));
#287 = ( GEOMETRIC_REPRESENTATION_CONTEXT(2) 
PARAMETRIC_REPRESENTATION_CONTEXT() REPRESENTATION_CONTEXT('2D SPACE',''
  ) );
#288 = ORIENTED_EDGE('',*,*,#289,.T.);
#289 = EDGE_CURVE('',#247,#247,#290,.T.);
#290 = SURFACE_CURVE('',#291,(#301),.PCURVE_S1.);
#291 = ( BOUNDED_CURVE() B_SPLINE_CURVE(2,(#292,#293,#294,#295,#296,#297
,#298,#299,#300),.UNSPECIFIED.,.T.,.F.) B_SPLINE_CURVE_WITH_KNOTS((3,2,2
    ,2,3),(3.141593,4.18879,6.283185,8.37758,9.424778),.UNSPECIFIED.) 
CURVE() GEOMETRIC_REPRESENTATION_ITEM() RATIONAL_B_SPLINE_CURVE((0.75,
0.75,1.,0.5,1.,0.5,1.,0.75,0.75)) REPRESENTATION_ITEM('') );
#292 = CARTESIAN_POINT('',(0.999999999584,0.5,4.165999989425E-09));
#293 = CARTESIAN_POINT('',(0.999999999584,0.788675134027,
    4.165999989425E-09));
#294 = CARTESIAN_POINT('',(0.750000000001,0.93301270104,
    4.165999989425E-09));
#295 = CARTESIAN_POINT('',(1.250000658537E-09,1.36602540208,
    4.165999989425E-09));
#296 = CARTESIAN_POINT('',(1.249999992403E-09,0.5,4.165999989425E-09));
#297 = CARTESIAN_POINT('',(1.249999992403E-09,-0.36602540208,
    4.165999989425E-09));
#298 = CARTESIAN_POINT('',(0.75,6.698729895995E-02,4.165999989425E-09));
#299 = CARTESIAN_POINT('',(0.999999999584,0.211324865973,
    4.165999989425E-09));
#300 = CARTESIAN_POINT('',(0.999999999584,0.5,4.165999989425E-09));
#301 = PCURVE('',#256,#302);
#302 = DEFINITIONAL_REPRESENTATION('',(#303),#307);
#303 = LINE('',#304,#305);
#304 = CARTESIAN_POINT('',(0.,-0.125));
#305 = VECTOR('',#306,1.);
#306 = DIRECTION('',(1.,0.));
#307 = ( GEOMETRIC_REPRESENTATION_CONTEXT(2) 
PARAMETRIC_REPRESENTATION_CONTEXT() REPRESENTATION_CONTEXT('2D SPACE',''
  ) );
#308 = ORIENTED_EDGE('',*,*,#246,.T.);
#309 = ORIENTED_EDGE('',*,*,#310,.F.);
#310 = EDGE_CURVE('',#249,#249,#311,.T.);
#311 = SURFACE_CURVE('',#312,(#322),.PCURVE_S1.);
#312 = ( BOUNDED_CURVE() B_SPLINE_CURVE(2,(#313,#314,#315,#316,#317,#318
,#319,#320,#321),.UNSPECIFIED.,.T.,.F.) B_SPLINE_CURVE_WITH_KNOTS((3,2,2
    ,2,3),(3.141593,4.18879,6.283185,8.37758,9.424778),.UNSPECIFIED.) 
CURVE() GEOMETRIC_REPRESENTATION_ITEM() RATIONAL_B_SPLINE_CURVE((0.75,
0.75,1.,0.5,1.,0.5,1.,0.75,0.75)) REPRESENTATION_ITEM('') );
#313 = CARTESIAN_POINT('',(0.999999999584,0.5,0.12500000375));
#314 = CARTESIAN_POINT('',(0.999999999584,0.788675134027,0.12500000375)
  );
#315 = CARTESIAN_POINT('',(0.750000000001,0.93301270104,0.12500000375));
#316 = CARTESIAN_POINT('',(1.250000658537E-09,1.36602540208,
    0.12500000375));
#317 = CARTESIAN_POINT('',(1.249999992403E-09,0.5,0.12500000375));
#318 = CARTESIAN_POINT('',(1.249999992403E-09,-0.36602540208,
    0.12500000375));
#319 = CARTESIAN_POINT('',(0.75,6.698729895995E-02,0.12500000375));
#320 = CARTESIAN_POINT('',(0.999999999584,0.211324865973,0.12500000375)
  );
#321 = CARTESIAN_POINT('',(0.999999999584,0.5,0.12500000375));
#322 = PCURVE('',#256,#323);
#323 = DEFINITIONAL_REPRESENTATION('',(#324),#328);
#324 = LINE('',#325,#326);
#325 = CARTESIAN_POINT('',(0.,0.));
#326 = VECTOR('',#327,1.);
#327 = DIRECTION('',(1.,0.));
#328 = ( GEOMETRIC_REPRESENTATION_CONTEXT(2) 
PARAMETRIC_REPRESENTATION_CONTEXT() REPRESENTATION_CONTEXT('2D SPACE',''
  ) );
#329 = ( GEOMETRIC_REPRESENTATION_CONTEXT(3) 
GLOBAL_UNCERTAINTY_ASSIGNED_CONTEXT((#333)) GLOBAL_UNIT_ASSIGNED_CONTEXT
((#330,#331,#332)) REPRESENTATION_CONTEXT('Context #1',
  '3D Context with UNIT and UNCERTAINTY') );
#330 = ( LENGTH_UNIT() NAMED_UNIT(*) SI_UNIT(.MILLI.,.METRE.) );
#331 = ( NAMED_UNIT(*) PLANE_ANGLE_UNIT() SI_UNIT($,.RADIAN.) );
#332 = ( NAMED_UNIT(*) SI_UNIT($,.STERADIAN.) SOLID_ANGLE_UNIT() );
#333 = UNCERTAINTY_MEASURE_WITH_UNIT(LENGTH_MEASURE(1.E-07),#330,
  'distance_accuracy_value','confusion accuracy');
#334 = CONTEXT_DEPENDENT_SHAPE_REPRESENTATION(#335,#337);
#335 = ( REPRESENTATION_RELATIONSHIP('','',#239,#10) 
REPRESENTATION_RELATIONSHIP_WITH_TRANSFORMATION(#336) 
SHAPE_REPRESENTATION_RELATIONSHIP() );
#336 = ITEM_DEFINED_TRANSFORMATION('','',#11,#23);
#337 = PRODUCT_DEFINITION_SHAPE('Placement','Placement of an item',#338
  );
#338 = NEXT_ASSEMBLY_USAGE_OCCURRENCE('3','','',#5,#234,$);
#339 = PRODUCT_RELATED_PRODUCT_CATEGORY('part',$,(#236));
#340 = SHAPE_DEFINITION_REPRESENTATION(#341,#347);
#341 = PRODUCT_DEFINITION_SHAPE('','',#342);
#342 = PRODUCT_DEFINITION('design','',#343,#346);
#343 = PRODUCT_DEFINITION_FORMATION('','',#344);
#344 = PRODUCT('Open CASCADE STEP translator 7.9 1.4',
  'Open CASCADE STEP translator 7.9 1.4','',(#345));
#345 = PRODUCT_CONTEXT('',#2,'mechanical');
#346 = PRODUCT_DEFINITION_CONTEXT('part definition',#2,'design');
#347 = MANIFOLD_SURFACE_SHAPE_REPRESENTATION('',(#11,#348),#396);
#348 = SHELL_BASED_SURFACE_MODEL('',(#349));
#349 = OPEN_SHELL('',(#350));
#350 = ADVANCED_FACE('',(#351,#377),#366,.T.);
#351 = FACE_BOUND('',#352,.T.);
#352 = EDGE_LOOP('',(#353));
#353 = ORIENTED_EDGE('',*,*,#354,.T.);
#354 = EDGE_CURVE('',#355,#357,#359,.T.);
#355 = VERTEX_POINT('',#356);
#356 = CARTESIAN_POINT('',(1.,0.5,0.125));
#357 = VERTEX_POINT('',#358);
#358 = CARTESIAN_POINT('',(1.,0.49999984641,0.125));
#359 = SURFACE_CURVE('',#360,(#365),.PCURVE_S1.);
#360 = CIRCLE('',#361,0.5);
#361 = AXIS2_PLACEMENT_3D('',#362,#363,#364);
#362 = CARTESIAN_POINT('',(0.5,0.5,0.125));
#363 = DIRECTION('',(0.,0.,1.));
#364 = DIRECTION('',(1.,0.,-0.));
#365 = PCURVE('',#366,#371);
#366 = PLANE('',#367);
#367 = AXIS2_PLACEMENT_3D('',#368,#369,#370);
#368 = CARTESIAN_POINT('',(0.499999985221,0.5,0.125));
#369 = DIRECTION('',(0.,0.,1.));
#370 = DIRECTION('',(1.,0.,-0.));
#371 = DEFINITIONAL_REPRESENTATION('',(#372),#376);
#372 = CIRCLE('',#373,0.5);
#373 = AXIS2_PLACEMENT_2D('',#374,#375);
#374 = CARTESIAN_POINT('',(1.477918648574E-08,-2.331468351713E-15));
#375 = DIRECTION('',(1.,0.));
#376 = ( GEOMETRIC_REPRESENTATION_CONTEXT(2) 
PARAMETRIC_REPRESENTATION_CONTEXT() REPRESENTATION_CONTEXT('2D SPACE',''
  ) );
#377 = FACE_BOUND('',#378,.F.);
#378 = EDGE_LOOP('',(#379));
#379 = ORIENTED_EDGE('',*,*,#380,.F.);
#380 = EDGE_CURVE('',#381,#381,#383,.T.);
#381 = VERTEX_POINT('',#382);
#382 = CARTESIAN_POINT('',(0.625,0.5,0.125));
#383 = SURFACE_CURVE('',#384,(#389),.PCURVE_S1.);
#384 = CIRCLE('',#385,0.125);
#385 = AXIS2_PLACEMENT_3D('',#386,#387,#388);
#386 = CARTESIAN_POINT('',(0.5,0.5,0.125));
#387 = DIRECTION('',(0.,0.,1.));
#388 = DIRECTION('',(1.,0.,-0.));
#389 = PCURVE('',#366,#390);
#390 = DEFINITIONAL_REPRESENTATION('',(#391),#395);
#391 = CIRCLE('',#392,0.125);
#392 = AXIS2_PLACEMENT_2D('',#393,#394);
#393 = CARTESIAN_POINT('',(1.477918648574E-08,-2.331468351713E-15));
#394 = DIRECTION('',(1.,0.));
#395 = ( GEOMETRIC_REPRESENTATION_CONTEXT(2) 
PARAMETRIC_REPRESENTATION_CONTEXT() REPRESENTATION_CONTEXT('2D SPACE',''
  ) );
#396 = ( GEOMETRIC_REPRESENTATION_CONTEXT(3) 
GLOBAL_UNCERTAINTY_ASSIGNED_CONTEXT((#400)) GLOBAL_UNIT_ASSIGNED_CONTEXT
((#397,#398,#399)) REPRESENTATION_CONTEXT('Context #1',
  '3D Context with UNIT and UNCERTAINTY') );
#397 = ( LENGTH_UNIT() NAMED_UNIT(*) SI_UNIT(.MILLI.,.METRE.) );
#398 = ( NAMED_UNIT(*) PLANE_ANGLE_UNIT() SI_UNIT($,.RADIAN.) );
#399 = ( NAMED_UNIT(*) SI_UNIT($,.STERADIAN.) SOLID_ANGLE_UNIT() );
#400 = UNCERTAINTY_MEASURE_WITH_UNIT(LENGTH_MEASURE(1.E-07),#397,
  'distance_accuracy_value','confusion accuracy');
#401 = CONTEXT_DEPENDENT_SHAPE_REPRESENTATION(#402,#404);
#402 = ( REPRESENTATION_RELATIONSHIP('','',#347,#10) 
REPRESENTATION_RELATIONSHIP_WITH_TRANSFORMATION(#403) 
SHAPE_REPRESENTATION_RELATIONSHIP() );
#403 = ITEM_DEFINED_TRANSFORMATION('','',#11,#27);
#404 = PRODUCT_DEFINITION_SHAPE('Placement','Placement of an item',#405
  );
#405 = NEXT_ASSEMBLY_USAGE_OCCURRENCE('4','','',#5,#342,$);
#406 = PRODUCT_RELATED_PRODUCT_CATEGORY('part',$,(#344));
#407 = SHAPE_DEFINITION_REPRESENTATION(#408,#414);
#408 = PRODUCT_DEFINITION_SHAPE('','',#409);
#409 = PRODUCT_DEFINITION('design','',#410,#413);
#410 = PRODUCT_DEFINITION_FORMATION('','',#411);
#411 = PRODUCT('Open CASCADE STEP translator 7.9 1.5',
  'Open CASCADE STEP translator 7.9 1.5','',(#412));
#412 = PRODUCT_CONTEXT('',#2,'mechanical');
#413 = PRODUCT_DEFINITION_CONTEXT('part definition',#2,'design');
#414 = MANIFOLD_SURFACE_SHAPE_REPRESENTATION('',(#11,#415),#496);
#415 = SHELL_BASED_SURFACE_MODEL('',(#416));
#416 = OPEN_SHELL('',(#417));
#417 = ADVANCED_FACE('',(#418),#431,.T.);
#418 = FACE_BOUND('',#419,.T.);
#419 = EDGE_LOOP('',(#420,#459,#477,#478));
#420 = ORIENTED_EDGE('',*,*,#421,.F.);
#421 = EDGE_CURVE('',#422,#424,#426,.T.);
#422 = VERTEX_POINT('',#423);
#423 = CARTESIAN_POINT('',(0.624999999918,0.5,0.12500000375));
#424 = VERTEX_POINT('',#425);
#425 = CARTESIAN_POINT('',(0.624999999918,0.5,4.166000017181E-09));
#426 = SEAM_CURVE('',#427,(#430,#452),.PCURVE_S1.);
#427 = B_SPLINE_CURVE_WITH_KNOTS('',1,(#428,#429),.UNSPECIFIED.,.F.,.F.,
  (2,2),(0.1875,0.3125),.PIECEWISE_BEZIER_KNOTS.);
#428 = CARTESIAN_POINT('',(0.624999999918,0.5,0.12500000375));
#429 = CARTESIAN_POINT('',(0.624999999918,0.5,4.166000017181E-09));
#430 = PCURVE('',#431,#446);
#431 = ( BOUNDED_SURFACE() B_SPLINE_SURFACE(2,1,(
    (#432,#433)
    ,(#434,#435)
    ,(#436,#437)
    ,(#438,#439)
    ,(#440,#441)
    ,(#442,#443)
,(#444,#445
    )),.UNSPECIFIED.,.T.,.F.,.F.) B_SPLINE_SURFACE_WITH_KNOTS((1,2,2,2,2
    ,1),(2,2),(-2.094395,0.,2.094395,4.18879,6.283185,8.37758),(0.1875,
0.3125),.UNSPECIFIED.) GEOMETRIC_REPRESENTATION_ITEM() 
RATIONAL_B_SPLINE_SURFACE((
    (1.,1.)
    ,(0.5,0.5)
    ,(1.,1.)
    ,(0.5,0.5)
    ,(1.,1.)
    ,(0.5,0.5)
,(1.,1.))) REPRESENTATION_ITEM('') SURFACE() );
#432 = CARTESIAN_POINT('',(0.624999999918,0.5,0.12500000375));
#433 = CARTESIAN_POINT('',(0.624999999918,0.5,4.166000017181E-09));
#434 = CARTESIAN_POINT('',(0.624999999918,0.283493649236,0.12500000375)
  );
#435 = CARTESIAN_POINT('',(0.624999999918,0.283493649236,
    4.166000017181E-09));
#436 = CARTESIAN_POINT('',(0.437500000041,0.391746824618,0.12500000375)
  );
#437 = CARTESIAN_POINT('',(0.437500000041,0.391746824618,
    4.166000017181E-09));
#438 = CARTESIAN_POINT('',(0.250000000164,0.5,0.12500000375));
#439 = CARTESIAN_POINT('',(0.250000000164,0.5,4.166000017181E-09));
#440 = CARTESIAN_POINT('',(0.437500000041,0.608253175382,0.12500000375)
  );
#441 = CARTESIAN_POINT('',(0.437500000041,0.608253175382,
    4.166000017181E-09));
#442 = CARTESIAN_POINT('',(0.624999999918,0.716506350764,0.12500000375)
  );
#443 = CARTESIAN_POINT('',(0.624999999918,0.716506350764,
    4.166000017181E-09));
#444 = CARTESIAN_POINT('',(0.624999999918,0.5,0.12500000375));
#445 = CARTESIAN_POINT('',(0.624999999918,0.5,4.166000017181E-09));
#446 = DEFINITIONAL_REPRESENTATION('',(#447),#451);
#447 = LINE('',#448,#449);
#448 = CARTESIAN_POINT('',(0.,0.));
#449 = VECTOR('',#450,1.);
#450 = DIRECTION('',(0.,1.));
#451 = ( GEOMETRIC_REPRESENTATION_CONTEXT(2) 
PARAMETRIC_REPRESENTATION_CONTEXT() REPRESENTATION_CONTEXT('2D SPACE',''
  ) );
#452 = PCURVE('',#431,#453);
#453 = DEFINITIONAL_REPRESENTATION('',(#454),#458);
#454 = LINE('',#455,#456);
#455 = CARTESIAN_POINT('',(6.283185,0.));
#456 = VECTOR('',#457,1.);
#457 = DIRECTION('',(0.,1.));
#458 = ( GEOMETRIC_REPRESENTATION_CONTEXT(2) 
PARAMETRIC_REPRESENTATION_CONTEXT() REPRESENTATION_CONTEXT('2D SPACE',''
  ) );
#459 = ORIENTED_EDGE('',*,*,#460,.T.);
#460 = EDGE_CURVE('',#422,#422,#461,.T.);
#461 = SURFACE_CURVE('',#462,(#470),.PCURVE_S1.);
#462 = ( BOUNDED_CURVE() B_SPLINE_CURVE(2,(#463,#464,#465,#466,#467,#468
,#469),.UNSPECIFIED.,.T.,.F.) B_SPLINE_CURVE_WITH_KNOTS((1,2,2,2,2,1),(
-2.094395,0.,2.094395,4.18879,6.283185,8.37758),.UNSPECIFIED.) CURVE() 
GEOMETRIC_REPRESENTATION_ITEM() RATIONAL_B_SPLINE_CURVE((1.,0.5,1.,0.5,
1.,0.5,1.)) REPRESENTATION_ITEM('') );
#463 = CARTESIAN_POINT('',(0.624999999918,0.5,0.12500000375));
#464 = CARTESIAN_POINT('',(0.624999999918,0.283493649236,0.12500000375)
  );
#465 = CARTESIAN_POINT('',(0.437500000041,0.391746824618,0.12500000375)
  );
#466 = CARTESIAN_POINT('',(0.250000000164,0.5,0.12500000375));
#467 = CARTESIAN_POINT('',(0.437500000041,0.608253175382,0.12500000375)
  );
#468 = CARTESIAN_POINT('',(0.624999999918,0.716506350764,0.12500000375)
  );
#469 = CARTESIAN_POINT('',(0.624999999918,0.5,0.12500000375));
#470 = PCURVE('',#431,#471);
#471 = DEFINITIONAL_REPRESENTATION('',(#472),#476);
#472 = LINE('',#473,#474);
#473 = CARTESIAN_POINT('',(0.,0.1875));
#474 = VECTOR('',#475,1.);
#475 = DIRECTION('',(1.,0.));
#476 = ( GEOMETRIC_REPRESENTATION_CONTEXT(2) 
PARAMETRIC_REPRESENTATION_CONTEXT() REPRESENTATION_CONTEXT('2D SPACE',''
  ) );
#477 = ORIENTED_EDGE('',*,*,#421,.T.);
#478 = ORIENTED_EDGE('',*,*,#479,.F.);
#479 = EDGE_CURVE('',#424,#424,#480,.T.);
#480 = SURFACE_CURVE('',#481,(#489),.PCURVE_S1.);
#481 = ( BOUNDED_CURVE() B_SPLINE_CURVE(2,(#482,#483,#484,#485,#486,#487
,#488),.UNSPECIFIED.,.T.,.F.) B_SPLINE_CURVE_WITH_KNOTS((1,2,2,2,2,1),(
-2.094395,0.,2.094395,4.18879,6.283185,8.37758),.UNSPECIFIED.) CURVE() 
GEOMETRIC_REPRESENTATION_ITEM() RATIONAL_B_SPLINE_CURVE((1.,0.5,1.,0.5,
1.,0.5,1.)) REPRESENTATION_ITEM('') );
#482 = CARTESIAN_POINT('',(0.624999999918,0.5,4.166000017181E-09));
#483 = CARTESIAN_POINT('',(0.624999999918,0.283493649236,
    4.166000017181E-09));
#484 = CARTESIAN_POINT('',(0.437500000041,0.391746824618,
    4.166000017181E-09));
#485 = CARTESIAN_POINT('',(0.250000000164,0.5,4.166000017181E-09));
#486 = CARTESIAN_POINT('',(0.437500000041,0.608253175382,
    4.166000017181E-09));
#487 = CARTESIAN_POINT('',(0.624999999918,0.716506350764,
    4.166000017181E-09));
#488 = CARTESIAN_POINT('',(0.624999999918,0.5,4.166000017181E-09));
#489 = PCURVE('',#431,#490);
#490 = DEFINITIONAL_REPRESENTATION('',(#491),#495);
#491 = LINE('',#492,#493);
#492 = CARTESIAN_POINT('',(0.,0.3125));
#493 = VECTOR('',#494,1.);
#494 = DIRECTION('',(1.,0.));
#495 = ( GEOMETRIC_REPRESENTATION_CONTEXT(2) 
PARAMETRIC_REPRESENTATION_CONTEXT() REPRESENTATION_CONTEXT('2D SPACE',''
  ) );
#496 = ( GEOMETRIC_REPRESENTATION_CONTEXT(3) 
GLOBAL_UNCERTAINTY_ASSIGNED_CONTEXT((#500)) GLOBAL_UNIT_ASSIGNED_CONTEXT
((#497,#498,#499)) REPRESENTATION_CONTEXT('Context #1',
  '3D Context with UNIT and UNCERTAINTY') );
#497 = ( LENGTH_UNIT() NAMED_UNIT(*) SI_UNIT(.MILLI.,.METRE.) );
#498 = ( NAMED_UNIT(*) PLANE_ANGLE_UNIT() SI_UNIT($,.RADIAN.) );
#499 = ( NAMED_UNIT(*) SI_UNIT($,.STERADIAN.) SOLID_ANGLE_UNIT() );
#500 = UNCERTAINTY_MEASURE_WITH_UNIT(LENGTH_MEASURE(1.E-07),#497,
  'distance_accuracy_value','confusion accuracy');
#501 = CONTEXT_DEPENDENT_SHAPE_REPRESENTATION(#502,#504);
#502 = ( REPRESENTATION_RELATIONSHIP('','',#414,#10) 
REPRESENTATION_RELATIONSHIP_WITH_TRANSFORMATION(#503) 
SHAPE_REPRESENTATION_RELATIONSHIP() );
#503 = ITEM_DEFINED_TRANSFORMATION('','',#11,#31);
#504 = PRODUCT_DEFINITION_SHAPE('Placement','Placement of an item',#505
  );
#505 = NEXT_ASSEMBLY_USAGE_OCCURRENCE('5','','',#5,#409,$);
#506 = PRODUCT_RELATED_PRODUCT_CATEGORY('part',$,(#411));
#507 = SHAPE_DEFINITION_REPRESENTATION(#508,#514);
#508 = PRODUCT_DEFINITION_SHAPE('','',#509);
#509 = PRODUCT_DEFINITION('design','',#510,#513);
#510 = PRODUCT_DEFINITION_FORMATION('','',#511);
#511 = PRODUCT('Open CASCADE STEP translator 7.9 1.6',
  'Open CASCADE STEP translator 7.9 1.6','',(#512));
#512 = PRODUCT_CONTEXT('',#2,'mechanical');
#513 = PRODUCT_DEFINITION_CONTEXT('part definition',#2,'design');
#514 = MANIFOLD_SURFACE_SHAPE_REPRESENTATION('',(#11,#515),#563);
#515 = SHELL_BASED_SURFACE_MODEL('',(#516));
#516 = OPEN_SHELL('',(#517));
#517 = ADVANCED_FACE('',(#518,#544),#533,.T.);
#518 = FACE_BOUND('',#519,.T.);
#519 = EDGE_LOOP('',(#520));
#520 = ORIENTED_EDGE('',*,*,#521,.T.);
#521 = EDGE_CURVE('',#522,#524,#526,.T.);
#522 = VERTEX_POINT('',#523);
#523 = CARTESIAN_POINT('',(1.,0.5,1.));
#524 = VERTEX_POINT('',#525);
#525 = CARTESIAN_POINT('',(1.,0.49999984641,1.));
#526 = SURFACE_CURVE('',#527,(#532),.PCURVE_S1.);
#527 = CIRCLE('',#528,0.5);
#528 = AXIS2_PLACEMENT_3D('',#529,#530,#531);
#529 = CARTESIAN_POINT('',(0.5,0.5,1.));
#530 = DIRECTION('',(0.,0.,1.));
#531 = DIRECTION('',(1.,0.,-0.));
#532 = PCURVE('',#533,#538);
#533 = PLANE('',#534);
#534 = AXIS2_PLACEMENT_3D('',#535,#536,#537);
#535 = CARTESIAN_POINT('',(0.499999985221,0.5,1.));
#536 = DIRECTION('',(0.,0.,1.));
#537 = DIRECTION('',(1.,0.,-0.));
#538 = DEFINITIONAL_REPRESENTATION('',(#539),#543);
#539 = CIRCLE('',#540,0.5);
#540 = AXIS2_PLACEMENT_2D('',#541,#542);
#541 = CARTESIAN_POINT('',(1.477918648574E-08,-2.331468351713E-15));
#542 = DIRECTION('',(1.,0.));
#543 = ( GEOMETRIC_REPRESENTATION_CONTEXT(2) 
PARAMETRIC_REPRESENTATION_CONTEXT() REPRESENTATION_CONTEXT('2D SPACE',''
  ) );
#544 = FACE_BOUND('',#545,.F.);
#545 = EDGE_LOOP('',(#546));
#546 = ORIENTED_EDGE('',*,*,#547,.F.);
#547 = EDGE_CURVE('',#548,#548,#550,.T.);
#548 = VERTEX_POINT('',#549);
#549 = CARTESIAN_POINT('',(0.625,0.5,1.));
#550 = SURFACE_CURVE('',#551,(#556),.PCURVE_S1.);
#551 = CIRCLE('',#552,0.125);
#552 = AXIS2_PLACEMENT_3D('',#553,#554,#555);
#553 = CARTESIAN_POINT('',(0.5,0.5,1.));
#554 = DIRECTION('',(0.,0.,1.));
#555 = DIRECTION('',(1.,0.,-0.));
#556 = PCURVE('',#533,#557);
#557 = DEFINITIONAL_REPRESENTATION('',(#558),#562);
#558 = CIRCLE('',#559,0.125);
#559 = AXIS2_PLACEMENT_2D('',#560,#561);
#560 = CARTESIAN_POINT('',(1.477918648574E-08,-2.331468351713E-15));
#561 = DIRECTION('',(1.,0.));
#562 = ( GEOMETRIC_REPRESENTATION_CONTEXT(2) 
PARAMETRIC_REPRESENTATION_CONTEXT() REPRESENTATION_CONTEXT('2D SPACE',''
  ) );
#563 = ( GEOMETRIC_REPRESENTATION_CONTEXT(3) 
GLOBAL_UNCERTAINTY_ASSIGNED_CONTEXT((#567)) GLOBAL_UNIT_ASSIGNED_CONTEXT
((#564,#565,#566)) REPRESENTATION_CONTEXT('Context #1',
  '3D Context with UNIT and UNCERTAINTY') );
#564 = ( LENGTH_UNIT() NAMED_UNIT(*) SI_UNIT(.MILLI.,.METRE.) );
#565 = ( NAMED_UNIT(*) PLANE_ANGLE_UNIT() SI_UNIT($,.RADIAN.) );
#566 = ( NAMED_UNIT(*) SI_UNIT($,.STERADIAN.) SOLID_ANGLE_UNIT() );
#567 = UNCERTAINTY_MEASURE_WITH_UNIT(LENGTH_MEASURE(1.E-07),#564,
  'distance_accuracy_value','confusion accuracy');
#568 = CONTEXT_DEPENDENT_SHAPE_REPRESENTATION(#569,#571);
#569 = ( REPRESENTATION_RELATIONSHIP('','',#514,#10) 
REPRESENTATION_RELATIONSHIP_WITH_TRANSFORMATION(#570) 
SHAPE_REPRESENTATION_RELATIONSHIP() );
#570 = ITEM_DEFINED_TRANSFORMATION('','',#11,#35);
#571 = PRODUCT_DEFINITION_SHAPE('Placement','Placement of an item',#572
  );
#572 = NEXT_ASSEMBLY_USAGE_OCCURRENCE('6','','',#5,#509,$);
#573 = PRODUCT_RELATED_PRODUCT_CATEGORY('part',$,(#511));
#574 = SHAPE_DEFINITION_REPRESENTATION(#575,#581);
#575 = PRODUCT_DEFINITION_SHAPE('','',#576);
#576 = PRODUCT_DEFINITION('design','',#577,#580);
#577 = PRODUCT_DEFINITION_FORMATION('','',#578);
#578 = PRODUCT('Open CASCADE STEP translator 7.9 1.7',
  'Open CASCADE STEP translator 7.9 1.7','',(#579));
#579 = PRODUCT_CONTEXT('',#2,'mechanical');
#580 = PRODUCT_DEFINITION_CONTEXT('part definition',#2,'design');
#581 = MANIFOLD_SURFACE_SHAPE_REPRESENTATION('',(#11,#582),#671);
#582 = SHELL_BASED_SURFACE_MODEL('',(#583));
#583 = OPEN_SHELL('',(#584));
#584 = ADVANCED_FACE('',(#585),#598,.T.);
#585 = FACE_BOUND('',#586,.T.);
#586 = EDGE_LOOP('',(#587,#630,#650,#651));
#587 = ORIENTED_EDGE('',*,*,#588,.F.);
#588 = EDGE_CURVE('',#589,#591,#593,.T.);
#589 = VERTEX_POINT('',#590);
#590 = CARTESIAN_POINT('',(0.999999999584,0.5,0.999999999584));
#591 = VERTEX_POINT('',#592);
#592 = CARTESIAN_POINT('',(0.999999999584,0.5,0.875));
#593 = SEAM_CURVE('',#594,(#597,#623),.PCURVE_S1.);
#594 = B_SPLINE_CURVE_WITH_KNOTS('',1,(#595,#596),.UNSPECIFIED.,.F.,.F.,
  (2,2),(-0.125,0.),.PIECEWISE_BEZIER_KNOTS.);
#595 = CARTESIAN_POINT('',(0.999999999584,0.5,0.999999999584));
#596 = CARTESIAN_POINT('',(0.999999999584,0.5,0.875));
#597 = PCURVE('',#598,#617);
#598 = ( BOUNDED_SURFACE() B_SPLINE_SURFACE(2,1,(
    (#599,#600)
    ,(#601,#602)
    ,(#603,#604)
    ,(#605,#606)
    ,(#607,#608)
    ,(#609,#610)
    ,(#611,#612)
    ,(#613,#614)
,(#615,#616
    )),.UNSPECIFIED.,.T.,.F.,.F.) B_SPLINE_SURFACE_WITH_KNOTS((3,2,2,2,3
    ),(2,2),(3.141593,4.18879,6.283185,8.37758,9.424778),(-0.125,0.),
.UNSPECIFIED.) GEOMETRIC_REPRESENTATION_ITEM() RATIONAL_B_SPLINE_SURFACE
((
    (0.75,0.75)
    ,(0.75,0.75)
    ,(1.,1.)
    ,(0.5,0.5)
    ,(1.,1.)
    ,(0.5,0.5)
    ,(1.,1.)
    ,(0.75,0.75)
,(0.75,0.75))) REPRESENTATION_ITEM('') SURFACE() );
#599 = CARTESIAN_POINT('',(0.999999999584,0.5,0.999999999584));
#600 = CARTESIAN_POINT('',(0.999999999584,0.5,0.875));
#601 = CARTESIAN_POINT('',(0.999999999584,0.788675134027,0.999999999584)
  );
#602 = CARTESIAN_POINT('',(0.999999999584,0.788675134027,0.875));
#603 = CARTESIAN_POINT('',(0.750000000001,0.93301270104,0.999999999584)
  );
#604 = CARTESIAN_POINT('',(0.750000000001,0.93301270104,0.875));
#605 = CARTESIAN_POINT('',(1.250000658537E-09,1.36602540208,
    0.999999999584));
#606 = CARTESIAN_POINT('',(1.250000658537E-09,1.36602540208,0.875));
#607 = CARTESIAN_POINT('',(1.249999992403E-09,0.5,0.999999999584));
#608 = CARTESIAN_POINT('',(1.249999992403E-09,0.5,0.875));
#609 = CARTESIAN_POINT('',(1.249999992403E-09,-0.36602540208,
    0.999999999584));
#610 = CARTESIAN_POINT('',(1.249999992403E-09,-0.36602540208,0.875));
#611 = CARTESIAN_POINT('',(0.75,6.698729895995E-02,0.999999999584));
#612 = CARTESIAN_POINT('',(0.75,6.698729895995E-02,0.875));
#613 = CARTESIAN_POINT('',(0.999999999584,0.211324865973,0.999999999584)
  );
#614 = CARTESIAN_POINT('',(0.999999999584,0.211324865973,0.875));
#615 = CARTESIAN_POINT('',(0.999999999584,0.5,0.999999999584));
#616 = CARTESIAN_POINT('',(0.999999999584,0.5,0.875));
#617 = DEFINITIONAL_REPRESENTATION('',(#618),#622);
#618 = LINE('',#619,#620);
#619 = CARTESIAN_POINT('',(3.141593,0.));
#620 = VECTOR('',#621,1.);
#621 = DIRECTION('',(0.,1.));
#622 = ( GEOMETRIC_REPRESENTATION_CONTEXT(2) 
PARAMETRIC_REPRESENTATION_CONTEXT() REPRESENTATION_CONTEXT('2D SPACE',''
  ) );
#623 = PCURVE('',#598,#624);
#624 = DEFINITIONAL_REPRESENTATION('',(#625),#629);
#625 = LINE('',#626,#627);
#626 = CARTESIAN_POINT('',(9.424778,0.));
#627 = VECTOR('',#628,1.);
#628 = DIRECTION('',(0.,1.));
#629 = ( GEOMETRIC_REPRESENTATION_CONTEXT(2) 
PARAMETRIC_REPRESENTATION_CONTEXT() REPRESENTATION_CONTEXT('2D SPACE',''
  ) );
#630 = ORIENTED_EDGE('',*,*,#631,.T.);
#631 = EDGE_CURVE('',#589,#589,#632,.T.);
#632 = SURFACE_CURVE('',#633,(#643),.PCURVE_S1.);
#633 = ( BOUNDED_CURVE() B_SPLINE_CURVE(2,(#634,#635,#636,#637,#638,#639
,#640,#641,#642),.UNSPECIFIED.,.T.,.F.) B_SPLINE_CURVE_WITH_KNOTS((3,2,2
    ,2,3),(3.141593,4.18879,6.283185,8.37758,9.424778),.UNSPECIFIED.) 
CURVE() GEOMETRIC_REPRESENTATION_ITEM() RATIONAL_B_SPLINE_CURVE((0.75,
0.75,1.,0.5,1.,0.5,1.,0.75,0.75)) REPRESENTATION_ITEM('') );
#634 = CARTESIAN_POINT('',(0.999999999584,0.5,0.999999999584));
#635 = CARTESIAN_POINT('',(0.999999999584,0.788675134027,0.999999999584)
  );
#636 = CARTESIAN_POINT('',(0.750000000001,0.93301270104,0.999999999584)
  );
#637 = CARTESIAN_POINT('',(1.250000658537E-09,1.36602540208,
    0.999999999584));
#638 = CARTESIAN_POINT('',(1.249999992403E-09,0.5,0.999999999584));
#639 = CARTESIAN_POINT('',(1.249999992403E-09,-0.36602540208,
    0.999999999584));
#640 = CARTESIAN_POINT('',(0.75,6.698729895995E-02,0.999999999584));
#641 = CARTESIAN_POINT('',(0.999999999584,0.211324865973,0.999999999584)
  );
#642 = CARTESIAN_POINT('',(0.999999999584,0.5,0.999999999584));
#643 = PCURVE('',#598,#644);
#644 = DEFINITIONAL_REPRESENTATION('',(#645),#649);
#645 = LINE('',#646,#647);
#646 = CARTESIAN_POINT('',(0.,-0.125));
#647 = VECTOR('',#648,1.);
#648 = DIRECTION('',(1.,0.));
#649 = ( GEOMETRIC_REPRESENTATION_CONTEXT(2) 
PARAMETRIC_REPRESENTATION_CONTEXT() REPRESENTATION_CONTEXT('2D SPACE',''
  ) );
#650 = ORIENTED_EDGE('',*,*,#588,.T.);
#651 = ORIENTED_EDGE('',*,*,#652,.F.);
#652 = EDGE_CURVE('',#591,#591,#653,.T.);
#653 = SURFACE_CURVE('',#654,(#664),.PCURVE_S1.);
#654 = ( BOUNDED_CURVE() B_SPLINE_CURVE(2,(#655,#656,#657,#658,#659,#660
,#661,#662,#663),.UNSPECIFIED.,.T.,.F.) B_SPLINE_CURVE_WITH_KNOTS((3,2,2
    ,2,3),(3.141593,4.18879,6.283185,8.37758,9.424778),.UNSPECIFIED.) 
CURVE() GEOMETRIC_REPRESENTATION_ITEM() RATIONAL_B_SPLINE_CURVE((0.75,
0.75,1.,0.5,1.,0.5,1.,0.75,0.75)) REPRESENTATION_ITEM('') );
#655 = CARTESIAN_POINT('',(0.999999999584,0.5,0.875));
#656 = CARTESIAN_POINT('',(0.999999999584,0.788675134027,0.875));
#657 = CARTESIAN_POINT('',(0.750000000001,0.93301270104,0.875));
#658 = CARTESIAN_POINT('',(1.250000658537E-09,1.36602540208,0.875));
#659 = CARTESIAN_POINT('',(1.249999992403E-09,0.5,0.875));
#660 = CARTESIAN_POINT('',(1.249999992403E-09,-0.36602540208,0.875));
#661 = CARTESIAN_POINT('',(0.75,6.698729895995E-02,0.875));
#662 = CARTESIAN_POINT('',(0.999999999584,0.211324865973,0.875));
#663 = CARTESIAN_POINT('',(0.999999999584,0.5,0.875));
#664 = PCURVE('',#598,#665);
#665 = DEFINITIONAL_REPRESENTATION('',(#666),#670);
#666 = LINE('',#667,#668);
#667 = CARTESIAN_POINT('',(0.,0.));
#668 = VECTOR('',#669,1.);
#669 = DIRECTION('',(1.,0.));
#670 = ( GEOMETRIC_REPRESENTATION_CONTEXT(2) 
PARAMETRIC_REPRESENTATION_CONTEXT() REPRESENTATION_CONTEXT('2D SPACE',''
  ) );
#671 = ( GEOMETRIC_REPRESENTATION_CONTEXT(3) 
GLOBAL_UNCERTAINTY_ASSIGNED_CONTEXT((#675)) GLOBAL_UNIT_ASSIGNED_CONTEXT
((#672,#673,#674)) REPRESENTATION_CONTEXT('Context #1',
  '3D Context with UNIT and UNCERTAINTY') );
#672 = ( LENGTH_UNIT() NAMED_UNIT(*) SI_UNIT(.MILLI.,.METRE.) );
#673 = ( NAMED_UNIT(*) PLANE_ANGLE_UNIT() SI_UNIT($,.RADIAN.) );
#674 = ( NAMED_UNIT(*) SI_UNIT($,.STERADIAN.) SOLID_ANGLE_UNIT() );
#675 = UNCERTAINTY_MEASURE_WITH_UNIT(LENGTH_MEASURE(1.E-07),#672,
  'distance_accuracy_value','confusion accuracy');
#676 = CONTEXT_DEPENDENT_SHAPE_REPRESENTATION(#677,#679);
#677 = ( REPRESENTATION_RELATIONSHIP('','',#581,#10) 
REPRESENTATION_RELATIONSHIP_WITH_TRANSFORMATION(#678) 
SHAPE_REPRESENTATION_RELATIONSHIP() );
#678 = ITEM_DEFINED_TRANSFORMATION('','',#11,#39);
#679 = PRODUCT_DEFINITION_SHAPE('Placement','Placement of an item',#680
  );
#680 = NEXT_ASSEMBLY_USAGE_OCCURRENCE('7','','',#5,#576,$);
#681 = PRODUCT_RELATED_PRODUCT_CATEGORY('part',$,(#578));
#682 = SHAPE_DEFINITION_REPRESENTATION(#683,#689);
#683 = PRODUCT_DEFINITION_SHAPE('','',#684);
#684 = PRODUCT_DEFINITION('design','',#685,#688);
#685 = PRODUCT_DEFINITION_FORMATION('','',#686);
#686 = PRODUCT('Open CASCADE STEP translator 7.9 1.8',
  'Open CASCADE STEP translator 7.9 1.8','',(#687));
#687 = PRODUCT_CONTEXT('',#2,'mechanical');
#688 = PRODUCT_DEFINITION_CONTEXT('part definition',#2,'design');
#689 = MANIFOLD_SURFACE_SHAPE_REPRESENTATION('',(#11,#690),#717);
#690 = SHELL_BASED_SURFACE_MODEL('',(#691));
#691 = OPEN_SHELL('',(#692));
#692 = ADVANCED_FACE('',(#693),#706,.T.);
#693 = FACE_BOUND('',#694,.T.);
#694 = EDGE_LOOP('',(#695));
#695 = ORIENTED_EDGE('',*,*,#696,.T.);
#696 = EDGE_CURVE('',#697,#697,#699,.T.);
#697 = VERTEX_POINT('',#698);
#698 = CARTESIAN_POINT('',(0.625,0.5,0.875));
#699 = SURFACE_CURVE('',#700,(#705),.PCURVE_S1.);
#700 = CIRCLE('',#701,0.125);
#701 = AXIS2_PLACEMENT_3D('',#702,#703,#704);
#702 = CARTESIAN_POINT('',(0.5,0.5,0.875));
#703 = DIRECTION('',(0.,0.,1.));
#704 = DIRECTION('',(1.,0.,-0.));
#705 = PCURVE('',#706,#711);
#706 = PLANE('',#707);
#707 = AXIS2_PLACEMENT_3D('',#708,#709,#710);
#708 = CARTESIAN_POINT('',(0.499999996305,0.5,0.875));
#709 = DIRECTION('',(0.,0.,1.));
#710 = DIRECTION('',(1.,0.,-0.));
#711 = DEFINITIONAL_REPRESENTATION('',(#712),#716);
#712 = CIRCLE('',#713,0.125);
#713 = AXIS2_PLACEMENT_2D('',#714,#715);
#714 = CARTESIAN_POINT('',(3.694796690823E-09,-5.551115123126E-16));
#715 = DIRECTION('',(1.,0.));
#716 = ( GEOMETRIC_REPRESENTATION_CONTEXT(2) 
PARAMETRIC_REPRESENTATION_CONTEXT() REPRESENTATION_CONTEXT('2D SPACE',''
  ) );
#717 = ( GEOMETRIC_REPRESENTATION_CONTEXT(3) 
GLOBAL_UNCERTAINTY_ASSIGNED_CONTEXT((#721)) GLOBAL_UNIT_ASSIGNED_CONTEXT
((#718,#719,#720)) REPRESENTATION_CONTEXT('Context #1',
  '3D Context with UNIT and UNCERTAINTY') );
#718 = ( LENGTH_UNIT() NAMED_UNIT(*) SI_UNIT(.MILLI.,.METRE.) );
#719 = ( NAMED_UNIT(*) PLANE_ANGLE_UNIT() SI_UNIT($,.RADIAN.) );
#720 = ( NAMED_UNIT(*) SI_UNIT($,.STERADIAN.) SOLID_ANGLE_UNIT() );
#721 = UNCERTAINTY_MEASURE_WITH_UNIT(LENGTH_MEASURE(1.E-07),#718,
  'distance_accuracy_value','confusion accuracy');
#722 = CONTEXT_DEPENDENT_SHAPE_REPRESENTATION(#723,#725);
#723 = ( REPRESENTATION_RELATIONSHIP('','',#689,#10) 
REPRESENTATION_RELATIONSHIP_WITH_TRANSFORMATION(#724) 
SHAPE_REPRESENTATION_RELATIONSHIP() );
#724 = ITEM_DEFINED_TRANSFORMATION('','',#11,#43);
#725 = PRODUCT_DEFINITION_SHAPE('Placement','Placement of an item',#726
  );
#726 = NEXT_ASSEMBLY_USAGE_OCCURRENCE('8','','',#5,#684,$);
#727 = PRODUCT_RELATED_PRODUCT_CATEGORY('part',$,(#686));
#728 = SHAPE_DEFINITION_REPRESENTATION(#729,#735);
#729 = PRODUCT_DEFINITION_SHAPE('','',#730);
#730 = PRODUCT_DEFINITION('design','',#731,#734);
#731 = PRODUCT_DEFINITION_FORMATION('','',#732);
#732 = PRODUCT('Open CASCADE STEP translator 7.9 1.9',
  'Open CASCADE STEP translator 7.9 1.9','',(#733));
#733 = PRODUCT_CONTEXT('',#2,'mechanical');
#734 = PRODUCT_DEFINITION_CONTEXT('part definition',#2,'design');
#735 = MANIFOLD_SURFACE_SHAPE_REPRESENTATION('',(#11,#736),#767);
#736 = SHELL_BASED_SURFACE_MODEL('',(#737));
#737 = OPEN_SHELL('',(#738));
#738 = ADVANCED_FACE('',(#739),#752,.T.);
#739 = FACE_BOUND('',#740,.T.);
#740 = EDGE_LOOP('',(#741));
#741 = ORIENTED_EDGE('',*,*,#742,.F.);
#742 = EDGE_CURVE('',#743,#743,#745,.T.);
#743 = VERTEX_POINT('',#744);
#744 = CARTESIAN_POINT('',(0.625,0.5,0.125));
#745 = SURFACE_CURVE('',#746,(#751),.PCURVE_S1.);
#746 = CIRCLE('',#747,0.125);
#747 = AXIS2_PLACEMENT_3D('',#748,#749,#750);
#748 = CARTESIAN_POINT('',(0.5,0.5,0.125));
#749 = DIRECTION('',(0.,0.,1.));
#750 = DIRECTION('',(1.,0.,-0.));
#751 = PCURVE('',#752,#757);
#752 = PLANE('',#753);
#753 = AXIS2_PLACEMENT_3D('',#754,#755,#756);
#754 = CARTESIAN_POINT('',(0.499999996305,0.5,0.125));
#755 = DIRECTION('',(-0.,-0.,-1.));
#756 = DIRECTION('',(-1.,0.,0.));
#757 = DEFINITIONAL_REPRESENTATION('',(#758),#766);
#758 = ( BOUNDED_CURVE() B_SPLINE_CURVE(2,(#759,#760,#761,#762,#763,#764
,#765),.UNSPECIFIED.,.T.,.F.) B_SPLINE_CURVE_WITH_KNOTS((1,2,2,2,2,1),(
    -2.094395102393,0.,2.094395102393,4.188790204786,6.28318530718,
8.377580409573),.UNSPECIFIED.) CURVE() GEOMETRIC_REPRESENTATION_ITEM() 
RATIONAL_B_SPLINE_CURVE((1.,0.5,1.,0.5,1.,0.5,1.)) REPRESENTATION_ITEM(
  '') );
#759 = CARTESIAN_POINT('',(-0.125000003695,-5.551115123126E-16));
#760 = CARTESIAN_POINT('',(-0.125000003695,0.216506350946));
#761 = CARTESIAN_POINT('',(6.24999963052E-02,0.108253175473));
#762 = CARTESIAN_POINT('',(0.249999996305,-5.244953423339E-16));
#763 = CARTESIAN_POINT('',(6.24999963052E-02,-0.108253175473));
#764 = CARTESIAN_POINT('',(-0.125000003695,-0.216506350946));
#765 = CARTESIAN_POINT('',(-0.125000003695,-5.551115123126E-16));
#766 = ( GEOMETRIC_REPRESENTATION_CONTEXT(2) 
PARAMETRIC_REPRESENTATION_CONTEXT() REPRESENTATION_CONTEXT('2D SPACE',''
  ) );
#767 = ( GEOMETRIC_REPRESENTATION_CONTEXT(3) 
GLOBAL_UNCERTAINTY_ASSIGNED_CONTEXT((#771)) GLOBAL_UNIT_ASSIGNED_CONTEXT
((#768,#769,#770)) REPRESENTATION_CONTEXT('Context #1',
  '3D Context with UNIT and UNCERTAINTY') );
#768 = ( LENGTH_UNIT() NAMED_UNIT(*) SI_UNIT(.MILLI.,.METRE.) );
#769 = ( NAMED_UNIT(*) PLANE_ANGLE_UNIT() SI_UNIT($,.RADIAN.) );
#770 = ( NAMED_UNIT(*) SI_UNIT($,.STERADIAN.) SOLID_ANGLE_UNIT() );
#771 = UNCERTAINTY_MEASURE_WITH_UNIT(LENGTH_MEASURE(1.E-07),#768,
  'distance_accuracy_value','confusion accuracy');
#772 = CONTEXT_DEPENDENT_SHAPE_REPRESENTATION(#773,#775);
#773 = ( REPRESENTATION_RELATIONSHIP('','',#735,#10) 
REPRESENTATION_RELATIONSHIP_WITH_TRANSFORMATION(#774) 
SHAPE_REPRESENTATION_RELATIONSHIP() );
#774 = ITEM_DEFINED_TRANSFORMATION('','',#11,#47);
#775 = PRODUCT_DEFINITION_SHAPE('Placement','Placement of an item',#776
  );
#776 = NEXT_ASSEMBLY_USAGE_OCCURRENCE('9','','',#5,#730,$);
#777 = PRODUCT_RELATED_PRODUCT_CATEGORY('part',$,(#732));
#778 = SHAPE_DEFINITION_REPRESENTATION(#779,#785);
#779 = PRODUCT_DEFINITION_SHAPE('','',#780);
#780 = PRODUCT_DEFINITION('design','',#781,#784);
#781 = PRODUCT_DEFINITION_FORMATION('','',#782);
#782 = PRODUCT('Open CASCADE STEP translator 7.9 1.10',
  'Open CASCADE STEP translator 7.9 1.10','',(#783));
#783 = PRODUCT_CONTEXT('',#2,'mechanical');
#784 = PRODUCT_DEFINITION_CONTEXT('part definition',#2,'design');
#785 = MANIFOLD_SURFACE_SHAPE_REPRESENTATION('',(#11,#786),#867);
#786 = SHELL_BASED_SURFACE_MODEL('',(#787));
#787 = OPEN_SHELL('',(#788));
#788 = ADVANCED_FACE('',(#789),#802,.T.);
#789 = FACE_BOUND('',#790,.T.);
#790 = EDGE_LOOP('',(#791,#830,#848,#849));
#791 = ORIENTED_EDGE('',*,*,#792,.F.);
#792 = EDGE_CURVE('',#793,#795,#797,.T.);
#793 = VERTEX_POINT('',#794);
#794 = CARTESIAN_POINT('',(0.624999999918,0.5,0.999999999584));
#795 = VERTEX_POINT('',#796);
#796 = CARTESIAN_POINT('',(0.624999999918,0.5,0.875));
#797 = SEAM_CURVE('',#798,(#801,#823),.PCURVE_S1.);
#798 = B_SPLINE_CURVE_WITH_KNOTS('',1,(#799,#800),.UNSPECIFIED.,.F.,.F.,
  (2,2),(-0.125,0.),.PIECEWISE_BEZIER_KNOTS.);
#799 = CARTESIAN_POINT('',(0.624999999918,0.5,0.999999999584));
#800 = CARTESIAN_POINT('',(0.624999999918,0.5,0.875));
#801 = PCURVE('',#802,#817);
#802 = ( BOUNDED_SURFACE() B_SPLINE_SURFACE(2,1,(
    (#803,#804)
    ,(#805,#806)
    ,(#807,#808)
    ,(#809,#810)
    ,(#811,#812)
    ,(#813,#814)
,(#815,#816
    )),.UNSPECIFIED.,.T.,.F.,.F.) B_SPLINE_SURFACE_WITH_KNOTS((1,2,2,2,2
    ,1),(2,2),(-2.094395,0.,2.094395,4.18879,6.283185,8.37758),(-0.125,
0.),.UNSPECIFIED.) GEOMETRIC_REPRESENTATION_ITEM() 
RATIONAL_B_SPLINE_SURFACE((
    (1.,1.)
    ,(0.5,0.5)
    ,(1.,1.)
    ,(0.5,0.5)
    ,(1.,1.)
    ,(0.5,0.5)
,(1.,1.))) REPRESENTATION_ITEM('') SURFACE() );
#803 = CARTESIAN_POINT('',(0.624999999918,0.5,0.999999999584));
#804 = CARTESIAN_POINT('',(0.624999999918,0.5,0.875));
#805 = CARTESIAN_POINT('',(0.624999999918,0.283493649236,0.999999999584)
  );
#806 = CARTESIAN_POINT('',(0.624999999918,0.283493649236,0.875));
#807 = CARTESIAN_POINT('',(0.437500000041,0.391746824618,0.999999999584)
  );
#808 = CARTESIAN_POINT('',(0.437500000041,0.391746824618,0.875));
#809 = CARTESIAN_POINT('',(0.250000000164,0.5,0.999999999584));
#810 = CARTESIAN_POINT('',(0.250000000164,0.5,0.875));
#811 = CARTESIAN_POINT('',(0.437500000041,0.608253175382,0.999999999584)
  );
#812 = CARTESIAN_POINT('',(0.437500000041,0.608253175382,0.875));
#813 = CARTESIAN_POINT('',(0.624999999918,0.716506350764,0.999999999584)
  );
#814 = CARTESIAN_POINT('',(0.624999999918,0.716506350764,0.875));
#815 = CARTESIAN_POINT('',(0.624999999918,0.5,0.999999999584));
#816 = CARTESIAN_POINT('',(0.624999999918,0.5,0.875));
#817 = DEFINITIONAL_REPRESENTATION('',(#818),#822);
#818 = LINE('',#819,#820);
#819 = CARTESIAN_POINT('',(0.,0.));
#820 = VECTOR('',#821,1.);
#821 = DIRECTION('',(0.,1.));
#822 = ( GEOMETRIC_REPRESENTATION_CONTEXT(2) 
PARAMETRIC_REPRESENTATION_CONTEXT() REPRESENTATION_CONTEXT('2D SPACE',''
  ) );
#823 = PCURVE('',#802,#824);
#824 = DEFINITIONAL_REPRESENTATION('',(#825),#829);
#825 = LINE('',#826,#827);
#826 = CARTESIAN_POINT('',(6.283185,0.));
#827 = VECTOR('',#828,1.);
#828 = DIRECTION('',(0.,1.));
#829 = ( GEOMETRIC_REPRESENTATION_CONTEXT(2) 
PARAMETRIC_REPRESENTATION_CONTEXT() REPRESENTATION_CONTEXT('2D SPACE',''
  ) );
#830 = ORIENTED_EDGE('',*,*,#831,.T.);
#831 = EDGE_CURVE('',#793,#793,#832,.T.);
#832 = SURFACE_CURVE('',#833,(#841),.PCURVE_S1.);
#833 = ( BOUNDED_CURVE() B_SPLINE_CURVE(2,(#834,#835,#836,#837,#838,#839
,#840),.UNSPECIFIED.,.T.,.F.) B_SPLINE_CURVE_WITH_KNOTS((1,2,2,2,2,1),(
-2.094395,0.,2.094395,4.18879,6.283185,8.37758),.UNSPECIFIED.) CURVE() 
GEOMETRIC_REPRESENTATION_ITEM() RATIONAL_B_SPLINE_CURVE((1.,0.5,1.,0.5,
1.,0.5,1.)) REPRESENTATION_ITEM('') );
#834 = CARTESIAN_POINT('',(0.624999999918,0.5,0.999999999584));
#835 = CARTESIAN_POINT('',(0.624999999918,0.283493649236,0.999999999584)
  );
#836 = CARTESIAN_POINT('',(0.437500000041,0.391746824618,0.999999999584)
  );
#837 = CARTESIAN_POINT('',(0.250000000164,0.5,0.999999999584));
#838 = CARTESIAN_POINT('',(0.437500000041,0.608253175382,0.999999999584)
  );
#839 = CARTESIAN_POINT('',(0.624999999918,0.716506350764,0.999999999584)
  );
#840 = CARTESIAN_POINT('',(0.624999999918,0.5,0.999999999584));
#841 = PCURVE('',#802,#842);
#842 = DEFINITIONAL_REPRESENTATION('',(#843),#847);
#843 = LINE('',#844,#845);
#844 = CARTESIAN_POINT('',(0.,-0.125));
#845 = VECTOR('',#846,1.);
#846 = DIRECTION('',(1.,0.));
#847 = ( GEOMETRIC_REPRESENTATION_CONTEXT(2) 
PARAMETRIC_REPRESENTATION_CONTEXT() REPRESENTATION_CONTEXT('2D SPACE',''
  ) );
#848 = ORIENTED_EDGE('',*,*,#792,.T.);
#849 = ORIENTED_EDGE('',*,*,#850,.F.);
#850 = EDGE_CURVE('',#795,#795,#851,.T.);
#851 = SURFACE_CURVE('',#852,(#860),.PCURVE_S1.);
#852 = ( BOUNDED_CURVE() B_SPLINE_CURVE(2,(#853,#854,#855,#856,#857,#858
,#859),.UNSPECIFIED.,.T.,.F.) B_SPLINE_CURVE_WITH_KNOTS((1,2,2,2,2,1),(
-2.094395,0.,2.094395,4.18879,6.283185,8.37758),.UNSPECIFIED.) CURVE() 
GEOMETRIC_REPRESENTATION_ITEM() RATIONAL_B_SPLINE_CURVE((1.,0.5,1.,0.5,
1.,0.5,1.)) REPRESENTATION_ITEM('') );
#853 = CARTESIAN_POINT('',(0.624999999918,0.5,0.875));
#854 = CARTESIAN_POINT('',(0.624999999918,0.283493649236,0.875));
#855 = CARTESIAN_POINT('',(0.437500000041,0.391746824618,0.875));
#856 = CARTESIAN_POINT('',(0.250000000164,0.5,0.875));
#857 = CARTESIAN_POINT('',(0.437500000041,0.608253175382,0.875));
#858 = CARTESIAN_POINT('',(0.624999999918,0.716506350764,0.875));
#859 = CARTESIAN_POINT('',(0.624999999918,0.5,0.875));
#860 = PCURVE('',#802,#861);
#861 = DEFINITIONAL_REPRESENTATION('',(#862),#866);
#862 = LINE('',#863,#864);
#863 = CARTESIAN_POINT('',(0.,0.));
#864 = VECTOR('',#865,1.);
#865 = DIRECTION('',(1.,0.));
#866 = ( GEOMETRIC_REPRESENTATION_CONTEXT(2) 
PARAMETRIC_REPRESENTATION_CONTEXT() REPRESENTATION_CONTEXT('2D SPACE',''
  ) );
#867 = ( GEOMETRIC_REPRESENTATION_CONTEXT(3) 
GLOBAL_UNCERTAINTY_ASSIGNED_CONTEXT((#871)) GLOBAL_UNIT_ASSIGNED_CONTEXT
((#868,#869,#870)) REPRESENTATION_CONTEXT('Context #1',
  '3D Context with UNIT and UNCERTAINTY') );
#868 = ( LENGTH_UNIT() NAMED_UNIT(*) SI_UNIT(.MILLI.,.METRE.) );
#869 = ( NAMED_UNIT(*) PLANE_ANGLE_UNIT() SI_UNIT($,.RADIAN.) );
#870 = ( NAMED_UNIT(*) SI_UNIT($,.STERADIAN.) SOLID_ANGLE_UNIT() );
#871 = UNCERTAINTY_MEASURE_WITH_UNIT(LENGTH_MEASURE(1.E-07),#868,
  'distance_accuracy_value','confusion accuracy');
#872 = CONTEXT_DEPENDENT_SHAPE_REPRESENTATION(#873,#875);
#873 = ( REPRESENTATION_RELATIONSHIP('','',#785,#10) 
REPRESENTATION_RELATIONSHIP_WITH_TRANSFORMATION(#874) 
SHAPE_REPRESENTATION_RELATIONSHIP() );
#874 = ITEM_DEFINED_TRANSFORMATION('','',#11,#51);
#875 = PRODUCT_DEFINITION_SHAPE('Placement','Placement of an item',#876
  );
#876 = NEXT_ASSEMBLY_USAGE_OCCURRENCE('10','','',#5,#780,$);
#877 = PRODUCT_RELATED_PRODUCT_CATEGORY('part',$,(#782));
#878 = SHAPE_DEFINITION_REPRESENTATION(#879,#885);
#879 = PRODUCT_DEFINITION_SHAPE('','',#880);
#880 = PRODUCT_DEFINITION('design','',#881,#884);
#881 = PRODUCT_DEFINITION_FORMATION('','',#882);
#882 = PRODUCT('Open CASCADE STEP translator 7.9 1.11',
  'Open CASCADE STEP translator 7.9 1.11','',(#883));
#883 = PRODUCT_CONTEXT('',#2,'mechanical');
#884 = PRODUCT_DEFINITION_CONTEXT('part definition',#2,'design');
#885 = MANIFOLD_SURFACE_SHAPE_REPRESENTATION('',(#11,#886),#934);
#886 = SHELL_BASED_SURFACE_MODEL('',(#887));
#887 = OPEN_SHELL('',(#888));
#888 = ADVANCED_FACE('',(#889,#915),#904,.T.);
#889 = FACE_BOUND('',#890,.T.);
#890 = EDGE_LOOP('',(#891));
#891 = ORIENTED_EDGE('',*,*,#892,.F.);
#892 = EDGE_CURVE('',#893,#895,#897,.T.);
#893 = VERTEX_POINT('',#894);
#894 = CARTESIAN_POINT('',(1.,0.5,0.875));
#895 = VERTEX_POINT('',#896);
#896 = CARTESIAN_POINT('',(1.,0.49999984641,0.875));
#897 = SURFACE_CURVE('',#898,(#903),.PCURVE_S1.);
#898 = CIRCLE('',#899,0.5);
#899 = AXIS2_PLACEMENT_3D('',#900,#901,#902);
#900 = CARTESIAN_POINT('',(0.5,0.5,0.875));
#901 = DIRECTION('',(0.,0.,1.));
#902 = DIRECTION('',(1.,0.,-0.));
#903 = PCURVE('',#904,#909);
#904 = PLANE('',#905);
#905 = AXIS2_PLACEMENT_3D('',#906,#907,#908);
#906 = CARTESIAN_POINT('',(0.499999985221,0.5,0.875));
#907 = DIRECTION('',(0.,0.,1.));
#908 = DIRECTION('',(1.,0.,-0.));
#909 = DEFINITIONAL_REPRESENTATION('',(#910),#914);
#910 = CIRCLE('',#911,0.5);
#911 = AXIS2_PLACEMENT_2D('',#912,#913);
#912 = CARTESIAN_POINT('',(1.477918648574E-08,-2.331468351713E-15));
#913 = DIRECTION('',(1.,0.));
#914 = ( GEOMETRIC_REPRESENTATION_CONTEXT(2) 
PARAMETRIC_REPRESENTATION_CONTEXT() REPRESENTATION_CONTEXT('2D SPACE',''
  ) );
#915 = FACE_BOUND('',#916,.F.);
#916 = EDGE_LOOP('',(#917));
#917 = ORIENTED_EDGE('',*,*,#918,.T.);
#918 = EDGE_CURVE('',#919,#919,#921,.T.);
#919 = VERTEX_POINT('',#920);
#920 = CARTESIAN_POINT('',(0.625,0.5,0.875));
#921 = SURFACE_CURVE('',#922,(#927),.PCURVE_S1.);
#922 = CIRCLE('',#923,0.125);
#923 = AXIS2_PLACEMENT_3D('',#924,#925,#926);
#924 = CARTESIAN_POINT('',(0.5,0.5,0.875));
#925 = DIRECTION('',(0.,0.,1.));
#926 = DIRECTION('',(1.,0.,-0.));
#927 = PCURVE('',#904,#928);
#928 = DEFINITIONAL_REPRESENTATION('',(#929),#933);
#929 = CIRCLE('',#930,0.125);
#930 = AXIS2_PLACEMENT_2D('',#931,#932);
#931 = CARTESIAN_POINT('',(1.477918648574E-08,-2.331468351713E-15));
#932 = DIRECTION('',(1.,0.));
#933 = ( GEOMETRIC_REPRESENTATION_CONTEXT(2) 
PARAMETRIC_REPRESENTATION_CONTEXT() REPRESENTATION_CONTEXT('2D SPACE',''
  ) );
#934 = ( GEOMETRIC_REPRESENTATION_CONTEXT(3) 
GLOBAL_UNCERTAINTY_ASSIGNED_CONTEXT((#938)) GLOBAL_UNIT_ASSIGNED_CONTEXT
((#935,#936,#937)) REPRESENTATION_CONTEXT('Context #1',
  '3D Context with UNIT and UNCERTAINTY') );
#935 = ( LENGTH_UNIT() NAMED_UNIT(*) SI_UNIT(.MILLI.,.METRE.) );
#936 = ( NAMED_UNIT(*) PLANE_ANGLE_UNIT() SI_UNIT($,.RADIAN.) );
#937 = ( NAMED_UNIT(*) SI_UNIT($,.STERADIAN.) SOLID_ANGLE_UNIT() );
#938 = UNCERTAINTY_MEASURE_WITH_UNIT(LENGTH_MEASURE(1.E-07),#935,
  'distance_accuracy_value','confusion accuracy');
#939 = CONTEXT_DEPENDENT_SHAPE_REPRESENTATION(#940,#942);
#940 = ( REPRESENTATION_RELATIONSHIP('','',#885,#10) 
REPRESENTATION_RELATIONSHIP_WITH_TRANSFORMATION(#941) 
SHAPE_REPRESENTATION_RELATIONSHIP() );
#941 = ITEM_DEFINED_TRANSFORMATION('','',#11,#55);
#942 = PRODUCT_DEFINITION_SHAPE('Placement','Placement of an item',#943
  );
#943 = NEXT_ASSEMBLY_USAGE_OCCURRENCE('11','','',#5,#880,$);
#944 = PRODUCT_RELATED_PRODUCT_CATEGORY('part',$,(#882));
ENDSEC;
END-ISO-10303-21;
