ISO-10303-21;
HEADER;
FILE_DESCRIPTION(('Open CASCADE Model'),'2;1');
FILE_NAME('Open CASCADE Shape Model','2026-07-02T20:22:29',('Author'),(
    'Open CASCADE'),'Open CASCADE STEP processor 7.9','Open CASCADE 7.9'
  ,'Unknown');
FILE_SCHEMA(('AUTOMOTIVE_DESIGN { 1 0 10303 214 1 1 1 1 }'));
ENDSEC;
DATA;
#1 = APPLICATION_PROTOCOL_DEFINITION('international standard',
  'automotive_design',2000,#2);
#2 = APPLICATION_CONTEXT(
  'core data for automotive mechanical design processes');
#3 = SHAPE_DEFINITION_REPRESENTATION(#4,#10);
#4 = PRODUCT_DEFINITION_SHAPE('','',#5);
#5 = PRODUCT_DEFINITION('design','',#6,#9);
#6 = PRODUCT_DEFINITION_FORMATION('','',#7);
#7 = PRODUCT('Open CASCADE STEP translator 7.9 1',
  'Open CASCADE STEP translator 7.9 1','',(#8));
#8 = PRODUCT_CONTEXT('',#2,'mechanical');
#9 = PRODUCT_DEFINITION_CONTEXT('part definition',#2,'design');
#10 = SHAPE_REPRESENTATION('',(#11,#15,#19,#23,#27,#31,#35,#39,#43,#47,
    #51,#55,#59,#63,#67),#71);
#11 = AXIS2_PLACEMENT_3D('',#12,#13,#14);
#12 = CARTESIAN_POINT('',(0.,0.,0.));
#13 = DIRECTION('',(0.,0.,1.));
#14 = DIRECTION('',(1.,0.,-0.));
#15 = AXIS2_PLACEMENT_3D('',#16,#17,#18);
#16 = CARTESIAN_POINT('',(0.,0.,0.));
#17 = DIRECTION('',(0.,0.,1.));
#18 = DIRECTION('',(1.,0.,-0.));
#19 = AXIS2_PLACEMENT_3D('',#20,#21,#22);
#20 = CARTESIAN_POINT('',(0.,0.,0.));
#21 = DIRECTION('',(0.,0.,1.));
#22 = DIRECTION('',(1.,0.,-0.));
#23 = AXIS2_PLACEMENT_3D('',#24,#25,#26);
#24 = CARTESIAN_POINT('',(0.,0.,0.));
#25 = DIRECTION('',(0.,0.,1.));
#26 = DIRECTION('',(1.,0.,-0.));
#27 = AXIS2_PLACEMENT_3D('',#28,#29,#30);
#28 = CARTESIAN_POINT('',(0.,0.,0.));
#29 = DIRECTION('',(0.,0.,1.));
#30 = DIRECTION('',(1.,0.,-0.));
#31 = AXIS2_PLACEMENT_3D('',#32,#33,#34);
#32 = CARTESIAN_POINT('',(0.,0.,0.));
#33 = DIRECTION('',(0.,0.,1.));
#34 = DIRECTION('',(1.,0.,-0.));
#35 = AXIS2_PLACEMENT_3D('',#36,#37,#38);
#36 = CARTESIAN_POINT('',(0.,0.,0.));
#37 = DIRECTION('',(0.,0.,1.));
#38 = DIRECTION('',(1.,0.,-0.));
#39 = AXIS2_PLACEMENT_3D('',#40,#41,#42);
#40 = CARTESIAN_POINT('',(0.,0.,0.));
#41 = DIRECTION('',(0.,0.,1.));
#42 = DIRECTION('',(1.,0.,-0.));
#43 = AXIS2_PLACEMENT_3D('',#44,#45,#46);
#44 = CARTESIAN_POINT('',(0.,0.,0.));
#45 = DIRECTION('',(0.,0.,1.));
#46 = DIRECTION('',(1.,0.,-0.));
#47 = AXIS2_PLACEMENT_3D('',#48,#49,#50);
#48 = CARTESIAN_POINT('',(0.,0.,0.));
#49 = DIRECTION('',(0.,0.,1.));
#50 = DIRECTION('',(1.,0.,-0.));
#51 = AXIS2_PLACEMENT_3D('',#52,#53,#54);
#52 = CARTESIAN_POINT('',(0.,0.,0.));
#53 = DIRECTION('',(0.,0.,1.));
#54 = DIRECTION('',(1.,0.,-0.));
#55 = AXIS2_PLACEMENT_3D('',#56,#57,#58);
#56 = CARTESIAN_POINT('',(0.,0.,0.));
#57 = DIRECTION('',(0.,0.,1.));
#58 = DIRECTION('',(1.,0.,-0.));
#59 = AXIS2_PLACEMENT_3D('',#60,#61,#62);
#60 = CARTESIAN_POINT('',(0.,0.,0.));
#61 = DIRECTION('',(0.,0.,1.));
#62 = DIRECTION('',(1.,0.,-0.));
#63 = AXIS2_PLACEMENT_3D('',#64,#65,#66);
#64 = CARTESIAN_POINT('',(0.,0.,0.));
#65 = DIRECTION('',(0.,0.,1.));
#66 = DIRECTION('',(1.,0.,-0.));
#67 = AXIS2_PLACEMENT_3D('',#68,#69,#70);
#68 = CARTESIAN_POINT('',(0.,0.,0.));
#69 = DIRECTION('',(0.,0.,1.));
#70 = DIRECTION('',(1.,0.,-0.));
#71 = ( GEOMETRIC_REPRESENTATION_CONTEXT(3) 
GLOBAL_UNCERTAINTY_ASSIGNED_CONTEXT((#75)) GLOBAL_UNIT_ASSIGNED_CONTEXT(
(#72,#73,#74)) REPRESENTATION_CONTEXT('Context #1',
  '3D Context with UNIT and UNCERTAINTY') );
#72 = ( LENGTH_UNIT() NAMED_UNIT(*) SI_UNIT(.MILLI.,.METRE.) );
#73 = ( NAMED_UNIT(*) PLANE_ANGLE_UNIT() SI_UNIT($,.RADIAN.) );
#74 = ( NAMED_UNIT(*) SI_UNIT($,.STERADIAN.) SOLID_ANGLE_UNIT() );
#75 = UNCERTAINTY_MEASURE_WITH_UNIT(LENGTH_MEASURE(1.E-07),#72,
  'distance_accuracy_value','confusion accuracy');
#76 = PRODUCT_RELATED_PRODUCT_CATEGORY('part',$,(#7));
#77 = SHAPE_DEFINITION_REPRESENTATION(#78,#84);
#78 = PRODUCT_DEFINITION_SHAPE('','',#79);
#79 = PRODUCT_DEFINITION('design','',#80,#83);
#80 = PRODUCT_DEFINITION_FORMATION('','',#81);
#81 = PRODUCT('Open CASCADE STEP translator 7.9 1.1',
  'Open CASCADE STEP translator 7.9 1.1','',(#82));
#82 = PRODUCT_CONTEXT('',#2,'mechanical');
#83 = PRODUCT_DEFINITION_CONTEXT('part definition',#2,'design');
#84 = MANIFOLD_SURFACE_SHAPE_REPRESENTATION('',(#11,#85),#155);
#85 = SHELL_BASED_SURFACE_MODEL('',(#86));
#86 = OPEN_SHELL('',(#87));
#87 = ADVANCED_FACE('',(#88),#101,.T.);
#88 = FACE_BOUND('',#89,.T.);
#89 = EDGE_LOOP('',(#90,#112,#127,#142));
#90 = ORIENTED_EDGE('',*,*,#91,.F.);
#91 = EDGE_CURVE('',#92,#94,#96,.T.);
#92 = VERTEX_POINT('',#93);
#93 = CARTESIAN_POINT('',(0.373214285735,8.928571435789E-02,
    8.928571504765E-03));
#94 = VERTEX_POINT('',#95);
#95 = CARTESIAN_POINT('',(0.373214285735,8.928571435789E-02,
    1.428571436146E-02));
#96 = SURFACE_CURVE('',#97,(#100),.PCURVE_S1.);
#97 = B_SPLINE_CURVE_WITH_KNOTS('',1,(#98,#99),.UNSPECIFIED.,.F.,.F.,(2,
    2),(-5.357E-03,0.),.PIECEWISE_BEZIER_KNOTS.);
#98 = CARTESIAN_POINT('',(0.373214285735,8.928571435789E-02,
    8.928571504765E-03));
#99 = CARTESIAN_POINT('',(0.373214285735,8.928571435789E-02,
    1.428571436146E-02));
#100 = PCURVE('',#101,#106);
#101 = B_SPLINE_SURFACE_WITH_KNOTS('',1,1,(
    (#102,#103)
    ,(#104,#105
    )),.UNSPECIFIED.,.F.,.F.,.F.,(2,2),(2,2),(-3.5714E-02,3.5714E-02),(
    -5.357E-03,0.),.PIECEWISE_BEZIER_KNOTS.);
#102 = CARTESIAN_POINT('',(0.373214285735,8.928571435789E-02,
    8.928571504765E-03));
#103 = CARTESIAN_POINT('',(0.373214285735,8.928571435789E-02,
    1.428571436146E-02));
#104 = CARTESIAN_POINT('',(0.373214285735,0.160714285776,
    8.928571504765E-03));
#105 = CARTESIAN_POINT('',(0.373214285735,0.160714285776,
    1.428571436146E-02));
#106 = DEFINITIONAL_REPRESENTATION('',(#107),#111);
#107 = LINE('',#108,#109);
#108 = CARTESIAN_POINT('',(-3.5714E-02,0.));
#109 = VECTOR('',#110,1.);
#110 = DIRECTION('',(0.,1.));
#111 = ( GEOMETRIC_REPRESENTATION_CONTEXT(2) 
PARAMETRIC_REPRESENTATION_CONTEXT() REPRESENTATION_CONTEXT('2D SPACE',''
  ) );
#112 = ORIENTED_EDGE('',*,*,#113,.T.);
#113 = EDGE_CURVE('',#92,#114,#116,.T.);
#114 = VERTEX_POINT('',#115);
#115 = CARTESIAN_POINT('',(0.373214285735,0.160714285776,
    8.928571504765E-03));
#116 = SURFACE_CURVE('',#117,(#120),.PCURVE_S1.);
#117 = B_SPLINE_CURVE_WITH_KNOTS('',1,(#118,#119),.UNSPECIFIED.,.F.,.F.,
  (2,2),(-3.5714E-02,3.5714E-02),.PIECEWISE_BEZIER_KNOTS.);
#118 = CARTESIAN_POINT('',(0.373214285735,8.928571435789E-02,
    8.928571504765E-03));
#119 = CARTESIAN_POINT('',(0.373214285735,0.160714285776,
    8.928571504765E-03));
#120 = PCURVE('',#101,#121);
#121 = DEFINITIONAL_REPRESENTATION('',(#122),#126);
#122 = LINE('',#123,#124);
#123 = CARTESIAN_POINT('',(0.,-5.357E-03));
#124 = VECTOR('',#125,1.);
#125 = DIRECTION('',(1.,0.));
#126 = ( GEOMETRIC_REPRESENTATION_CONTEXT(2) 
PARAMETRIC_REPRESENTATION_CONTEXT() REPRESENTATION_CONTEXT('2D SPACE',''
  ) );
#127 = ORIENTED_EDGE('',*,*,#128,.T.);
#128 = EDGE_CURVE('',#114,#129,#131,.T.);
#129 = VERTEX_POINT('',#130);
#130 = CARTESIAN_POINT('',(0.373214285735,0.160714285776,
    1.428571436146E-02));
#131 = SURFACE_CURVE('',#132,(#135),.PCURVE_S1.);
#132 = B_SPLINE_CURVE_WITH_KNOTS('',1,(#133,#134),.UNSPECIFIED.,.F.,.F.,
  (2,2),(-5.357E-03,0.),.PIECEWISE_BEZIER_KNOTS.);
#133 = CARTESIAN_POINT('',(0.373214285735,0.160714285776,
    8.928571504765E-03));
#134 = CARTESIAN_POINT('',(0.373214285735,0.160714285776,
    1.428571436146E-02));
#135 = PCURVE('',#101,#136);
#136 = DEFINITIONAL_REPRESENTATION('',(#137),#141);
#137 = LINE('',#138,#139);
#138 = CARTESIAN_POINT('',(3.5714E-02,0.));
#139 = VECTOR('',#140,1.);
#140 = DIRECTION('',(0.,1.));
#141 = ( GEOMETRIC_REPRESENTATION_CONTEXT(2) 
PARAMETRIC_REPRESENTATION_CONTEXT() REPRESENTATION_CONTEXT('2D SPACE',''
  ) );
#142 = ORIENTED_EDGE('',*,*,#143,.F.);
#143 = EDGE_CURVE('',#94,#129,#144,.T.);
#144 = SURFACE_CURVE('',#145,(#148),.PCURVE_S1.);
#145 = B_SPLINE_CURVE_WITH_KNOTS('',1,(#146,#147),.UNSPECIFIED.,.F.,.F.,
  (2,2),(-3.5714E-02,3.5714E-02),.PIECEWISE_BEZIER_KNOTS.);
#146 = CARTESIAN_POINT('',(0.373214285735,8.928571435789E-02,
    1.428571436146E-02));
#147 = CARTESIAN_POINT('',(0.373214285735,0.160714285776,
    1.428571436146E-02));
#148 = PCURVE('',#101,#149);
#149 = DEFINITIONAL_REPRESENTATION('',(#150),#154);
#150 = LINE('',#151,#152);
#151 = CARTESIAN_POINT('',(0.,0.));
#152 = VECTOR('',#153,1.);
#153 = DIRECTION('',(1.,0.));
#154 = ( GEOMETRIC_REPRESENTATION_CONTEXT(2) 
PARAMETRIC_REPRESENTATION_CONTEXT() REPRESENTATION_CONTEXT('2D SPACE',''
  ) );
#155 = ( GEOMETRIC_REPRESENTATION_CONTEXT(3) 
GLOBAL_UNCERTAINTY_ASSIGNED_CONTEXT((#159)) GLOBAL_UNIT_ASSIGNED_CONTEXT
((#156,#157,#158)) REPRESENTATION_CONTEXT('Context #1',
  '3D Context with UNIT and UNCERTAINTY') );
#156 = ( LENGTH_UNIT() NAMED_UNIT(*) SI_UNIT(.MILLI.,.METRE.) );
#157 = ( NAMED_UNIT(*) PLANE_ANGLE_UNIT() SI_UNIT($,.RADIAN.) );
#158 = ( NAMED_UNIT(*) SI_UNIT($,.STERADIAN.) SOLID_ANGLE_UNIT() );
#159 = UNCERTAINTY_MEASURE_WITH_UNIT(LENGTH_MEASURE(1.E-07),#156,
  'distance_accuracy_value','confusion accuracy');
#160 = CONTEXT_DEPENDENT_SHAPE_REPRESENTATION(#161,#163);
#161 = ( REPRESENTATION_RELATIONSHIP('','',#84,#10) 
REPRESENTATION_RELATIONSHIP_WITH_TRANSFORMATION(#162) 
SHAPE_REPRESENTATION_RELATIONSHIP() );
#162 = ITEM_DEFINED_TRANSFORMATION('','',#11,#15);
#163 = PRODUCT_DEFINITION_SHAPE('Placement','Placement of an item',#164
  );
#164 = NEXT_ASSEMBLY_USAGE_OCCURRENCE('1','','',#5,#79,$);
#165 = PRODUCT_RELATED_PRODUCT_CATEGORY('part',$,(#81));
#166 = SHAPE_DEFINITION_REPRESENTATION(#167,#173);
#167 = PRODUCT_DEFINITION_SHAPE('','',#168);
#168 = PRODUCT_DEFINITION('design','',#169,#172);
#169 = PRODUCT_DEFINITION_FORMATION('','',#170);
#170 = PRODUCT('Open CASCADE STEP translator 7.9 1.2',
  'Open CASCADE STEP translator 7.9 1.2','',(#171));
#171 = PRODUCT_CONTEXT('',#2,'mechanical');
#172 = PRODUCT_DEFINITION_CONTEXT('part definition',#2,'design');
#173 = MANIFOLD_SURFACE_SHAPE_REPRESENTATION('',(#11,#174),#244);
#174 = SHELL_BASED_SURFACE_MODEL('',(#175));
#175 = OPEN_SHELL('',(#176));
#176 = ADVANCED_FACE('',(#177),#190,.T.);
#177 = FACE_BOUND('',#178,.T.);
#178 = EDGE_LOOP('',(#179,#201,#216,#231));
#179 = ORIENTED_EDGE('',*,*,#180,.F.);
#180 = EDGE_CURVE('',#181,#183,#185,.T.);
#181 = VERTEX_POINT('',#182);
#182 = CARTESIAN_POINT('',(0.373214285735,0.160714285776,
    8.928571504765E-03));
#183 = VERTEX_POINT('',#184);
#184 = CARTESIAN_POINT('',(0.373214285735,0.160714285776,
    1.428571436146E-02));
#185 = SURFACE_CURVE('',#186,(#189),.PCURVE_S1.);
#186 = B_SPLINE_CURVE_WITH_KNOTS('',1,(#187,#188),.UNSPECIFIED.,.F.,.F.,
  (2,2),(-5.357E-03,0.),.PIECEWISE_BEZIER_KNOTS.);
#187 = CARTESIAN_POINT('',(0.373214285735,0.160714285776,
    8.928571504765E-03));
#188 = CARTESIAN_POINT('',(0.373214285735,0.160714285776,
    1.428571436146E-02));
#189 = PCURVE('',#190,#195);
#190 = B_SPLINE_SURFACE_WITH_KNOTS('',1,1,(
    (#191,#192)
    ,(#193,#194
    )),.UNSPECIFIED.,.F.,.F.,.F.,(2,2),(2,2),(-2.5E-02,2.5E-02),(
    -5.357E-03,0.),.PIECEWISE_BEZIER_KNOTS.);
#191 = CARTESIAN_POINT('',(0.373214285735,0.160714285776,
    8.928571504765E-03));
#192 = CARTESIAN_POINT('',(0.373214285735,0.160714285776,
    1.428571436146E-02));
#193 = CARTESIAN_POINT('',(0.323214285743,0.160714285776,
    8.928571504765E-03));
#194 = CARTESIAN_POINT('',(0.323214285743,0.160714285776,
    1.428571436146E-02));
#195 = DEFINITIONAL_REPRESENTATION('',(#196),#200);
#196 = LINE('',#197,#198);
#197 = CARTESIAN_POINT('',(-2.5E-02,0.));
#198 = VECTOR('',#199,1.);
#199 = DIRECTION('',(0.,1.));
#200 = ( GEOMETRIC_REPRESENTATION_CONTEXT(2) 
PARAMETRIC_REPRESENTATION_CONTEXT() REPRESENTATION_CONTEXT('2D SPACE',''
  ) );
#201 = ORIENTED_EDGE('',*,*,#202,.T.);
#202 = EDGE_CURVE('',#181,#203,#205,.T.);
#203 = VERTEX_POINT('',#204);
#204 = CARTESIAN_POINT('',(0.323214285743,0.160714285776,
    8.928571504765E-03));
#205 = SURFACE_CURVE('',#206,(#209),.PCURVE_S1.);
#206 = B_SPLINE_CURVE_WITH_KNOTS('',1,(#207,#208),.UNSPECIFIED.,.F.,.F.,
  (2,2),(-2.5E-02,2.5E-02),.PIECEWISE_BEZIER_KNOTS.);
#207 = CARTESIAN_POINT('',(0.373214285735,0.160714285776,
    8.928571504765E-03));
#208 = CARTESIAN_POINT('',(0.323214285743,0.160714285776,
    8.928571504765E-03));
#209 = PCURVE('',#190,#210);
#210 = DEFINITIONAL_REPRESENTATION('',(#211),#215);
#211 = LINE('',#212,#213);
#212 = CARTESIAN_POINT('',(0.,-5.357E-03));
#213 = VECTOR('',#214,1.);
#214 = DIRECTION('',(1.,0.));
#215 = ( GEOMETRIC_REPRESENTATION_CONTEXT(2) 
PARAMETRIC_REPRESENTATION_CONTEXT() REPRESENTATION_CONTEXT('2D SPACE',''
  ) );
#216 = ORIENTED_EDGE('',*,*,#217,.T.);
#217 = EDGE_CURVE('',#203,#218,#220,.T.);
#218 = VERTEX_POINT('',#219);
#219 = CARTESIAN_POINT('',(0.323214285743,0.160714285776,
    1.428571436146E-02));
#220 = SURFACE_CURVE('',#221,(#224),.PCURVE_S1.);
#221 = B_SPLINE_CURVE_WITH_KNOTS('',1,(#222,#223),.UNSPECIFIED.,.F.,.F.,
  (2,2),(-5.357E-03,0.),.PIECEWISE_BEZIER_KNOTS.);
#222 = CARTESIAN_POINT('',(0.323214285743,0.160714285776,
    8.928571504765E-03));
#223 = CARTESIAN_POINT('',(0.323214285743,0.160714285776,
    1.428571436146E-02));
#224 = PCURVE('',#190,#225);
#225 = DEFINITIONAL_REPRESENTATION('',(#226),#230);
#226 = LINE('',#227,#228);
#227 = CARTESIAN_POINT('',(2.5E-02,0.));
#228 = VECTOR('',#229,1.);
#229 = DIRECTION('',(0.,1.));
#230 = ( GEOMETRIC_REPRESENTATION_CONTEXT(2) 
PARAMETRIC_REPRESENTATION_CONTEXT() REPRESENTATION_CONTEXT('2D SPACE',''
  ) );
#231 = ORIENTED_EDGE('',*,*,#232,.F.);
#232 = EDGE_CURVE('',#183,#218,#233,.T.);
#233 = SURFACE_CURVE('',#234,(#237),.PCURVE_S1.);
#234 = B_SPLINE_CURVE_WITH_KNOTS('',1,(#235,#236),.UNSPECIFIED.,.F.,.F.,
  (2,2),(-2.5E-02,2.5E-02),.PIECEWISE_BEZIER_KNOTS.);
#235 = CARTESIAN_POINT('',(0.373214285735,0.160714285776,
    1.428571436146E-02));
#236 = CARTESIAN_POINT('',(0.323214285743,0.160714285776,
    1.428571436146E-02));
#237 = PCURVE('',#190,#238);
#238 = DEFINITIONAL_REPRESENTATION('',(#239),#243);
#239 = LINE('',#240,#241);
#240 = CARTESIAN_POINT('',(0.,0.));
#241 = VECTOR('',#242,1.);
#242 = DIRECTION('',(1.,0.));
#243 = ( GEOMETRIC_REPRESENTATION_CONTEXT(2) 
PARAMETRIC_REPRESENTATION_CONTEXT() REPRESENTATION_CONTEXT('2D SPACE',''
  ) );
#244 = ( GEOMETRIC_REPRESENTATION_CONTEXT(3) 
GLOBAL_UNCERTAINTY_ASSIGNED_CONTEXT((#248)) GLOBAL_UNIT_ASSIGNED_CONTEXT
((#245,#246,#247)) REPRESENTATION_CONTEXT('Context #1',
  '3D Context with UNIT and UNCERTAINTY') );
#245 = ( LENGTH_UNIT() NAMED_UNIT(*) SI_UNIT(.MILLI.,.METRE.) );
#246 = ( NAMED_UNIT(*) PLANE_ANGLE_UNIT() SI_UNIT($,.RADIAN.) );
#247 = ( NAMED_UNIT(*) SI_UNIT($,.STERADIAN.) SOLID_ANGLE_UNIT() );
#248 = UNCERTAINTY_MEASURE_WITH_UNIT(LENGTH_MEASURE(1.E-07),#245,
  'distance_accuracy_value','confusion accuracy');
#249 = CONTEXT_DEPENDENT_SHAPE_REPRESENTATION(#250,#252);
#250 = ( REPRESENTATION_RELATIONSHIP('','',#173,#10) 
REPRESENTATION_RELATIONSHIP_WITH_TRANSFORMATION(#251) 
SHAPE_REPRESENTATION_RELATIONSHIP() );
#251 = ITEM_DEFINED_TRANSFORMATION('','',#11,#19);
#252 = PRODUCT_DEFINITION_SHAPE('Placement','Placement of an item',#253
  );
#253 = NEXT_ASSEMBLY_USAGE_OCCURRENCE('2','','',#5,#168,$);
#254 = PRODUCT_RELATED_PRODUCT_CATEGORY('part',$,(#170));
#255 = SHAPE_DEFINITION_REPRESENTATION(#256,#262);
#256 = PRODUCT_DEFINITION_SHAPE('','',#257);
#257 = PRODUCT_DEFINITION('design','',#258,#261);
#258 = PRODUCT_DEFINITION_FORMATION('','',#259);
#259 = PRODUCT('Open CASCADE STEP translator 7.9 1.3',
  'Open CASCADE STEP translator 7.9 1.3','',(#260));
#260 = PRODUCT_CONTEXT('',#2,'mechanical');
#261 = PRODUCT_DEFINITION_CONTEXT('part definition',#2,'design');
#262 = MANIFOLD_SURFACE_SHAPE_REPRESENTATION('',(#11,#263),#333);
#263 = SHELL_BASED_SURFACE_MODEL('',(#264));
#264 = OPEN_SHELL('',(#265));
#265 = ADVANCED_FACE('',(#266),#279,.T.);
#266 = FACE_BOUND('',#267,.T.);
#267 = EDGE_LOOP('',(#268,#290,#305,#320));
#268 = ORIENTED_EDGE('',*,*,#269,.F.);
#269 = EDGE_CURVE('',#270,#272,#274,.T.);
#270 = VERTEX_POINT('',#271);
#271 = CARTESIAN_POINT('',(0.323214285743,8.928571435789E-02,
    8.928571504765E-03));
#272 = VERTEX_POINT('',#273);
#273 = CARTESIAN_POINT('',(0.323214285743,8.928571435789E-02,
    1.428571436146E-02));
#274 = SURFACE_CURVE('',#275,(#278),.PCURVE_S1.);
#275 = B_SPLINE_CURVE_WITH_KNOTS('',1,(#276,#277),.UNSPECIFIED.,.F.,.F.,
  (2,2),(-5.357E-03,0.),.PIECEWISE_BEZIER_KNOTS.);
#276 = CARTESIAN_POINT('',(0.323214285743,8.928571435789E-02,
    8.928571504765E-03));
#277 = CARTESIAN_POINT('',(0.323214285743,8.928571435789E-02,
    1.428571436146E-02));
#278 = PCURVE('',#279,#284);
#279 = B_SPLINE_SURFACE_WITH_KNOTS('',1,1,(
    (#280,#281)
    ,(#282,#283
    )),.UNSPECIFIED.,.F.,.F.,.F.,(2,2),(2,2),(-3.5714E-02,3.5714E-02),(
    -5.357E-03,0.),.PIECEWISE_BEZIER_KNOTS.);
#280 = CARTESIAN_POINT('',(0.323214285743,8.928571435789E-02,
    8.928571504765E-03));
#281 = CARTESIAN_POINT('',(0.323214285743,8.928571435789E-02,
    1.428571436146E-02));
#282 = CARTESIAN_POINT('',(0.323214285743,0.160714285776,
    8.928571504765E-03));
#283 = CARTESIAN_POINT('',(0.323214285743,0.160714285776,
    1.428571436146E-02));
#284 = DEFINITIONAL_REPRESENTATION('',(#285),#289);
#285 = LINE('',#286,#287);
#286 = CARTESIAN_POINT('',(-3.5714E-02,0.));
#287 = VECTOR('',#288,1.);
#288 = DIRECTION('',(0.,1.));
#289 = ( GEOMETRIC_REPRESENTATION_CONTEXT(2) 
PARAMETRIC_REPRESENTATION_CONTEXT() REPRESENTATION_CONTEXT('2D SPACE',''
  ) );
#290 = ORIENTED_EDGE('',*,*,#291,.T.);
#291 = EDGE_CURVE('',#270,#292,#294,.T.);
#292 = VERTEX_POINT('',#293);
#293 = CARTESIAN_POINT('',(0.323214285743,0.160714285776,
    8.928571504765E-03));
#294 = SURFACE_CURVE('',#295,(#298),.PCURVE_S1.);
#295 = B_SPLINE_CURVE_WITH_KNOTS('',1,(#296,#297),.UNSPECIFIED.,.F.,.F.,
  (2,2),(-3.5714E-02,3.5714E-02),.PIECEWISE_BEZIER_KNOTS.);
#296 = CARTESIAN_POINT('',(0.323214285743,8.928571435789E-02,
    8.928571504765E-03));
#297 = CARTESIAN_POINT('',(0.323214285743,0.160714285776,
    8.928571504765E-03));
#298 = PCURVE('',#279,#299);
#299 = DEFINITIONAL_REPRESENTATION('',(#300),#304);
#300 = LINE('',#301,#302);
#301 = CARTESIAN_POINT('',(0.,-5.357E-03));
#302 = VECTOR('',#303,1.);
#303 = DIRECTION('',(1.,0.));
#304 = ( GEOMETRIC_REPRESENTATION_CONTEXT(2) 
PARAMETRIC_REPRESENTATION_CONTEXT() REPRESENTATION_CONTEXT('2D SPACE',''
  ) );
#305 = ORIENTED_EDGE('',*,*,#306,.T.);
#306 = EDGE_CURVE('',#292,#307,#309,.T.);
#307 = VERTEX_POINT('',#308);
#308 = CARTESIAN_POINT('',(0.323214285743,0.160714285776,
    1.428571436146E-02));
#309 = SURFACE_CURVE('',#310,(#313),.PCURVE_S1.);
#310 = B_SPLINE_CURVE_WITH_KNOTS('',1,(#311,#312),.UNSPECIFIED.,.F.,.F.,
  (2,2),(-5.357E-03,0.),.PIECEWISE_BEZIER_KNOTS.);
#311 = CARTESIAN_POINT('',(0.323214285743,0.160714285776,
    8.928571504765E-03));
#312 = CARTESIAN_POINT('',(0.323214285743,0.160714285776,
    1.428571436146E-02));
#313 = PCURVE('',#279,#314);
#314 = DEFINITIONAL_REPRESENTATION('',(#315),#319);
#315 = LINE('',#316,#317);
#316 = CARTESIAN_POINT('',(3.5714E-02,0.));
#317 = VECTOR('',#318,1.);
#318 = DIRECTION('',(0.,1.));
#319 = ( GEOMETRIC_REPRESENTATION_CONTEXT(2) 
PARAMETRIC_REPRESENTATION_CONTEXT() REPRESENTATION_CONTEXT('2D SPACE',''
  ) );
#320 = ORIENTED_EDGE('',*,*,#321,.F.);
#321 = EDGE_CURVE('',#272,#307,#322,.T.);
#322 = SURFACE_CURVE('',#323,(#326),.PCURVE_S1.);
#323 = B_SPLINE_CURVE_WITH_KNOTS('',1,(#324,#325),.UNSPECIFIED.,.F.,.F.,
  (2,2),(-3.5714E-02,3.5714E-02),.PIECEWISE_BEZIER_KNOTS.);
#324 = CARTESIAN_POINT('',(0.323214285743,8.928571435789E-02,
    1.428571436146E-02));
#325 = CARTESIAN_POINT('',(0.323214285743,0.160714285776,
    1.428571436146E-02));
#326 = PCURVE('',#279,#327);
#327 = DEFINITIONAL_REPRESENTATION('',(#328),#332);
#328 = LINE('',#329,#330);
#329 = CARTESIAN_POINT('',(0.,0.));
#330 = VECTOR('',#331,1.);
#331 = DIRECTION('',(1.,0.));
#332 = ( GEOMETRIC_REPRESENTATION_CONTEXT(2) 
PARAMETRIC_REPRESENTATION_CONTEXT() REPRESENTATION_CONTEXT('2D SPACE',''
  ) );
#333 = ( GEOMETRIC_REPRESENTATION_CONTEXT(3) 
GLOBAL_UNCERTAINTY_ASSIGNED_CONTEXT((#337)) GLOBAL_UNIT_ASSIGNED_CONTEXT
((#334,#335,#336)) REPRESENTATION_CONTEXT('Context #1',
  '3D Context with UNIT and UNCERTAINTY') );
#334 = ( LENGTH_UNIT() NAMED_UNIT(*) SI_UNIT(.MILLI.,.METRE.) );
#335 = ( NAMED_UNIT(*) PLANE_ANGLE_UNIT() SI_UNIT($,.RADIAN.) );
#336 = ( NAMED_UNIT(*) SI_UNIT($,.STERADIAN.) SOLID_ANGLE_UNIT() );
#337 = UNCERTAINTY_MEASURE_WITH_UNIT(LENGTH_MEASURE(1.E-07),#334,
  'distance_accuracy_value','confusion accuracy');
#338 = CONTEXT_DEPENDENT_SHAPE_REPRESENTATION(#339,#341);
#339 = ( REPRESENTATION_RELATIONSHIP('','',#262,#10) 
REPRESENTATION_RELATIONSHIP_WITH_TRANSFORMATION(#340) 
SHAPE_REPRESENTATION_RELATIONSHIP() );
#340 = ITEM_DEFINED_TRANSFORMATION('','',#11,#23);
#341 = PRODUCT_DEFINITION_SHAPE('Placement','Placement of an item',#342
  );
#342 = NEXT_ASSEMBLY_USAGE_OCCURRENCE('3','','',#5,#257,$);
#343 = PRODUCT_RELATED_PRODUCT_CATEGORY('part',$,(#259));
#344 = SHAPE_DEFINITION_REPRESENTATION(#345,#351);
#345 = PRODUCT_DEFINITION_SHAPE('','',#346);
#346 = PRODUCT_DEFINITION('design','',#347,#350);
#347 = PRODUCT_DEFINITION_FORMATION('','',#348);
#348 = PRODUCT('Open CASCADE STEP translator 7.9 1.4',
  'Open CASCADE STEP translator 7.9 1.4','',(#349));
#349 = PRODUCT_CONTEXT('',#2,'mechanical');
#350 = PRODUCT_DEFINITION_CONTEXT('part definition',#2,'design');
#351 = MANIFOLD_SURFACE_SHAPE_REPRESENTATION('',(#11,#352),#422);
#352 = SHELL_BASED_SURFACE_MODEL('',(#353));
#353 = OPEN_SHELL('',(#354));
#354 = ADVANCED_FACE('',(#355),#368,.T.);
#355 = FACE_BOUND('',#356,.T.);
#356 = EDGE_LOOP('',(#357,#379,#394,#409));
#357 = ORIENTED_EDGE('',*,*,#358,.F.);
#358 = EDGE_CURVE('',#359,#361,#363,.T.);
#359 = VERTEX_POINT('',#360);
#360 = CARTESIAN_POINT('',(0.373214285735,8.928571435789E-02,
    8.928571504765E-03));
#361 = VERTEX_POINT('',#362);
#362 = CARTESIAN_POINT('',(0.373214285735,8.928571435789E-02,
    1.428571436146E-02));
#363 = SURFACE_CURVE('',#364,(#367),.PCURVE_S1.);
#364 = B_SPLINE_CURVE_WITH_KNOTS('',1,(#365,#366),.UNSPECIFIED.,.F.,.F.,
  (2,2),(-5.357E-03,0.),.PIECEWISE_BEZIER_KNOTS.);
#365 = CARTESIAN_POINT('',(0.373214285735,8.928571435789E-02,
    8.928571504765E-03));
#366 = CARTESIAN_POINT('',(0.373214285735,8.928571435789E-02,
    1.428571436146E-02));
#367 = PCURVE('',#368,#373);
#368 = B_SPLINE_SURFACE_WITH_KNOTS('',1,1,(
    (#369,#370)
    ,(#371,#372
    )),.UNSPECIFIED.,.F.,.F.,.F.,(2,2),(2,2),(-2.5E-02,2.5E-02),(
    -5.357E-03,0.),.PIECEWISE_BEZIER_KNOTS.);
#369 = CARTESIAN_POINT('',(0.373214285735,8.928571435789E-02,
    8.928571504765E-03));
#370 = CARTESIAN_POINT('',(0.373214285735,8.928571435789E-02,
    1.428571436146E-02));
#371 = CARTESIAN_POINT('',(0.323214285743,8.928571435789E-02,
    8.928571504765E-03));
#372 = CARTESIAN_POINT('',(0.323214285743,8.928571435789E-02,
    1.428571436146E-02));
#373 = DEFINITIONAL_REPRESENTATION('',(#374),#378);
#374 = LINE('',#375,#376);
#375 = CARTESIAN_POINT('',(-2.5E-02,0.));
#376 = VECTOR('',#377,1.);
#377 = DIRECTION('',(0.,1.));
#378 = ( GEOMETRIC_REPRESENTATION_CONTEXT(2) 
PARAMETRIC_REPRESENTATION_CONTEXT() REPRESENTATION_CONTEXT('2D SPACE',''
  ) );
#379 = ORIENTED_EDGE('',*,*,#380,.T.);
#380 = EDGE_CURVE('',#359,#381,#383,.T.);
#381 = VERTEX_POINT('',#382);
#382 = CARTESIAN_POINT('',(0.323214285743,8.928571435789E-02,
    8.928571504765E-03));
#383 = SURFACE_CURVE('',#384,(#387),.PCURVE_S1.);
#384 = B_SPLINE_CURVE_WITH_KNOTS('',1,(#385,#386),.UNSPECIFIED.,.F.,.F.,
  (2,2),(-2.5E-02,2.5E-02),.PIECEWISE_BEZIER_KNOTS.);
#385 = CARTESIAN_POINT('',(0.373214285735,8.928571435789E-02,
    8.928571504765E-03));
#386 = CARTESIAN_POINT('',(0.323214285743,8.928571435789E-02,
    8.928571504765E-03));
#387 = PCURVE('',#368,#388);
#388 = DEFINITIONAL_REPRESENTATION('',(#389),#393);
#389 = LINE('',#390,#391);
#390 = CARTESIAN_POINT('',(0.,-5.357E-03));
#391 = VECTOR('',#392,1.);
#392 = DIRECTION('',(1.,0.));
#393 = ( GEOMETRIC_REPRESENTATION_CONTEXT(2) 
PARAMETRIC_REPRESENTATION_CONTEXT() REPRESENTATION_CONTEXT('2D SPACE',''
  ) );
#394 = ORIENTED_EDGE('',*,*,#395,.T.);
#395 = EDGE_CURVE('',#381,#396,#398,.T.);
#396 = VERTEX_POINT('',#397);
#397 = CARTESIAN_POINT('',(0.323214285743,8.928571435789E-02,
    1.428571436146E-02));
#398 = SURFACE_CURVE('',#399,(#402),.PCURVE_S1.);
#399 = B_SPLINE_CURVE_WITH_KNOTS('',1,(#400,#401),.UNSPECIFIED.,.F.,.F.,
  (2,2),(-5.357E-03,0.),.PIECEWISE_BEZIER_KNOTS.);
#400 = CARTESIAN_POINT('',(0.323214285743,8.928571435789E-02,
    8.928571504765E-03));
#401 = CARTESIAN_POINT('',(0.323214285743,8.928571435789E-02,
    1.428571436146E-02));
#402 = PCURVE('',#368,#403);
#403 = DEFINITIONAL_REPRESENTATION('',(#404),#408);
#404 = LINE('',#405,#406);
#405 = CARTESIAN_POINT('',(2.5E-02,0.));
#406 = VECTOR('',#407,1.);
#407 = DIRECTION('',(0.,1.));
#408 = ( GEOMETRIC_REPRESENTATION_CONTEXT(2) 
PARAMETRIC_REPRESENTATION_CONTEXT() REPRESENTATION_CONTEXT('2D SPACE',''
  ) );
#409 = ORIENTED_EDGE('',*,*,#410,.F.);
#410 = EDGE_CURVE('',#361,#396,#411,.T.);
#411 = SURFACE_CURVE('',#412,(#415),.PCURVE_S1.);
#412 = B_SPLINE_CURVE_WITH_KNOTS('',1,(#413,#414),.UNSPECIFIED.,.F.,.F.,
  (2,2),(-2.5E-02,2.5E-02),.PIECEWISE_BEZIER_KNOTS.);
#413 = CARTESIAN_POINT('',(0.373214285735,8.928571435789E-02,
    1.428571436146E-02));
#414 = CARTESIAN_POINT('',(0.323214285743,8.928571435789E-02,
    1.428571436146E-02));
#415 = PCURVE('',#368,#416);
#416 = DEFINITIONAL_REPRESENTATION('',(#417),#421);
#417 = LINE('',#418,#419);
#418 = CARTESIAN_POINT('',(0.,0.));
#419 = VECTOR('',#420,1.);
#420 = DIRECTION('',(1.,0.));
#421 = ( GEOMETRIC_REPRESENTATION_CONTEXT(2) 
PARAMETRIC_REPRESENTATION_CONTEXT() REPRESENTATION_CONTEXT('2D SPACE',''
  ) );
#422 = ( GEOMETRIC_REPRESENTATION_CONTEXT(3) 
GLOBAL_UNCERTAINTY_ASSIGNED_CONTEXT((#426)) GLOBAL_UNIT_ASSIGNED_CONTEXT
((#423,#424,#425)) REPRESENTATION_CONTEXT('Context #1',
  '3D Context with UNIT and UNCERTAINTY') );
#423 = ( LENGTH_UNIT() NAMED_UNIT(*) SI_UNIT(.MILLI.,.METRE.) );
#424 = ( NAMED_UNIT(*) PLANE_ANGLE_UNIT() SI_UNIT($,.RADIAN.) );
#425 = ( NAMED_UNIT(*) SI_UNIT($,.STERADIAN.) SOLID_ANGLE_UNIT() );
#426 = UNCERTAINTY_MEASURE_WITH_UNIT(LENGTH_MEASURE(1.E-07),#423,
  'distance_accuracy_value','confusion accuracy');
#427 = CONTEXT_DEPENDENT_SHAPE_REPRESENTATION(#428,#430);
#428 = ( REPRESENTATION_RELATIONSHIP('','',#351,#10) 
REPRESENTATION_RELATIONSHIP_WITH_TRANSFORMATION(#429) 
SHAPE_REPRESENTATION_RELATIONSHIP() );
#429 = ITEM_DEFINED_TRANSFORMATION('','',#11,#27);
#430 = PRODUCT_DEFINITION_SHAPE('Placement','Placement of an item',#431
  );
#431 = NEXT_ASSEMBLY_USAGE_OCCURRENCE('4','','',#5,#346,$);
#432 = PRODUCT_RELATED_PRODUCT_CATEGORY('part',$,(#348));
#433 = SHAPE_DEFINITION_REPRESENTATION(#434,#440);
#434 = PRODUCT_DEFINITION_SHAPE('','',#435);
#435 = PRODUCT_DEFINITION('design','',#436,#439);
#436 = PRODUCT_DEFINITION_FORMATION('','',#437);
#437 = PRODUCT('Open CASCADE STEP translator 7.9 1.5',
  'Open CASCADE STEP translator 7.9 1.5','',(#438));
#438 = PRODUCT_CONTEXT('',#2,'mechanical');
#439 = PRODUCT_DEFINITION_CONTEXT('part definition',#2,'design');
#440 = MANIFOLD_SURFACE_SHAPE_REPRESENTATION('',(#11,#441),#511);
#441 = SHELL_BASED_SURFACE_MODEL('',(#442));
#442 = OPEN_SHELL('',(#443));
#443 = ADVANCED_FACE('',(#444),#457,.T.);
#444 = FACE_BOUND('',#445,.T.);
#445 = EDGE_LOOP('',(#446,#468,#483,#498));
#446 = ORIENTED_EDGE('',*,*,#447,.F.);
#447 = EDGE_CURVE('',#448,#450,#452,.T.);
#448 = VERTEX_POINT('',#449);
#449 = CARTESIAN_POINT('',(0.338214285744,0.135000000067,
    8.928571504765E-03));
#450 = VERTEX_POINT('',#451);
#451 = CARTESIAN_POINT('',(0.338214285744,0.135000000067,
    1.428571436146E-02));
#452 = SURFACE_CURVE('',#453,(#456),.PCURVE_S1.);
#453 = B_SPLINE_CURVE_WITH_KNOTS('',1,(#454,#455),.UNSPECIFIED.,.F.,.F.,
  (2,2),(-5.357E-03,0.),.PIECEWISE_BEZIER_KNOTS.);
#454 = CARTESIAN_POINT('',(0.338214285744,0.135000000067,
    8.928571504765E-03));
#455 = CARTESIAN_POINT('',(0.338214285744,0.135000000067,
    1.428571436146E-02));
#456 = PCURVE('',#457,#462);
#457 = B_SPLINE_SURFACE_WITH_KNOTS('',1,1,(
    (#458,#459)
    ,(#460,#461
    )),.UNSPECIFIED.,.F.,.F.,.F.,(2,2),(2,2),(-2.679E-03,2.679E-03),(
    -5.357E-03,0.),.PIECEWISE_BEZIER_KNOTS.);
#458 = CARTESIAN_POINT('',(0.338214285744,0.135000000067,
    8.928571504765E-03));
#459 = CARTESIAN_POINT('',(0.338214285744,0.135000000067,
    1.428571436146E-02));
#460 = CARTESIAN_POINT('',(0.338214285744,0.140357142924,
    8.928571504765E-03));
#461 = CARTESIAN_POINT('',(0.338214285744,0.140357142924,
    1.428571436146E-02));
#462 = DEFINITIONAL_REPRESENTATION('',(#463),#467);
#463 = LINE('',#464,#465);
#464 = CARTESIAN_POINT('',(-2.679E-03,0.));
#465 = VECTOR('',#466,1.);
#466 = DIRECTION('',(0.,1.));
#467 = ( GEOMETRIC_REPRESENTATION_CONTEXT(2) 
PARAMETRIC_REPRESENTATION_CONTEXT() REPRESENTATION_CONTEXT('2D SPACE',''
  ) );
#468 = ORIENTED_EDGE('',*,*,#469,.T.);
#469 = EDGE_CURVE('',#448,#470,#472,.T.);
#470 = VERTEX_POINT('',#471);
#471 = CARTESIAN_POINT('',(0.338214285744,0.140357142924,
    8.928571504765E-03));
#472 = SURFACE_CURVE('',#473,(#476),.PCURVE_S1.);
#473 = B_SPLINE_CURVE_WITH_KNOTS('',1,(#474,#475),.UNSPECIFIED.,.F.,.F.,
  (2,2),(-2.679E-03,2.679E-03),.PIECEWISE_BEZIER_KNOTS.);
#474 = CARTESIAN_POINT('',(0.338214285744,0.135000000067,
    8.928571504765E-03));
#475 = CARTESIAN_POINT('',(0.338214285744,0.140357142924,
    8.928571504765E-03));
#476 = PCURVE('',#457,#477);
#477 = DEFINITIONAL_REPRESENTATION('',(#478),#482);
#478 = LINE('',#479,#480);
#479 = CARTESIAN_POINT('',(0.,-5.357E-03));
#480 = VECTOR('',#481,1.);
#481 = DIRECTION('',(1.,0.));
#482 = ( GEOMETRIC_REPRESENTATION_CONTEXT(2) 
PARAMETRIC_REPRESENTATION_CONTEXT() REPRESENTATION_CONTEXT('2D SPACE',''
  ) );
#483 = ORIENTED_EDGE('',*,*,#484,.T.);
#484 = EDGE_CURVE('',#470,#485,#487,.T.);
#485 = VERTEX_POINT('',#486);
#486 = CARTESIAN_POINT('',(0.338214285744,0.140357142924,
    1.428571436146E-02));
#487 = SURFACE_CURVE('',#488,(#491),.PCURVE_S1.);
#488 = B_SPLINE_CURVE_WITH_KNOTS('',1,(#489,#490),.UNSPECIFIED.,.F.,.F.,
  (2,2),(-5.357E-03,0.),.PIECEWISE_BEZIER_KNOTS.);
#489 = CARTESIAN_POINT('',(0.338214285744,0.140357142924,
    8.928571504765E-03));
#490 = CARTESIAN_POINT('',(0.338214285744,0.140357142924,
    1.428571436146E-02));
#491 = PCURVE('',#457,#492);
#492 = DEFINITIONAL_REPRESENTATION('',(#493),#497);
#493 = LINE('',#494,#495);
#494 = CARTESIAN_POINT('',(2.679E-03,0.));
#495 = VECTOR('',#496,1.);
#496 = DIRECTION('',(0.,1.));
#497 = ( GEOMETRIC_REPRESENTATION_CONTEXT(2) 
PARAMETRIC_REPRESENTATION_CONTEXT() REPRESENTATION_CONTEXT('2D SPACE',''
  ) );
#498 = ORIENTED_EDGE('',*,*,#499,.F.);
#499 = EDGE_CURVE('',#450,#485,#500,.T.);
#500 = SURFACE_CURVE('',#501,(#504),.PCURVE_S1.);
#501 = B_SPLINE_CURVE_WITH_KNOTS('',1,(#502,#503),.UNSPECIFIED.,.F.,.F.,
  (2,2),(-2.679E-03,2.679E-03),.PIECEWISE_BEZIER_KNOTS.);
#502 = CARTESIAN_POINT('',(0.338214285744,0.135000000067,
    1.428571436146E-02));
#503 = CARTESIAN_POINT('',(0.338214285744,0.140357142924,
    1.428571436146E-02));
#504 = PCURVE('',#457,#505);
#505 = DEFINITIONAL_REPRESENTATION('',(#506),#510);
#506 = LINE('',#507,#508);
#507 = CARTESIAN_POINT('',(0.,0.));
#508 = VECTOR('',#509,1.);
#509 = DIRECTION('',(1.,0.));
#510 = ( GEOMETRIC_REPRESENTATION_CONTEXT(2) 
PARAMETRIC_REPRESENTATION_CONTEXT() REPRESENTATION_CONTEXT('2D SPACE',''
  ) );
#511 = ( GEOMETRIC_REPRESENTATION_CONTEXT(3) 
GLOBAL_UNCERTAINTY_ASSIGNED_CONTEXT((#515)) GLOBAL_UNIT_ASSIGNED_CONTEXT
((#512,#513,#514)) REPRESENTATION_CONTEXT('Context #1',
  '3D Context with UNIT and UNCERTAINTY') );
#512 = ( LENGTH_UNIT() NAMED_UNIT(*) SI_UNIT(.MILLI.,.METRE.) );
#513 = ( NAMED_UNIT(*) PLANE_ANGLE_UNIT() SI_UNIT($,.RADIAN.) );
#514 = ( NAMED_UNIT(*) SI_UNIT($,.STERADIAN.) SOLID_ANGLE_UNIT() );
#515 = UNCERTAINTY_MEASURE_WITH_UNIT(LENGTH_MEASURE(1.E-07),#512,
  'distance_accuracy_value','confusion accuracy');
#516 = CONTEXT_DEPENDENT_SHAPE_REPRESENTATION(#517,#519);
#517 = ( REPRESENTATION_RELATIONSHIP('','',#440,#10) 
REPRESENTATION_RELATIONSHIP_WITH_TRANSFORMATION(#518) 
SHAPE_REPRESENTATION_RELATIONSHIP() );
#518 = ITEM_DEFINED_TRANSFORMATION('','',#11,#31);
#519 = PRODUCT_DEFINITION_SHAPE('Placement','Placement of an item',#520
  );
#520 = NEXT_ASSEMBLY_USAGE_OCCURRENCE('5','','',#5,#435,$);
#521 = PRODUCT_RELATED_PRODUCT_CATEGORY('part',$,(#437));
#522 = SHAPE_DEFINITION_REPRESENTATION(#523,#529);
#523 = PRODUCT_DEFINITION_SHAPE('','',#524);
#524 = PRODUCT_DEFINITION('design','',#525,#528);
#525 = PRODUCT_DEFINITION_FORMATION('','',#526);
#526 = PRODUCT('Open CASCADE STEP translator 7.9 1.6',
  'Open CASCADE STEP translator 7.9 1.6','',(#527));
#527 = PRODUCT_CONTEXT('',#2,'mechanical');
#528 = PRODUCT_DEFINITION_CONTEXT('part definition',#2,'design');
#529 = MANIFOLD_SURFACE_SHAPE_REPRESENTATION('',(#11,#530),#600);
#530 = SHELL_BASED_SURFACE_MODEL('',(#531));
#531 = OPEN_SHELL('',(#532));
#532 = ADVANCED_FACE('',(#533),#546,.T.);
#533 = FACE_BOUND('',#534,.T.);
#534 = EDGE_LOOP('',(#535,#557,#572,#587));
#535 = ORIENTED_EDGE('',*,*,#536,.F.);
#536 = EDGE_CURVE('',#537,#539,#541,.T.);
#537 = VERTEX_POINT('',#538);
#538 = CARTESIAN_POINT('',(0.338214285744,0.140357142924,
    8.928571504765E-03));
#539 = VERTEX_POINT('',#540);
#540 = CARTESIAN_POINT('',(0.338214285744,0.140357142924,
    1.428571436146E-02));
#541 = SURFACE_CURVE('',#542,(#545),.PCURVE_S1.);
#542 = B_SPLINE_CURVE_WITH_KNOTS('',1,(#543,#544),.UNSPECIFIED.,.F.,.F.,
  (2,2),(-5.357E-03,0.),.PIECEWISE_BEZIER_KNOTS.);
#543 = CARTESIAN_POINT('',(0.338214285744,0.140357142924,
    8.928571504765E-03));
#544 = CARTESIAN_POINT('',(0.338214285744,0.140357142924,
    1.428571436146E-02));
#545 = PCURVE('',#546,#551);
#546 = B_SPLINE_SURFACE_WITH_KNOTS('',1,1,(
    (#547,#548)
    ,(#549,#550
    )),.UNSPECIFIED.,.F.,.F.,.F.,(2,2),(2,2),(-3.571E-03,3.571E-03),(
    -5.357E-03,0.),.PIECEWISE_BEZIER_KNOTS.);
#547 = CARTESIAN_POINT('',(0.338214285744,0.140357142924,
    8.928571504765E-03));
#548 = CARTESIAN_POINT('',(0.338214285744,0.140357142924,
    1.428571436146E-02));
#549 = CARTESIAN_POINT('',(0.331071428602,0.140357142924,
    8.928571504765E-03));
#550 = CARTESIAN_POINT('',(0.331071428602,0.140357142924,
    1.428571436146E-02));
#551 = DEFINITIONAL_REPRESENTATION('',(#552),#556);
#552 = LINE('',#553,#554);
#553 = CARTESIAN_POINT('',(-3.571E-03,0.));
#554 = VECTOR('',#555,1.);
#555 = DIRECTION('',(0.,1.));
#556 = ( GEOMETRIC_REPRESENTATION_CONTEXT(2) 
PARAMETRIC_REPRESENTATION_CONTEXT() REPRESENTATION_CONTEXT('2D SPACE',''
  ) );
#557 = ORIENTED_EDGE('',*,*,#558,.T.);
#558 = EDGE_CURVE('',#537,#559,#561,.T.);
#559 = VERTEX_POINT('',#560);
#560 = CARTESIAN_POINT('',(0.331071428602,0.140357142924,
    8.928571504765E-03));
#561 = SURFACE_CURVE('',#562,(#565),.PCURVE_S1.);
#562 = B_SPLINE_CURVE_WITH_KNOTS('',1,(#563,#564),.UNSPECIFIED.,.F.,.F.,
  (2,2),(-3.571E-03,3.571E-03),.PIECEWISE_BEZIER_KNOTS.);
#563 = CARTESIAN_POINT('',(0.338214285744,0.140357142924,
    8.928571504765E-03));
#564 = CARTESIAN_POINT('',(0.331071428602,0.140357142924,
    8.928571504765E-03));
#565 = PCURVE('',#546,#566);
#566 = DEFINITIONAL_REPRESENTATION('',(#567),#571);
#567 = LINE('',#568,#569);
#568 = CARTESIAN_POINT('',(0.,-5.357E-03));
#569 = VECTOR('',#570,1.);
#570 = DIRECTION('',(1.,0.));
#571 = ( GEOMETRIC_REPRESENTATION_CONTEXT(2) 
PARAMETRIC_REPRESENTATION_CONTEXT() REPRESENTATION_CONTEXT('2D SPACE',''
  ) );
#572 = ORIENTED_EDGE('',*,*,#573,.T.);
#573 = EDGE_CURVE('',#559,#574,#576,.T.);
#574 = VERTEX_POINT('',#575);
#575 = CARTESIAN_POINT('',(0.331071428602,0.140357142924,
    1.428571436146E-02));
#576 = SURFACE_CURVE('',#577,(#580),.PCURVE_S1.);
#577 = B_SPLINE_CURVE_WITH_KNOTS('',1,(#578,#579),.UNSPECIFIED.,.F.,.F.,
  (2,2),(-5.357E-03,0.),.PIECEWISE_BEZIER_KNOTS.);
#578 = CARTESIAN_POINT('',(0.331071428602,0.140357142924,
    8.928571504765E-03));
#579 = CARTESIAN_POINT('',(0.331071428602,0.140357142924,
    1.428571436146E-02));
#580 = PCURVE('',#546,#581);
#581 = DEFINITIONAL_REPRESENTATION('',(#582),#586);
#582 = LINE('',#583,#584);
#583 = CARTESIAN_POINT('',(3.571E-03,0.));
#584 = VECTOR('',#585,1.);
#585 = DIRECTION('',(0.,1.));
#586 = ( GEOMETRIC_REPRESENTATION_CONTEXT(2) 
PARAMETRIC_REPRESENTATION_CONTEXT() REPRESENTATION_CONTEXT('2D SPACE',''
  ) );
#587 = ORIENTED_EDGE('',*,*,#588,.F.);
#588 = EDGE_CURVE('',#539,#574,#589,.T.);
#589 = SURFACE_CURVE('',#590,(#593),.PCURVE_S1.);
#590 = B_SPLINE_CURVE_WITH_KNOTS('',1,(#591,#592),.UNSPECIFIED.,.F.,.F.,
  (2,2),(-3.571E-03,3.571E-03),.PIECEWISE_BEZIER_KNOTS.);
#591 = CARTESIAN_POINT('',(0.338214285744,0.140357142924,
    1.428571436146E-02));
#592 = CARTESIAN_POINT('',(0.331071428602,0.140357142924,
    1.428571436146E-02));
#593 = PCURVE('',#546,#594);
#594 = DEFINITIONAL_REPRESENTATION('',(#595),#599);
#595 = LINE('',#596,#597);
#596 = CARTESIAN_POINT('',(0.,0.));
#597 = VECTOR('',#598,1.);
#598 = DIRECTION('',(1.,0.));
#599 = ( GEOMETRIC_REPRESENTATION_CONTEXT(2) 
PARAMETRIC_REPRESENTATION_CONTEXT() REPRESENTATION_CONTEXT('2D SPACE',''
  ) );
#600 = ( GEOMETRIC_REPRESENTATION_CONTEXT(3) 
GLOBAL_UNCERTAINTY_ASSIGNED_CONTEXT((#604)) GLOBAL_UNIT_ASSIGNED_CONTEXT
((#601,#602,#603)) REPRESENTATION_CONTEXT('Context #1',
  '3D Context with UNIT and UNCERTAINTY') );
#601 = ( LENGTH_UNIT() NAMED_UNIT(*) SI_UNIT(.MILLI.,.METRE.) );
#602 = ( NAMED_UNIT(*) PLANE_ANGLE_UNIT() SI_UNIT($,.RADIAN.) );
#603 = ( NAMED_UNIT(*) SI_UNIT($,.STERADIAN.) SOLID_ANGLE_UNIT() );
#604 = UNCERTAINTY_MEASURE_WITH_UNIT(LENGTH_MEASURE(1.E-07),#601,
  'distance_accuracy_value','confusion accuracy');
#605 = CONTEXT_DEPENDENT_SHAPE_REPRESENTATION(#606,#608);
#606 = ( REPRESENTATION_RELATIONSHIP('','',#529,#10) 
REPRESENTATION_RELATIONSHIP_WITH_TRANSFORMATION(#607) 
SHAPE_REPRESENTATION_RELATIONSHIP() );
#607 = ITEM_DEFINED_TRANSFORMATION('','',#11,#35);
#608 = PRODUCT_DEFINITION_SHAPE('Placement','Placement of an item',#609
  );
#609 = NEXT_ASSEMBLY_USAGE_OCCURRENCE('6','','',#5,#524,$);
#610 = PRODUCT_RELATED_PRODUCT_CATEGORY('part',$,(#526));
#611 = SHAPE_DEFINITION_REPRESENTATION(#612,#618);
#612 = PRODUCT_DEFINITION_SHAPE('','',#613);
#613 = PRODUCT_DEFINITION('design','',#614,#617);
#614 = PRODUCT_DEFINITION_FORMATION('','',#615);
#615 = PRODUCT('Open CASCADE STEP translator 7.9 1.7',
  'Open CASCADE STEP translator 7.9 1.7','',(#616));
#616 = PRODUCT_CONTEXT('',#2,'mechanical');
#617 = PRODUCT_DEFINITION_CONTEXT('part definition',#2,'design');
#618 = MANIFOLD_SURFACE_SHAPE_REPRESENTATION('',(#11,#619),#689);
#619 = SHELL_BASED_SURFACE_MODEL('',(#620));
#620 = OPEN_SHELL('',(#621));
#621 = ADVANCED_FACE('',(#622),#635,.T.);
#622 = FACE_BOUND('',#623,.T.);
#623 = EDGE_LOOP('',(#624,#646,#661,#676));
#624 = ORIENTED_EDGE('',*,*,#625,.F.);
#625 = EDGE_CURVE('',#626,#628,#630,.T.);
#626 = VERTEX_POINT('',#627);
#627 = CARTESIAN_POINT('',(0.331071428602,0.135000000067,
    8.928571504765E-03));
#628 = VERTEX_POINT('',#629);
#629 = CARTESIAN_POINT('',(0.331071428602,0.135000000067,
    1.428571436146E-02));
#630 = SURFACE_CURVE('',#631,(#634),.PCURVE_S1.);
#631 = B_SPLINE_CURVE_WITH_KNOTS('',1,(#632,#633),.UNSPECIFIED.,.F.,.F.,
  (2,2),(-5.357E-03,0.),.PIECEWISE_BEZIER_KNOTS.);
#632 = CARTESIAN_POINT('',(0.331071428602,0.135000000067,
    8.928571504765E-03));
#633 = CARTESIAN_POINT('',(0.331071428602,0.135000000067,
    1.428571436146E-02));
#634 = PCURVE('',#635,#640);
#635 = B_SPLINE_SURFACE_WITH_KNOTS('',1,1,(
    (#636,#637)
    ,(#638,#639
    )),.UNSPECIFIED.,.F.,.F.,.F.,(2,2),(2,2),(-2.679E-03,2.679E-03),(
    -5.357E-03,0.),.PIECEWISE_BEZIER_KNOTS.);
#636 = CARTESIAN_POINT('',(0.331071428602,0.135000000067,
    8.928571504765E-03));
#637 = CARTESIAN_POINT('',(0.331071428602,0.135000000067,
    1.428571436146E-02));
#638 = CARTESIAN_POINT('',(0.331071428602,0.140357142924,
    8.928571504765E-03));
#639 = CARTESIAN_POINT('',(0.331071428602,0.140357142924,
    1.428571436146E-02));
#640 = DEFINITIONAL_REPRESENTATION('',(#641),#645);
#641 = LINE('',#642,#643);
#642 = CARTESIAN_POINT('',(-2.679E-03,0.));
#643 = VECTOR('',#644,1.);
#644 = DIRECTION('',(0.,1.));
#645 = ( GEOMETRIC_REPRESENTATION_CONTEXT(2) 
PARAMETRIC_REPRESENTATION_CONTEXT() REPRESENTATION_CONTEXT('2D SPACE',''
  ) );
#646 = ORIENTED_EDGE('',*,*,#647,.T.);
#647 = EDGE_CURVE('',#626,#648,#650,.T.);
#648 = VERTEX_POINT('',#649);
#649 = CARTESIAN_POINT('',(0.331071428602,0.140357142924,
    8.928571504765E-03));
#650 = SURFACE_CURVE('',#651,(#654),.PCURVE_S1.);
#651 = B_SPLINE_CURVE_WITH_KNOTS('',1,(#652,#653),.UNSPECIFIED.,.F.,.F.,
  (2,2),(-2.679E-03,2.679E-03),.PIECEWISE_BEZIER_KNOTS.);
#652 = CARTESIAN_POINT('',(0.331071428602,0.135000000067,
    8.928571504765E-03));
#653 = CARTESIAN_POINT('',(0.331071428602,0.140357142924,
    8.928571504765E-03));
#654 = PCURVE('',#635,#655);
#655 = DEFINITIONAL_REPRESENTATION('',(#656),#660);
#656 = LINE('',#657,#658);
#657 = CARTESIAN_POINT('',(0.,-5.357E-03));
#658 = VECTOR('',#659,1.);
#659 = DIRECTION('',(1.,0.));
#660 = ( GEOMETRIC_REPRESENTATION_CONTEXT(2) 
PARAMETRIC_REPRESENTATION_CONTEXT() REPRESENTATION_CONTEXT('2D SPACE',''
  ) );
#661 = ORIENTED_EDGE('',*,*,#662,.T.);
#662 = EDGE_CURVE('',#648,#663,#665,.T.);
#663 = VERTEX_POINT('',#664);
#664 = CARTESIAN_POINT('',(0.331071428602,0.140357142924,
    1.428571436146E-02));
#665 = SURFACE_CURVE('',#666,(#669),.PCURVE_S1.);
#666 = B_SPLINE_CURVE_WITH_KNOTS('',1,(#667,#668),.UNSPECIFIED.,.F.,.F.,
  (2,2),(-5.357E-03,0.),.PIECEWISE_BEZIER_KNOTS.);
#667 = CARTESIAN_POINT('',(0.331071428602,0.140357142924,
    8.928571504765E-03));
#668 = CARTESIAN_POINT('',(0.331071428602,0.140357142924,
    1.428571436146E-02));
#669 = PCURVE('',#635,#670);
#670 = DEFINITIONAL_REPRESENTATION('',(#671),#675);
#671 = LINE('',#672,#673);
#672 = CARTESIAN_POINT('',(2.679E-03,0.));
#673 = VECTOR('',#674,1.);
#674 = DIRECTION('',(0.,1.));
#675 = ( GEOMETRIC_REPRESENTATION_CONTEXT(2) 
PARAMETRIC_REPRESENTATION_CONTEXT() REPRESENTATION_CONTEXT('2D SPACE',''
  ) );
#676 = ORIENTED_EDGE('',*,*,#677,.F.);
#677 = EDGE_CURVE('',#628,#663,#678,.T.);
#678 = SURFACE_CURVE('',#679,(#682),.PCURVE_S1.);
#679 = B_SPLINE_CURVE_WITH_KNOTS('',1,(#680,#681),.UNSPECIFIED.,.F.,.F.,
  (2,2),(-2.679E-03,2.679E-03),.PIECEWISE_BEZIER_KNOTS.);
#680 = CARTESIAN_POINT('',(0.331071428602,0.135000000067,
    1.428571436146E-02));
#681 = CARTESIAN_POINT('',(0.331071428602,0.140357142924,
    1.428571436146E-02));
#682 = PCURVE('',#635,#683);
#683 = DEFINITIONAL_REPRESENTATION('',(#684),#688);
#684 = LINE('',#685,#686);
#685 = CARTESIAN_POINT('',(0.,0.));
#686 = VECTOR('',#687,1.);
#687 = DIRECTION('',(1.,0.));
#688 = ( GEOMETRIC_REPRESENTATION_CONTEXT(2) 
PARAMETRIC_REPRESENTATION_CONTEXT() REPRESENTATION_CONTEXT('2D SPACE',''
  ) );
#689 = ( GEOMETRIC_REPRESENTATION_CONTEXT(3) 
GLOBAL_UNCERTAINTY_ASSIGNED_CONTEXT((#693)) GLOBAL_UNIT_ASSIGNED_CONTEXT
((#690,#691,#692)) REPRESENTATION_CONTEXT('Context #1',
  '3D Context with UNIT and UNCERTAINTY') );
#690 = ( LENGTH_UNIT() NAMED_UNIT(*) SI_UNIT(.MILLI.,.METRE.) );
#691 = ( NAMED_UNIT(*) PLANE_ANGLE_UNIT() SI_UNIT($,.RADIAN.) );
#692 = ( NAMED_UNIT(*) SI_UNIT($,.STERADIAN.) SOLID_ANGLE_UNIT() );
#693 = UNCERTAINTY_MEASURE_WITH_UNIT(LENGTH_MEASURE(1.E-07),#690,
  'distance_accuracy_value','confusion accuracy');
#694 = CONTEXT_DEPENDENT_SHAPE_REPRESENTATION(#695,#697);
#695 = ( REPRESENTATION_RELATIONSHIP('','',#618,#10) 
REPRESENTATION_RELATIONSHIP_WITH_TRANSFORMATION(#696) 
SHAPE_REPRESENTATION_RELATIONSHIP() );
#696 = ITEM_DEFINED_TRANSFORMATION('','',#11,#39);
#697 = PRODUCT_DEFINITION_SHAPE('Placement','Placement of an item',#698
  );
#698 = NEXT_ASSEMBLY_USAGE_OCCURRENCE('7','','',#5,#613,$);
#699 = PRODUCT_RELATED_PRODUCT_CATEGORY('part',$,(#615));
#700 = SHAPE_DEFINITION_REPRESENTATION(#701,#707);
#701 = PRODUCT_DEFINITION_SHAPE('','',#702);
#702 = PRODUCT_DEFINITION('design','',#703,#706);
#703 = PRODUCT_DEFINITION_FORMATION('','',#704);
#704 = PRODUCT('Open CASCADE STEP translator 7.9 1.8',
  'Open CASCADE STEP translator 7.9 1.8','',(#705));
#705 = PRODUCT_CONTEXT('',#2,'mechanical');
#706 = PRODUCT_DEFINITION_CONTEXT('part definition',#2,'design');
#707 = MANIFOLD_SURFACE_SHAPE_REPRESENTATION('',(#11,#708),#778);
#708 = SHELL_BASED_SURFACE_MODEL('',(#709));
#709 = OPEN_SHELL('',(#710));
#710 = ADVANCED_FACE('',(#711),#724,.T.);
#711 = FACE_BOUND('',#712,.T.);
#712 = EDGE_LOOP('',(#713,#735,#750,#765));
#713 = ORIENTED_EDGE('',*,*,#714,.F.);
#714 = EDGE_CURVE('',#715,#717,#719,.T.);
#715 = VERTEX_POINT('',#716);
#716 = CARTESIAN_POINT('',(0.338214285744,0.135000000067,
    8.928571504765E-03));
#717 = VERTEX_POINT('',#718);
#718 = CARTESIAN_POINT('',(0.338214285744,0.135000000067,
    1.428571436146E-02));
#719 = SURFACE_CURVE('',#720,(#723),.PCURVE_S1.);
#720 = B_SPLINE_CURVE_WITH_KNOTS('',1,(#721,#722),.UNSPECIFIED.,.F.,.F.,
  (2,2),(-5.357E-03,0.),.PIECEWISE_BEZIER_KNOTS.);
#721 = CARTESIAN_POINT('',(0.338214285744,0.135000000067,
    8.928571504765E-03));
#722 = CARTESIAN_POINT('',(0.338214285744,0.135000000067,
    1.428571436146E-02));
#723 = PCURVE('',#724,#729);
#724 = B_SPLINE_SURFACE_WITH_KNOTS('',1,1,(
    (#725,#726)
    ,(#727,#728
    )),.UNSPECIFIED.,.F.,.F.,.F.,(2,2),(2,2),(-3.571E-03,3.571E-03),(
    -5.357E-03,0.),.PIECEWISE_BEZIER_KNOTS.);
#725 = CARTESIAN_POINT('',(0.338214285744,0.135000000067,
    8.928571504765E-03));
#726 = CARTESIAN_POINT('',(0.338214285744,0.135000000067,
    1.428571436146E-02));
#727 = CARTESIAN_POINT('',(0.331071428602,0.135000000067,
    8.928571504765E-03));
#728 = CARTESIAN_POINT('',(0.331071428602,0.135000000067,
    1.428571436146E-02));
#729 = DEFINITIONAL_REPRESENTATION('',(#730),#734);
#730 = LINE('',#731,#732);
#731 = CARTESIAN_POINT('',(-3.571E-03,0.));
#732 = VECTOR('',#733,1.);
#733 = DIRECTION('',(0.,1.));
#734 = ( GEOMETRIC_REPRESENTATION_CONTEXT(2) 
PARAMETRIC_REPRESENTATION_CONTEXT() REPRESENTATION_CONTEXT('2D SPACE',''
  ) );
#735 = ORIENTED_EDGE('',*,*,#736,.T.);
#736 = EDGE_CURVE('',#715,#737,#739,.T.);
#737 = VERTEX_POINT('',#738);
#738 = CARTESIAN_POINT('',(0.331071428602,0.135000000067,
    8.928571504765E-03));
#739 = SURFACE_CURVE('',#740,(#743),.PCURVE_S1.);
#740 = B_SPLINE_CURVE_WITH_KNOTS('',1,(#741,#742),.UNSPECIFIED.,.F.,.F.,
  (2,2),(-3.571E-03,3.571E-03),.PIECEWISE_BEZIER_KNOTS.);
#741 = CARTESIAN_POINT('',(0.338214285744,0.135000000067,
    8.928571504765E-03));
#742 = CARTESIAN_POINT('',(0.331071428602,0.135000000067,
    8.928571504765E-03));
#743 = PCURVE('',#724,#744);
#744 = DEFINITIONAL_REPRESENTATION('',(#745),#749);
#745 = LINE('',#746,#747);
#746 = CARTESIAN_POINT('',(0.,-5.357E-03));
#747 = VECTOR('',#748,1.);
#748 = DIRECTION('',(1.,0.));
#749 = ( GEOMETRIC_REPRESENTATION_CONTEXT(2) 
PARAMETRIC_REPRESENTATION_CONTEXT() REPRESENTATION_CONTEXT('2D SPACE',''
  ) );
#750 = ORIENTED_EDGE('',*,*,#751,.T.);
#751 = EDGE_CURVE('',#737,#752,#754,.T.);
#752 = VERTEX_POINT('',#753);
#753 = CARTESIAN_POINT('',(0.331071428602,0.135000000067,
    1.428571436146E-02));
#754 = SURFACE_CURVE('',#755,(#758),.PCURVE_S1.);
#755 = B_SPLINE_CURVE_WITH_KNOTS('',1,(#756,#757),.UNSPECIFIED.,.F.,.F.,
  (2,2),(-5.357E-03,0.),.PIECEWISE_BEZIER_KNOTS.);
#756 = CARTESIAN_POINT('',(0.331071428602,0.135000000067,
    8.928571504765E-03));
#757 = CARTESIAN_POINT('',(0.331071428602,0.135000000067,
    1.428571436146E-02));
#758 = PCURVE('',#724,#759);
#759 = DEFINITIONAL_REPRESENTATION('',(#760),#764);
#760 = LINE('',#761,#762);
#761 = CARTESIAN_POINT('',(3.571E-03,0.));
#762 = VECTOR('',#763,1.);
#763 = DIRECTION('',(0.,1.));
#764 = ( GEOMETRIC_REPRESENTATION_CONTEXT(2) 
PARAMETRIC_REPRESENTATION_CONTEXT() REPRESENTATION_CONTEXT('2D SPACE',''
  ) );
#765 = ORIENTED_EDGE('',*,*,#766,.F.);
#766 = EDGE_CURVE('',#717,#752,#767,.T.);
#767 = SURFACE_CURVE('',#768,(#771),.PCURVE_S1.);
#768 = B_SPLINE_CURVE_WITH_KNOTS('',1,(#769,#770),.UNSPECIFIED.,.F.,.F.,
  (2,2),(-3.571E-03,3.571E-03),.PIECEWISE_BEZIER_KNOTS.);
#769 = CARTESIAN_POINT('',(0.338214285744,0.135000000067,
    1.428571436146E-02));
#770 = CARTESIAN_POINT('',(0.331071428602,0.135000000067,
    1.428571436146E-02));
#771 = PCURVE('',#724,#772);
#772 = DEFINITIONAL_REPRESENTATION('',(#773),#777);
#773 = LINE('',#774,#775);
#774 = CARTESIAN_POINT('',(0.,0.));
#775 = VECTOR('',#776,1.);
#776 = DIRECTION('',(1.,0.));
#777 = ( GEOMETRIC_REPRESENTATION_CONTEXT(2) 
PARAMETRIC_REPRESENTATION_CONTEXT() REPRESENTATION_CONTEXT('2D SPACE',''
  ) );
#778 = ( GEOMETRIC_REPRESENTATION_CONTEXT(3) 
GLOBAL_UNCERTAINTY_ASSIGNED_CONTEXT((#782)) GLOBAL_UNIT_ASSIGNED_CONTEXT
((#779,#780,#781)) REPRESENTATION_CONTEXT('Context #1',
  '3D Context with UNIT and UNCERTAINTY') );
#779 = ( LENGTH_UNIT() NAMED_UNIT(*) SI_UNIT(.MILLI.,.METRE.) );
#780 = ( NAMED_UNIT(*) PLANE_ANGLE_UNIT() SI_UNIT($,.RADIAN.) );
#781 = ( NAMED_UNIT(*) SI_UNIT($,.STERADIAN.) SOLID_ANGLE_UNIT() );
#782 = UNCERTAINTY_MEASURE_WITH_UNIT(LENGTH_MEASURE(1.E-07),#779,
  'distance_accuracy_value','confusion accuracy');
#783 = CONTEXT_DEPENDENT_SHAPE_REPRESENTATION(#784,#786);
#784 = ( REPRESENTATION_RELATIONSHIP('','',#707,#10) 
REPRESENTATION_RELATIONSHIP_WITH_TRANSFORMATION(#785) 
SHAPE_REPRESENTATION_RELATIONSHIP() );
#785 = ITEM_DEFINED_TRANSFORMATION('','',#11,#43);
#786 = PRODUCT_DEFINITION_SHAPE('Placement','Placement of an item',#787
  );
#787 = NEXT_ASSEMBLY_USAGE_OCCURRENCE('8','','',#5,#702,$);
#788 = PRODUCT_RELATED_PRODUCT_CATEGORY('part',$,(#704));
#789 = SHAPE_DEFINITION_REPRESENTATION(#790,#796);
#790 = PRODUCT_DEFINITION_SHAPE('','',#791);
#791 = PRODUCT_DEFINITION('design','',#792,#795);
#792 = PRODUCT_DEFINITION_FORMATION('','',#793);
#793 = PRODUCT('Open CASCADE STEP translator 7.9 1.9',
  'Open CASCADE STEP translator 7.9 1.9','',(#794));
#794 = PRODUCT_CONTEXT('',#2,'mechanical');
#795 = PRODUCT_DEFINITION_CONTEXT('part definition',#2,'design');
#796 = MANIFOLD_SURFACE_SHAPE_REPRESENTATION('',(#11,#797),#867);
#797 = SHELL_BASED_SURFACE_MODEL('',(#798));
#798 = OPEN_SHELL('',(#799));
#799 = ADVANCED_FACE('',(#800),#813,.T.);
#800 = FACE_BOUND('',#801,.T.);
#801 = EDGE_LOOP('',(#802,#824,#839,#854));
#802 = ORIENTED_EDGE('',*,*,#803,.F.);
#803 = EDGE_CURVE('',#804,#806,#808,.T.);
#804 = VERTEX_POINT('',#805);
#805 = CARTESIAN_POINT('',(0.366071428593,0.140357142924,
    8.928571504765E-03));
#806 = VERTEX_POINT('',#807);
#807 = CARTESIAN_POINT('',(0.366071428593,0.140357142924,
    1.428571436146E-02));
#808 = SURFACE_CURVE('',#809,(#812),.PCURVE_S1.);
#809 = B_SPLINE_CURVE_WITH_KNOTS('',1,(#810,#811),.UNSPECIFIED.,.F.,.F.,
  (2,2),(-5.357E-03,0.),.PIECEWISE_BEZIER_KNOTS.);
#810 = CARTESIAN_POINT('',(0.366071428593,0.140357142924,
    8.928571504765E-03));
#811 = CARTESIAN_POINT('',(0.366071428593,0.140357142924,
    1.428571436146E-02));
#812 = PCURVE('',#813,#818);
#813 = B_SPLINE_SURFACE_WITH_KNOTS('',1,1,(
    (#814,#815)
    ,(#816,#817
    )),.UNSPECIFIED.,.F.,.F.,.F.,(2,2),(2,2),(-2.679E-03,2.679E-03),(
    -5.357E-03,0.),.PIECEWISE_BEZIER_KNOTS.);
#814 = CARTESIAN_POINT('',(0.366071428593,0.140357142924,
    8.928571504765E-03));
#815 = CARTESIAN_POINT('',(0.366071428593,0.140357142924,
    1.428571436146E-02));
#816 = CARTESIAN_POINT('',(0.366071428593,0.135000000067,
    8.928571504765E-03));
#817 = CARTESIAN_POINT('',(0.366071428593,0.135000000067,
    1.428571436146E-02));
#818 = DEFINITIONAL_REPRESENTATION('',(#819),#823);
#819 = LINE('',#820,#821);
#820 = CARTESIAN_POINT('',(-2.679E-03,0.));
#821 = VECTOR('',#822,1.);
#822 = DIRECTION('',(0.,1.));
#823 = ( GEOMETRIC_REPRESENTATION_CONTEXT(2) 
PARAMETRIC_REPRESENTATION_CONTEXT() REPRESENTATION_CONTEXT('2D SPACE',''
  ) );
#824 = ORIENTED_EDGE('',*,*,#825,.T.);
#825 = EDGE_CURVE('',#804,#826,#828,.T.);
#826 = VERTEX_POINT('',#827);
#827 = CARTESIAN_POINT('',(0.366071428593,0.135000000067,
    8.928571504765E-03));
#828 = SURFACE_CURVE('',#829,(#832),.PCURVE_S1.);
#829 = B_SPLINE_CURVE_WITH_KNOTS('',1,(#830,#831),.UNSPECIFIED.,.F.,.F.,
  (2,2),(-2.679E-03,2.679E-03),.PIECEWISE_BEZIER_KNOTS.);
#830 = CARTESIAN_POINT('',(0.366071428593,0.140357142924,
    8.928571504765E-03));
#831 = CARTESIAN_POINT('',(0.366071428593,0.135000000067,
    8.928571504765E-03));
#832 = PCURVE('',#813,#833);
#833 = DEFINITIONAL_REPRESENTATION('',(#834),#838);
#834 = LINE('',#835,#836);
#835 = CARTESIAN_POINT('',(0.,-5.357E-03));
#836 = VECTOR('',#837,1.);
#837 = DIRECTION('',(1.,0.));
#838 = ( GEOMETRIC_REPRESENTATION_CONTEXT(2) 
PARAMETRIC_REPRESENTATION_CONTEXT() REPRESENTATION_CONTEXT('2D SPACE',''
  ) );
#839 = ORIENTED_EDGE('',*,*,#840,.T.);
#840 = EDGE_CURVE('',#826,#841,#843,.T.);
#841 = VERTEX_POINT('',#842);
#842 = CARTESIAN_POINT('',(0.366071428593,0.135000000067,
    1.428571436146E-02));
#843 = SURFACE_CURVE('',#844,(#847),.PCURVE_S1.);
#844 = B_SPLINE_CURVE_WITH_KNOTS('',1,(#845,#846),.UNSPECIFIED.,.F.,.F.,
  (2,2),(-5.357E-03,0.),.PIECEWISE_BEZIER_KNOTS.);
#845 = CARTESIAN_POINT('',(0.366071428593,0.135000000067,
    8.928571504765E-03));
#846 = CARTESIAN_POINT('',(0.366071428593,0.135000000067,
    1.428571436146E-02));
#847 = PCURVE('',#813,#848);
#848 = DEFINITIONAL_REPRESENTATION('',(#849),#853);
#849 = LINE('',#850,#851);
#850 = CARTESIAN_POINT('',(2.679E-03,0.));
#851 = VECTOR('',#852,1.);
#852 = DIRECTION('',(0.,1.));
#853 = ( GEOMETRIC_REPRESENTATION_CONTEXT(2) 
PARAMETRIC_REPRESENTATION_CONTEXT() REPRESENTATION_CONTEXT('2D SPACE',''
  ) );
#854 = ORIENTED_EDGE('',*,*,#855,.F.);
#855 = EDGE_CURVE('',#806,#841,#856,.T.);
#856 = SURFACE_CURVE('',#857,(#860),.PCURVE_S1.);
#857 = B_SPLINE_CURVE_WITH_KNOTS('',1,(#858,#859),.UNSPECIFIED.,.F.,.F.,
  (2,2),(-2.679E-03,2.679E-03),.PIECEWISE_BEZIER_KNOTS.);
#858 = CARTESIAN_POINT('',(0.366071428593,0.140357142924,
    1.428571436146E-02));
#859 = CARTESIAN_POINT('',(0.366071428593,0.135000000067,
    1.428571436146E-02));
#860 = PCURVE('',#813,#861);
#861 = DEFINITIONAL_REPRESENTATION('',(#862),#866);
#862 = LINE('',#863,#864);
#863 = CARTESIAN_POINT('',(0.,0.));
#864 = VECTOR('',#865,1.);
#865 = DIRECTION('',(1.,0.));
#866 = ( GEOMETRIC_REPRESENTATION_CONTEXT(2) 
PARAMETRIC_REPRESENTATION_CONTEXT() REPRESENTATION_CONTEXT('2D SPACE',''
  ) );
#867 = ( GEOMETRIC_REPRESENTATION_CONTEXT(3) 
GLOBAL_UNCERTAINTY_ASSIGNED_CONTEXT((#871)) GLOBAL_UNIT_ASSIGNED_CONTEXT
((#868,#869,#870)) REPRESENTATION_CONTEXT('Context #1',
  '3D Context with UNIT and UNCERTAINTY') );
#868 = ( LENGTH_UNIT() NAMED_UNIT(*) SI_UNIT(.MILLI.,.METRE.) );
#869 = ( NAMED_UNIT(*) PLANE_ANGLE_UNIT() SI_UNIT($,.RADIAN.) );
#870 = ( NAMED_UNIT(*) SI_UNIT($,.STERADIAN.) SOLID_ANGLE_UNIT() );
#871 = UNCERTAINTY_MEASURE_WITH_UNIT(LENGTH_MEASURE(1.E-07),#868,
  'distance_accuracy_value','confusion accuracy');
#872 = CONTEXT_DEPENDENT_SHAPE_REPRESENTATION(#873,#875);
#873 = ( REPRESENTATION_RELATIONSHIP('','',#796,#10) 
REPRESENTATION_RELATIONSHIP_WITH_TRANSFORMATION(#874) 
SHAPE_REPRESENTATION_RELATIONSHIP() );
#874 = ITEM_DEFINED_TRANSFORMATION('','',#11,#47);
#875 = PRODUCT_DEFINITION_SHAPE('Placement','Placement of an item',#876
  );
#876 = NEXT_ASSEMBLY_USAGE_OCCURRENCE('9','','',#5,#791,$);
#877 = PRODUCT_RELATED_PRODUCT_CATEGORY('part',$,(#793));
#878 = SHAPE_DEFINITION_REPRESENTATION(#879,#885);
#879 = PRODUCT_DEFINITION_SHAPE('','',#880);
#880 = PRODUCT_DEFINITION('design','',#881,#884);
#881 = PRODUCT_DEFINITION_FORMATION('','',#882);
#882 = PRODUCT('Open CASCADE STEP translator 7.9 1.10',
  'Open CASCADE STEP translator 7.9 1.10','',(#883));
#883 = PRODUCT_CONTEXT('',#2,'mechanical');
#884 = PRODUCT_DEFINITION_CONTEXT('part definition',#2,'design');
#885 = MANIFOLD_SURFACE_SHAPE_REPRESENTATION('',(#11,#886),#956);
#886 = SHELL_BASED_SURFACE_MODEL('',(#887));
#887 = OPEN_SHELL('',(#888));
#888 = ADVANCED_FACE('',(#889),#902,.T.);
#889 = FACE_BOUND('',#890,.T.);
#890 = EDGE_LOOP('',(#891,#913,#928,#943));
#891 = ORIENTED_EDGE('',*,*,#892,.F.);
#892 = EDGE_CURVE('',#893,#895,#897,.T.);
#893 = VERTEX_POINT('',#894);
#894 = CARTESIAN_POINT('',(0.358928571451,0.140357142924,
    8.928571504765E-03));
#895 = VERTEX_POINT('',#896);
#896 = CARTESIAN_POINT('',(0.358928571451,0.140357142924,
    1.428571436146E-02));
#897 = SURFACE_CURVE('',#898,(#901),.PCURVE_S1.);
#898 = B_SPLINE_CURVE_WITH_KNOTS('',1,(#899,#900),.UNSPECIFIED.,.F.,.F.,
  (2,2),(-5.357E-03,0.),.PIECEWISE_BEZIER_KNOTS.);
#899 = CARTESIAN_POINT('',(0.358928571451,0.140357142924,
    8.928571504765E-03));
#900 = CARTESIAN_POINT('',(0.358928571451,0.140357142924,
    1.428571436146E-02));
#901 = PCURVE('',#902,#907);
#902 = B_SPLINE_SURFACE_WITH_KNOTS('',1,1,(
    (#903,#904)
    ,(#905,#906
    )),.UNSPECIFIED.,.F.,.F.,.F.,(2,2),(2,2),(-3.571E-03,3.571E-03),(
    -5.357E-03,0.),.PIECEWISE_BEZIER_KNOTS.);
#903 = CARTESIAN_POINT('',(0.358928571451,0.140357142924,
    8.928571504765E-03));
#904 = CARTESIAN_POINT('',(0.358928571451,0.140357142924,
    1.428571436146E-02));
#905 = CARTESIAN_POINT('',(0.366071428593,0.140357142924,
    8.928571504765E-03));
#906 = CARTESIAN_POINT('',(0.366071428593,0.140357142924,
    1.428571436146E-02));
#907 = DEFINITIONAL_REPRESENTATION('',(#908),#912);
#908 = LINE('',#909,#910);
#909 = CARTESIAN_POINT('',(-3.571E-03,0.));
#910 = VECTOR('',#911,1.);
#911 = DIRECTION('',(0.,1.));
#912 = ( GEOMETRIC_REPRESENTATION_CONTEXT(2) 
PARAMETRIC_REPRESENTATION_CONTEXT() REPRESENTATION_CONTEXT('2D SPACE',''
  ) );
#913 = ORIENTED_EDGE('',*,*,#914,.T.);
#914 = EDGE_CURVE('',#893,#915,#917,.T.);
#915 = VERTEX_POINT('',#916);
#916 = CARTESIAN_POINT('',(0.366071428593,0.140357142924,
    8.928571504765E-03));
#917 = SURFACE_CURVE('',#918,(#921),.PCURVE_S1.);
#918 = B_SPLINE_CURVE_WITH_KNOTS('',1,(#919,#920),.UNSPECIFIED.,.F.,.F.,
  (2,2),(-3.571E-03,3.571E-03),.PIECEWISE_BEZIER_KNOTS.);
#919 = CARTESIAN_POINT('',(0.358928571451,0.140357142924,
    8.928571504765E-03));
#920 = CARTESIAN_POINT('',(0.366071428593,0.140357142924,
    8.928571504765E-03));
#921 = PCURVE('',#902,#922);
#922 = DEFINITIONAL_REPRESENTATION('',(#923),#927);
#923 = LINE('',#924,#925);
#924 = CARTESIAN_POINT('',(0.,-5.357E-03));
#925 = VECTOR('',#926,1.);
#926 = DIRECTION('',(1.,0.));
#927 = ( GEOMETRIC_REPRESENTATION_CONTEXT(2) 
PARAMETRIC_REPRESENTATION_CONTEXT() REPRESENTATION_CONTEXT('2D SPACE',''
  ) );
#928 = ORIENTED_EDGE('',*,*,#929,.T.);
#929 = EDGE_CURVE('',#915,#930,#932,.T.);
#930 = VERTEX_POINT('',#931);
#931 = CARTESIAN_POINT('',(0.366071428593,0.140357142924,
    1.428571436146E-02));
#932 = SURFACE_CURVE('',#933,(#936),.PCURVE_S1.);
#933 = B_SPLINE_CURVE_WITH_KNOTS('',1,(#934,#935),.UNSPECIFIED.,.F.,.F.,
  (2,2),(-5.357E-03,0.),.PIECEWISE_BEZIER_KNOTS.);
#934 = CARTESIAN_POINT('',(0.366071428593,0.140357142924,
    8.928571504765E-03));
#935 = CARTESIAN_POINT('',(0.366071428593,0.140357142924,
    1.428571436146E-02));
#936 = PCURVE('',#902,#937);
#937 = DEFINITIONAL_REPRESENTATION('',(#938),#942);
#938 = LINE('',#939,#940);
#939 = CARTESIAN_POINT('',(3.571E-03,0.));
#940 = VECTOR('',#941,1.);
#941 = DIRECTION('',(0.,1.));
#942 = ( GEOMETRIC_REPRESENTATION_CONTEXT(2) 
PARAMETRIC_REPRESENTATION_CONTEXT() REPRESENTATION_CONTEXT('2D SPACE',''
  ) );
#943 = ORIENTED_EDGE('',*,*,#944,.F.);
#944 = EDGE_CURVE('',#895,#930,#945,.T.);
#945 = SURFACE_CURVE('',#946,(#949),.PCURVE_S1.);
#946 = B_SPLINE_CURVE_WITH_KNOTS('',1,(#947,#948),.UNSPECIFIED.,.F.,.F.,
  (2,2),(-3.571E-03,3.571E-03),.PIECEWISE_BEZIER_KNOTS.);
#947 = CARTESIAN_POINT('',(0.358928571451,0.140357142924,
    1.428571436146E-02));
#948 = CARTESIAN_POINT('',(0.366071428593,0.140357142924,
    1.428571436146E-02));
#949 = PCURVE('',#902,#950);
#950 = DEFINITIONAL_REPRESENTATION('',(#951),#955);
#951 = LINE('',#952,#953);
#952 = CARTESIAN_POINT('',(0.,0.));
#953 = VECTOR('',#954,1.);
#954 = DIRECTION('',(1.,0.));
#955 = ( GEOMETRIC_REPRESENTATION_CONTEXT(2) 
PARAMETRIC_REPRESENTATION_CONTEXT() REPRESENTATION_CONTEXT('2D SPACE',''
  ) );
#956 = ( GEOMETRIC_REPRESENTATION_CONTEXT(3) 
GLOBAL_UNCERTAINTY_ASSIGNED_CONTEXT((#960)) GLOBAL_UNIT_ASSIGNED_CONTEXT
((#957,#958,#959)) REPRESENTATION_CONTEXT('Context #1',
  '3D Context with UNIT and UNCERTAINTY') );
#957 = ( LENGTH_UNIT() NAMED_UNIT(*) SI_UNIT(.MILLI.,.METRE.) );
#958 = ( NAMED_UNIT(*) PLANE_ANGLE_UNIT() SI_UNIT($,.RADIAN.) );
#959 = ( NAMED_UNIT(*) SI_UNIT($,.STERADIAN.) SOLID_ANGLE_UNIT() );
#960 = UNCERTAINTY_MEASURE_WITH_UNIT(LENGTH_MEASURE(1.E-07),#957,
  'distance_accuracy_value','confusion accuracy');
#961 = CONTEXT_DEPENDENT_SHAPE_REPRESENTATION(#962,#964);
#962 = ( REPRESENTATION_RELATIONSHIP('','',#885,#10) 
REPRESENTATION_RELATIONSHIP_WITH_TRANSFORMATION(#963) 
SHAPE_REPRESENTATION_RELATIONSHIP() );
#963 = ITEM_DEFINED_TRANSFORMATION('','',#11,#51);
#964 = PRODUCT_DEFINITION_SHAPE('Placement','Placement of an item',#965
  );
#965 = NEXT_ASSEMBLY_USAGE_OCCURRENCE('10','','',#5,#880,$);
#966 = PRODUCT_RELATED_PRODUCT_CATEGORY('part',$,(#882));
#967 = SHAPE_DEFINITION_REPRESENTATION(#968,#974);
#968 = PRODUCT_DEFINITION_SHAPE('','',#969);
#969 = PRODUCT_DEFINITION('design','',#970,#973);
#970 = PRODUCT_DEFINITION_FORMATION('','',#971);
#971 = PRODUCT('Open CASCADE STEP translator 7.9 1.11',
  'Open CASCADE STEP translator 7.9 1.11','',(#972));
#972 = PRODUCT_CONTEXT('',#2,'mechanical');
#973 = PRODUCT_DEFINITION_CONTEXT('part definition',#2,'design');
#974 = MANIFOLD_SURFACE_SHAPE_REPRESENTATION('',(#11,#975),#1045);
#975 = SHELL_BASED_SURFACE_MODEL('',(#976));
#976 = OPEN_SHELL('',(#977));
#977 = ADVANCED_FACE('',(#978),#991,.T.);
#978 = FACE_BOUND('',#979,.T.);
#979 = EDGE_LOOP('',(#980,#1002,#1017,#1032));
#980 = ORIENTED_EDGE('',*,*,#981,.F.);
#981 = EDGE_CURVE('',#982,#984,#986,.T.);
#982 = VERTEX_POINT('',#983);
#983 = CARTESIAN_POINT('',(0.358928571451,0.135000000067,
    8.928571504765E-03));
#984 = VERTEX_POINT('',#985);
#985 = CARTESIAN_POINT('',(0.358928571451,0.135000000067,
    1.428571436146E-02));
#986 = SURFACE_CURVE('',#987,(#990),.PCURVE_S1.);
#987 = B_SPLINE_CURVE_WITH_KNOTS('',1,(#988,#989),.UNSPECIFIED.,.F.,.F.,
  (2,2),(-5.357E-03,0.),.PIECEWISE_BEZIER_KNOTS.);
#988 = CARTESIAN_POINT('',(0.358928571451,0.135000000067,
    8.928571504765E-03));
#989 = CARTESIAN_POINT('',(0.358928571451,0.135000000067,
    1.428571436146E-02));
#990 = PCURVE('',#991,#996);
#991 = B_SPLINE_SURFACE_WITH_KNOTS('',1,1,(
    (#992,#993)
    ,(#994,#995
    )),.UNSPECIFIED.,.F.,.F.,.F.,(2,2),(2,2),(-2.679E-03,2.679E-03),(
    -5.357E-03,0.),.PIECEWISE_BEZIER_KNOTS.);
#992 = CARTESIAN_POINT('',(0.358928571451,0.135000000067,
    8.928571504765E-03));
#993 = CARTESIAN_POINT('',(0.358928571451,0.135000000067,
    1.428571436146E-02));
#994 = CARTESIAN_POINT('',(0.358928571451,0.140357142924,
    8.928571504765E-03));
#995 = CARTESIAN_POINT('',(0.358928571451,0.140357142924,
    1.428571436146E-02));
#996 = DEFINITIONAL_REPRESENTATION('',(#997),#1001);
#997 = LINE('',#998,#999);
#998 = CARTESIAN_POINT('',(-2.679E-03,0.));
#999 = VECTOR('',#1000,1.);
#1000 = DIRECTION('',(0.,1.));
#1001 = ( GEOMETRIC_REPRESENTATION_CONTEXT(2) 
PARAMETRIC_REPRESENTATION_CONTEXT() REPRESENTATION_CONTEXT('2D SPACE',''
  ) );
#1002 = ORIENTED_EDGE('',*,*,#1003,.T.);
#1003 = EDGE_CURVE('',#982,#1004,#1006,.T.);
#1004 = VERTEX_POINT('',#1005);
#1005 = CARTESIAN_POINT('',(0.358928571451,0.140357142924,
    8.928571504765E-03));
#1006 = SURFACE_CURVE('',#1007,(#1010),.PCURVE_S1.);
#1007 = B_SPLINE_CURVE_WITH_KNOTS('',1,(#1008,#1009),.UNSPECIFIED.,.F.,
  .F.,(2,2),(-2.679E-03,2.679E-03),.PIECEWISE_BEZIER_KNOTS.);
#1008 = CARTESIAN_POINT('',(0.358928571451,0.135000000067,
    8.928571504765E-03));
#1009 = CARTESIAN_POINT('',(0.358928571451,0.140357142924,
    8.928571504765E-03));
#1010 = PCURVE('',#991,#1011);
#1011 = DEFINITIONAL_REPRESENTATION('',(#1012),#1016);
#1012 = LINE('',#1013,#1014);
#1013 = CARTESIAN_POINT('',(0.,-5.357E-03));
#1014 = VECTOR('',#1015,1.);
#1015 = DIRECTION('',(1.,0.));
#1016 = ( GEOMETRIC_REPRESENTATION_CONTEXT(2) 
PARAMETRIC_REPRESENTATION_CONTEXT() REPRESENTATION_CONTEXT('2D SPACE',''
  ) );
#1017 = ORIENTED_EDGE('',*,*,#1018,.T.);
#1018 = EDGE_CURVE('',#1004,#1019,#1021,.T.);
#1019 = VERTEX_POINT('',#1020);
#1020 = CARTESIAN_POINT('',(0.358928571451,0.140357142924,
    1.428571436146E-02));
#1021 = SURFACE_CURVE('',#1022,(#1025),.PCURVE_S1.);
#1022 = B_SPLINE_CURVE_WITH_KNOTS('',1,(#1023,#1024),.UNSPECIFIED.,.F.,
  .F.,(2,2),(-5.357E-03,0.),.PIECEWISE_BEZIER_KNOTS.);
#1023 = CARTESIAN_POINT('',(0.358928571451,0.140357142924,
    8.928571504765E-03));
#1024 = CARTESIAN_POINT('',(0.358928571451,0.140357142924,
    1.428571436146E-02));
#1025 = PCURVE('',#991,#1026);
#1026 = DEFINITIONAL_REPRESENTATION('',(#1027),#1031);
#1027 = LINE('',#1028,#1029);
#1028 = CARTESIAN_POINT('',(2.679E-03,0.));
#1029 = VECTOR('',#1030,1.);
#1030 = DIRECTION('',(0.,1.));
#1031 = ( GEOMETRIC_REPRESENTATION_CONTEXT(2) 
PARAMETRIC_REPRESENTATION_CONTEXT() REPRESENTATION_CONTEXT('2D SPACE',''
  ) );
#1032 = ORIENTED_EDGE('',*,*,#1033,.F.);
#1033 = EDGE_CURVE('',#984,#1019,#1034,.T.);
#1034 = SURFACE_CURVE('',#1035,(#1038),.PCURVE_S1.);
#1035 = B_SPLINE_CURVE_WITH_KNOTS('',1,(#1036,#1037),.UNSPECIFIED.,.F.,
  .F.,(2,2),(-2.679E-03,2.679E-03),.PIECEWISE_BEZIER_KNOTS.);
#1036 = CARTESIAN_POINT('',(0.358928571451,0.135000000067,
    1.428571436146E-02));
#1037 = CARTESIAN_POINT('',(0.358928571451,0.140357142924,
    1.428571436146E-02));
#1038 = PCURVE('',#991,#1039);
#1039 = DEFINITIONAL_REPRESENTATION('',(#1040),#1044);
#1040 = LINE('',#1041,#1042);
#1041 = CARTESIAN_POINT('',(0.,0.));
#1042 = VECTOR('',#1043,1.);
#1043 = DIRECTION('',(1.,0.));
#1044 = ( GEOMETRIC_REPRESENTATION_CONTEXT(2) 
PARAMETRIC_REPRESENTATION_CONTEXT() REPRESENTATION_CONTEXT('2D SPACE',''
  ) );
#1045 = ( GEOMETRIC_REPRESENTATION_CONTEXT(3) 
GLOBAL_UNCERTAINTY_ASSIGNED_CONTEXT((#1049)) 
GLOBAL_UNIT_ASSIGNED_CONTEXT((#1046,#1047,#1048)) REPRESENTATION_CONTEXT
('Context #1','3D Context with UNIT and UNCERTAINTY') );
#1046 = ( LENGTH_UNIT() NAMED_UNIT(*) SI_UNIT(.MILLI.,.METRE.) );
#1047 = ( NAMED_UNIT(*) PLANE_ANGLE_UNIT() SI_UNIT($,.RADIAN.) );
#1048 = ( NAMED_UNIT(*) SI_UNIT($,.STERADIAN.) SOLID_ANGLE_UNIT() );
#1049 = UNCERTAINTY_MEASURE_WITH_UNIT(LENGTH_MEASURE(1.E-07),#1046,
  'distance_accuracy_value','confusion accuracy');
#1050 = CONTEXT_DEPENDENT_SHAPE_REPRESENTATION(#1051,#1053);
#1051 = ( REPRESENTATION_RELATIONSHIP('','',#974,#10) 
REPRESENTATION_RELATIONSHIP_WITH_TRANSFORMATION(#1052) 
SHAPE_REPRESENTATION_RELATIONSHIP() );
#1052 = ITEM_DEFINED_TRANSFORMATION('','',#11,#55);
#1053 = PRODUCT_DEFINITION_SHAPE('Placement','Placement of an item',
  #1054);
#1054 = NEXT_ASSEMBLY_USAGE_OCCURRENCE('11','','',#5,#969,$);
#1055 = PRODUCT_RELATED_PRODUCT_CATEGORY('part',$,(#971));
#1056 = SHAPE_DEFINITION_REPRESENTATION(#1057,#1063);
#1057 = PRODUCT_DEFINITION_SHAPE('','',#1058);
#1058 = PRODUCT_DEFINITION('design','',#1059,#1062);
#1059 = PRODUCT_DEFINITION_FORMATION('','',#1060);
#1060 = PRODUCT('Open CASCADE STEP translator 7.9 1.12',
  'Open CASCADE STEP translator 7.9 1.12','',(#1061));
#1061 = PRODUCT_CONTEXT('',#2,'mechanical');
#1062 = PRODUCT_DEFINITION_CONTEXT('part definition',#2,'design');
#1063 = MANIFOLD_SURFACE_SHAPE_REPRESENTATION('',(#11,#1064),#1134);
#1064 = SHELL_BASED_SURFACE_MODEL('',(#1065));
#1065 = OPEN_SHELL('',(#1066));
#1066 = ADVANCED_FACE('',(#1067),#1080,.T.);
#1067 = FACE_BOUND('',#1068,.T.);
#1068 = EDGE_LOOP('',(#1069,#1091,#1106,#1121));
#1069 = ORIENTED_EDGE('',*,*,#1070,.F.);
#1070 = EDGE_CURVE('',#1071,#1073,#1075,.T.);
#1071 = VERTEX_POINT('',#1072);
#1072 = CARTESIAN_POINT('',(0.358928571451,0.135000000067,
    8.928571504765E-03));
#1073 = VERTEX_POINT('',#1074);
#1074 = CARTESIAN_POINT('',(0.358928571451,0.135000000067,
    1.428571436146E-02));
#1075 = SURFACE_CURVE('',#1076,(#1079),.PCURVE_S1.);
#1076 = B_SPLINE_CURVE_WITH_KNOTS('',1,(#1077,#1078),.UNSPECIFIED.,.F.,
  .F.,(2,2),(-5.357E-03,0.),.PIECEWISE_BEZIER_KNOTS.);
#1077 = CARTESIAN_POINT('',(0.358928571451,0.135000000067,
    8.928571504765E-03));
#1078 = CARTESIAN_POINT('',(0.358928571451,0.135000000067,
    1.428571436146E-02));
#1079 = PCURVE('',#1080,#1085);
#1080 = B_SPLINE_SURFACE_WITH_KNOTS('',1,1,(
    (#1081,#1082)
    ,(#1083,#1084
    )),.UNSPECIFIED.,.F.,.F.,.F.,(2,2),(2,2),(-3.571E-03,3.571E-03),(
    -5.357E-03,0.),.PIECEWISE_BEZIER_KNOTS.);
#1081 = CARTESIAN_POINT('',(0.358928571451,0.135000000067,
    8.928571504765E-03));
#1082 = CARTESIAN_POINT('',(0.358928571451,0.135000000067,
    1.428571436146E-02));
#1083 = CARTESIAN_POINT('',(0.366071428593,0.135000000067,
    8.928571504765E-03));
#1084 = CARTESIAN_POINT('',(0.366071428593,0.135000000067,
    1.428571436146E-02));
#1085 = DEFINITIONAL_REPRESENTATION('',(#1086),#1090);
#1086 = LINE('',#1087,#1088);
#1087 = CARTESIAN_POINT('',(-3.571E-03,0.));
#1088 = VECTOR('',#1089,1.);
#1089 = DIRECTION('',(0.,1.));
#1090 = ( GEOMETRIC_REPRESENTATION_CONTEXT(2) 
PARAMETRIC_REPRESENTATION_CONTEXT() REPRESENTATION_CONTEXT('2D SPACE',''
  ) );
#1091 = ORIENTED_EDGE('',*,*,#1092,.T.);
#1092 = EDGE_CURVE('',#1071,#1093,#1095,.T.);
#1093 = VERTEX_POINT('',#1094);
#1094 = CARTESIAN_POINT('',(0.366071428593,0.135000000067,
    8.928571504765E-03));
#1095 = SURFACE_CURVE('',#1096,(#1099),.PCURVE_S1.);
#1096 = B_SPLINE_CURVE_WITH_KNOTS('',1,(#1097,#1098),.UNSPECIFIED.,.F.,
  .F.,(2,2),(-3.571E-03,3.571E-03),.PIECEWISE_BEZIER_KNOTS.);
#1097 = CARTESIAN_POINT('',(0.358928571451,0.135000000067,
    8.928571504765E-03));
#1098 = CARTESIAN_POINT('',(0.366071428593,0.135000000067,
    8.928571504765E-03));
#1099 = PCURVE('',#1080,#1100);
#1100 = DEFINITIONAL_REPRESENTATION('',(#1101),#1105);
#1101 = LINE('',#1102,#1103);
#1102 = CARTESIAN_POINT('',(0.,-5.357E-03));
#1103 = VECTOR('',#1104,1.);
#1104 = DIRECTION('',(1.,0.));
#1105 = ( GEOMETRIC_REPRESENTATION_CONTEXT(2) 
PARAMETRIC_REPRESENTATION_CONTEXT() REPRESENTATION_CONTEXT('2D SPACE',''
  ) );
#1106 = ORIENTED_EDGE('',*,*,#1107,.T.);
#1107 = EDGE_CURVE('',#1093,#1108,#1110,.T.);
#1108 = VERTEX_POINT('',#1109);
#1109 = CARTESIAN_POINT('',(0.366071428593,0.135000000067,
    1.428571436146E-02));
#1110 = SURFACE_CURVE('',#1111,(#1114),.PCURVE_S1.);
#1111 = B_SPLINE_CURVE_WITH_KNOTS('',1,(#1112,#1113),.UNSPECIFIED.,.F.,
  .F.,(2,2),(-5.357E-03,0.),.PIECEWISE_BEZIER_KNOTS.);
#1112 = CARTESIAN_POINT('',(0.366071428593,0.135000000067,
    8.928571504765E-03));
#1113 = CARTESIAN_POINT('',(0.366071428593,0.135000000067,
    1.428571436146E-02));
#1114 = PCURVE('',#1080,#1115);
#1115 = DEFINITIONAL_REPRESENTATION('',(#1116),#1120);
#1116 = LINE('',#1117,#1118);
#1117 = CARTESIAN_POINT('',(3.571E-03,0.));
#1118 = VECTOR('',#1119,1.);
#1119 = DIRECTION('',(0.,1.));
#1120 = ( GEOMETRIC_REPRESENTATION_CONTEXT(2) 
PARAMETRIC_REPRESENTATION_CONTEXT() REPRESENTATION_CONTEXT('2D SPACE',''
  ) );
#1121 = ORIENTED_EDGE('',*,*,#1122,.F.);
#1122 = EDGE_CURVE('',#1073,#1108,#1123,.T.);
#1123 = SURFACE_CURVE('',#1124,(#1127),.PCURVE_S1.);
#1124 = B_SPLINE_CURVE_WITH_KNOTS('',1,(#1125,#1126),.UNSPECIFIED.,.F.,
  .F.,(2,2),(-3.571E-03,3.571E-03),.PIECEWISE_BEZIER_KNOTS.);
#1125 = CARTESIAN_POINT('',(0.358928571451,0.135000000067,
    1.428571436146E-02));
#1126 = CARTESIAN_POINT('',(0.366071428593,0.135000000067,
    1.428571436146E-02));
#1127 = PCURVE('',#1080,#1128);
#1128 = DEFINITIONAL_REPRESENTATION('',(#1129),#1133);
#1129 = LINE('',#1130,#1131);
#1130 = CARTESIAN_POINT('',(0.,0.));
#1131 = VECTOR('',#1132,1.);
#1132 = DIRECTION('',(1.,0.));
#1133 = ( GEOMETRIC_REPRESENTATION_CONTEXT(2) 
PARAMETRIC_REPRESENTATION_CONTEXT() REPRESENTATION_CONTEXT('2D SPACE',''
  ) );
#1134 = ( GEOMETRIC_REPRESENTATION_CONTEXT(3) 
GLOBAL_UNCERTAINTY_ASSIGNED_CONTEXT((#1138)) 
GLOBAL_UNIT_ASSIGNED_CONTEXT((#1135,#1136,#1137)) REPRESENTATION_CONTEXT
('Context #1','3D Context with UNIT and UNCERTAINTY') );
#1135 = ( LENGTH_UNIT() NAMED_UNIT(*) SI_UNIT(.MILLI.,.METRE.) );
#1136 = ( NAMED_UNIT(*) PLANE_ANGLE_UNIT() SI_UNIT($,.RADIAN.) );
#1137 = ( NAMED_UNIT(*) SI_UNIT($,.STERADIAN.) SOLID_ANGLE_UNIT() );
#1138 = UNCERTAINTY_MEASURE_WITH_UNIT(LENGTH_MEASURE(1.E-07),#1135,
  'distance_accuracy_value','confusion accuracy');
#1139 = CONTEXT_DEPENDENT_SHAPE_REPRESENTATION(#1140,#1142);
#1140 = ( REPRESENTATION_RELATIONSHIP('','',#1063,#10) 
REPRESENTATION_RELATIONSHIP_WITH_TRANSFORMATION(#1141) 
SHAPE_REPRESENTATION_RELATIONSHIP() );
#1141 = ITEM_DEFINED_TRANSFORMATION('','',#11,#59);
#1142 = PRODUCT_DEFINITION_SHAPE('Placement','Placement of an item',
  #1143);
#1143 = NEXT_ASSEMBLY_USAGE_OCCURRENCE('12','','',#5,#1058,$);
#1144 = PRODUCT_RELATED_PRODUCT_CATEGORY('part',$,(#1060));
#1145 = SHAPE_DEFINITION_REPRESENTATION(#1146,#1152);
#1146 = PRODUCT_DEFINITION_SHAPE('','',#1147);
#1147 = PRODUCT_DEFINITION('design','',#1148,#1151);
#1148 = PRODUCT_DEFINITION_FORMATION('','',#1149);
#1149 = PRODUCT('Open CASCADE STEP translator 7.9 1.13',
  'Open CASCADE STEP translator 7.9 1.13','',(#1150));
#1150 = PRODUCT_CONTEXT('',#2,'mechanical');
#1151 = PRODUCT_DEFINITION_CONTEXT('part definition',#2,'design');
#1152 = MANIFOLD_SURFACE_SHAPE_REPRESENTATION('',(#11,#1153),#1223);
#1153 = SHELL_BASED_SURFACE_MODEL('',(#1154));
#1154 = OPEN_SHELL('',(#1155));
#1155 = ADVANCED_FACE('',(#1156),#1169,.T.);
#1156 = FACE_BOUND('',#1157,.T.);
#1157 = EDGE_LOOP('',(#1158,#1180,#1195,#1210));
#1158 = ORIENTED_EDGE('',*,*,#1159,.F.);
#1159 = EDGE_CURVE('',#1160,#1162,#1164,.T.);
#1160 = VERTEX_POINT('',#1161);
#1161 = CARTESIAN_POINT('',(0.323214285743,8.928571435789E-02,
    8.928571504765E-03));
#1162 = VERTEX_POINT('',#1163);
#1163 = CARTESIAN_POINT('',(0.323214285743,0.160714285776,
    8.928571504765E-03));
#1164 = SURFACE_CURVE('',#1165,(#1168),.PCURVE_S1.);
#1165 = B_SPLINE_CURVE_WITH_KNOTS('',1,(#1166,#1167),.UNSPECIFIED.,.F.,
  .F.,(2,2),(-3.5714E-02,3.5714E-02),.PIECEWISE_BEZIER_KNOTS.);
#1166 = CARTESIAN_POINT('',(0.323214285743,8.928571435789E-02,
    8.928571504765E-03));
#1167 = CARTESIAN_POINT('',(0.323214285743,0.160714285776,
    8.928571504765E-03));
#1168 = PCURVE('',#1169,#1174);
#1169 = B_SPLINE_SURFACE_WITH_KNOTS('',1,1,(
    (#1170,#1171)
    ,(#1172,#1173
    )),.UNSPECIFIED.,.F.,.F.,.F.,(2,2),(2,2),(-2.5E-02,2.5E-02),(
    -3.5714E-02,3.5714E-02),.PIECEWISE_BEZIER_KNOTS.);
#1170 = CARTESIAN_POINT('',(0.323214285743,8.928571435789E-02,
    8.928571504765E-03));
#1171 = CARTESIAN_POINT('',(0.323214285743,0.160714285776,
    8.928571504765E-03));
#1172 = CARTESIAN_POINT('',(0.373214285735,8.928571435789E-02,
    8.928571504765E-03));
#1173 = CARTESIAN_POINT('',(0.373214285735,0.160714285776,
    8.928571504765E-03));
#1174 = DEFINITIONAL_REPRESENTATION('',(#1175),#1179);
#1175 = LINE('',#1176,#1177);
#1176 = CARTESIAN_POINT('',(-2.5E-02,0.));
#1177 = VECTOR('',#1178,1.);
#1178 = DIRECTION('',(0.,1.));
#1179 = ( GEOMETRIC_REPRESENTATION_CONTEXT(2) 
PARAMETRIC_REPRESENTATION_CONTEXT() REPRESENTATION_CONTEXT('2D SPACE',''
  ) );
#1180 = ORIENTED_EDGE('',*,*,#1181,.T.);
#1181 = EDGE_CURVE('',#1160,#1182,#1184,.T.);
#1182 = VERTEX_POINT('',#1183);
#1183 = CARTESIAN_POINT('',(0.373214285735,8.928571435789E-02,
    8.928571504765E-03));
#1184 = SURFACE_CURVE('',#1185,(#1188),.PCURVE_S1.);
#1185 = B_SPLINE_CURVE_WITH_KNOTS('',1,(#1186,#1187),.UNSPECIFIED.,.F.,
  .F.,(2,2),(-2.5E-02,2.5E-02),.PIECEWISE_BEZIER_KNOTS.);
#1186 = CARTESIAN_POINT('',(0.323214285743,8.928571435789E-02,
    8.928571504765E-03));
#1187 = CARTESIAN_POINT('',(0.373214285735,8.928571435789E-02,
    8.928571504765E-03));
#1188 = PCURVE('',#1169,#1189);
#1189 = DEFINITIONAL_REPRESENTATION('',(#1190),#1194);
#1190 = LINE('',#1191,#1192);
#1191 = CARTESIAN_POINT('',(0.,-3.5714E-02));
#1192 = VECTOR('',#1193,1.);
#1193 = DIRECTION('',(1.,0.));
#1194 = ( GEOMETRIC_REPRESENTATION_CONTEXT(2) 
PARAMETRIC_REPRESENTATION_CONTEXT() REPRESENTATION_CONTEXT('2D SPACE',''
  ) );
#1195 = ORIENTED_EDGE('',*,*,#1196,.T.);
#1196 = EDGE_CURVE('',#1182,#1197,#1199,.T.);
#1197 = VERTEX_POINT('',#1198);
#1198 = CARTESIAN_POINT('',(0.373214285735,0.160714285776,
    8.928571504765E-03));
#1199 = SURFACE_CURVE('',#1200,(#1203),.PCURVE_S1.);
#1200 = B_SPLINE_CURVE_WITH_KNOTS('',1,(#1201,#1202),.UNSPECIFIED.,.F.,
  .F.,(2,2),(-3.5714E-02,3.5714E-02),.PIECEWISE_BEZIER_KNOTS.);
#1201 = CARTESIAN_POINT('',(0.373214285735,8.928571435789E-02,
    8.928571504765E-03));
#1202 = CARTESIAN_POINT('',(0.373214285735,0.160714285776,
    8.928571504765E-03));
#1203 = PCURVE('',#1169,#1204);
#1204 = DEFINITIONAL_REPRESENTATION('',(#1205),#1209);
#1205 = LINE('',#1206,#1207);
#1206 = CARTESIAN_POINT('',(2.5E-02,0.));
#1207 = VECTOR('',#1208,1.);
#1208 = DIRECTION('',(0.,1.));
#1209 = ( GEOMETRIC_REPRESENTATION_CONTEXT(2) 
PARAMETRIC_REPRESENTATION_CONTEXT() REPRESENTATION_CONTEXT('2D SPACE',''
  ) );
#1210 = ORIENTED_EDGE('',*,*,#1211,.F.);
#1211 = EDGE_CURVE('',#1162,#1197,#1212,.T.);
#1212 = SURFACE_CURVE('',#1213,(#1216),.PCURVE_S1.);
#1213 = B_SPLINE_CURVE_WITH_KNOTS('',1,(#1214,#1215),.UNSPECIFIED.,.F.,
  .F.,(2,2),(-2.5E-02,2.5E-02),.PIECEWISE_BEZIER_KNOTS.);
#1214 = CARTESIAN_POINT('',(0.323214285743,0.160714285776,
    8.928571504765E-03));
#1215 = CARTESIAN_POINT('',(0.373214285735,0.160714285776,
    8.928571504765E-03));
#1216 = PCURVE('',#1169,#1217);
#1217 = DEFINITIONAL_REPRESENTATION('',(#1218),#1222);
#1218 = LINE('',#1219,#1220);
#1219 = CARTESIAN_POINT('',(0.,3.5714E-02));
#1220 = VECTOR('',#1221,1.);
#1221 = DIRECTION('',(1.,0.));
#1222 = ( GEOMETRIC_REPRESENTATION_CONTEXT(2) 
PARAMETRIC_REPRESENTATION_CONTEXT() REPRESENTATION_CONTEXT('2D SPACE',''
  ) );
#1223 = ( GEOMETRIC_REPRESENTATION_CONTEXT(3) 
GLOBAL_UNCERTAINTY_ASSIGNED_CONTEXT((#1227)) 
GLOBAL_UNIT_ASSIGNED_CONTEXT((#1224,#1225,#1226)) REPRESENTATION_CONTEXT
('Context #1','3D Context with UNIT and UNCERTAINTY') );
#1224 = ( LENGTH_UNIT() NAMED_UNIT(*) SI_UNIT(.MILLI.,.METRE.) );
#1225 = ( NAMED_UNIT(*) PLANE_ANGLE_UNIT() SI_UNIT($,.RADIAN.) );
#1226 = ( NAMED_UNIT(*) SI_UNIT($,.STERADIAN.) SOLID_ANGLE_UNIT() );
#1227 = UNCERTAINTY_MEASURE_WITH_UNIT(LENGTH_MEASURE(1.E-07),#1224,
  'distance_accuracy_value','confusion accuracy');
#1228 = CONTEXT_DEPENDENT_SHAPE_REPRESENTATION(#1229,#1231);
#1229 = ( REPRESENTATION_RELATIONSHIP('','',#1152,#10) 
REPRESENTATION_RELATIONSHIP_WITH_TRANSFORMATION(#1230) 
SHAPE_REPRESENTATION_RELATIONSHIP() );
#1230 = ITEM_DEFINED_TRANSFORMATION('','',#11,#63);
#1231 = PRODUCT_DEFINITION_SHAPE('Placement','Placement of an item',
  #1232);
#1232 = NEXT_ASSEMBLY_USAGE_OCCURRENCE('13','','',#5,#1147,$);
#1233 = PRODUCT_RELATED_PRODUCT_CATEGORY('part',$,(#1149));
#1234 = SHAPE_DEFINITION_REPRESENTATION(#1235,#1241);
#1235 = PRODUCT_DEFINITION_SHAPE('','',#1236);
#1236 = PRODUCT_DEFINITION('design','',#1237,#1240);
#1237 = PRODUCT_DEFINITION_FORMATION('','',#1238);
#1238 = PRODUCT('Open CASCADE STEP translator 7.9 1.14',
  'Open CASCADE STEP translator 7.9 1.14','',(#1239));
#1239 = PRODUCT_CONTEXT('',#2,'mechanical');
#1240 = PRODUCT_DEFINITION_CONTEXT('part definition',#2,'design');
#1241 = MANIFOLD_SURFACE_SHAPE_REPRESENTATION('',(#11,#1242),#1312);
#1242 = SHELL_BASED_SURFACE_MODEL('',(#1243));
#1243 = OPEN_SHELL('',(#1244));
#1244 = ADVANCED_FACE('',(#1245),#1258,.T.);
#1245 = FACE_BOUND('',#1246,.T.);
#1246 = EDGE_LOOP('',(#1247,#1269,#1284,#1299));
#1247 = ORIENTED_EDGE('',*,*,#1248,.F.);
#1248 = EDGE_CURVE('',#1249,#1251,#1253,.T.);
#1249 = VERTEX_POINT('',#1250);
#1250 = CARTESIAN_POINT('',(0.323214285743,8.928571435789E-02,
    1.428571436146E-02));
#1251 = VERTEX_POINT('',#1252);
#1252 = CARTESIAN_POINT('',(0.323214285743,0.160714285776,
    1.428571436146E-02));
#1253 = SURFACE_CURVE('',#1254,(#1257),.PCURVE_S1.);
#1254 = B_SPLINE_CURVE_WITH_KNOTS('',1,(#1255,#1256),.UNSPECIFIED.,.F.,
  .F.,(2,2),(-3.5714E-02,3.5714E-02),.PIECEWISE_BEZIER_KNOTS.);
#1255 = CARTESIAN_POINT('',(0.323214285743,8.928571435789E-02,
    1.428571436146E-02));
#1256 = CARTESIAN_POINT('',(0.323214285743,0.160714285776,
    1.428571436146E-02));
#1257 = PCURVE('',#1258,#1263);
#1258 = B_SPLINE_SURFACE_WITH_KNOTS('',1,1,(
    (#1259,#1260)
    ,(#1261,#1262
    )),.UNSPECIFIED.,.F.,.F.,.F.,(2,2),(2,2),(-2.5E-02,2.5E-02),(
    -3.5714E-02,3.5714E-02),.PIECEWISE_BEZIER_KNOTS.);
#1259 = CARTESIAN_POINT('',(0.323214285743,8.928571435789E-02,
    1.428571436146E-02));
#1260 = CARTESIAN_POINT('',(0.323214285743,0.160714285776,
    1.428571436146E-02));
#1261 = CARTESIAN_POINT('',(0.373214285735,8.928571435789E-02,
    1.428571436146E-02));
#1262 = CARTESIAN_POINT('',(0.373214285735,0.160714285776,
    1.428571436146E-02));
#1263 = DEFINITIONAL_REPRESENTATION('',(#1264),#1268);
#1264 = LINE('',#1265,#1266);
#1265 = CARTESIAN_POINT('',(-2.5E-02,0.));
#1266 = VECTOR('',#1267,1.);
#1267 = DIRECTION('',(0.,1.));
#1268 = ( GEOMETRIC_REPRESENTATION_CONTEXT(2) 
PARAMETRIC_REPRESENTATION_CONTEXT() REPRESENTATION_CONTEXT('2D SPACE',''
  ) );
#1269 = ORIENTED_EDGE('',*,*,#1270,.T.);
#1270 = EDGE_CURVE('',#1249,#1271,#1273,.T.);
#1271 = VERTEX_POINT('',#1272);
#1272 = CARTESIAN_POINT('',(0.373214285735,8.928571435789E-02,
    1.428571436146E-02));
#1273 = SURFACE_CURVE('',#1274,(#1277),.PCURVE_S1.);
#1274 = B_SPLINE_CURVE_WITH_KNOTS('',1,(#1275,#1276),.UNSPECIFIED.,.F.,
  .F.,(2,2),(-2.5E-02,2.5E-02),.PIECEWISE_BEZIER_KNOTS.);
#1275 = CARTESIAN_POINT('',(0.323214285743,8.928571435789E-02,
    1.428571436146E-02));
#1276 = CARTESIAN_POINT('',(0.373214285735,8.928571435789E-02,
    1.428571436146E-02));
#1277 = PCURVE('',#1258,#1278);
#1278 = DEFINITIONAL_REPRESENTATION('',(#1279),#1283);
#1279 = LINE('',#1280,#1281);
#1280 = CARTESIAN_POINT('',(0.,-3.5714E-02));
#1281 = VECTOR('',#1282,1.);
#1282 = DIRECTION('',(1.,0.));
#1283 = ( GEOMETRIC_REPRESENTATION_CONTEXT(2) 
PARAMETRIC_REPRESENTATION_CONTEXT() REPRESENTATION_CONTEXT('2D SPACE',''
  ) );
#1284 = ORIENTED_EDGE('',*,*,#1285,.T.);
#1285 = EDGE_CURVE('',#1271,#1286,#1288,.T.);
#1286 = VERTEX_POINT('',#1287);
#1287 = CARTESIAN_POINT('',(0.373214285735,0.160714285776,
    1.428571436146E-02));
#1288 = SURFACE_CURVE('',#1289,(#1292),.PCURVE_S1.);
#1289 = B_SPLINE_CURVE_WITH_KNOTS('',1,(#1290,#1291),.UNSPECIFIED.,.F.,
  .F.,(2,2),(-3.5714E-02,3.5714E-02),.PIECEWISE_BEZIER_KNOTS.);
#1290 = CARTESIAN_POINT('',(0.373214285735,8.928571435789E-02,
    1.428571436146E-02));
#1291 = CARTESIAN_POINT('',(0.373214285735,0.160714285776,
    1.428571436146E-02));
#1292 = PCURVE('',#1258,#1293);
#1293 = DEFINITIONAL_REPRESENTATION('',(#1294),#1298);
#1294 = LINE('',#1295,#1296);
#1295 = CARTESIAN_POINT('',(2.5E-02,0.));
#1296 = VECTOR('',#1297,1.);
#1297 = DIRECTION('',(0.,1.));
#1298 = ( GEOMETRIC_REPRESENTATION_CONTEXT(2) 
PARAMETRIC_REPRESENTATION_CONTEXT() REPRESENTATION_CONTEXT('2D SPACE',''
  ) );
#1299 = ORIENTED_EDGE('',*,*,#1300,.F.);
#1300 = EDGE_CURVE('',#1251,#1286,#1301,.T.);
#1301 = SURFACE_CURVE('',#1302,(#1305),.PCURVE_S1.);
#1302 = B_SPLINE_CURVE_WITH_KNOTS('',1,(#1303,#1304),.UNSPECIFIED.,.F.,
  .F.,(2,2),(-2.5E-02,2.5E-02),.PIECEWISE_BEZIER_KNOTS.);
#1303 = CARTESIAN_POINT('',(0.323214285743,0.160714285776,
    1.428571436146E-02));
#1304 = CARTESIAN_POINT('',(0.373214285735,0.160714285776,
    1.428571436146E-02));
#1305 = PCURVE('',#1258,#1306);
#1306 = DEFINITIONAL_REPRESENTATION('',(#1307),#1311);
#1307 = LINE('',#1308,#1309);
#1308 = CARTESIAN_POINT('',(0.,3.5714E-02));
#1309 = VECTOR('',#1310,1.);
#1310 = DIRECTION('',(1.,0.));
#1311 = ( GEOMETRIC_REPRESENTATION_CONTEXT(2) 
PARAMETRIC_REPRESENTATION_CONTEXT() REPRESENTATION_CONTEXT('2D SPACE',''
  ) );
#1312 = ( GEOMETRIC_REPRESENTATION_CONTEXT(3) 
GLOBAL_UNCERTAINTY_ASSIGNED_CONTEXT((#1316)) 
GLOBAL_UNIT_ASSIGNED_CONTEXT((#1313,#1314,#1315)) REPRESENTATION_CONTEXT
('Context #1','3D Context with UNIT and UNCERTAINTY') );
#1313 = ( LENGTH_UNIT() NAMED_UNIT(*) SI_UNIT(.MILLI.,.METRE.) );
#1314 = ( NAMED_UNIT(*) PLANE_ANGLE_UNIT() SI_UNIT($,.RADIAN.) );
#1315 = ( NAMED_UNIT(*) SI_UNIT($,.STERADIAN.) SOLID_ANGLE_UNIT() );
#1316 = UNCERTAINTY_MEASURE_WITH_UNIT(LENGTH_MEASURE(1.E-07),#1313,
  'distance_accuracy_value','confusion accuracy');
#1317 = CONTEXT_DEPENDENT_SHAPE_REPRESENTATION(#1318,#1320);
#1318 = ( REPRESENTATION_RELATIONSHIP('','',#1241,#10) 
REPRESENTATION_RELATIONSHIP_WITH_TRANSFORMATION(#1319) 
SHAPE_REPRESENTATION_RELATIONSHIP() );
#1319 = ITEM_DEFINED_TRANSFORMATION('','',#11,#67);
#1320 = PRODUCT_DEFINITION_SHAPE('Placement','Placement of an item',
  #1321);
#1321 = NEXT_ASSEMBLY_USAGE_OCCURRENCE('14','','',#5,#1236,$);
#1322 = PRODUCT_RELATED_PRODUCT_CATEGORY('part',$,(#1238));
ENDSEC;
END-ISO-10303-21;
