ISO-10303-21;
HEADER;
FILE_DESCRIPTION(('Open CASCADE Model'),'2;1');
FILE_NAME('Open CASCADE Shape Model','2026-06-29T02:10:36',('Author'),(
    'Open CASCADE'),'Open CASCADE STEP processor 7.9','Open CASCADE 7.9'
  ,'Unknown');
FILE_SCHEMA(('AUTOMOTIVE_DESIGN { 1 0 10303 214 1 1 1 1 }'));
ENDSEC;
DATA;
#1 = APPLICATION_PROTOCOL_DEFINITION('international standard',
  'automotive_design',2000,#2);
#2 = APPLICATION_CONTEXT(
  'core data for automotive mechanical design processes');
#3 = SHAPE_DEFINITION_REPRESENTATION(#4,#10);
#4 = PRODUCT_DEFINITION_SHAPE('','',#5);
#5 = PRODUCT_DEFINITION('design','',#6,#9);
#6 = PRODUCT_DEFINITION_FORMATION('','',#7);
#7 = PRODUCT('Open CASCADE STEP translator 7.9 1',
  'Open CASCADE STEP translator 7.9 1','',(#8));
#8 = PRODUCT_CONTEXT('',#2,'mechanical');
#9 = PRODUCT_DEFINITION_CONTEXT('part definition',#2,'design');
#10 = SHAPE_REPRESENTATION('',(#11,#15,#19,#23,#27,#31,#35,#39,#43,#47),
  #51);
#11 = AXIS2_PLACEMENT_3D('',#12,#13,#14);
#12 = CARTESIAN_POINT('',(0.,0.,0.));
#13 = DIRECTION('',(0.,0.,1.));
#14 = DIRECTION('',(1.,0.,-0.));
#15 = AXIS2_PLACEMENT_3D('',#16,#17,#18);
#16 = CARTESIAN_POINT('',(0.,0.,0.));
#17 = DIRECTION('',(0.,0.,1.));
#18 = DIRECTION('',(1.,0.,-0.));
#19 = AXIS2_PLACEMENT_3D('',#20,#21,#22);
#20 = CARTESIAN_POINT('',(0.,0.,0.));
#21 = DIRECTION('',(0.,0.,1.));
#22 = DIRECTION('',(1.,0.,-0.));
#23 = AXIS2_PLACEMENT_3D('',#24,#25,#26);
#24 = CARTESIAN_POINT('',(0.,0.,0.));
#25 = DIRECTION('',(0.,0.,1.));
#26 = DIRECTION('',(1.,0.,-0.));
#27 = AXIS2_PLACEMENT_3D('',#28,#29,#30);
#28 = CARTESIAN_POINT('',(0.,0.,0.));
#29 = DIRECTION('',(0.,0.,1.));
#30 = DIRECTION('',(1.,0.,-0.));
#31 = AXIS2_PLACEMENT_3D('',#32,#33,#34);
#32 = CARTESIAN_POINT('',(0.,0.,0.));
#33 = DIRECTION('',(0.,0.,1.));
#34 = DIRECTION('',(1.,0.,-0.));
#35 = AXIS2_PLACEMENT_3D('',#36,#37,#38);
#36 = CARTESIAN_POINT('',(0.,0.,0.));
#37 = DIRECTION('',(0.,0.,1.));
#38 = DIRECTION('',(1.,0.,-0.));
#39 = AXIS2_PLACEMENT_3D('',#40,#41,#42);
#40 = CARTESIAN_POINT('',(0.,0.,0.));
#41 = DIRECTION('',(0.,0.,1.));
#42 = DIRECTION('',(1.,0.,-0.));
#43 = AXIS2_PLACEMENT_3D('',#44,#45,#46);
#44 = CARTESIAN_POINT('',(0.,0.,0.));
#45 = DIRECTION('',(0.,0.,1.));
#46 = DIRECTION('',(1.,0.,-0.));
#47 = AXIS2_PLACEMENT_3D('',#48,#49,#50);
#48 = CARTESIAN_POINT('',(0.,0.,0.));
#49 = DIRECTION('',(0.,0.,1.));
#50 = DIRECTION('',(1.,0.,-0.));
#51 = ( GEOMETRIC_REPRESENTATION_CONTEXT(3) 
GLOBAL_UNCERTAINTY_ASSIGNED_CONTEXT((#55)) GLOBAL_UNIT_ASSIGNED_CONTEXT(
(#52,#53,#54)) REPRESENTATION_CONTEXT('Context #1',
  '3D Context with UNIT and UNCERTAINTY') );
#52 = ( LENGTH_UNIT() NAMED_UNIT(*) SI_UNIT(.MILLI.,.METRE.) );
#53 = ( NAMED_UNIT(*) PLANE_ANGLE_UNIT() SI_UNIT($,.RADIAN.) );
#54 = ( NAMED_UNIT(*) SI_UNIT($,.STERADIAN.) SOLID_ANGLE_UNIT() );
#55 = UNCERTAINTY_MEASURE_WITH_UNIT(LENGTH_MEASURE(1.E-07),#52,
  'distance_accuracy_value','confusion accuracy');
#56 = PRODUCT_RELATED_PRODUCT_CATEGORY('part',$,(#7));
#57 = SHAPE_DEFINITION_REPRESENTATION(#58,#64);
#58 = PRODUCT_DEFINITION_SHAPE('','',#59);
#59 = PRODUCT_DEFINITION('design','',#60,#63);
#60 = PRODUCT_DEFINITION_FORMATION('','',#61);
#61 = PRODUCT('Open CASCADE STEP translator 7.9 1.1',
  'Open CASCADE STEP translator 7.9 1.1','',(#62));
#62 = PRODUCT_CONTEXT('',#2,'mechanical');
#63 = PRODUCT_DEFINITION_CONTEXT('part definition',#2,'design');
#64 = MANIFOLD_SURFACE_SHAPE_REPRESENTATION('',(#11,#65),#135);
#65 = SHELL_BASED_SURFACE_MODEL('',(#66));
#66 = OPEN_SHELL('',(#67));
#67 = ADVANCED_FACE('',(#68),#81,.T.);
#68 = FACE_BOUND('',#69,.T.);
#69 = EDGE_LOOP('',(#70,#92,#107,#122));
#70 = ORIENTED_EDGE('',*,*,#71,.F.);
#71 = EDGE_CURVE('',#72,#74,#76,.T.);
#72 = VERTEX_POINT('',#73);
#73 = CARTESIAN_POINT('',(0.101264977574,0.221445325301,0.132027773627)
  );
#74 = VERTEX_POINT('',#75);
#75 = CARTESIAN_POINT('',(0.101264977574,0.304723520717,0.132027773627)
  );
#76 = SURFACE_CURVE('',#77,(#80),.PCURVE_S1.);
#77 = B_SPLINE_CURVE_WITH_KNOTS('',1,(#78,#79),.UNSPECIFIED.,.F.,.F.,(2,
    2),(-4.1639E-02,4.1639E-02),.PIECEWISE_BEZIER_KNOTS.);
#78 = CARTESIAN_POINT('',(0.101264977574,0.221445325301,0.132027773627)
  );
#79 = CARTESIAN_POINT('',(0.101264977574,0.304723520717,0.132027773627)
  );
#80 = PCURVE('',#81,#86);
#81 = B_SPLINE_SURFACE_WITH_KNOTS('',1,1,(
    (#82,#83)
    ,(#84,#85
    )),.UNSPECIFIED.,.F.,.F.,.F.,(2,2),(2,2),(-4.1639E-02,4.1639E-02),(
    -4.1639E-02,4.1639E-02),.PIECEWISE_BEZIER_KNOTS.);
#82 = CARTESIAN_POINT('',(0.101264977574,0.221445325301,0.132027773627)
  );
#83 = CARTESIAN_POINT('',(0.101264977574,0.304723520717,0.132027773627)
  );
#84 = CARTESIAN_POINT('',(0.101264977574,0.221445325301,0.215305969043)
  );
#85 = CARTESIAN_POINT('',(0.101264977574,0.304723520717,0.215305969043)
  );
#86 = DEFINITIONAL_REPRESENTATION('',(#87),#91);
#87 = LINE('',#88,#89);
#88 = CARTESIAN_POINT('',(-4.1639E-02,0.));
#89 = VECTOR('',#90,1.);
#90 = DIRECTION('',(0.,1.));
#91 = ( GEOMETRIC_REPRESENTATION_CONTEXT(2) 
PARAMETRIC_REPRESENTATION_CONTEXT() REPRESENTATION_CONTEXT('2D SPACE',''
  ) );
#92 = ORIENTED_EDGE('',*,*,#93,.T.);
#93 = EDGE_CURVE('',#72,#94,#96,.T.);
#94 = VERTEX_POINT('',#95);
#95 = CARTESIAN_POINT('',(0.101264977574,0.221445325301,0.215305969043)
  );
#96 = SURFACE_CURVE('',#97,(#100),.PCURVE_S1.);
#97 = B_SPLINE_CURVE_WITH_KNOTS('',1,(#98,#99),.UNSPECIFIED.,.F.,.F.,(2,
    2),(-4.1639E-02,4.1639E-02),.PIECEWISE_BEZIER_KNOTS.);
#98 = CARTESIAN_POINT('',(0.101264977574,0.221445325301,0.132027773627)
  );
#99 = CARTESIAN_POINT('',(0.101264977574,0.221445325301,0.215305969043)
  );
#100 = PCURVE('',#81,#101);
#101 = DEFINITIONAL_REPRESENTATION('',(#102),#106);
#102 = LINE('',#103,#104);
#103 = CARTESIAN_POINT('',(0.,-4.1639E-02));
#104 = VECTOR('',#105,1.);
#105 = DIRECTION('',(1.,0.));
#106 = ( GEOMETRIC_REPRESENTATION_CONTEXT(2) 
PARAMETRIC_REPRESENTATION_CONTEXT() REPRESENTATION_CONTEXT('2D SPACE',''
  ) );
#107 = ORIENTED_EDGE('',*,*,#108,.T.);
#108 = EDGE_CURVE('',#94,#109,#111,.T.);
#109 = VERTEX_POINT('',#110);
#110 = CARTESIAN_POINT('',(0.101264977574,0.304723520717,0.215305969043)
  );
#111 = SURFACE_CURVE('',#112,(#115),.PCURVE_S1.);
#112 = B_SPLINE_CURVE_WITH_KNOTS('',1,(#113,#114),.UNSPECIFIED.,.F.,.F.,
  (2,2),(-4.1639E-02,4.1639E-02),.PIECEWISE_BEZIER_KNOTS.);
#113 = CARTESIAN_POINT('',(0.101264977574,0.221445325301,0.215305969043)
  );
#114 = CARTESIAN_POINT('',(0.101264977574,0.304723520717,0.215305969043)
  );
#115 = PCURVE('',#81,#116);
#116 = DEFINITIONAL_REPRESENTATION('',(#117),#121);
#117 = LINE('',#118,#119);
#118 = CARTESIAN_POINT('',(4.1639E-02,0.));
#119 = VECTOR('',#120,1.);
#120 = DIRECTION('',(0.,1.));
#121 = ( GEOMETRIC_REPRESENTATION_CONTEXT(2) 
PARAMETRIC_REPRESENTATION_CONTEXT() REPRESENTATION_CONTEXT('2D SPACE',''
  ) );
#122 = ORIENTED_EDGE('',*,*,#123,.F.);
#123 = EDGE_CURVE('',#74,#109,#124,.T.);
#124 = SURFACE_CURVE('',#125,(#128),.PCURVE_S1.);
#125 = B_SPLINE_CURVE_WITH_KNOTS('',1,(#126,#127),.UNSPECIFIED.,.F.,.F.,
  (2,2),(-4.1639E-02,4.1639E-02),.PIECEWISE_BEZIER_KNOTS.);
#126 = CARTESIAN_POINT('',(0.101264977574,0.304723520717,0.132027773627)
  );
#127 = CARTESIAN_POINT('',(0.101264977574,0.304723520717,0.215305969043)
  );
#128 = PCURVE('',#81,#129);
#129 = DEFINITIONAL_REPRESENTATION('',(#130),#134);
#130 = LINE('',#131,#132);
#131 = CARTESIAN_POINT('',(0.,4.1639E-02));
#132 = VECTOR('',#133,1.);
#133 = DIRECTION('',(1.,0.));
#134 = ( GEOMETRIC_REPRESENTATION_CONTEXT(2) 
PARAMETRIC_REPRESENTATION_CONTEXT() REPRESENTATION_CONTEXT('2D SPACE',''
  ) );
#135 = ( GEOMETRIC_REPRESENTATION_CONTEXT(3) 
GLOBAL_UNCERTAINTY_ASSIGNED_CONTEXT((#139)) GLOBAL_UNIT_ASSIGNED_CONTEXT
((#136,#137,#138)) REPRESENTATION_CONTEXT('Context #1',
  '3D Context with UNIT and UNCERTAINTY') );
#136 = ( LENGTH_UNIT() NAMED_UNIT(*) SI_UNIT(.MILLI.,.METRE.) );
#137 = ( NAMED_UNIT(*) PLANE_ANGLE_UNIT() SI_UNIT($,.RADIAN.) );
#138 = ( NAMED_UNIT(*) SI_UNIT($,.STERADIAN.) SOLID_ANGLE_UNIT() );
#139 = UNCERTAINTY_MEASURE_WITH_UNIT(LENGTH_MEASURE(1.E-07),#136,
  'distance_accuracy_value','confusion accuracy');
#140 = CONTEXT_DEPENDENT_SHAPE_REPRESENTATION(#141,#143);
#141 = ( REPRESENTATION_RELATIONSHIP('','',#64,#10) 
REPRESENTATION_RELATIONSHIP_WITH_TRANSFORMATION(#142) 
SHAPE_REPRESENTATION_RELATIONSHIP() );
#142 = ITEM_DEFINED_TRANSFORMATION('','',#11,#15);
#143 = PRODUCT_DEFINITION_SHAPE('Placement','Placement of an item',#144
  );
#144 = NEXT_ASSEMBLY_USAGE_OCCURRENCE('1','','',#5,#59,$);
#145 = PRODUCT_RELATED_PRODUCT_CATEGORY('part',$,(#61));
#146 = SHAPE_DEFINITION_REPRESENTATION(#147,#153);
#147 = PRODUCT_DEFINITION_SHAPE('','',#148);
#148 = PRODUCT_DEFINITION('design','',#149,#152);
#149 = PRODUCT_DEFINITION_FORMATION('','',#150);
#150 = PRODUCT('Open CASCADE STEP translator 7.9 1.2',
  'Open CASCADE STEP translator 7.9 1.2','',(#151));
#151 = PRODUCT_CONTEXT('',#2,'mechanical');
#152 = PRODUCT_DEFINITION_CONTEXT('part definition',#2,'design');
#153 = MANIFOLD_SURFACE_SHAPE_REPRESENTATION('',(#11,#154),#235);
#154 = SHELL_BASED_SURFACE_MODEL('',(#155));
#155 = OPEN_SHELL('',(#156));
#156 = ADVANCED_FACE('',(#157),#170,.T.);
#157 = FACE_BOUND('',#158,.T.);
#158 = EDGE_LOOP('',(#159,#198,#216,#217));
#159 = ORIENTED_EDGE('',*,*,#160,.F.);
#160 = EDGE_CURVE('',#161,#163,#165,.T.);
#161 = VERTEX_POINT('',#162);
#162 = CARTESIAN_POINT('',(0.101264977574,0.273084215165,0.194036774462)
  );
#163 = VERTEX_POINT('',#164);
#164 = CARTESIAN_POINT('',(0.109592797116,0.273084215165,0.194036774462)
  );
#165 = SEAM_CURVE('',#166,(#169,#191),.PCURVE_S1.);
#166 = B_SPLINE_CURVE_WITH_KNOTS('',1,(#167,#168),.UNSPECIFIED.,.F.,.F.,
  (2,2),(0.,8.328E-03),.PIECEWISE_BEZIER_KNOTS.);
#167 = CARTESIAN_POINT('',(0.101264977574,0.273084215165,0.194036774462)
  );
#168 = CARTESIAN_POINT('',(0.109592797116,0.273084215165,0.194036774462)
  );
#169 = PCURVE('',#170,#185);
#170 = ( BOUNDED_SURFACE() B_SPLINE_SURFACE(2,1,(
    (#171,#172)
    ,(#173,#174)
    ,(#175,#176)
    ,(#177,#178)
    ,(#179,#180)
    ,(#181,#182)
,(#183,#184
    )),.UNSPECIFIED.,.T.,.F.,.F.) B_SPLINE_SURFACE_WITH_KNOTS((1,2,2,2,2
    ,1),(2,2),(-2.094395,0.,2.094395,4.18879,6.283185,8.37758),(0.,
8.328E-03),.UNSPECIFIED.) GEOMETRIC_REPRESENTATION_ITEM() 
RATIONAL_B_SPLINE_SURFACE((
    (1.,1.)
    ,(0.5,0.5)
    ,(1.,1.)
    ,(0.5,0.5)
    ,(1.,1.)
    ,(0.5,0.5)
,(1.,1.))) REPRESENTATION_ITEM('') SURFACE() );
#171 = CARTESIAN_POINT('',(0.101264977574,0.273084215165,0.194036774462)
  );
#172 = CARTESIAN_POINT('',(0.109592797116,0.273084215165,0.194036774462)
  );
#173 = CARTESIAN_POINT('',(0.101264977574,0.26591853478,0.194036774462)
  );
#174 = CARTESIAN_POINT('',(0.109592797116,0.26591853478,0.194036774462)
  );
#175 = CARTESIAN_POINT('',(0.101264977574,0.269501374973,0.187831167056)
  );
#176 = CARTESIAN_POINT('',(0.109592797116,0.269501374973,0.187831167056)
  );
#177 = CARTESIAN_POINT('',(0.101264977574,0.273084215165,0.181625559651)
  );
#178 = CARTESIAN_POINT('',(0.109592797116,0.273084215165,0.181625559651)
  );
#179 = CARTESIAN_POINT('',(0.101264977574,0.276667055357,0.187831167056)
  );
#180 = CARTESIAN_POINT('',(0.109592797116,0.276667055357,0.187831167056)
  );
#181 = CARTESIAN_POINT('',(0.101264977574,0.28024989555,0.194036774462)
  );
#182 = CARTESIAN_POINT('',(0.109592797116,0.28024989555,0.194036774462)
  );
#183 = CARTESIAN_POINT('',(0.101264977574,0.273084215165,0.194036774462)
  );
#184 = CARTESIAN_POINT('',(0.109592797116,0.273084215165,0.194036774462)
  );
#185 = DEFINITIONAL_REPRESENTATION('',(#186),#190);
#186 = LINE('',#187,#188);
#187 = CARTESIAN_POINT('',(0.,0.));
#188 = VECTOR('',#189,1.);
#189 = DIRECTION('',(0.,1.));
#190 = ( GEOMETRIC_REPRESENTATION_CONTEXT(2) 
PARAMETRIC_REPRESENTATION_CONTEXT() REPRESENTATION_CONTEXT('2D SPACE',''
  ) );
#191 = PCURVE('',#170,#192);
#192 = DEFINITIONAL_REPRESENTATION('',(#193),#197);
#193 = LINE('',#194,#195);
#194 = CARTESIAN_POINT('',(6.283185,0.));
#195 = VECTOR('',#196,1.);
#196 = DIRECTION('',(0.,1.));
#197 = ( GEOMETRIC_REPRESENTATION_CONTEXT(2) 
PARAMETRIC_REPRESENTATION_CONTEXT() REPRESENTATION_CONTEXT('2D SPACE',''
  ) );
#198 = ORIENTED_EDGE('',*,*,#199,.T.);
#199 = EDGE_CURVE('',#161,#161,#200,.T.);
#200 = SURFACE_CURVE('',#201,(#209),.PCURVE_S1.);
#201 = ( BOUNDED_CURVE() B_SPLINE_CURVE(2,(#202,#203,#204,#205,#206,#207
,#208),.UNSPECIFIED.,.T.,.F.) B_SPLINE_CURVE_WITH_KNOTS((1,2,2,2,2,1),(
-2.094395,0.,2.094395,4.18879,6.283185,8.37758),.UNSPECIFIED.) CURVE() 
GEOMETRIC_REPRESENTATION_ITEM() RATIONAL_B_SPLINE_CURVE((1.,0.5,1.,0.5,
1.,0.5,1.)) REPRESENTATION_ITEM('') );
#202 = CARTESIAN_POINT('',(0.101264977574,0.273084215165,0.194036774462)
  );
#203 = CARTESIAN_POINT('',(0.101264977574,0.26591853478,0.194036774462)
  );
#204 = CARTESIAN_POINT('',(0.101264977574,0.269501374973,0.187831167056)
  );
#205 = CARTESIAN_POINT('',(0.101264977574,0.273084215165,0.181625559651)
  );
#206 = CARTESIAN_POINT('',(0.101264977574,0.276667055357,0.187831167056)
  );
#207 = CARTESIAN_POINT('',(0.101264977574,0.28024989555,0.194036774462)
  );
#208 = CARTESIAN_POINT('',(0.101264977574,0.273084215165,0.194036774462)
  );
#209 = PCURVE('',#170,#210);
#210 = DEFINITIONAL_REPRESENTATION('',(#211),#215);
#211 = LINE('',#212,#213);
#212 = CARTESIAN_POINT('',(0.,0.));
#213 = VECTOR('',#214,1.);
#214 = DIRECTION('',(1.,0.));
#215 = ( GEOMETRIC_REPRESENTATION_CONTEXT(2) 
PARAMETRIC_REPRESENTATION_CONTEXT() REPRESENTATION_CONTEXT('2D SPACE',''
  ) );
#216 = ORIENTED_EDGE('',*,*,#160,.T.);
#217 = ORIENTED_EDGE('',*,*,#218,.F.);
#218 = EDGE_CURVE('',#163,#163,#219,.T.);
#219 = SURFACE_CURVE('',#220,(#228),.PCURVE_S1.);
#220 = ( BOUNDED_CURVE() B_SPLINE_CURVE(2,(#221,#222,#223,#224,#225,#226
,#227),.UNSPECIFIED.,.T.,.F.) B_SPLINE_CURVE_WITH_KNOTS((1,2,2,2,2,1),(
-2.094395,0.,2.094395,4.18879,6.283185,8.37758),.UNSPECIFIED.) CURVE() 
GEOMETRIC_REPRESENTATION_ITEM() RATIONAL_B_SPLINE_CURVE((1.,0.5,1.,0.5,
1.,0.5,1.)) REPRESENTATION_ITEM('') );
#221 = CARTESIAN_POINT('',(0.109592797116,0.273084215165,0.194036774462)
  );
#222 = CARTESIAN_POINT('',(0.109592797116,0.26591853478,0.194036774462)
  );
#223 = CARTESIAN_POINT('',(0.109592797116,0.269501374973,0.187831167056)
  );
#224 = CARTESIAN_POINT('',(0.109592797116,0.273084215165,0.181625559651)
  );
#225 = CARTESIAN_POINT('',(0.109592797116,0.276667055357,0.187831167056)
  );
#226 = CARTESIAN_POINT('',(0.109592797116,0.28024989555,0.194036774462)
  );
#227 = CARTESIAN_POINT('',(0.109592797116,0.273084215165,0.194036774462)
  );
#228 = PCURVE('',#170,#229);
#229 = DEFINITIONAL_REPRESENTATION('',(#230),#234);
#230 = LINE('',#231,#232);
#231 = CARTESIAN_POINT('',(0.,8.328E-03));
#232 = VECTOR('',#233,1.);
#233 = DIRECTION('',(1.,0.));
#234 = ( GEOMETRIC_REPRESENTATION_CONTEXT(2) 
PARAMETRIC_REPRESENTATION_CONTEXT() REPRESENTATION_CONTEXT('2D SPACE',''
  ) );
#235 = ( GEOMETRIC_REPRESENTATION_CONTEXT(3) 
GLOBAL_UNCERTAINTY_ASSIGNED_CONTEXT((#239)) GLOBAL_UNIT_ASSIGNED_CONTEXT
((#236,#237,#238)) REPRESENTATION_CONTEXT('Context #1',
  '3D Context with UNIT and UNCERTAINTY') );
#236 = ( LENGTH_UNIT() NAMED_UNIT(*) SI_UNIT(.MILLI.,.METRE.) );
#237 = ( NAMED_UNIT(*) PLANE_ANGLE_UNIT() SI_UNIT($,.RADIAN.) );
#238 = ( NAMED_UNIT(*) SI_UNIT($,.STERADIAN.) SOLID_ANGLE_UNIT() );
#239 = UNCERTAINTY_MEASURE_WITH_UNIT(LENGTH_MEASURE(1.E-07),#236,
  'distance_accuracy_value','confusion accuracy');
#240 = CONTEXT_DEPENDENT_SHAPE_REPRESENTATION(#241,#243);
#241 = ( REPRESENTATION_RELATIONSHIP('','',#153,#10) 
REPRESENTATION_RELATIONSHIP_WITH_TRANSFORMATION(#242) 
SHAPE_REPRESENTATION_RELATIONSHIP() );
#242 = ITEM_DEFINED_TRANSFORMATION('','',#11,#19);
#243 = PRODUCT_DEFINITION_SHAPE('Placement','Placement of an item',#244
  );
#244 = NEXT_ASSEMBLY_USAGE_OCCURRENCE('2','','',#5,#148,$);
#245 = PRODUCT_RELATED_PRODUCT_CATEGORY('part',$,(#150));
#246 = SHAPE_DEFINITION_REPRESENTATION(#247,#253);
#247 = PRODUCT_DEFINITION_SHAPE('','',#248);
#248 = PRODUCT_DEFINITION('design','',#249,#252);
#249 = PRODUCT_DEFINITION_FORMATION('','',#250);
#250 = PRODUCT('Open CASCADE STEP translator 7.9 1.3',
  'Open CASCADE STEP translator 7.9 1.3','',(#251));
#251 = PRODUCT_CONTEXT('',#2,'mechanical');
#252 = PRODUCT_DEFINITION_CONTEXT('part definition',#2,'design');
#253 = MANIFOLD_SURFACE_SHAPE_REPRESENTATION('',(#11,#254),#324);
#254 = SHELL_BASED_SURFACE_MODEL('',(#255));
#255 = OPEN_SHELL('',(#256));
#256 = ADVANCED_FACE('',(#257),#270,.T.);
#257 = FACE_BOUND('',#258,.T.);
#258 = EDGE_LOOP('',(#259,#281,#296,#311));
#259 = ORIENTED_EDGE('',*,*,#260,.F.);
#260 = EDGE_CURVE('',#261,#263,#265,.T.);
#261 = VERTEX_POINT('',#262);
#262 = CARTESIAN_POINT('',(0.109592797116,0.221445325301,0.132027773627)
  );
#263 = VERTEX_POINT('',#264);
#264 = CARTESIAN_POINT('',(0.109592797116,0.304723520717,0.132027773627)
  );
#265 = SURFACE_CURVE('',#266,(#269),.PCURVE_S1.);
#266 = B_SPLINE_CURVE_WITH_KNOTS('',1,(#267,#268),.UNSPECIFIED.,.F.,.F.,
  (2,2),(-4.1639E-02,4.1639E-02),.PIECEWISE_BEZIER_KNOTS.);
#267 = CARTESIAN_POINT('',(0.109592797116,0.221445325301,0.132027773627)
  );
#268 = CARTESIAN_POINT('',(0.109592797116,0.304723520717,0.132027773627)
  );
#269 = PCURVE('',#270,#275);
#270 = B_SPLINE_SURFACE_WITH_KNOTS('',1,1,(
    (#271,#272)
    ,(#273,#274
    )),.UNSPECIFIED.,.F.,.F.,.F.,(2,2),(2,2),(-4.1639E-02,4.1639E-02),(
    -4.1639E-02,4.1639E-02),.PIECEWISE_BEZIER_KNOTS.);
#271 = CARTESIAN_POINT('',(0.109592797116,0.221445325301,0.132027773627)
  );
#272 = CARTESIAN_POINT('',(0.109592797116,0.304723520717,0.132027773627)
  );
#273 = CARTESIAN_POINT('',(0.109592797116,0.221445325301,0.215305969043)
  );
#274 = CARTESIAN_POINT('',(0.109592797116,0.304723520717,0.215305969043)
  );
#275 = DEFINITIONAL_REPRESENTATION('',(#276),#280);
#276 = LINE('',#277,#278);
#277 = CARTESIAN_POINT('',(-4.1639E-02,0.));
#278 = VECTOR('',#279,1.);
#279 = DIRECTION('',(0.,1.));
#280 = ( GEOMETRIC_REPRESENTATION_CONTEXT(2) 
PARAMETRIC_REPRESENTATION_CONTEXT() REPRESENTATION_CONTEXT('2D SPACE',''
  ) );
#281 = ORIENTED_EDGE('',*,*,#282,.T.);
#282 = EDGE_CURVE('',#261,#283,#285,.T.);
#283 = VERTEX_POINT('',#284);
#284 = CARTESIAN_POINT('',(0.109592797116,0.221445325301,0.215305969043)
  );
#285 = SURFACE_CURVE('',#286,(#289),.PCURVE_S1.);
#286 = B_SPLINE_CURVE_WITH_KNOTS('',1,(#287,#288),.UNSPECIFIED.,.F.,.F.,
  (2,2),(-4.1639E-02,4.1639E-02),.PIECEWISE_BEZIER_KNOTS.);
#287 = CARTESIAN_POINT('',(0.109592797116,0.221445325301,0.132027773627)
  );
#288 = CARTESIAN_POINT('',(0.109592797116,0.221445325301,0.215305969043)
  );
#289 = PCURVE('',#270,#290);
#290 = DEFINITIONAL_REPRESENTATION('',(#291),#295);
#291 = LINE('',#292,#293);
#292 = CARTESIAN_POINT('',(0.,-4.1639E-02));
#293 = VECTOR('',#294,1.);
#294 = DIRECTION('',(1.,0.));
#295 = ( GEOMETRIC_REPRESENTATION_CONTEXT(2) 
PARAMETRIC_REPRESENTATION_CONTEXT() REPRESENTATION_CONTEXT('2D SPACE',''
  ) );
#296 = ORIENTED_EDGE('',*,*,#297,.T.);
#297 = EDGE_CURVE('',#283,#298,#300,.T.);
#298 = VERTEX_POINT('',#299);
#299 = CARTESIAN_POINT('',(0.109592797116,0.304723520717,0.215305969043)
  );
#300 = SURFACE_CURVE('',#301,(#304),.PCURVE_S1.);
#301 = B_SPLINE_CURVE_WITH_KNOTS('',1,(#302,#303),.UNSPECIFIED.,.F.,.F.,
  (2,2),(-4.1639E-02,4.1639E-02),.PIECEWISE_BEZIER_KNOTS.);
#302 = CARTESIAN_POINT('',(0.109592797116,0.221445325301,0.215305969043)
  );
#303 = CARTESIAN_POINT('',(0.109592797116,0.304723520717,0.215305969043)
  );
#304 = PCURVE('',#270,#305);
#305 = DEFINITIONAL_REPRESENTATION('',(#306),#310);
#306 = LINE('',#307,#308);
#307 = CARTESIAN_POINT('',(4.1639E-02,0.));
#308 = VECTOR('',#309,1.);
#309 = DIRECTION('',(0.,1.));
#310 = ( GEOMETRIC_REPRESENTATION_CONTEXT(2) 
PARAMETRIC_REPRESENTATION_CONTEXT() REPRESENTATION_CONTEXT('2D SPACE',''
  ) );
#311 = ORIENTED_EDGE('',*,*,#312,.F.);
#312 = EDGE_CURVE('',#263,#298,#313,.T.);
#313 = SURFACE_CURVE('',#314,(#317),.PCURVE_S1.);
#314 = B_SPLINE_CURVE_WITH_KNOTS('',1,(#315,#316),.UNSPECIFIED.,.F.,.F.,
  (2,2),(-4.1639E-02,4.1639E-02),.PIECEWISE_BEZIER_KNOTS.);
#315 = CARTESIAN_POINT('',(0.109592797116,0.304723520717,0.132027773627)
  );
#316 = CARTESIAN_POINT('',(0.109592797116,0.304723520717,0.215305969043)
  );
#317 = PCURVE('',#270,#318);
#318 = DEFINITIONAL_REPRESENTATION('',(#319),#323);
#319 = LINE('',#320,#321);
#320 = CARTESIAN_POINT('',(0.,4.1639E-02));
#321 = VECTOR('',#322,1.);
#322 = DIRECTION('',(1.,0.));
#323 = ( GEOMETRIC_REPRESENTATION_CONTEXT(2) 
PARAMETRIC_REPRESENTATION_CONTEXT() REPRESENTATION_CONTEXT('2D SPACE',''
  ) );
#324 = ( GEOMETRIC_REPRESENTATION_CONTEXT(3) 
GLOBAL_UNCERTAINTY_ASSIGNED_CONTEXT((#328)) GLOBAL_UNIT_ASSIGNED_CONTEXT
((#325,#326,#327)) REPRESENTATION_CONTEXT('Context #1',
  '3D Context with UNIT and UNCERTAINTY') );
#325 = ( LENGTH_UNIT() NAMED_UNIT(*) SI_UNIT(.MILLI.,.METRE.) );
#326 = ( NAMED_UNIT(*) PLANE_ANGLE_UNIT() SI_UNIT($,.RADIAN.) );
#327 = ( NAMED_UNIT(*) SI_UNIT($,.STERADIAN.) SOLID_ANGLE_UNIT() );
#328 = UNCERTAINTY_MEASURE_WITH_UNIT(LENGTH_MEASURE(1.E-07),#325,
  'distance_accuracy_value','confusion accuracy');
#329 = CONTEXT_DEPENDENT_SHAPE_REPRESENTATION(#330,#332);
#330 = ( REPRESENTATION_RELATIONSHIP('','',#253,#10) 
REPRESENTATION_RELATIONSHIP_WITH_TRANSFORMATION(#331) 
SHAPE_REPRESENTATION_RELATIONSHIP() );
#331 = ITEM_DEFINED_TRANSFORMATION('','',#11,#23);
#332 = PRODUCT_DEFINITION_SHAPE('Placement','Placement of an item',#333
  );
#333 = NEXT_ASSEMBLY_USAGE_OCCURRENCE('3','','',#5,#248,$);
#334 = PRODUCT_RELATED_PRODUCT_CATEGORY('part',$,(#250));
#335 = SHAPE_DEFINITION_REPRESENTATION(#336,#342);
#336 = PRODUCT_DEFINITION_SHAPE('','',#337);
#337 = PRODUCT_DEFINITION('design','',#338,#341);
#338 = PRODUCT_DEFINITION_FORMATION('','',#339);
#339 = PRODUCT('Open CASCADE STEP translator 7.9 1.4',
  'Open CASCADE STEP translator 7.9 1.4','',(#340));
#340 = PRODUCT_CONTEXT('',#2,'mechanical');
#341 = PRODUCT_DEFINITION_CONTEXT('part definition',#2,'design');
#342 = MANIFOLD_SURFACE_SHAPE_REPRESENTATION('',(#11,#343),#413);
#343 = SHELL_BASED_SURFACE_MODEL('',(#344));
#344 = OPEN_SHELL('',(#345));
#345 = ADVANCED_FACE('',(#346),#359,.T.);
#346 = FACE_BOUND('',#347,.T.);
#347 = EDGE_LOOP('',(#348,#370,#385,#400));
#348 = ORIENTED_EDGE('',*,*,#349,.F.);
#349 = EDGE_CURVE('',#350,#352,#354,.T.);
#350 = VERTEX_POINT('',#351);
#351 = CARTESIAN_POINT('',(0.101264977574,0.221445325301,0.215305969043)
  );
#352 = VERTEX_POINT('',#353);
#353 = CARTESIAN_POINT('',(0.109592797116,0.221445325301,0.215305969043)
  );
#354 = SURFACE_CURVE('',#355,(#358),.PCURVE_S1.);
#355 = B_SPLINE_CURVE_WITH_KNOTS('',1,(#356,#357),.UNSPECIFIED.,.F.,.F.,
  (2,2),(-8.328E-03,0.),.PIECEWISE_BEZIER_KNOTS.);
#356 = CARTESIAN_POINT('',(0.101264977574,0.221445325301,0.215305969043)
  );
#357 = CARTESIAN_POINT('',(0.109592797116,0.221445325301,0.215305969043)
  );
#358 = PCURVE('',#359,#364);
#359 = B_SPLINE_SURFACE_WITH_KNOTS('',1,1,(
    (#360,#361)
    ,(#362,#363
    )),.UNSPECIFIED.,.F.,.F.,.F.,(2,2),(2,2),(-4.1639E-02,4.1639E-02),(
    -8.328E-03,0.),.PIECEWISE_BEZIER_KNOTS.);
#360 = CARTESIAN_POINT('',(0.101264977574,0.221445325301,0.215305969043)
  );
#361 = CARTESIAN_POINT('',(0.109592797116,0.221445325301,0.215305969043)
  );
#362 = CARTESIAN_POINT('',(0.101264977574,0.221445325301,0.132027773627)
  );
#363 = CARTESIAN_POINT('',(0.109592797116,0.221445325301,0.132027773627)
  );
#364 = DEFINITIONAL_REPRESENTATION('',(#365),#369);
#365 = LINE('',#366,#367);
#366 = CARTESIAN_POINT('',(-4.1639E-02,0.));
#367 = VECTOR('',#368,1.);
#368 = DIRECTION('',(0.,1.));
#369 = ( GEOMETRIC_REPRESENTATION_CONTEXT(2) 
PARAMETRIC_REPRESENTATION_CONTEXT() REPRESENTATION_CONTEXT('2D SPACE',''
  ) );
#370 = ORIENTED_EDGE('',*,*,#371,.T.);
#371 = EDGE_CURVE('',#350,#372,#374,.T.);
#372 = VERTEX_POINT('',#373);
#373 = CARTESIAN_POINT('',(0.101264977574,0.221445325301,0.132027773627)
  );
#374 = SURFACE_CURVE('',#375,(#378),.PCURVE_S1.);
#375 = B_SPLINE_CURVE_WITH_KNOTS('',1,(#376,#377),.UNSPECIFIED.,.F.,.F.,
  (2,2),(-4.1639E-02,4.1639E-02),.PIECEWISE_BEZIER_KNOTS.);
#376 = CARTESIAN_POINT('',(0.101264977574,0.221445325301,0.215305969043)
  );
#377 = CARTESIAN_POINT('',(0.101264977574,0.221445325301,0.132027773627)
  );
#378 = PCURVE('',#359,#379);
#379 = DEFINITIONAL_REPRESENTATION('',(#380),#384);
#380 = LINE('',#381,#382);
#381 = CARTESIAN_POINT('',(0.,-8.328E-03));
#382 = VECTOR('',#383,1.);
#383 = DIRECTION('',(1.,0.));
#384 = ( GEOMETRIC_REPRESENTATION_CONTEXT(2) 
PARAMETRIC_REPRESENTATION_CONTEXT() REPRESENTATION_CONTEXT('2D SPACE',''
  ) );
#385 = ORIENTED_EDGE('',*,*,#386,.T.);
#386 = EDGE_CURVE('',#372,#387,#389,.T.);
#387 = VERTEX_POINT('',#388);
#388 = CARTESIAN_POINT('',(0.109592797116,0.221445325301,0.132027773627)
  );
#389 = SURFACE_CURVE('',#390,(#393),.PCURVE_S1.);
#390 = B_SPLINE_CURVE_WITH_KNOTS('',1,(#391,#392),.UNSPECIFIED.,.F.,.F.,
  (2,2),(-8.328E-03,0.),.PIECEWISE_BEZIER_KNOTS.);
#391 = CARTESIAN_POINT('',(0.101264977574,0.221445325301,0.132027773627)
  );
#392 = CARTESIAN_POINT('',(0.109592797116,0.221445325301,0.132027773627)
  );
#393 = PCURVE('',#359,#394);
#394 = DEFINITIONAL_REPRESENTATION('',(#395),#399);
#395 = LINE('',#396,#397);
#396 = CARTESIAN_POINT('',(4.1639E-02,0.));
#397 = VECTOR('',#398,1.);
#398 = DIRECTION('',(0.,1.));
#399 = ( GEOMETRIC_REPRESENTATION_CONTEXT(2) 
PARAMETRIC_REPRESENTATION_CONTEXT() REPRESENTATION_CONTEXT('2D SPACE',''
  ) );
#400 = ORIENTED_EDGE('',*,*,#401,.F.);
#401 = EDGE_CURVE('',#352,#387,#402,.T.);
#402 = SURFACE_CURVE('',#403,(#406),.PCURVE_S1.);
#403 = B_SPLINE_CURVE_WITH_KNOTS('',1,(#404,#405),.UNSPECIFIED.,.F.,.F.,
  (2,2),(-4.1639E-02,4.1639E-02),.PIECEWISE_BEZIER_KNOTS.);
#404 = CARTESIAN_POINT('',(0.109592797116,0.221445325301,0.215305969043)
  );
#405 = CARTESIAN_POINT('',(0.109592797116,0.221445325301,0.132027773627)
  );
#406 = PCURVE('',#359,#407);
#407 = DEFINITIONAL_REPRESENTATION('',(#408),#412);
#408 = LINE('',#409,#410);
#409 = CARTESIAN_POINT('',(0.,0.));
#410 = VECTOR('',#411,1.);
#411 = DIRECTION('',(1.,0.));
#412 = ( GEOMETRIC_REPRESENTATION_CONTEXT(2) 
PARAMETRIC_REPRESENTATION_CONTEXT() REPRESENTATION_CONTEXT('2D SPACE',''
  ) );
#413 = ( GEOMETRIC_REPRESENTATION_CONTEXT(3) 
GLOBAL_UNCERTAINTY_ASSIGNED_CONTEXT((#417)) GLOBAL_UNIT_ASSIGNED_CONTEXT
((#414,#415,#416)) REPRESENTATION_CONTEXT('Context #1',
  '3D Context with UNIT and UNCERTAINTY') );
#414 = ( LENGTH_UNIT() NAMED_UNIT(*) SI_UNIT(.MILLI.,.METRE.) );
#415 = ( NAMED_UNIT(*) PLANE_ANGLE_UNIT() SI_UNIT($,.RADIAN.) );
#416 = ( NAMED_UNIT(*) SI_UNIT($,.STERADIAN.) SOLID_ANGLE_UNIT() );
#417 = UNCERTAINTY_MEASURE_WITH_UNIT(LENGTH_MEASURE(1.E-07),#414,
  'distance_accuracy_value','confusion accuracy');
#418 = CONTEXT_DEPENDENT_SHAPE_REPRESENTATION(#419,#421);
#419 = ( REPRESENTATION_RELATIONSHIP('','',#342,#10) 
REPRESENTATION_RELATIONSHIP_WITH_TRANSFORMATION(#420) 
SHAPE_REPRESENTATION_RELATIONSHIP() );
#420 = ITEM_DEFINED_TRANSFORMATION('','',#11,#27);
#421 = PRODUCT_DEFINITION_SHAPE('Placement','Placement of an item',#422
  );
#422 = NEXT_ASSEMBLY_USAGE_OCCURRENCE('4','','',#5,#337,$);
#423 = PRODUCT_RELATED_PRODUCT_CATEGORY('part',$,(#339));
#424 = SHAPE_DEFINITION_REPRESENTATION(#425,#431);
#425 = PRODUCT_DEFINITION_SHAPE('','',#426);
#426 = PRODUCT_DEFINITION('design','',#427,#430);
#427 = PRODUCT_DEFINITION_FORMATION('','',#428);
#428 = PRODUCT('Open CASCADE STEP translator 7.9 1.5',
  'Open CASCADE STEP translator 7.9 1.5','',(#429));
#429 = PRODUCT_CONTEXT('',#2,'mechanical');
#430 = PRODUCT_DEFINITION_CONTEXT('part definition',#2,'design');
#431 = MANIFOLD_SURFACE_SHAPE_REPRESENTATION('',(#11,#432),#502);
#432 = SHELL_BASED_SURFACE_MODEL('',(#433));
#433 = OPEN_SHELL('',(#434));
#434 = ADVANCED_FACE('',(#435),#448,.T.);
#435 = FACE_BOUND('',#436,.T.);
#436 = EDGE_LOOP('',(#437,#459,#474,#489));
#437 = ORIENTED_EDGE('',*,*,#438,.F.);
#438 = EDGE_CURVE('',#439,#441,#443,.T.);
#439 = VERTEX_POINT('',#440);
#440 = CARTESIAN_POINT('',(0.101264977574,0.221445325301,0.215305969043)
  );
#441 = VERTEX_POINT('',#442);
#442 = CARTESIAN_POINT('',(0.101264977574,0.304723520717,0.215305969043)
  );
#443 = SURFACE_CURVE('',#444,(#447),.PCURVE_S1.);
#444 = B_SPLINE_CURVE_WITH_KNOTS('',1,(#445,#446),.UNSPECIFIED.,.F.,.F.,
  (2,2),(-4.1639E-02,4.1639E-02),.PIECEWISE_BEZIER_KNOTS.);
#445 = CARTESIAN_POINT('',(0.101264977574,0.221445325301,0.215305969043)
  );
#446 = CARTESIAN_POINT('',(0.101264977574,0.304723520717,0.215305969043)
  );
#447 = PCURVE('',#448,#453);
#448 = B_SPLINE_SURFACE_WITH_KNOTS('',1,1,(
    (#449,#450)
    ,(#451,#452
  )),.UNSPECIFIED.,.F.,.F.,.F.,(2,2),(2,2),(-8.328E-03,0.),(-4.1639E-02,
    4.1639E-02),.PIECEWISE_BEZIER_KNOTS.);
#449 = CARTESIAN_POINT('',(0.101264977574,0.221445325301,0.215305969043)
  );
#450 = CARTESIAN_POINT('',(0.101264977574,0.304723520717,0.215305969043)
  );
#451 = CARTESIAN_POINT('',(0.109592797116,0.221445325301,0.215305969043)
  );
#452 = CARTESIAN_POINT('',(0.109592797116,0.304723520717,0.215305969043)
  );
#453 = DEFINITIONAL_REPRESENTATION('',(#454),#458);
#454 = LINE('',#455,#456);
#455 = CARTESIAN_POINT('',(-8.328E-03,0.));
#456 = VECTOR('',#457,1.);
#457 = DIRECTION('',(0.,1.));
#458 = ( GEOMETRIC_REPRESENTATION_CONTEXT(2) 
PARAMETRIC_REPRESENTATION_CONTEXT() REPRESENTATION_CONTEXT('2D SPACE',''
  ) );
#459 = ORIENTED_EDGE('',*,*,#460,.T.);
#460 = EDGE_CURVE('',#439,#461,#463,.T.);
#461 = VERTEX_POINT('',#462);
#462 = CARTESIAN_POINT('',(0.109592797116,0.221445325301,0.215305969043)
  );
#463 = SURFACE_CURVE('',#464,(#467),.PCURVE_S1.);
#464 = B_SPLINE_CURVE_WITH_KNOTS('',1,(#465,#466),.UNSPECIFIED.,.F.,.F.,
  (2,2),(-8.328E-03,0.),.PIECEWISE_BEZIER_KNOTS.);
#465 = CARTESIAN_POINT('',(0.101264977574,0.221445325301,0.215305969043)
  );
#466 = CARTESIAN_POINT('',(0.109592797116,0.221445325301,0.215305969043)
  );
#467 = PCURVE('',#448,#468);
#468 = DEFINITIONAL_REPRESENTATION('',(#469),#473);
#469 = LINE('',#470,#471);
#470 = CARTESIAN_POINT('',(0.,-4.1639E-02));
#471 = VECTOR('',#472,1.);
#472 = DIRECTION('',(1.,0.));
#473 = ( GEOMETRIC_REPRESENTATION_CONTEXT(2) 
PARAMETRIC_REPRESENTATION_CONTEXT() REPRESENTATION_CONTEXT('2D SPACE',''
  ) );
#474 = ORIENTED_EDGE('',*,*,#475,.T.);
#475 = EDGE_CURVE('',#461,#476,#478,.T.);
#476 = VERTEX_POINT('',#477);
#477 = CARTESIAN_POINT('',(0.109592797116,0.304723520717,0.215305969043)
  );
#478 = SURFACE_CURVE('',#479,(#482),.PCURVE_S1.);
#479 = B_SPLINE_CURVE_WITH_KNOTS('',1,(#480,#481),.UNSPECIFIED.,.F.,.F.,
  (2,2),(-4.1639E-02,4.1639E-02),.PIECEWISE_BEZIER_KNOTS.);
#480 = CARTESIAN_POINT('',(0.109592797116,0.221445325301,0.215305969043)
  );
#481 = CARTESIAN_POINT('',(0.109592797116,0.304723520717,0.215305969043)
  );
#482 = PCURVE('',#448,#483);
#483 = DEFINITIONAL_REPRESENTATION('',(#484),#488);
#484 = LINE('',#485,#486);
#485 = CARTESIAN_POINT('',(0.,0.));
#486 = VECTOR('',#487,1.);
#487 = DIRECTION('',(0.,1.));
#488 = ( GEOMETRIC_REPRESENTATION_CONTEXT(2) 
PARAMETRIC_REPRESENTATION_CONTEXT() REPRESENTATION_CONTEXT('2D SPACE',''
  ) );
#489 = ORIENTED_EDGE('',*,*,#490,.F.);
#490 = EDGE_CURVE('',#441,#476,#491,.T.);
#491 = SURFACE_CURVE('',#492,(#495),.PCURVE_S1.);
#492 = B_SPLINE_CURVE_WITH_KNOTS('',1,(#493,#494),.UNSPECIFIED.,.F.,.F.,
  (2,2),(-8.328E-03,0.),.PIECEWISE_BEZIER_KNOTS.);
#493 = CARTESIAN_POINT('',(0.101264977574,0.304723520717,0.215305969043)
  );
#494 = CARTESIAN_POINT('',(0.109592797116,0.304723520717,0.215305969043)
  );
#495 = PCURVE('',#448,#496);
#496 = DEFINITIONAL_REPRESENTATION('',(#497),#501);
#497 = LINE('',#498,#499);
#498 = CARTESIAN_POINT('',(0.,4.1639E-02));
#499 = VECTOR('',#500,1.);
#500 = DIRECTION('',(1.,0.));
#501 = ( GEOMETRIC_REPRESENTATION_CONTEXT(2) 
PARAMETRIC_REPRESENTATION_CONTEXT() REPRESENTATION_CONTEXT('2D SPACE',''
  ) );
#502 = ( GEOMETRIC_REPRESENTATION_CONTEXT(3) 
GLOBAL_UNCERTAINTY_ASSIGNED_CONTEXT((#506)) GLOBAL_UNIT_ASSIGNED_CONTEXT
((#503,#504,#505)) REPRESENTATION_CONTEXT('Context #1',
  '3D Context with UNIT and UNCERTAINTY') );
#503 = ( LENGTH_UNIT() NAMED_UNIT(*) SI_UNIT(.MILLI.,.METRE.) );
#504 = ( NAMED_UNIT(*) PLANE_ANGLE_UNIT() SI_UNIT($,.RADIAN.) );
#505 = ( NAMED_UNIT(*) SI_UNIT($,.STERADIAN.) SOLID_ANGLE_UNIT() );
#506 = UNCERTAINTY_MEASURE_WITH_UNIT(LENGTH_MEASURE(1.E-07),#503,
  'distance_accuracy_value','confusion accuracy');
#507 = CONTEXT_DEPENDENT_SHAPE_REPRESENTATION(#508,#510);
#508 = ( REPRESENTATION_RELATIONSHIP('','',#431,#10) 
REPRESENTATION_RELATIONSHIP_WITH_TRANSFORMATION(#509) 
SHAPE_REPRESENTATION_RELATIONSHIP() );
#509 = ITEM_DEFINED_TRANSFORMATION('','',#11,#31);
#510 = PRODUCT_DEFINITION_SHAPE('Placement','Placement of an item',#511
  );
#511 = NEXT_ASSEMBLY_USAGE_OCCURRENCE('5','','',#5,#426,$);
#512 = PRODUCT_RELATED_PRODUCT_CATEGORY('part',$,(#428));
#513 = SHAPE_DEFINITION_REPRESENTATION(#514,#520);
#514 = PRODUCT_DEFINITION_SHAPE('','',#515);
#515 = PRODUCT_DEFINITION('design','',#516,#519);
#516 = PRODUCT_DEFINITION_FORMATION('','',#517);
#517 = PRODUCT('Open CASCADE STEP translator 7.9 1.6',
  'Open CASCADE STEP translator 7.9 1.6','',(#518));
#518 = PRODUCT_CONTEXT('',#2,'mechanical');
#519 = PRODUCT_DEFINITION_CONTEXT('part definition',#2,'design');
#520 = MANIFOLD_SURFACE_SHAPE_REPRESENTATION('',(#11,#521),#591);
#521 = SHELL_BASED_SURFACE_MODEL('',(#522));
#522 = OPEN_SHELL('',(#523));
#523 = ADVANCED_FACE('',(#524),#537,.T.);
#524 = FACE_BOUND('',#525,.T.);
#525 = EDGE_LOOP('',(#526,#548,#563,#578));
#526 = ORIENTED_EDGE('',*,*,#527,.F.);
#527 = EDGE_CURVE('',#528,#530,#532,.T.);
#528 = VERTEX_POINT('',#529);
#529 = CARTESIAN_POINT('',(0.101264977574,0.221445325301,0.132027773627)
  );
#530 = VERTEX_POINT('',#531);
#531 = CARTESIAN_POINT('',(0.109592797116,0.221445325301,0.132027773627)
  );
#532 = SURFACE_CURVE('',#533,(#536),.PCURVE_S1.);
#533 = B_SPLINE_CURVE_WITH_KNOTS('',1,(#534,#535),.UNSPECIFIED.,.F.,.F.,
  (2,2),(-8.328E-03,0.),.PIECEWISE_BEZIER_KNOTS.);
#534 = CARTESIAN_POINT('',(0.101264977574,0.221445325301,0.132027773627)
  );
#535 = CARTESIAN_POINT('',(0.109592797116,0.221445325301,0.132027773627)
  );
#536 = PCURVE('',#537,#542);
#537 = B_SPLINE_SURFACE_WITH_KNOTS('',1,1,(
    (#538,#539)
    ,(#540,#541
    )),.UNSPECIFIED.,.F.,.F.,.F.,(2,2),(2,2),(-4.1639E-02,4.1639E-02),(
    -8.328E-03,0.),.PIECEWISE_BEZIER_KNOTS.);
#538 = CARTESIAN_POINT('',(0.101264977574,0.221445325301,0.132027773627)
  );
#539 = CARTESIAN_POINT('',(0.109592797116,0.221445325301,0.132027773627)
  );
#540 = CARTESIAN_POINT('',(0.101264977574,0.304723520717,0.132027773627)
  );
#541 = CARTESIAN_POINT('',(0.109592797116,0.304723520717,0.132027773627)
  );
#542 = DEFINITIONAL_REPRESENTATION('',(#543),#547);
#543 = LINE('',#544,#545);
#544 = CARTESIAN_POINT('',(-4.1639E-02,0.));
#545 = VECTOR('',#546,1.);
#546 = DIRECTION('',(0.,1.));
#547 = ( GEOMETRIC_REPRESENTATION_CONTEXT(2) 
PARAMETRIC_REPRESENTATION_CONTEXT() REPRESENTATION_CONTEXT('2D SPACE',''
  ) );
#548 = ORIENTED_EDGE('',*,*,#549,.T.);
#549 = EDGE_CURVE('',#528,#550,#552,.T.);
#550 = VERTEX_POINT('',#551);
#551 = CARTESIAN_POINT('',(0.101264977574,0.304723520717,0.132027773627)
  );
#552 = SURFACE_CURVE('',#553,(#556),.PCURVE_S1.);
#553 = B_SPLINE_CURVE_WITH_KNOTS('',1,(#554,#555),.UNSPECIFIED.,.F.,.F.,
  (2,2),(-4.1639E-02,4.1639E-02),.PIECEWISE_BEZIER_KNOTS.);
#554 = CARTESIAN_POINT('',(0.101264977574,0.221445325301,0.132027773627)
  );
#555 = CARTESIAN_POINT('',(0.101264977574,0.304723520717,0.132027773627)
  );
#556 = PCURVE('',#537,#557);
#557 = DEFINITIONAL_REPRESENTATION('',(#558),#562);
#558 = LINE('',#559,#560);
#559 = CARTESIAN_POINT('',(0.,-8.328E-03));
#560 = VECTOR('',#561,1.);
#561 = DIRECTION('',(1.,0.));
#562 = ( GEOMETRIC_REPRESENTATION_CONTEXT(2) 
PARAMETRIC_REPRESENTATION_CONTEXT() REPRESENTATION_CONTEXT('2D SPACE',''
  ) );
#563 = ORIENTED_EDGE('',*,*,#564,.T.);
#564 = EDGE_CURVE('',#550,#565,#567,.T.);
#565 = VERTEX_POINT('',#566);
#566 = CARTESIAN_POINT('',(0.109592797116,0.304723520717,0.132027773627)
  );
#567 = SURFACE_CURVE('',#568,(#571),.PCURVE_S1.);
#568 = B_SPLINE_CURVE_WITH_KNOTS('',1,(#569,#570),.UNSPECIFIED.,.F.,.F.,
  (2,2),(-8.328E-03,0.),.PIECEWISE_BEZIER_KNOTS.);
#569 = CARTESIAN_POINT('',(0.101264977574,0.304723520717,0.132027773627)
  );
#570 = CARTESIAN_POINT('',(0.109592797116,0.304723520717,0.132027773627)
  );
#571 = PCURVE('',#537,#572);
#572 = DEFINITIONAL_REPRESENTATION('',(#573),#577);
#573 = LINE('',#574,#575);
#574 = CARTESIAN_POINT('',(4.1639E-02,0.));
#575 = VECTOR('',#576,1.);
#576 = DIRECTION('',(0.,1.));
#577 = ( GEOMETRIC_REPRESENTATION_CONTEXT(2) 
PARAMETRIC_REPRESENTATION_CONTEXT() REPRESENTATION_CONTEXT('2D SPACE',''
  ) );
#578 = ORIENTED_EDGE('',*,*,#579,.F.);
#579 = EDGE_CURVE('',#530,#565,#580,.T.);
#580 = SURFACE_CURVE('',#581,(#584),.PCURVE_S1.);
#581 = B_SPLINE_CURVE_WITH_KNOTS('',1,(#582,#583),.UNSPECIFIED.,.F.,.F.,
  (2,2),(-4.1639E-02,4.1639E-02),.PIECEWISE_BEZIER_KNOTS.);
#582 = CARTESIAN_POINT('',(0.109592797116,0.221445325301,0.132027773627)
  );
#583 = CARTESIAN_POINT('',(0.109592797116,0.304723520717,0.132027773627)
  );
#584 = PCURVE('',#537,#585);
#585 = DEFINITIONAL_REPRESENTATION('',(#586),#590);
#586 = LINE('',#587,#588);
#587 = CARTESIAN_POINT('',(0.,0.));
#588 = VECTOR('',#589,1.);
#589 = DIRECTION('',(1.,0.));
#590 = ( GEOMETRIC_REPRESENTATION_CONTEXT(2) 
PARAMETRIC_REPRESENTATION_CONTEXT() REPRESENTATION_CONTEXT('2D SPACE',''
  ) );
#591 = ( GEOMETRIC_REPRESENTATION_CONTEXT(3) 
GLOBAL_UNCERTAINTY_ASSIGNED_CONTEXT((#595)) GLOBAL_UNIT_ASSIGNED_CONTEXT
((#592,#593,#594)) REPRESENTATION_CONTEXT('Context #1',
  '3D Context with UNIT and UNCERTAINTY') );
#592 = ( LENGTH_UNIT() NAMED_UNIT(*) SI_UNIT(.MILLI.,.METRE.) );
#593 = ( NAMED_UNIT(*) PLANE_ANGLE_UNIT() SI_UNIT($,.RADIAN.) );
#594 = ( NAMED_UNIT(*) SI_UNIT($,.STERADIAN.) SOLID_ANGLE_UNIT() );
#595 = UNCERTAINTY_MEASURE_WITH_UNIT(LENGTH_MEASURE(1.E-07),#592,
  'distance_accuracy_value','confusion accuracy');
#596 = CONTEXT_DEPENDENT_SHAPE_REPRESENTATION(#597,#599);
#597 = ( REPRESENTATION_RELATIONSHIP('','',#520,#10) 
REPRESENTATION_RELATIONSHIP_WITH_TRANSFORMATION(#598) 
SHAPE_REPRESENTATION_RELATIONSHIP() );
#598 = ITEM_DEFINED_TRANSFORMATION('','',#11,#35);
#599 = PRODUCT_DEFINITION_SHAPE('Placement','Placement of an item',#600
  );
#600 = NEXT_ASSEMBLY_USAGE_OCCURRENCE('6','','',#5,#515,$);
#601 = PRODUCT_RELATED_PRODUCT_CATEGORY('part',$,(#517));
#602 = SHAPE_DEFINITION_REPRESENTATION(#603,#609);
#603 = PRODUCT_DEFINITION_SHAPE('','',#604);
#604 = PRODUCT_DEFINITION('design','',#605,#608);
#605 = PRODUCT_DEFINITION_FORMATION('','',#606);
#606 = PRODUCT('Open CASCADE STEP translator 7.9 1.7',
  'Open CASCADE STEP translator 7.9 1.7','',(#607));
#607 = PRODUCT_CONTEXT('',#2,'mechanical');
#608 = PRODUCT_DEFINITION_CONTEXT('part definition',#2,'design');
#609 = MANIFOLD_SURFACE_SHAPE_REPRESENTATION('',(#11,#610),#680);
#610 = SHELL_BASED_SURFACE_MODEL('',(#611));
#611 = OPEN_SHELL('',(#612));
#612 = ADVANCED_FACE('',(#613),#626,.T.);
#613 = FACE_BOUND('',#614,.T.);
#614 = EDGE_LOOP('',(#615,#637,#652,#667));
#615 = ORIENTED_EDGE('',*,*,#616,.F.);
#616 = EDGE_CURVE('',#617,#619,#621,.T.);
#617 = VERTEX_POINT('',#618);
#618 = CARTESIAN_POINT('',(0.101264977574,0.304723520717,0.215305969043)
  );
#619 = VERTEX_POINT('',#620);
#620 = CARTESIAN_POINT('',(0.109592797116,0.304723520717,0.215305969043)
  );
#621 = SURFACE_CURVE('',#622,(#625),.PCURVE_S1.);
#622 = B_SPLINE_CURVE_WITH_KNOTS('',1,(#623,#624),.UNSPECIFIED.,.F.,.F.,
  (2,2),(-8.328E-03,0.),.PIECEWISE_BEZIER_KNOTS.);
#623 = CARTESIAN_POINT('',(0.101264977574,0.304723520717,0.215305969043)
  );
#624 = CARTESIAN_POINT('',(0.109592797116,0.304723520717,0.215305969043)
  );
#625 = PCURVE('',#626,#631);
#626 = B_SPLINE_SURFACE_WITH_KNOTS('',1,1,(
    (#627,#628)
    ,(#629,#630
    )),.UNSPECIFIED.,.F.,.F.,.F.,(2,2),(2,2),(-4.1639E-02,4.1639E-02),(
    -8.328E-03,0.),.PIECEWISE_BEZIER_KNOTS.);
#627 = CARTESIAN_POINT('',(0.101264977574,0.304723520717,0.215305969043)
  );
#628 = CARTESIAN_POINT('',(0.109592797116,0.304723520717,0.215305969043)
  );
#629 = CARTESIAN_POINT('',(0.101264977574,0.304723520717,0.132027773627)
  );
#630 = CARTESIAN_POINT('',(0.109592797116,0.304723520717,0.132027773627)
  );
#631 = DEFINITIONAL_REPRESENTATION('',(#632),#636);
#632 = LINE('',#633,#634);
#633 = CARTESIAN_POINT('',(-4.1639E-02,0.));
#634 = VECTOR('',#635,1.);
#635 = DIRECTION('',(0.,1.));
#636 = ( GEOMETRIC_REPRESENTATION_CONTEXT(2) 
PARAMETRIC_REPRESENTATION_CONTEXT() REPRESENTATION_CONTEXT('2D SPACE',''
  ) );
#637 = ORIENTED_EDGE('',*,*,#638,.T.);
#638 = EDGE_CURVE('',#617,#639,#641,.T.);
#639 = VERTEX_POINT('',#640);
#640 = CARTESIAN_POINT('',(0.101264977574,0.304723520717,0.132027773627)
  );
#641 = SURFACE_CURVE('',#642,(#645),.PCURVE_S1.);
#642 = B_SPLINE_CURVE_WITH_KNOTS('',1,(#643,#644),.UNSPECIFIED.,.F.,.F.,
  (2,2),(-4.1639E-02,4.1639E-02),.PIECEWISE_BEZIER_KNOTS.);
#643 = CARTESIAN_POINT('',(0.101264977574,0.304723520717,0.215305969043)
  );
#644 = CARTESIAN_POINT('',(0.101264977574,0.304723520717,0.132027773627)
  );
#645 = PCURVE('',#626,#646);
#646 = DEFINITIONAL_REPRESENTATION('',(#647),#651);
#647 = LINE('',#648,#649);
#648 = CARTESIAN_POINT('',(0.,-8.328E-03));
#649 = VECTOR('',#650,1.);
#650 = DIRECTION('',(1.,0.));
#651 = ( GEOMETRIC_REPRESENTATION_CONTEXT(2) 
PARAMETRIC_REPRESENTATION_CONTEXT() REPRESENTATION_CONTEXT('2D SPACE',''
  ) );
#652 = ORIENTED_EDGE('',*,*,#653,.T.);
#653 = EDGE_CURVE('',#639,#654,#656,.T.);
#654 = VERTEX_POINT('',#655);
#655 = CARTESIAN_POINT('',(0.109592797116,0.304723520717,0.132027773627)
  );
#656 = SURFACE_CURVE('',#657,(#660),.PCURVE_S1.);
#657 = B_SPLINE_CURVE_WITH_KNOTS('',1,(#658,#659),.UNSPECIFIED.,.F.,.F.,
  (2,2),(-8.328E-03,0.),.PIECEWISE_BEZIER_KNOTS.);
#658 = CARTESIAN_POINT('',(0.101264977574,0.304723520717,0.132027773627)
  );
#659 = CARTESIAN_POINT('',(0.109592797116,0.304723520717,0.132027773627)
  );
#660 = PCURVE('',#626,#661);
#661 = DEFINITIONAL_REPRESENTATION('',(#662),#666);
#662 = LINE('',#663,#664);
#663 = CARTESIAN_POINT('',(4.1639E-02,0.));
#664 = VECTOR('',#665,1.);
#665 = DIRECTION('',(0.,1.));
#666 = ( GEOMETRIC_REPRESENTATION_CONTEXT(2) 
PARAMETRIC_REPRESENTATION_CONTEXT() REPRESENTATION_CONTEXT('2D SPACE',''
  ) );
#667 = ORIENTED_EDGE('',*,*,#668,.F.);
#668 = EDGE_CURVE('',#619,#654,#669,.T.);
#669 = SURFACE_CURVE('',#670,(#673),.PCURVE_S1.);
#670 = B_SPLINE_CURVE_WITH_KNOTS('',1,(#671,#672),.UNSPECIFIED.,.F.,.F.,
  (2,2),(-4.1639E-02,4.1639E-02),.PIECEWISE_BEZIER_KNOTS.);
#671 = CARTESIAN_POINT('',(0.109592797116,0.304723520717,0.215305969043)
  );
#672 = CARTESIAN_POINT('',(0.109592797116,0.304723520717,0.132027773627)
  );
#673 = PCURVE('',#626,#674);
#674 = DEFINITIONAL_REPRESENTATION('',(#675),#679);
#675 = LINE('',#676,#677);
#676 = CARTESIAN_POINT('',(0.,0.));
#677 = VECTOR('',#678,1.);
#678 = DIRECTION('',(1.,0.));
#679 = ( GEOMETRIC_REPRESENTATION_CONTEXT(2) 
PARAMETRIC_REPRESENTATION_CONTEXT() REPRESENTATION_CONTEXT('2D SPACE',''
  ) );
#680 = ( GEOMETRIC_REPRESENTATION_CONTEXT(3) 
GLOBAL_UNCERTAINTY_ASSIGNED_CONTEXT((#684)) GLOBAL_UNIT_ASSIGNED_CONTEXT
((#681,#682,#683)) REPRESENTATION_CONTEXT('Context #1',
  '3D Context with UNIT and UNCERTAINTY') );
#681 = ( LENGTH_UNIT() NAMED_UNIT(*) SI_UNIT(.MILLI.,.METRE.) );
#682 = ( NAMED_UNIT(*) PLANE_ANGLE_UNIT() SI_UNIT($,.RADIAN.) );
#683 = ( NAMED_UNIT(*) SI_UNIT($,.STERADIAN.) SOLID_ANGLE_UNIT() );
#684 = UNCERTAINTY_MEASURE_WITH_UNIT(LENGTH_MEASURE(1.E-07),#681,
  'distance_accuracy_value','confusion accuracy');
#685 = CONTEXT_DEPENDENT_SHAPE_REPRESENTATION(#686,#688);
#686 = ( REPRESENTATION_RELATIONSHIP('','',#609,#10) 
REPRESENTATION_RELATIONSHIP_WITH_TRANSFORMATION(#687) 
SHAPE_REPRESENTATION_RELATIONSHIP() );
#687 = ITEM_DEFINED_TRANSFORMATION('','',#11,#39);
#688 = PRODUCT_DEFINITION_SHAPE('Placement','Placement of an item',#689
  );
#689 = NEXT_ASSEMBLY_USAGE_OCCURRENCE('7','','',#5,#604,$);
#690 = PRODUCT_RELATED_PRODUCT_CATEGORY('part',$,(#606));
#691 = SHAPE_DEFINITION_REPRESENTATION(#692,#698);
#692 = PRODUCT_DEFINITION_SHAPE('','',#693);
#693 = PRODUCT_DEFINITION('design','',#694,#697);
#694 = PRODUCT_DEFINITION_FORMATION('','',#695);
#695 = PRODUCT('Open CASCADE STEP translator 7.9 1.8',
  'Open CASCADE STEP translator 7.9 1.8','',(#696));
#696 = PRODUCT_CONTEXT('',#2,'mechanical');
#697 = PRODUCT_DEFINITION_CONTEXT('part definition',#2,'design');
#698 = MANIFOLD_SURFACE_SHAPE_REPRESENTATION('',(#11,#699),#780);
#699 = SHELL_BASED_SURFACE_MODEL('',(#700));
#700 = OPEN_SHELL('',(#701));
#701 = ADVANCED_FACE('',(#702),#715,.T.);
#702 = FACE_BOUND('',#703,.T.);
#703 = EDGE_LOOP('',(#704,#743,#761,#762));
#704 = ORIENTED_EDGE('',*,*,#705,.F.);
#705 = EDGE_CURVE('',#706,#708,#710,.T.);
#706 = VERTEX_POINT('',#707);
#707 = CARTESIAN_POINT('',(0.101264977574,0.273084215165,0.161193369007)
  );
#708 = VERTEX_POINT('',#709);
#709 = CARTESIAN_POINT('',(0.109592797116,0.273084215165,0.161193369007)
  );
#710 = SEAM_CURVE('',#711,(#714,#736),.PCURVE_S1.);
#711 = B_SPLINE_CURVE_WITH_KNOTS('',1,(#712,#713),.UNSPECIFIED.,.F.,.F.,
  (2,2),(0.,8.328E-03),.PIECEWISE_BEZIER_KNOTS.);
#712 = CARTESIAN_POINT('',(0.101264977574,0.273084215165,0.161193369007)
  );
#713 = CARTESIAN_POINT('',(0.109592797116,0.273084215165,0.161193369007)
  );
#714 = PCURVE('',#715,#730);
#715 = ( BOUNDED_SURFACE() B_SPLINE_SURFACE(2,1,(
    (#716,#717)
    ,(#718,#719)
    ,(#720,#721)
    ,(#722,#723)
    ,(#724,#725)
    ,(#726,#727)
,(#728,#729
    )),.UNSPECIFIED.,.T.,.F.,.F.) B_SPLINE_SURFACE_WITH_KNOTS((1,2,2,2,2
    ,1),(2,2),(-2.094395,0.,2.094395,4.18879,6.283185,8.37758),(0.,
8.328E-03),.UNSPECIFIED.) GEOMETRIC_REPRESENTATION_ITEM() 
RATIONAL_B_SPLINE_SURFACE((
    (1.,1.)
    ,(0.5,0.5)
    ,(1.,1.)
    ,(0.5,0.5)
    ,(1.,1.)
    ,(0.5,0.5)
,(1.,1.))) REPRESENTATION_ITEM('') SURFACE() );
#716 = CARTESIAN_POINT('',(0.101264977574,0.273084215165,0.161193369007)
  );
#717 = CARTESIAN_POINT('',(0.109592797116,0.273084215165,0.161193369007)
  );
#718 = CARTESIAN_POINT('',(0.101264977574,0.26591853478,0.161193369007)
  );
#719 = CARTESIAN_POINT('',(0.109592797116,0.26591853478,0.161193369007)
  );
#720 = CARTESIAN_POINT('',(0.101264977574,0.269501374973,0.154987761601)
  );
#721 = CARTESIAN_POINT('',(0.109592797116,0.269501374973,0.154987761601)
  );
#722 = CARTESIAN_POINT('',(0.101264977574,0.273084215165,0.148782154196)
  );
#723 = CARTESIAN_POINT('',(0.109592797116,0.273084215165,0.148782154196)
  );
#724 = CARTESIAN_POINT('',(0.101264977574,0.276667055357,0.154987761601)
  );
#725 = CARTESIAN_POINT('',(0.109592797116,0.276667055357,0.154987761601)
  );
#726 = CARTESIAN_POINT('',(0.101264977574,0.28024989555,0.161193369007)
  );
#727 = CARTESIAN_POINT('',(0.109592797116,0.28024989555,0.161193369007)
  );
#728 = CARTESIAN_POINT('',(0.101264977574,0.273084215165,0.161193369007)
  );
#729 = CARTESIAN_POINT('',(0.109592797116,0.273084215165,0.161193369007)
  );
#730 = DEFINITIONAL_REPRESENTATION('',(#731),#735);
#731 = LINE('',#732,#733);
#732 = CARTESIAN_POINT('',(0.,0.));
#733 = VECTOR('',#734,1.);
#734 = DIRECTION('',(0.,1.));
#735 = ( GEOMETRIC_REPRESENTATION_CONTEXT(2) 
PARAMETRIC_REPRESENTATION_CONTEXT() REPRESENTATION_CONTEXT('2D SPACE',''
  ) );
#736 = PCURVE('',#715,#737);
#737 = DEFINITIONAL_REPRESENTATION('',(#738),#742);
#738 = LINE('',#739,#740);
#739 = CARTESIAN_POINT('',(6.283185,0.));
#740 = VECTOR('',#741,1.);
#741 = DIRECTION('',(0.,1.));
#742 = ( GEOMETRIC_REPRESENTATION_CONTEXT(2) 
PARAMETRIC_REPRESENTATION_CONTEXT() REPRESENTATION_CONTEXT('2D SPACE',''
  ) );
#743 = ORIENTED_EDGE('',*,*,#744,.T.);
#744 = EDGE_CURVE('',#706,#706,#745,.T.);
#745 = SURFACE_CURVE('',#746,(#754),.PCURVE_S1.);
#746 = ( BOUNDED_CURVE() B_SPLINE_CURVE(2,(#747,#748,#749,#750,#751,#752
,#753),.UNSPECIFIED.,.T.,.F.) B_SPLINE_CURVE_WITH_KNOTS((1,2,2,2,2,1),(
-2.094395,0.,2.094395,4.18879,6.283185,8.37758),.UNSPECIFIED.) CURVE() 
GEOMETRIC_REPRESENTATION_ITEM() RATIONAL_B_SPLINE_CURVE((1.,0.5,1.,0.5,
1.,0.5,1.)) REPRESENTATION_ITEM('') );
#747 = CARTESIAN_POINT('',(0.101264977574,0.273084215165,0.161193369007)
  );
#748 = CARTESIAN_POINT('',(0.101264977574,0.26591853478,0.161193369007)
  );
#749 = CARTESIAN_POINT('',(0.101264977574,0.269501374973,0.154987761601)
  );
#750 = CARTESIAN_POINT('',(0.101264977574,0.273084215165,0.148782154196)
  );
#751 = CARTESIAN_POINT('',(0.101264977574,0.276667055357,0.154987761601)
  );
#752 = CARTESIAN_POINT('',(0.101264977574,0.28024989555,0.161193369007)
  );
#753 = CARTESIAN_POINT('',(0.101264977574,0.273084215165,0.161193369007)
  );
#754 = PCURVE('',#715,#755);
#755 = DEFINITIONAL_REPRESENTATION('',(#756),#760);
#756 = LINE('',#757,#758);
#757 = CARTESIAN_POINT('',(0.,0.));
#758 = VECTOR('',#759,1.);
#759 = DIRECTION('',(1.,0.));
#760 = ( GEOMETRIC_REPRESENTATION_CONTEXT(2) 
PARAMETRIC_REPRESENTATION_CONTEXT() REPRESENTATION_CONTEXT('2D SPACE',''
  ) );
#761 = ORIENTED_EDGE('',*,*,#705,.T.);
#762 = ORIENTED_EDGE('',*,*,#763,.F.);
#763 = EDGE_CURVE('',#708,#708,#764,.T.);
#764 = SURFACE_CURVE('',#765,(#773),.PCURVE_S1.);
#765 = ( BOUNDED_CURVE() B_SPLINE_CURVE(2,(#766,#767,#768,#769,#770,#771
,#772),.UNSPECIFIED.,.T.,.F.) B_SPLINE_CURVE_WITH_KNOTS((1,2,2,2,2,1),(
-2.094395,0.,2.094395,4.18879,6.283185,8.37758),.UNSPECIFIED.) CURVE() 
GEOMETRIC_REPRESENTATION_ITEM() RATIONAL_B_SPLINE_CURVE((1.,0.5,1.,0.5,
1.,0.5,1.)) REPRESENTATION_ITEM('') );
#766 = CARTESIAN_POINT('',(0.109592797116,0.273084215165,0.161193369007)
  );
#767 = CARTESIAN_POINT('',(0.109592797116,0.26591853478,0.161193369007)
  );
#768 = CARTESIAN_POINT('',(0.109592797116,0.269501374973,0.154987761601)
  );
#769 = CARTESIAN_POINT('',(0.109592797116,0.273084215165,0.148782154196)
  );
#770 = CARTESIAN_POINT('',(0.109592797116,0.276667055357,0.154987761601)
  );
#771 = CARTESIAN_POINT('',(0.109592797116,0.28024989555,0.161193369007)
  );
#772 = CARTESIAN_POINT('',(0.109592797116,0.273084215165,0.161193369007)
  );
#773 = PCURVE('',#715,#774);
#774 = DEFINITIONAL_REPRESENTATION('',(#775),#779);
#775 = LINE('',#776,#777);
#776 = CARTESIAN_POINT('',(0.,8.328E-03));
#777 = VECTOR('',#778,1.);
#778 = DIRECTION('',(1.,0.));
#779 = ( GEOMETRIC_REPRESENTATION_CONTEXT(2) 
PARAMETRIC_REPRESENTATION_CONTEXT() REPRESENTATION_CONTEXT('2D SPACE',''
  ) );
#780 = ( GEOMETRIC_REPRESENTATION_CONTEXT(3) 
GLOBAL_UNCERTAINTY_ASSIGNED_CONTEXT((#784)) GLOBAL_UNIT_ASSIGNED_CONTEXT
((#781,#782,#783)) REPRESENTATION_CONTEXT('Context #1',
  '3D Context with UNIT and UNCERTAINTY') );
#781 = ( LENGTH_UNIT() NAMED_UNIT(*) SI_UNIT(.MILLI.,.METRE.) );
#782 = ( NAMED_UNIT(*) PLANE_ANGLE_UNIT() SI_UNIT($,.RADIAN.) );
#783 = ( NAMED_UNIT(*) SI_UNIT($,.STERADIAN.) SOLID_ANGLE_UNIT() );
#784 = UNCERTAINTY_MEASURE_WITH_UNIT(LENGTH_MEASURE(1.E-07),#781,
  'distance_accuracy_value','confusion accuracy');
#785 = CONTEXT_DEPENDENT_SHAPE_REPRESENTATION(#786,#788);
#786 = ( REPRESENTATION_RELATIONSHIP('','',#698,#10) 
REPRESENTATION_RELATIONSHIP_WITH_TRANSFORMATION(#787) 
SHAPE_REPRESENTATION_RELATIONSHIP() );
#787 = ITEM_DEFINED_TRANSFORMATION('','',#11,#43);
#788 = PRODUCT_DEFINITION_SHAPE('Placement','Placement of an item',#789
  );
#789 = NEXT_ASSEMBLY_USAGE_OCCURRENCE('8','','',#5,#693,$);
#790 = PRODUCT_RELATED_PRODUCT_CATEGORY('part',$,(#695));
#791 = SHAPE_DEFINITION_REPRESENTATION(#792,#798);
#792 = PRODUCT_DEFINITION_SHAPE('','',#793);
#793 = PRODUCT_DEFINITION('design','',#794,#797);
#794 = PRODUCT_DEFINITION_FORMATION('','',#795);
#795 = PRODUCT('Open CASCADE STEP translator 7.9 1.9',
  'Open CASCADE STEP translator 7.9 1.9','',(#796));
#796 = PRODUCT_CONTEXT('',#2,'mechanical');
#797 = PRODUCT_DEFINITION_CONTEXT('part definition',#2,'design');
#798 = MANIFOLD_SURFACE_SHAPE_REPRESENTATION('',(#11,#799),#880);
#799 = SHELL_BASED_SURFACE_MODEL('',(#800));
#800 = OPEN_SHELL('',(#801));
#801 = ADVANCED_FACE('',(#802),#815,.T.);
#802 = FACE_BOUND('',#803,.T.);
#803 = EDGE_LOOP('',(#804,#843,#861,#862));
#804 = ORIENTED_EDGE('',*,*,#805,.F.);
#805 = EDGE_CURVE('',#806,#808,#810,.T.);
#806 = VERTEX_POINT('',#807);
#807 = CARTESIAN_POINT('',(0.101264977574,0.273084215165,0.194036774462)
  );
#808 = VERTEX_POINT('',#809);
#809 = CARTESIAN_POINT('',(0.109592797116,0.273084215165,0.194036774462)
  );
#810 = SEAM_CURVE('',#811,(#814,#836),.PCURVE_S1.);
#811 = B_SPLINE_CURVE_WITH_KNOTS('',1,(#812,#813),.UNSPECIFIED.,.F.,.F.,
  (2,2),(0.,8.328E-03),.PIECEWISE_BEZIER_KNOTS.);
#812 = CARTESIAN_POINT('',(0.101264977574,0.273084215165,0.194036774462)
  );
#813 = CARTESIAN_POINT('',(0.109592797116,0.273084215165,0.194036774462)
  );
#814 = PCURVE('',#815,#830);
#815 = ( BOUNDED_SURFACE() B_SPLINE_SURFACE(2,1,(
    (#816,#817)
    ,(#818,#819)
    ,(#820,#821)
    ,(#822,#823)
    ,(#824,#825)
    ,(#826,#827)
,(#828,#829
    )),.UNSPECIFIED.,.T.,.F.,.F.) B_SPLINE_SURFACE_WITH_KNOTS((1,2,2,2,2
    ,1),(2,2),(-2.094395,0.,2.094395,4.18879,6.283185,8.37758),(0.,
8.328E-03),.UNSPECIFIED.) GEOMETRIC_REPRESENTATION_ITEM() 
RATIONAL_B_SPLINE_SURFACE((
    (1.,1.)
    ,(0.5,0.5)
    ,(1.,1.)
    ,(0.5,0.5)
    ,(1.,1.)
    ,(0.5,0.5)
,(1.,1.))) REPRESENTATION_ITEM('') SURFACE() );
#816 = CARTESIAN_POINT('',(0.101264977574,0.273084215165,0.194036774462)
  );
#817 = CARTESIAN_POINT('',(0.109592797116,0.273084215165,0.194036774462)
  );
#818 = CARTESIAN_POINT('',(0.101264977574,0.26591853478,0.194036774462)
  );
#819 = CARTESIAN_POINT('',(0.109592797116,0.26591853478,0.194036774462)
  );
#820 = CARTESIAN_POINT('',(0.101264977574,0.269501374973,0.187831167056)
  );
#821 = CARTESIAN_POINT('',(0.109592797116,0.269501374973,0.187831167056)
  );
#822 = CARTESIAN_POINT('',(0.101264977574,0.273084215165,0.181625559651)
  );
#823 = CARTESIAN_POINT('',(0.109592797116,0.273084215165,0.181625559651)
  );
#824 = CARTESIAN_POINT('',(0.101264977574,0.276667055357,0.187831167056)
  );
#825 = CARTESIAN_POINT('',(0.109592797116,0.276667055357,0.187831167056)
  );
#826 = CARTESIAN_POINT('',(0.101264977574,0.28024989555,0.194036774462)
  );
#827 = CARTESIAN_POINT('',(0.109592797116,0.28024989555,0.194036774462)
  );
#828 = CARTESIAN_POINT('',(0.101264977574,0.273084215165,0.194036774462)
  );
#829 = CARTESIAN_POINT('',(0.109592797116,0.273084215165,0.194036774462)
  );
#830 = DEFINITIONAL_REPRESENTATION('',(#831),#835);
#831 = LINE('',#832,#833);
#832 = CARTESIAN_POINT('',(0.,0.));
#833 = VECTOR('',#834,1.);
#834 = DIRECTION('',(0.,1.));
#835 = ( GEOMETRIC_REPRESENTATION_CONTEXT(2) 
PARAMETRIC_REPRESENTATION_CONTEXT() REPRESENTATION_CONTEXT('2D SPACE',''
  ) );
#836 = PCURVE('',#815,#837);
#837 = DEFINITIONAL_REPRESENTATION('',(#838),#842);
#838 = LINE('',#839,#840);
#839 = CARTESIAN_POINT('',(6.283185,0.));
#840 = VECTOR('',#841,1.);
#841 = DIRECTION('',(0.,1.));
#842 = ( GEOMETRIC_REPRESENTATION_CONTEXT(2) 
PARAMETRIC_REPRESENTATION_CONTEXT() REPRESENTATION_CONTEXT('2D SPACE',''
  ) );
#843 = ORIENTED_EDGE('',*,*,#844,.T.);
#844 = EDGE_CURVE('',#806,#806,#845,.T.);
#845 = SURFACE_CURVE('',#846,(#854),.PCURVE_S1.);
#846 = ( BOUNDED_CURVE() B_SPLINE_CURVE(2,(#847,#848,#849,#850,#851,#852
,#853),.UNSPECIFIED.,.T.,.F.) B_SPLINE_CURVE_WITH_KNOTS((1,2,2,2,2,1),(
-2.094395,0.,2.094395,4.18879,6.283185,8.37758),.UNSPECIFIED.) CURVE() 
GEOMETRIC_REPRESENTATION_ITEM() RATIONAL_B_SPLINE_CURVE((1.,0.5,1.,0.5,
1.,0.5,1.)) REPRESENTATION_ITEM('') );
#847 = CARTESIAN_POINT('',(0.101264977574,0.273084215165,0.194036774462)
  );
#848 = CARTESIAN_POINT('',(0.101264977574,0.26591853478,0.194036774462)
  );
#849 = CARTESIAN_POINT('',(0.101264977574,0.269501374973,0.187831167056)
  );
#850 = CARTESIAN_POINT('',(0.101264977574,0.273084215165,0.181625559651)
  );
#851 = CARTESIAN_POINT('',(0.101264977574,0.276667055357,0.187831167056)
  );
#852 = CARTESIAN_POINT('',(0.101264977574,0.28024989555,0.194036774462)
  );
#853 = CARTESIAN_POINT('',(0.101264977574,0.273084215165,0.194036774462)
  );
#854 = PCURVE('',#815,#855);
#855 = DEFINITIONAL_REPRESENTATION('',(#856),#860);
#856 = LINE('',#857,#858);
#857 = CARTESIAN_POINT('',(0.,0.));
#858 = VECTOR('',#859,1.);
#859 = DIRECTION('',(1.,0.));
#860 = ( GEOMETRIC_REPRESENTATION_CONTEXT(2) 
PARAMETRIC_REPRESENTATION_CONTEXT() REPRESENTATION_CONTEXT('2D SPACE',''
  ) );
#861 = ORIENTED_EDGE('',*,*,#805,.T.);
#862 = ORIENTED_EDGE('',*,*,#863,.F.);
#863 = EDGE_CURVE('',#808,#808,#864,.T.);
#864 = SURFACE_CURVE('',#865,(#873),.PCURVE_S1.);
#865 = ( BOUNDED_CURVE() B_SPLINE_CURVE(2,(#866,#867,#868,#869,#870,#871
,#872),.UNSPECIFIED.,.T.,.F.) B_SPLINE_CURVE_WITH_KNOTS((1,2,2,2,2,1),(
-2.094395,0.,2.094395,4.18879,6.283185,8.37758),.UNSPECIFIED.) CURVE() 
GEOMETRIC_REPRESENTATION_ITEM() RATIONAL_B_SPLINE_CURVE((1.,0.5,1.,0.5,
1.,0.5,1.)) REPRESENTATION_ITEM('') );
#866 = CARTESIAN_POINT('',(0.109592797116,0.273084215165,0.194036774462)
  );
#867 = CARTESIAN_POINT('',(0.109592797116,0.26591853478,0.194036774462)
  );
#868 = CARTESIAN_POINT('',(0.109592797116,0.269501374973,0.187831167056)
  );
#869 = CARTESIAN_POINT('',(0.109592797116,0.273084215165,0.181625559651)
  );
#870 = CARTESIAN_POINT('',(0.109592797116,0.276667055357,0.187831167056)
  );
#871 = CARTESIAN_POINT('',(0.109592797116,0.28024989555,0.194036774462)
  );
#872 = CARTESIAN_POINT('',(0.109592797116,0.273084215165,0.194036774462)
  );
#873 = PCURVE('',#815,#874);
#874 = DEFINITIONAL_REPRESENTATION('',(#875),#879);
#875 = LINE('',#876,#877);
#876 = CARTESIAN_POINT('',(0.,8.328E-03));
#877 = VECTOR('',#878,1.);
#878 = DIRECTION('',(1.,0.));
#879 = ( GEOMETRIC_REPRESENTATION_CONTEXT(2) 
PARAMETRIC_REPRESENTATION_CONTEXT() REPRESENTATION_CONTEXT('2D SPACE',''
  ) );
#880 = ( GEOMETRIC_REPRESENTATION_CONTEXT(3) 
GLOBAL_UNCERTAINTY_ASSIGNED_CONTEXT((#884)) GLOBAL_UNIT_ASSIGNED_CONTEXT
((#881,#882,#883)) REPRESENTATION_CONTEXT('Context #1',
  '3D Context with UNIT and UNCERTAINTY') );
#881 = ( LENGTH_UNIT() NAMED_UNIT(*) SI_UNIT(.MILLI.,.METRE.) );
#882 = ( NAMED_UNIT(*) PLANE_ANGLE_UNIT() SI_UNIT($,.RADIAN.) );
#883 = ( NAMED_UNIT(*) SI_UNIT($,.STERADIAN.) SOLID_ANGLE_UNIT() );
#884 = UNCERTAINTY_MEASURE_WITH_UNIT(LENGTH_MEASURE(1.E-07),#881,
  'distance_accuracy_value','confusion accuracy');
#885 = CONTEXT_DEPENDENT_SHAPE_REPRESENTATION(#886,#888);
#886 = ( REPRESENTATION_RELATIONSHIP('','',#798,#10) 
REPRESENTATION_RELATIONSHIP_WITH_TRANSFORMATION(#887) 
SHAPE_REPRESENTATION_RELATIONSHIP() );
#887 = ITEM_DEFINED_TRANSFORMATION('','',#11,#47);
#888 = PRODUCT_DEFINITION_SHAPE('Placement','Placement of an item',#889
  );
#889 = NEXT_ASSEMBLY_USAGE_OCCURRENCE('9','','',#5,#793,$);
#890 = PRODUCT_RELATED_PRODUCT_CATEGORY('part',$,(#795));
ENDSEC;
END-ISO-10303-21;
