ISO-10303-21;
HEADER;
FILE_DESCRIPTION(('Open CASCADE Model'),'2;1');
FILE_NAME('Open CASCADE Shape Model','2026-07-02T21:33:02',('Author'),(
    'Open CASCADE'),'Open CASCADE STEP processor 7.9','Open CASCADE 7.9'
  ,'Unknown');
FILE_SCHEMA(('AUTOMOTIVE_DESIGN { 1 0 10303 214 1 1 1 1 }'));
ENDSEC;
DATA;
#1 = APPLICATION_PROTOCOL_DEFINITION('international standard',
  'automotive_design',2000,#2);
#2 = APPLICATION_CONTEXT(
  'core data for automotive mechanical design processes');
#3 = SHAPE_DEFINITION_REPRESENTATION(#4,#10);
#4 = PRODUCT_DEFINITION_SHAPE('','',#5);
#5 = PRODUCT_DEFINITION('design','',#6,#9);
#6 = PRODUCT_DEFINITION_FORMATION('','',#7);
#7 = PRODUCT('Open CASCADE STEP translator 7.9 1',
  'Open CASCADE STEP translator 7.9 1','',(#8));
#8 = PRODUCT_CONTEXT('',#2,'mechanical');
#9 = PRODUCT_DEFINITION_CONTEXT('part definition',#2,'design');
#10 = SHAPE_REPRESENTATION('',(#11,#15,#19,#23,#27,#31,#35),#39);
#11 = AXIS2_PLACEMENT_3D('',#12,#13,#14);
#12 = CARTESIAN_POINT('',(0.,0.,0.));
#13 = DIRECTION('',(0.,0.,1.));
#14 = DIRECTION('',(1.,0.,-0.));
#15 = AXIS2_PLACEMENT_3D('',#16,#17,#18);
#16 = CARTESIAN_POINT('',(0.,0.,0.));
#17 = DIRECTION('',(0.,0.,1.));
#18 = DIRECTION('',(1.,0.,-0.));
#19 = AXIS2_PLACEMENT_3D('',#20,#21,#22);
#20 = CARTESIAN_POINT('',(0.,0.,0.));
#21 = DIRECTION('',(0.,0.,1.));
#22 = DIRECTION('',(1.,0.,-0.));
#23 = AXIS2_PLACEMENT_3D('',#24,#25,#26);
#24 = CARTESIAN_POINT('',(0.,0.,0.));
#25 = DIRECTION('',(0.,0.,1.));
#26 = DIRECTION('',(1.,0.,-0.));
#27 = AXIS2_PLACEMENT_3D('',#28,#29,#30);
#28 = CARTESIAN_POINT('',(0.,0.,0.));
#29 = DIRECTION('',(0.,0.,1.));
#30 = DIRECTION('',(1.,0.,-0.));
#31 = AXIS2_PLACEMENT_3D('',#32,#33,#34);
#32 = CARTESIAN_POINT('',(0.,0.,0.));
#33 = DIRECTION('',(0.,0.,1.));
#34 = DIRECTION('',(1.,0.,-0.));
#35 = AXIS2_PLACEMENT_3D('',#36,#37,#38);
#36 = CARTESIAN_POINT('',(0.,0.,0.));
#37 = DIRECTION('',(0.,0.,1.));
#38 = DIRECTION('',(1.,0.,-0.));
#39 = ( GEOMETRIC_REPRESENTATION_CONTEXT(3) 
GLOBAL_UNCERTAINTY_ASSIGNED_CONTEXT((#43)) GLOBAL_UNIT_ASSIGNED_CONTEXT(
(#40,#41,#42)) REPRESENTATION_CONTEXT('Context #1',
  '3D Context with UNIT and UNCERTAINTY') );
#40 = ( LENGTH_UNIT() NAMED_UNIT(*) SI_UNIT(.MILLI.,.METRE.) );
#41 = ( NAMED_UNIT(*) PLANE_ANGLE_UNIT() SI_UNIT($,.RADIAN.) );
#42 = ( NAMED_UNIT(*) SI_UNIT($,.STERADIAN.) SOLID_ANGLE_UNIT() );
#43 = UNCERTAINTY_MEASURE_WITH_UNIT(LENGTH_MEASURE(1.E-07),#40,
  'distance_accuracy_value','confusion accuracy');
#44 = PRODUCT_RELATED_PRODUCT_CATEGORY('part',$,(#7));
#45 = SHAPE_DEFINITION_REPRESENTATION(#46,#52);
#46 = PRODUCT_DEFINITION_SHAPE('','',#47);
#47 = PRODUCT_DEFINITION('design','',#48,#51);
#48 = PRODUCT_DEFINITION_FORMATION('','',#49);
#49 = PRODUCT('Open CASCADE STEP translator 7.9 1.1',
  'Open CASCADE STEP translator 7.9 1.1','',(#50));
#50 = PRODUCT_CONTEXT('',#2,'mechanical');
#51 = PRODUCT_DEFINITION_CONTEXT('part definition',#2,'design');
#52 = MANIFOLD_SURFACE_SHAPE_REPRESENTATION('',(#11,#53),#123);
#53 = SHELL_BASED_SURFACE_MODEL('',(#54));
#54 = OPEN_SHELL('',(#55));
#55 = ADVANCED_FACE('',(#56),#69,.T.);
#56 = FACE_BOUND('',#57,.T.);
#57 = EDGE_LOOP('',(#58,#80,#95,#110));
#58 = ORIENTED_EDGE('',*,*,#59,.F.);
#59 = EDGE_CURVE('',#60,#62,#64,.T.);
#60 = VERTEX_POINT('',#61);
#61 = CARTESIAN_POINT('',(0.222222222247,0.111111111139,0.111111111139)
  );
#62 = VERTEX_POINT('',#63);
#63 = CARTESIAN_POINT('',(0.222222222247,0.111111111139,0.999999999944)
  );
#64 = SURFACE_CURVE('',#65,(#68),.PCURVE_S1.);
#65 = B_SPLINE_CURVE_WITH_KNOTS('',1,(#66,#67),.UNSPECIFIED.,.F.,.F.,(2,
    2),(-0.388889,0.5),.PIECEWISE_BEZIER_KNOTS.);
#66 = CARTESIAN_POINT('',(0.222222222247,0.111111111139,0.111111111139)
  );
#67 = CARTESIAN_POINT('',(0.222222222247,0.111111111139,0.999999999944)
  );
#68 = PCURVE('',#69,#74);
#69 = B_SPLINE_SURFACE_WITH_KNOTS('',1,1,(
    (#70,#71)
    ,(#72,#73
    )),.UNSPECIFIED.,.F.,.F.,.F.,(2,2),(2,2),(-0.277778,0.277778),(
    -0.388889,0.5),.PIECEWISE_BEZIER_KNOTS.);
#70 = CARTESIAN_POINT('',(0.222222222247,0.111111111139,0.111111111139)
  );
#71 = CARTESIAN_POINT('',(0.222222222247,0.111111111139,0.999999999944)
  );
#72 = CARTESIAN_POINT('',(0.777777777733,0.111111111139,0.111111111139)
  );
#73 = CARTESIAN_POINT('',(0.777777777733,0.111111111139,0.999999999944)
  );
#74 = DEFINITIONAL_REPRESENTATION('',(#75),#79);
#75 = LINE('',#76,#77);
#76 = CARTESIAN_POINT('',(-0.277778,0.));
#77 = VECTOR('',#78,1.);
#78 = DIRECTION('',(0.,1.));
#79 = ( GEOMETRIC_REPRESENTATION_CONTEXT(2) 
PARAMETRIC_REPRESENTATION_CONTEXT() REPRESENTATION_CONTEXT('2D SPACE',''
  ) );
#80 = ORIENTED_EDGE('',*,*,#81,.T.);
#81 = EDGE_CURVE('',#60,#82,#84,.T.);
#82 = VERTEX_POINT('',#83);
#83 = CARTESIAN_POINT('',(0.777777777733,0.111111111139,0.111111111139)
  );
#84 = SURFACE_CURVE('',#85,(#88),.PCURVE_S1.);
#85 = B_SPLINE_CURVE_WITH_KNOTS('',1,(#86,#87),.UNSPECIFIED.,.F.,.F.,(2,
    2),(-0.277778,0.277778),.PIECEWISE_BEZIER_KNOTS.);
#86 = CARTESIAN_POINT('',(0.222222222247,0.111111111139,0.111111111139)
  );
#87 = CARTESIAN_POINT('',(0.777777777733,0.111111111139,0.111111111139)
  );
#88 = PCURVE('',#69,#89);
#89 = DEFINITIONAL_REPRESENTATION('',(#90),#94);
#90 = LINE('',#91,#92);
#91 = CARTESIAN_POINT('',(0.,-0.388889));
#92 = VECTOR('',#93,1.);
#93 = DIRECTION('',(1.,0.));
#94 = ( GEOMETRIC_REPRESENTATION_CONTEXT(2) 
PARAMETRIC_REPRESENTATION_CONTEXT() REPRESENTATION_CONTEXT('2D SPACE',''
  ) );
#95 = ORIENTED_EDGE('',*,*,#96,.T.);
#96 = EDGE_CURVE('',#82,#97,#99,.T.);
#97 = VERTEX_POINT('',#98);
#98 = CARTESIAN_POINT('',(0.777777777733,0.111111111139,0.999999999944)
  );
#99 = SURFACE_CURVE('',#100,(#103),.PCURVE_S1.);
#100 = B_SPLINE_CURVE_WITH_KNOTS('',1,(#101,#102),.UNSPECIFIED.,.F.,.F.,
  (2,2),(-0.388889,0.5),.PIECEWISE_BEZIER_KNOTS.);
#101 = CARTESIAN_POINT('',(0.777777777733,0.111111111139,0.111111111139)
  );
#102 = CARTESIAN_POINT('',(0.777777777733,0.111111111139,0.999999999944)
  );
#103 = PCURVE('',#69,#104);
#104 = DEFINITIONAL_REPRESENTATION('',(#105),#109);
#105 = LINE('',#106,#107);
#106 = CARTESIAN_POINT('',(0.277778,0.));
#107 = VECTOR('',#108,1.);
#108 = DIRECTION('',(0.,1.));
#109 = ( GEOMETRIC_REPRESENTATION_CONTEXT(2) 
PARAMETRIC_REPRESENTATION_CONTEXT() REPRESENTATION_CONTEXT('2D SPACE',''
  ) );
#110 = ORIENTED_EDGE('',*,*,#111,.F.);
#111 = EDGE_CURVE('',#62,#97,#112,.T.);
#112 = SURFACE_CURVE('',#113,(#116),.PCURVE_S1.);
#113 = B_SPLINE_CURVE_WITH_KNOTS('',1,(#114,#115),.UNSPECIFIED.,.F.,.F.,
  (2,2),(-0.277778,0.277778),.PIECEWISE_BEZIER_KNOTS.);
#114 = CARTESIAN_POINT('',(0.222222222247,0.111111111139,0.999999999944)
  );
#115 = CARTESIAN_POINT('',(0.777777777733,0.111111111139,0.999999999944)
  );
#116 = PCURVE('',#69,#117);
#117 = DEFINITIONAL_REPRESENTATION('',(#118),#122);
#118 = LINE('',#119,#120);
#119 = CARTESIAN_POINT('',(0.,0.5));
#120 = VECTOR('',#121,1.);
#121 = DIRECTION('',(1.,0.));
#122 = ( GEOMETRIC_REPRESENTATION_CONTEXT(2) 
PARAMETRIC_REPRESENTATION_CONTEXT() REPRESENTATION_CONTEXT('2D SPACE',''
  ) );
#123 = ( GEOMETRIC_REPRESENTATION_CONTEXT(3) 
GLOBAL_UNCERTAINTY_ASSIGNED_CONTEXT((#127)) GLOBAL_UNIT_ASSIGNED_CONTEXT
((#124,#125,#126)) REPRESENTATION_CONTEXT('Context #1',
  '3D Context with UNIT and UNCERTAINTY') );
#124 = ( LENGTH_UNIT() NAMED_UNIT(*) SI_UNIT(.MILLI.,.METRE.) );
#125 = ( NAMED_UNIT(*) PLANE_ANGLE_UNIT() SI_UNIT($,.RADIAN.) );
#126 = ( NAMED_UNIT(*) SI_UNIT($,.STERADIAN.) SOLID_ANGLE_UNIT() );
#127 = UNCERTAINTY_MEASURE_WITH_UNIT(LENGTH_MEASURE(1.E-07),#124,
  'distance_accuracy_value','confusion accuracy');
#128 = CONTEXT_DEPENDENT_SHAPE_REPRESENTATION(#129,#131);
#129 = ( REPRESENTATION_RELATIONSHIP('','',#52,#10) 
REPRESENTATION_RELATIONSHIP_WITH_TRANSFORMATION(#130) 
SHAPE_REPRESENTATION_RELATIONSHIP() );
#130 = ITEM_DEFINED_TRANSFORMATION('','',#11,#15);
#131 = PRODUCT_DEFINITION_SHAPE('Placement','Placement of an item',#132
  );
#132 = NEXT_ASSEMBLY_USAGE_OCCURRENCE('1','','',#5,#47,$);
#133 = PRODUCT_RELATED_PRODUCT_CATEGORY('part',$,(#49));
#134 = SHAPE_DEFINITION_REPRESENTATION(#135,#141);
#135 = PRODUCT_DEFINITION_SHAPE('','',#136);
#136 = PRODUCT_DEFINITION('design','',#137,#140);
#137 = PRODUCT_DEFINITION_FORMATION('','',#138);
#138 = PRODUCT('Open CASCADE STEP translator 7.9 1.2',
  'Open CASCADE STEP translator 7.9 1.2','',(#139));
#139 = PRODUCT_CONTEXT('',#2,'mechanical');
#140 = PRODUCT_DEFINITION_CONTEXT('part definition',#2,'design');
#141 = MANIFOLD_SURFACE_SHAPE_REPRESENTATION('',(#11,#142),#212);
#142 = SHELL_BASED_SURFACE_MODEL('',(#143));
#143 = OPEN_SHELL('',(#144));
#144 = ADVANCED_FACE('',(#145),#158,.T.);
#145 = FACE_BOUND('',#146,.T.);
#146 = EDGE_LOOP('',(#147,#169,#184,#199));
#147 = ORIENTED_EDGE('',*,*,#148,.F.);
#148 = EDGE_CURVE('',#149,#151,#153,.T.);
#149 = VERTEX_POINT('',#150);
#150 = CARTESIAN_POINT('',(0.222222222247,0.222222222259,0.111111111139)
  );
#151 = VERTEX_POINT('',#152);
#152 = CARTESIAN_POINT('',(0.222222222247,0.222222222259,0.999999999944)
  );
#153 = SURFACE_CURVE('',#154,(#157),.PCURVE_S1.);
#154 = B_SPLINE_CURVE_WITH_KNOTS('',1,(#155,#156),.UNSPECIFIED.,.F.,.F.,
  (2,2),(-0.388889,0.5),.PIECEWISE_BEZIER_KNOTS.);
#155 = CARTESIAN_POINT('',(0.222222222247,0.222222222259,0.111111111139)
  );
#156 = CARTESIAN_POINT('',(0.222222222247,0.222222222259,0.999999999944)
  );
#157 = PCURVE('',#158,#163);
#158 = B_SPLINE_SURFACE_WITH_KNOTS('',1,1,(
    (#159,#160)
    ,(#161,#162
    )),.UNSPECIFIED.,.F.,.F.,.F.,(2,2),(2,2),(-0.277778,0.277778),(
    -0.388889,0.5),.PIECEWISE_BEZIER_KNOTS.);
#159 = CARTESIAN_POINT('',(0.222222222247,0.222222222259,0.111111111139)
  );
#160 = CARTESIAN_POINT('',(0.222222222247,0.222222222259,0.999999999944)
  );
#161 = CARTESIAN_POINT('',(0.777777777733,0.222222222259,0.111111111139)
  );
#162 = CARTESIAN_POINT('',(0.777777777733,0.222222222259,0.999999999944)
  );
#163 = DEFINITIONAL_REPRESENTATION('',(#164),#168);
#164 = LINE('',#165,#166);
#165 = CARTESIAN_POINT('',(-0.277778,0.));
#166 = VECTOR('',#167,1.);
#167 = DIRECTION('',(0.,1.));
#168 = ( GEOMETRIC_REPRESENTATION_CONTEXT(2) 
PARAMETRIC_REPRESENTATION_CONTEXT() REPRESENTATION_CONTEXT('2D SPACE',''
  ) );
#169 = ORIENTED_EDGE('',*,*,#170,.T.);
#170 = EDGE_CURVE('',#149,#171,#173,.T.);
#171 = VERTEX_POINT('',#172);
#172 = CARTESIAN_POINT('',(0.777777777733,0.222222222259,0.111111111139)
  );
#173 = SURFACE_CURVE('',#174,(#177),.PCURVE_S1.);
#174 = B_SPLINE_CURVE_WITH_KNOTS('',1,(#175,#176),.UNSPECIFIED.,.F.,.F.,
  (2,2),(-0.277778,0.277778),.PIECEWISE_BEZIER_KNOTS.);
#175 = CARTESIAN_POINT('',(0.222222222247,0.222222222259,0.111111111139)
  );
#176 = CARTESIAN_POINT('',(0.777777777733,0.222222222259,0.111111111139)
  );
#177 = PCURVE('',#158,#178);
#178 = DEFINITIONAL_REPRESENTATION('',(#179),#183);
#179 = LINE('',#180,#181);
#180 = CARTESIAN_POINT('',(0.,-0.388889));
#181 = VECTOR('',#182,1.);
#182 = DIRECTION('',(1.,0.));
#183 = ( GEOMETRIC_REPRESENTATION_CONTEXT(2) 
PARAMETRIC_REPRESENTATION_CONTEXT() REPRESENTATION_CONTEXT('2D SPACE',''
  ) );
#184 = ORIENTED_EDGE('',*,*,#185,.T.);
#185 = EDGE_CURVE('',#171,#186,#188,.T.);
#186 = VERTEX_POINT('',#187);
#187 = CARTESIAN_POINT('',(0.777777777733,0.222222222259,0.999999999944)
  );
#188 = SURFACE_CURVE('',#189,(#192),.PCURVE_S1.);
#189 = B_SPLINE_CURVE_WITH_KNOTS('',1,(#190,#191),.UNSPECIFIED.,.F.,.F.,
  (2,2),(-0.388889,0.5),.PIECEWISE_BEZIER_KNOTS.);
#190 = CARTESIAN_POINT('',(0.777777777733,0.222222222259,0.111111111139)
  );
#191 = CARTESIAN_POINT('',(0.777777777733,0.222222222259,0.999999999944)
  );
#192 = PCURVE('',#158,#193);
#193 = DEFINITIONAL_REPRESENTATION('',(#194),#198);
#194 = LINE('',#195,#196);
#195 = CARTESIAN_POINT('',(0.277778,0.));
#196 = VECTOR('',#197,1.);
#197 = DIRECTION('',(0.,1.));
#198 = ( GEOMETRIC_REPRESENTATION_CONTEXT(2) 
PARAMETRIC_REPRESENTATION_CONTEXT() REPRESENTATION_CONTEXT('2D SPACE',''
  ) );
#199 = ORIENTED_EDGE('',*,*,#200,.F.);
#200 = EDGE_CURVE('',#151,#186,#201,.T.);
#201 = SURFACE_CURVE('',#202,(#205),.PCURVE_S1.);
#202 = B_SPLINE_CURVE_WITH_KNOTS('',1,(#203,#204),.UNSPECIFIED.,.F.,.F.,
  (2,2),(-0.277778,0.277778),.PIECEWISE_BEZIER_KNOTS.);
#203 = CARTESIAN_POINT('',(0.222222222247,0.222222222259,0.999999999944)
  );
#204 = CARTESIAN_POINT('',(0.777777777733,0.222222222259,0.999999999944)
  );
#205 = PCURVE('',#158,#206);
#206 = DEFINITIONAL_REPRESENTATION('',(#207),#211);
#207 = LINE('',#208,#209);
#208 = CARTESIAN_POINT('',(0.,0.5));
#209 = VECTOR('',#210,1.);
#210 = DIRECTION('',(1.,0.));
#211 = ( GEOMETRIC_REPRESENTATION_CONTEXT(2) 
PARAMETRIC_REPRESENTATION_CONTEXT() REPRESENTATION_CONTEXT('2D SPACE',''
  ) );
#212 = ( GEOMETRIC_REPRESENTATION_CONTEXT(3) 
GLOBAL_UNCERTAINTY_ASSIGNED_CONTEXT((#216)) GLOBAL_UNIT_ASSIGNED_CONTEXT
((#213,#214,#215)) REPRESENTATION_CONTEXT('Context #1',
  '3D Context with UNIT and UNCERTAINTY') );
#213 = ( LENGTH_UNIT() NAMED_UNIT(*) SI_UNIT(.MILLI.,.METRE.) );
#214 = ( NAMED_UNIT(*) PLANE_ANGLE_UNIT() SI_UNIT($,.RADIAN.) );
#215 = ( NAMED_UNIT(*) SI_UNIT($,.STERADIAN.) SOLID_ANGLE_UNIT() );
#216 = UNCERTAINTY_MEASURE_WITH_UNIT(LENGTH_MEASURE(1.E-07),#213,
  'distance_accuracy_value','confusion accuracy');
#217 = CONTEXT_DEPENDENT_SHAPE_REPRESENTATION(#218,#220);
#218 = ( REPRESENTATION_RELATIONSHIP('','',#141,#10) 
REPRESENTATION_RELATIONSHIP_WITH_TRANSFORMATION(#219) 
SHAPE_REPRESENTATION_RELATIONSHIP() );
#219 = ITEM_DEFINED_TRANSFORMATION('','',#11,#19);
#220 = PRODUCT_DEFINITION_SHAPE('Placement','Placement of an item',#221
  );
#221 = NEXT_ASSEMBLY_USAGE_OCCURRENCE('2','','',#5,#136,$);
#222 = PRODUCT_RELATED_PRODUCT_CATEGORY('part',$,(#138));
#223 = SHAPE_DEFINITION_REPRESENTATION(#224,#230);
#224 = PRODUCT_DEFINITION_SHAPE('','',#225);
#225 = PRODUCT_DEFINITION('design','',#226,#229);
#226 = PRODUCT_DEFINITION_FORMATION('','',#227);
#227 = PRODUCT('Open CASCADE STEP translator 7.9 1.3',
  'Open CASCADE STEP translator 7.9 1.3','',(#228));
#228 = PRODUCT_CONTEXT('',#2,'mechanical');
#229 = PRODUCT_DEFINITION_CONTEXT('part definition',#2,'design');
#230 = MANIFOLD_SURFACE_SHAPE_REPRESENTATION('',(#11,#231),#301);
#231 = SHELL_BASED_SURFACE_MODEL('',(#232));
#232 = OPEN_SHELL('',(#233));
#233 = ADVANCED_FACE('',(#234),#247,.T.);
#234 = FACE_BOUND('',#235,.T.);
#235 = EDGE_LOOP('',(#236,#258,#273,#288));
#236 = ORIENTED_EDGE('',*,*,#237,.F.);
#237 = EDGE_CURVE('',#238,#240,#242,.T.);
#238 = VERTEX_POINT('',#239);
#239 = CARTESIAN_POINT('',(0.777777777733,0.111111111139,0.999999999944)
  );
#240 = VERTEX_POINT('',#241);
#241 = CARTESIAN_POINT('',(0.777777777733,0.222222222259,0.999999999944)
  );
#242 = SURFACE_CURVE('',#243,(#246),.PCURVE_S1.);
#243 = B_SPLINE_CURVE_WITH_KNOTS('',1,(#244,#245),.UNSPECIFIED.,.F.,.F.,
  (2,2),(0.,0.111111),.PIECEWISE_BEZIER_KNOTS.);
#244 = CARTESIAN_POINT('',(0.777777777733,0.111111111139,0.999999999944)
  );
#245 = CARTESIAN_POINT('',(0.777777777733,0.222222222259,0.999999999944)
  );
#246 = PCURVE('',#247,#252);
#247 = B_SPLINE_SURFACE_WITH_KNOTS('',1,1,(
    (#248,#249)
    ,(#250,#251
    )),.UNSPECIFIED.,.F.,.F.,.F.,(2,2),(2,2),(-0.277778,0.277778),(0.,
    0.111111),.PIECEWISE_BEZIER_KNOTS.);
#248 = CARTESIAN_POINT('',(0.777777777733,0.111111111139,0.999999999944)
  );
#249 = CARTESIAN_POINT('',(0.777777777733,0.222222222259,0.999999999944)
  );
#250 = CARTESIAN_POINT('',(0.222222222247,0.111111111139,0.999999999944)
  );
#251 = CARTESIAN_POINT('',(0.222222222247,0.222222222259,0.999999999944)
  );
#252 = DEFINITIONAL_REPRESENTATION('',(#253),#257);
#253 = LINE('',#254,#255);
#254 = CARTESIAN_POINT('',(-0.277778,0.));
#255 = VECTOR('',#256,1.);
#256 = DIRECTION('',(0.,1.));
#257 = ( GEOMETRIC_REPRESENTATION_CONTEXT(2) 
PARAMETRIC_REPRESENTATION_CONTEXT() REPRESENTATION_CONTEXT('2D SPACE',''
  ) );
#258 = ORIENTED_EDGE('',*,*,#259,.T.);
#259 = EDGE_CURVE('',#238,#260,#262,.T.);
#260 = VERTEX_POINT('',#261);
#261 = CARTESIAN_POINT('',(0.222222222247,0.111111111139,0.999999999944)
  );
#262 = SURFACE_CURVE('',#263,(#266),.PCURVE_S1.);
#263 = B_SPLINE_CURVE_WITH_KNOTS('',1,(#264,#265),.UNSPECIFIED.,.F.,.F.,
  (2,2),(-0.277778,0.277778),.PIECEWISE_BEZIER_KNOTS.);
#264 = CARTESIAN_POINT('',(0.777777777733,0.111111111139,0.999999999944)
  );
#265 = CARTESIAN_POINT('',(0.222222222247,0.111111111139,0.999999999944)
  );
#266 = PCURVE('',#247,#267);
#267 = DEFINITIONAL_REPRESENTATION('',(#268),#272);
#268 = LINE('',#269,#270);
#269 = CARTESIAN_POINT('',(0.,0.));
#270 = VECTOR('',#271,1.);
#271 = DIRECTION('',(1.,0.));
#272 = ( GEOMETRIC_REPRESENTATION_CONTEXT(2) 
PARAMETRIC_REPRESENTATION_CONTEXT() REPRESENTATION_CONTEXT('2D SPACE',''
  ) );
#273 = ORIENTED_EDGE('',*,*,#274,.T.);
#274 = EDGE_CURVE('',#260,#275,#277,.T.);
#275 = VERTEX_POINT('',#276);
#276 = CARTESIAN_POINT('',(0.222222222247,0.222222222259,0.999999999944)
  );
#277 = SURFACE_CURVE('',#278,(#281),.PCURVE_S1.);
#278 = B_SPLINE_CURVE_WITH_KNOTS('',1,(#279,#280),.UNSPECIFIED.,.F.,.F.,
  (2,2),(0.,0.111111),.PIECEWISE_BEZIER_KNOTS.);
#279 = CARTESIAN_POINT('',(0.222222222247,0.111111111139,0.999999999944)
  );
#280 = CARTESIAN_POINT('',(0.222222222247,0.222222222259,0.999999999944)
  );
#281 = PCURVE('',#247,#282);
#282 = DEFINITIONAL_REPRESENTATION('',(#283),#287);
#283 = LINE('',#284,#285);
#284 = CARTESIAN_POINT('',(0.277778,0.));
#285 = VECTOR('',#286,1.);
#286 = DIRECTION('',(0.,1.));
#287 = ( GEOMETRIC_REPRESENTATION_CONTEXT(2) 
PARAMETRIC_REPRESENTATION_CONTEXT() REPRESENTATION_CONTEXT('2D SPACE',''
  ) );
#288 = ORIENTED_EDGE('',*,*,#289,.F.);
#289 = EDGE_CURVE('',#240,#275,#290,.T.);
#290 = SURFACE_CURVE('',#291,(#294),.PCURVE_S1.);
#291 = B_SPLINE_CURVE_WITH_KNOTS('',1,(#292,#293),.UNSPECIFIED.,.F.,.F.,
  (2,2),(-0.277778,0.277778),.PIECEWISE_BEZIER_KNOTS.);
#292 = CARTESIAN_POINT('',(0.777777777733,0.222222222259,0.999999999944)
  );
#293 = CARTESIAN_POINT('',(0.222222222247,0.222222222259,0.999999999944)
  );
#294 = PCURVE('',#247,#295);
#295 = DEFINITIONAL_REPRESENTATION('',(#296),#300);
#296 = LINE('',#297,#298);
#297 = CARTESIAN_POINT('',(0.,0.111111));
#298 = VECTOR('',#299,1.);
#299 = DIRECTION('',(1.,0.));
#300 = ( GEOMETRIC_REPRESENTATION_CONTEXT(2) 
PARAMETRIC_REPRESENTATION_CONTEXT() REPRESENTATION_CONTEXT('2D SPACE',''
  ) );
#301 = ( GEOMETRIC_REPRESENTATION_CONTEXT(3) 
GLOBAL_UNCERTAINTY_ASSIGNED_CONTEXT((#305)) GLOBAL_UNIT_ASSIGNED_CONTEXT
((#302,#303,#304)) REPRESENTATION_CONTEXT('Context #1',
  '3D Context with UNIT and UNCERTAINTY') );
#302 = ( LENGTH_UNIT() NAMED_UNIT(*) SI_UNIT(.MILLI.,.METRE.) );
#303 = ( NAMED_UNIT(*) PLANE_ANGLE_UNIT() SI_UNIT($,.RADIAN.) );
#304 = ( NAMED_UNIT(*) SI_UNIT($,.STERADIAN.) SOLID_ANGLE_UNIT() );
#305 = UNCERTAINTY_MEASURE_WITH_UNIT(LENGTH_MEASURE(1.E-07),#302,
  'distance_accuracy_value','confusion accuracy');
#306 = CONTEXT_DEPENDENT_SHAPE_REPRESENTATION(#307,#309);
#307 = ( REPRESENTATION_RELATIONSHIP('','',#230,#10) 
REPRESENTATION_RELATIONSHIP_WITH_TRANSFORMATION(#308) 
SHAPE_REPRESENTATION_RELATIONSHIP() );
#308 = ITEM_DEFINED_TRANSFORMATION('','',#11,#23);
#309 = PRODUCT_DEFINITION_SHAPE('Placement','Placement of an item',#310
  );
#310 = NEXT_ASSEMBLY_USAGE_OCCURRENCE('3','','',#5,#225,$);
#311 = PRODUCT_RELATED_PRODUCT_CATEGORY('part',$,(#227));
#312 = SHAPE_DEFINITION_REPRESENTATION(#313,#319);
#313 = PRODUCT_DEFINITION_SHAPE('','',#314);
#314 = PRODUCT_DEFINITION('design','',#315,#318);
#315 = PRODUCT_DEFINITION_FORMATION('','',#316);
#316 = PRODUCT('Open CASCADE STEP translator 7.9 1.4',
  'Open CASCADE STEP translator 7.9 1.4','',(#317));
#317 = PRODUCT_CONTEXT('',#2,'mechanical');
#318 = PRODUCT_DEFINITION_CONTEXT('part definition',#2,'design');
#319 = MANIFOLD_SURFACE_SHAPE_REPRESENTATION('',(#11,#320),#394);
#320 = SHELL_BASED_SURFACE_MODEL('',(#321));
#321 = OPEN_SHELL('',(#322));
#322 = ADVANCED_FACE('',(#323),#337,.T.);
#323 = FACE_BOUND('',#324,.T.);
#324 = EDGE_LOOP('',(#325,#348,#364,#380));
#325 = ORIENTED_EDGE('',*,*,#326,.T.);
#326 = EDGE_CURVE('',#327,#329,#331,.T.);
#327 = VERTEX_POINT('',#328);
#328 = CARTESIAN_POINT('',(0.222222,0.222222,1.));
#329 = VERTEX_POINT('',#330);
#330 = CARTESIAN_POINT('',(0.222222,0.222222,0.111111));
#331 = SURFACE_CURVE('',#332,(#336),.PCURVE_S1.);
#332 = LINE('',#333,#334);
#333 = CARTESIAN_POINT('',(0.222222,0.222222,1.));
#334 = VECTOR('',#335,1.);
#335 = DIRECTION('',(0.,0.,-1.));
#336 = PCURVE('',#337,#342);
#337 = PLANE('',#338);
#338 = AXIS2_PLACEMENT_3D('',#339,#340,#341);
#339 = CARTESIAN_POINT('',(0.222222,0.1666665,0.5555555));
#340 = DIRECTION('',(-1.,-0.,-0.));
#341 = DIRECTION('',(0.,0.,-1.));
#342 = DEFINITIONAL_REPRESENTATION('',(#343),#347);
#343 = LINE('',#344,#345);
#344 = CARTESIAN_POINT('',(-0.4444445,-5.55555E-02));
#345 = VECTOR('',#346,1.);
#346 = DIRECTION('',(1.,0.));
#347 = ( GEOMETRIC_REPRESENTATION_CONTEXT(2) 
PARAMETRIC_REPRESENTATION_CONTEXT() REPRESENTATION_CONTEXT('2D SPACE',''
  ) );
#348 = ORIENTED_EDGE('',*,*,#349,.T.);
#349 = EDGE_CURVE('',#329,#350,#352,.T.);
#350 = VERTEX_POINT('',#351);
#351 = CARTESIAN_POINT('',(0.222222,0.111111,0.111111));
#352 = SURFACE_CURVE('',#353,(#357),.PCURVE_S1.);
#353 = LINE('',#354,#355);
#354 = CARTESIAN_POINT('',(0.222222,0.222222,0.111111));
#355 = VECTOR('',#356,1.);
#356 = DIRECTION('',(0.,-1.,0.));
#357 = PCURVE('',#337,#358);
#358 = DEFINITIONAL_REPRESENTATION('',(#359),#363);
#359 = LINE('',#360,#361);
#360 = CARTESIAN_POINT('',(0.4444445,-5.55555E-02));
#361 = VECTOR('',#362,1.);
#362 = DIRECTION('',(0.,1.));
#363 = ( GEOMETRIC_REPRESENTATION_CONTEXT(2) 
PARAMETRIC_REPRESENTATION_CONTEXT() REPRESENTATION_CONTEXT('2D SPACE',''
  ) );
#364 = ORIENTED_EDGE('',*,*,#365,.T.);
#365 = EDGE_CURVE('',#350,#366,#368,.T.);
#366 = VERTEX_POINT('',#367);
#367 = CARTESIAN_POINT('',(0.222222,0.111111,1.));
#368 = SURFACE_CURVE('',#369,(#373),.PCURVE_S1.);
#369 = LINE('',#370,#371);
#370 = CARTESIAN_POINT('',(0.222222,0.111111,0.111111));
#371 = VECTOR('',#372,1.);
#372 = DIRECTION('',(0.,0.,1.));
#373 = PCURVE('',#337,#374);
#374 = DEFINITIONAL_REPRESENTATION('',(#375),#379);
#375 = LINE('',#376,#377);
#376 = CARTESIAN_POINT('',(0.4444445,5.55555E-02));
#377 = VECTOR('',#378,1.);
#378 = DIRECTION('',(-1.,0.));
#379 = ( GEOMETRIC_REPRESENTATION_CONTEXT(2) 
PARAMETRIC_REPRESENTATION_CONTEXT() REPRESENTATION_CONTEXT('2D SPACE',''
  ) );
#380 = ORIENTED_EDGE('',*,*,#381,.T.);
#381 = EDGE_CURVE('',#366,#327,#382,.T.);
#382 = SURFACE_CURVE('',#383,(#387),.PCURVE_S1.);
#383 = LINE('',#384,#385);
#384 = CARTESIAN_POINT('',(0.222222,0.111111,1.));
#385 = VECTOR('',#386,1.);
#386 = DIRECTION('',(0.,1.,0.));
#387 = PCURVE('',#337,#388);
#388 = DEFINITIONAL_REPRESENTATION('',(#389),#393);
#389 = LINE('',#390,#391);
#390 = CARTESIAN_POINT('',(-0.4444445,5.55555E-02));
#391 = VECTOR('',#392,1.);
#392 = DIRECTION('',(0.,-1.));
#393 = ( GEOMETRIC_REPRESENTATION_CONTEXT(2) 
PARAMETRIC_REPRESENTATION_CONTEXT() REPRESENTATION_CONTEXT('2D SPACE',''
  ) );
#394 = ( GEOMETRIC_REPRESENTATION_CONTEXT(3) 
GLOBAL_UNCERTAINTY_ASSIGNED_CONTEXT((#398)) GLOBAL_UNIT_ASSIGNED_CONTEXT
((#395,#396,#397)) REPRESENTATION_CONTEXT('Context #1',
  '3D Context with UNIT and UNCERTAINTY') );
#395 = ( LENGTH_UNIT() NAMED_UNIT(*) SI_UNIT(.MILLI.,.METRE.) );
#396 = ( NAMED_UNIT(*) PLANE_ANGLE_UNIT() SI_UNIT($,.RADIAN.) );
#397 = ( NAMED_UNIT(*) SI_UNIT($,.STERADIAN.) SOLID_ANGLE_UNIT() );
#398 = UNCERTAINTY_MEASURE_WITH_UNIT(LENGTH_MEASURE(1.E-07),#395,
  'distance_accuracy_value','confusion accuracy');
#399 = CONTEXT_DEPENDENT_SHAPE_REPRESENTATION(#400,#402);
#400 = ( REPRESENTATION_RELATIONSHIP('','',#319,#10) 
REPRESENTATION_RELATIONSHIP_WITH_TRANSFORMATION(#401) 
SHAPE_REPRESENTATION_RELATIONSHIP() );
#401 = ITEM_DEFINED_TRANSFORMATION('','',#11,#27);
#402 = PRODUCT_DEFINITION_SHAPE('Placement','Placement of an item',#403
  );
#403 = NEXT_ASSEMBLY_USAGE_OCCURRENCE('4','','',#5,#314,$);
#404 = PRODUCT_RELATED_PRODUCT_CATEGORY('part',$,(#316));
#405 = SHAPE_DEFINITION_REPRESENTATION(#406,#412);
#406 = PRODUCT_DEFINITION_SHAPE('','',#407);
#407 = PRODUCT_DEFINITION('design','',#408,#411);
#408 = PRODUCT_DEFINITION_FORMATION('','',#409);
#409 = PRODUCT('Open CASCADE STEP translator 7.9 1.5',
  'Open CASCADE STEP translator 7.9 1.5','',(#410));
#410 = PRODUCT_CONTEXT('',#2,'mechanical');
#411 = PRODUCT_DEFINITION_CONTEXT('part definition',#2,'design');
#412 = MANIFOLD_SURFACE_SHAPE_REPRESENTATION('',(#11,#413),#483);
#413 = SHELL_BASED_SURFACE_MODEL('',(#414));
#414 = OPEN_SHELL('',(#415));
#415 = ADVANCED_FACE('',(#416),#429,.T.);
#416 = FACE_BOUND('',#417,.T.);
#417 = EDGE_LOOP('',(#418,#440,#455,#470));
#418 = ORIENTED_EDGE('',*,*,#419,.F.);
#419 = EDGE_CURVE('',#420,#422,#424,.T.);
#420 = VERTEX_POINT('',#421);
#421 = CARTESIAN_POINT('',(0.777777777733,0.111111111139,0.111111111139)
  );
#422 = VERTEX_POINT('',#423);
#423 = CARTESIAN_POINT('',(0.777777777733,0.222222222259,0.111111111139)
  );
#424 = SURFACE_CURVE('',#425,(#428),.PCURVE_S1.);
#425 = B_SPLINE_CURVE_WITH_KNOTS('',1,(#426,#427),.UNSPECIFIED.,.F.,.F.,
  (2,2),(0.,0.111111),.PIECEWISE_BEZIER_KNOTS.);
#426 = CARTESIAN_POINT('',(0.777777777733,0.111111111139,0.111111111139)
  );
#427 = CARTESIAN_POINT('',(0.777777777733,0.222222222259,0.111111111139)
  );
#428 = PCURVE('',#429,#434);
#429 = B_SPLINE_SURFACE_WITH_KNOTS('',1,1,(
    (#430,#431)
    ,(#432,#433
    )),.UNSPECIFIED.,.F.,.F.,.F.,(2,2),(2,2),(-0.277778,0.277778),(0.,
    0.111111),.PIECEWISE_BEZIER_KNOTS.);
#430 = CARTESIAN_POINT('',(0.777777777733,0.111111111139,0.111111111139)
  );
#431 = CARTESIAN_POINT('',(0.777777777733,0.222222222259,0.111111111139)
  );
#432 = CARTESIAN_POINT('',(0.222222222247,0.111111111139,0.111111111139)
  );
#433 = CARTESIAN_POINT('',(0.222222222247,0.222222222259,0.111111111139)
  );
#434 = DEFINITIONAL_REPRESENTATION('',(#435),#439);
#435 = LINE('',#436,#437);
#436 = CARTESIAN_POINT('',(-0.277778,0.));
#437 = VECTOR('',#438,1.);
#438 = DIRECTION('',(0.,1.));
#439 = ( GEOMETRIC_REPRESENTATION_CONTEXT(2) 
PARAMETRIC_REPRESENTATION_CONTEXT() REPRESENTATION_CONTEXT('2D SPACE',''
  ) );
#440 = ORIENTED_EDGE('',*,*,#441,.T.);
#441 = EDGE_CURVE('',#420,#442,#444,.T.);
#442 = VERTEX_POINT('',#443);
#443 = CARTESIAN_POINT('',(0.222222222247,0.111111111139,0.111111111139)
  );
#444 = SURFACE_CURVE('',#445,(#448),.PCURVE_S1.);
#445 = B_SPLINE_CURVE_WITH_KNOTS('',1,(#446,#447),.UNSPECIFIED.,.F.,.F.,
  (2,2),(-0.277778,0.277778),.PIECEWISE_BEZIER_KNOTS.);
#446 = CARTESIAN_POINT('',(0.777777777733,0.111111111139,0.111111111139)
  );
#447 = CARTESIAN_POINT('',(0.222222222247,0.111111111139,0.111111111139)
  );
#448 = PCURVE('',#429,#449);
#449 = DEFINITIONAL_REPRESENTATION('',(#450),#454);
#450 = LINE('',#451,#452);
#451 = CARTESIAN_POINT('',(0.,0.));
#452 = VECTOR('',#453,1.);
#453 = DIRECTION('',(1.,0.));
#454 = ( GEOMETRIC_REPRESENTATION_CONTEXT(2) 
PARAMETRIC_REPRESENTATION_CONTEXT() REPRESENTATION_CONTEXT('2D SPACE',''
  ) );
#455 = ORIENTED_EDGE('',*,*,#456,.T.);
#456 = EDGE_CURVE('',#442,#457,#459,.T.);
#457 = VERTEX_POINT('',#458);
#458 = CARTESIAN_POINT('',(0.222222222247,0.222222222259,0.111111111139)
  );
#459 = SURFACE_CURVE('',#460,(#463),.PCURVE_S1.);
#460 = B_SPLINE_CURVE_WITH_KNOTS('',1,(#461,#462),.UNSPECIFIED.,.F.,.F.,
  (2,2),(0.,0.111111),.PIECEWISE_BEZIER_KNOTS.);
#461 = CARTESIAN_POINT('',(0.222222222247,0.111111111139,0.111111111139)
  );
#462 = CARTESIAN_POINT('',(0.222222222247,0.222222222259,0.111111111139)
  );
#463 = PCURVE('',#429,#464);
#464 = DEFINITIONAL_REPRESENTATION('',(#465),#469);
#465 = LINE('',#466,#467);
#466 = CARTESIAN_POINT('',(0.277778,0.));
#467 = VECTOR('',#468,1.);
#468 = DIRECTION('',(0.,1.));
#469 = ( GEOMETRIC_REPRESENTATION_CONTEXT(2) 
PARAMETRIC_REPRESENTATION_CONTEXT() REPRESENTATION_CONTEXT('2D SPACE',''
  ) );
#470 = ORIENTED_EDGE('',*,*,#471,.F.);
#471 = EDGE_CURVE('',#422,#457,#472,.T.);
#472 = SURFACE_CURVE('',#473,(#476),.PCURVE_S1.);
#473 = B_SPLINE_CURVE_WITH_KNOTS('',1,(#474,#475),.UNSPECIFIED.,.F.,.F.,
  (2,2),(-0.277778,0.277778),.PIECEWISE_BEZIER_KNOTS.);
#474 = CARTESIAN_POINT('',(0.777777777733,0.222222222259,0.111111111139)
  );
#475 = CARTESIAN_POINT('',(0.222222222247,0.222222222259,0.111111111139)
  );
#476 = PCURVE('',#429,#477);
#477 = DEFINITIONAL_REPRESENTATION('',(#478),#482);
#478 = LINE('',#479,#480);
#479 = CARTESIAN_POINT('',(0.,0.111111));
#480 = VECTOR('',#481,1.);
#481 = DIRECTION('',(1.,0.));
#482 = ( GEOMETRIC_REPRESENTATION_CONTEXT(2) 
PARAMETRIC_REPRESENTATION_CONTEXT() REPRESENTATION_CONTEXT('2D SPACE',''
  ) );
#483 = ( GEOMETRIC_REPRESENTATION_CONTEXT(3) 
GLOBAL_UNCERTAINTY_ASSIGNED_CONTEXT((#487)) GLOBAL_UNIT_ASSIGNED_CONTEXT
((#484,#485,#486)) REPRESENTATION_CONTEXT('Context #1',
  '3D Context with UNIT and UNCERTAINTY') );
#484 = ( LENGTH_UNIT() NAMED_UNIT(*) SI_UNIT(.MILLI.,.METRE.) );
#485 = ( NAMED_UNIT(*) PLANE_ANGLE_UNIT() SI_UNIT($,.RADIAN.) );
#486 = ( NAMED_UNIT(*) SI_UNIT($,.STERADIAN.) SOLID_ANGLE_UNIT() );
#487 = UNCERTAINTY_MEASURE_WITH_UNIT(LENGTH_MEASURE(1.E-07),#484,
  'distance_accuracy_value','confusion accuracy');
#488 = CONTEXT_DEPENDENT_SHAPE_REPRESENTATION(#489,#491);
#489 = ( REPRESENTATION_RELATIONSHIP('','',#412,#10) 
REPRESENTATION_RELATIONSHIP_WITH_TRANSFORMATION(#490) 
SHAPE_REPRESENTATION_RELATIONSHIP() );
#490 = ITEM_DEFINED_TRANSFORMATION('','',#11,#31);
#491 = PRODUCT_DEFINITION_SHAPE('Placement','Placement of an item',#492
  );
#492 = NEXT_ASSEMBLY_USAGE_OCCURRENCE('5','','',#5,#407,$);
#493 = PRODUCT_RELATED_PRODUCT_CATEGORY('part',$,(#409));
#494 = SHAPE_DEFINITION_REPRESENTATION(#495,#501);
#495 = PRODUCT_DEFINITION_SHAPE('','',#496);
#496 = PRODUCT_DEFINITION('design','',#497,#500);
#497 = PRODUCT_DEFINITION_FORMATION('','',#498);
#498 = PRODUCT('Open CASCADE STEP translator 7.9 1.6',
  'Open CASCADE STEP translator 7.9 1.6','',(#499));
#499 = PRODUCT_CONTEXT('',#2,'mechanical');
#500 = PRODUCT_DEFINITION_CONTEXT('part definition',#2,'design');
#501 = MANIFOLD_SURFACE_SHAPE_REPRESENTATION('',(#11,#502),#576);
#502 = SHELL_BASED_SURFACE_MODEL('',(#503));
#503 = OPEN_SHELL('',(#504));
#504 = ADVANCED_FACE('',(#505),#519,.T.);
#505 = FACE_BOUND('',#506,.T.);
#506 = EDGE_LOOP('',(#507,#530,#546,#562));
#507 = ORIENTED_EDGE('',*,*,#508,.T.);
#508 = EDGE_CURVE('',#509,#511,#513,.T.);
#509 = VERTEX_POINT('',#510);
#510 = CARTESIAN_POINT('',(0.777778,0.222222,0.111111));
#511 = VERTEX_POINT('',#512);
#512 = CARTESIAN_POINT('',(0.777778,0.222222,1.));
#513 = SURFACE_CURVE('',#514,(#518),.PCURVE_S1.);
#514 = LINE('',#515,#516);
#515 = CARTESIAN_POINT('',(0.777778,0.222222,0.111111));
#516 = VECTOR('',#517,1.);
#517 = DIRECTION('',(0.,0.,1.));
#518 = PCURVE('',#519,#524);
#519 = PLANE('',#520);
#520 = AXIS2_PLACEMENT_3D('',#521,#522,#523);
#521 = CARTESIAN_POINT('',(0.777778,0.1666665,0.5555555));
#522 = DIRECTION('',(1.,0.,0.));
#523 = DIRECTION('',(-0.,0.,1.));
#524 = DEFINITIONAL_REPRESENTATION('',(#525),#529);
#525 = LINE('',#526,#527);
#526 = CARTESIAN_POINT('',(-0.4444445,-5.55555E-02));
#527 = VECTOR('',#528,1.);
#528 = DIRECTION('',(1.,0.));
#529 = ( GEOMETRIC_REPRESENTATION_CONTEXT(2) 
PARAMETRIC_REPRESENTATION_CONTEXT() REPRESENTATION_CONTEXT('2D SPACE',''
  ) );
#530 = ORIENTED_EDGE('',*,*,#531,.T.);
#531 = EDGE_CURVE('',#511,#532,#534,.T.);
#532 = VERTEX_POINT('',#533);
#533 = CARTESIAN_POINT('',(0.777778,0.111111,1.));
#534 = SURFACE_CURVE('',#535,(#539),.PCURVE_S1.);
#535 = LINE('',#536,#537);
#536 = CARTESIAN_POINT('',(0.777778,0.222222,1.));
#537 = VECTOR('',#538,1.);
#538 = DIRECTION('',(0.,-1.,0.));
#539 = PCURVE('',#519,#540);
#540 = DEFINITIONAL_REPRESENTATION('',(#541),#545);
#541 = LINE('',#542,#543);
#542 = CARTESIAN_POINT('',(0.4444445,-5.55555E-02));
#543 = VECTOR('',#544,1.);
#544 = DIRECTION('',(0.,1.));
#545 = ( GEOMETRIC_REPRESENTATION_CONTEXT(2) 
PARAMETRIC_REPRESENTATION_CONTEXT() REPRESENTATION_CONTEXT('2D SPACE',''
  ) );
#546 = ORIENTED_EDGE('',*,*,#547,.T.);
#547 = EDGE_CURVE('',#532,#548,#550,.T.);
#548 = VERTEX_POINT('',#549);
#549 = CARTESIAN_POINT('',(0.777778,0.111111,0.111111));
#550 = SURFACE_CURVE('',#551,(#555),.PCURVE_S1.);
#551 = LINE('',#552,#553);
#552 = CARTESIAN_POINT('',(0.777778,0.111111,1.));
#553 = VECTOR('',#554,1.);
#554 = DIRECTION('',(0.,0.,-1.));
#555 = PCURVE('',#519,#556);
#556 = DEFINITIONAL_REPRESENTATION('',(#557),#561);
#557 = LINE('',#558,#559);
#558 = CARTESIAN_POINT('',(0.4444445,5.55555E-02));
#559 = VECTOR('',#560,1.);
#560 = DIRECTION('',(-1.,0.));
#561 = ( GEOMETRIC_REPRESENTATION_CONTEXT(2) 
PARAMETRIC_REPRESENTATION_CONTEXT() REPRESENTATION_CONTEXT('2D SPACE',''
  ) );
#562 = ORIENTED_EDGE('',*,*,#563,.T.);
#563 = EDGE_CURVE('',#548,#509,#564,.T.);
#564 = SURFACE_CURVE('',#565,(#569),.PCURVE_S1.);
#565 = LINE('',#566,#567);
#566 = CARTESIAN_POINT('',(0.777778,0.111111,0.111111));
#567 = VECTOR('',#568,1.);
#568 = DIRECTION('',(0.,1.,0.));
#569 = PCURVE('',#519,#570);
#570 = DEFINITIONAL_REPRESENTATION('',(#571),#575);
#571 = LINE('',#572,#573);
#572 = CARTESIAN_POINT('',(-0.4444445,5.55555E-02));
#573 = VECTOR('',#574,1.);
#574 = DIRECTION('',(0.,-1.));
#575 = ( GEOMETRIC_REPRESENTATION_CONTEXT(2) 
PARAMETRIC_REPRESENTATION_CONTEXT() REPRESENTATION_CONTEXT('2D SPACE',''
  ) );
#576 = ( GEOMETRIC_REPRESENTATION_CONTEXT(3) 
GLOBAL_UNCERTAINTY_ASSIGNED_CONTEXT((#580)) GLOBAL_UNIT_ASSIGNED_CONTEXT
((#577,#578,#579)) REPRESENTATION_CONTEXT('Context #1',
  '3D Context with UNIT and UNCERTAINTY') );
#577 = ( LENGTH_UNIT() NAMED_UNIT(*) SI_UNIT(.MILLI.,.METRE.) );
#578 = ( NAMED_UNIT(*) PLANE_ANGLE_UNIT() SI_UNIT($,.RADIAN.) );
#579 = ( NAMED_UNIT(*) SI_UNIT($,.STERADIAN.) SOLID_ANGLE_UNIT() );
#580 = UNCERTAINTY_MEASURE_WITH_UNIT(LENGTH_MEASURE(1.E-07),#577,
  'distance_accuracy_value','confusion accuracy');
#581 = CONTEXT_DEPENDENT_SHAPE_REPRESENTATION(#582,#584);
#582 = ( REPRESENTATION_RELATIONSHIP('','',#501,#10) 
REPRESENTATION_RELATIONSHIP_WITH_TRANSFORMATION(#583) 
SHAPE_REPRESENTATION_RELATIONSHIP() );
#583 = ITEM_DEFINED_TRANSFORMATION('','',#11,#35);
#584 = PRODUCT_DEFINITION_SHAPE('Placement','Placement of an item',#585
  );
#585 = NEXT_ASSEMBLY_USAGE_OCCURRENCE('6','','',#5,#496,$);
#586 = PRODUCT_RELATED_PRODUCT_CATEGORY('part',$,(#498));
ENDSEC;
END-ISO-10303-21;
