ISO-10303-21;
HEADER;
FILE_DESCRIPTION(('Open CASCADE Model'),'2;1');
FILE_NAME('Open CASCADE Shape Model','2026-06-29T02:10:44',('Author'),(
    'Open CASCADE'),'Open CASCADE STEP processor 7.9','Open CASCADE 7.9'
  ,'Unknown');
FILE_SCHEMA(('AUTOMOTIVE_DESIGN { 1 0 10303 214 1 1 1 1 }'));
ENDSEC;
DATA;
#1 = APPLICATION_PROTOCOL_DEFINITION('international standard',
  'automotive_design',2000,#2);
#2 = APPLICATION_CONTEXT(
  'core data for automotive mechanical design processes');
#3 = SHAPE_DEFINITION_REPRESENTATION(#4,#10);
#4 = PRODUCT_DEFINITION_SHAPE('','',#5);
#5 = PRODUCT_DEFINITION('design','',#6,#9);
#6 = PRODUCT_DEFINITION_FORMATION('','',#7);
#7 = PRODUCT('Open CASCADE STEP translator 7.9 1',
  'Open CASCADE STEP translator 7.9 1','',(#8));
#8 = PRODUCT_CONTEXT('',#2,'mechanical');
#9 = PRODUCT_DEFINITION_CONTEXT('part definition',#2,'design');
#10 = SHAPE_REPRESENTATION('',(#11,#15,#19,#23,#27,#31,#35,#39,#43,#47,
    #51,#55),#59);
#11 = AXIS2_PLACEMENT_3D('',#12,#13,#14);
#12 = CARTESIAN_POINT('',(0.,0.,0.));
#13 = DIRECTION('',(0.,0.,1.));
#14 = DIRECTION('',(1.,0.,-0.));
#15 = AXIS2_PLACEMENT_3D('',#16,#17,#18);
#16 = CARTESIAN_POINT('',(0.,0.,0.));
#17 = DIRECTION('',(0.,0.,1.));
#18 = DIRECTION('',(1.,0.,-0.));
#19 = AXIS2_PLACEMENT_3D('',#20,#21,#22);
#20 = CARTESIAN_POINT('',(0.,0.,0.));
#21 = DIRECTION('',(0.,0.,1.));
#22 = DIRECTION('',(1.,0.,-0.));
#23 = AXIS2_PLACEMENT_3D('',#24,#25,#26);
#24 = CARTESIAN_POINT('',(0.,0.,0.));
#25 = DIRECTION('',(0.,0.,1.));
#26 = DIRECTION('',(1.,0.,-0.));
#27 = AXIS2_PLACEMENT_3D('',#28,#29,#30);
#28 = CARTESIAN_POINT('',(0.,0.,0.));
#29 = DIRECTION('',(0.,0.,1.));
#30 = DIRECTION('',(1.,0.,-0.));
#31 = AXIS2_PLACEMENT_3D('',#32,#33,#34);
#32 = CARTESIAN_POINT('',(0.,0.,0.));
#33 = DIRECTION('',(0.,0.,1.));
#34 = DIRECTION('',(1.,0.,-0.));
#35 = AXIS2_PLACEMENT_3D('',#36,#37,#38);
#36 = CARTESIAN_POINT('',(0.,0.,0.));
#37 = DIRECTION('',(0.,0.,1.));
#38 = DIRECTION('',(1.,0.,-0.));
#39 = AXIS2_PLACEMENT_3D('',#40,#41,#42);
#40 = CARTESIAN_POINT('',(0.,0.,0.));
#41 = DIRECTION('',(0.,0.,1.));
#42 = DIRECTION('',(1.,0.,-0.));
#43 = AXIS2_PLACEMENT_3D('',#44,#45,#46);
#44 = CARTESIAN_POINT('',(0.,0.,0.));
#45 = DIRECTION('',(0.,0.,1.));
#46 = DIRECTION('',(1.,0.,-0.));
#47 = AXIS2_PLACEMENT_3D('',#48,#49,#50);
#48 = CARTESIAN_POINT('',(0.,0.,0.));
#49 = DIRECTION('',(0.,0.,1.));
#50 = DIRECTION('',(1.,0.,-0.));
#51 = AXIS2_PLACEMENT_3D('',#52,#53,#54);
#52 = CARTESIAN_POINT('',(0.,0.,0.));
#53 = DIRECTION('',(0.,0.,1.));
#54 = DIRECTION('',(1.,0.,-0.));
#55 = AXIS2_PLACEMENT_3D('',#56,#57,#58);
#56 = CARTESIAN_POINT('',(0.,0.,0.));
#57 = DIRECTION('',(0.,0.,1.));
#58 = DIRECTION('',(1.,0.,-0.));
#59 = ( GEOMETRIC_REPRESENTATION_CONTEXT(3) 
GLOBAL_UNCERTAINTY_ASSIGNED_CONTEXT((#63)) GLOBAL_UNIT_ASSIGNED_CONTEXT(
(#60,#61,#62)) REPRESENTATION_CONTEXT('Context #1',
  '3D Context with UNIT and UNCERTAINTY') );
#60 = ( LENGTH_UNIT() NAMED_UNIT(*) SI_UNIT(.MILLI.,.METRE.) );
#61 = ( NAMED_UNIT(*) PLANE_ANGLE_UNIT() SI_UNIT($,.RADIAN.) );
#62 = ( NAMED_UNIT(*) SI_UNIT($,.STERADIAN.) SOLID_ANGLE_UNIT() );
#63 = UNCERTAINTY_MEASURE_WITH_UNIT(LENGTH_MEASURE(1.E-07),#60,
  'distance_accuracy_value','confusion accuracy');
#64 = PRODUCT_RELATED_PRODUCT_CATEGORY('part',$,(#7));
#65 = SHAPE_DEFINITION_REPRESENTATION(#66,#72);
#66 = PRODUCT_DEFINITION_SHAPE('','',#67);
#67 = PRODUCT_DEFINITION('design','',#68,#71);
#68 = PRODUCT_DEFINITION_FORMATION('','',#69);
#69 = PRODUCT('Open CASCADE STEP translator 7.9 1.1',
  'Open CASCADE STEP translator 7.9 1.1','',(#70));
#70 = PRODUCT_CONTEXT('',#2,'mechanical');
#71 = PRODUCT_DEFINITION_CONTEXT('part definition',#2,'design');
#72 = MANIFOLD_SURFACE_SHAPE_REPRESENTATION('',(#11,#73),#162);
#73 = SHELL_BASED_SURFACE_MODEL('',(#74));
#74 = OPEN_SHELL('',(#75));
#75 = ADVANCED_FACE('',(#76),#90,.T.);
#76 = FACE_BOUND('',#77,.T.);
#77 = EDGE_LOOP('',(#78,#125,#143,#144));
#78 = ORIENTED_EDGE('',*,*,#79,.F.);
#79 = EDGE_CURVE('',#80,#82,#84,.T.);
#80 = VERTEX_POINT('',#81);
#81 = CARTESIAN_POINT('',(0.163068146247,5.033747906367E-02,
    0.505537122586));
#82 = VERTEX_POINT('',#83);
#83 = CARTESIAN_POINT('',(0.163068146247,4.98341042831E-02,
    0.505033747805));
#84 = SEAM_CURVE('',#85,(#89,#118),.PCURVE_S1.);
#85 = B_SPLINE_CURVE_WITH_KNOTS('',2,(#86,#87,#88),.UNSPECIFIED.,.F.,.F.
  ,(3,3),(4.712389,6.283185),.PIECEWISE_BEZIER_KNOTS.);
#86 = CARTESIAN_POINT('',(0.163068146247,5.033747906367E-02,
    0.505537122586));
#87 = CARTESIAN_POINT('',(0.163068146247,5.033747906367E-02,
    0.505033747805));
#88 = CARTESIAN_POINT('',(0.163068146247,4.98341042831E-02,
    0.505033747805));
#89 = PCURVE('',#90,#112);
#90 = B_SPLINE_SURFACE_WITH_KNOTS('',2,2,(
    (#91,#92,#93)
    ,(#94,#95,#96)
    ,(#97,#98,#99)
    ,(#100,#101,#102)
    ,(#103,#104,#105)
    ,(#106,#107,#108)
    ,(#109,#110,#111
    )),.UNSPECIFIED.,.T.,.F.,.F.,(1,2,2,2,2,1),(3,3),(-2.094395,0.,
    2.094395,4.18879,6.283185,8.37758),(4.712389,6.283185),
  .UNSPECIFIED.);
#91 = CARTESIAN_POINT('',(0.163068146247,5.033747906367E-02,
    0.505537122586));
#92 = CARTESIAN_POINT('',(0.163068146247,5.033747906367E-02,
    0.505033747805));
#93 = CARTESIAN_POINT('',(0.163068146247,4.98341042831E-02,
    0.505033747805));
#94 = CARTESIAN_POINT('',(0.19707110336,5.033747906367E-02,
    0.505537122586));
#95 = CARTESIAN_POINT('',(0.197942974055,5.033747906367E-02,
    0.505033747805));
#96 = CARTESIAN_POINT('',(0.197942974055,4.98341042831E-02,
    0.505033747805));
#97 = CARTESIAN_POINT('',(0.180069624803,5.033747906367E-02,
    0.534984547249));
#98 = CARTESIAN_POINT('',(0.180505560151,5.033747906367E-02,
    0.535236234639));
#99 = CARTESIAN_POINT('',(0.180505560151,4.98341042831E-02,
    0.535236234639));
#100 = CARTESIAN_POINT('',(0.163068146247,5.033747906367E-02,
    0.564431971912));
#101 = CARTESIAN_POINT('',(0.163068146247,5.033747906367E-02,
    0.565438721474));
#102 = CARTESIAN_POINT('',(0.163068146247,4.98341042831E-02,
    0.565438721474));
#103 = CARTESIAN_POINT('',(0.146066667691,5.033747906367E-02,
    0.534984547249));
#104 = CARTESIAN_POINT('',(0.145630732343,5.033747906367E-02,
    0.535236234639));
#105 = CARTESIAN_POINT('',(0.145630732343,4.98341042831E-02,
    0.535236234639));
#106 = CARTESIAN_POINT('',(0.129065189134,5.033747906367E-02,
    0.505537122586));
#107 = CARTESIAN_POINT('',(0.128193318439,5.033747906367E-02,
    0.505033747805));
#108 = CARTESIAN_POINT('',(0.128193318439,4.98341042831E-02,
    0.505033747805));
#109 = CARTESIAN_POINT('',(0.163068146247,5.033747906367E-02,
    0.505537122586));
#110 = CARTESIAN_POINT('',(0.163068146247,5.033747906367E-02,
    0.505033747805));
#111 = CARTESIAN_POINT('',(0.163068146247,4.98341042831E-02,
    0.505033747805));
#112 = DEFINITIONAL_REPRESENTATION('',(#113),#117);
#113 = LINE('',#114,#115);
#114 = CARTESIAN_POINT('',(0.,0.));
#115 = VECTOR('',#116,1.);
#116 = DIRECTION('',(0.,1.));
#117 = ( GEOMETRIC_REPRESENTATION_CONTEXT(2) 
PARAMETRIC_REPRESENTATION_CONTEXT() REPRESENTATION_CONTEXT('2D SPACE',''
  ) );
#118 = PCURVE('',#90,#119);
#119 = DEFINITIONAL_REPRESENTATION('',(#120),#124);
#120 = LINE('',#121,#122);
#121 = CARTESIAN_POINT('',(6.283185,0.));
#122 = VECTOR('',#123,1.);
#123 = DIRECTION('',(0.,1.));
#124 = ( GEOMETRIC_REPRESENTATION_CONTEXT(2) 
PARAMETRIC_REPRESENTATION_CONTEXT() REPRESENTATION_CONTEXT('2D SPACE',''
  ) );
#125 = ORIENTED_EDGE('',*,*,#126,.T.);
#126 = EDGE_CURVE('',#80,#80,#127,.T.);
#127 = SURFACE_CURVE('',#128,(#136),.PCURVE_S1.);
#128 = B_SPLINE_CURVE_WITH_KNOTS('',2,(#129,#130,#131,#132,#133,#134,
    #135),.UNSPECIFIED.,.T.,.F.,(1,2,2,2,2,1),(-2.094395,0.,2.094395,
    4.18879,6.283185,8.37758),.UNSPECIFIED.);
#129 = CARTESIAN_POINT('',(0.163068146247,5.033747906367E-02,
    0.505537122586));
#130 = CARTESIAN_POINT('',(0.19707110336,5.033747906367E-02,
    0.505537122586));
#131 = CARTESIAN_POINT('',(0.180069624803,5.033747906367E-02,
    0.534984547249));
#132 = CARTESIAN_POINT('',(0.163068146247,5.033747906367E-02,
    0.564431971912));
#133 = CARTESIAN_POINT('',(0.146066667691,5.033747906367E-02,
    0.534984547249));
#134 = CARTESIAN_POINT('',(0.129065189134,5.033747906367E-02,
    0.505537122586));
#135 = CARTESIAN_POINT('',(0.163068146247,5.033747906367E-02,
    0.505537122586));
#136 = PCURVE('',#90,#137);
#137 = DEFINITIONAL_REPRESENTATION('',(#138),#142);
#138 = LINE('',#139,#140);
#139 = CARTESIAN_POINT('',(0.,4.712389));
#140 = VECTOR('',#141,1.);
#141 = DIRECTION('',(1.,0.));
#142 = ( GEOMETRIC_REPRESENTATION_CONTEXT(2) 
PARAMETRIC_REPRESENTATION_CONTEXT() REPRESENTATION_CONTEXT('2D SPACE',''
  ) );
#143 = ORIENTED_EDGE('',*,*,#79,.T.);
#144 = ORIENTED_EDGE('',*,*,#145,.F.);
#145 = EDGE_CURVE('',#82,#82,#146,.T.);
#146 = SURFACE_CURVE('',#147,(#155),.PCURVE_S1.);
#147 = B_SPLINE_CURVE_WITH_KNOTS('',2,(#148,#149,#150,#151,#152,#153,
    #154),.UNSPECIFIED.,.T.,.F.,(1,2,2,2,2,1),(-2.094395,0.,2.094395,
    4.18879,6.283185,8.37758),.UNSPECIFIED.);
#148 = CARTESIAN_POINT('',(0.163068146247,4.98341042831E-02,
    0.505033747805));
#149 = CARTESIAN_POINT('',(0.197942974055,4.98341042831E-02,
    0.505033747805));
#150 = CARTESIAN_POINT('',(0.180505560151,4.98341042831E-02,
    0.535236234639));
#151 = CARTESIAN_POINT('',(0.163068146247,4.98341042831E-02,
    0.565438721474));
#152 = CARTESIAN_POINT('',(0.145630732343,4.98341042831E-02,
    0.535236234639));
#153 = CARTESIAN_POINT('',(0.128193318439,4.98341042831E-02,
    0.505033747805));
#154 = CARTESIAN_POINT('',(0.163068146247,4.98341042831E-02,
    0.505033747805));
#155 = PCURVE('',#90,#156);
#156 = DEFINITIONAL_REPRESENTATION('',(#157),#161);
#157 = LINE('',#158,#159);
#158 = CARTESIAN_POINT('',(0.,6.283185));
#159 = VECTOR('',#160,1.);
#160 = DIRECTION('',(1.,0.));
#161 = ( GEOMETRIC_REPRESENTATION_CONTEXT(2) 
PARAMETRIC_REPRESENTATION_CONTEXT() REPRESENTATION_CONTEXT('2D SPACE',''
  ) );
#162 = ( GEOMETRIC_REPRESENTATION_CONTEXT(3) 
GLOBAL_UNCERTAINTY_ASSIGNED_CONTEXT((#166)) GLOBAL_UNIT_ASSIGNED_CONTEXT
((#163,#164,#165)) REPRESENTATION_CONTEXT('Context #1',
  '3D Context with UNIT and UNCERTAINTY') );
#163 = ( LENGTH_UNIT() NAMED_UNIT(*) SI_UNIT(.MILLI.,.METRE.) );
#164 = ( NAMED_UNIT(*) PLANE_ANGLE_UNIT() SI_UNIT($,.RADIAN.) );
#165 = ( NAMED_UNIT(*) SI_UNIT($,.STERADIAN.) SOLID_ANGLE_UNIT() );
#166 = UNCERTAINTY_MEASURE_WITH_UNIT(LENGTH_MEASURE(1.E-07),#163,
  'distance_accuracy_value','confusion accuracy');
#167 = CONTEXT_DEPENDENT_SHAPE_REPRESENTATION(#168,#170);
#168 = ( REPRESENTATION_RELATIONSHIP('','',#72,#10) 
REPRESENTATION_RELATIONSHIP_WITH_TRANSFORMATION(#169) 
SHAPE_REPRESENTATION_RELATIONSHIP() );
#169 = ITEM_DEFINED_TRANSFORMATION('','',#11,#15);
#170 = PRODUCT_DEFINITION_SHAPE('Placement','Placement of an item',#171
  );
#171 = NEXT_ASSEMBLY_USAGE_OCCURRENCE('1','','',#5,#67,$);
#172 = PRODUCT_RELATED_PRODUCT_CATEGORY('part',$,(#69));
#173 = SHAPE_DEFINITION_REPRESENTATION(#174,#180);
#174 = PRODUCT_DEFINITION_SHAPE('','',#175);
#175 = PRODUCT_DEFINITION('design','',#176,#179);
#176 = PRODUCT_DEFINITION_FORMATION('','',#177);
#177 = PRODUCT('Open CASCADE STEP translator 7.9 1.2',
  'Open CASCADE STEP translator 7.9 1.2','',(#178));
#178 = PRODUCT_CONTEXT('',#2,'mechanical');
#179 = PRODUCT_DEFINITION_CONTEXT('part definition',#2,'design');
#180 = MANIFOLD_SURFACE_SHAPE_REPRESENTATION('',(#11,#181),#212);
#181 = SHELL_BASED_SURFACE_MODEL('',(#182));
#182 = OPEN_SHELL('',(#183));
#183 = ADVANCED_FACE('',(#184),#197,.T.);
#184 = FACE_BOUND('',#185,.T.);
#185 = EDGE_LOOP('',(#186));
#186 = ORIENTED_EDGE('',*,*,#187,.F.);
#187 = EDGE_CURVE('',#188,#188,#190,.T.);
#188 = VERTEX_POINT('',#189);
#189 = CARTESIAN_POINT('',(0.163068,5.0337E-02,0.505537));
#190 = SURFACE_CURVE('',#191,(#196),.PCURVE_S1.);
#191 = CIRCLE('',#192,1.9632E-02);
#192 = AXIS2_PLACEMENT_3D('',#193,#194,#195);
#193 = CARTESIAN_POINT('',(0.163068,5.0337E-02,0.525169));
#194 = DIRECTION('',(0.,-1.,0.));
#195 = DIRECTION('',(0.,-0.,-1.));
#196 = PCURVE('',#197,#202);
#197 = PLANE('',#198);
#198 = AXIS2_PLACEMENT_3D('',#199,#200,#201);
#199 = CARTESIAN_POINT('',(0.163068,5.0337E-02,0.52516900058));
#200 = DIRECTION('',(0.,1.,0.));
#201 = DIRECTION('',(0.,-0.,1.));
#202 = DEFINITIONAL_REPRESENTATION('',(#203),#211);
#203 = ( BOUNDED_CURVE() B_SPLINE_CURVE(2,(#204,#205,#206,#207,#208,#209
,#210),.UNSPECIFIED.,.T.,.F.) B_SPLINE_CURVE_WITH_KNOTS((1,2,2,2,2,1),(
    -2.094395102393,0.,2.094395102393,4.188790204786,6.28318530718,
8.377580409573),.UNSPECIFIED.) CURVE() GEOMETRIC_REPRESENTATION_ITEM() 
RATIONAL_B_SPLINE_CURVE((1.,0.5,1.,0.5,1.,0.5,1.)) REPRESENTATION_ITEM(
  '') );
#204 = CARTESIAN_POINT('',(-1.963200058029E-02,-8.326672684689E-17));
#205 = CARTESIAN_POINT('',(-1.963200058029E-02,3.400362145419E-02));
#206 = CARTESIAN_POINT('',(9.81599941971E-03,1.70018107271E-02));
#207 = CARTESIAN_POINT('',(3.926399941971E-02,-7.845827365471E-17));
#208 = CARTESIAN_POINT('',(9.81599941971E-03,-1.70018107271E-02));
#209 = CARTESIAN_POINT('',(-1.963200058029E-02,-3.400362145419E-02));
#210 = CARTESIAN_POINT('',(-1.963200058029E-02,-8.326672684689E-17));
#211 = ( GEOMETRIC_REPRESENTATION_CONTEXT(2) 
PARAMETRIC_REPRESENTATION_CONTEXT() REPRESENTATION_CONTEXT('2D SPACE',''
  ) );
#212 = ( GEOMETRIC_REPRESENTATION_CONTEXT(3) 
GLOBAL_UNCERTAINTY_ASSIGNED_CONTEXT((#216)) GLOBAL_UNIT_ASSIGNED_CONTEXT
((#213,#214,#215)) REPRESENTATION_CONTEXT('Context #1',
  '3D Context with UNIT and UNCERTAINTY') );
#213 = ( LENGTH_UNIT() NAMED_UNIT(*) SI_UNIT(.MILLI.,.METRE.) );
#214 = ( NAMED_UNIT(*) PLANE_ANGLE_UNIT() SI_UNIT($,.RADIAN.) );
#215 = ( NAMED_UNIT(*) SI_UNIT($,.STERADIAN.) SOLID_ANGLE_UNIT() );
#216 = UNCERTAINTY_MEASURE_WITH_UNIT(LENGTH_MEASURE(1.E-07),#213,
  'distance_accuracy_value','confusion accuracy');
#217 = CONTEXT_DEPENDENT_SHAPE_REPRESENTATION(#218,#220);
#218 = ( REPRESENTATION_RELATIONSHIP('','',#180,#10) 
REPRESENTATION_RELATIONSHIP_WITH_TRANSFORMATION(#219) 
SHAPE_REPRESENTATION_RELATIONSHIP() );
#219 = ITEM_DEFINED_TRANSFORMATION('','',#11,#19);
#220 = PRODUCT_DEFINITION_SHAPE('Placement','Placement of an item',#221
  );
#221 = NEXT_ASSEMBLY_USAGE_OCCURRENCE('2','','',#5,#175,$);
#222 = PRODUCT_RELATED_PRODUCT_CATEGORY('part',$,(#177));
#223 = SHAPE_DEFINITION_REPRESENTATION(#224,#230);
#224 = PRODUCT_DEFINITION_SHAPE('','',#225);
#225 = PRODUCT_DEFINITION('design','',#226,#229);
#226 = PRODUCT_DEFINITION_FORMATION('','',#227);
#227 = PRODUCT('Open CASCADE STEP translator 7.9 1.3',
  'Open CASCADE STEP translator 7.9 1.3','',(#228));
#228 = PRODUCT_CONTEXT('',#2,'mechanical');
#229 = PRODUCT_DEFINITION_CONTEXT('part definition',#2,'design');
#230 = MANIFOLD_SURFACE_SHAPE_REPRESENTATION('',(#11,#231),#302);
#231 = SHELL_BASED_SURFACE_MODEL('',(#232));
#232 = OPEN_SHELL('',(#233));
#233 = ADVANCED_FACE('',(#234),#248,.T.);
#234 = FACE_BOUND('',#235,.T.);
#235 = EDGE_LOOP('',(#236,#283,#301));
#236 = ORIENTED_EDGE('',*,*,#237,.F.);
#237 = EDGE_CURVE('',#238,#240,#242,.T.);
#238 = VERTEX_POINT('',#239);
#239 = CARTESIAN_POINT('',(0.163068146247,1.510124442383E-02,
    0.540269982445));
#240 = VERTEX_POINT('',#241);
#241 = CARTESIAN_POINT('',(0.163068146247,1.006750001073E-09,
    0.525168739028));
#242 = SEAM_CURVE('',#243,(#247,#276),.PCURVE_S1.);
#243 = B_SPLINE_CURVE_WITH_KNOTS('',2,(#244,#245,#246),.UNSPECIFIED.,.F.
  ,.F.,(3,3),(0.,1.570796),.PIECEWISE_BEZIER_KNOTS.);
#244 = CARTESIAN_POINT('',(0.163068146247,1.510124442383E-02,
    0.540269982445));
#245 = CARTESIAN_POINT('',(0.163068146247,1.006750004542E-09,
    0.540269982445));
#246 = CARTESIAN_POINT('',(0.163068146247,1.006750001073E-09,
    0.525168739028));
#247 = PCURVE('',#248,#270);
#248 = B_SPLINE_SURFACE_WITH_KNOTS('',2,2,(
    (#249,#250,#251)
    ,(#252,#253,#254)
    ,(#255,#256,#257)
    ,(#258,#259,#260)
    ,(#261,#262,#263)
    ,(#264,#265,#266)
    ,(#267,#268,#269
    )),.UNSPECIFIED.,.T.,.F.,.F.,(1,2,2,2,2,1),(3,3),(-2.094395,0.,
    2.094395,4.18879,6.283185,8.37758),(0.,1.570796),.UNSPECIFIED.);
#249 = CARTESIAN_POINT('',(0.163068146247,1.510124442383E-02,
    0.540269982445));
#250 = CARTESIAN_POINT('',(0.163068146247,1.006750004542E-09,
    0.540269982445));
#251 = CARTESIAN_POINT('',(0.163068146247,1.006750001073E-09,
    0.525168739028));
#252 = CARTESIAN_POINT('',(0.136912025391,1.510124442383E-02,
    0.540269982445));
#253 = CARTESIAN_POINT('',(0.136912025391,1.006750004542E-09,
    0.540269982445));
#254 = CARTESIAN_POINT('',(0.163068146247,1.006750001073E-09,
    0.525168739028));
#255 = CARTESIAN_POINT('',(0.149990085819,1.510124442383E-02,
    0.517618117319));
#256 = CARTESIAN_POINT('',(0.149990085819,1.006750004542E-09,
    0.517618117319));
#257 = CARTESIAN_POINT('',(0.163068146247,1.006750001073E-09,
    0.525168739028));
#258 = CARTESIAN_POINT('',(0.163068146247,1.510124442383E-02,
    0.494966252194));
#259 = CARTESIAN_POINT('',(0.163068146247,1.006750004542E-09,
    0.494966252194));
#260 = CARTESIAN_POINT('',(0.163068146247,1.006750001073E-09,
    0.525168739028));
#261 = CARTESIAN_POINT('',(0.176146206675,1.510124442383E-02,
    0.517618117319));
#262 = CARTESIAN_POINT('',(0.176146206675,1.006750004542E-09,
    0.517618117319));
#263 = CARTESIAN_POINT('',(0.163068146247,1.006750001073E-09,
    0.525168739028));
#264 = CARTESIAN_POINT('',(0.189224267103,1.510124442383E-02,
    0.540269982445));
#265 = CARTESIAN_POINT('',(0.189224267103,1.006750004542E-09,
    0.540269982445));
#266 = CARTESIAN_POINT('',(0.163068146247,1.006750001073E-09,
    0.525168739028));
#267 = CARTESIAN_POINT('',(0.163068146247,1.510124442383E-02,
    0.540269982445));
#268 = CARTESIAN_POINT('',(0.163068146247,1.006750004542E-09,
    0.540269982445));
#269 = CARTESIAN_POINT('',(0.163068146247,1.006750001073E-09,
    0.525168739028));
#270 = DEFINITIONAL_REPRESENTATION('',(#271),#275);
#271 = LINE('',#272,#273);
#272 = CARTESIAN_POINT('',(0.,0.));
#273 = VECTOR('',#274,1.);
#274 = DIRECTION('',(0.,1.));
#275 = ( GEOMETRIC_REPRESENTATION_CONTEXT(2) 
PARAMETRIC_REPRESENTATION_CONTEXT() REPRESENTATION_CONTEXT('2D SPACE',''
  ) );
#276 = PCURVE('',#248,#277);
#277 = DEFINITIONAL_REPRESENTATION('',(#278),#282);
#278 = LINE('',#279,#280);
#279 = CARTESIAN_POINT('',(6.283185,0.));
#280 = VECTOR('',#281,1.);
#281 = DIRECTION('',(0.,1.));
#282 = ( GEOMETRIC_REPRESENTATION_CONTEXT(2) 
PARAMETRIC_REPRESENTATION_CONTEXT() REPRESENTATION_CONTEXT('2D SPACE',''
  ) );
#283 = ORIENTED_EDGE('',*,*,#284,.T.);
#284 = EDGE_CURVE('',#238,#238,#285,.T.);
#285 = SURFACE_CURVE('',#286,(#294),.PCURVE_S1.);
#286 = B_SPLINE_CURVE_WITH_KNOTS('',2,(#287,#288,#289,#290,#291,#292,
    #293),.UNSPECIFIED.,.T.,.F.,(1,2,2,2,2,1),(-2.094395,0.,2.094395,
    4.18879,6.283185,8.37758),.UNSPECIFIED.);
#287 = CARTESIAN_POINT('',(0.163068146247,1.510124442383E-02,
    0.540269982445));
#288 = CARTESIAN_POINT('',(0.136912025391,1.510124442383E-02,
    0.540269982445));
#289 = CARTESIAN_POINT('',(0.149990085819,1.510124442383E-02,
    0.517618117319));
#290 = CARTESIAN_POINT('',(0.163068146247,1.510124442383E-02,
    0.494966252194));
#291 = CARTESIAN_POINT('',(0.176146206675,1.510124442383E-02,
    0.517618117319));
#292 = CARTESIAN_POINT('',(0.189224267103,1.510124442383E-02,
    0.540269982445));
#293 = CARTESIAN_POINT('',(0.163068146247,1.510124442383E-02,
    0.540269982445));
#294 = PCURVE('',#248,#295);
#295 = DEFINITIONAL_REPRESENTATION('',(#296),#300);
#296 = LINE('',#297,#298);
#297 = CARTESIAN_POINT('',(0.,0.));
#298 = VECTOR('',#299,1.);
#299 = DIRECTION('',(1.,0.));
#300 = ( GEOMETRIC_REPRESENTATION_CONTEXT(2) 
PARAMETRIC_REPRESENTATION_CONTEXT() REPRESENTATION_CONTEXT('2D SPACE',''
  ) );
#301 = ORIENTED_EDGE('',*,*,#237,.T.);
#302 = ( GEOMETRIC_REPRESENTATION_CONTEXT(3) 
GLOBAL_UNCERTAINTY_ASSIGNED_CONTEXT((#306)) GLOBAL_UNIT_ASSIGNED_CONTEXT
((#303,#304,#305)) REPRESENTATION_CONTEXT('Context #1',
  '3D Context with UNIT and UNCERTAINTY') );
#303 = ( LENGTH_UNIT() NAMED_UNIT(*) SI_UNIT(.MILLI.,.METRE.) );
#304 = ( NAMED_UNIT(*) PLANE_ANGLE_UNIT() SI_UNIT($,.RADIAN.) );
#305 = ( NAMED_UNIT(*) SI_UNIT($,.STERADIAN.) SOLID_ANGLE_UNIT() );
#306 = UNCERTAINTY_MEASURE_WITH_UNIT(LENGTH_MEASURE(1.E-07),#303,
  'distance_accuracy_value','confusion accuracy');
#307 = CONTEXT_DEPENDENT_SHAPE_REPRESENTATION(#308,#310);
#308 = ( REPRESENTATION_RELATIONSHIP('','',#230,#10) 
REPRESENTATION_RELATIONSHIP_WITH_TRANSFORMATION(#309) 
SHAPE_REPRESENTATION_RELATIONSHIP() );
#309 = ITEM_DEFINED_TRANSFORMATION('','',#11,#23);
#310 = PRODUCT_DEFINITION_SHAPE('Placement','Placement of an item',#311
  );
#311 = NEXT_ASSEMBLY_USAGE_OCCURRENCE('3','','',#5,#225,$);
#312 = PRODUCT_RELATED_PRODUCT_CATEGORY('part',$,(#227));
#313 = SHAPE_DEFINITION_REPRESENTATION(#314,#320);
#314 = PRODUCT_DEFINITION_SHAPE('','',#315);
#315 = PRODUCT_DEFINITION('design','',#316,#319);
#316 = PRODUCT_DEFINITION_FORMATION('','',#317);
#317 = PRODUCT('Open CASCADE STEP translator 7.9 1.4',
  'Open CASCADE STEP translator 7.9 1.4','',(#318));
#318 = PRODUCT_CONTEXT('',#2,'mechanical');
#319 = PRODUCT_DEFINITION_CONTEXT('part definition',#2,'design');
#320 = MANIFOLD_SURFACE_SHAPE_REPRESENTATION('',(#11,#321),#402);
#321 = SHELL_BASED_SURFACE_MODEL('',(#322));
#322 = OPEN_SHELL('',(#323));
#323 = ADVANCED_FACE('',(#324),#337,.T.);
#324 = FACE_BOUND('',#325,.T.);
#325 = EDGE_LOOP('',(#326,#365,#383,#384));
#326 = ORIENTED_EDGE('',*,*,#327,.F.);
#327 = EDGE_CURVE('',#328,#330,#332,.T.);
#328 = VERTEX_POINT('',#329);
#329 = CARTESIAN_POINT('',(0.163068146247,4.077335823286E-02,
    0.505033747805));
#330 = VERTEX_POINT('',#331);
#331 = CARTESIAN_POINT('',(0.163068146247,4.983410428311E-02,
    0.505033747805));
#332 = SEAM_CURVE('',#333,(#336,#358),.PCURVE_S1.);
#333 = B_SPLINE_CURVE_WITH_KNOTS('',1,(#334,#335),.UNSPECIFIED.,.F.,.F.,
  (2,2),(3.8256E-02,4.7317E-02),.PIECEWISE_BEZIER_KNOTS.);
#334 = CARTESIAN_POINT('',(0.163068146247,4.077335823286E-02,
    0.505033747805));
#335 = CARTESIAN_POINT('',(0.163068146247,4.983410428311E-02,
    0.505033747805));
#336 = PCURVE('',#337,#352);
#337 = ( BOUNDED_SURFACE() B_SPLINE_SURFACE(2,1,(
    (#338,#339)
    ,(#340,#341)
    ,(#342,#343)
    ,(#344,#345)
    ,(#346,#347)
    ,(#348,#349)
,(#350,#351
    )),.UNSPECIFIED.,.T.,.F.,.F.) B_SPLINE_SURFACE_WITH_KNOTS((1,2,2,2,2
    ,1),(2,2),(-2.094395,0.,2.094395,4.18879,6.283185,8.37758),(
3.8256E-02,4.7317E-02),.UNSPECIFIED.) GEOMETRIC_REPRESENTATION_ITEM() 
RATIONAL_B_SPLINE_SURFACE((
    (1.,1.)
    ,(0.5,0.5)
    ,(1.,1.)
    ,(0.5,0.5)
    ,(1.,1.)
    ,(0.5,0.5)
,(1.,1.))) REPRESENTATION_ITEM('') SURFACE() );
#338 = CARTESIAN_POINT('',(0.163068146247,4.077335823286E-02,
    0.505033747805));
#339 = CARTESIAN_POINT('',(0.163068146247,4.983410428311E-02,
    0.505033747805));
#340 = CARTESIAN_POINT('',(0.128193318439,4.077335823286E-02,
    0.505033747805));
#341 = CARTESIAN_POINT('',(0.128193318439,4.983410428311E-02,
    0.505033747805));
#342 = CARTESIAN_POINT('',(0.145630732343,4.077335823286E-02,
    0.535236234639));
#343 = CARTESIAN_POINT('',(0.145630732343,4.983410428311E-02,
    0.535236234639));
#344 = CARTESIAN_POINT('',(0.163068146247,4.077335823286E-02,
    0.565438721474));
#345 = CARTESIAN_POINT('',(0.163068146247,4.983410428311E-02,
    0.565438721474));
#346 = CARTESIAN_POINT('',(0.180505560151,4.077335823286E-02,
    0.535236234639));
#347 = CARTESIAN_POINT('',(0.180505560151,4.983410428311E-02,
    0.535236234639));
#348 = CARTESIAN_POINT('',(0.197942974055,4.077335823286E-02,
    0.505033747805));
#349 = CARTESIAN_POINT('',(0.197942974055,4.983410428311E-02,
    0.505033747805));
#350 = CARTESIAN_POINT('',(0.163068146247,4.077335823286E-02,
    0.505033747805));
#351 = CARTESIAN_POINT('',(0.163068146247,4.983410428311E-02,
    0.505033747805));
#352 = DEFINITIONAL_REPRESENTATION('',(#353),#357);
#353 = LINE('',#354,#355);
#354 = CARTESIAN_POINT('',(0.,0.));
#355 = VECTOR('',#356,1.);
#356 = DIRECTION('',(0.,1.));
#357 = ( GEOMETRIC_REPRESENTATION_CONTEXT(2) 
PARAMETRIC_REPRESENTATION_CONTEXT() REPRESENTATION_CONTEXT('2D SPACE',''
  ) );
#358 = PCURVE('',#337,#359);
#359 = DEFINITIONAL_REPRESENTATION('',(#360),#364);
#360 = LINE('',#361,#362);
#361 = CARTESIAN_POINT('',(6.283185,0.));
#362 = VECTOR('',#363,1.);
#363 = DIRECTION('',(0.,1.));
#364 = ( GEOMETRIC_REPRESENTATION_CONTEXT(2) 
PARAMETRIC_REPRESENTATION_CONTEXT() REPRESENTATION_CONTEXT('2D SPACE',''
  ) );
#365 = ORIENTED_EDGE('',*,*,#366,.T.);
#366 = EDGE_CURVE('',#328,#328,#367,.T.);
#367 = SURFACE_CURVE('',#368,(#376),.PCURVE_S1.);
#368 = ( BOUNDED_CURVE() B_SPLINE_CURVE(2,(#369,#370,#371,#372,#373,#374
,#375),.UNSPECIFIED.,.T.,.F.) B_SPLINE_CURVE_WITH_KNOTS((1,2,2,2,2,1),(
-2.094395,0.,2.094395,4.18879,6.283185,8.37758),.UNSPECIFIED.) CURVE() 
GEOMETRIC_REPRESENTATION_ITEM() RATIONAL_B_SPLINE_CURVE((1.,0.5,1.,0.5,
1.,0.5,1.)) REPRESENTATION_ITEM('') );
#369 = CARTESIAN_POINT('',(0.163068146247,4.077335823286E-02,
    0.505033747805));
#370 = CARTESIAN_POINT('',(0.128193318439,4.077335823286E-02,
    0.505033747805));
#371 = CARTESIAN_POINT('',(0.145630732343,4.077335823286E-02,
    0.535236234639));
#372 = CARTESIAN_POINT('',(0.163068146247,4.077335823286E-02,
    0.565438721474));
#373 = CARTESIAN_POINT('',(0.180505560151,4.077335823286E-02,
    0.535236234639));
#374 = CARTESIAN_POINT('',(0.197942974055,4.077335823286E-02,
    0.505033747805));
#375 = CARTESIAN_POINT('',(0.163068146247,4.077335823286E-02,
    0.505033747805));
#376 = PCURVE('',#337,#377);
#377 = DEFINITIONAL_REPRESENTATION('',(#378),#382);
#378 = LINE('',#379,#380);
#379 = CARTESIAN_POINT('',(0.,3.8256E-02));
#380 = VECTOR('',#381,1.);
#381 = DIRECTION('',(1.,0.));
#382 = ( GEOMETRIC_REPRESENTATION_CONTEXT(2) 
PARAMETRIC_REPRESENTATION_CONTEXT() REPRESENTATION_CONTEXT('2D SPACE',''
  ) );
#383 = ORIENTED_EDGE('',*,*,#327,.T.);
#384 = ORIENTED_EDGE('',*,*,#385,.F.);
#385 = EDGE_CURVE('',#330,#330,#386,.T.);
#386 = SURFACE_CURVE('',#387,(#395),.PCURVE_S1.);
#387 = ( BOUNDED_CURVE() B_SPLINE_CURVE(2,(#388,#389,#390,#391,#392,#393
,#394),.UNSPECIFIED.,.T.,.F.) B_SPLINE_CURVE_WITH_KNOTS((1,2,2,2,2,1),(
-2.094395,0.,2.094395,4.18879,6.283185,8.37758),.UNSPECIFIED.) CURVE() 
GEOMETRIC_REPRESENTATION_ITEM() RATIONAL_B_SPLINE_CURVE((1.,0.5,1.,0.5,
1.,0.5,1.)) REPRESENTATION_ITEM('') );
#388 = CARTESIAN_POINT('',(0.163068146247,4.983410428311E-02,
    0.505033747805));
#389 = CARTESIAN_POINT('',(0.128193318439,4.983410428311E-02,
    0.505033747805));
#390 = CARTESIAN_POINT('',(0.145630732343,4.983410428311E-02,
    0.535236234639));
#391 = CARTESIAN_POINT('',(0.163068146247,4.983410428311E-02,
    0.565438721474));
#392 = CARTESIAN_POINT('',(0.180505560151,4.983410428311E-02,
    0.535236234639));
#393 = CARTESIAN_POINT('',(0.197942974055,4.983410428311E-02,
    0.505033747805));
#394 = CARTESIAN_POINT('',(0.163068146247,4.983410428311E-02,
    0.505033747805));
#395 = PCURVE('',#337,#396);
#396 = DEFINITIONAL_REPRESENTATION('',(#397),#401);
#397 = LINE('',#398,#399);
#398 = CARTESIAN_POINT('',(0.,4.7317E-02));
#399 = VECTOR('',#400,1.);
#400 = DIRECTION('',(1.,0.));
#401 = ( GEOMETRIC_REPRESENTATION_CONTEXT(2) 
PARAMETRIC_REPRESENTATION_CONTEXT() REPRESENTATION_CONTEXT('2D SPACE',''
  ) );
#402 = ( GEOMETRIC_REPRESENTATION_CONTEXT(3) 
GLOBAL_UNCERTAINTY_ASSIGNED_CONTEXT((#406)) GLOBAL_UNIT_ASSIGNED_CONTEXT
((#403,#404,#405)) REPRESENTATION_CONTEXT('Context #1',
  '3D Context with UNIT and UNCERTAINTY') );
#403 = ( LENGTH_UNIT() NAMED_UNIT(*) SI_UNIT(.MILLI.,.METRE.) );
#404 = ( NAMED_UNIT(*) PLANE_ANGLE_UNIT() SI_UNIT($,.RADIAN.) );
#405 = ( NAMED_UNIT(*) SI_UNIT($,.STERADIAN.) SOLID_ANGLE_UNIT() );
#406 = UNCERTAINTY_MEASURE_WITH_UNIT(LENGTH_MEASURE(1.E-07),#403,
  'distance_accuracy_value','confusion accuracy');
#407 = CONTEXT_DEPENDENT_SHAPE_REPRESENTATION(#408,#410);
#408 = ( REPRESENTATION_RELATIONSHIP('','',#320,#10) 
REPRESENTATION_RELATIONSHIP_WITH_TRANSFORMATION(#409) 
SHAPE_REPRESENTATION_RELATIONSHIP() );
#409 = ITEM_DEFINED_TRANSFORMATION('','',#11,#27);
#410 = PRODUCT_DEFINITION_SHAPE('Placement','Placement of an item',#411
  );
#411 = NEXT_ASSEMBLY_USAGE_OCCURRENCE('4','','',#5,#315,$);
#412 = PRODUCT_RELATED_PRODUCT_CATEGORY('part',$,(#317));
#413 = SHAPE_DEFINITION_REPRESENTATION(#414,#420);
#414 = PRODUCT_DEFINITION_SHAPE('','',#415);
#415 = PRODUCT_DEFINITION('design','',#416,#419);
#416 = PRODUCT_DEFINITION_FORMATION('','',#417);
#417 = PRODUCT('Open CASCADE STEP translator 7.9 1.5',
  'Open CASCADE STEP translator 7.9 1.5','',(#418));
#418 = PRODUCT_CONTEXT('',#2,'mechanical');
#419 = PRODUCT_DEFINITION_CONTEXT('part definition',#2,'design');
#420 = MANIFOLD_SURFACE_SHAPE_REPRESENTATION('',(#11,#421),#510);
#421 = SHELL_BASED_SURFACE_MODEL('',(#422));
#422 = OPEN_SHELL('',(#423));
#423 = ADVANCED_FACE('',(#424),#438,.T.);
#424 = FACE_BOUND('',#425,.T.);
#425 = EDGE_LOOP('',(#426,#473,#491,#492));
#426 = ORIENTED_EDGE('',*,*,#427,.F.);
#427 = EDGE_CURVE('',#428,#430,#432,.T.);
#428 = VERTEX_POINT('',#429);
#429 = CARTESIAN_POINT('',(0.163068146247,4.077335823286E-02,
    0.505033747805));
#430 = VERTEX_POINT('',#431);
#431 = CARTESIAN_POINT('',(0.163068146247,4.026998345229E-02,
    0.505537122586));
#432 = SEAM_CURVE('',#433,(#437,#466),.PCURVE_S1.);
#433 = B_SPLINE_CURVE_WITH_KNOTS('',2,(#434,#435,#436),.UNSPECIFIED.,.F.
  ,.F.,(3,3),(0.,1.570796),.PIECEWISE_BEZIER_KNOTS.);
#434 = CARTESIAN_POINT('',(0.163068146247,4.077335823286E-02,
    0.505033747805));
#435 = CARTESIAN_POINT('',(0.163068146247,4.026998345229E-02,
    0.505033747805));
#436 = CARTESIAN_POINT('',(0.163068146247,4.026998345229E-02,
    0.505537122586));
#437 = PCURVE('',#438,#460);
#438 = B_SPLINE_SURFACE_WITH_KNOTS('',2,2,(
    (#439,#440,#441)
    ,(#442,#443,#444)
    ,(#445,#446,#447)
    ,(#448,#449,#450)
    ,(#451,#452,#453)
    ,(#454,#455,#456)
    ,(#457,#458,#459
    )),.UNSPECIFIED.,.T.,.F.,.F.,(1,2,2,2,2,1),(3,3),(-2.094395,0.,
    2.094395,4.18879,6.283185,8.37758),(0.,1.570796),.UNSPECIFIED.);
#439 = CARTESIAN_POINT('',(0.163068146247,4.077335823286E-02,
    0.505033747805));
#440 = CARTESIAN_POINT('',(0.163068146247,4.026998345229E-02,
    0.505033747805));
#441 = CARTESIAN_POINT('',(0.163068146247,4.026998345229E-02,
    0.505537122586));
#442 = CARTESIAN_POINT('',(0.197942974055,4.077335823286E-02,
    0.505033747805));
#443 = CARTESIAN_POINT('',(0.197942974055,4.026998345229E-02,
    0.505033747805));
#444 = CARTESIAN_POINT('',(0.19707110336,4.026998345229E-02,
    0.505537122586));
#445 = CARTESIAN_POINT('',(0.180505560151,4.077335823286E-02,
    0.535236234639));
#446 = CARTESIAN_POINT('',(0.180505560151,4.026998345229E-02,
    0.535236234639));
#447 = CARTESIAN_POINT('',(0.180069624803,4.026998345229E-02,
    0.534984547249));
#448 = CARTESIAN_POINT('',(0.163068146247,4.077335823286E-02,
    0.565438721474));
#449 = CARTESIAN_POINT('',(0.163068146247,4.026998345229E-02,
    0.565438721474));
#450 = CARTESIAN_POINT('',(0.163068146247,4.026998345229E-02,
    0.564431971912));
#451 = CARTESIAN_POINT('',(0.145630732343,4.077335823286E-02,
    0.535236234639));
#452 = CARTESIAN_POINT('',(0.145630732343,4.026998345229E-02,
    0.535236234639));
#453 = CARTESIAN_POINT('',(0.146066667691,4.026998345229E-02,
    0.534984547249));
#454 = CARTESIAN_POINT('',(0.128193318439,4.077335823286E-02,
    0.505033747805));
#455 = CARTESIAN_POINT('',(0.128193318439,4.026998345229E-02,
    0.505033747805));
#456 = CARTESIAN_POINT('',(0.129065189134,4.026998345229E-02,
    0.505537122586));
#457 = CARTESIAN_POINT('',(0.163068146247,4.077335823286E-02,
    0.505033747805));
#458 = CARTESIAN_POINT('',(0.163068146247,4.026998345229E-02,
    0.505033747805));
#459 = CARTESIAN_POINT('',(0.163068146247,4.026998345229E-02,
    0.505537122586));
#460 = DEFINITIONAL_REPRESENTATION('',(#461),#465);
#461 = LINE('',#462,#463);
#462 = CARTESIAN_POINT('',(0.,0.));
#463 = VECTOR('',#464,1.);
#464 = DIRECTION('',(0.,1.));
#465 = ( GEOMETRIC_REPRESENTATION_CONTEXT(2) 
PARAMETRIC_REPRESENTATION_CONTEXT() REPRESENTATION_CONTEXT('2D SPACE',''
  ) );
#466 = PCURVE('',#438,#467);
#467 = DEFINITIONAL_REPRESENTATION('',(#468),#472);
#468 = LINE('',#469,#470);
#469 = CARTESIAN_POINT('',(6.283185,0.));
#470 = VECTOR('',#471,1.);
#471 = DIRECTION('',(0.,1.));
#472 = ( GEOMETRIC_REPRESENTATION_CONTEXT(2) 
PARAMETRIC_REPRESENTATION_CONTEXT() REPRESENTATION_CONTEXT('2D SPACE',''
  ) );
#473 = ORIENTED_EDGE('',*,*,#474,.T.);
#474 = EDGE_CURVE('',#428,#428,#475,.T.);
#475 = SURFACE_CURVE('',#476,(#484),.PCURVE_S1.);
#476 = B_SPLINE_CURVE_WITH_KNOTS('',2,(#477,#478,#479,#480,#481,#482,
    #483),.UNSPECIFIED.,.T.,.F.,(1,2,2,2,2,1),(-2.094395,0.,2.094395,
    4.18879,6.283185,8.37758),.UNSPECIFIED.);
#477 = CARTESIAN_POINT('',(0.163068146247,4.077335823286E-02,
    0.505033747805));
#478 = CARTESIAN_POINT('',(0.197942974055,4.077335823286E-02,
    0.505033747805));
#479 = CARTESIAN_POINT('',(0.180505560151,4.077335823286E-02,
    0.535236234639));
#480 = CARTESIAN_POINT('',(0.163068146247,4.077335823286E-02,
    0.565438721474));
#481 = CARTESIAN_POINT('',(0.145630732343,4.077335823286E-02,
    0.535236234639));
#482 = CARTESIAN_POINT('',(0.128193318439,4.077335823286E-02,
    0.505033747805));
#483 = CARTESIAN_POINT('',(0.163068146247,4.077335823286E-02,
    0.505033747805));
#484 = PCURVE('',#438,#485);
#485 = DEFINITIONAL_REPRESENTATION('',(#486),#490);
#486 = LINE('',#487,#488);
#487 = CARTESIAN_POINT('',(0.,0.));
#488 = VECTOR('',#489,1.);
#489 = DIRECTION('',(1.,0.));
#490 = ( GEOMETRIC_REPRESENTATION_CONTEXT(2) 
PARAMETRIC_REPRESENTATION_CONTEXT() REPRESENTATION_CONTEXT('2D SPACE',''
  ) );
#491 = ORIENTED_EDGE('',*,*,#427,.T.);
#492 = ORIENTED_EDGE('',*,*,#493,.F.);
#493 = EDGE_CURVE('',#430,#430,#494,.T.);
#494 = SURFACE_CURVE('',#495,(#503),.PCURVE_S1.);
#495 = B_SPLINE_CURVE_WITH_KNOTS('',2,(#496,#497,#498,#499,#500,#501,
    #502),.UNSPECIFIED.,.T.,.F.,(1,2,2,2,2,1),(-2.094395,0.,2.094395,
    4.18879,6.283185,8.37758),.UNSPECIFIED.);
#496 = CARTESIAN_POINT('',(0.163068146247,4.026998345229E-02,
    0.505537122586));
#497 = CARTESIAN_POINT('',(0.19707110336,4.026998345229E-02,
    0.505537122586));
#498 = CARTESIAN_POINT('',(0.180069624803,4.026998345229E-02,
    0.534984547249));
#499 = CARTESIAN_POINT('',(0.163068146247,4.026998345229E-02,
    0.564431971912));
#500 = CARTESIAN_POINT('',(0.146066667691,4.026998345229E-02,
    0.534984547249));
#501 = CARTESIAN_POINT('',(0.129065189134,4.026998345229E-02,
    0.505537122586));
#502 = CARTESIAN_POINT('',(0.163068146247,4.026998345229E-02,
    0.505537122586));
#503 = PCURVE('',#438,#504);
#504 = DEFINITIONAL_REPRESENTATION('',(#505),#509);
#505 = LINE('',#506,#507);
#506 = CARTESIAN_POINT('',(0.,1.570796));
#507 = VECTOR('',#508,1.);
#508 = DIRECTION('',(1.,0.));
#509 = ( GEOMETRIC_REPRESENTATION_CONTEXT(2) 
PARAMETRIC_REPRESENTATION_CONTEXT() REPRESENTATION_CONTEXT('2D SPACE',''
  ) );
#510 = ( GEOMETRIC_REPRESENTATION_CONTEXT(3) 
GLOBAL_UNCERTAINTY_ASSIGNED_CONTEXT((#514)) GLOBAL_UNIT_ASSIGNED_CONTEXT
((#511,#512,#513)) REPRESENTATION_CONTEXT('Context #1',
  '3D Context with UNIT and UNCERTAINTY') );
#511 = ( LENGTH_UNIT() NAMED_UNIT(*) SI_UNIT(.MILLI.,.METRE.) );
#512 = ( NAMED_UNIT(*) PLANE_ANGLE_UNIT() SI_UNIT($,.RADIAN.) );
#513 = ( NAMED_UNIT(*) SI_UNIT($,.STERADIAN.) SOLID_ANGLE_UNIT() );
#514 = UNCERTAINTY_MEASURE_WITH_UNIT(LENGTH_MEASURE(1.E-07),#511,
  'distance_accuracy_value','confusion accuracy');
#515 = CONTEXT_DEPENDENT_SHAPE_REPRESENTATION(#516,#518);
#516 = ( REPRESENTATION_RELATIONSHIP('','',#420,#10) 
REPRESENTATION_RELATIONSHIP_WITH_TRANSFORMATION(#517) 
SHAPE_REPRESENTATION_RELATIONSHIP() );
#517 = ITEM_DEFINED_TRANSFORMATION('','',#11,#31);
#518 = PRODUCT_DEFINITION_SHAPE('Placement','Placement of an item',#519
  );
#519 = NEXT_ASSEMBLY_USAGE_OCCURRENCE('5','','',#5,#415,$);
#520 = PRODUCT_RELATED_PRODUCT_CATEGORY('part',$,(#417));
#521 = SHAPE_DEFINITION_REPRESENTATION(#522,#528);
#522 = PRODUCT_DEFINITION_SHAPE('','',#523);
#523 = PRODUCT_DEFINITION('design','',#524,#527);
#524 = PRODUCT_DEFINITION_FORMATION('','',#525);
#525 = PRODUCT('Open CASCADE STEP translator 7.9 1.6',
  'Open CASCADE STEP translator 7.9 1.6','',(#526));
#526 = PRODUCT_CONTEXT('',#2,'mechanical');
#527 = PRODUCT_DEFINITION_CONTEXT('part definition',#2,'design');
#528 = MANIFOLD_SURFACE_SHAPE_REPRESENTATION('',(#11,#529),#575);
#529 = SHELL_BASED_SURFACE_MODEL('',(#530));
#530 = OPEN_SHELL('',(#531));
#531 = ADVANCED_FACE('',(#532,#556),#545,.T.);
#532 = FACE_BOUND('',#533,.T.);
#533 = EDGE_LOOP('',(#534));
#534 = ORIENTED_EDGE('',*,*,#535,.T.);
#535 = EDGE_CURVE('',#536,#536,#538,.T.);
#536 = VERTEX_POINT('',#537);
#537 = CARTESIAN_POINT('',(0.163068,4.027E-02,0.505537));
#538 = SURFACE_CURVE('',#539,(#544),.PCURVE_S1.);
#539 = CIRCLE('',#540,1.9632E-02);
#540 = AXIS2_PLACEMENT_3D('',#541,#542,#543);
#541 = CARTESIAN_POINT('',(0.163068,4.027E-02,0.525169));
#542 = DIRECTION('',(0.,-1.,0.));
#543 = DIRECTION('',(0.,-0.,-1.));
#544 = PCURVE('',#545,#550);
#545 = PLANE('',#546);
#546 = AXIS2_PLACEMENT_3D('',#547,#548,#549);
#547 = CARTESIAN_POINT('',(0.163068,4.027E-02,0.52516900058));
#548 = DIRECTION('',(-0.,-1.,-0.));
#549 = DIRECTION('',(0.,0.,-1.));
#550 = DEFINITIONAL_REPRESENTATION('',(#551),#555);
#551 = CIRCLE('',#552,1.9632E-02);
#552 = AXIS2_PLACEMENT_2D('',#553,#554);
#553 = CARTESIAN_POINT('',(5.802900382434E-10,-8.326672684689E-17));
#554 = DIRECTION('',(1.,0.));
#555 = ( GEOMETRIC_REPRESENTATION_CONTEXT(2) 
PARAMETRIC_REPRESENTATION_CONTEXT() REPRESENTATION_CONTEXT('2D SPACE',''
  ) );
#556 = FACE_BOUND('',#557,.F.);
#557 = EDGE_LOOP('',(#558));
#558 = ORIENTED_EDGE('',*,*,#559,.F.);
#559 = EDGE_CURVE('',#560,#560,#562,.T.);
#560 = VERTEX_POINT('',#561);
#561 = CARTESIAN_POINT('',(0.163068,4.027E-02,0.509564));
#562 = SURFACE_CURVE('',#563,(#568),.PCURVE_S1.);
#563 = CIRCLE('',#564,1.5605E-02);
#564 = AXIS2_PLACEMENT_3D('',#565,#566,#567);
#565 = CARTESIAN_POINT('',(0.163068,4.027E-02,0.525169));
#566 = DIRECTION('',(0.,-1.,0.));
#567 = DIRECTION('',(0.,-0.,-1.));
#568 = PCURVE('',#545,#569);
#569 = DEFINITIONAL_REPRESENTATION('',(#570),#574);
#570 = CIRCLE('',#571,1.5605E-02);
#571 = AXIS2_PLACEMENT_2D('',#572,#573);
#572 = CARTESIAN_POINT('',(5.802900382434E-10,-8.326672684689E-17));
#573 = DIRECTION('',(1.,0.));
#574 = ( GEOMETRIC_REPRESENTATION_CONTEXT(2) 
PARAMETRIC_REPRESENTATION_CONTEXT() REPRESENTATION_CONTEXT('2D SPACE',''
  ) );
#575 = ( GEOMETRIC_REPRESENTATION_CONTEXT(3) 
GLOBAL_UNCERTAINTY_ASSIGNED_CONTEXT((#579)) GLOBAL_UNIT_ASSIGNED_CONTEXT
((#576,#577,#578)) REPRESENTATION_CONTEXT('Context #1',
  '3D Context with UNIT and UNCERTAINTY') );
#576 = ( LENGTH_UNIT() NAMED_UNIT(*) SI_UNIT(.MILLI.,.METRE.) );
#577 = ( NAMED_UNIT(*) PLANE_ANGLE_UNIT() SI_UNIT($,.RADIAN.) );
#578 = ( NAMED_UNIT(*) SI_UNIT($,.STERADIAN.) SOLID_ANGLE_UNIT() );
#579 = UNCERTAINTY_MEASURE_WITH_UNIT(LENGTH_MEASURE(1.E-07),#576,
  'distance_accuracy_value','confusion accuracy');
#580 = CONTEXT_DEPENDENT_SHAPE_REPRESENTATION(#581,#583);
#581 = ( REPRESENTATION_RELATIONSHIP('','',#528,#10) 
REPRESENTATION_RELATIONSHIP_WITH_TRANSFORMATION(#582) 
SHAPE_REPRESENTATION_RELATIONSHIP() );
#582 = ITEM_DEFINED_TRANSFORMATION('','',#11,#35);
#583 = PRODUCT_DEFINITION_SHAPE('Placement','Placement of an item',#584
  );
#584 = NEXT_ASSEMBLY_USAGE_OCCURRENCE('6','','',#5,#523,$);
#585 = PRODUCT_RELATED_PRODUCT_CATEGORY('part',$,(#525));
#586 = SHAPE_DEFINITION_REPRESENTATION(#587,#593);
#587 = PRODUCT_DEFINITION_SHAPE('','',#588);
#588 = PRODUCT_DEFINITION('design','',#589,#592);
#589 = PRODUCT_DEFINITION_FORMATION('','',#590);
#590 = PRODUCT('Open CASCADE STEP translator 7.9 1.7',
  'Open CASCADE STEP translator 7.9 1.7','',(#591));
#591 = PRODUCT_CONTEXT('',#2,'mechanical');
#592 = PRODUCT_DEFINITION_CONTEXT('part definition',#2,'design');
#593 = MANIFOLD_SURFACE_SHAPE_REPRESENTATION('',(#11,#594),#683);
#594 = SHELL_BASED_SURFACE_MODEL('',(#595));
#595 = OPEN_SHELL('',(#596));
#596 = ADVANCED_FACE('',(#597),#611,.T.);
#597 = FACE_BOUND('',#598,.T.);
#598 = EDGE_LOOP('',(#599,#646,#664,#665));
#599 = ORIENTED_EDGE('',*,*,#600,.F.);
#600 = EDGE_CURVE('',#601,#603,#605,.T.);
#601 = VERTEX_POINT('',#602);
#602 = CARTESIAN_POINT('',(0.163068146247,3.976660867172E-02,
    0.510067495611));
#603 = VERTEX_POINT('',#604);
#604 = CARTESIAN_POINT('',(0.163068146247,4.026998345229E-02,
    0.50956412083));
#605 = SEAM_CURVE('',#606,(#610,#639),.PCURVE_S1.);
#606 = B_SPLINE_CURVE_WITH_KNOTS('',2,(#607,#608,#609),.UNSPECIFIED.,.F.
  ,.F.,(3,3),(3.141593,4.712389),.PIECEWISE_BEZIER_KNOTS.);
#607 = CARTESIAN_POINT('',(0.163068146247,3.976660867172E-02,
    0.510067495611));
#608 = CARTESIAN_POINT('',(0.163068146247,4.026998345229E-02,
    0.510067495611));
#609 = CARTESIAN_POINT('',(0.163068146247,4.026998345229E-02,
    0.50956412083));
#610 = PCURVE('',#611,#633);
#611 = B_SPLINE_SURFACE_WITH_KNOTS('',2,2,(
    (#612,#613,#614)
    ,(#615,#616,#617)
    ,(#618,#619,#620)
    ,(#621,#622,#623)
    ,(#624,#625,#626)
    ,(#627,#628,#629)
    ,(#630,#631,#632
    )),.UNSPECIFIED.,.T.,.F.,.F.,(1,2,2,2,2,1),(3,3),(-2.094395,0.,
    2.094395,4.18879,6.283185,8.37758),(3.141593,4.712389),
  .UNSPECIFIED.);
#612 = CARTESIAN_POINT('',(0.163068146247,3.976660867172E-02,
    0.510067495611));
#613 = CARTESIAN_POINT('',(0.163068146247,4.026998345229E-02,
    0.510067495611));
#614 = CARTESIAN_POINT('',(0.163068146247,4.026998345229E-02,
    0.50956412083));
#615 = CARTESIAN_POINT('',(0.189224267103,3.976660867172E-02,
    0.510067495611));
#616 = CARTESIAN_POINT('',(0.189224267103,4.026998345229E-02,
    0.510067495611));
#617 = CARTESIAN_POINT('',(0.190096137798,4.026998345229E-02,
    0.50956412083));
#618 = CARTESIAN_POINT('',(0.176146206675,3.976660867172E-02,
    0.532719360737));
#619 = CARTESIAN_POINT('',(0.176146206675,4.026998345229E-02,
    0.532719360737));
#620 = CARTESIAN_POINT('',(0.176582142023,4.026998345229E-02,
    0.532971048127));
#621 = CARTESIAN_POINT('',(0.163068146247,3.976660867172E-02,
    0.555371225862));
#622 = CARTESIAN_POINT('',(0.163068146247,4.026998345229E-02,
    0.555371225862));
#623 = CARTESIAN_POINT('',(0.163068146247,4.026998345229E-02,
    0.556377975423));
#624 = CARTESIAN_POINT('',(0.149990085819,3.976660867172E-02,
    0.532719360737));
#625 = CARTESIAN_POINT('',(0.149990085819,4.026998345229E-02,
    0.532719360737));
#626 = CARTESIAN_POINT('',(0.149554150471,4.026998345229E-02,
    0.532971048127));
#627 = CARTESIAN_POINT('',(0.136912025391,3.976660867172E-02,
    0.510067495611));
#628 = CARTESIAN_POINT('',(0.136912025391,4.026998345229E-02,
    0.510067495611));
#629 = CARTESIAN_POINT('',(0.136040154696,4.026998345229E-02,
    0.50956412083));
#630 = CARTESIAN_POINT('',(0.163068146247,3.976660867172E-02,
    0.510067495611));
#631 = CARTESIAN_POINT('',(0.163068146247,4.026998345229E-02,
    0.510067495611));
#632 = CARTESIAN_POINT('',(0.163068146247,4.026998345229E-02,
    0.50956412083));
#633 = DEFINITIONAL_REPRESENTATION('',(#634),#638);
#634 = LINE('',#635,#636);
#635 = CARTESIAN_POINT('',(0.,0.));
#636 = VECTOR('',#637,1.);
#637 = DIRECTION('',(0.,1.));
#638 = ( GEOMETRIC_REPRESENTATION_CONTEXT(2) 
PARAMETRIC_REPRESENTATION_CONTEXT() REPRESENTATION_CONTEXT('2D SPACE',''
  ) );
#639 = PCURVE('',#611,#640);
#640 = DEFINITIONAL_REPRESENTATION('',(#641),#645);
#641 = LINE('',#642,#643);
#642 = CARTESIAN_POINT('',(6.283185,0.));
#643 = VECTOR('',#644,1.);
#644 = DIRECTION('',(0.,1.));
#645 = ( GEOMETRIC_REPRESENTATION_CONTEXT(2) 
PARAMETRIC_REPRESENTATION_CONTEXT() REPRESENTATION_CONTEXT('2D SPACE',''
  ) );
#646 = ORIENTED_EDGE('',*,*,#647,.T.);
#647 = EDGE_CURVE('',#601,#601,#648,.T.);
#648 = SURFACE_CURVE('',#649,(#657),.PCURVE_S1.);
#649 = B_SPLINE_CURVE_WITH_KNOTS('',2,(#650,#651,#652,#653,#654,#655,
    #656),.UNSPECIFIED.,.T.,.F.,(1,2,2,2,2,1),(-2.094395,0.,2.094395,
    4.18879,6.283185,8.37758),.UNSPECIFIED.);
#650 = CARTESIAN_POINT('',(0.163068146247,3.976660867172E-02,
    0.510067495611));
#651 = CARTESIAN_POINT('',(0.189224267103,3.976660867172E-02,
    0.510067495611));
#652 = CARTESIAN_POINT('',(0.176146206675,3.976660867172E-02,
    0.532719360737));
#653 = CARTESIAN_POINT('',(0.163068146247,3.976660867172E-02,
    0.555371225862));
#654 = CARTESIAN_POINT('',(0.149990085819,3.976660867172E-02,
    0.532719360737));
#655 = CARTESIAN_POINT('',(0.136912025391,3.976660867172E-02,
    0.510067495611));
#656 = CARTESIAN_POINT('',(0.163068146247,3.976660867172E-02,
    0.510067495611));
#657 = PCURVE('',#611,#658);
#658 = DEFINITIONAL_REPRESENTATION('',(#659),#663);
#659 = LINE('',#660,#661);
#660 = CARTESIAN_POINT('',(0.,3.141593));
#661 = VECTOR('',#662,1.);
#662 = DIRECTION('',(1.,0.));
#663 = ( GEOMETRIC_REPRESENTATION_CONTEXT(2) 
PARAMETRIC_REPRESENTATION_CONTEXT() REPRESENTATION_CONTEXT('2D SPACE',''
  ) );
#664 = ORIENTED_EDGE('',*,*,#600,.T.);
#665 = ORIENTED_EDGE('',*,*,#666,.F.);
#666 = EDGE_CURVE('',#603,#603,#667,.T.);
#667 = SURFACE_CURVE('',#668,(#676),.PCURVE_S1.);
#668 = B_SPLINE_CURVE_WITH_KNOTS('',2,(#669,#670,#671,#672,#673,#674,
    #675),.UNSPECIFIED.,.T.,.F.,(1,2,2,2,2,1),(-2.094395,0.,2.094395,
    4.18879,6.283185,8.37758),.UNSPECIFIED.);
#669 = CARTESIAN_POINT('',(0.163068146247,4.026998345229E-02,
    0.50956412083));
#670 = CARTESIAN_POINT('',(0.190096137798,4.026998345229E-02,
    0.50956412083));
#671 = CARTESIAN_POINT('',(0.176582142023,4.026998345229E-02,
    0.532971048127));
#672 = CARTESIAN_POINT('',(0.163068146247,4.026998345229E-02,
    0.556377975423));
#673 = CARTESIAN_POINT('',(0.149554150471,4.026998345229E-02,
    0.532971048127));
#674 = CARTESIAN_POINT('',(0.136040154696,4.026998345229E-02,
    0.50956412083));
#675 = CARTESIAN_POINT('',(0.163068146247,4.026998345229E-02,
    0.50956412083));
#676 = PCURVE('',#611,#677);
#677 = DEFINITIONAL_REPRESENTATION('',(#678),#682);
#678 = LINE('',#679,#680);
#679 = CARTESIAN_POINT('',(0.,4.712389));
#680 = VECTOR('',#681,1.);
#681 = DIRECTION('',(1.,0.));
#682 = ( GEOMETRIC_REPRESENTATION_CONTEXT(2) 
PARAMETRIC_REPRESENTATION_CONTEXT() REPRESENTATION_CONTEXT('2D SPACE',''
  ) );
#683 = ( GEOMETRIC_REPRESENTATION_CONTEXT(3) 
GLOBAL_UNCERTAINTY_ASSIGNED_CONTEXT((#687)) GLOBAL_UNIT_ASSIGNED_CONTEXT
((#684,#685,#686)) REPRESENTATION_CONTEXT('Context #1',
  '3D Context with UNIT and UNCERTAINTY') );
#684 = ( LENGTH_UNIT() NAMED_UNIT(*) SI_UNIT(.MILLI.,.METRE.) );
#685 = ( NAMED_UNIT(*) PLANE_ANGLE_UNIT() SI_UNIT($,.RADIAN.) );
#686 = ( NAMED_UNIT(*) SI_UNIT($,.STERADIAN.) SOLID_ANGLE_UNIT() );
#687 = UNCERTAINTY_MEASURE_WITH_UNIT(LENGTH_MEASURE(1.E-07),#684,
  'distance_accuracy_value','confusion accuracy');
#688 = CONTEXT_DEPENDENT_SHAPE_REPRESENTATION(#689,#691);
#689 = ( REPRESENTATION_RELATIONSHIP('','',#593,#10) 
REPRESENTATION_RELATIONSHIP_WITH_TRANSFORMATION(#690) 
SHAPE_REPRESENTATION_RELATIONSHIP() );
#690 = ITEM_DEFINED_TRANSFORMATION('','',#11,#39);
#691 = PRODUCT_DEFINITION_SHAPE('Placement','Placement of an item',#692
  );
#692 = NEXT_ASSEMBLY_USAGE_OCCURRENCE('7','','',#5,#588,$);
#693 = PRODUCT_RELATED_PRODUCT_CATEGORY('part',$,(#590));
#694 = SHAPE_DEFINITION_REPRESENTATION(#695,#701);
#695 = PRODUCT_DEFINITION_SHAPE('','',#696);
#696 = PRODUCT_DEFINITION('design','',#697,#700);
#697 = PRODUCT_DEFINITION_FORMATION('','',#698);
#698 = PRODUCT('Open CASCADE STEP translator 7.9 1.8',
  'Open CASCADE STEP translator 7.9 1.8','',(#699));
#699 = PRODUCT_CONTEXT('',#2,'mechanical');
#700 = PRODUCT_DEFINITION_CONTEXT('part definition',#2,'design');
#701 = MANIFOLD_SURFACE_SHAPE_REPRESENTATION('',(#11,#702),#783);
#702 = SHELL_BASED_SURFACE_MODEL('',(#703));
#703 = OPEN_SHELL('',(#704));
#704 = ADVANCED_FACE('',(#705),#718,.T.);
#705 = FACE_BOUND('',#706,.T.);
#706 = EDGE_LOOP('',(#707,#746,#764,#765));
#707 = ORIENTED_EDGE('',*,*,#708,.F.);
#708 = EDGE_CURVE('',#709,#711,#713,.T.);
#709 = VERTEX_POINT('',#710);
#710 = CARTESIAN_POINT('',(0.163068146247,1.510124442383E-02,
    0.510067495611));
#711 = VERTEX_POINT('',#712);
#712 = CARTESIAN_POINT('',(0.163068146247,3.976660867172E-02,
    0.510067495611));
#713 = SEAM_CURVE('',#714,(#717,#739),.PCURVE_S1.);
#714 = B_SPLINE_CURVE_WITH_KNOTS('',1,(#715,#716),.UNSPECIFIED.,.F.,.F.,
  (2,2),(1.2584E-02,3.725E-02),.PIECEWISE_BEZIER_KNOTS.);
#715 = CARTESIAN_POINT('',(0.163068146247,1.510124442383E-02,
    0.510067495611));
#716 = CARTESIAN_POINT('',(0.163068146247,3.976660867172E-02,
    0.510067495611));
#717 = PCURVE('',#718,#733);
#718 = ( BOUNDED_SURFACE() B_SPLINE_SURFACE(2,1,(
    (#719,#720)
    ,(#721,#722)
    ,(#723,#724)
    ,(#725,#726)
    ,(#727,#728)
    ,(#729,#730)
,(#731,#732
    )),.UNSPECIFIED.,.T.,.F.,.F.) B_SPLINE_SURFACE_WITH_KNOTS((1,2,2,2,2
    ,1),(2,2),(-2.094395,0.,2.094395,4.18879,6.283185,8.37758),(
1.2584E-02,3.725E-02),.UNSPECIFIED.) GEOMETRIC_REPRESENTATION_ITEM() 
RATIONAL_B_SPLINE_SURFACE((
    (1.,1.)
    ,(0.5,0.5)
    ,(1.,1.)
    ,(0.5,0.5)
    ,(1.,1.)
    ,(0.5,0.5)
,(1.,1.))) REPRESENTATION_ITEM('') SURFACE() );
#719 = CARTESIAN_POINT('',(0.163068146247,1.510124442383E-02,
    0.510067495611));
#720 = CARTESIAN_POINT('',(0.163068146247,3.976660867172E-02,
    0.510067495611));
#721 = CARTESIAN_POINT('',(0.136912025391,1.510124442383E-02,
    0.510067495611));
#722 = CARTESIAN_POINT('',(0.136912025391,3.976660867172E-02,
    0.510067495611));
#723 = CARTESIAN_POINT('',(0.149990085819,1.510124442383E-02,
    0.532719360737));
#724 = CARTESIAN_POINT('',(0.149990085819,3.976660867172E-02,
    0.532719360737));
#725 = CARTESIAN_POINT('',(0.163068146247,1.510124442383E-02,
    0.555371225862));
#726 = CARTESIAN_POINT('',(0.163068146247,3.976660867172E-02,
    0.555371225862));
#727 = CARTESIAN_POINT('',(0.176146206675,1.510124442383E-02,
    0.532719360737));
#728 = CARTESIAN_POINT('',(0.176146206675,3.976660867172E-02,
    0.532719360737));
#729 = CARTESIAN_POINT('',(0.189224267103,1.510124442383E-02,
    0.510067495611));
#730 = CARTESIAN_POINT('',(0.189224267103,3.976660867172E-02,
    0.510067495611));
#731 = CARTESIAN_POINT('',(0.163068146247,1.510124442383E-02,
    0.510067495611));
#732 = CARTESIAN_POINT('',(0.163068146247,3.976660867172E-02,
    0.510067495611));
#733 = DEFINITIONAL_REPRESENTATION('',(#734),#738);
#734 = LINE('',#735,#736);
#735 = CARTESIAN_POINT('',(0.,0.));
#736 = VECTOR('',#737,1.);
#737 = DIRECTION('',(0.,1.));
#738 = ( GEOMETRIC_REPRESENTATION_CONTEXT(2) 
PARAMETRIC_REPRESENTATION_CONTEXT() REPRESENTATION_CONTEXT('2D SPACE',''
  ) );
#739 = PCURVE('',#718,#740);
#740 = DEFINITIONAL_REPRESENTATION('',(#741),#745);
#741 = LINE('',#742,#743);
#742 = CARTESIAN_POINT('',(6.283185,0.));
#743 = VECTOR('',#744,1.);
#744 = DIRECTION('',(0.,1.));
#745 = ( GEOMETRIC_REPRESENTATION_CONTEXT(2) 
PARAMETRIC_REPRESENTATION_CONTEXT() REPRESENTATION_CONTEXT('2D SPACE',''
  ) );
#746 = ORIENTED_EDGE('',*,*,#747,.T.);
#747 = EDGE_CURVE('',#709,#709,#748,.T.);
#748 = SURFACE_CURVE('',#749,(#757),.PCURVE_S1.);
#749 = ( BOUNDED_CURVE() B_SPLINE_CURVE(2,(#750,#751,#752,#753,#754,#755
,#756),.UNSPECIFIED.,.T.,.F.) B_SPLINE_CURVE_WITH_KNOTS((1,2,2,2,2,1),(
-2.094395,0.,2.094395,4.18879,6.283185,8.37758),.UNSPECIFIED.) CURVE() 
GEOMETRIC_REPRESENTATION_ITEM() RATIONAL_B_SPLINE_CURVE((1.,0.5,1.,0.5,
1.,0.5,1.)) REPRESENTATION_ITEM('') );
#750 = CARTESIAN_POINT('',(0.163068146247,1.510124442383E-02,
    0.510067495611));
#751 = CARTESIAN_POINT('',(0.136912025391,1.510124442383E-02,
    0.510067495611));
#752 = CARTESIAN_POINT('',(0.149990085819,1.510124442383E-02,
    0.532719360737));
#753 = CARTESIAN_POINT('',(0.163068146247,1.510124442383E-02,
    0.555371225862));
#754 = CARTESIAN_POINT('',(0.176146206675,1.510124442383E-02,
    0.532719360737));
#755 = CARTESIAN_POINT('',(0.189224267103,1.510124442383E-02,
    0.510067495611));
#756 = CARTESIAN_POINT('',(0.163068146247,1.510124442383E-02,
    0.510067495611));
#757 = PCURVE('',#718,#758);
#758 = DEFINITIONAL_REPRESENTATION('',(#759),#763);
#759 = LINE('',#760,#761);
#760 = CARTESIAN_POINT('',(0.,1.2584E-02));
#761 = VECTOR('',#762,1.);
#762 = DIRECTION('',(1.,0.));
#763 = ( GEOMETRIC_REPRESENTATION_CONTEXT(2) 
PARAMETRIC_REPRESENTATION_CONTEXT() REPRESENTATION_CONTEXT('2D SPACE',''
  ) );
#764 = ORIENTED_EDGE('',*,*,#708,.T.);
#765 = ORIENTED_EDGE('',*,*,#766,.F.);
#766 = EDGE_CURVE('',#711,#711,#767,.T.);
#767 = SURFACE_CURVE('',#768,(#776),.PCURVE_S1.);
#768 = ( BOUNDED_CURVE() B_SPLINE_CURVE(2,(#769,#770,#771,#772,#773,#774
,#775),.UNSPECIFIED.,.T.,.F.) B_SPLINE_CURVE_WITH_KNOTS((1,2,2,2,2,1),(
-2.094395,0.,2.094395,4.18879,6.283185,8.37758),.UNSPECIFIED.) CURVE() 
GEOMETRIC_REPRESENTATION_ITEM() RATIONAL_B_SPLINE_CURVE((1.,0.5,1.,0.5,
1.,0.5,1.)) REPRESENTATION_ITEM('') );
#769 = CARTESIAN_POINT('',(0.163068146247,3.976660867172E-02,
    0.510067495611));
#770 = CARTESIAN_POINT('',(0.136912025391,3.976660867172E-02,
    0.510067495611));
#771 = CARTESIAN_POINT('',(0.149990085819,3.976660867172E-02,
    0.532719360737));
#772 = CARTESIAN_POINT('',(0.163068146247,3.976660867172E-02,
    0.555371225862));
#773 = CARTESIAN_POINT('',(0.176146206675,3.976660867172E-02,
    0.532719360737));
#774 = CARTESIAN_POINT('',(0.189224267103,3.976660867172E-02,
    0.510067495611));
#775 = CARTESIAN_POINT('',(0.163068146247,3.976660867172E-02,
    0.510067495611));
#776 = PCURVE('',#718,#777);
#777 = DEFINITIONAL_REPRESENTATION('',(#778),#782);
#778 = LINE('',#779,#780);
#779 = CARTESIAN_POINT('',(0.,3.725E-02));
#780 = VECTOR('',#781,1.);
#781 = DIRECTION('',(1.,0.));
#782 = ( GEOMETRIC_REPRESENTATION_CONTEXT(2) 
PARAMETRIC_REPRESENTATION_CONTEXT() REPRESENTATION_CONTEXT('2D SPACE',''
  ) );
#783 = ( GEOMETRIC_REPRESENTATION_CONTEXT(3) 
GLOBAL_UNCERTAINTY_ASSIGNED_CONTEXT((#787)) GLOBAL_UNIT_ASSIGNED_CONTEXT
((#784,#785,#786)) REPRESENTATION_CONTEXT('Context #1',
  '3D Context with UNIT and UNCERTAINTY') );
#784 = ( LENGTH_UNIT() NAMED_UNIT(*) SI_UNIT(.MILLI.,.METRE.) );
#785 = ( NAMED_UNIT(*) PLANE_ANGLE_UNIT() SI_UNIT($,.RADIAN.) );
#786 = ( NAMED_UNIT(*) SI_UNIT($,.STERADIAN.) SOLID_ANGLE_UNIT() );
#787 = UNCERTAINTY_MEASURE_WITH_UNIT(LENGTH_MEASURE(1.E-07),#784,
  'distance_accuracy_value','confusion accuracy');
#788 = CONTEXT_DEPENDENT_SHAPE_REPRESENTATION(#789,#791);
#789 = ( REPRESENTATION_RELATIONSHIP('','',#701,#10) 
REPRESENTATION_RELATIONSHIP_WITH_TRANSFORMATION(#790) 
SHAPE_REPRESENTATION_RELATIONSHIP() );
#790 = ITEM_DEFINED_TRANSFORMATION('','',#11,#43);
#791 = PRODUCT_DEFINITION_SHAPE('Placement','Placement of an item',#792
  );
#792 = NEXT_ASSEMBLY_USAGE_OCCURRENCE('8','','',#5,#696,$);
#793 = PRODUCT_RELATED_PRODUCT_CATEGORY('part',$,(#698));
#794 = SHAPE_DEFINITION_REPRESENTATION(#795,#801);
#795 = PRODUCT_DEFINITION_SHAPE('','',#796);
#796 = PRODUCT_DEFINITION('design','',#797,#800);
#797 = PRODUCT_DEFINITION_FORMATION('','',#798);
#798 = PRODUCT('Open CASCADE STEP translator 7.9 1.9',
  'Open CASCADE STEP translator 7.9 1.9','',(#799));
#799 = PRODUCT_CONTEXT('',#2,'mechanical');
#800 = PRODUCT_DEFINITION_CONTEXT('part definition',#2,'design');
#801 = MANIFOLD_SURFACE_SHAPE_REPRESENTATION('',(#11,#802),#873);
#802 = SHELL_BASED_SURFACE_MODEL('',(#803));
#803 = OPEN_SHELL('',(#804));
#804 = ADVANCED_FACE('',(#805),#819,.T.);
#805 = FACE_BOUND('',#806,.T.);
#806 = EDGE_LOOP('',(#807,#854,#872));
#807 = ORIENTED_EDGE('',*,*,#808,.F.);
#808 = EDGE_CURVE('',#809,#811,#813,.T.);
#809 = VERTEX_POINT('',#810);
#810 = CARTESIAN_POINT('',(0.163068146247,1.510124442383E-02,
    0.535236234639));
#811 = VERTEX_POINT('',#812);
#812 = CARTESIAN_POINT('',(0.163068146247,5.03374881245E-03,
    0.525168739028));
#813 = SEAM_CURVE('',#814,(#818,#847),.PCURVE_S1.);
#814 = B_SPLINE_CURVE_WITH_KNOTS('',2,(#815,#816,#817),.UNSPECIFIED.,.F.
  ,.F.,(3,3),(0.,1.570796),.PIECEWISE_BEZIER_KNOTS.);
#815 = CARTESIAN_POINT('',(0.163068146247,1.510124442383E-02,
    0.535236234639));
#816 = CARTESIAN_POINT('',(0.163068146247,5.03374881245E-03,
    0.535236234639));
#817 = CARTESIAN_POINT('',(0.163068146247,5.03374881245E-03,
    0.525168739028));
#818 = PCURVE('',#819,#841);
#819 = B_SPLINE_SURFACE_WITH_KNOTS('',2,2,(
    (#820,#821,#822)
    ,(#823,#824,#825)
    ,(#826,#827,#828)
    ,(#829,#830,#831)
    ,(#832,#833,#834)
    ,(#835,#836,#837)
    ,(#838,#839,#840
    )),.UNSPECIFIED.,.T.,.F.,.F.,(1,2,2,2,2,1),(3,3),(-2.094395,0.,
    2.094395,4.18879,6.283185,8.37758),(0.,1.570796),.UNSPECIFIED.);
#820 = CARTESIAN_POINT('',(0.163068146247,1.510124442383E-02,
    0.535236234639));
#821 = CARTESIAN_POINT('',(0.163068146247,5.03374881245E-03,
    0.535236234639));
#822 = CARTESIAN_POINT('',(0.163068146247,5.03374881245E-03,
    0.525168739028));
#823 = CARTESIAN_POINT('',(0.145630732343,1.510124442383E-02,
    0.535236234639));
#824 = CARTESIAN_POINT('',(0.145630732343,5.03374881245E-03,
    0.535236234639));
#825 = CARTESIAN_POINT('',(0.163068146247,5.03374881245E-03,
    0.525168739028));
#826 = CARTESIAN_POINT('',(0.154349439295,1.510124442383E-02,
    0.520134991222));
#827 = CARTESIAN_POINT('',(0.154349439295,5.03374881245E-03,
    0.520134991222));
#828 = CARTESIAN_POINT('',(0.163068146247,5.03374881245E-03,
    0.525168739028));
#829 = CARTESIAN_POINT('',(0.163068146247,1.510124442383E-02,
    0.505033747805));
#830 = CARTESIAN_POINT('',(0.163068146247,5.03374881245E-03,
    0.505033747805));
#831 = CARTESIAN_POINT('',(0.163068146247,5.03374881245E-03,
    0.525168739028));
#832 = CARTESIAN_POINT('',(0.171786853199,1.510124442383E-02,
    0.520134991222));
#833 = CARTESIAN_POINT('',(0.171786853199,5.03374881245E-03,
    0.520134991222));
#834 = CARTESIAN_POINT('',(0.163068146247,5.03374881245E-03,
    0.525168739028));
#835 = CARTESIAN_POINT('',(0.180505560151,1.510124442383E-02,
    0.535236234639));
#836 = CARTESIAN_POINT('',(0.180505560151,5.03374881245E-03,
    0.535236234639));
#837 = CARTESIAN_POINT('',(0.163068146247,5.03374881245E-03,
    0.525168739028));
#838 = CARTESIAN_POINT('',(0.163068146247,1.510124442383E-02,
    0.535236234639));
#839 = CARTESIAN_POINT('',(0.163068146247,5.03374881245E-03,
    0.535236234639));
#840 = CARTESIAN_POINT('',(0.163068146247,5.03374881245E-03,
    0.525168739028));
#841 = DEFINITIONAL_REPRESENTATION('',(#842),#846);
#842 = LINE('',#843,#844);
#843 = CARTESIAN_POINT('',(0.,0.));
#844 = VECTOR('',#845,1.);
#845 = DIRECTION('',(0.,1.));
#846 = ( GEOMETRIC_REPRESENTATION_CONTEXT(2) 
PARAMETRIC_REPRESENTATION_CONTEXT() REPRESENTATION_CONTEXT('2D SPACE',''
  ) );
#847 = PCURVE('',#819,#848);
#848 = DEFINITIONAL_REPRESENTATION('',(#849),#853);
#849 = LINE('',#850,#851);
#850 = CARTESIAN_POINT('',(6.283185,0.));
#851 = VECTOR('',#852,1.);
#852 = DIRECTION('',(0.,1.));
#853 = ( GEOMETRIC_REPRESENTATION_CONTEXT(2) 
PARAMETRIC_REPRESENTATION_CONTEXT() REPRESENTATION_CONTEXT('2D SPACE',''
  ) );
#854 = ORIENTED_EDGE('',*,*,#855,.T.);
#855 = EDGE_CURVE('',#809,#809,#856,.T.);
#856 = SURFACE_CURVE('',#857,(#865),.PCURVE_S1.);
#857 = B_SPLINE_CURVE_WITH_KNOTS('',2,(#858,#859,#860,#861,#862,#863,
    #864),.UNSPECIFIED.,.T.,.F.,(1,2,2,2,2,1),(-2.094395,0.,2.094395,
    4.18879,6.283185,8.37758),.UNSPECIFIED.);
#858 = CARTESIAN_POINT('',(0.163068146247,1.510124442383E-02,
    0.535236234639));
#859 = CARTESIAN_POINT('',(0.145630732343,1.510124442383E-02,
    0.535236234639));
#860 = CARTESIAN_POINT('',(0.154349439295,1.510124442383E-02,
    0.520134991222));
#861 = CARTESIAN_POINT('',(0.163068146247,1.510124442383E-02,
    0.505033747805));
#862 = CARTESIAN_POINT('',(0.171786853199,1.510124442383E-02,
    0.520134991222));
#863 = CARTESIAN_POINT('',(0.180505560151,1.510124442383E-02,
    0.535236234639));
#864 = CARTESIAN_POINT('',(0.163068146247,1.510124442383E-02,
    0.535236234639));
#865 = PCURVE('',#819,#866);
#866 = DEFINITIONAL_REPRESENTATION('',(#867),#871);
#867 = LINE('',#868,#869);
#868 = CARTESIAN_POINT('',(0.,0.));
#869 = VECTOR('',#870,1.);
#870 = DIRECTION('',(1.,0.));
#871 = ( GEOMETRIC_REPRESENTATION_CONTEXT(2) 
PARAMETRIC_REPRESENTATION_CONTEXT() REPRESENTATION_CONTEXT('2D SPACE',''
  ) );
#872 = ORIENTED_EDGE('',*,*,#808,.T.);
#873 = ( GEOMETRIC_REPRESENTATION_CONTEXT(3) 
GLOBAL_UNCERTAINTY_ASSIGNED_CONTEXT((#877)) GLOBAL_UNIT_ASSIGNED_CONTEXT
((#874,#875,#876)) REPRESENTATION_CONTEXT('Context #1',
  '3D Context with UNIT and UNCERTAINTY') );
#874 = ( LENGTH_UNIT() NAMED_UNIT(*) SI_UNIT(.MILLI.,.METRE.) );
#875 = ( NAMED_UNIT(*) PLANE_ANGLE_UNIT() SI_UNIT($,.RADIAN.) );
#876 = ( NAMED_UNIT(*) SI_UNIT($,.STERADIAN.) SOLID_ANGLE_UNIT() );
#877 = UNCERTAINTY_MEASURE_WITH_UNIT(LENGTH_MEASURE(1.E-07),#874,
  'distance_accuracy_value','confusion accuracy');
#878 = CONTEXT_DEPENDENT_SHAPE_REPRESENTATION(#879,#881);
#879 = ( REPRESENTATION_RELATIONSHIP('','',#801,#10) 
REPRESENTATION_RELATIONSHIP_WITH_TRANSFORMATION(#880) 
SHAPE_REPRESENTATION_RELATIONSHIP() );
#880 = ITEM_DEFINED_TRANSFORMATION('','',#11,#47);
#881 = PRODUCT_DEFINITION_SHAPE('Placement','Placement of an item',#882
  );
#882 = NEXT_ASSEMBLY_USAGE_OCCURRENCE('9','','',#5,#796,$);
#883 = PRODUCT_RELATED_PRODUCT_CATEGORY('part',$,(#798));
#884 = SHAPE_DEFINITION_REPRESENTATION(#885,#891);
#885 = PRODUCT_DEFINITION_SHAPE('','',#886);
#886 = PRODUCT_DEFINITION('design','',#887,#890);
#887 = PRODUCT_DEFINITION_FORMATION('','',#888);
#888 = PRODUCT('Open CASCADE STEP translator 7.9 1.10',
  'Open CASCADE STEP translator 7.9 1.10','',(#889));
#889 = PRODUCT_CONTEXT('',#2,'mechanical');
#890 = PRODUCT_DEFINITION_CONTEXT('part definition',#2,'design');
#891 = MANIFOLD_SURFACE_SHAPE_REPRESENTATION('',(#11,#892),#973);
#892 = SHELL_BASED_SURFACE_MODEL('',(#893));
#893 = OPEN_SHELL('',(#894));
#894 = ADVANCED_FACE('',(#895),#908,.T.);
#895 = FACE_BOUND('',#896,.T.);
#896 = EDGE_LOOP('',(#897,#936,#954,#955));
#897 = ORIENTED_EDGE('',*,*,#898,.F.);
#898 = EDGE_CURVE('',#899,#901,#903,.T.);
#899 = VERTEX_POINT('',#900);
#900 = CARTESIAN_POINT('',(0.163068146247,1.510124442383E-02,
    0.515101243417));
#901 = VERTEX_POINT('',#902);
#902 = CARTESIAN_POINT('',(0.163068146247,4.530373125798E-02,
    0.515101243417));
#903 = SEAM_CURVE('',#904,(#907,#929),.PCURVE_S1.);
#904 = B_SPLINE_CURVE_WITH_KNOTS('',1,(#905,#906),.UNSPECIFIED.,.F.,.F.,
  (2,2),(1.2584E-02,4.2787E-02),.PIECEWISE_BEZIER_KNOTS.);
#905 = CARTESIAN_POINT('',(0.163068146247,1.510124442383E-02,
    0.515101243417));
#906 = CARTESIAN_POINT('',(0.163068146247,4.530373125798E-02,
    0.515101243417));
#907 = PCURVE('',#908,#923);
#908 = ( BOUNDED_SURFACE() B_SPLINE_SURFACE(2,1,(
    (#909,#910)
    ,(#911,#912)
    ,(#913,#914)
    ,(#915,#916)
    ,(#917,#918)
    ,(#919,#920)
,(#921,#922
    )),.UNSPECIFIED.,.T.,.F.,.F.) B_SPLINE_SURFACE_WITH_KNOTS((1,2,2,2,2
    ,1),(2,2),(-2.094395,0.,2.094395,4.18879,6.283185,8.37758),(
1.2584E-02,4.2787E-02),.UNSPECIFIED.) GEOMETRIC_REPRESENTATION_ITEM() 
RATIONAL_B_SPLINE_SURFACE((
    (1.,1.)
    ,(0.5,0.5)
    ,(1.,1.)
    ,(0.5,0.5)
    ,(1.,1.)
    ,(0.5,0.5)
,(1.,1.))) REPRESENTATION_ITEM('') SURFACE() );
#909 = CARTESIAN_POINT('',(0.163068146247,1.510124442383E-02,
    0.515101243417));
#910 = CARTESIAN_POINT('',(0.163068146247,4.530373125798E-02,
    0.515101243417));
#911 = CARTESIAN_POINT('',(0.145630732343,1.510124442383E-02,
    0.515101243417));
#912 = CARTESIAN_POINT('',(0.145630732343,4.530373125798E-02,
    0.515101243417));
#913 = CARTESIAN_POINT('',(0.154349439295,1.510124442383E-02,
    0.530202486834));
#914 = CARTESIAN_POINT('',(0.154349439295,4.530373125798E-02,
    0.530202486834));
#915 = CARTESIAN_POINT('',(0.163068146247,1.510124442383E-02,
    0.545303730251));
#916 = CARTESIAN_POINT('',(0.163068146247,4.530373125798E-02,
    0.545303730251));
#917 = CARTESIAN_POINT('',(0.171786853199,1.510124442383E-02,
    0.530202486834));
#918 = CARTESIAN_POINT('',(0.171786853199,4.530373125798E-02,
    0.530202486834));
#919 = CARTESIAN_POINT('',(0.180505560151,1.510124442383E-02,
    0.515101243417));
#920 = CARTESIAN_POINT('',(0.180505560151,4.530373125798E-02,
    0.515101243417));
#921 = CARTESIAN_POINT('',(0.163068146247,1.510124442383E-02,
    0.515101243417));
#922 = CARTESIAN_POINT('',(0.163068146247,4.530373125798E-02,
    0.515101243417));
#923 = DEFINITIONAL_REPRESENTATION('',(#924),#928);
#924 = LINE('',#925,#926);
#925 = CARTESIAN_POINT('',(0.,0.));
#926 = VECTOR('',#927,1.);
#927 = DIRECTION('',(0.,1.));
#928 = ( GEOMETRIC_REPRESENTATION_CONTEXT(2) 
PARAMETRIC_REPRESENTATION_CONTEXT() REPRESENTATION_CONTEXT('2D SPACE',''
  ) );
#929 = PCURVE('',#908,#930);
#930 = DEFINITIONAL_REPRESENTATION('',(#931),#935);
#931 = LINE('',#932,#933);
#932 = CARTESIAN_POINT('',(6.283185,0.));
#933 = VECTOR('',#934,1.);
#934 = DIRECTION('',(0.,1.));
#935 = ( GEOMETRIC_REPRESENTATION_CONTEXT(2) 
PARAMETRIC_REPRESENTATION_CONTEXT() REPRESENTATION_CONTEXT('2D SPACE',''
  ) );
#936 = ORIENTED_EDGE('',*,*,#937,.T.);
#937 = EDGE_CURVE('',#899,#899,#938,.T.);
#938 = SURFACE_CURVE('',#939,(#947),.PCURVE_S1.);
#939 = ( BOUNDED_CURVE() B_SPLINE_CURVE(2,(#940,#941,#942,#943,#944,#945
,#946),.UNSPECIFIED.,.T.,.F.) B_SPLINE_CURVE_WITH_KNOTS((1,2,2,2,2,1),(
-2.094395,0.,2.094395,4.18879,6.283185,8.37758),.UNSPECIFIED.) CURVE() 
GEOMETRIC_REPRESENTATION_ITEM() RATIONAL_B_SPLINE_CURVE((1.,0.5,1.,0.5,
1.,0.5,1.)) REPRESENTATION_ITEM('') );
#940 = CARTESIAN_POINT('',(0.163068146247,1.510124442383E-02,
    0.515101243417));
#941 = CARTESIAN_POINT('',(0.145630732343,1.510124442383E-02,
    0.515101243417));
#942 = CARTESIAN_POINT('',(0.154349439295,1.510124442383E-02,
    0.530202486834));
#943 = CARTESIAN_POINT('',(0.163068146247,1.510124442383E-02,
    0.545303730251));
#944 = CARTESIAN_POINT('',(0.171786853199,1.510124442383E-02,
    0.530202486834));
#945 = CARTESIAN_POINT('',(0.180505560151,1.510124442383E-02,
    0.515101243417));
#946 = CARTESIAN_POINT('',(0.163068146247,1.510124442383E-02,
    0.515101243417));
#947 = PCURVE('',#908,#948);
#948 = DEFINITIONAL_REPRESENTATION('',(#949),#953);
#949 = LINE('',#950,#951);
#950 = CARTESIAN_POINT('',(0.,1.2584E-02));
#951 = VECTOR('',#952,1.);
#952 = DIRECTION('',(1.,0.));
#953 = ( GEOMETRIC_REPRESENTATION_CONTEXT(2) 
PARAMETRIC_REPRESENTATION_CONTEXT() REPRESENTATION_CONTEXT('2D SPACE',''
  ) );
#954 = ORIENTED_EDGE('',*,*,#898,.T.);
#955 = ORIENTED_EDGE('',*,*,#956,.F.);
#956 = EDGE_CURVE('',#901,#901,#957,.T.);
#957 = SURFACE_CURVE('',#958,(#966),.PCURVE_S1.);
#958 = ( BOUNDED_CURVE() B_SPLINE_CURVE(2,(#959,#960,#961,#962,#963,#964
,#965),.UNSPECIFIED.,.T.,.F.) B_SPLINE_CURVE_WITH_KNOTS((1,2,2,2,2,1),(
-2.094395,0.,2.094395,4.18879,6.283185,8.37758),.UNSPECIFIED.) CURVE() 
GEOMETRIC_REPRESENTATION_ITEM() RATIONAL_B_SPLINE_CURVE((1.,0.5,1.,0.5,
1.,0.5,1.)) REPRESENTATION_ITEM('') );
#959 = CARTESIAN_POINT('',(0.163068146247,4.530373125798E-02,
    0.515101243417));
#960 = CARTESIAN_POINT('',(0.145630732343,4.530373125798E-02,
    0.515101243417));
#961 = CARTESIAN_POINT('',(0.154349439295,4.530373125798E-02,
    0.530202486834));
#962 = CARTESIAN_POINT('',(0.163068146247,4.530373125798E-02,
    0.545303730251));
#963 = CARTESIAN_POINT('',(0.171786853199,4.530373125798E-02,
    0.530202486834));
#964 = CARTESIAN_POINT('',(0.180505560151,4.530373125798E-02,
    0.515101243417));
#965 = CARTESIAN_POINT('',(0.163068146247,4.530373125798E-02,
    0.515101243417));
#966 = PCURVE('',#908,#967);
#967 = DEFINITIONAL_REPRESENTATION('',(#968),#972);
#968 = LINE('',#969,#970);
#969 = CARTESIAN_POINT('',(0.,4.2787E-02));
#970 = VECTOR('',#971,1.);
#971 = DIRECTION('',(1.,0.));
#972 = ( GEOMETRIC_REPRESENTATION_CONTEXT(2) 
PARAMETRIC_REPRESENTATION_CONTEXT() REPRESENTATION_CONTEXT('2D SPACE',''
  ) );
#973 = ( GEOMETRIC_REPRESENTATION_CONTEXT(3) 
GLOBAL_UNCERTAINTY_ASSIGNED_CONTEXT((#977)) GLOBAL_UNIT_ASSIGNED_CONTEXT
((#974,#975,#976)) REPRESENTATION_CONTEXT('Context #1',
  '3D Context with UNIT and UNCERTAINTY') );
#974 = ( LENGTH_UNIT() NAMED_UNIT(*) SI_UNIT(.MILLI.,.METRE.) );
#975 = ( NAMED_UNIT(*) PLANE_ANGLE_UNIT() SI_UNIT($,.RADIAN.) );
#976 = ( NAMED_UNIT(*) SI_UNIT($,.STERADIAN.) SOLID_ANGLE_UNIT() );
#977 = UNCERTAINTY_MEASURE_WITH_UNIT(LENGTH_MEASURE(1.E-07),#974,
  'distance_accuracy_value','confusion accuracy');
#978 = CONTEXT_DEPENDENT_SHAPE_REPRESENTATION(#979,#981);
#979 = ( REPRESENTATION_RELATIONSHIP('','',#891,#10) 
REPRESENTATION_RELATIONSHIP_WITH_TRANSFORMATION(#980) 
SHAPE_REPRESENTATION_RELATIONSHIP() );
#980 = ITEM_DEFINED_TRANSFORMATION('','',#11,#51);
#981 = PRODUCT_DEFINITION_SHAPE('Placement','Placement of an item',#982
  );
#982 = NEXT_ASSEMBLY_USAGE_OCCURRENCE('10','','',#5,#886,$);
#983 = PRODUCT_RELATED_PRODUCT_CATEGORY('part',$,(#888));
#984 = SHAPE_DEFINITION_REPRESENTATION(#985,#991);
#985 = PRODUCT_DEFINITION_SHAPE('','',#986);
#986 = PRODUCT_DEFINITION('design','',#987,#990);
#987 = PRODUCT_DEFINITION_FORMATION('','',#988);
#988 = PRODUCT('Open CASCADE STEP translator 7.9 1.11',
  'Open CASCADE STEP translator 7.9 1.11','',(#989));
#989 = PRODUCT_CONTEXT('',#2,'mechanical');
#990 = PRODUCT_DEFINITION_CONTEXT('part definition',#2,'design');
#991 = MANIFOLD_SURFACE_SHAPE_REPRESENTATION('',(#11,#992),#1019);
#992 = SHELL_BASED_SURFACE_MODEL('',(#993));
#993 = OPEN_SHELL('',(#994));
#994 = ADVANCED_FACE('',(#995),#1008,.T.);
#995 = FACE_BOUND('',#996,.T.);
#996 = EDGE_LOOP('',(#997));
#997 = ORIENTED_EDGE('',*,*,#998,.T.);
#998 = EDGE_CURVE('',#999,#999,#1001,.T.);
#999 = VERTEX_POINT('',#1000);
#1000 = CARTESIAN_POINT('',(0.163068,4.5304E-02,0.515102));
#1001 = SURFACE_CURVE('',#1002,(#1007),.PCURVE_S1.);
#1002 = CIRCLE('',#1003,1.0067E-02);
#1003 = AXIS2_PLACEMENT_3D('',#1004,#1005,#1006);
#1004 = CARTESIAN_POINT('',(0.163068,4.5304E-02,0.525169));
#1005 = DIRECTION('',(0.,-1.,0.));
#1006 = DIRECTION('',(0.,-0.,-1.));
#1007 = PCURVE('',#1008,#1013);
#1008 = PLANE('',#1009);
#1009 = AXIS2_PLACEMENT_3D('',#1010,#1011,#1012);
#1010 = CARTESIAN_POINT('',(0.163068,4.5304E-02,0.525169000298));
#1011 = DIRECTION('',(-0.,-1.,-0.));
#1012 = DIRECTION('',(0.,0.,-1.));
#1013 = DEFINITIONAL_REPRESENTATION('',(#1014),#1018);
#1014 = CIRCLE('',#1015,1.0067E-02);
#1015 = AXIS2_PLACEMENT_2D('',#1016,#1017);
#1016 = CARTESIAN_POINT('',(2.975641955061E-10,-8.326672684689E-17));
#1017 = DIRECTION('',(1.,0.));
#1018 = ( GEOMETRIC_REPRESENTATION_CONTEXT(2) 
PARAMETRIC_REPRESENTATION_CONTEXT() REPRESENTATION_CONTEXT('2D SPACE',''
  ) );
#1019 = ( GEOMETRIC_REPRESENTATION_CONTEXT(3) 
GLOBAL_UNCERTAINTY_ASSIGNED_CONTEXT((#1023)) 
GLOBAL_UNIT_ASSIGNED_CONTEXT((#1020,#1021,#1022)) REPRESENTATION_CONTEXT
('Context #1','3D Context with UNIT and UNCERTAINTY') );
#1020 = ( LENGTH_UNIT() NAMED_UNIT(*) SI_UNIT(.MILLI.,.METRE.) );
#1021 = ( NAMED_UNIT(*) PLANE_ANGLE_UNIT() SI_UNIT($,.RADIAN.) );
#1022 = ( NAMED_UNIT(*) SI_UNIT($,.STERADIAN.) SOLID_ANGLE_UNIT() );
#1023 = UNCERTAINTY_MEASURE_WITH_UNIT(LENGTH_MEASURE(1.E-07),#1020,
  'distance_accuracy_value','confusion accuracy');
#1024 = CONTEXT_DEPENDENT_SHAPE_REPRESENTATION(#1025,#1027);
#1025 = ( REPRESENTATION_RELATIONSHIP('','',#991,#10) 
REPRESENTATION_RELATIONSHIP_WITH_TRANSFORMATION(#1026) 
SHAPE_REPRESENTATION_RELATIONSHIP() );
#1026 = ITEM_DEFINED_TRANSFORMATION('','',#11,#55);
#1027 = PRODUCT_DEFINITION_SHAPE('Placement','Placement of an item',
  #1028);
#1028 = NEXT_ASSEMBLY_USAGE_OCCURRENCE('11','','',#5,#986,$);
#1029 = PRODUCT_RELATED_PRODUCT_CATEGORY('part',$,(#988));
ENDSEC;
END-ISO-10303-21;
