ISO-10303-21;
HEADER;
FILE_DESCRIPTION(('Open CASCADE Model'),'2;1');
FILE_NAME('Open CASCADE Shape Model','2026-07-02T21:21:09',('Author'),(
    'Open CASCADE'),'Open CASCADE STEP processor 7.9','Open CASCADE 7.9'
  ,'Unknown');
FILE_SCHEMA(('AUTOMOTIVE_DESIGN { 1 0 10303 214 1 1 1 1 }'));
ENDSEC;
DATA;
#1 = APPLICATION_PROTOCOL_DEFINITION('international standard',
  'automotive_design',2000,#2);
#2 = APPLICATION_CONTEXT(
  'core data for automotive mechanical design processes');
#3 = SHAPE_DEFINITION_REPRESENTATION(#4,#10);
#4 = PRODUCT_DEFINITION_SHAPE('','',#5);
#5 = PRODUCT_DEFINITION('design','',#6,#9);
#6 = PRODUCT_DEFINITION_FORMATION('','',#7);
#7 = PRODUCT('Open CASCADE STEP translator 7.9 1',
  'Open CASCADE STEP translator 7.9 1','',(#8));
#8 = PRODUCT_CONTEXT('',#2,'mechanical');
#9 = PRODUCT_DEFINITION_CONTEXT('part definition',#2,'design');
#10 = SHAPE_REPRESENTATION('',(#11,#15,#19,#23,#27,#31),#35);
#11 = AXIS2_PLACEMENT_3D('',#12,#13,#14);
#12 = CARTESIAN_POINT('',(0.,0.,0.));
#13 = DIRECTION('',(0.,0.,1.));
#14 = DIRECTION('',(1.,0.,-0.));
#15 = AXIS2_PLACEMENT_3D('',#16,#17,#18);
#16 = CARTESIAN_POINT('',(0.,0.,0.));
#17 = DIRECTION('',(0.,0.,1.));
#18 = DIRECTION('',(1.,0.,-0.));
#19 = AXIS2_PLACEMENT_3D('',#20,#21,#22);
#20 = CARTESIAN_POINT('',(0.,0.,0.));
#21 = DIRECTION('',(0.,0.,1.));
#22 = DIRECTION('',(1.,0.,-0.));
#23 = AXIS2_PLACEMENT_3D('',#24,#25,#26);
#24 = CARTESIAN_POINT('',(0.,0.,0.));
#25 = DIRECTION('',(0.,0.,1.));
#26 = DIRECTION('',(1.,0.,-0.));
#27 = AXIS2_PLACEMENT_3D('',#28,#29,#30);
#28 = CARTESIAN_POINT('',(0.,0.,0.));
#29 = DIRECTION('',(0.,0.,1.));
#30 = DIRECTION('',(1.,0.,-0.));
#31 = AXIS2_PLACEMENT_3D('',#32,#33,#34);
#32 = CARTESIAN_POINT('',(0.,0.,0.));
#33 = DIRECTION('',(0.,0.,1.));
#34 = DIRECTION('',(1.,0.,-0.));
#35 = ( GEOMETRIC_REPRESENTATION_CONTEXT(3) 
GLOBAL_UNCERTAINTY_ASSIGNED_CONTEXT((#39)) GLOBAL_UNIT_ASSIGNED_CONTEXT(
(#36,#37,#38)) REPRESENTATION_CONTEXT('Context #1',
  '3D Context with UNIT and UNCERTAINTY') );
#36 = ( LENGTH_UNIT() NAMED_UNIT(*) SI_UNIT(.MILLI.,.METRE.) );
#37 = ( NAMED_UNIT(*) PLANE_ANGLE_UNIT() SI_UNIT($,.RADIAN.) );
#38 = ( NAMED_UNIT(*) SI_UNIT($,.STERADIAN.) SOLID_ANGLE_UNIT() );
#39 = UNCERTAINTY_MEASURE_WITH_UNIT(LENGTH_MEASURE(1.E-07),#36,
  'distance_accuracy_value','confusion accuracy');
#40 = PRODUCT_RELATED_PRODUCT_CATEGORY('part',$,(#7));
#41 = SHAPE_DEFINITION_REPRESENTATION(#42,#48);
#42 = PRODUCT_DEFINITION_SHAPE('','',#43);
#43 = PRODUCT_DEFINITION('design','',#44,#47);
#44 = PRODUCT_DEFINITION_FORMATION('','',#45);
#45 = PRODUCT('Open CASCADE STEP translator 7.9 1.1',
  'Open CASCADE STEP translator 7.9 1.1','',(#46));
#46 = PRODUCT_CONTEXT('',#2,'mechanical');
#47 = PRODUCT_DEFINITION_CONTEXT('part definition',#2,'design');
#48 = MANIFOLD_SURFACE_SHAPE_REPRESENTATION('',(#11,#49),#130);
#49 = SHELL_BASED_SURFACE_MODEL('',(#50));
#50 = OPEN_SHELL('',(#51));
#51 = ADVANCED_FACE('',(#52),#65,.T.);
#52 = FACE_BOUND('',#53,.T.);
#53 = EDGE_LOOP('',(#54,#93,#111,#112));
#54 = ORIENTED_EDGE('',*,*,#55,.F.);
#55 = EDGE_CURVE('',#56,#58,#60,.T.);
#56 = VERTEX_POINT('',#57);
#57 = CARTESIAN_POINT('',(0.5,0.350000000066,1.8181818398E-02));
#58 = VERTEX_POINT('',#59);
#59 = CARTESIAN_POINT('',(0.5,0.350000000066,2.239999991049E-10));
#60 = SEAM_CURVE('',#61,(#64,#86),.PCURVE_S1.);
#61 = B_SPLINE_CURVE_WITH_KNOTS('',1,(#62,#63),.UNSPECIFIED.,.F.,.F.,(2,
    2),(-0.227273,-0.209091),.PIECEWISE_BEZIER_KNOTS.);
#62 = CARTESIAN_POINT('',(0.5,0.350000000066,1.8181818398E-02));
#63 = CARTESIAN_POINT('',(0.5,0.350000000066,2.239999991049E-10));
#64 = PCURVE('',#65,#80);
#65 = ( BOUNDED_SURFACE() B_SPLINE_SURFACE(2,1,(
    (#66,#67)
    ,(#68,#69)
    ,(#70,#71)
    ,(#72,#73)
    ,(#74,#75)
    ,(#76,#77)
,(#78,#79
    )),.UNSPECIFIED.,.T.,.F.,.F.) B_SPLINE_SURFACE_WITH_KNOTS((1,2,2,2,2
    ,1),(2,2),(-2.094395,0.,2.094395,4.18879,6.283185,8.37758),(
-0.227273,-0.209091),.UNSPECIFIED.) GEOMETRIC_REPRESENTATION_ITEM() 
RATIONAL_B_SPLINE_SURFACE((
    (1.,1.)
    ,(0.5,0.5)
    ,(1.,1.)
    ,(0.5,0.5)
    ,(1.,1.)
    ,(0.5,0.5)
,(1.,1.))) REPRESENTATION_ITEM('') SURFACE() );
#66 = CARTESIAN_POINT('',(0.5,0.350000000066,1.8181818398E-02));
#67 = CARTESIAN_POINT('',(0.5,0.350000000066,2.239999991049E-10));
#68 = CARTESIAN_POINT('',(0.5,9.019237905117E-02,1.8181818398E-02));
#69 = CARTESIAN_POINT('',(0.5,9.019237905117E-02,2.239999991049E-10));
#70 = CARTESIAN_POINT('',(0.275000000105,0.220096189559,1.8181818398E-02
    ));
#71 = CARTESIAN_POINT('',(0.275000000105,0.220096189559,
    2.239999991049E-10));
#72 = CARTESIAN_POINT('',(5.000000021E-02,0.350000000066,
    1.8181818398E-02));
#73 = CARTESIAN_POINT('',(5.000000021E-02,0.350000000066,
    2.239999991049E-10));
#74 = CARTESIAN_POINT('',(0.275000000105,0.479903810573,1.8181818398E-02
    ));
#75 = CARTESIAN_POINT('',(0.275000000105,0.479903810573,
    2.239999991049E-10));
#76 = CARTESIAN_POINT('',(0.5,0.609807621081,1.8181818398E-02));
#77 = CARTESIAN_POINT('',(0.5,0.609807621081,2.239999991049E-10));
#78 = CARTESIAN_POINT('',(0.5,0.350000000066,1.8181818398E-02));
#79 = CARTESIAN_POINT('',(0.5,0.350000000066,2.239999991049E-10));
#80 = DEFINITIONAL_REPRESENTATION('',(#81),#85);
#81 = LINE('',#82,#83);
#82 = CARTESIAN_POINT('',(0.,0.));
#83 = VECTOR('',#84,1.);
#84 = DIRECTION('',(0.,1.));
#85 = ( GEOMETRIC_REPRESENTATION_CONTEXT(2) 
PARAMETRIC_REPRESENTATION_CONTEXT() REPRESENTATION_CONTEXT('2D SPACE',''
  ) );
#86 = PCURVE('',#65,#87);
#87 = DEFINITIONAL_REPRESENTATION('',(#88),#92);
#88 = LINE('',#89,#90);
#89 = CARTESIAN_POINT('',(6.283185,0.));
#90 = VECTOR('',#91,1.);
#91 = DIRECTION('',(0.,1.));
#92 = ( GEOMETRIC_REPRESENTATION_CONTEXT(2) 
PARAMETRIC_REPRESENTATION_CONTEXT() REPRESENTATION_CONTEXT('2D SPACE',''
  ) );
#93 = ORIENTED_EDGE('',*,*,#94,.T.);
#94 = EDGE_CURVE('',#56,#56,#95,.T.);
#95 = SURFACE_CURVE('',#96,(#104),.PCURVE_S1.);
#96 = ( BOUNDED_CURVE() B_SPLINE_CURVE(2,(#97,#98,#99,#100,#101,#102,
#103),.UNSPECIFIED.,.T.,.F.) B_SPLINE_CURVE_WITH_KNOTS((1,2,2,2,2,1),(
-2.094395,0.,2.094395,4.18879,6.283185,8.37758),.UNSPECIFIED.) CURVE() 
GEOMETRIC_REPRESENTATION_ITEM() RATIONAL_B_SPLINE_CURVE((1.,0.5,1.,0.5,
1.,0.5,1.)) REPRESENTATION_ITEM('') );
#97 = CARTESIAN_POINT('',(0.5,0.350000000066,1.8181818398E-02));
#98 = CARTESIAN_POINT('',(0.5,9.019237905117E-02,1.8181818398E-02));
#99 = CARTESIAN_POINT('',(0.275000000105,0.220096189559,1.8181818398E-02
    ));
#100 = CARTESIAN_POINT('',(5.000000021E-02,0.350000000066,
    1.8181818398E-02));
#101 = CARTESIAN_POINT('',(0.275000000105,0.479903810573,
    1.8181818398E-02));
#102 = CARTESIAN_POINT('',(0.5,0.609807621081,1.8181818398E-02));
#103 = CARTESIAN_POINT('',(0.5,0.350000000066,1.8181818398E-02));
#104 = PCURVE('',#65,#105);
#105 = DEFINITIONAL_REPRESENTATION('',(#106),#110);
#106 = LINE('',#107,#108);
#107 = CARTESIAN_POINT('',(0.,-0.227273));
#108 = VECTOR('',#109,1.);
#109 = DIRECTION('',(1.,0.));
#110 = ( GEOMETRIC_REPRESENTATION_CONTEXT(2) 
PARAMETRIC_REPRESENTATION_CONTEXT() REPRESENTATION_CONTEXT('2D SPACE',''
  ) );
#111 = ORIENTED_EDGE('',*,*,#55,.T.);
#112 = ORIENTED_EDGE('',*,*,#113,.F.);
#113 = EDGE_CURVE('',#58,#58,#114,.T.);
#114 = SURFACE_CURVE('',#115,(#123),.PCURVE_S1.);
#115 = ( BOUNDED_CURVE() B_SPLINE_CURVE(2,(#116,#117,#118,#119,#120,#121
,#122),.UNSPECIFIED.,.T.,.F.) B_SPLINE_CURVE_WITH_KNOTS((1,2,2,2,2,1),(
-2.094395,0.,2.094395,4.18879,6.283185,8.37758),.UNSPECIFIED.) CURVE() 
GEOMETRIC_REPRESENTATION_ITEM() RATIONAL_B_SPLINE_CURVE((1.,0.5,1.,0.5,
1.,0.5,1.)) REPRESENTATION_ITEM('') );
#116 = CARTESIAN_POINT('',(0.5,0.350000000066,2.239999991049E-10));
#117 = CARTESIAN_POINT('',(0.5,9.019237905117E-02,2.239999991049E-10));
#118 = CARTESIAN_POINT('',(0.275000000105,0.220096189559,
    2.239999991049E-10));
#119 = CARTESIAN_POINT('',(5.000000021E-02,0.350000000066,
    2.239999991049E-10));
#120 = CARTESIAN_POINT('',(0.275000000105,0.479903810573,
    2.239999991049E-10));
#121 = CARTESIAN_POINT('',(0.5,0.609807621081,2.239999991049E-10));
#122 = CARTESIAN_POINT('',(0.5,0.350000000066,2.239999991049E-10));
#123 = PCURVE('',#65,#124);
#124 = DEFINITIONAL_REPRESENTATION('',(#125),#129);
#125 = LINE('',#126,#127);
#126 = CARTESIAN_POINT('',(0.,-0.209091));
#127 = VECTOR('',#128,1.);
#128 = DIRECTION('',(1.,0.));
#129 = ( GEOMETRIC_REPRESENTATION_CONTEXT(2) 
PARAMETRIC_REPRESENTATION_CONTEXT() REPRESENTATION_CONTEXT('2D SPACE',''
  ) );
#130 = ( GEOMETRIC_REPRESENTATION_CONTEXT(3) 
GLOBAL_UNCERTAINTY_ASSIGNED_CONTEXT((#134)) GLOBAL_UNIT_ASSIGNED_CONTEXT
((#131,#132,#133)) REPRESENTATION_CONTEXT('Context #1',
  '3D Context with UNIT and UNCERTAINTY') );
#131 = ( LENGTH_UNIT() NAMED_UNIT(*) SI_UNIT(.MILLI.,.METRE.) );
#132 = ( NAMED_UNIT(*) PLANE_ANGLE_UNIT() SI_UNIT($,.RADIAN.) );
#133 = ( NAMED_UNIT(*) SI_UNIT($,.STERADIAN.) SOLID_ANGLE_UNIT() );
#134 = UNCERTAINTY_MEASURE_WITH_UNIT(LENGTH_MEASURE(1.E-07),#131,
  'distance_accuracy_value','confusion accuracy');
#135 = CONTEXT_DEPENDENT_SHAPE_REPRESENTATION(#136,#138);
#136 = ( REPRESENTATION_RELATIONSHIP('','',#48,#10) 
REPRESENTATION_RELATIONSHIP_WITH_TRANSFORMATION(#137) 
SHAPE_REPRESENTATION_RELATIONSHIP() );
#137 = ITEM_DEFINED_TRANSFORMATION('','',#11,#15);
#138 = PRODUCT_DEFINITION_SHAPE('Placement','Placement of an item',#139
  );
#139 = NEXT_ASSEMBLY_USAGE_OCCURRENCE('1','','',#5,#43,$);
#140 = PRODUCT_RELATED_PRODUCT_CATEGORY('part',$,(#45));
#141 = SHAPE_DEFINITION_REPRESENTATION(#142,#148);
#142 = PRODUCT_DEFINITION_SHAPE('','',#143);
#143 = PRODUCT_DEFINITION('design','',#144,#147);
#144 = PRODUCT_DEFINITION_FORMATION('','',#145);
#145 = PRODUCT('Open CASCADE STEP translator 7.9 1.2',
  'Open CASCADE STEP translator 7.9 1.2','',(#146));
#146 = PRODUCT_CONTEXT('',#2,'mechanical');
#147 = PRODUCT_DEFINITION_CONTEXT('part definition',#2,'design');
#148 = MANIFOLD_SURFACE_SHAPE_REPRESENTATION('',(#11,#149),#230);
#149 = SHELL_BASED_SURFACE_MODEL('',(#150));
#150 = OPEN_SHELL('',(#151));
#151 = ADVANCED_FACE('',(#152),#165,.T.);
#152 = FACE_BOUND('',#153,.T.);
#153 = EDGE_LOOP('',(#154,#193,#211,#212));
#154 = ORIENTED_EDGE('',*,*,#155,.F.);
#155 = EDGE_CURVE('',#156,#158,#160,.T.);
#156 = VERTEX_POINT('',#157);
#157 = CARTESIAN_POINT('',(0.5,0.649999999934,1.8181818398E-02));
#158 = VERTEX_POINT('',#159);
#159 = CARTESIAN_POINT('',(0.5,0.649999999934,2.239999991049E-10));
#160 = SEAM_CURVE('',#161,(#164,#186),.PCURVE_S1.);
#161 = B_SPLINE_CURVE_WITH_KNOTS('',1,(#162,#163),.UNSPECIFIED.,.F.,.F.,
  (2,2),(-0.227273,-0.209091),.PIECEWISE_BEZIER_KNOTS.);
#162 = CARTESIAN_POINT('',(0.5,0.649999999934,1.8181818398E-02));
#163 = CARTESIAN_POINT('',(0.5,0.649999999934,2.239999991049E-10));
#164 = PCURVE('',#165,#180);
#165 = ( BOUNDED_SURFACE() B_SPLINE_SURFACE(2,1,(
    (#166,#167)
    ,(#168,#169)
    ,(#170,#171)
    ,(#172,#173)
    ,(#174,#175)
    ,(#176,#177)
,(#178,#179
    )),.UNSPECIFIED.,.T.,.F.,.F.) B_SPLINE_SURFACE_WITH_KNOTS((1,2,2,2,2
    ,1),(2,2),(-2.094395,0.,2.094395,4.18879,6.283185,8.37758),(
-0.227273,-0.209091),.UNSPECIFIED.) GEOMETRIC_REPRESENTATION_ITEM() 
RATIONAL_B_SPLINE_SURFACE((
    (1.,1.)
    ,(0.5,0.5)
    ,(1.,1.)
    ,(0.5,0.5)
    ,(1.,1.)
    ,(0.5,0.5)
,(1.,1.))) REPRESENTATION_ITEM('') SURFACE() );
#166 = CARTESIAN_POINT('',(0.5,0.649999999934,1.8181818398E-02));
#167 = CARTESIAN_POINT('',(0.5,0.649999999934,2.239999991049E-10));
#168 = CARTESIAN_POINT('',(0.5,0.390192378919,1.8181818398E-02));
#169 = CARTESIAN_POINT('',(0.5,0.390192378919,2.239999991049E-10));
#170 = CARTESIAN_POINT('',(0.275000000105,0.520096189427,
    1.8181818398E-02));
#171 = CARTESIAN_POINT('',(0.275000000105,0.520096189427,
    2.239999991049E-10));
#172 = CARTESIAN_POINT('',(5.000000021E-02,0.649999999934,
    1.8181818398E-02));
#173 = CARTESIAN_POINT('',(5.000000021E-02,0.649999999934,
    2.239999991049E-10));
#174 = CARTESIAN_POINT('',(0.275000000105,0.779903810441,
    1.8181818398E-02));
#175 = CARTESIAN_POINT('',(0.275000000105,0.779903810441,
    2.239999991049E-10));
#176 = CARTESIAN_POINT('',(0.5,0.909807620949,1.8181818398E-02));
#177 = CARTESIAN_POINT('',(0.5,0.909807620949,2.239999991049E-10));
#178 = CARTESIAN_POINT('',(0.5,0.649999999934,1.8181818398E-02));
#179 = CARTESIAN_POINT('',(0.5,0.649999999934,2.239999991049E-10));
#180 = DEFINITIONAL_REPRESENTATION('',(#181),#185);
#181 = LINE('',#182,#183);
#182 = CARTESIAN_POINT('',(0.,0.));
#183 = VECTOR('',#184,1.);
#184 = DIRECTION('',(0.,1.));
#185 = ( GEOMETRIC_REPRESENTATION_CONTEXT(2) 
PARAMETRIC_REPRESENTATION_CONTEXT() REPRESENTATION_CONTEXT('2D SPACE',''
  ) );
#186 = PCURVE('',#165,#187);
#187 = DEFINITIONAL_REPRESENTATION('',(#188),#192);
#188 = LINE('',#189,#190);
#189 = CARTESIAN_POINT('',(6.283185,0.));
#190 = VECTOR('',#191,1.);
#191 = DIRECTION('',(0.,1.));
#192 = ( GEOMETRIC_REPRESENTATION_CONTEXT(2) 
PARAMETRIC_REPRESENTATION_CONTEXT() REPRESENTATION_CONTEXT('2D SPACE',''
  ) );
#193 = ORIENTED_EDGE('',*,*,#194,.T.);
#194 = EDGE_CURVE('',#156,#156,#195,.T.);
#195 = SURFACE_CURVE('',#196,(#204),.PCURVE_S1.);
#196 = ( BOUNDED_CURVE() B_SPLINE_CURVE(2,(#197,#198,#199,#200,#201,#202
,#203),.UNSPECIFIED.,.T.,.F.) B_SPLINE_CURVE_WITH_KNOTS((1,2,2,2,2,1),(
-2.094395,0.,2.094395,4.18879,6.283185,8.37758),.UNSPECIFIED.) CURVE() 
GEOMETRIC_REPRESENTATION_ITEM() RATIONAL_B_SPLINE_CURVE((1.,0.5,1.,0.5,
1.,0.5,1.)) REPRESENTATION_ITEM('') );
#197 = CARTESIAN_POINT('',(0.5,0.649999999934,1.8181818398E-02));
#198 = CARTESIAN_POINT('',(0.5,0.390192378919,1.8181818398E-02));
#199 = CARTESIAN_POINT('',(0.275000000105,0.520096189427,
    1.8181818398E-02));
#200 = CARTESIAN_POINT('',(5.000000021E-02,0.649999999934,
    1.8181818398E-02));
#201 = CARTESIAN_POINT('',(0.275000000105,0.779903810441,
    1.8181818398E-02));
#202 = CARTESIAN_POINT('',(0.5,0.909807620949,1.8181818398E-02));
#203 = CARTESIAN_POINT('',(0.5,0.649999999934,1.8181818398E-02));
#204 = PCURVE('',#165,#205);
#205 = DEFINITIONAL_REPRESENTATION('',(#206),#210);
#206 = LINE('',#207,#208);
#207 = CARTESIAN_POINT('',(0.,-0.227273));
#208 = VECTOR('',#209,1.);
#209 = DIRECTION('',(1.,0.));
#210 = ( GEOMETRIC_REPRESENTATION_CONTEXT(2) 
PARAMETRIC_REPRESENTATION_CONTEXT() REPRESENTATION_CONTEXT('2D SPACE',''
  ) );
#211 = ORIENTED_EDGE('',*,*,#155,.T.);
#212 = ORIENTED_EDGE('',*,*,#213,.F.);
#213 = EDGE_CURVE('',#158,#158,#214,.T.);
#214 = SURFACE_CURVE('',#215,(#223),.PCURVE_S1.);
#215 = ( BOUNDED_CURVE() B_SPLINE_CURVE(2,(#216,#217,#218,#219,#220,#221
,#222),.UNSPECIFIED.,.T.,.F.) B_SPLINE_CURVE_WITH_KNOTS((1,2,2,2,2,1),(
-2.094395,0.,2.094395,4.18879,6.283185,8.37758),.UNSPECIFIED.) CURVE() 
GEOMETRIC_REPRESENTATION_ITEM() RATIONAL_B_SPLINE_CURVE((1.,0.5,1.,0.5,
1.,0.5,1.)) REPRESENTATION_ITEM('') );
#216 = CARTESIAN_POINT('',(0.5,0.649999999934,2.239999991049E-10));
#217 = CARTESIAN_POINT('',(0.5,0.390192378919,2.239999991049E-10));
#218 = CARTESIAN_POINT('',(0.275000000105,0.520096189427,
    2.239999991049E-10));
#219 = CARTESIAN_POINT('',(5.000000021E-02,0.649999999934,
    2.239999991049E-10));
#220 = CARTESIAN_POINT('',(0.275000000105,0.779903810441,
    2.239999991049E-10));
#221 = CARTESIAN_POINT('',(0.5,0.909807620949,2.239999991049E-10));
#222 = CARTESIAN_POINT('',(0.5,0.649999999934,2.239999991049E-10));
#223 = PCURVE('',#165,#224);
#224 = DEFINITIONAL_REPRESENTATION('',(#225),#229);
#225 = LINE('',#226,#227);
#226 = CARTESIAN_POINT('',(0.,-0.209091));
#227 = VECTOR('',#228,1.);
#228 = DIRECTION('',(1.,0.));
#229 = ( GEOMETRIC_REPRESENTATION_CONTEXT(2) 
PARAMETRIC_REPRESENTATION_CONTEXT() REPRESENTATION_CONTEXT('2D SPACE',''
  ) );
#230 = ( GEOMETRIC_REPRESENTATION_CONTEXT(3) 
GLOBAL_UNCERTAINTY_ASSIGNED_CONTEXT((#234)) GLOBAL_UNIT_ASSIGNED_CONTEXT
((#231,#232,#233)) REPRESENTATION_CONTEXT('Context #1',
  '3D Context with UNIT and UNCERTAINTY') );
#231 = ( LENGTH_UNIT() NAMED_UNIT(*) SI_UNIT(.MILLI.,.METRE.) );
#232 = ( NAMED_UNIT(*) PLANE_ANGLE_UNIT() SI_UNIT($,.RADIAN.) );
#233 = ( NAMED_UNIT(*) SI_UNIT($,.STERADIAN.) SOLID_ANGLE_UNIT() );
#234 = UNCERTAINTY_MEASURE_WITH_UNIT(LENGTH_MEASURE(1.E-07),#231,
  'distance_accuracy_value','confusion accuracy');
#235 = CONTEXT_DEPENDENT_SHAPE_REPRESENTATION(#236,#238);
#236 = ( REPRESENTATION_RELATIONSHIP('','',#148,#10) 
REPRESENTATION_RELATIONSHIP_WITH_TRANSFORMATION(#237) 
SHAPE_REPRESENTATION_RELATIONSHIP() );
#237 = ITEM_DEFINED_TRANSFORMATION('','',#11,#19);
#238 = PRODUCT_DEFINITION_SHAPE('Placement','Placement of an item',#239
  );
#239 = NEXT_ASSEMBLY_USAGE_OCCURRENCE('2','','',#5,#143,$);
#240 = PRODUCT_RELATED_PRODUCT_CATEGORY('part',$,(#145));
#241 = SHAPE_DEFINITION_REPRESENTATION(#242,#248);
#242 = PRODUCT_DEFINITION_SHAPE('','',#243);
#243 = PRODUCT_DEFINITION('design','',#244,#247);
#244 = PRODUCT_DEFINITION_FORMATION('','',#245);
#245 = PRODUCT('Open CASCADE STEP translator 7.9 1.3',
  'Open CASCADE STEP translator 7.9 1.3','',(#246));
#246 = PRODUCT_CONTEXT('',#2,'mechanical');
#247 = PRODUCT_DEFINITION_CONTEXT('part definition',#2,'design');
#248 = MANIFOLD_SURFACE_SHAPE_REPRESENTATION('',(#11,#249),#354);
#249 = SHELL_BASED_SURFACE_MODEL('',(#250));
#250 = OPEN_SHELL('',(#251));
#251 = ADVANCED_FACE('',(#252,#278,#297,#316,#335),#267,.T.);
#252 = FACE_BOUND('',#253,.T.);
#253 = EDGE_LOOP('',(#254));
#254 = ORIENTED_EDGE('',*,*,#255,.T.);
#255 = EDGE_CURVE('',#256,#258,#260,.T.);
#256 = VERTEX_POINT('',#257);
#257 = CARTESIAN_POINT('',(1.,0.5,0.));
#258 = VERTEX_POINT('',#259);
#259 = CARTESIAN_POINT('',(1.,0.49999984641,0.));
#260 = SURFACE_CURVE('',#261,(#266),.PCURVE_S1.);
#261 = CIRCLE('',#262,0.5);
#262 = AXIS2_PLACEMENT_3D('',#263,#264,#265);
#263 = CARTESIAN_POINT('',(0.5,0.5,0.));
#264 = DIRECTION('',(0.,0.,1.));
#265 = DIRECTION('',(1.,0.,-0.));
#266 = PCURVE('',#267,#272);
#267 = PLANE('',#268);
#268 = AXIS2_PLACEMENT_3D('',#269,#270,#271);
#269 = CARTESIAN_POINT('',(0.499999985221,0.5,0.));
#270 = DIRECTION('',(0.,0.,1.));
#271 = DIRECTION('',(1.,0.,-0.));
#272 = DEFINITIONAL_REPRESENTATION('',(#273),#277);
#273 = CIRCLE('',#274,0.5);
#274 = AXIS2_PLACEMENT_2D('',#275,#276);
#275 = CARTESIAN_POINT('',(1.477918648574E-08,-2.331468351713E-15));
#276 = DIRECTION('',(1.,0.));
#277 = ( GEOMETRIC_REPRESENTATION_CONTEXT(2) 
PARAMETRIC_REPRESENTATION_CONTEXT() REPRESENTATION_CONTEXT('2D SPACE',''
  ) );
#278 = FACE_BOUND('',#279,.F.);
#279 = EDGE_LOOP('',(#280));
#280 = ORIENTED_EDGE('',*,*,#281,.F.);
#281 = EDGE_CURVE('',#282,#282,#284,.T.);
#282 = VERTEX_POINT('',#283);
#283 = CARTESIAN_POINT('',(0.5,0.35,0.));
#284 = SURFACE_CURVE('',#285,(#290),.PCURVE_S1.);
#285 = CIRCLE('',#286,0.15);
#286 = AXIS2_PLACEMENT_3D('',#287,#288,#289);
#287 = CARTESIAN_POINT('',(0.35,0.35,0.));
#288 = DIRECTION('',(0.,0.,1.));
#289 = DIRECTION('',(1.,0.,-0.));
#290 = PCURVE('',#267,#291);
#291 = DEFINITIONAL_REPRESENTATION('',(#292),#296);
#292 = CIRCLE('',#293,0.15);
#293 = AXIS2_PLACEMENT_2D('',#294,#295);
#294 = CARTESIAN_POINT('',(-0.149999985221,-0.15));
#295 = DIRECTION('',(1.,0.));
#296 = ( GEOMETRIC_REPRESENTATION_CONTEXT(2) 
PARAMETRIC_REPRESENTATION_CONTEXT() REPRESENTATION_CONTEXT('2D SPACE',''
  ) );
#297 = FACE_BOUND('',#298,.F.);
#298 = EDGE_LOOP('',(#299));
#299 = ORIENTED_EDGE('',*,*,#300,.F.);
#300 = EDGE_CURVE('',#301,#301,#303,.T.);
#301 = VERTEX_POINT('',#302);
#302 = CARTESIAN_POINT('',(0.8,0.35,0.));
#303 = SURFACE_CURVE('',#304,(#309),.PCURVE_S1.);
#304 = CIRCLE('',#305,0.15);
#305 = AXIS2_PLACEMENT_3D('',#306,#307,#308);
#306 = CARTESIAN_POINT('',(0.65,0.35,0.));
#307 = DIRECTION('',(0.,0.,1.));
#308 = DIRECTION('',(1.,0.,-0.));
#309 = PCURVE('',#267,#310);
#310 = DEFINITIONAL_REPRESENTATION('',(#311),#315);
#311 = CIRCLE('',#312,0.15);
#312 = AXIS2_PLACEMENT_2D('',#313,#314);
#313 = CARTESIAN_POINT('',(0.150000014779,-0.15));
#314 = DIRECTION('',(1.,0.));
#315 = ( GEOMETRIC_REPRESENTATION_CONTEXT(2) 
PARAMETRIC_REPRESENTATION_CONTEXT() REPRESENTATION_CONTEXT('2D SPACE',''
  ) );
#316 = FACE_BOUND('',#317,.F.);
#317 = EDGE_LOOP('',(#318));
#318 = ORIENTED_EDGE('',*,*,#319,.F.);
#319 = EDGE_CURVE('',#320,#320,#322,.T.);
#320 = VERTEX_POINT('',#321);
#321 = CARTESIAN_POINT('',(0.5,0.65,0.));
#322 = SURFACE_CURVE('',#323,(#328),.PCURVE_S1.);
#323 = CIRCLE('',#324,0.15);
#324 = AXIS2_PLACEMENT_3D('',#325,#326,#327);
#325 = CARTESIAN_POINT('',(0.35,0.65,0.));
#326 = DIRECTION('',(0.,0.,1.));
#327 = DIRECTION('',(1.,0.,-0.));
#328 = PCURVE('',#267,#329);
#329 = DEFINITIONAL_REPRESENTATION('',(#330),#334);
#330 = CIRCLE('',#331,0.15);
#331 = AXIS2_PLACEMENT_2D('',#332,#333);
#332 = CARTESIAN_POINT('',(-0.149999985221,0.15));
#333 = DIRECTION('',(1.,0.));
#334 = ( GEOMETRIC_REPRESENTATION_CONTEXT(2) 
PARAMETRIC_REPRESENTATION_CONTEXT() REPRESENTATION_CONTEXT('2D SPACE',''
  ) );
#335 = FACE_BOUND('',#336,.F.);
#336 = EDGE_LOOP('',(#337));
#337 = ORIENTED_EDGE('',*,*,#338,.F.);
#338 = EDGE_CURVE('',#339,#339,#341,.T.);
#339 = VERTEX_POINT('',#340);
#340 = CARTESIAN_POINT('',(0.8,0.65,0.));
#341 = SURFACE_CURVE('',#342,(#347),.PCURVE_S1.);
#342 = CIRCLE('',#343,0.15);
#343 = AXIS2_PLACEMENT_3D('',#344,#345,#346);
#344 = CARTESIAN_POINT('',(0.65,0.65,0.));
#345 = DIRECTION('',(0.,0.,1.));
#346 = DIRECTION('',(1.,0.,-0.));
#347 = PCURVE('',#267,#348);
#348 = DEFINITIONAL_REPRESENTATION('',(#349),#353);
#349 = CIRCLE('',#350,0.15);
#350 = AXIS2_PLACEMENT_2D('',#351,#352);
#351 = CARTESIAN_POINT('',(0.150000014779,0.15));
#352 = DIRECTION('',(1.,0.));
#353 = ( GEOMETRIC_REPRESENTATION_CONTEXT(2) 
PARAMETRIC_REPRESENTATION_CONTEXT() REPRESENTATION_CONTEXT('2D SPACE',''
  ) );
#354 = ( GEOMETRIC_REPRESENTATION_CONTEXT(3) 
GLOBAL_UNCERTAINTY_ASSIGNED_CONTEXT((#358)) GLOBAL_UNIT_ASSIGNED_CONTEXT
((#355,#356,#357)) REPRESENTATION_CONTEXT('Context #1',
  '3D Context with UNIT and UNCERTAINTY') );
#355 = ( LENGTH_UNIT() NAMED_UNIT(*) SI_UNIT(.MILLI.,.METRE.) );
#356 = ( NAMED_UNIT(*) PLANE_ANGLE_UNIT() SI_UNIT($,.RADIAN.) );
#357 = ( NAMED_UNIT(*) SI_UNIT($,.STERADIAN.) SOLID_ANGLE_UNIT() );
#358 = UNCERTAINTY_MEASURE_WITH_UNIT(LENGTH_MEASURE(1.E-07),#355,
  'distance_accuracy_value','confusion accuracy');
#359 = CONTEXT_DEPENDENT_SHAPE_REPRESENTATION(#360,#362);
#360 = ( REPRESENTATION_RELATIONSHIP('','',#248,#10) 
REPRESENTATION_RELATIONSHIP_WITH_TRANSFORMATION(#361) 
SHAPE_REPRESENTATION_RELATIONSHIP() );
#361 = ITEM_DEFINED_TRANSFORMATION('','',#11,#23);
#362 = PRODUCT_DEFINITION_SHAPE('Placement','Placement of an item',#363
  );
#363 = NEXT_ASSEMBLY_USAGE_OCCURRENCE('3','','',#5,#243,$);
#364 = PRODUCT_RELATED_PRODUCT_CATEGORY('part',$,(#245));
#365 = SHAPE_DEFINITION_REPRESENTATION(#366,#372);
#366 = PRODUCT_DEFINITION_SHAPE('','',#367);
#367 = PRODUCT_DEFINITION('design','',#368,#371);
#368 = PRODUCT_DEFINITION_FORMATION('','',#369);
#369 = PRODUCT('Open CASCADE STEP translator 7.9 1.4',
  'Open CASCADE STEP translator 7.9 1.4','',(#370));
#370 = PRODUCT_CONTEXT('',#2,'mechanical');
#371 = PRODUCT_DEFINITION_CONTEXT('part definition',#2,'design');
#372 = MANIFOLD_SURFACE_SHAPE_REPRESENTATION('',(#11,#373),#478);
#373 = SHELL_BASED_SURFACE_MODEL('',(#374));
#374 = OPEN_SHELL('',(#375));
#375 = ADVANCED_FACE('',(#376,#402,#421,#440,#459),#391,.T.);
#376 = FACE_BOUND('',#377,.T.);
#377 = EDGE_LOOP('',(#378));
#378 = ORIENTED_EDGE('',*,*,#379,.F.);
#379 = EDGE_CURVE('',#380,#382,#384,.T.);
#380 = VERTEX_POINT('',#381);
#381 = CARTESIAN_POINT('',(1.,0.5,1.8182E-02));
#382 = VERTEX_POINT('',#383);
#383 = CARTESIAN_POINT('',(1.,0.49999984641,1.8182E-02));
#384 = SURFACE_CURVE('',#385,(#390),.PCURVE_S1.);
#385 = CIRCLE('',#386,0.5);
#386 = AXIS2_PLACEMENT_3D('',#387,#388,#389);
#387 = CARTESIAN_POINT('',(0.5,0.5,1.8182E-02));
#388 = DIRECTION('',(0.,0.,1.));
#389 = DIRECTION('',(1.,0.,-0.));
#390 = PCURVE('',#391,#396);
#391 = PLANE('',#392);
#392 = AXIS2_PLACEMENT_3D('',#393,#394,#395);
#393 = CARTESIAN_POINT('',(0.499999985221,0.5,1.8182E-02));
#394 = DIRECTION('',(0.,0.,1.));
#395 = DIRECTION('',(1.,0.,-0.));
#396 = DEFINITIONAL_REPRESENTATION('',(#397),#401);
#397 = CIRCLE('',#398,0.5);
#398 = AXIS2_PLACEMENT_2D('',#399,#400);
#399 = CARTESIAN_POINT('',(1.477918648574E-08,-2.331468351713E-15));
#400 = DIRECTION('',(1.,0.));
#401 = ( GEOMETRIC_REPRESENTATION_CONTEXT(2) 
PARAMETRIC_REPRESENTATION_CONTEXT() REPRESENTATION_CONTEXT('2D SPACE',''
  ) );
#402 = FACE_BOUND('',#403,.F.);
#403 = EDGE_LOOP('',(#404));
#404 = ORIENTED_EDGE('',*,*,#405,.T.);
#405 = EDGE_CURVE('',#406,#406,#408,.T.);
#406 = VERTEX_POINT('',#407);
#407 = CARTESIAN_POINT('',(0.5,0.35,1.8182E-02));
#408 = SURFACE_CURVE('',#409,(#414),.PCURVE_S1.);
#409 = CIRCLE('',#410,0.15);
#410 = AXIS2_PLACEMENT_3D('',#411,#412,#413);
#411 = CARTESIAN_POINT('',(0.35,0.35,1.8182E-02));
#412 = DIRECTION('',(0.,0.,1.));
#413 = DIRECTION('',(1.,0.,-0.));
#414 = PCURVE('',#391,#415);
#415 = DEFINITIONAL_REPRESENTATION('',(#416),#420);
#416 = CIRCLE('',#417,0.15);
#417 = AXIS2_PLACEMENT_2D('',#418,#419);
#418 = CARTESIAN_POINT('',(-0.149999985221,-0.15));
#419 = DIRECTION('',(1.,0.));
#420 = ( GEOMETRIC_REPRESENTATION_CONTEXT(2) 
PARAMETRIC_REPRESENTATION_CONTEXT() REPRESENTATION_CONTEXT('2D SPACE',''
  ) );
#421 = FACE_BOUND('',#422,.F.);
#422 = EDGE_LOOP('',(#423));
#423 = ORIENTED_EDGE('',*,*,#424,.T.);
#424 = EDGE_CURVE('',#425,#425,#427,.T.);
#425 = VERTEX_POINT('',#426);
#426 = CARTESIAN_POINT('',(0.8,0.35,1.8182E-02));
#427 = SURFACE_CURVE('',#428,(#433),.PCURVE_S1.);
#428 = CIRCLE('',#429,0.15);
#429 = AXIS2_PLACEMENT_3D('',#430,#431,#432);
#430 = CARTESIAN_POINT('',(0.65,0.35,1.8182E-02));
#431 = DIRECTION('',(0.,0.,1.));
#432 = DIRECTION('',(1.,0.,-0.));
#433 = PCURVE('',#391,#434);
#434 = DEFINITIONAL_REPRESENTATION('',(#435),#439);
#435 = CIRCLE('',#436,0.15);
#436 = AXIS2_PLACEMENT_2D('',#437,#438);
#437 = CARTESIAN_POINT('',(0.150000014779,-0.15));
#438 = DIRECTION('',(1.,0.));
#439 = ( GEOMETRIC_REPRESENTATION_CONTEXT(2) 
PARAMETRIC_REPRESENTATION_CONTEXT() REPRESENTATION_CONTEXT('2D SPACE',''
  ) );
#440 = FACE_BOUND('',#441,.F.);
#441 = EDGE_LOOP('',(#442));
#442 = ORIENTED_EDGE('',*,*,#443,.T.);
#443 = EDGE_CURVE('',#444,#444,#446,.T.);
#444 = VERTEX_POINT('',#445);
#445 = CARTESIAN_POINT('',(0.5,0.65,1.8182E-02));
#446 = SURFACE_CURVE('',#447,(#452),.PCURVE_S1.);
#447 = CIRCLE('',#448,0.15);
#448 = AXIS2_PLACEMENT_3D('',#449,#450,#451);
#449 = CARTESIAN_POINT('',(0.35,0.65,1.8182E-02));
#450 = DIRECTION('',(0.,0.,1.));
#451 = DIRECTION('',(1.,0.,-0.));
#452 = PCURVE('',#391,#453);
#453 = DEFINITIONAL_REPRESENTATION('',(#454),#458);
#454 = CIRCLE('',#455,0.15);
#455 = AXIS2_PLACEMENT_2D('',#456,#457);
#456 = CARTESIAN_POINT('',(-0.149999985221,0.15));
#457 = DIRECTION('',(1.,0.));
#458 = ( GEOMETRIC_REPRESENTATION_CONTEXT(2) 
PARAMETRIC_REPRESENTATION_CONTEXT() REPRESENTATION_CONTEXT('2D SPACE',''
  ) );
#459 = FACE_BOUND('',#460,.F.);
#460 = EDGE_LOOP('',(#461));
#461 = ORIENTED_EDGE('',*,*,#462,.T.);
#462 = EDGE_CURVE('',#463,#463,#465,.T.);
#463 = VERTEX_POINT('',#464);
#464 = CARTESIAN_POINT('',(0.8,0.65,1.8182E-02));
#465 = SURFACE_CURVE('',#466,(#471),.PCURVE_S1.);
#466 = CIRCLE('',#467,0.15);
#467 = AXIS2_PLACEMENT_3D('',#468,#469,#470);
#468 = CARTESIAN_POINT('',(0.65,0.65,1.8182E-02));
#469 = DIRECTION('',(0.,0.,1.));
#470 = DIRECTION('',(1.,0.,-0.));
#471 = PCURVE('',#391,#472);
#472 = DEFINITIONAL_REPRESENTATION('',(#473),#477);
#473 = CIRCLE('',#474,0.15);
#474 = AXIS2_PLACEMENT_2D('',#475,#476);
#475 = CARTESIAN_POINT('',(0.150000014779,0.15));
#476 = DIRECTION('',(1.,0.));
#477 = ( GEOMETRIC_REPRESENTATION_CONTEXT(2) 
PARAMETRIC_REPRESENTATION_CONTEXT() REPRESENTATION_CONTEXT('2D SPACE',''
  ) );
#478 = ( GEOMETRIC_REPRESENTATION_CONTEXT(3) 
GLOBAL_UNCERTAINTY_ASSIGNED_CONTEXT((#482)) GLOBAL_UNIT_ASSIGNED_CONTEXT
((#479,#480,#481)) REPRESENTATION_CONTEXT('Context #1',
  '3D Context with UNIT and UNCERTAINTY') );
#479 = ( LENGTH_UNIT() NAMED_UNIT(*) SI_UNIT(.MILLI.,.METRE.) );
#480 = ( NAMED_UNIT(*) PLANE_ANGLE_UNIT() SI_UNIT($,.RADIAN.) );
#481 = ( NAMED_UNIT(*) SI_UNIT($,.STERADIAN.) SOLID_ANGLE_UNIT() );
#482 = UNCERTAINTY_MEASURE_WITH_UNIT(LENGTH_MEASURE(1.E-07),#479,
  'distance_accuracy_value','confusion accuracy');
#483 = CONTEXT_DEPENDENT_SHAPE_REPRESENTATION(#484,#486);
#484 = ( REPRESENTATION_RELATIONSHIP('','',#372,#10) 
REPRESENTATION_RELATIONSHIP_WITH_TRANSFORMATION(#485) 
SHAPE_REPRESENTATION_RELATIONSHIP() );
#485 = ITEM_DEFINED_TRANSFORMATION('','',#11,#27);
#486 = PRODUCT_DEFINITION_SHAPE('Placement','Placement of an item',#487
  );
#487 = NEXT_ASSEMBLY_USAGE_OCCURRENCE('4','','',#5,#367,$);
#488 = PRODUCT_RELATED_PRODUCT_CATEGORY('part',$,(#369));
#489 = SHAPE_DEFINITION_REPRESENTATION(#490,#496);
#490 = PRODUCT_DEFINITION_SHAPE('','',#491);
#491 = PRODUCT_DEFINITION('design','',#492,#495);
#492 = PRODUCT_DEFINITION_FORMATION('','',#493);
#493 = PRODUCT('Open CASCADE STEP translator 7.9 1.5',
  'Open CASCADE STEP translator 7.9 1.5','',(#494));
#494 = PRODUCT_CONTEXT('',#2,'mechanical');
#495 = PRODUCT_DEFINITION_CONTEXT('part definition',#2,'design');
#496 = MANIFOLD_SURFACE_SHAPE_REPRESENTATION('',(#11,#497),#586);
#497 = SHELL_BASED_SURFACE_MODEL('',(#498));
#498 = OPEN_SHELL('',(#499));
#499 = ADVANCED_FACE('',(#500),#513,.T.);
#500 = FACE_BOUND('',#501,.T.);
#501 = EDGE_LOOP('',(#502,#545,#565,#566));
#502 = ORIENTED_EDGE('',*,*,#503,.F.);
#503 = EDGE_CURVE('',#504,#506,#508,.T.);
#504 = VERTEX_POINT('',#505);
#505 = CARTESIAN_POINT('',(0.999999999697,0.5,3.030000028296E-10));
#506 = VERTEX_POINT('',#507);
#507 = CARTESIAN_POINT('',(0.999999999697,0.5,1.8181818477E-02));
#508 = SEAM_CURVE('',#509,(#512,#538),.PCURVE_S1.);
#509 = B_SPLINE_CURVE_WITH_KNOTS('',1,(#510,#511),.UNSPECIFIED.,.F.,.F.,
  (2,2),(-1.8182E-02,0.),.PIECEWISE_BEZIER_KNOTS.);
#510 = CARTESIAN_POINT('',(0.999999999697,0.5,3.030000028296E-10));
#511 = CARTESIAN_POINT('',(0.999999999697,0.5,1.8181818477E-02));
#512 = PCURVE('',#513,#532);
#513 = ( BOUNDED_SURFACE() B_SPLINE_SURFACE(2,1,(
    (#514,#515)
    ,(#516,#517)
    ,(#518,#519)
    ,(#520,#521)
    ,(#522,#523)
    ,(#524,#525)
    ,(#526,#527)
    ,(#528,#529)
,(#530,#531
    )),.UNSPECIFIED.,.T.,.F.,.F.) B_SPLINE_SURFACE_WITH_KNOTS((3,2,2,2,3
    ),(2,2),(3.141593,4.18879,6.283185,8.37758,9.424778),(-1.8182E-02,0.
),.UNSPECIFIED.) GEOMETRIC_REPRESENTATION_ITEM() 
RATIONAL_B_SPLINE_SURFACE((
    (0.75,0.75)
    ,(0.75,0.75)
    ,(1.,1.)
    ,(0.5,0.5)
    ,(1.,1.)
    ,(0.5,0.5)
    ,(1.,1.)
    ,(0.75,0.75)
,(0.75,0.75))) REPRESENTATION_ITEM('') SURFACE() );
#514 = CARTESIAN_POINT('',(0.999999999697,0.5,3.030000028296E-10));
#515 = CARTESIAN_POINT('',(0.999999999697,0.5,1.8181818477E-02));
#516 = CARTESIAN_POINT('',(0.999999999697,0.788675134405,
    3.030000028296E-10));
#517 = CARTESIAN_POINT('',(0.999999999697,0.788675134405,
    1.8181818477E-02));
#518 = CARTESIAN_POINT('',(0.749999999849,0.933012701608,
    3.030000028296E-10));
#519 = CARTESIAN_POINT('',(0.749999999849,0.933012701608,
    1.8181818477E-02));
#520 = CARTESIAN_POINT('',(3.030008466354E-10,1.366025403216,
    3.030000028296E-10));
#521 = CARTESIAN_POINT('',(3.030008466354E-10,1.366025403216,
    1.8181818477E-02));
#522 = CARTESIAN_POINT('',(3.030000694793E-10,0.5,3.030000028296E-10));
#523 = CARTESIAN_POINT('',(3.030000694793E-10,0.5,1.8181818477E-02));
#524 = CARTESIAN_POINT('',(3.030000694793E-10,-0.366025403216,
    3.030000028296E-10));
#525 = CARTESIAN_POINT('',(3.030000694793E-10,-0.366025403216,
    1.8181818477E-02));
#526 = CARTESIAN_POINT('',(0.749999999848,6.698729839184E-02,
    3.030000028296E-10));
#527 = CARTESIAN_POINT('',(0.749999999848,6.698729839184E-02,
    1.8181818477E-02));
#528 = CARTESIAN_POINT('',(0.999999999697,0.211324865594,
    3.030000028296E-10));
#529 = CARTESIAN_POINT('',(0.999999999697,0.211324865594,
    1.8181818477E-02));
#530 = CARTESIAN_POINT('',(0.999999999697,0.5,3.030000028296E-10));
#531 = CARTESIAN_POINT('',(0.999999999697,0.5,1.8181818477E-02));
#532 = DEFINITIONAL_REPRESENTATION('',(#533),#537);
#533 = LINE('',#534,#535);
#534 = CARTESIAN_POINT('',(3.141593,0.));
#535 = VECTOR('',#536,1.);
#536 = DIRECTION('',(0.,1.));
#537 = ( GEOMETRIC_REPRESENTATION_CONTEXT(2) 
PARAMETRIC_REPRESENTATION_CONTEXT() REPRESENTATION_CONTEXT('2D SPACE',''
  ) );
#538 = PCURVE('',#513,#539);
#539 = DEFINITIONAL_REPRESENTATION('',(#540),#544);
#540 = LINE('',#541,#542);
#541 = CARTESIAN_POINT('',(9.424778,0.));
#542 = VECTOR('',#543,1.);
#543 = DIRECTION('',(0.,1.));
#544 = ( GEOMETRIC_REPRESENTATION_CONTEXT(2) 
PARAMETRIC_REPRESENTATION_CONTEXT() REPRESENTATION_CONTEXT('2D SPACE',''
  ) );
#545 = ORIENTED_EDGE('',*,*,#546,.T.);
#546 = EDGE_CURVE('',#504,#504,#547,.T.);
#547 = SURFACE_CURVE('',#548,(#558),.PCURVE_S1.);
#548 = ( BOUNDED_CURVE() B_SPLINE_CURVE(2,(#549,#550,#551,#552,#553,#554
,#555,#556,#557),.UNSPECIFIED.,.T.,.F.) B_SPLINE_CURVE_WITH_KNOTS((3,2,2
    ,2,3),(3.141593,4.18879,6.283185,8.37758,9.424778),.UNSPECIFIED.) 
CURVE() GEOMETRIC_REPRESENTATION_ITEM() RATIONAL_B_SPLINE_CURVE((0.75,
0.75,1.,0.5,1.,0.5,1.,0.75,0.75)) REPRESENTATION_ITEM('') );
#549 = CARTESIAN_POINT('',(0.999999999697,0.5,3.030000028296E-10));
#550 = CARTESIAN_POINT('',(0.999999999697,0.788675134405,
    3.030000028296E-10));
#551 = CARTESIAN_POINT('',(0.749999999849,0.933012701608,
    3.030000028296E-10));
#552 = CARTESIAN_POINT('',(3.030008466354E-10,1.366025403216,
    3.030000028296E-10));
#553 = CARTESIAN_POINT('',(3.030000694793E-10,0.5,3.030000028296E-10));
#554 = CARTESIAN_POINT('',(3.030000694793E-10,-0.366025403216,
    3.030000028296E-10));
#555 = CARTESIAN_POINT('',(0.749999999848,6.698729839184E-02,
    3.030000028296E-10));
#556 = CARTESIAN_POINT('',(0.999999999697,0.211324865594,
    3.030000028296E-10));
#557 = CARTESIAN_POINT('',(0.999999999697,0.5,3.030000028296E-10));
#558 = PCURVE('',#513,#559);
#559 = DEFINITIONAL_REPRESENTATION('',(#560),#564);
#560 = LINE('',#561,#562);
#561 = CARTESIAN_POINT('',(0.,-1.8182E-02));
#562 = VECTOR('',#563,1.);
#563 = DIRECTION('',(1.,0.));
#564 = ( GEOMETRIC_REPRESENTATION_CONTEXT(2) 
PARAMETRIC_REPRESENTATION_CONTEXT() REPRESENTATION_CONTEXT('2D SPACE',''
  ) );
#565 = ORIENTED_EDGE('',*,*,#503,.T.);
#566 = ORIENTED_EDGE('',*,*,#567,.F.);
#567 = EDGE_CURVE('',#506,#506,#568,.T.);
#568 = SURFACE_CURVE('',#569,(#579),.PCURVE_S1.);
#569 = ( BOUNDED_CURVE() B_SPLINE_CURVE(2,(#570,#571,#572,#573,#574,#575
,#576,#577,#578),.UNSPECIFIED.,.T.,.F.) B_SPLINE_CURVE_WITH_KNOTS((3,2,2
    ,2,3),(3.141593,4.18879,6.283185,8.37758,9.424778),.UNSPECIFIED.) 
CURVE() GEOMETRIC_REPRESENTATION_ITEM() RATIONAL_B_SPLINE_CURVE((0.75,
0.75,1.,0.5,1.,0.5,1.,0.75,0.75)) REPRESENTATION_ITEM('') );
#570 = CARTESIAN_POINT('',(0.999999999697,0.5,1.8181818477E-02));
#571 = CARTESIAN_POINT('',(0.999999999697,0.788675134405,
    1.8181818477E-02));
#572 = CARTESIAN_POINT('',(0.749999999849,0.933012701608,
    1.8181818477E-02));
#573 = CARTESIAN_POINT('',(3.030008466354E-10,1.366025403216,
    1.8181818477E-02));
#574 = CARTESIAN_POINT('',(3.030000694793E-10,0.5,1.8181818477E-02));
#575 = CARTESIAN_POINT('',(3.030000694793E-10,-0.366025403216,
    1.8181818477E-02));
#576 = CARTESIAN_POINT('',(0.749999999848,6.698729839184E-02,
    1.8181818477E-02));
#577 = CARTESIAN_POINT('',(0.999999999697,0.211324865594,
    1.8181818477E-02));
#578 = CARTESIAN_POINT('',(0.999999999697,0.5,1.8181818477E-02));
#579 = PCURVE('',#513,#580);
#580 = DEFINITIONAL_REPRESENTATION('',(#581),#585);
#581 = LINE('',#582,#583);
#582 = CARTESIAN_POINT('',(0.,0.));
#583 = VECTOR('',#584,1.);
#584 = DIRECTION('',(1.,0.));
#585 = ( GEOMETRIC_REPRESENTATION_CONTEXT(2) 
PARAMETRIC_REPRESENTATION_CONTEXT() REPRESENTATION_CONTEXT('2D SPACE',''
  ) );
#586 = ( GEOMETRIC_REPRESENTATION_CONTEXT(3) 
GLOBAL_UNCERTAINTY_ASSIGNED_CONTEXT((#590)) GLOBAL_UNIT_ASSIGNED_CONTEXT
((#587,#588,#589)) REPRESENTATION_CONTEXT('Context #1',
  '3D Context with UNIT and UNCERTAINTY') );
#587 = ( LENGTH_UNIT() NAMED_UNIT(*) SI_UNIT(.MILLI.,.METRE.) );
#588 = ( NAMED_UNIT(*) PLANE_ANGLE_UNIT() SI_UNIT($,.RADIAN.) );
#589 = ( NAMED_UNIT(*) SI_UNIT($,.STERADIAN.) SOLID_ANGLE_UNIT() );
#590 = UNCERTAINTY_MEASURE_WITH_UNIT(LENGTH_MEASURE(1.E-07),#587,
  'distance_accuracy_value','confusion accuracy');
#591 = CONTEXT_DEPENDENT_SHAPE_REPRESENTATION(#592,#594);
#592 = ( REPRESENTATION_RELATIONSHIP('','',#496,#10) 
REPRESENTATION_RELATIONSHIP_WITH_TRANSFORMATION(#593) 
SHAPE_REPRESENTATION_RELATIONSHIP() );
#593 = ITEM_DEFINED_TRANSFORMATION('','',#11,#31);
#594 = PRODUCT_DEFINITION_SHAPE('Placement','Placement of an item',#595
  );
#595 = NEXT_ASSEMBLY_USAGE_OCCURRENCE('5','','',#5,#491,$);
#596 = PRODUCT_RELATED_PRODUCT_CATEGORY('part',$,(#493));
ENDSEC;
END-ISO-10303-21;
