solid 
 facet normal  0.000000e+00  0.000000e+00 -1.000000e+00
   outer loop
     vertex  2.885316e-10  2.307692e-01  1.538462e-01
     vertex  7.692308e-02  2.307692e-01  1.538462e-01
     vertex  7.692308e-02  7.692308e-02  1.538462e-01
   endloop
 endfacet
 facet normal  0.000000e+00  0.000000e+00 -1.000000e+00
   outer loop
     vertex  2.885316e-10  2.307692e-01  1.538462e-01
     vertex  7.692308e-02  7.692308e-02  1.538462e-01
     vertex  2.885316e-10  7.692308e-02  1.538462e-01
   endloop
 endfacet
 facet normal  0.000000e+00 -1.000000e+00  0.000000e+00
   outer loop
     vertex  7.692308e-02  7.692308e-02  2.885316e-10
     vertex  7.692308e-02  7.692308e-02  1.538462e-01
     vertex  2.885316e-10  7.692308e-02  1.538462e-01
   endloop
 endfacet
 facet normal  0.000000e+00 -1.000000e+00  0.000000e+00
   outer loop
     vertex  7.692308e-02  7.692308e-02  2.885316e-10
     vertex  2.885316e-10  7.692308e-02  1.538462e-01
     vertex  2.885316e-10  7.692308e-02  2.885316e-10
   endloop
 endfacet
 facet normal  0.000000e+00  0.000000e+00 -1.000000e+00
   outer loop
     vertex  2.885316e-10  2.307692e-01  2.885316e-10
     vertex  7.692308e-02  2.307692e-01  2.885316e-10
     vertex  7.692308e-02  7.692308e-02  2.885316e-10
   endloop
 endfacet
 facet normal  0.000000e+00  0.000000e+00 -1.000000e+00
   outer loop
     vertex  2.885316e-10  2.307692e-01  2.885316e-10
     vertex  7.692308e-02  7.692308e-02  2.885316e-10
     vertex  2.885316e-10  7.692308e-02  2.885316e-10
   endloop
 endfacet
 facet normal  0.000000e+00 -1.000000e+00  0.000000e+00
   outer loop
     vertex  7.692308e-02  2.307692e-01  2.885316e-10
     vertex  7.692308e-02  2.307692e-01  1.538462e-01
     vertex  2.885316e-10  2.307692e-01  1.538462e-01
   endloop
 endfacet
 facet normal  0.000000e+00 -1.000000e+00  0.000000e+00
   outer loop
     vertex  7.692308e-02  2.307692e-01  2.885316e-10
     vertex  2.885316e-10  2.307692e-01  1.538462e-01
     vertex  2.885316e-10  2.307692e-01  2.885316e-10
   endloop
 endfacet
 facet normal  1.000000e+00  0.000000e+00  0.000000e+00
   outer loop
     vertex  0.000000e+00  8.461500e-02  1.453850e-01
     vertex  0.000000e+00  8.461500e-02  7.692000e-03
     vertex  0.000000e+00  2.227270e-01  7.692000e-03
   endloop
 endfacet
 facet normal  1.000000e+00 -0.000000e+00  0.000000e+00
   outer loop
     vertex  0.000000e+00  8.461500e-02  1.453850e-01
     vertex  0.000000e+00  2.227270e-01  7.692000e-03
     vertex  0.000000e+00  2.227270e-01  1.453850e-01
   endloop
 endfacet
 facet normal -1.000000e+00  0.000000e+00  0.000000e+00
   outer loop
     vertex  7.692300e-02  8.461500e-02  7.692000e-03
     vertex  7.692300e-02  8.461500e-02  1.453850e-01
     vertex  7.692300e-02  2.227270e-01  1.453850e-01
   endloop
 endfacet
 facet normal -1.000000e+00  0.000000e+00  0.000000e+00
   outer loop
     vertex  7.692300e-02  8.461500e-02  7.692000e-03
     vertex  7.692300e-02  2.227270e-01  1.453850e-01
     vertex  7.692300e-02  2.227270e-01  7.692000e-03
   endloop
 endfacet
 facet normal  0.000000e+00 -1.000000e+00  0.000000e+00
   outer loop
     vertex  7.692308e-02  2.227273e-01  7.692308e-03
     vertex  7.692308e-02  2.227273e-01  1.453846e-01
     vertex  2.885316e-10  2.227273e-01  1.453846e-01
   endloop
 endfacet
 facet normal  0.000000e+00 -1.000000e+00  0.000000e+00
   outer loop
     vertex  7.692308e-02  2.227273e-01  7.692308e-03
     vertex  2.885316e-10  2.227273e-01  1.453846e-01
     vertex  2.885316e-10  2.227273e-01  7.692308e-03
   endloop
 endfacet
 facet normal  0.000000e+00  0.000000e+00 -1.000000e+00
   outer loop
     vertex  2.885316e-10  2.227273e-01  7.692308e-03
     vertex  7.692308e-02  2.227273e-01  7.692308e-03
     vertex  7.692308e-02  8.461538e-02  7.692308e-03
   endloop
 endfacet
 facet normal  0.000000e+00  0.000000e+00 -1.000000e+00
   outer loop
     vertex  2.885316e-10  2.227273e-01  7.692308e-03
     vertex  7.692308e-02  8.461538e-02  7.692308e-03
     vertex  2.885316e-10  8.461538e-02  7.692308e-03
   endloop
 endfacet
 facet normal  0.000000e+00 -1.000000e+00  0.000000e+00
   outer loop
     vertex  7.692308e-02  8.461538e-02  7.692308e-03
     vertex  7.692308e-02  8.461538e-02  1.453846e-01
     vertex  2.885316e-10  8.461538e-02  1.453846e-01
   endloop
 endfacet
 facet normal  0.000000e+00 -1.000000e+00  0.000000e+00
   outer loop
     vertex  7.692308e-02  8.461538e-02  7.692308e-03
     vertex  2.885316e-10  8.461538e-02  1.453846e-01
     vertex  2.885316e-10  8.461538e-02  7.692308e-03
   endloop
 endfacet
 facet normal  0.000000e+00  0.000000e+00 -1.000000e+00
   outer loop
     vertex  2.885316e-10  2.227273e-01  1.453846e-01
     vertex  7.692308e-02  2.227273e-01  1.453846e-01
     vertex  7.692308e-02  8.461538e-02  1.453846e-01
   endloop
 endfacet
 facet normal  0.000000e+00  0.000000e+00 -1.000000e+00
   outer loop
     vertex  2.885316e-10  2.227273e-01  1.453846e-01
     vertex  7.692308e-02  8.461538e-02  1.453846e-01
     vertex  2.885316e-10  8.461538e-02  1.453846e-01
   endloop
 endfacet
endsolid
