ISO-10303-21;
HEADER;
FILE_DESCRIPTION(('Open CASCADE Model'),'2;1');
FILE_NAME('Open CASCADE Shape Model','2026-07-02T21:26:00',('Author'),(
    'Open CASCADE'),'Open CASCADE STEP processor 7.9','Open CASCADE 7.9'
  ,'Unknown');
FILE_SCHEMA(('AUTOMOTIVE_DESIGN { 1 0 10303 214 1 1 1 1 }'));
ENDSEC;
DATA;
#1 = APPLICATION_PROTOCOL_DEFINITION('international standard',
  'automotive_design',2000,#2);
#2 = APPLICATION_CONTEXT(
  'core data for automotive mechanical design processes');
#3 = SHAPE_DEFINITION_REPRESENTATION(#4,#10);
#4 = PRODUCT_DEFINITION_SHAPE('','',#5);
#5 = PRODUCT_DEFINITION('design','',#6,#9);
#6 = PRODUCT_DEFINITION_FORMATION('','',#7);
#7 = PRODUCT('Open CASCADE STEP translator 7.9 1',
  'Open CASCADE STEP translator 7.9 1','',(#8));
#8 = PRODUCT_CONTEXT('',#2,'mechanical');
#9 = PRODUCT_DEFINITION_CONTEXT('part definition',#2,'design');
#10 = SHAPE_REPRESENTATION('',(#11,#15,#19,#23,#27,#31,#35,#39,#43,#47,
    #51),#55);
#11 = AXIS2_PLACEMENT_3D('',#12,#13,#14);
#12 = CARTESIAN_POINT('',(0.,0.,0.));
#13 = DIRECTION('',(0.,0.,1.));
#14 = DIRECTION('',(1.,0.,-0.));
#15 = AXIS2_PLACEMENT_3D('',#16,#17,#18);
#16 = CARTESIAN_POINT('',(0.,0.,0.));
#17 = DIRECTION('',(0.,0.,1.));
#18 = DIRECTION('',(1.,0.,-0.));
#19 = AXIS2_PLACEMENT_3D('',#20,#21,#22);
#20 = CARTESIAN_POINT('',(0.,0.,0.));
#21 = DIRECTION('',(0.,0.,1.));
#22 = DIRECTION('',(1.,0.,-0.));
#23 = AXIS2_PLACEMENT_3D('',#24,#25,#26);
#24 = CARTESIAN_POINT('',(0.,0.,0.));
#25 = DIRECTION('',(0.,0.,1.));
#26 = DIRECTION('',(1.,0.,-0.));
#27 = AXIS2_PLACEMENT_3D('',#28,#29,#30);
#28 = CARTESIAN_POINT('',(0.,0.,0.));
#29 = DIRECTION('',(0.,0.,1.));
#30 = DIRECTION('',(1.,0.,-0.));
#31 = AXIS2_PLACEMENT_3D('',#32,#33,#34);
#32 = CARTESIAN_POINT('',(0.,0.,0.));
#33 = DIRECTION('',(0.,0.,1.));
#34 = DIRECTION('',(1.,0.,-0.));
#35 = AXIS2_PLACEMENT_3D('',#36,#37,#38);
#36 = CARTESIAN_POINT('',(0.,0.,0.));
#37 = DIRECTION('',(0.,0.,1.));
#38 = DIRECTION('',(1.,0.,-0.));
#39 = AXIS2_PLACEMENT_3D('',#40,#41,#42);
#40 = CARTESIAN_POINT('',(0.,0.,0.));
#41 = DIRECTION('',(0.,0.,1.));
#42 = DIRECTION('',(1.,0.,-0.));
#43 = AXIS2_PLACEMENT_3D('',#44,#45,#46);
#44 = CARTESIAN_POINT('',(0.,0.,0.));
#45 = DIRECTION('',(0.,0.,1.));
#46 = DIRECTION('',(1.,0.,-0.));
#47 = AXIS2_PLACEMENT_3D('',#48,#49,#50);
#48 = CARTESIAN_POINT('',(0.,0.,0.));
#49 = DIRECTION('',(0.,0.,1.));
#50 = DIRECTION('',(1.,0.,-0.));
#51 = AXIS2_PLACEMENT_3D('',#52,#53,#54);
#52 = CARTESIAN_POINT('',(0.,0.,0.));
#53 = DIRECTION('',(0.,0.,1.));
#54 = DIRECTION('',(1.,0.,-0.));
#55 = ( GEOMETRIC_REPRESENTATION_CONTEXT(3) 
GLOBAL_UNCERTAINTY_ASSIGNED_CONTEXT((#59)) GLOBAL_UNIT_ASSIGNED_CONTEXT(
(#56,#57,#58)) REPRESENTATION_CONTEXT('Context #1',
  '3D Context with UNIT and UNCERTAINTY') );
#56 = ( LENGTH_UNIT() NAMED_UNIT(*) SI_UNIT(.MILLI.,.METRE.) );
#57 = ( NAMED_UNIT(*) PLANE_ANGLE_UNIT() SI_UNIT($,.RADIAN.) );
#58 = ( NAMED_UNIT(*) SI_UNIT($,.STERADIAN.) SOLID_ANGLE_UNIT() );
#59 = UNCERTAINTY_MEASURE_WITH_UNIT(LENGTH_MEASURE(1.E-07),#56,
  'distance_accuracy_value','confusion accuracy');
#60 = PRODUCT_RELATED_PRODUCT_CATEGORY('part',$,(#7));
#61 = SHAPE_DEFINITION_REPRESENTATION(#62,#68);
#62 = PRODUCT_DEFINITION_SHAPE('','',#63);
#63 = PRODUCT_DEFINITION('design','',#64,#67);
#64 = PRODUCT_DEFINITION_FORMATION('','',#65);
#65 = PRODUCT('Open CASCADE STEP translator 7.9 1.1',
  'Open CASCADE STEP translator 7.9 1.1','',(#66));
#66 = PRODUCT_CONTEXT('',#2,'mechanical');
#67 = PRODUCT_DEFINITION_CONTEXT('part definition',#2,'design');
#68 = MANIFOLD_SURFACE_SHAPE_REPRESENTATION('',(#11,#69),#139);
#69 = SHELL_BASED_SURFACE_MODEL('',(#70));
#70 = OPEN_SHELL('',(#71));
#71 = ADVANCED_FACE('',(#72),#85,.T.);
#72 = FACE_BOUND('',#73,.T.);
#73 = EDGE_LOOP('',(#74,#96,#111,#126));
#74 = ORIENTED_EDGE('',*,*,#75,.F.);
#75 = EDGE_CURVE('',#76,#78,#80,.T.);
#76 = VERTEX_POINT('',#77);
#77 = CARTESIAN_POINT('',(7.692307718343E-02,7.692307718343E-02,
    0.153846154019));
#78 = VERTEX_POINT('',#79);
#79 = CARTESIAN_POINT('',(7.692307718343E-02,0.230769230953,
    0.153846154019));
#80 = SURFACE_CURVE('',#81,(#84),.PCURVE_S1.);
#81 = B_SPLINE_CURVE_WITH_KNOTS('',1,(#82,#83),.UNSPECIFIED.,.F.,.F.,(2,
    2),(-7.6923E-02,7.6923E-02),.PIECEWISE_BEZIER_KNOTS.);
#82 = CARTESIAN_POINT('',(7.692307718343E-02,7.692307718343E-02,
    0.153846154019));
#83 = CARTESIAN_POINT('',(7.692307718343E-02,0.230769230953,
    0.153846154019));
#84 = PCURVE('',#85,#90);
#85 = B_SPLINE_SURFACE_WITH_KNOTS('',1,1,(
    (#86,#87)
    ,(#88,#89
    )),.UNSPECIFIED.,.F.,.F.,.F.,(2,2),(2,2),(0.,7.6923E-02),(
    -7.6923E-02,7.6923E-02),.PIECEWISE_BEZIER_KNOTS.);
#86 = CARTESIAN_POINT('',(7.692307718343E-02,7.692307718343E-02,
    0.153846154019));
#87 = CARTESIAN_POINT('',(7.692307718343E-02,0.230769230953,
    0.153846154019));
#88 = CARTESIAN_POINT('',(2.885315597556E-10,7.692307718343E-02,
    0.153846154019));
#89 = CARTESIAN_POINT('',(2.885315597556E-10,0.230769230953,
    0.153846154019));
#90 = DEFINITIONAL_REPRESENTATION('',(#91),#95);
#91 = LINE('',#92,#93);
#92 = CARTESIAN_POINT('',(0.,0.));
#93 = VECTOR('',#94,1.);
#94 = DIRECTION('',(0.,1.));
#95 = ( GEOMETRIC_REPRESENTATION_CONTEXT(2) 
PARAMETRIC_REPRESENTATION_CONTEXT() REPRESENTATION_CONTEXT('2D SPACE',''
  ) );
#96 = ORIENTED_EDGE('',*,*,#97,.T.);
#97 = EDGE_CURVE('',#76,#98,#100,.T.);
#98 = VERTEX_POINT('',#99);
#99 = CARTESIAN_POINT('',(2.885315597556E-10,7.692307718343E-02,
    0.153846154019));
#100 = SURFACE_CURVE('',#101,(#104),.PCURVE_S1.);
#101 = B_SPLINE_CURVE_WITH_KNOTS('',1,(#102,#103),.UNSPECIFIED.,.F.,.F.,
  (2,2),(0.,7.6923E-02),.PIECEWISE_BEZIER_KNOTS.);
#102 = CARTESIAN_POINT('',(7.692307718343E-02,7.692307718343E-02,
    0.153846154019));
#103 = CARTESIAN_POINT('',(2.885315597556E-10,7.692307718343E-02,
    0.153846154019));
#104 = PCURVE('',#85,#105);
#105 = DEFINITIONAL_REPRESENTATION('',(#106),#110);
#106 = LINE('',#107,#108);
#107 = CARTESIAN_POINT('',(0.,-7.6923E-02));
#108 = VECTOR('',#109,1.);
#109 = DIRECTION('',(1.,0.));
#110 = ( GEOMETRIC_REPRESENTATION_CONTEXT(2) 
PARAMETRIC_REPRESENTATION_CONTEXT() REPRESENTATION_CONTEXT('2D SPACE',''
  ) );
#111 = ORIENTED_EDGE('',*,*,#112,.T.);
#112 = EDGE_CURVE('',#98,#113,#115,.T.);
#113 = VERTEX_POINT('',#114);
#114 = CARTESIAN_POINT('',(2.885315597556E-10,0.230769230953,
    0.153846154019));
#115 = SURFACE_CURVE('',#116,(#119),.PCURVE_S1.);
#116 = B_SPLINE_CURVE_WITH_KNOTS('',1,(#117,#118),.UNSPECIFIED.,.F.,.F.,
  (2,2),(-7.6923E-02,7.6923E-02),.PIECEWISE_BEZIER_KNOTS.);
#117 = CARTESIAN_POINT('',(2.885315597556E-10,7.692307718343E-02,
    0.153846154019));
#118 = CARTESIAN_POINT('',(2.885315597556E-10,0.230769230953,
    0.153846154019));
#119 = PCURVE('',#85,#120);
#120 = DEFINITIONAL_REPRESENTATION('',(#121),#125);
#121 = LINE('',#122,#123);
#122 = CARTESIAN_POINT('',(7.6923E-02,0.));
#123 = VECTOR('',#124,1.);
#124 = DIRECTION('',(0.,1.));
#125 = ( GEOMETRIC_REPRESENTATION_CONTEXT(2) 
PARAMETRIC_REPRESENTATION_CONTEXT() REPRESENTATION_CONTEXT('2D SPACE',''
  ) );
#126 = ORIENTED_EDGE('',*,*,#127,.F.);
#127 = EDGE_CURVE('',#78,#113,#128,.T.);
#128 = SURFACE_CURVE('',#129,(#132),.PCURVE_S1.);
#129 = B_SPLINE_CURVE_WITH_KNOTS('',1,(#130,#131),.UNSPECIFIED.,.F.,.F.,
  (2,2),(0.,7.6923E-02),.PIECEWISE_BEZIER_KNOTS.);
#130 = CARTESIAN_POINT('',(7.692307718343E-02,0.230769230953,
    0.153846154019));
#131 = CARTESIAN_POINT('',(2.885315597556E-10,0.230769230953,
    0.153846154019));
#132 = PCURVE('',#85,#133);
#133 = DEFINITIONAL_REPRESENTATION('',(#134),#138);
#134 = LINE('',#135,#136);
#135 = CARTESIAN_POINT('',(0.,7.6923E-02));
#136 = VECTOR('',#137,1.);
#137 = DIRECTION('',(1.,0.));
#138 = ( GEOMETRIC_REPRESENTATION_CONTEXT(2) 
PARAMETRIC_REPRESENTATION_CONTEXT() REPRESENTATION_CONTEXT('2D SPACE',''
  ) );
#139 = ( GEOMETRIC_REPRESENTATION_CONTEXT(3) 
GLOBAL_UNCERTAINTY_ASSIGNED_CONTEXT((#143)) GLOBAL_UNIT_ASSIGNED_CONTEXT
((#140,#141,#142)) REPRESENTATION_CONTEXT('Context #1',
  '3D Context with UNIT and UNCERTAINTY') );
#140 = ( LENGTH_UNIT() NAMED_UNIT(*) SI_UNIT(.MILLI.,.METRE.) );
#141 = ( NAMED_UNIT(*) PLANE_ANGLE_UNIT() SI_UNIT($,.RADIAN.) );
#142 = ( NAMED_UNIT(*) SI_UNIT($,.STERADIAN.) SOLID_ANGLE_UNIT() );
#143 = UNCERTAINTY_MEASURE_WITH_UNIT(LENGTH_MEASURE(1.E-07),#140,
  'distance_accuracy_value','confusion accuracy');
#144 = CONTEXT_DEPENDENT_SHAPE_REPRESENTATION(#145,#147);
#145 = ( REPRESENTATION_RELATIONSHIP('','',#68,#10) 
REPRESENTATION_RELATIONSHIP_WITH_TRANSFORMATION(#146) 
SHAPE_REPRESENTATION_RELATIONSHIP() );
#146 = ITEM_DEFINED_TRANSFORMATION('','',#11,#15);
#147 = PRODUCT_DEFINITION_SHAPE('Placement','Placement of an item',#148
  );
#148 = NEXT_ASSEMBLY_USAGE_OCCURRENCE('1','','',#5,#63,$);
#149 = PRODUCT_RELATED_PRODUCT_CATEGORY('part',$,(#65));
#150 = SHAPE_DEFINITION_REPRESENTATION(#151,#157);
#151 = PRODUCT_DEFINITION_SHAPE('','',#152);
#152 = PRODUCT_DEFINITION('design','',#153,#156);
#153 = PRODUCT_DEFINITION_FORMATION('','',#154);
#154 = PRODUCT('Open CASCADE STEP translator 7.9 1.2',
  'Open CASCADE STEP translator 7.9 1.2','',(#155));
#155 = PRODUCT_CONTEXT('',#2,'mechanical');
#156 = PRODUCT_DEFINITION_CONTEXT('part definition',#2,'design');
#157 = MANIFOLD_SURFACE_SHAPE_REPRESENTATION('',(#11,#158),#228);
#158 = SHELL_BASED_SURFACE_MODEL('',(#159));
#159 = OPEN_SHELL('',(#160));
#160 = ADVANCED_FACE('',(#161),#174,.T.);
#161 = FACE_BOUND('',#162,.T.);
#162 = EDGE_LOOP('',(#163,#185,#200,#215));
#163 = ORIENTED_EDGE('',*,*,#164,.F.);
#164 = EDGE_CURVE('',#165,#167,#169,.T.);
#165 = VERTEX_POINT('',#166);
#166 = CARTESIAN_POINT('',(2.885315670623E-10,7.692307718343E-02,
    0.153846154019));
#167 = VERTEX_POINT('',#168);
#168 = CARTESIAN_POINT('',(7.692307718343E-02,7.692307718343E-02,
    0.153846154019));
#169 = SURFACE_CURVE('',#170,(#173),.PCURVE_S1.);
#170 = B_SPLINE_CURVE_WITH_KNOTS('',1,(#171,#172),.UNSPECIFIED.,.F.,.F.,
  (2,2),(0.,7.6923E-02),.PIECEWISE_BEZIER_KNOTS.);
#171 = CARTESIAN_POINT('',(2.885315670623E-10,7.692307718343E-02,
    0.153846154019));
#172 = CARTESIAN_POINT('',(7.692307718343E-02,7.692307718343E-02,
    0.153846154019));
#173 = PCURVE('',#174,#179);
#174 = B_SPLINE_SURFACE_WITH_KNOTS('',1,1,(
    (#175,#176)
    ,(#177,#178
    )),.UNSPECIFIED.,.F.,.F.,.F.,(2,2),(2,2),(-7.6923E-02,7.6923E-02),(
    0.,7.6923E-02),.PIECEWISE_BEZIER_KNOTS.);
#175 = CARTESIAN_POINT('',(2.885315670623E-10,7.692307718343E-02,
    0.153846154019));
#176 = CARTESIAN_POINT('',(7.692307718343E-02,7.692307718343E-02,
    0.153846154019));
#177 = CARTESIAN_POINT('',(2.885315670623E-10,7.692307718343E-02,
    2.885315875112E-10));
#178 = CARTESIAN_POINT('',(7.692307718343E-02,7.692307718343E-02,
    2.885315875112E-10));
#179 = DEFINITIONAL_REPRESENTATION('',(#180),#184);
#180 = LINE('',#181,#182);
#181 = CARTESIAN_POINT('',(-7.6923E-02,0.));
#182 = VECTOR('',#183,1.);
#183 = DIRECTION('',(0.,1.));
#184 = ( GEOMETRIC_REPRESENTATION_CONTEXT(2) 
PARAMETRIC_REPRESENTATION_CONTEXT() REPRESENTATION_CONTEXT('2D SPACE',''
  ) );
#185 = ORIENTED_EDGE('',*,*,#186,.T.);
#186 = EDGE_CURVE('',#165,#187,#189,.T.);
#187 = VERTEX_POINT('',#188);
#188 = CARTESIAN_POINT('',(2.885315670623E-10,7.692307718343E-02,
    2.885315875112E-10));
#189 = SURFACE_CURVE('',#190,(#193),.PCURVE_S1.);
#190 = B_SPLINE_CURVE_WITH_KNOTS('',1,(#191,#192),.UNSPECIFIED.,.F.,.F.,
  (2,2),(-7.6923E-02,7.6923E-02),.PIECEWISE_BEZIER_KNOTS.);
#191 = CARTESIAN_POINT('',(2.885315670623E-10,7.692307718343E-02,
    0.153846154019));
#192 = CARTESIAN_POINT('',(2.885315670623E-10,7.692307718343E-02,
    2.885315875112E-10));
#193 = PCURVE('',#174,#194);
#194 = DEFINITIONAL_REPRESENTATION('',(#195),#199);
#195 = LINE('',#196,#197);
#196 = CARTESIAN_POINT('',(0.,0.));
#197 = VECTOR('',#198,1.);
#198 = DIRECTION('',(1.,0.));
#199 = ( GEOMETRIC_REPRESENTATION_CONTEXT(2) 
PARAMETRIC_REPRESENTATION_CONTEXT() REPRESENTATION_CONTEXT('2D SPACE',''
  ) );
#200 = ORIENTED_EDGE('',*,*,#201,.T.);
#201 = EDGE_CURVE('',#187,#202,#204,.T.);
#202 = VERTEX_POINT('',#203);
#203 = CARTESIAN_POINT('',(7.692307718343E-02,7.692307718343E-02,
    2.885315875112E-10));
#204 = SURFACE_CURVE('',#205,(#208),.PCURVE_S1.);
#205 = B_SPLINE_CURVE_WITH_KNOTS('',1,(#206,#207),.UNSPECIFIED.,.F.,.F.,
  (2,2),(0.,7.6923E-02),.PIECEWISE_BEZIER_KNOTS.);
#206 = CARTESIAN_POINT('',(2.885315670623E-10,7.692307718343E-02,
    2.885315875112E-10));
#207 = CARTESIAN_POINT('',(7.692307718343E-02,7.692307718343E-02,
    2.885315875112E-10));
#208 = PCURVE('',#174,#209);
#209 = DEFINITIONAL_REPRESENTATION('',(#210),#214);
#210 = LINE('',#211,#212);
#211 = CARTESIAN_POINT('',(7.6923E-02,0.));
#212 = VECTOR('',#213,1.);
#213 = DIRECTION('',(0.,1.));
#214 = ( GEOMETRIC_REPRESENTATION_CONTEXT(2) 
PARAMETRIC_REPRESENTATION_CONTEXT() REPRESENTATION_CONTEXT('2D SPACE',''
  ) );
#215 = ORIENTED_EDGE('',*,*,#216,.F.);
#216 = EDGE_CURVE('',#167,#202,#217,.T.);
#217 = SURFACE_CURVE('',#218,(#221),.PCURVE_S1.);
#218 = B_SPLINE_CURVE_WITH_KNOTS('',1,(#219,#220),.UNSPECIFIED.,.F.,.F.,
  (2,2),(-7.6923E-02,7.6923E-02),.PIECEWISE_BEZIER_KNOTS.);
#219 = CARTESIAN_POINT('',(7.692307718343E-02,7.692307718343E-02,
    0.153846154019));
#220 = CARTESIAN_POINT('',(7.692307718343E-02,7.692307718343E-02,
    2.885315875112E-10));
#221 = PCURVE('',#174,#222);
#222 = DEFINITIONAL_REPRESENTATION('',(#223),#227);
#223 = LINE('',#224,#225);
#224 = CARTESIAN_POINT('',(0.,7.6923E-02));
#225 = VECTOR('',#226,1.);
#226 = DIRECTION('',(1.,0.));
#227 = ( GEOMETRIC_REPRESENTATION_CONTEXT(2) 
PARAMETRIC_REPRESENTATION_CONTEXT() REPRESENTATION_CONTEXT('2D SPACE',''
  ) );
#228 = ( GEOMETRIC_REPRESENTATION_CONTEXT(3) 
GLOBAL_UNCERTAINTY_ASSIGNED_CONTEXT((#232)) GLOBAL_UNIT_ASSIGNED_CONTEXT
((#229,#230,#231)) REPRESENTATION_CONTEXT('Context #1',
  '3D Context with UNIT and UNCERTAINTY') );
#229 = ( LENGTH_UNIT() NAMED_UNIT(*) SI_UNIT(.MILLI.,.METRE.) );
#230 = ( NAMED_UNIT(*) PLANE_ANGLE_UNIT() SI_UNIT($,.RADIAN.) );
#231 = ( NAMED_UNIT(*) SI_UNIT($,.STERADIAN.) SOLID_ANGLE_UNIT() );
#232 = UNCERTAINTY_MEASURE_WITH_UNIT(LENGTH_MEASURE(1.E-07),#229,
  'distance_accuracy_value','confusion accuracy');
#233 = CONTEXT_DEPENDENT_SHAPE_REPRESENTATION(#234,#236);
#234 = ( REPRESENTATION_RELATIONSHIP('','',#157,#10) 
REPRESENTATION_RELATIONSHIP_WITH_TRANSFORMATION(#235) 
SHAPE_REPRESENTATION_RELATIONSHIP() );
#235 = ITEM_DEFINED_TRANSFORMATION('','',#11,#19);
#236 = PRODUCT_DEFINITION_SHAPE('Placement','Placement of an item',#237
  );
#237 = NEXT_ASSEMBLY_USAGE_OCCURRENCE('2','','',#5,#152,$);
#238 = PRODUCT_RELATED_PRODUCT_CATEGORY('part',$,(#154));
#239 = SHAPE_DEFINITION_REPRESENTATION(#240,#246);
#240 = PRODUCT_DEFINITION_SHAPE('','',#241);
#241 = PRODUCT_DEFINITION('design','',#242,#245);
#242 = PRODUCT_DEFINITION_FORMATION('','',#243);
#243 = PRODUCT('Open CASCADE STEP translator 7.9 1.3',
  'Open CASCADE STEP translator 7.9 1.3','',(#244));
#244 = PRODUCT_CONTEXT('',#2,'mechanical');
#245 = PRODUCT_DEFINITION_CONTEXT('part definition',#2,'design');
#246 = MANIFOLD_SURFACE_SHAPE_REPRESENTATION('',(#11,#247),#317);
#247 = SHELL_BASED_SURFACE_MODEL('',(#248));
#248 = OPEN_SHELL('',(#249));
#249 = ADVANCED_FACE('',(#250),#263,.T.);
#250 = FACE_BOUND('',#251,.T.);
#251 = EDGE_LOOP('',(#252,#274,#289,#304));
#252 = ORIENTED_EDGE('',*,*,#253,.F.);
#253 = EDGE_CURVE('',#254,#256,#258,.T.);
#254 = VERTEX_POINT('',#255);
#255 = CARTESIAN_POINT('',(7.692307718343E-02,7.692307718343E-02,
    2.885315670623E-10));
#256 = VERTEX_POINT('',#257);
#257 = CARTESIAN_POINT('',(7.692307718343E-02,0.230769230953,
    2.885315670623E-10));
#258 = SURFACE_CURVE('',#259,(#262),.PCURVE_S1.);
#259 = B_SPLINE_CURVE_WITH_KNOTS('',1,(#260,#261),.UNSPECIFIED.,.F.,.F.,
  (2,2),(-7.6923E-02,7.6923E-02),.PIECEWISE_BEZIER_KNOTS.);
#260 = CARTESIAN_POINT('',(7.692307718343E-02,7.692307718343E-02,
    2.885315670623E-10));
#261 = CARTESIAN_POINT('',(7.692307718343E-02,0.230769230953,
    2.885315670623E-10));
#262 = PCURVE('',#263,#268);
#263 = B_SPLINE_SURFACE_WITH_KNOTS('',1,1,(
    (#264,#265)
    ,(#266,#267
  )),.UNSPECIFIED.,.F.,.F.,.F.,(2,2),(2,2),(0.,7.6923E-02),(-7.6923E-02,
    7.6923E-02),.PIECEWISE_BEZIER_KNOTS.);
#264 = CARTESIAN_POINT('',(7.692307718343E-02,7.692307718343E-02,
    2.885315670623E-10));
#265 = CARTESIAN_POINT('',(7.692307718343E-02,0.230769230953,
    2.885315670623E-10));
#266 = CARTESIAN_POINT('',(2.885315597556E-10,7.692307718343E-02,
    2.885315670623E-10));
#267 = CARTESIAN_POINT('',(2.885315597556E-10,0.230769230953,
    2.885315670623E-10));
#268 = DEFINITIONAL_REPRESENTATION('',(#269),#273);
#269 = LINE('',#270,#271);
#270 = CARTESIAN_POINT('',(0.,0.));
#271 = VECTOR('',#272,1.);
#272 = DIRECTION('',(0.,1.));
#273 = ( GEOMETRIC_REPRESENTATION_CONTEXT(2) 
PARAMETRIC_REPRESENTATION_CONTEXT() REPRESENTATION_CONTEXT('2D SPACE',''
  ) );
#274 = ORIENTED_EDGE('',*,*,#275,.T.);
#275 = EDGE_CURVE('',#254,#276,#278,.T.);
#276 = VERTEX_POINT('',#277);
#277 = CARTESIAN_POINT('',(2.885315597556E-10,7.692307718343E-02,
    2.885315670623E-10));
#278 = SURFACE_CURVE('',#279,(#282),.PCURVE_S1.);
#279 = B_SPLINE_CURVE_WITH_KNOTS('',1,(#280,#281),.UNSPECIFIED.,.F.,.F.,
  (2,2),(0.,7.6923E-02),.PIECEWISE_BEZIER_KNOTS.);
#280 = CARTESIAN_POINT('',(7.692307718343E-02,7.692307718343E-02,
    2.885315670623E-10));
#281 = CARTESIAN_POINT('',(2.885315597556E-10,7.692307718343E-02,
    2.885315670623E-10));
#282 = PCURVE('',#263,#283);
#283 = DEFINITIONAL_REPRESENTATION('',(#284),#288);
#284 = LINE('',#285,#286);
#285 = CARTESIAN_POINT('',(0.,-7.6923E-02));
#286 = VECTOR('',#287,1.);
#287 = DIRECTION('',(1.,0.));
#288 = ( GEOMETRIC_REPRESENTATION_CONTEXT(2) 
PARAMETRIC_REPRESENTATION_CONTEXT() REPRESENTATION_CONTEXT('2D SPACE',''
  ) );
#289 = ORIENTED_EDGE('',*,*,#290,.T.);
#290 = EDGE_CURVE('',#276,#291,#293,.T.);
#291 = VERTEX_POINT('',#292);
#292 = CARTESIAN_POINT('',(2.885315597556E-10,0.230769230953,
    2.885315670623E-10));
#293 = SURFACE_CURVE('',#294,(#297),.PCURVE_S1.);
#294 = B_SPLINE_CURVE_WITH_KNOTS('',1,(#295,#296),.UNSPECIFIED.,.F.,.F.,
  (2,2),(-7.6923E-02,7.6923E-02),.PIECEWISE_BEZIER_KNOTS.);
#295 = CARTESIAN_POINT('',(2.885315597556E-10,7.692307718343E-02,
    2.885315670623E-10));
#296 = CARTESIAN_POINT('',(2.885315597556E-10,0.230769230953,
    2.885315670623E-10));
#297 = PCURVE('',#263,#298);
#298 = DEFINITIONAL_REPRESENTATION('',(#299),#303);
#299 = LINE('',#300,#301);
#300 = CARTESIAN_POINT('',(7.6923E-02,0.));
#301 = VECTOR('',#302,1.);
#302 = DIRECTION('',(0.,1.));
#303 = ( GEOMETRIC_REPRESENTATION_CONTEXT(2) 
PARAMETRIC_REPRESENTATION_CONTEXT() REPRESENTATION_CONTEXT('2D SPACE',''
  ) );
#304 = ORIENTED_EDGE('',*,*,#305,.F.);
#305 = EDGE_CURVE('',#256,#291,#306,.T.);
#306 = SURFACE_CURVE('',#307,(#310),.PCURVE_S1.);
#307 = B_SPLINE_CURVE_WITH_KNOTS('',1,(#308,#309),.UNSPECIFIED.,.F.,.F.,
  (2,2),(0.,7.6923E-02),.PIECEWISE_BEZIER_KNOTS.);
#308 = CARTESIAN_POINT('',(7.692307718343E-02,0.230769230953,
    2.885315670623E-10));
#309 = CARTESIAN_POINT('',(2.885315597556E-10,0.230769230953,
    2.885315670623E-10));
#310 = PCURVE('',#263,#311);
#311 = DEFINITIONAL_REPRESENTATION('',(#312),#316);
#312 = LINE('',#313,#314);
#313 = CARTESIAN_POINT('',(0.,7.6923E-02));
#314 = VECTOR('',#315,1.);
#315 = DIRECTION('',(1.,0.));
#316 = ( GEOMETRIC_REPRESENTATION_CONTEXT(2) 
PARAMETRIC_REPRESENTATION_CONTEXT() REPRESENTATION_CONTEXT('2D SPACE',''
  ) );
#317 = ( GEOMETRIC_REPRESENTATION_CONTEXT(3) 
GLOBAL_UNCERTAINTY_ASSIGNED_CONTEXT((#321)) GLOBAL_UNIT_ASSIGNED_CONTEXT
((#318,#319,#320)) REPRESENTATION_CONTEXT('Context #1',
  '3D Context with UNIT and UNCERTAINTY') );
#318 = ( LENGTH_UNIT() NAMED_UNIT(*) SI_UNIT(.MILLI.,.METRE.) );
#319 = ( NAMED_UNIT(*) PLANE_ANGLE_UNIT() SI_UNIT($,.RADIAN.) );
#320 = ( NAMED_UNIT(*) SI_UNIT($,.STERADIAN.) SOLID_ANGLE_UNIT() );
#321 = UNCERTAINTY_MEASURE_WITH_UNIT(LENGTH_MEASURE(1.E-07),#318,
  'distance_accuracy_value','confusion accuracy');
#322 = CONTEXT_DEPENDENT_SHAPE_REPRESENTATION(#323,#325);
#323 = ( REPRESENTATION_RELATIONSHIP('','',#246,#10) 
REPRESENTATION_RELATIONSHIP_WITH_TRANSFORMATION(#324) 
SHAPE_REPRESENTATION_RELATIONSHIP() );
#324 = ITEM_DEFINED_TRANSFORMATION('','',#11,#23);
#325 = PRODUCT_DEFINITION_SHAPE('Placement','Placement of an item',#326
  );
#326 = NEXT_ASSEMBLY_USAGE_OCCURRENCE('3','','',#5,#241,$);
#327 = PRODUCT_RELATED_PRODUCT_CATEGORY('part',$,(#243));
#328 = SHAPE_DEFINITION_REPRESENTATION(#329,#335);
#329 = PRODUCT_DEFINITION_SHAPE('','',#330);
#330 = PRODUCT_DEFINITION('design','',#331,#334);
#331 = PRODUCT_DEFINITION_FORMATION('','',#332);
#332 = PRODUCT('Open CASCADE STEP translator 7.9 1.4',
  'Open CASCADE STEP translator 7.9 1.4','',(#333));
#333 = PRODUCT_CONTEXT('',#2,'mechanical');
#334 = PRODUCT_DEFINITION_CONTEXT('part definition',#2,'design');
#335 = MANIFOLD_SURFACE_SHAPE_REPRESENTATION('',(#11,#336),#406);
#336 = SHELL_BASED_SURFACE_MODEL('',(#337));
#337 = OPEN_SHELL('',(#338));
#338 = ADVANCED_FACE('',(#339),#352,.T.);
#339 = FACE_BOUND('',#340,.T.);
#340 = EDGE_LOOP('',(#341,#363,#378,#393));
#341 = ORIENTED_EDGE('',*,*,#342,.F.);
#342 = EDGE_CURVE('',#343,#345,#347,.T.);
#343 = VERTEX_POINT('',#344);
#344 = CARTESIAN_POINT('',(2.885315670623E-10,0.230769230953,
    0.153846154019));
#345 = VERTEX_POINT('',#346);
#346 = CARTESIAN_POINT('',(7.692307718343E-02,0.230769230953,
    0.153846154019));
#347 = SURFACE_CURVE('',#348,(#351),.PCURVE_S1.);
#348 = B_SPLINE_CURVE_WITH_KNOTS('',1,(#349,#350),.UNSPECIFIED.,.F.,.F.,
  (2,2),(0.,7.6923E-02),.PIECEWISE_BEZIER_KNOTS.);
#349 = CARTESIAN_POINT('',(2.885315670623E-10,0.230769230953,
    0.153846154019));
#350 = CARTESIAN_POINT('',(7.692307718343E-02,0.230769230953,
    0.153846154019));
#351 = PCURVE('',#352,#357);
#352 = B_SPLINE_SURFACE_WITH_KNOTS('',1,1,(
    (#353,#354)
    ,(#355,#356
    )),.UNSPECIFIED.,.F.,.F.,.F.,(2,2),(2,2),(-7.6923E-02,7.6923E-02),(
    0.,7.6923E-02),.PIECEWISE_BEZIER_KNOTS.);
#353 = CARTESIAN_POINT('',(2.885315670623E-10,0.230769230953,
    0.153846154019));
#354 = CARTESIAN_POINT('',(7.692307718343E-02,0.230769230953,
    0.153846154019));
#355 = CARTESIAN_POINT('',(2.885315670623E-10,0.230769230953,
    2.885315875112E-10));
#356 = CARTESIAN_POINT('',(7.692307718343E-02,0.230769230953,
    2.885315875112E-10));
#357 = DEFINITIONAL_REPRESENTATION('',(#358),#362);
#358 = LINE('',#359,#360);
#359 = CARTESIAN_POINT('',(-7.6923E-02,0.));
#360 = VECTOR('',#361,1.);
#361 = DIRECTION('',(0.,1.));
#362 = ( GEOMETRIC_REPRESENTATION_CONTEXT(2) 
PARAMETRIC_REPRESENTATION_CONTEXT() REPRESENTATION_CONTEXT('2D SPACE',''
  ) );
#363 = ORIENTED_EDGE('',*,*,#364,.T.);
#364 = EDGE_CURVE('',#343,#365,#367,.T.);
#365 = VERTEX_POINT('',#366);
#366 = CARTESIAN_POINT('',(2.885315670623E-10,0.230769230953,
    2.885315875112E-10));
#367 = SURFACE_CURVE('',#368,(#371),.PCURVE_S1.);
#368 = B_SPLINE_CURVE_WITH_KNOTS('',1,(#369,#370),.UNSPECIFIED.,.F.,.F.,
  (2,2),(-7.6923E-02,7.6923E-02),.PIECEWISE_BEZIER_KNOTS.);
#369 = CARTESIAN_POINT('',(2.885315670623E-10,0.230769230953,
    0.153846154019));
#370 = CARTESIAN_POINT('',(2.885315670623E-10,0.230769230953,
    2.885315875112E-10));
#371 = PCURVE('',#352,#372);
#372 = DEFINITIONAL_REPRESENTATION('',(#373),#377);
#373 = LINE('',#374,#375);
#374 = CARTESIAN_POINT('',(0.,0.));
#375 = VECTOR('',#376,1.);
#376 = DIRECTION('',(1.,0.));
#377 = ( GEOMETRIC_REPRESENTATION_CONTEXT(2) 
PARAMETRIC_REPRESENTATION_CONTEXT() REPRESENTATION_CONTEXT('2D SPACE',''
  ) );
#378 = ORIENTED_EDGE('',*,*,#379,.T.);
#379 = EDGE_CURVE('',#365,#380,#382,.T.);
#380 = VERTEX_POINT('',#381);
#381 = CARTESIAN_POINT('',(7.692307718343E-02,0.230769230953,
    2.885315875112E-10));
#382 = SURFACE_CURVE('',#383,(#386),.PCURVE_S1.);
#383 = B_SPLINE_CURVE_WITH_KNOTS('',1,(#384,#385),.UNSPECIFIED.,.F.,.F.,
  (2,2),(0.,7.6923E-02),.PIECEWISE_BEZIER_KNOTS.);
#384 = CARTESIAN_POINT('',(2.885315670623E-10,0.230769230953,
    2.885315875112E-10));
#385 = CARTESIAN_POINT('',(7.692307718343E-02,0.230769230953,
    2.885315875112E-10));
#386 = PCURVE('',#352,#387);
#387 = DEFINITIONAL_REPRESENTATION('',(#388),#392);
#388 = LINE('',#389,#390);
#389 = CARTESIAN_POINT('',(7.6923E-02,0.));
#390 = VECTOR('',#391,1.);
#391 = DIRECTION('',(0.,1.));
#392 = ( GEOMETRIC_REPRESENTATION_CONTEXT(2) 
PARAMETRIC_REPRESENTATION_CONTEXT() REPRESENTATION_CONTEXT('2D SPACE',''
  ) );
#393 = ORIENTED_EDGE('',*,*,#394,.F.);
#394 = EDGE_CURVE('',#345,#380,#395,.T.);
#395 = SURFACE_CURVE('',#396,(#399),.PCURVE_S1.);
#396 = B_SPLINE_CURVE_WITH_KNOTS('',1,(#397,#398),.UNSPECIFIED.,.F.,.F.,
  (2,2),(-7.6923E-02,7.6923E-02),.PIECEWISE_BEZIER_KNOTS.);
#397 = CARTESIAN_POINT('',(7.692307718343E-02,0.230769230953,
    0.153846154019));
#398 = CARTESIAN_POINT('',(7.692307718343E-02,0.230769230953,
    2.885315875112E-10));
#399 = PCURVE('',#352,#400);
#400 = DEFINITIONAL_REPRESENTATION('',(#401),#405);
#401 = LINE('',#402,#403);
#402 = CARTESIAN_POINT('',(0.,7.6923E-02));
#403 = VECTOR('',#404,1.);
#404 = DIRECTION('',(1.,0.));
#405 = ( GEOMETRIC_REPRESENTATION_CONTEXT(2) 
PARAMETRIC_REPRESENTATION_CONTEXT() REPRESENTATION_CONTEXT('2D SPACE',''
  ) );
#406 = ( GEOMETRIC_REPRESENTATION_CONTEXT(3) 
GLOBAL_UNCERTAINTY_ASSIGNED_CONTEXT((#410)) GLOBAL_UNIT_ASSIGNED_CONTEXT
((#407,#408,#409)) REPRESENTATION_CONTEXT('Context #1',
  '3D Context with UNIT and UNCERTAINTY') );
#407 = ( LENGTH_UNIT() NAMED_UNIT(*) SI_UNIT(.MILLI.,.METRE.) );
#408 = ( NAMED_UNIT(*) PLANE_ANGLE_UNIT() SI_UNIT($,.RADIAN.) );
#409 = ( NAMED_UNIT(*) SI_UNIT($,.STERADIAN.) SOLID_ANGLE_UNIT() );
#410 = UNCERTAINTY_MEASURE_WITH_UNIT(LENGTH_MEASURE(1.E-07),#407,
  'distance_accuracy_value','confusion accuracy');
#411 = CONTEXT_DEPENDENT_SHAPE_REPRESENTATION(#412,#414);
#412 = ( REPRESENTATION_RELATIONSHIP('','',#335,#10) 
REPRESENTATION_RELATIONSHIP_WITH_TRANSFORMATION(#413) 
SHAPE_REPRESENTATION_RELATIONSHIP() );
#413 = ITEM_DEFINED_TRANSFORMATION('','',#11,#27);
#414 = PRODUCT_DEFINITION_SHAPE('Placement','Placement of an item',#415
  );
#415 = NEXT_ASSEMBLY_USAGE_OCCURRENCE('4','','',#5,#330,$);
#416 = PRODUCT_RELATED_PRODUCT_CATEGORY('part',$,(#332));
#417 = SHAPE_DEFINITION_REPRESENTATION(#418,#424);
#418 = PRODUCT_DEFINITION_SHAPE('','',#419);
#419 = PRODUCT_DEFINITION('design','',#420,#423);
#420 = PRODUCT_DEFINITION_FORMATION('','',#421);
#421 = PRODUCT('Open CASCADE STEP translator 7.9 1.5',
  'Open CASCADE STEP translator 7.9 1.5','',(#422));
#422 = PRODUCT_CONTEXT('',#2,'mechanical');
#423 = PRODUCT_DEFINITION_CONTEXT('part definition',#2,'design');
#424 = MANIFOLD_SURFACE_SHAPE_REPRESENTATION('',(#11,#425),#565);
#425 = SHELL_BASED_SURFACE_MODEL('',(#426));
#426 = OPEN_SHELL('',(#427));
#427 = ADVANCED_FACE('',(#428,#499),#442,.T.);
#428 = FACE_BOUND('',#429,.T.);
#429 = EDGE_LOOP('',(#430,#453,#469,#485));
#430 = ORIENTED_EDGE('',*,*,#431,.T.);
#431 = EDGE_CURVE('',#432,#434,#436,.T.);
#432 = VERTEX_POINT('',#433);
#433 = CARTESIAN_POINT('',(0.,0.230769,0.));
#434 = VERTEX_POINT('',#435);
#435 = CARTESIAN_POINT('',(0.,0.230769,0.153846));
#436 = SURFACE_CURVE('',#437,(#441),.PCURVE_S1.);
#437 = LINE('',#438,#439);
#438 = CARTESIAN_POINT('',(0.,0.230769,0.));
#439 = VECTOR('',#440,1.);
#440 = DIRECTION('',(0.,0.,1.));
#441 = PCURVE('',#442,#447);
#442 = PLANE('',#443);
#443 = AXIS2_PLACEMENT_3D('',#444,#445,#446);
#444 = CARTESIAN_POINT('',(0.,0.153846,7.6923E-02));
#445 = DIRECTION('',(1.,0.,0.));
#446 = DIRECTION('',(-0.,0.,1.));
#447 = DEFINITIONAL_REPRESENTATION('',(#448),#452);
#448 = LINE('',#449,#450);
#449 = CARTESIAN_POINT('',(-7.6923E-02,-7.6923E-02));
#450 = VECTOR('',#451,1.);
#451 = DIRECTION('',(1.,0.));
#452 = ( GEOMETRIC_REPRESENTATION_CONTEXT(2) 
PARAMETRIC_REPRESENTATION_CONTEXT() REPRESENTATION_CONTEXT('2D SPACE',''
  ) );
#453 = ORIENTED_EDGE('',*,*,#454,.T.);
#454 = EDGE_CURVE('',#434,#455,#457,.T.);
#455 = VERTEX_POINT('',#456);
#456 = CARTESIAN_POINT('',(0.,7.6923E-02,0.153846));
#457 = SURFACE_CURVE('',#458,(#462),.PCURVE_S1.);
#458 = LINE('',#459,#460);
#459 = CARTESIAN_POINT('',(0.,0.230769,0.153846));
#460 = VECTOR('',#461,1.);
#461 = DIRECTION('',(0.,-1.,0.));
#462 = PCURVE('',#442,#463);
#463 = DEFINITIONAL_REPRESENTATION('',(#464),#468);
#464 = LINE('',#465,#466);
#465 = CARTESIAN_POINT('',(7.6923E-02,-7.6923E-02));
#466 = VECTOR('',#467,1.);
#467 = DIRECTION('',(0.,1.));
#468 = ( GEOMETRIC_REPRESENTATION_CONTEXT(2) 
PARAMETRIC_REPRESENTATION_CONTEXT() REPRESENTATION_CONTEXT('2D SPACE',''
  ) );
#469 = ORIENTED_EDGE('',*,*,#470,.T.);
#470 = EDGE_CURVE('',#455,#471,#473,.T.);
#471 = VERTEX_POINT('',#472);
#472 = CARTESIAN_POINT('',(0.,7.6923E-02,0.));
#473 = SURFACE_CURVE('',#474,(#478),.PCURVE_S1.);
#474 = LINE('',#475,#476);
#475 = CARTESIAN_POINT('',(0.,7.6923E-02,0.153846));
#476 = VECTOR('',#477,1.);
#477 = DIRECTION('',(0.,0.,-1.));
#478 = PCURVE('',#442,#479);
#479 = DEFINITIONAL_REPRESENTATION('',(#480),#484);
#480 = LINE('',#481,#482);
#481 = CARTESIAN_POINT('',(7.6923E-02,7.6923E-02));
#482 = VECTOR('',#483,1.);
#483 = DIRECTION('',(-1.,0.));
#484 = ( GEOMETRIC_REPRESENTATION_CONTEXT(2) 
PARAMETRIC_REPRESENTATION_CONTEXT() REPRESENTATION_CONTEXT('2D SPACE',''
  ) );
#485 = ORIENTED_EDGE('',*,*,#486,.T.);
#486 = EDGE_CURVE('',#471,#432,#487,.T.);
#487 = SURFACE_CURVE('',#488,(#492),.PCURVE_S1.);
#488 = LINE('',#489,#490);
#489 = CARTESIAN_POINT('',(0.,7.6923E-02,0.));
#490 = VECTOR('',#491,1.);
#491 = DIRECTION('',(0.,1.,0.));
#492 = PCURVE('',#442,#493);
#493 = DEFINITIONAL_REPRESENTATION('',(#494),#498);
#494 = LINE('',#495,#496);
#495 = CARTESIAN_POINT('',(-7.6923E-02,7.6923E-02));
#496 = VECTOR('',#497,1.);
#497 = DIRECTION('',(0.,-1.));
#498 = ( GEOMETRIC_REPRESENTATION_CONTEXT(2) 
PARAMETRIC_REPRESENTATION_CONTEXT() REPRESENTATION_CONTEXT('2D SPACE',''
  ) );
#499 = FACE_BOUND('',#500,.F.);
#500 = EDGE_LOOP('',(#501,#519,#535,#551));
#501 = ORIENTED_EDGE('',*,*,#502,.T.);
#502 = EDGE_CURVE('',#503,#505,#507,.T.);
#503 = VERTEX_POINT('',#504);
#504 = CARTESIAN_POINT('',(0.,8.4615E-02,0.145385));
#505 = VERTEX_POINT('',#506);
#506 = CARTESIAN_POINT('',(0.,0.222727,0.145385));
#507 = SURFACE_CURVE('',#508,(#512),.PCURVE_S1.);
#508 = LINE('',#509,#510);
#509 = CARTESIAN_POINT('',(0.,8.4615E-02,0.145385));
#510 = VECTOR('',#511,1.);
#511 = DIRECTION('',(0.,1.,0.));
#512 = PCURVE('',#442,#513);
#513 = DEFINITIONAL_REPRESENTATION('',(#514),#518);
#514 = LINE('',#515,#516);
#515 = CARTESIAN_POINT('',(6.8462E-02,6.9231E-02));
#516 = VECTOR('',#517,1.);
#517 = DIRECTION('',(0.,-1.));
#518 = ( GEOMETRIC_REPRESENTATION_CONTEXT(2) 
PARAMETRIC_REPRESENTATION_CONTEXT() REPRESENTATION_CONTEXT('2D SPACE',''
  ) );
#519 = ORIENTED_EDGE('',*,*,#520,.T.);
#520 = EDGE_CURVE('',#505,#521,#523,.T.);
#521 = VERTEX_POINT('',#522);
#522 = CARTESIAN_POINT('',(0.,0.222727,7.692E-03));
#523 = SURFACE_CURVE('',#524,(#528),.PCURVE_S1.);
#524 = LINE('',#525,#526);
#525 = CARTESIAN_POINT('',(0.,0.222727,0.145385));
#526 = VECTOR('',#527,1.);
#527 = DIRECTION('',(0.,0.,-1.));
#528 = PCURVE('',#442,#529);
#529 = DEFINITIONAL_REPRESENTATION('',(#530),#534);
#530 = LINE('',#531,#532);
#531 = CARTESIAN_POINT('',(6.8462E-02,-6.8881E-02));
#532 = VECTOR('',#533,1.);
#533 = DIRECTION('',(-1.,0.));
#534 = ( GEOMETRIC_REPRESENTATION_CONTEXT(2) 
PARAMETRIC_REPRESENTATION_CONTEXT() REPRESENTATION_CONTEXT('2D SPACE',''
  ) );
#535 = ORIENTED_EDGE('',*,*,#536,.T.);
#536 = EDGE_CURVE('',#521,#537,#539,.T.);
#537 = VERTEX_POINT('',#538);
#538 = CARTESIAN_POINT('',(0.,8.4615E-02,7.692E-03));
#539 = SURFACE_CURVE('',#540,(#544),.PCURVE_S1.);
#540 = LINE('',#541,#542);
#541 = CARTESIAN_POINT('',(0.,0.222727,7.692E-03));
#542 = VECTOR('',#543,1.);
#543 = DIRECTION('',(0.,-1.,0.));
#544 = PCURVE('',#442,#545);
#545 = DEFINITIONAL_REPRESENTATION('',(#546),#550);
#546 = LINE('',#547,#548);
#547 = CARTESIAN_POINT('',(-6.9231E-02,-6.8881E-02));
#548 = VECTOR('',#549,1.);
#549 = DIRECTION('',(0.,1.));
#550 = ( GEOMETRIC_REPRESENTATION_CONTEXT(2) 
PARAMETRIC_REPRESENTATION_CONTEXT() REPRESENTATION_CONTEXT('2D SPACE',''
  ) );
#551 = ORIENTED_EDGE('',*,*,#552,.T.);
#552 = EDGE_CURVE('',#537,#503,#553,.T.);
#553 = SURFACE_CURVE('',#554,(#558),.PCURVE_S1.);
#554 = LINE('',#555,#556);
#555 = CARTESIAN_POINT('',(0.,8.4615E-02,7.692E-03));
#556 = VECTOR('',#557,1.);
#557 = DIRECTION('',(0.,0.,1.));
#558 = PCURVE('',#442,#559);
#559 = DEFINITIONAL_REPRESENTATION('',(#560),#564);
#560 = LINE('',#561,#562);
#561 = CARTESIAN_POINT('',(-6.9231E-02,6.9231E-02));
#562 = VECTOR('',#563,1.);
#563 = DIRECTION('',(1.,0.));
#564 = ( GEOMETRIC_REPRESENTATION_CONTEXT(2) 
PARAMETRIC_REPRESENTATION_CONTEXT() REPRESENTATION_CONTEXT('2D SPACE',''
  ) );
#565 = ( GEOMETRIC_REPRESENTATION_CONTEXT(3) 
GLOBAL_UNCERTAINTY_ASSIGNED_CONTEXT((#569)) GLOBAL_UNIT_ASSIGNED_CONTEXT
((#566,#567,#568)) REPRESENTATION_CONTEXT('Context #1',
  '3D Context with UNIT and UNCERTAINTY') );
#566 = ( LENGTH_UNIT() NAMED_UNIT(*) SI_UNIT(.MILLI.,.METRE.) );
#567 = ( NAMED_UNIT(*) PLANE_ANGLE_UNIT() SI_UNIT($,.RADIAN.) );
#568 = ( NAMED_UNIT(*) SI_UNIT($,.STERADIAN.) SOLID_ANGLE_UNIT() );
#569 = UNCERTAINTY_MEASURE_WITH_UNIT(LENGTH_MEASURE(1.E-07),#566,
  'distance_accuracy_value','confusion accuracy');
#570 = CONTEXT_DEPENDENT_SHAPE_REPRESENTATION(#571,#573);
#571 = ( REPRESENTATION_RELATIONSHIP('','',#424,#10) 
REPRESENTATION_RELATIONSHIP_WITH_TRANSFORMATION(#572) 
SHAPE_REPRESENTATION_RELATIONSHIP() );
#572 = ITEM_DEFINED_TRANSFORMATION('','',#11,#31);
#573 = PRODUCT_DEFINITION_SHAPE('Placement','Placement of an item',#574
  );
#574 = NEXT_ASSEMBLY_USAGE_OCCURRENCE('5','','',#5,#419,$);
#575 = PRODUCT_RELATED_PRODUCT_CATEGORY('part',$,(#421));
#576 = SHAPE_DEFINITION_REPRESENTATION(#577,#583);
#577 = PRODUCT_DEFINITION_SHAPE('','',#578);
#578 = PRODUCT_DEFINITION('design','',#579,#582);
#579 = PRODUCT_DEFINITION_FORMATION('','',#580);
#580 = PRODUCT('Open CASCADE STEP translator 7.9 1.6',
  'Open CASCADE STEP translator 7.9 1.6','',(#581));
#581 = PRODUCT_CONTEXT('',#2,'mechanical');
#582 = PRODUCT_DEFINITION_CONTEXT('part definition',#2,'design');
#583 = MANIFOLD_SURFACE_SHAPE_REPRESENTATION('',(#11,#584),#724);
#584 = SHELL_BASED_SURFACE_MODEL('',(#585));
#585 = OPEN_SHELL('',(#586));
#586 = ADVANCED_FACE('',(#587,#658),#601,.T.);
#587 = FACE_BOUND('',#588,.T.);
#588 = EDGE_LOOP('',(#589,#612,#628,#644));
#589 = ORIENTED_EDGE('',*,*,#590,.T.);
#590 = EDGE_CURVE('',#591,#593,#595,.T.);
#591 = VERTEX_POINT('',#592);
#592 = CARTESIAN_POINT('',(7.6923E-02,0.230769,0.153846));
#593 = VERTEX_POINT('',#594);
#594 = CARTESIAN_POINT('',(7.6923E-02,0.230769,0.));
#595 = SURFACE_CURVE('',#596,(#600),.PCURVE_S1.);
#596 = LINE('',#597,#598);
#597 = CARTESIAN_POINT('',(7.6923E-02,0.230769,0.153846));
#598 = VECTOR('',#599,1.);
#599 = DIRECTION('',(0.,0.,-1.));
#600 = PCURVE('',#601,#606);
#601 = PLANE('',#602);
#602 = AXIS2_PLACEMENT_3D('',#603,#604,#605);
#603 = CARTESIAN_POINT('',(7.6923E-02,0.153846,7.6923E-02));
#604 = DIRECTION('',(-1.,-0.,-0.));
#605 = DIRECTION('',(0.,0.,-1.));
#606 = DEFINITIONAL_REPRESENTATION('',(#607),#611);
#607 = LINE('',#608,#609);
#608 = CARTESIAN_POINT('',(-7.6923E-02,-7.6923E-02));
#609 = VECTOR('',#610,1.);
#610 = DIRECTION('',(1.,0.));
#611 = ( GEOMETRIC_REPRESENTATION_CONTEXT(2) 
PARAMETRIC_REPRESENTATION_CONTEXT() REPRESENTATION_CONTEXT('2D SPACE',''
  ) );
#612 = ORIENTED_EDGE('',*,*,#613,.T.);
#613 = EDGE_CURVE('',#593,#614,#616,.T.);
#614 = VERTEX_POINT('',#615);
#615 = CARTESIAN_POINT('',(7.6923E-02,7.6923E-02,0.));
#616 = SURFACE_CURVE('',#617,(#621),.PCURVE_S1.);
#617 = LINE('',#618,#619);
#618 = CARTESIAN_POINT('',(7.6923E-02,0.230769,0.));
#619 = VECTOR('',#620,1.);
#620 = DIRECTION('',(0.,-1.,0.));
#621 = PCURVE('',#601,#622);
#622 = DEFINITIONAL_REPRESENTATION('',(#623),#627);
#623 = LINE('',#624,#625);
#624 = CARTESIAN_POINT('',(7.6923E-02,-7.6923E-02));
#625 = VECTOR('',#626,1.);
#626 = DIRECTION('',(0.,1.));
#627 = ( GEOMETRIC_REPRESENTATION_CONTEXT(2) 
PARAMETRIC_REPRESENTATION_CONTEXT() REPRESENTATION_CONTEXT('2D SPACE',''
  ) );
#628 = ORIENTED_EDGE('',*,*,#629,.T.);
#629 = EDGE_CURVE('',#614,#630,#632,.T.);
#630 = VERTEX_POINT('',#631);
#631 = CARTESIAN_POINT('',(7.6923E-02,7.6923E-02,0.153846));
#632 = SURFACE_CURVE('',#633,(#637),.PCURVE_S1.);
#633 = LINE('',#634,#635);
#634 = CARTESIAN_POINT('',(7.6923E-02,7.6923E-02,0.));
#635 = VECTOR('',#636,1.);
#636 = DIRECTION('',(0.,0.,1.));
#637 = PCURVE('',#601,#638);
#638 = DEFINITIONAL_REPRESENTATION('',(#639),#643);
#639 = LINE('',#640,#641);
#640 = CARTESIAN_POINT('',(7.6923E-02,7.6923E-02));
#641 = VECTOR('',#642,1.);
#642 = DIRECTION('',(-1.,0.));
#643 = ( GEOMETRIC_REPRESENTATION_CONTEXT(2) 
PARAMETRIC_REPRESENTATION_CONTEXT() REPRESENTATION_CONTEXT('2D SPACE',''
  ) );
#644 = ORIENTED_EDGE('',*,*,#645,.T.);
#645 = EDGE_CURVE('',#630,#591,#646,.T.);
#646 = SURFACE_CURVE('',#647,(#651),.PCURVE_S1.);
#647 = LINE('',#648,#649);
#648 = CARTESIAN_POINT('',(7.6923E-02,7.6923E-02,0.153846));
#649 = VECTOR('',#650,1.);
#650 = DIRECTION('',(0.,1.,0.));
#651 = PCURVE('',#601,#652);
#652 = DEFINITIONAL_REPRESENTATION('',(#653),#657);
#653 = LINE('',#654,#655);
#654 = CARTESIAN_POINT('',(-7.6923E-02,7.6923E-02));
#655 = VECTOR('',#656,1.);
#656 = DIRECTION('',(0.,-1.));
#657 = ( GEOMETRIC_REPRESENTATION_CONTEXT(2) 
PARAMETRIC_REPRESENTATION_CONTEXT() REPRESENTATION_CONTEXT('2D SPACE',''
  ) );
#658 = FACE_BOUND('',#659,.F.);
#659 = EDGE_LOOP('',(#660,#678,#694,#710));
#660 = ORIENTED_EDGE('',*,*,#661,.T.);
#661 = EDGE_CURVE('',#662,#664,#666,.T.);
#662 = VERTEX_POINT('',#663);
#663 = CARTESIAN_POINT('',(7.6923E-02,0.222727,7.692E-03));
#664 = VERTEX_POINT('',#665);
#665 = CARTESIAN_POINT('',(7.6923E-02,0.222727,0.145385));
#666 = SURFACE_CURVE('',#667,(#671),.PCURVE_S1.);
#667 = LINE('',#668,#669);
#668 = CARTESIAN_POINT('',(7.6923E-02,0.222727,7.692E-03));
#669 = VECTOR('',#670,1.);
#670 = DIRECTION('',(0.,0.,1.));
#671 = PCURVE('',#601,#672);
#672 = DEFINITIONAL_REPRESENTATION('',(#673),#677);
#673 = LINE('',#674,#675);
#674 = CARTESIAN_POINT('',(6.9231E-02,-6.8881E-02));
#675 = VECTOR('',#676,1.);
#676 = DIRECTION('',(-1.,0.));
#677 = ( GEOMETRIC_REPRESENTATION_CONTEXT(2) 
PARAMETRIC_REPRESENTATION_CONTEXT() REPRESENTATION_CONTEXT('2D SPACE',''
  ) );
#678 = ORIENTED_EDGE('',*,*,#679,.T.);
#679 = EDGE_CURVE('',#664,#680,#682,.T.);
#680 = VERTEX_POINT('',#681);
#681 = CARTESIAN_POINT('',(7.6923E-02,8.4615E-02,0.145385));
#682 = SURFACE_CURVE('',#683,(#687),.PCURVE_S1.);
#683 = LINE('',#684,#685);
#684 = CARTESIAN_POINT('',(7.6923E-02,0.222727,0.145385));
#685 = VECTOR('',#686,1.);
#686 = DIRECTION('',(0.,-1.,0.));
#687 = PCURVE('',#601,#688);
#688 = DEFINITIONAL_REPRESENTATION('',(#689),#693);
#689 = LINE('',#690,#691);
#690 = CARTESIAN_POINT('',(-6.8462E-02,-6.8881E-02));
#691 = VECTOR('',#692,1.);
#692 = DIRECTION('',(0.,1.));
#693 = ( GEOMETRIC_REPRESENTATION_CONTEXT(2) 
PARAMETRIC_REPRESENTATION_CONTEXT() REPRESENTATION_CONTEXT('2D SPACE',''
  ) );
#694 = ORIENTED_EDGE('',*,*,#695,.T.);
#695 = EDGE_CURVE('',#680,#696,#698,.T.);
#696 = VERTEX_POINT('',#697);
#697 = CARTESIAN_POINT('',(7.6923E-02,8.4615E-02,7.692E-03));
#698 = SURFACE_CURVE('',#699,(#703),.PCURVE_S1.);
#699 = LINE('',#700,#701);
#700 = CARTESIAN_POINT('',(7.6923E-02,8.4615E-02,0.145385));
#701 = VECTOR('',#702,1.);
#702 = DIRECTION('',(0.,0.,-1.));
#703 = PCURVE('',#601,#704);
#704 = DEFINITIONAL_REPRESENTATION('',(#705),#709);
#705 = LINE('',#706,#707);
#706 = CARTESIAN_POINT('',(-6.8462E-02,6.9231E-02));
#707 = VECTOR('',#708,1.);
#708 = DIRECTION('',(1.,0.));
#709 = ( GEOMETRIC_REPRESENTATION_CONTEXT(2) 
PARAMETRIC_REPRESENTATION_CONTEXT() REPRESENTATION_CONTEXT('2D SPACE',''
  ) );
#710 = ORIENTED_EDGE('',*,*,#711,.T.);
#711 = EDGE_CURVE('',#696,#662,#712,.T.);
#712 = SURFACE_CURVE('',#713,(#717),.PCURVE_S1.);
#713 = LINE('',#714,#715);
#714 = CARTESIAN_POINT('',(7.6923E-02,8.4615E-02,7.692E-03));
#715 = VECTOR('',#716,1.);
#716 = DIRECTION('',(0.,1.,0.));
#717 = PCURVE('',#601,#718);
#718 = DEFINITIONAL_REPRESENTATION('',(#719),#723);
#719 = LINE('',#720,#721);
#720 = CARTESIAN_POINT('',(6.9231E-02,6.9231E-02));
#721 = VECTOR('',#722,1.);
#722 = DIRECTION('',(0.,-1.));
#723 = ( GEOMETRIC_REPRESENTATION_CONTEXT(2) 
PARAMETRIC_REPRESENTATION_CONTEXT() REPRESENTATION_CONTEXT('2D SPACE',''
  ) );
#724 = ( GEOMETRIC_REPRESENTATION_CONTEXT(3) 
GLOBAL_UNCERTAINTY_ASSIGNED_CONTEXT((#728)) GLOBAL_UNIT_ASSIGNED_CONTEXT
((#725,#726,#727)) REPRESENTATION_CONTEXT('Context #1',
  '3D Context with UNIT and UNCERTAINTY') );
#725 = ( LENGTH_UNIT() NAMED_UNIT(*) SI_UNIT(.MILLI.,.METRE.) );
#726 = ( NAMED_UNIT(*) PLANE_ANGLE_UNIT() SI_UNIT($,.RADIAN.) );
#727 = ( NAMED_UNIT(*) SI_UNIT($,.STERADIAN.) SOLID_ANGLE_UNIT() );
#728 = UNCERTAINTY_MEASURE_WITH_UNIT(LENGTH_MEASURE(1.E-07),#725,
  'distance_accuracy_value','confusion accuracy');
#729 = CONTEXT_DEPENDENT_SHAPE_REPRESENTATION(#730,#732);
#730 = ( REPRESENTATION_RELATIONSHIP('','',#583,#10) 
REPRESENTATION_RELATIONSHIP_WITH_TRANSFORMATION(#731) 
SHAPE_REPRESENTATION_RELATIONSHIP() );
#731 = ITEM_DEFINED_TRANSFORMATION('','',#11,#35);
#732 = PRODUCT_DEFINITION_SHAPE('Placement','Placement of an item',#733
  );
#733 = NEXT_ASSEMBLY_USAGE_OCCURRENCE('6','','',#5,#578,$);
#734 = PRODUCT_RELATED_PRODUCT_CATEGORY('part',$,(#580));
#735 = SHAPE_DEFINITION_REPRESENTATION(#736,#742);
#736 = PRODUCT_DEFINITION_SHAPE('','',#737);
#737 = PRODUCT_DEFINITION('design','',#738,#741);
#738 = PRODUCT_DEFINITION_FORMATION('','',#739);
#739 = PRODUCT('Open CASCADE STEP translator 7.9 1.7',
  'Open CASCADE STEP translator 7.9 1.7','',(#740));
#740 = PRODUCT_CONTEXT('',#2,'mechanical');
#741 = PRODUCT_DEFINITION_CONTEXT('part definition',#2,'design');
#742 = MANIFOLD_SURFACE_SHAPE_REPRESENTATION('',(#11,#743),#813);
#743 = SHELL_BASED_SURFACE_MODEL('',(#744));
#744 = OPEN_SHELL('',(#745));
#745 = ADVANCED_FACE('',(#746),#759,.T.);
#746 = FACE_BOUND('',#747,.T.);
#747 = EDGE_LOOP('',(#748,#770,#785,#800));
#748 = ORIENTED_EDGE('',*,*,#749,.F.);
#749 = EDGE_CURVE('',#750,#752,#754,.T.);
#750 = VERTEX_POINT('',#751);
#751 = CARTESIAN_POINT('',(2.885315670623E-10,0.222727272891,
    0.145384615511));
#752 = VERTEX_POINT('',#753);
#753 = CARTESIAN_POINT('',(7.692307718343E-02,0.222727272891,
    0.145384615511));
#754 = SURFACE_CURVE('',#755,(#758),.PCURVE_S1.);
#755 = B_SPLINE_CURVE_WITH_KNOTS('',1,(#756,#757),.UNSPECIFIED.,.F.,.F.,
  (2,2),(0.,7.6923E-02),.PIECEWISE_BEZIER_KNOTS.);
#756 = CARTESIAN_POINT('',(2.885315670623E-10,0.222727272891,
    0.145384615511));
#757 = CARTESIAN_POINT('',(7.692307718343E-02,0.222727272891,
    0.145384615511));
#758 = PCURVE('',#759,#764);
#759 = B_SPLINE_SURFACE_WITH_KNOTS('',1,1,(
    (#760,#761)
    ,(#762,#763
    )),.UNSPECIFIED.,.F.,.F.,.F.,(2,2),(2,2),(-6.8846E-02,6.8846E-02),(
    0.,7.6923E-02),.PIECEWISE_BEZIER_KNOTS.);
#760 = CARTESIAN_POINT('',(2.885315670623E-10,0.222727272891,
    0.145384615511));
#761 = CARTESIAN_POINT('',(7.692307718343E-02,0.222727272891,
    0.145384615511));
#762 = CARTESIAN_POINT('',(2.885315670623E-10,0.222727272891,
    7.69230789961E-03));
#763 = CARTESIAN_POINT('',(7.692307718343E-02,0.222727272891,
    7.69230789961E-03));
#764 = DEFINITIONAL_REPRESENTATION('',(#765),#769);
#765 = LINE('',#766,#767);
#766 = CARTESIAN_POINT('',(-6.8846E-02,0.));
#767 = VECTOR('',#768,1.);
#768 = DIRECTION('',(0.,1.));
#769 = ( GEOMETRIC_REPRESENTATION_CONTEXT(2) 
PARAMETRIC_REPRESENTATION_CONTEXT() REPRESENTATION_CONTEXT('2D SPACE',''
  ) );
#770 = ORIENTED_EDGE('',*,*,#771,.T.);
#771 = EDGE_CURVE('',#750,#772,#774,.T.);
#772 = VERTEX_POINT('',#773);
#773 = CARTESIAN_POINT('',(2.885315670623E-10,0.222727272891,
    7.69230789961E-03));
#774 = SURFACE_CURVE('',#775,(#778),.PCURVE_S1.);
#775 = B_SPLINE_CURVE_WITH_KNOTS('',1,(#776,#777),.UNSPECIFIED.,.F.,.F.,
  (2,2),(-6.8846E-02,6.8846E-02),.PIECEWISE_BEZIER_KNOTS.);
#776 = CARTESIAN_POINT('',(2.885315670623E-10,0.222727272891,
    0.145384615511));
#777 = CARTESIAN_POINT('',(2.885315670623E-10,0.222727272891,
    7.69230789961E-03));
#778 = PCURVE('',#759,#779);
#779 = DEFINITIONAL_REPRESENTATION('',(#780),#784);
#780 = LINE('',#781,#782);
#781 = CARTESIAN_POINT('',(0.,0.));
#782 = VECTOR('',#783,1.);
#783 = DIRECTION('',(1.,0.));
#784 = ( GEOMETRIC_REPRESENTATION_CONTEXT(2) 
PARAMETRIC_REPRESENTATION_CONTEXT() REPRESENTATION_CONTEXT('2D SPACE',''
  ) );
#785 = ORIENTED_EDGE('',*,*,#786,.T.);
#786 = EDGE_CURVE('',#772,#787,#789,.T.);
#787 = VERTEX_POINT('',#788);
#788 = CARTESIAN_POINT('',(7.692307718343E-02,0.222727272891,
    7.69230789961E-03));
#789 = SURFACE_CURVE('',#790,(#793),.PCURVE_S1.);
#790 = B_SPLINE_CURVE_WITH_KNOTS('',1,(#791,#792),.UNSPECIFIED.,.F.,.F.,
  (2,2),(0.,7.6923E-02),.PIECEWISE_BEZIER_KNOTS.);
#791 = CARTESIAN_POINT('',(2.885315670623E-10,0.222727272891,
    7.69230789961E-03));
#792 = CARTESIAN_POINT('',(7.692307718343E-02,0.222727272891,
    7.69230789961E-03));
#793 = PCURVE('',#759,#794);
#794 = DEFINITIONAL_REPRESENTATION('',(#795),#799);
#795 = LINE('',#796,#797);
#796 = CARTESIAN_POINT('',(6.8846E-02,0.));
#797 = VECTOR('',#798,1.);
#798 = DIRECTION('',(0.,1.));
#799 = ( GEOMETRIC_REPRESENTATION_CONTEXT(2) 
PARAMETRIC_REPRESENTATION_CONTEXT() REPRESENTATION_CONTEXT('2D SPACE',''
  ) );
#800 = ORIENTED_EDGE('',*,*,#801,.F.);
#801 = EDGE_CURVE('',#752,#787,#802,.T.);
#802 = SURFACE_CURVE('',#803,(#806),.PCURVE_S1.);
#803 = B_SPLINE_CURVE_WITH_KNOTS('',1,(#804,#805),.UNSPECIFIED.,.F.,.F.,
  (2,2),(-6.8846E-02,6.8846E-02),.PIECEWISE_BEZIER_KNOTS.);
#804 = CARTESIAN_POINT('',(7.692307718343E-02,0.222727272891,
    0.145384615511));
#805 = CARTESIAN_POINT('',(7.692307718343E-02,0.222727272891,
    7.69230789961E-03));
#806 = PCURVE('',#759,#807);
#807 = DEFINITIONAL_REPRESENTATION('',(#808),#812);
#808 = LINE('',#809,#810);
#809 = CARTESIAN_POINT('',(0.,7.6923E-02));
#810 = VECTOR('',#811,1.);
#811 = DIRECTION('',(1.,0.));
#812 = ( GEOMETRIC_REPRESENTATION_CONTEXT(2) 
PARAMETRIC_REPRESENTATION_CONTEXT() REPRESENTATION_CONTEXT('2D SPACE',''
  ) );
#813 = ( GEOMETRIC_REPRESENTATION_CONTEXT(3) 
GLOBAL_UNCERTAINTY_ASSIGNED_CONTEXT((#817)) GLOBAL_UNIT_ASSIGNED_CONTEXT
((#814,#815,#816)) REPRESENTATION_CONTEXT('Context #1',
  '3D Context with UNIT and UNCERTAINTY') );
#814 = ( LENGTH_UNIT() NAMED_UNIT(*) SI_UNIT(.MILLI.,.METRE.) );
#815 = ( NAMED_UNIT(*) PLANE_ANGLE_UNIT() SI_UNIT($,.RADIAN.) );
#816 = ( NAMED_UNIT(*) SI_UNIT($,.STERADIAN.) SOLID_ANGLE_UNIT() );
#817 = UNCERTAINTY_MEASURE_WITH_UNIT(LENGTH_MEASURE(1.E-07),#814,
  'distance_accuracy_value','confusion accuracy');
#818 = CONTEXT_DEPENDENT_SHAPE_REPRESENTATION(#819,#821);
#819 = ( REPRESENTATION_RELATIONSHIP('','',#742,#10) 
REPRESENTATION_RELATIONSHIP_WITH_TRANSFORMATION(#820) 
SHAPE_REPRESENTATION_RELATIONSHIP() );
#820 = ITEM_DEFINED_TRANSFORMATION('','',#11,#39);
#821 = PRODUCT_DEFINITION_SHAPE('Placement','Placement of an item',#822
  );
#822 = NEXT_ASSEMBLY_USAGE_OCCURRENCE('7','','',#5,#737,$);
#823 = PRODUCT_RELATED_PRODUCT_CATEGORY('part',$,(#739));
#824 = SHAPE_DEFINITION_REPRESENTATION(#825,#831);
#825 = PRODUCT_DEFINITION_SHAPE('','',#826);
#826 = PRODUCT_DEFINITION('design','',#827,#830);
#827 = PRODUCT_DEFINITION_FORMATION('','',#828);
#828 = PRODUCT('Open CASCADE STEP translator 7.9 1.8',
  'Open CASCADE STEP translator 7.9 1.8','',(#829));
#829 = PRODUCT_CONTEXT('',#2,'mechanical');
#830 = PRODUCT_DEFINITION_CONTEXT('part definition',#2,'design');
#831 = MANIFOLD_SURFACE_SHAPE_REPRESENTATION('',(#11,#832),#902);
#832 = SHELL_BASED_SURFACE_MODEL('',(#833));
#833 = OPEN_SHELL('',(#834));
#834 = ADVANCED_FACE('',(#835),#848,.T.);
#835 = FACE_BOUND('',#836,.T.);
#836 = EDGE_LOOP('',(#837,#859,#874,#889));
#837 = ORIENTED_EDGE('',*,*,#838,.F.);
#838 = EDGE_CURVE('',#839,#841,#843,.T.);
#839 = VERTEX_POINT('',#840);
#840 = CARTESIAN_POINT('',(7.692307718343E-02,8.461538489072E-02,
    7.69230799961E-03));
#841 = VERTEX_POINT('',#842);
#842 = CARTESIAN_POINT('',(7.692307718343E-02,0.22272727289,
    7.69230799961E-03));
#843 = SURFACE_CURVE('',#844,(#847),.PCURVE_S1.);
#844 = B_SPLINE_CURVE_WITH_KNOTS('',1,(#845,#846),.UNSPECIFIED.,.F.,.F.,
  (2,2),(-6.9056E-02,6.9056E-02),.PIECEWISE_BEZIER_KNOTS.);
#845 = CARTESIAN_POINT('',(7.692307718343E-02,8.461538489072E-02,
    7.69230799961E-03));
#846 = CARTESIAN_POINT('',(7.692307718343E-02,0.22272727289,
    7.69230799961E-03));
#847 = PCURVE('',#848,#853);
#848 = B_SPLINE_SURFACE_WITH_KNOTS('',1,1,(
    (#849,#850)
    ,(#851,#852
  )),.UNSPECIFIED.,.F.,.F.,.F.,(2,2),(2,2),(0.,7.6923E-02),(-6.9056E-02,
    6.9056E-02),.PIECEWISE_BEZIER_KNOTS.);
#849 = CARTESIAN_POINT('',(7.692307718343E-02,8.461538489072E-02,
    7.69230799961E-03));
#850 = CARTESIAN_POINT('',(7.692307718343E-02,0.22272727289,
    7.69230799961E-03));
#851 = CARTESIAN_POINT('',(2.885315597556E-10,8.461538489072E-02,
    7.69230799961E-03));
#852 = CARTESIAN_POINT('',(2.885315597556E-10,0.22272727289,
    7.69230799961E-03));
#853 = DEFINITIONAL_REPRESENTATION('',(#854),#858);
#854 = LINE('',#855,#856);
#855 = CARTESIAN_POINT('',(0.,0.));
#856 = VECTOR('',#857,1.);
#857 = DIRECTION('',(0.,1.));
#858 = ( GEOMETRIC_REPRESENTATION_CONTEXT(2) 
PARAMETRIC_REPRESENTATION_CONTEXT() REPRESENTATION_CONTEXT('2D SPACE',''
  ) );
#859 = ORIENTED_EDGE('',*,*,#860,.T.);
#860 = EDGE_CURVE('',#839,#861,#863,.T.);
#861 = VERTEX_POINT('',#862);
#862 = CARTESIAN_POINT('',(2.885315597556E-10,8.461538489072E-02,
    7.69230799961E-03));
#863 = SURFACE_CURVE('',#864,(#867),.PCURVE_S1.);
#864 = B_SPLINE_CURVE_WITH_KNOTS('',1,(#865,#866),.UNSPECIFIED.,.F.,.F.,
  (2,2),(0.,7.6923E-02),.PIECEWISE_BEZIER_KNOTS.);
#865 = CARTESIAN_POINT('',(7.692307718343E-02,8.461538489072E-02,
    7.69230799961E-03));
#866 = CARTESIAN_POINT('',(2.885315597556E-10,8.461538489072E-02,
    7.69230799961E-03));
#867 = PCURVE('',#848,#868);
#868 = DEFINITIONAL_REPRESENTATION('',(#869),#873);
#869 = LINE('',#870,#871);
#870 = CARTESIAN_POINT('',(0.,-6.9056E-02));
#871 = VECTOR('',#872,1.);
#872 = DIRECTION('',(1.,0.));
#873 = ( GEOMETRIC_REPRESENTATION_CONTEXT(2) 
PARAMETRIC_REPRESENTATION_CONTEXT() REPRESENTATION_CONTEXT('2D SPACE',''
  ) );
#874 = ORIENTED_EDGE('',*,*,#875,.T.);
#875 = EDGE_CURVE('',#861,#876,#878,.T.);
#876 = VERTEX_POINT('',#877);
#877 = CARTESIAN_POINT('',(2.885315597556E-10,0.22272727289,
    7.69230799961E-03));
#878 = SURFACE_CURVE('',#879,(#882),.PCURVE_S1.);
#879 = B_SPLINE_CURVE_WITH_KNOTS('',1,(#880,#881),.UNSPECIFIED.,.F.,.F.,
  (2,2),(-6.9056E-02,6.9056E-02),.PIECEWISE_BEZIER_KNOTS.);
#880 = CARTESIAN_POINT('',(2.885315597556E-10,8.461538489072E-02,
    7.69230799961E-03));
#881 = CARTESIAN_POINT('',(2.885315597556E-10,0.22272727289,
    7.69230799961E-03));
#882 = PCURVE('',#848,#883);
#883 = DEFINITIONAL_REPRESENTATION('',(#884),#888);
#884 = LINE('',#885,#886);
#885 = CARTESIAN_POINT('',(7.6923E-02,0.));
#886 = VECTOR('',#887,1.);
#887 = DIRECTION('',(0.,1.));
#888 = ( GEOMETRIC_REPRESENTATION_CONTEXT(2) 
PARAMETRIC_REPRESENTATION_CONTEXT() REPRESENTATION_CONTEXT('2D SPACE',''
  ) );
#889 = ORIENTED_EDGE('',*,*,#890,.F.);
#890 = EDGE_CURVE('',#841,#876,#891,.T.);
#891 = SURFACE_CURVE('',#892,(#895),.PCURVE_S1.);
#892 = B_SPLINE_CURVE_WITH_KNOTS('',1,(#893,#894),.UNSPECIFIED.,.F.,.F.,
  (2,2),(0.,7.6923E-02),.PIECEWISE_BEZIER_KNOTS.);
#893 = CARTESIAN_POINT('',(7.692307718343E-02,0.22272727289,
    7.69230799961E-03));
#894 = CARTESIAN_POINT('',(2.885315597556E-10,0.22272727289,
    7.69230799961E-03));
#895 = PCURVE('',#848,#896);
#896 = DEFINITIONAL_REPRESENTATION('',(#897),#901);
#897 = LINE('',#898,#899);
#898 = CARTESIAN_POINT('',(0.,6.9056E-02));
#899 = VECTOR('',#900,1.);
#900 = DIRECTION('',(1.,0.));
#901 = ( GEOMETRIC_REPRESENTATION_CONTEXT(2) 
PARAMETRIC_REPRESENTATION_CONTEXT() REPRESENTATION_CONTEXT('2D SPACE',''
  ) );
#902 = ( GEOMETRIC_REPRESENTATION_CONTEXT(3) 
GLOBAL_UNCERTAINTY_ASSIGNED_CONTEXT((#906)) GLOBAL_UNIT_ASSIGNED_CONTEXT
((#903,#904,#905)) REPRESENTATION_CONTEXT('Context #1',
  '3D Context with UNIT and UNCERTAINTY') );
#903 = ( LENGTH_UNIT() NAMED_UNIT(*) SI_UNIT(.MILLI.,.METRE.) );
#904 = ( NAMED_UNIT(*) PLANE_ANGLE_UNIT() SI_UNIT($,.RADIAN.) );
#905 = ( NAMED_UNIT(*) SI_UNIT($,.STERADIAN.) SOLID_ANGLE_UNIT() );
#906 = UNCERTAINTY_MEASURE_WITH_UNIT(LENGTH_MEASURE(1.E-07),#903,
  'distance_accuracy_value','confusion accuracy');
#907 = CONTEXT_DEPENDENT_SHAPE_REPRESENTATION(#908,#910);
#908 = ( REPRESENTATION_RELATIONSHIP('','',#831,#10) 
REPRESENTATION_RELATIONSHIP_WITH_TRANSFORMATION(#909) 
SHAPE_REPRESENTATION_RELATIONSHIP() );
#909 = ITEM_DEFINED_TRANSFORMATION('','',#11,#43);
#910 = PRODUCT_DEFINITION_SHAPE('Placement','Placement of an item',#911
  );
#911 = NEXT_ASSEMBLY_USAGE_OCCURRENCE('8','','',#5,#826,$);
#912 = PRODUCT_RELATED_PRODUCT_CATEGORY('part',$,(#828));
#913 = SHAPE_DEFINITION_REPRESENTATION(#914,#920);
#914 = PRODUCT_DEFINITION_SHAPE('','',#915);
#915 = PRODUCT_DEFINITION('design','',#916,#919);
#916 = PRODUCT_DEFINITION_FORMATION('','',#917);
#917 = PRODUCT('Open CASCADE STEP translator 7.9 1.9',
  'Open CASCADE STEP translator 7.9 1.9','',(#918));
#918 = PRODUCT_CONTEXT('',#2,'mechanical');
#919 = PRODUCT_DEFINITION_CONTEXT('part definition',#2,'design');
#920 = MANIFOLD_SURFACE_SHAPE_REPRESENTATION('',(#11,#921),#991);
#921 = SHELL_BASED_SURFACE_MODEL('',(#922));
#922 = OPEN_SHELL('',(#923));
#923 = ADVANCED_FACE('',(#924),#937,.T.);
#924 = FACE_BOUND('',#925,.T.);
#925 = EDGE_LOOP('',(#926,#948,#963,#978));
#926 = ORIENTED_EDGE('',*,*,#927,.F.);
#927 = EDGE_CURVE('',#928,#930,#932,.T.);
#928 = VERTEX_POINT('',#929);
#929 = CARTESIAN_POINT('',(2.885315670623E-10,8.461538489072E-02,
    0.145384615511));
#930 = VERTEX_POINT('',#931);
#931 = CARTESIAN_POINT('',(7.692307718343E-02,8.461538489072E-02,
    0.145384615511));
#932 = SURFACE_CURVE('',#933,(#936),.PCURVE_S1.);
#933 = B_SPLINE_CURVE_WITH_KNOTS('',1,(#934,#935),.UNSPECIFIED.,.F.,.F.,
  (2,2),(0.,7.6923E-02),.PIECEWISE_BEZIER_KNOTS.);
#934 = CARTESIAN_POINT('',(2.885315670623E-10,8.461538489072E-02,
    0.145384615511));
#935 = CARTESIAN_POINT('',(7.692307718343E-02,8.461538489072E-02,
    0.145384615511));
#936 = PCURVE('',#937,#942);
#937 = B_SPLINE_SURFACE_WITH_KNOTS('',1,1,(
    (#938,#939)
    ,(#940,#941
    )),.UNSPECIFIED.,.F.,.F.,.F.,(2,2),(2,2),(-6.8846E-02,6.8846E-02),(
    0.,7.6923E-02),.PIECEWISE_BEZIER_KNOTS.);
#938 = CARTESIAN_POINT('',(2.885315670623E-10,8.461538489072E-02,
    0.145384615511));
#939 = CARTESIAN_POINT('',(7.692307718343E-02,8.461538489072E-02,
    0.145384615511));
#940 = CARTESIAN_POINT('',(2.885315670623E-10,8.461538489072E-02,
    7.69230789961E-03));
#941 = CARTESIAN_POINT('',(7.692307718343E-02,8.461538489072E-02,
    7.69230789961E-03));
#942 = DEFINITIONAL_REPRESENTATION('',(#943),#947);
#943 = LINE('',#944,#945);
#944 = CARTESIAN_POINT('',(-6.8846E-02,0.));
#945 = VECTOR('',#946,1.);
#946 = DIRECTION('',(0.,1.));
#947 = ( GEOMETRIC_REPRESENTATION_CONTEXT(2) 
PARAMETRIC_REPRESENTATION_CONTEXT() REPRESENTATION_CONTEXT('2D SPACE',''
  ) );
#948 = ORIENTED_EDGE('',*,*,#949,.T.);
#949 = EDGE_CURVE('',#928,#950,#952,.T.);
#950 = VERTEX_POINT('',#951);
#951 = CARTESIAN_POINT('',(2.885315670623E-10,8.461538489072E-02,
    7.69230789961E-03));
#952 = SURFACE_CURVE('',#953,(#956),.PCURVE_S1.);
#953 = B_SPLINE_CURVE_WITH_KNOTS('',1,(#954,#955),.UNSPECIFIED.,.F.,.F.,
  (2,2),(-6.8846E-02,6.8846E-02),.PIECEWISE_BEZIER_KNOTS.);
#954 = CARTESIAN_POINT('',(2.885315670623E-10,8.461538489072E-02,
    0.145384615511));
#955 = CARTESIAN_POINT('',(2.885315670623E-10,8.461538489072E-02,
    7.69230789961E-03));
#956 = PCURVE('',#937,#957);
#957 = DEFINITIONAL_REPRESENTATION('',(#958),#962);
#958 = LINE('',#959,#960);
#959 = CARTESIAN_POINT('',(0.,0.));
#960 = VECTOR('',#961,1.);
#961 = DIRECTION('',(1.,0.));
#962 = ( GEOMETRIC_REPRESENTATION_CONTEXT(2) 
PARAMETRIC_REPRESENTATION_CONTEXT() REPRESENTATION_CONTEXT('2D SPACE',''
  ) );
#963 = ORIENTED_EDGE('',*,*,#964,.T.);
#964 = EDGE_CURVE('',#950,#965,#967,.T.);
#965 = VERTEX_POINT('',#966);
#966 = CARTESIAN_POINT('',(7.692307718343E-02,8.461538489072E-02,
    7.69230789961E-03));
#967 = SURFACE_CURVE('',#968,(#971),.PCURVE_S1.);
#968 = B_SPLINE_CURVE_WITH_KNOTS('',1,(#969,#970),.UNSPECIFIED.,.F.,.F.,
  (2,2),(0.,7.6923E-02),.PIECEWISE_BEZIER_KNOTS.);
#969 = CARTESIAN_POINT('',(2.885315670623E-10,8.461538489072E-02,
    7.69230789961E-03));
#970 = CARTESIAN_POINT('',(7.692307718343E-02,8.461538489072E-02,
    7.69230789961E-03));
#971 = PCURVE('',#937,#972);
#972 = DEFINITIONAL_REPRESENTATION('',(#973),#977);
#973 = LINE('',#974,#975);
#974 = CARTESIAN_POINT('',(6.8846E-02,0.));
#975 = VECTOR('',#976,1.);
#976 = DIRECTION('',(0.,1.));
#977 = ( GEOMETRIC_REPRESENTATION_CONTEXT(2) 
PARAMETRIC_REPRESENTATION_CONTEXT() REPRESENTATION_CONTEXT('2D SPACE',''
  ) );
#978 = ORIENTED_EDGE('',*,*,#979,.F.);
#979 = EDGE_CURVE('',#930,#965,#980,.T.);
#980 = SURFACE_CURVE('',#981,(#984),.PCURVE_S1.);
#981 = B_SPLINE_CURVE_WITH_KNOTS('',1,(#982,#983),.UNSPECIFIED.,.F.,.F.,
  (2,2),(-6.8846E-02,6.8846E-02),.PIECEWISE_BEZIER_KNOTS.);
#982 = CARTESIAN_POINT('',(7.692307718343E-02,8.461538489072E-02,
    0.145384615511));
#983 = CARTESIAN_POINT('',(7.692307718343E-02,8.461538489072E-02,
    7.69230789961E-03));
#984 = PCURVE('',#937,#985);
#985 = DEFINITIONAL_REPRESENTATION('',(#986),#990);
#986 = LINE('',#987,#988);
#987 = CARTESIAN_POINT('',(0.,7.6923E-02));
#988 = VECTOR('',#989,1.);
#989 = DIRECTION('',(1.,0.));
#990 = ( GEOMETRIC_REPRESENTATION_CONTEXT(2) 
PARAMETRIC_REPRESENTATION_CONTEXT() REPRESENTATION_CONTEXT('2D SPACE',''
  ) );
#991 = ( GEOMETRIC_REPRESENTATION_CONTEXT(3) 
GLOBAL_UNCERTAINTY_ASSIGNED_CONTEXT((#995)) GLOBAL_UNIT_ASSIGNED_CONTEXT
((#992,#993,#994)) REPRESENTATION_CONTEXT('Context #1',
  '3D Context with UNIT and UNCERTAINTY') );
#992 = ( LENGTH_UNIT() NAMED_UNIT(*) SI_UNIT(.MILLI.,.METRE.) );
#993 = ( NAMED_UNIT(*) PLANE_ANGLE_UNIT() SI_UNIT($,.RADIAN.) );
#994 = ( NAMED_UNIT(*) SI_UNIT($,.STERADIAN.) SOLID_ANGLE_UNIT() );
#995 = UNCERTAINTY_MEASURE_WITH_UNIT(LENGTH_MEASURE(1.E-07),#992,
  'distance_accuracy_value','confusion accuracy');
#996 = CONTEXT_DEPENDENT_SHAPE_REPRESENTATION(#997,#999);
#997 = ( REPRESENTATION_RELATIONSHIP('','',#920,#10) 
REPRESENTATION_RELATIONSHIP_WITH_TRANSFORMATION(#998) 
SHAPE_REPRESENTATION_RELATIONSHIP() );
#998 = ITEM_DEFINED_TRANSFORMATION('','',#11,#47);
#999 = PRODUCT_DEFINITION_SHAPE('Placement','Placement of an item',#1000
  );
#1000 = NEXT_ASSEMBLY_USAGE_OCCURRENCE('9','','',#5,#915,$);
#1001 = PRODUCT_RELATED_PRODUCT_CATEGORY('part',$,(#917));
#1002 = SHAPE_DEFINITION_REPRESENTATION(#1003,#1009);
#1003 = PRODUCT_DEFINITION_SHAPE('','',#1004);
#1004 = PRODUCT_DEFINITION('design','',#1005,#1008);
#1005 = PRODUCT_DEFINITION_FORMATION('','',#1006);
#1006 = PRODUCT('Open CASCADE STEP translator 7.9 1.10',
  'Open CASCADE STEP translator 7.9 1.10','',(#1007));
#1007 = PRODUCT_CONTEXT('',#2,'mechanical');
#1008 = PRODUCT_DEFINITION_CONTEXT('part definition',#2,'design');
#1009 = MANIFOLD_SURFACE_SHAPE_REPRESENTATION('',(#11,#1010),#1080);
#1010 = SHELL_BASED_SURFACE_MODEL('',(#1011));
#1011 = OPEN_SHELL('',(#1012));
#1012 = ADVANCED_FACE('',(#1013),#1026,.T.);
#1013 = FACE_BOUND('',#1014,.T.);
#1014 = EDGE_LOOP('',(#1015,#1037,#1052,#1067));
#1015 = ORIENTED_EDGE('',*,*,#1016,.F.);
#1016 = EDGE_CURVE('',#1017,#1019,#1021,.T.);
#1017 = VERTEX_POINT('',#1018);
#1018 = CARTESIAN_POINT('',(7.692307718343E-02,8.461538489072E-02,
    0.145384615511));
#1019 = VERTEX_POINT('',#1020);
#1020 = CARTESIAN_POINT('',(7.692307718343E-02,0.22272727289,
    0.145384615511));
#1021 = SURFACE_CURVE('',#1022,(#1025),.PCURVE_S1.);
#1022 = B_SPLINE_CURVE_WITH_KNOTS('',1,(#1023,#1024),.UNSPECIFIED.,.F.,
  .F.,(2,2),(-6.9056E-02,6.9056E-02),.PIECEWISE_BEZIER_KNOTS.);
#1023 = CARTESIAN_POINT('',(7.692307718343E-02,8.461538489072E-02,
    0.145384615511));
#1024 = CARTESIAN_POINT('',(7.692307718343E-02,0.22272727289,
    0.145384615511));
#1025 = PCURVE('',#1026,#1031);
#1026 = B_SPLINE_SURFACE_WITH_KNOTS('',1,1,(
    (#1027,#1028)
    ,(#1029,#1030
    )),.UNSPECIFIED.,.F.,.F.,.F.,(2,2),(2,2),(0.,7.6923E-02),(
    -6.9056E-02,6.9056E-02),.PIECEWISE_BEZIER_KNOTS.);
#1027 = CARTESIAN_POINT('',(7.692307718343E-02,8.461538489072E-02,
    0.145384615511));
#1028 = CARTESIAN_POINT('',(7.692307718343E-02,0.22272727289,
    0.145384615511));
#1029 = CARTESIAN_POINT('',(2.885315597556E-10,8.461538489072E-02,
    0.145384615511));
#1030 = CARTESIAN_POINT('',(2.885315597556E-10,0.22272727289,
    0.145384615511));
#1031 = DEFINITIONAL_REPRESENTATION('',(#1032),#1036);
#1032 = LINE('',#1033,#1034);
#1033 = CARTESIAN_POINT('',(0.,0.));
#1034 = VECTOR('',#1035,1.);
#1035 = DIRECTION('',(0.,1.));
#1036 = ( GEOMETRIC_REPRESENTATION_CONTEXT(2) 
PARAMETRIC_REPRESENTATION_CONTEXT() REPRESENTATION_CONTEXT('2D SPACE',''
  ) );
#1037 = ORIENTED_EDGE('',*,*,#1038,.T.);
#1038 = EDGE_CURVE('',#1017,#1039,#1041,.T.);
#1039 = VERTEX_POINT('',#1040);
#1040 = CARTESIAN_POINT('',(2.885315597556E-10,8.461538489072E-02,
    0.145384615511));
#1041 = SURFACE_CURVE('',#1042,(#1045),.PCURVE_S1.);
#1042 = B_SPLINE_CURVE_WITH_KNOTS('',1,(#1043,#1044),.UNSPECIFIED.,.F.,
  .F.,(2,2),(0.,7.6923E-02),.PIECEWISE_BEZIER_KNOTS.);
#1043 = CARTESIAN_POINT('',(7.692307718343E-02,8.461538489072E-02,
    0.145384615511));
#1044 = CARTESIAN_POINT('',(2.885315597556E-10,8.461538489072E-02,
    0.145384615511));
#1045 = PCURVE('',#1026,#1046);
#1046 = DEFINITIONAL_REPRESENTATION('',(#1047),#1051);
#1047 = LINE('',#1048,#1049);
#1048 = CARTESIAN_POINT('',(0.,-6.9056E-02));
#1049 = VECTOR('',#1050,1.);
#1050 = DIRECTION('',(1.,0.));
#1051 = ( GEOMETRIC_REPRESENTATION_CONTEXT(2) 
PARAMETRIC_REPRESENTATION_CONTEXT() REPRESENTATION_CONTEXT('2D SPACE',''
  ) );
#1052 = ORIENTED_EDGE('',*,*,#1053,.T.);
#1053 = EDGE_CURVE('',#1039,#1054,#1056,.T.);
#1054 = VERTEX_POINT('',#1055);
#1055 = CARTESIAN_POINT('',(2.885315597556E-10,0.22272727289,
    0.145384615511));
#1056 = SURFACE_CURVE('',#1057,(#1060),.PCURVE_S1.);
#1057 = B_SPLINE_CURVE_WITH_KNOTS('',1,(#1058,#1059),.UNSPECIFIED.,.F.,
  .F.,(2,2),(-6.9056E-02,6.9056E-02),.PIECEWISE_BEZIER_KNOTS.);
#1058 = CARTESIAN_POINT('',(2.885315597556E-10,8.461538489072E-02,
    0.145384615511));
#1059 = CARTESIAN_POINT('',(2.885315597556E-10,0.22272727289,
    0.145384615511));
#1060 = PCURVE('',#1026,#1061);
#1061 = DEFINITIONAL_REPRESENTATION('',(#1062),#1066);
#1062 = LINE('',#1063,#1064);
#1063 = CARTESIAN_POINT('',(7.6923E-02,0.));
#1064 = VECTOR('',#1065,1.);
#1065 = DIRECTION('',(0.,1.));
#1066 = ( GEOMETRIC_REPRESENTATION_CONTEXT(2) 
PARAMETRIC_REPRESENTATION_CONTEXT() REPRESENTATION_CONTEXT('2D SPACE',''
  ) );
#1067 = ORIENTED_EDGE('',*,*,#1068,.F.);
#1068 = EDGE_CURVE('',#1019,#1054,#1069,.T.);
#1069 = SURFACE_CURVE('',#1070,(#1073),.PCURVE_S1.);
#1070 = B_SPLINE_CURVE_WITH_KNOTS('',1,(#1071,#1072),.UNSPECIFIED.,.F.,
  .F.,(2,2),(0.,7.6923E-02),.PIECEWISE_BEZIER_KNOTS.);
#1071 = CARTESIAN_POINT('',(7.692307718343E-02,0.22272727289,
    0.145384615511));
#1072 = CARTESIAN_POINT('',(2.885315597556E-10,0.22272727289,
    0.145384615511));
#1073 = PCURVE('',#1026,#1074);
#1074 = DEFINITIONAL_REPRESENTATION('',(#1075),#1079);
#1075 = LINE('',#1076,#1077);
#1076 = CARTESIAN_POINT('',(0.,6.9056E-02));
#1077 = VECTOR('',#1078,1.);
#1078 = DIRECTION('',(1.,0.));
#1079 = ( GEOMETRIC_REPRESENTATION_CONTEXT(2) 
PARAMETRIC_REPRESENTATION_CONTEXT() REPRESENTATION_CONTEXT('2D SPACE',''
  ) );
#1080 = ( GEOMETRIC_REPRESENTATION_CONTEXT(3) 
GLOBAL_UNCERTAINTY_ASSIGNED_CONTEXT((#1084)) 
GLOBAL_UNIT_ASSIGNED_CONTEXT((#1081,#1082,#1083)) REPRESENTATION_CONTEXT
('Context #1','3D Context with UNIT and UNCERTAINTY') );
#1081 = ( LENGTH_UNIT() NAMED_UNIT(*) SI_UNIT(.MILLI.,.METRE.) );
#1082 = ( NAMED_UNIT(*) PLANE_ANGLE_UNIT() SI_UNIT($,.RADIAN.) );
#1083 = ( NAMED_UNIT(*) SI_UNIT($,.STERADIAN.) SOLID_ANGLE_UNIT() );
#1084 = UNCERTAINTY_MEASURE_WITH_UNIT(LENGTH_MEASURE(1.E-07),#1081,
  'distance_accuracy_value','confusion accuracy');
#1085 = CONTEXT_DEPENDENT_SHAPE_REPRESENTATION(#1086,#1088);
#1086 = ( REPRESENTATION_RELATIONSHIP('','',#1009,#10) 
REPRESENTATION_RELATIONSHIP_WITH_TRANSFORMATION(#1087) 
SHAPE_REPRESENTATION_RELATIONSHIP() );
#1087 = ITEM_DEFINED_TRANSFORMATION('','',#11,#51);
#1088 = PRODUCT_DEFINITION_SHAPE('Placement','Placement of an item',
  #1089);
#1089 = NEXT_ASSEMBLY_USAGE_OCCURRENCE('10','','',#5,#1004,$);
#1090 = PRODUCT_RELATED_PRODUCT_CATEGORY('part',$,(#1006));
ENDSEC;
END-ISO-10303-21;
