solid 
 facet normal -1.000000e+00  0.000000e+00  0.000000e+00
   outer loop
     vertex  2.963021e-01  1.000713e-01  1.608314e-01
     vertex  2.963021e-01  1.002070e-01  1.608314e-01
     vertex  2.963021e-01  1.002070e-01  1.606956e-01
   endloop
 endfacet
 facet normal -1.000000e+00  0.000000e+00  0.000000e+00
   outer loop
     vertex  2.963021e-01  1.000713e-01  1.608314e-01
     vertex  2.963021e-01  1.002070e-01  1.606956e-01
     vertex  2.963021e-01  1.000713e-01  1.606956e-01
   endloop
 endfacet
 facet normal  1.000000e+00  0.000000e+00  0.000000e+00
   outer loop
     vertex  2.959026e-01  1.000713e-01  1.608314e-01
     vertex  2.959026e-01  1.000713e-01  1.606956e-01
     vertex  2.959026e-01  1.002070e-01  1.606956e-01
   endloop
 endfacet
 facet normal  1.000000e+00 -0.000000e+00  0.000000e+00
   outer loop
     vertex  2.959026e-01  1.000713e-01  1.608314e-01
     vertex  2.959026e-01  1.002070e-01  1.606956e-01
     vertex  2.959026e-01  1.002070e-01  1.608314e-01
   endloop
 endfacet
 facet normal  0.000000e+00  0.000000e+00  1.000000e+00
   outer loop
     vertex  2.963021e-01  1.002070e-01  1.606956e-01
     vertex  2.959026e-01  1.002070e-01  1.606956e-01
     vertex  2.959026e-01  1.000713e-01  1.606956e-01
   endloop
 endfacet
 facet normal  0.000000e+00  0.000000e+00  1.000000e+00
   outer loop
     vertex  2.963021e-01  1.002070e-01  1.606956e-01
     vertex  2.959026e-01  1.000713e-01  1.606956e-01
     vertex  2.963021e-01  1.000713e-01  1.606956e-01
   endloop
 endfacet
 facet normal  0.000000e+00 -0.000000e+00 -1.000000e+00
   outer loop
     vertex  2.963021e-01  1.002070e-01  1.608314e-01
     vertex  2.963021e-01  1.000713e-01  1.608314e-01
     vertex  2.959026e-01  1.000713e-01  1.608314e-01
   endloop
 endfacet
 facet normal -0.000000e+00  0.000000e+00 -1.000000e+00
   outer loop
     vertex  2.963021e-01  1.002070e-01  1.608314e-01
     vertex  2.959026e-01  1.000713e-01  1.608314e-01
     vertex  2.959026e-01  1.002070e-01  1.608314e-01
   endloop
 endfacet
 facet normal  0.000000e+00  1.000000e+00  0.000000e+00
   outer loop
     vertex  2.959026e-01  1.002070e-01  1.606956e-01
     vertex  2.959026e-01  1.002070e-01  1.608314e-01
     vertex  2.963021e-01  1.002070e-01  1.608314e-01
   endloop
 endfacet
 facet normal  0.000000e+00  1.000000e+00  0.000000e+00
   outer loop
     vertex  2.959026e-01  1.002070e-01  1.606956e-01
     vertex  2.963021e-01  1.002070e-01  1.608314e-01
     vertex  2.963021e-01  1.002070e-01  1.606956e-01
   endloop
 endfacet
 facet normal  0.000000e+00  1.000000e+00  0.000000e+00
   outer loop
     vertex  2.959026e-01  1.000713e-01  1.606956e-01
     vertex  2.959026e-01  1.000713e-01  1.608314e-01
     vertex  2.963021e-01  1.000713e-01  1.608314e-01
   endloop
 endfacet
 facet normal  0.000000e+00  1.000000e+00  0.000000e+00
   outer loop
     vertex  2.959026e-01  1.000713e-01  1.606956e-01
     vertex  2.963021e-01  1.000713e-01  1.608314e-01
     vertex  2.963021e-01  1.000713e-01  1.606956e-01
   endloop
 endfacet
endsolid
