ISO-10303-21;
HEADER;
FILE_DESCRIPTION(('Open CASCADE Model'),'2;1');
FILE_NAME('Open CASCADE Shape Model','2026-06-29T02:10:38',('Author'),(
    'Open CASCADE'),'Open CASCADE STEP processor 7.9','Open CASCADE 7.9'
  ,'Unknown');
FILE_SCHEMA(('AUTOMOTIVE_DESIGN { 1 0 10303 214 1 1 1 1 }'));
ENDSEC;
DATA;
#1 = APPLICATION_PROTOCOL_DEFINITION('international standard',
  'automotive_design',2000,#2);
#2 = APPLICATION_CONTEXT(
  'core data for automotive mechanical design processes');
#3 = SHAPE_DEFINITION_REPRESENTATION(#4,#10);
#4 = PRODUCT_DEFINITION_SHAPE('','',#5);
#5 = PRODUCT_DEFINITION('design','',#6,#9);
#6 = PRODUCT_DEFINITION_FORMATION('','',#7);
#7 = PRODUCT('Open CASCADE STEP translator 7.9 1',
  'Open CASCADE STEP translator 7.9 1','',(#8));
#8 = PRODUCT_CONTEXT('',#2,'mechanical');
#9 = PRODUCT_DEFINITION_CONTEXT('part definition',#2,'design');
#10 = SHAPE_REPRESENTATION('',(#11,#15,#19,#23),#27);
#11 = AXIS2_PLACEMENT_3D('',#12,#13,#14);
#12 = CARTESIAN_POINT('',(0.,0.,0.));
#13 = DIRECTION('',(0.,0.,1.));
#14 = DIRECTION('',(1.,0.,-0.));
#15 = AXIS2_PLACEMENT_3D('',#16,#17,#18);
#16 = CARTESIAN_POINT('',(0.,0.,0.));
#17 = DIRECTION('',(0.,0.,1.));
#18 = DIRECTION('',(1.,0.,-0.));
#19 = AXIS2_PLACEMENT_3D('',#20,#21,#22);
#20 = CARTESIAN_POINT('',(0.,0.,0.));
#21 = DIRECTION('',(0.,0.,1.));
#22 = DIRECTION('',(1.,0.,-0.));
#23 = AXIS2_PLACEMENT_3D('',#24,#25,#26);
#24 = CARTESIAN_POINT('',(0.,0.,0.));
#25 = DIRECTION('',(0.,0.,1.));
#26 = DIRECTION('',(1.,0.,-0.));
#27 = ( GEOMETRIC_REPRESENTATION_CONTEXT(3) 
GLOBAL_UNCERTAINTY_ASSIGNED_CONTEXT((#31)) GLOBAL_UNIT_ASSIGNED_CONTEXT(
(#28,#29,#30)) REPRESENTATION_CONTEXT('Context #1',
  '3D Context with UNIT and UNCERTAINTY') );
#28 = ( LENGTH_UNIT() NAMED_UNIT(*) SI_UNIT(.MILLI.,.METRE.) );
#29 = ( NAMED_UNIT(*) PLANE_ANGLE_UNIT() SI_UNIT($,.RADIAN.) );
#30 = ( NAMED_UNIT(*) SI_UNIT($,.STERADIAN.) SOLID_ANGLE_UNIT() );
#31 = UNCERTAINTY_MEASURE_WITH_UNIT(LENGTH_MEASURE(1.E-07),#28,
  'distance_accuracy_value','confusion accuracy');
#32 = PRODUCT_RELATED_PRODUCT_CATEGORY('part',$,(#7));
#33 = SHAPE_DEFINITION_REPRESENTATION(#34,#40);
#34 = PRODUCT_DEFINITION_SHAPE('','',#35);
#35 = PRODUCT_DEFINITION('design','',#36,#39);
#36 = PRODUCT_DEFINITION_FORMATION('','',#37);
#37 = PRODUCT('Open CASCADE STEP translator 7.9 1.1',
  'Open CASCADE STEP translator 7.9 1.1','',(#38));
#38 = PRODUCT_CONTEXT('',#2,'mechanical');
#39 = PRODUCT_DEFINITION_CONTEXT('part definition',#2,'design');
#40 = MANIFOLD_SURFACE_SHAPE_REPRESENTATION('',(#11,#41),#112);
#41 = SHELL_BASED_SURFACE_MODEL('',(#42));
#42 = OPEN_SHELL('',(#43));
#43 = ADVANCED_FACE('',(#44),#58,.T.);
#44 = FACE_BOUND('',#45,.T.);
#45 = EDGE_LOOP('',(#46,#93,#94));
#46 = ORIENTED_EDGE('',*,*,#47,.F.);
#47 = EDGE_CURVE('',#48,#50,#52,.T.);
#48 = VERTEX_POINT('',#49);
#49 = CARTESIAN_POINT('',(0.333333333552,0.999999999173,0.333333333552)
  );
#50 = VERTEX_POINT('',#51);
#51 = CARTESIAN_POINT('',(0.333333333552,0.666666666387,0.666666666339)
  );
#52 = SEAM_CURVE('',#53,(#57,#86),.PCURVE_S1.);
#53 = B_SPLINE_CURVE_WITH_KNOTS('',2,(#54,#55,#56),.UNSPECIFIED.,.F.,.F.
  ,(3,3),(-1.570796,0.),.PIECEWISE_BEZIER_KNOTS.);
#54 = CARTESIAN_POINT('',(0.333333333552,0.999999999173,0.333333333552)
  );
#55 = CARTESIAN_POINT('',(0.333333333552,0.999999999173,0.666666666339)
  );
#56 = CARTESIAN_POINT('',(0.333333333552,0.666666666387,0.666666666339)
  );
#57 = PCURVE('',#58,#80);
#58 = B_SPLINE_SURFACE_WITH_KNOTS('',2,2,(
    (#59,#60,#61)
    ,(#62,#63,#64)
    ,(#65,#66,#67)
    ,(#68,#69,#70)
    ,(#71,#72,#73)
    ,(#74,#75,#76)
    ,(#77,#78,#79
    )),.UNSPECIFIED.,.T.,.F.,.F.,(1,2,2,2,2,1),(3,3),(-2.094395,0.,
    2.094395,4.18879,6.283185,8.37758),(-1.570796,0.),.UNSPECIFIED.);
#59 = CARTESIAN_POINT('',(0.333333333552,0.999999999173,0.333333333552)
  );
#60 = CARTESIAN_POINT('',(0.333333333552,0.999999999173,0.666666666339)
  );
#61 = CARTESIAN_POINT('',(0.333333333552,0.666666666387,0.666666666339)
  );
#62 = CARTESIAN_POINT('',(0.333333333552,0.999999999173,0.333333333552)
  );
#63 = CARTESIAN_POINT('',(-0.244016934492,0.999999999173,0.666666666339)
  );
#64 = CARTESIAN_POINT('',(-0.244016934492,0.666666666387,0.666666666339)
  );
#65 = CARTESIAN_POINT('',(0.333333333552,0.999999999173,0.333333333552)
  );
#66 = CARTESIAN_POINT('',(4.465819952984E-02,0.999999999173,
    0.166666667159));
#67 = CARTESIAN_POINT('',(4.465819952984E-02,0.666666666387,
    0.166666667159));
#68 = CARTESIAN_POINT('',(0.333333333552,0.999999999173,0.333333333552)
  );
#69 = CARTESIAN_POINT('',(0.333333333552,0.999999999173,-0.333333332022)
  );
#70 = CARTESIAN_POINT('',(0.333333333552,0.666666666387,-0.333333332022)
  );
#71 = CARTESIAN_POINT('',(0.333333333552,0.999999999173,0.333333333552)
  );
#72 = CARTESIAN_POINT('',(0.622008467574,0.999999999173,0.166666667158)
  );
#73 = CARTESIAN_POINT('',(0.622008467574,0.666666666387,0.166666667158)
  );
#74 = CARTESIAN_POINT('',(0.333333333552,0.999999999173,0.333333333552)
  );
#75 = CARTESIAN_POINT('',(0.910683601596,0.999999999173,0.666666666339)
  );
#76 = CARTESIAN_POINT('',(0.910683601596,0.666666666387,0.666666666339)
  );
#77 = CARTESIAN_POINT('',(0.333333333552,0.999999999173,0.333333333552)
  );
#78 = CARTESIAN_POINT('',(0.333333333552,0.999999999173,0.666666666339)
  );
#79 = CARTESIAN_POINT('',(0.333333333552,0.666666666387,0.666666666339)
  );
#80 = DEFINITIONAL_REPRESENTATION('',(#81),#85);
#81 = LINE('',#82,#83);
#82 = CARTESIAN_POINT('',(0.,0.));
#83 = VECTOR('',#84,1.);
#84 = DIRECTION('',(0.,1.));
#85 = ( GEOMETRIC_REPRESENTATION_CONTEXT(2) 
PARAMETRIC_REPRESENTATION_CONTEXT() REPRESENTATION_CONTEXT('2D SPACE',''
  ) );
#86 = PCURVE('',#58,#87);
#87 = DEFINITIONAL_REPRESENTATION('',(#88),#92);
#88 = LINE('',#89,#90);
#89 = CARTESIAN_POINT('',(6.283185,0.));
#90 = VECTOR('',#91,1.);
#91 = DIRECTION('',(0.,1.));
#92 = ( GEOMETRIC_REPRESENTATION_CONTEXT(2) 
PARAMETRIC_REPRESENTATION_CONTEXT() REPRESENTATION_CONTEXT('2D SPACE',''
  ) );
#93 = ORIENTED_EDGE('',*,*,#47,.T.);
#94 = ORIENTED_EDGE('',*,*,#95,.F.);
#95 = EDGE_CURVE('',#50,#50,#96,.T.);
#96 = SURFACE_CURVE('',#97,(#105),.PCURVE_S1.);
#97 = B_SPLINE_CURVE_WITH_KNOTS('',2,(#98,#99,#100,#101,#102,#103,#104),
  .UNSPECIFIED.,.T.,.F.,(1,2,2,2,2,1),(-2.094395,0.,2.094395,4.18879,
    6.283185,8.37758),.UNSPECIFIED.);
#98 = CARTESIAN_POINT('',(0.333333333552,0.666666666387,0.666666666339)
  );
#99 = CARTESIAN_POINT('',(-0.244016934492,0.666666666387,0.666666666339)
  );
#100 = CARTESIAN_POINT('',(4.465819952984E-02,0.666666666387,
    0.166666667159));
#101 = CARTESIAN_POINT('',(0.333333333552,0.666666666387,-0.333333332022
    ));
#102 = CARTESIAN_POINT('',(0.622008467574,0.666666666387,0.166666667158)
  );
#103 = CARTESIAN_POINT('',(0.910683601596,0.666666666387,0.666666666339)
  );
#104 = CARTESIAN_POINT('',(0.333333333552,0.666666666387,0.666666666339)
  );
#105 = PCURVE('',#58,#106);
#106 = DEFINITIONAL_REPRESENTATION('',(#107),#111);
#107 = LINE('',#108,#109);
#108 = CARTESIAN_POINT('',(0.,0.));
#109 = VECTOR('',#110,1.);
#110 = DIRECTION('',(1.,0.));
#111 = ( GEOMETRIC_REPRESENTATION_CONTEXT(2) 
PARAMETRIC_REPRESENTATION_CONTEXT() REPRESENTATION_CONTEXT('2D SPACE',''
  ) );
#112 = ( GEOMETRIC_REPRESENTATION_CONTEXT(3) 
GLOBAL_UNCERTAINTY_ASSIGNED_CONTEXT((#116)) GLOBAL_UNIT_ASSIGNED_CONTEXT
((#113,#114,#115)) REPRESENTATION_CONTEXT('Context #1',
  '3D Context with UNIT and UNCERTAINTY') );
#113 = ( LENGTH_UNIT() NAMED_UNIT(*) SI_UNIT(.MILLI.,.METRE.) );
#114 = ( NAMED_UNIT(*) PLANE_ANGLE_UNIT() SI_UNIT($,.RADIAN.) );
#115 = ( NAMED_UNIT(*) SI_UNIT($,.STERADIAN.) SOLID_ANGLE_UNIT() );
#116 = UNCERTAINTY_MEASURE_WITH_UNIT(LENGTH_MEASURE(1.E-07),#113,
  'distance_accuracy_value','confusion accuracy');
#117 = CONTEXT_DEPENDENT_SHAPE_REPRESENTATION(#118,#120);
#118 = ( REPRESENTATION_RELATIONSHIP('','',#40,#10) 
REPRESENTATION_RELATIONSHIP_WITH_TRANSFORMATION(#119) 
SHAPE_REPRESENTATION_RELATIONSHIP() );
#119 = ITEM_DEFINED_TRANSFORMATION('','',#11,#15);
#120 = PRODUCT_DEFINITION_SHAPE('Placement','Placement of an item',#121
  );
#121 = NEXT_ASSEMBLY_USAGE_OCCURRENCE('1','','',#5,#35,$);
#122 = PRODUCT_RELATED_PRODUCT_CATEGORY('part',$,(#37));
#123 = SHAPE_DEFINITION_REPRESENTATION(#124,#130);
#124 = PRODUCT_DEFINITION_SHAPE('','',#125);
#125 = PRODUCT_DEFINITION('design','',#126,#129);
#126 = PRODUCT_DEFINITION_FORMATION('','',#127);
#127 = PRODUCT('Open CASCADE STEP translator 7.9 1.2',
  'Open CASCADE STEP translator 7.9 1.2','',(#128));
#128 = PRODUCT_CONTEXT('',#2,'mechanical');
#129 = PRODUCT_DEFINITION_CONTEXT('part definition',#2,'design');
#130 = MANIFOLD_SURFACE_SHAPE_REPRESENTATION('',(#11,#131),#212);
#131 = SHELL_BASED_SURFACE_MODEL('',(#132));
#132 = OPEN_SHELL('',(#133));
#133 = ADVANCED_FACE('',(#134),#147,.T.);
#134 = FACE_BOUND('',#135,.T.);
#135 = EDGE_LOOP('',(#136,#175,#193,#194));
#136 = ORIENTED_EDGE('',*,*,#137,.F.);
#137 = EDGE_CURVE('',#138,#140,#142,.T.);
#138 = VERTEX_POINT('',#139);
#139 = CARTESIAN_POINT('',(0.333333333552,0.666666666393,
    8.339999801876E-10));
#140 = VERTEX_POINT('',#141);
#141 = CARTESIAN_POINT('',(0.333333333552,0.333333333607,
    8.339999801876E-10));
#142 = SEAM_CURVE('',#143,(#146,#168),.PCURVE_S1.);
#143 = B_SPLINE_CURVE_WITH_KNOTS('',1,(#144,#145),.UNSPECIFIED.,.F.,.F.,
  (2,2),(-0.333333,0.),.PIECEWISE_BEZIER_KNOTS.);
#144 = CARTESIAN_POINT('',(0.333333333552,0.666666666393,
    8.339999801876E-10));
#145 = CARTESIAN_POINT('',(0.333333333552,0.333333333607,
    8.339999801876E-10));
#146 = PCURVE('',#147,#162);
#147 = ( BOUNDED_SURFACE() B_SPLINE_SURFACE(2,1,(
    (#148,#149)
    ,(#150,#151)
    ,(#152,#153)
    ,(#154,#155)
    ,(#156,#157)
    ,(#158,#159)
,(#160,#161
    )),.UNSPECIFIED.,.T.,.F.,.F.) B_SPLINE_SURFACE_WITH_KNOTS((1,2,2,2,2
    ,1),(2,2),(-2.094395,0.,2.094395,4.18879,6.283185,8.37758),(
-0.333333,0.),.UNSPECIFIED.) GEOMETRIC_REPRESENTATION_ITEM() 
RATIONAL_B_SPLINE_SURFACE((
    (1.,1.)
    ,(0.5,0.5)
    ,(1.,1.)
    ,(0.5,0.5)
    ,(1.,1.)
    ,(0.5,0.5)
,(1.,1.))) REPRESENTATION_ITEM('') SURFACE() );
#148 = CARTESIAN_POINT('',(0.333333333552,0.666666666393,
    8.339999801876E-10));
#149 = CARTESIAN_POINT('',(0.333333333552,0.333333333607,
    8.339999801876E-10));
#150 = CARTESIAN_POINT('',(0.910683601596,0.666666666393,
    8.339999801876E-10));
#151 = CARTESIAN_POINT('',(0.910683601596,0.333333333607,
    8.339999801876E-10));
#152 = CARTESIAN_POINT('',(0.622008467574,0.666666666393,0.500000000014)
  );
#153 = CARTESIAN_POINT('',(0.622008467574,0.333333333607,0.500000000014)
  );
#154 = CARTESIAN_POINT('',(0.333333333552,0.666666666393,0.999999999195)
  );
#155 = CARTESIAN_POINT('',(0.333333333552,0.333333333607,0.999999999195)
  );
#156 = CARTESIAN_POINT('',(4.465819952984E-02,0.666666666393,
    0.500000000015));
#157 = CARTESIAN_POINT('',(4.465819952984E-02,0.333333333607,
    0.500000000015));
#158 = CARTESIAN_POINT('',(-0.244016934492,0.666666666393,
    8.34000479788E-10));
#159 = CARTESIAN_POINT('',(-0.244016934492,0.333333333607,
    8.34000479788E-10));
#160 = CARTESIAN_POINT('',(0.333333333552,0.666666666393,
    8.339999801876E-10));
#161 = CARTESIAN_POINT('',(0.333333333552,0.333333333607,
    8.339999801876E-10));
#162 = DEFINITIONAL_REPRESENTATION('',(#163),#167);
#163 = LINE('',#164,#165);
#164 = CARTESIAN_POINT('',(0.,0.));
#165 = VECTOR('',#166,1.);
#166 = DIRECTION('',(0.,1.));
#167 = ( GEOMETRIC_REPRESENTATION_CONTEXT(2) 
PARAMETRIC_REPRESENTATION_CONTEXT() REPRESENTATION_CONTEXT('2D SPACE',''
  ) );
#168 = PCURVE('',#147,#169);
#169 = DEFINITIONAL_REPRESENTATION('',(#170),#174);
#170 = LINE('',#171,#172);
#171 = CARTESIAN_POINT('',(6.283185,0.));
#172 = VECTOR('',#173,1.);
#173 = DIRECTION('',(0.,1.));
#174 = ( GEOMETRIC_REPRESENTATION_CONTEXT(2) 
PARAMETRIC_REPRESENTATION_CONTEXT() REPRESENTATION_CONTEXT('2D SPACE',''
  ) );
#175 = ORIENTED_EDGE('',*,*,#176,.T.);
#176 = EDGE_CURVE('',#138,#138,#177,.T.);
#177 = SURFACE_CURVE('',#178,(#186),.PCURVE_S1.);
#178 = ( BOUNDED_CURVE() B_SPLINE_CURVE(2,(#179,#180,#181,#182,#183,#184
,#185),.UNSPECIFIED.,.T.,.F.) B_SPLINE_CURVE_WITH_KNOTS((1,2,2,2,2,1),(
-2.094395,0.,2.094395,4.18879,6.283185,8.37758),.UNSPECIFIED.) CURVE() 
GEOMETRIC_REPRESENTATION_ITEM() RATIONAL_B_SPLINE_CURVE((1.,0.5,1.,0.5,
1.,0.5,1.)) REPRESENTATION_ITEM('') );
#179 = CARTESIAN_POINT('',(0.333333333552,0.666666666393,
    8.339999801876E-10));
#180 = CARTESIAN_POINT('',(0.910683601596,0.666666666393,
    8.339999801876E-10));
#181 = CARTESIAN_POINT('',(0.622008467574,0.666666666393,0.500000000014)
  );
#182 = CARTESIAN_POINT('',(0.333333333552,0.666666666393,0.999999999195)
  );
#183 = CARTESIAN_POINT('',(4.465819952984E-02,0.666666666393,
    0.500000000015));
#184 = CARTESIAN_POINT('',(-0.244016934492,0.666666666393,
    8.34000479788E-10));
#185 = CARTESIAN_POINT('',(0.333333333552,0.666666666393,
    8.339999801876E-10));
#186 = PCURVE('',#147,#187);
#187 = DEFINITIONAL_REPRESENTATION('',(#188),#192);
#188 = LINE('',#189,#190);
#189 = CARTESIAN_POINT('',(0.,-0.333333));
#190 = VECTOR('',#191,1.);
#191 = DIRECTION('',(1.,0.));
#192 = ( GEOMETRIC_REPRESENTATION_CONTEXT(2) 
PARAMETRIC_REPRESENTATION_CONTEXT() REPRESENTATION_CONTEXT('2D SPACE',''
  ) );
#193 = ORIENTED_EDGE('',*,*,#137,.T.);
#194 = ORIENTED_EDGE('',*,*,#195,.F.);
#195 = EDGE_CURVE('',#140,#140,#196,.T.);
#196 = SURFACE_CURVE('',#197,(#205),.PCURVE_S1.);
#197 = ( BOUNDED_CURVE() B_SPLINE_CURVE(2,(#198,#199,#200,#201,#202,#203
,#204),.UNSPECIFIED.,.T.,.F.) B_SPLINE_CURVE_WITH_KNOTS((1,2,2,2,2,1),(
-2.094395,0.,2.094395,4.18879,6.283185,8.37758),.UNSPECIFIED.) CURVE() 
GEOMETRIC_REPRESENTATION_ITEM() RATIONAL_B_SPLINE_CURVE((1.,0.5,1.,0.5,
1.,0.5,1.)) REPRESENTATION_ITEM('') );
#198 = CARTESIAN_POINT('',(0.333333333552,0.333333333607,
    8.339999801876E-10));
#199 = CARTESIAN_POINT('',(0.910683601596,0.333333333607,
    8.339999801876E-10));
#200 = CARTESIAN_POINT('',(0.622008467574,0.333333333607,0.500000000014)
  );
#201 = CARTESIAN_POINT('',(0.333333333552,0.333333333607,0.999999999195)
  );
#202 = CARTESIAN_POINT('',(4.465819952984E-02,0.333333333607,
    0.500000000015));
#203 = CARTESIAN_POINT('',(-0.244016934492,0.333333333607,
    8.34000479788E-10));
#204 = CARTESIAN_POINT('',(0.333333333552,0.333333333607,
    8.339999801876E-10));
#205 = PCURVE('',#147,#206);
#206 = DEFINITIONAL_REPRESENTATION('',(#207),#211);
#207 = LINE('',#208,#209);
#208 = CARTESIAN_POINT('',(0.,0.));
#209 = VECTOR('',#210,1.);
#210 = DIRECTION('',(1.,0.));
#211 = ( GEOMETRIC_REPRESENTATION_CONTEXT(2) 
PARAMETRIC_REPRESENTATION_CONTEXT() REPRESENTATION_CONTEXT('2D SPACE',''
  ) );
#212 = ( GEOMETRIC_REPRESENTATION_CONTEXT(3) 
GLOBAL_UNCERTAINTY_ASSIGNED_CONTEXT((#216)) GLOBAL_UNIT_ASSIGNED_CONTEXT
((#213,#214,#215)) REPRESENTATION_CONTEXT('Context #1',
  '3D Context with UNIT and UNCERTAINTY') );
#213 = ( LENGTH_UNIT() NAMED_UNIT(*) SI_UNIT(.MILLI.,.METRE.) );
#214 = ( NAMED_UNIT(*) PLANE_ANGLE_UNIT() SI_UNIT($,.RADIAN.) );
#215 = ( NAMED_UNIT(*) SI_UNIT($,.STERADIAN.) SOLID_ANGLE_UNIT() );
#216 = UNCERTAINTY_MEASURE_WITH_UNIT(LENGTH_MEASURE(1.E-07),#213,
  'distance_accuracy_value','confusion accuracy');
#217 = CONTEXT_DEPENDENT_SHAPE_REPRESENTATION(#218,#220);
#218 = ( REPRESENTATION_RELATIONSHIP('','',#130,#10) 
REPRESENTATION_RELATIONSHIP_WITH_TRANSFORMATION(#219) 
SHAPE_REPRESENTATION_RELATIONSHIP() );
#219 = ITEM_DEFINED_TRANSFORMATION('','',#11,#19);
#220 = PRODUCT_DEFINITION_SHAPE('Placement','Placement of an item',#221
  );
#221 = NEXT_ASSEMBLY_USAGE_OCCURRENCE('2','','',#5,#125,$);
#222 = PRODUCT_RELATED_PRODUCT_CATEGORY('part',$,(#127));
#223 = SHAPE_DEFINITION_REPRESENTATION(#224,#230);
#224 = PRODUCT_DEFINITION_SHAPE('','',#225);
#225 = PRODUCT_DEFINITION('design','',#226,#229);
#226 = PRODUCT_DEFINITION_FORMATION('','',#227);
#227 = PRODUCT('Open CASCADE STEP translator 7.9 1.3',
  'Open CASCADE STEP translator 7.9 1.3','',(#228));
#228 = PRODUCT_CONTEXT('',#2,'mechanical');
#229 = PRODUCT_DEFINITION_CONTEXT('part definition',#2,'design');
#230 = MANIFOLD_SURFACE_SHAPE_REPRESENTATION('',(#11,#231),#260);
#231 = SHELL_BASED_SURFACE_MODEL('',(#232));
#232 = OPEN_SHELL('',(#233));
#233 = ADVANCED_FACE('',(#234),#249,.T.);
#234 = FACE_BOUND('',#235,.T.);
#235 = EDGE_LOOP('',(#236));
#236 = ORIENTED_EDGE('',*,*,#237,.F.);
#237 = EDGE_CURVE('',#238,#240,#242,.T.);
#238 = VERTEX_POINT('',#239);
#239 = CARTESIAN_POINT('',(0.333333,0.333333,0.666666));
#240 = VERTEX_POINT('',#241);
#241 = CARTESIAN_POINT('',(0.333332897607,0.333333,0.666666));
#242 = SURFACE_CURVE('',#243,(#248),.PCURVE_S1.);
#243 = CIRCLE('',#244,0.333333);
#244 = AXIS2_PLACEMENT_3D('',#245,#246,#247);
#245 = CARTESIAN_POINT('',(0.333333,0.333333,0.333333));
#246 = DIRECTION('',(0.,1.,0.));
#247 = DIRECTION('',(0.,-0.,1.));
#248 = PCURVE('',#249,#254);
#249 = PLANE('',#250);
#250 = AXIS2_PLACEMENT_3D('',#251,#252,#253);
#251 = CARTESIAN_POINT('',(0.333333,0.333333,0.333332990147));
#252 = DIRECTION('',(0.,1.,0.));
#253 = DIRECTION('',(0.,-0.,1.));
#254 = DEFINITIONAL_REPRESENTATION('',(#255),#259);
#255 = CIRCLE('',#256,0.333333);
#256 = AXIS2_PLACEMENT_2D('',#257,#258);
#257 = CARTESIAN_POINT('',(9.852781202024E-09,-1.498801083244E-15));
#258 = DIRECTION('',(1.,0.));
#259 = ( GEOMETRIC_REPRESENTATION_CONTEXT(2) 
PARAMETRIC_REPRESENTATION_CONTEXT() REPRESENTATION_CONTEXT('2D SPACE',''
  ) );
#260 = ( GEOMETRIC_REPRESENTATION_CONTEXT(3) 
GLOBAL_UNCERTAINTY_ASSIGNED_CONTEXT((#264)) GLOBAL_UNIT_ASSIGNED_CONTEXT
((#261,#262,#263)) REPRESENTATION_CONTEXT('Context #1',
  '3D Context with UNIT and UNCERTAINTY') );
#261 = ( LENGTH_UNIT() NAMED_UNIT(*) SI_UNIT(.MILLI.,.METRE.) );
#262 = ( NAMED_UNIT(*) PLANE_ANGLE_UNIT() SI_UNIT($,.RADIAN.) );
#263 = ( NAMED_UNIT(*) SI_UNIT($,.STERADIAN.) SOLID_ANGLE_UNIT() );
#264 = UNCERTAINTY_MEASURE_WITH_UNIT(LENGTH_MEASURE(1.E-07),#261,
  'distance_accuracy_value','confusion accuracy');
#265 = CONTEXT_DEPENDENT_SHAPE_REPRESENTATION(#266,#268);
#266 = ( REPRESENTATION_RELATIONSHIP('','',#230,#10) 
REPRESENTATION_RELATIONSHIP_WITH_TRANSFORMATION(#267) 
SHAPE_REPRESENTATION_RELATIONSHIP() );
#267 = ITEM_DEFINED_TRANSFORMATION('','',#11,#23);
#268 = PRODUCT_DEFINITION_SHAPE('Placement','Placement of an item',#269
  );
#269 = NEXT_ASSEMBLY_USAGE_OCCURRENCE('3','','',#5,#225,$);
#270 = PRODUCT_RELATED_PRODUCT_CATEGORY('part',$,(#227));
ENDSEC;
END-ISO-10303-21;
