solid 
 facet normal  0.000000e+00 -0.000000e+00  1.000000e+00
   outer loop
     vertex  1.135056e-01  5.098505e-01  1.524579e-01
     vertex  1.135056e-01  5.099863e-01  1.524579e-01
     vertex  1.133698e-01  5.099863e-01  1.524579e-01
   endloop
 endfacet
 facet normal  0.000000e+00  0.000000e+00  1.000000e+00
   outer loop
     vertex  1.135056e-01  5.098505e-01  1.524579e-01
     vertex  1.133698e-01  5.099863e-01  1.524579e-01
     vertex  1.133698e-01  5.098505e-01  1.524579e-01
   endloop
 endfacet
 facet normal  0.000000e+00 -0.000000e+00 -1.000000e+00
   outer loop
     vertex  1.135056e-01  5.101394e-01  1.467262e-01
     vertex  1.135056e-01  5.098505e-01  1.467262e-01
     vertex  1.133698e-01  5.098505e-01  1.467262e-01
   endloop
 endfacet
 facet normal -0.000000e+00  0.000000e+00 -1.000000e+00
   outer loop
     vertex  1.135056e-01  5.101394e-01  1.467262e-01
     vertex  1.133698e-01  5.098505e-01  1.467262e-01
     vertex  1.133698e-01  5.101394e-01  1.467262e-01
   endloop
 endfacet
 facet normal -1.000000e+00  0.000000e+00  0.000000e+00
   outer loop
     vertex  1.135056e-01  5.098505e-01  1.467262e-01
     vertex  1.135056e-01  5.098505e-01  1.469162e-01
     vertex  1.135056e-01  5.101394e-01  1.469162e-01
   endloop
 endfacet
 facet normal -1.000000e+00  0.000000e+00  0.000000e+00
   outer loop
     vertex  1.135056e-01  5.098505e-01  1.467262e-01
     vertex  1.135056e-01  5.101394e-01  1.469162e-01
     vertex  1.135056e-01  5.101394e-01  1.467262e-01
   endloop
 endfacet
 facet normal  0.000000e+00  0.000000e+00  1.000000e+00
   outer loop
     vertex  1.135056e-01  5.101394e-01  1.469162e-01
     vertex  1.133698e-01  5.101394e-01  1.469162e-01
     vertex  1.133698e-01  5.098505e-01  1.469162e-01
   endloop
 endfacet
 facet normal  0.000000e+00  0.000000e+00  1.000000e+00
   outer loop
     vertex  1.135056e-01  5.101394e-01  1.469162e-01
     vertex  1.133698e-01  5.098505e-01  1.469162e-01
     vertex  1.135056e-01  5.098505e-01  1.469162e-01
   endloop
 endfacet
 facet normal -0.000000e+00 -1.000000e+00  0.000000e+00
   outer loop
     vertex  1.135056e-01  5.101394e-01  1.524568e-01
     vertex  1.133698e-01  5.101394e-01  1.524568e-01
     vertex  1.133698e-01  5.101394e-01  1.467262e-01
   endloop
 endfacet
 facet normal  0.000000e+00 -1.000000e+00 -0.000000e+00
   outer loop
     vertex  1.135056e-01  5.101394e-01  1.524568e-01
     vertex  1.133698e-01  5.101394e-01  1.467262e-01
     vertex  1.135056e-01  5.101394e-01  1.467262e-01
   endloop
 endfacet
 facet normal  0.000000e+00  0.000000e+00  1.000000e+00
   outer loop
     vertex  1.135056e-01  5.101394e-01  1.467262e-01
     vertex  1.133698e-01  5.101394e-01  1.467262e-01
     vertex  1.133698e-01  5.098505e-01  1.467262e-01
   endloop
 endfacet
 facet normal  0.000000e+00  0.000000e+00  1.000000e+00
   outer loop
     vertex  1.135056e-01  5.101394e-01  1.467262e-01
     vertex  1.133698e-01  5.098505e-01  1.467262e-01
     vertex  1.135056e-01  5.098505e-01  1.467262e-01
   endloop
 endfacet
 facet normal -0.000000e+00 -1.000000e+00  0.000000e+00
   outer loop
     vertex  1.135056e-01  5.099863e-01  1.524579e-01
     vertex  1.133698e-01  5.099863e-01  1.524579e-01
     vertex  1.133698e-01  5.099863e-01  1.469162e-01
   endloop
 endfacet
 facet normal  0.000000e+00 -1.000000e+00 -0.000000e+00
   outer loop
     vertex  1.135056e-01  5.099863e-01  1.524579e-01
     vertex  1.133698e-01  5.099863e-01  1.469162e-01
     vertex  1.135056e-01  5.099863e-01  1.469162e-01
   endloop
 endfacet
 facet normal  0.000000e+00  0.000000e+00 -1.000000e+00
   outer loop
     vertex  1.133698e-01  5.099863e-01  1.467262e-01
     vertex  1.135056e-01  5.099863e-01  1.467262e-01
     vertex  1.135056e-01  5.098505e-01  1.467262e-01
   endloop
 endfacet
 facet normal  0.000000e+00  0.000000e+00 -1.000000e+00
   outer loop
     vertex  1.133698e-01  5.099863e-01  1.467262e-01
     vertex  1.135056e-01  5.098505e-01  1.467262e-01
     vertex  1.133698e-01  5.098505e-01  1.467262e-01
   endloop
 endfacet
endsolid
