ISO-10303-21;
HEADER;
FILE_DESCRIPTION(('Open CASCADE Model'),'2;1');
FILE_NAME('Open CASCADE Shape Model','2026-07-02T20:35:15',('Author'),(
    'Open CASCADE'),'Open CASCADE STEP processor 7.9','Open CASCADE 7.9'
  ,'Unknown');
FILE_SCHEMA(('AUTOMOTIVE_DESIGN { 1 0 10303 214 1 1 1 1 }'));
ENDSEC;
DATA;
#1 = APPLICATION_PROTOCOL_DEFINITION('international standard',
  'automotive_design',2000,#2);
#2 = APPLICATION_CONTEXT(
  'core data for automotive mechanical design processes');
#3 = SHAPE_DEFINITION_REPRESENTATION(#4,#10);
#4 = PRODUCT_DEFINITION_SHAPE('','',#5);
#5 = PRODUCT_DEFINITION('design','',#6,#9);
#6 = PRODUCT_DEFINITION_FORMATION('','',#7);
#7 = PRODUCT('Open CASCADE STEP translator 7.9 1',
  'Open CASCADE STEP translator 7.9 1','',(#8));
#8 = PRODUCT_CONTEXT('',#2,'mechanical');
#9 = PRODUCT_DEFINITION_CONTEXT('part definition',#2,'design');
#10 = SHAPE_REPRESENTATION('',(#11,#15,#19,#23,#27,#31,#35,#39,#43,#47,
    #51),#55);
#11 = AXIS2_PLACEMENT_3D('',#12,#13,#14);
#12 = CARTESIAN_POINT('',(0.,0.,0.));
#13 = DIRECTION('',(0.,0.,1.));
#14 = DIRECTION('',(1.,0.,-0.));
#15 = AXIS2_PLACEMENT_3D('',#16,#17,#18);
#16 = CARTESIAN_POINT('',(0.,0.,0.));
#17 = DIRECTION('',(0.,0.,1.));
#18 = DIRECTION('',(1.,0.,-0.));
#19 = AXIS2_PLACEMENT_3D('',#20,#21,#22);
#20 = CARTESIAN_POINT('',(0.,0.,0.));
#21 = DIRECTION('',(0.,0.,1.));
#22 = DIRECTION('',(1.,0.,-0.));
#23 = AXIS2_PLACEMENT_3D('',#24,#25,#26);
#24 = CARTESIAN_POINT('',(0.,0.,0.));
#25 = DIRECTION('',(0.,0.,1.));
#26 = DIRECTION('',(1.,0.,-0.));
#27 = AXIS2_PLACEMENT_3D('',#28,#29,#30);
#28 = CARTESIAN_POINT('',(0.,0.,0.));
#29 = DIRECTION('',(0.,0.,1.));
#30 = DIRECTION('',(1.,0.,-0.));
#31 = AXIS2_PLACEMENT_3D('',#32,#33,#34);
#32 = CARTESIAN_POINT('',(0.,0.,0.));
#33 = DIRECTION('',(0.,0.,1.));
#34 = DIRECTION('',(1.,0.,-0.));
#35 = AXIS2_PLACEMENT_3D('',#36,#37,#38);
#36 = CARTESIAN_POINT('',(0.,0.,0.));
#37 = DIRECTION('',(0.,0.,1.));
#38 = DIRECTION('',(1.,0.,-0.));
#39 = AXIS2_PLACEMENT_3D('',#40,#41,#42);
#40 = CARTESIAN_POINT('',(0.,0.,0.));
#41 = DIRECTION('',(0.,0.,1.));
#42 = DIRECTION('',(1.,0.,-0.));
#43 = AXIS2_PLACEMENT_3D('',#44,#45,#46);
#44 = CARTESIAN_POINT('',(0.,0.,0.));
#45 = DIRECTION('',(0.,0.,1.));
#46 = DIRECTION('',(1.,0.,-0.));
#47 = AXIS2_PLACEMENT_3D('',#48,#49,#50);
#48 = CARTESIAN_POINT('',(0.,0.,0.));
#49 = DIRECTION('',(0.,0.,1.));
#50 = DIRECTION('',(1.,0.,-0.));
#51 = AXIS2_PLACEMENT_3D('',#52,#53,#54);
#52 = CARTESIAN_POINT('',(0.,0.,0.));
#53 = DIRECTION('',(0.,0.,1.));
#54 = DIRECTION('',(1.,0.,-0.));
#55 = ( GEOMETRIC_REPRESENTATION_CONTEXT(3) 
GLOBAL_UNCERTAINTY_ASSIGNED_CONTEXT((#59)) GLOBAL_UNIT_ASSIGNED_CONTEXT(
(#56,#57,#58)) REPRESENTATION_CONTEXT('Context #1',
  '3D Context with UNIT and UNCERTAINTY') );
#56 = ( LENGTH_UNIT() NAMED_UNIT(*) SI_UNIT(.MILLI.,.METRE.) );
#57 = ( NAMED_UNIT(*) PLANE_ANGLE_UNIT() SI_UNIT($,.RADIAN.) );
#58 = ( NAMED_UNIT(*) SI_UNIT($,.STERADIAN.) SOLID_ANGLE_UNIT() );
#59 = UNCERTAINTY_MEASURE_WITH_UNIT(LENGTH_MEASURE(1.E-07),#56,
  'distance_accuracy_value','confusion accuracy');
#60 = PRODUCT_RELATED_PRODUCT_CATEGORY('part',$,(#7));
#61 = SHAPE_DEFINITION_REPRESENTATION(#62,#68);
#62 = PRODUCT_DEFINITION_SHAPE('','',#63);
#63 = PRODUCT_DEFINITION('design','',#64,#67);
#64 = PRODUCT_DEFINITION_FORMATION('','',#65);
#65 = PRODUCT('Open CASCADE STEP translator 7.9 1.1',
  'Open CASCADE STEP translator 7.9 1.1','',(#66));
#66 = PRODUCT_CONTEXT('',#2,'mechanical');
#67 = PRODUCT_DEFINITION_CONTEXT('part definition',#2,'design');
#68 = MANIFOLD_SURFACE_SHAPE_REPRESENTATION('',(#11,#69),#139);
#69 = SHELL_BASED_SURFACE_MODEL('',(#70));
#70 = OPEN_SHELL('',(#71));
#71 = ADVANCED_FACE('',(#72),#85,.T.);
#72 = FACE_BOUND('',#73,.T.);
#73 = EDGE_LOOP('',(#74,#96,#111,#126));
#74 = ORIENTED_EDGE('',*,*,#75,.F.);
#75 = EDGE_CURVE('',#76,#78,#80,.T.);
#76 = VERTEX_POINT('',#77);
#77 = CARTESIAN_POINT('',(0.113369820438,0.509986260313,0.15245787027));
#78 = VERTEX_POINT('',#79);
#79 = CARTESIAN_POINT('',(0.113505561347,0.509986260313,0.15245787027));
#80 = SURFACE_CURVE('',#81,(#84),.PCURVE_S1.);
#81 = B_SPLINE_CURVE_WITH_KNOTS('',1,(#82,#83),.UNSPECIFIED.,.F.,.F.,(2,
    2),(0.,1.36E-04),.PIECEWISE_BEZIER_KNOTS.);
#82 = CARTESIAN_POINT('',(0.113369820438,0.509986260313,0.15245787027));
#83 = CARTESIAN_POINT('',(0.113505561347,0.509986260313,0.15245787027));
#84 = PCURVE('',#85,#90);
#85 = B_SPLINE_SURFACE_WITH_KNOTS('',1,1,(
    (#86,#87)
    ,(#88,#89
    )),.UNSPECIFIED.,.F.,.F.,.F.,(2,2),(2,2),(0.,1.36E-04),(0.,1.36E-04)
  ,.PIECEWISE_BEZIER_KNOTS.);
#86 = CARTESIAN_POINT('',(0.113369820438,0.509986260313,0.15245787027));
#87 = CARTESIAN_POINT('',(0.113505561347,0.509986260313,0.15245787027));
#88 = CARTESIAN_POINT('',(0.113369820438,0.509850519404,0.15245787027));
#89 = CARTESIAN_POINT('',(0.113505561347,0.509850519404,0.15245787027));
#90 = DEFINITIONAL_REPRESENTATION('',(#91),#95);
#91 = LINE('',#92,#93);
#92 = CARTESIAN_POINT('',(0.,0.));
#93 = VECTOR('',#94,1.);
#94 = DIRECTION('',(0.,1.));
#95 = ( GEOMETRIC_REPRESENTATION_CONTEXT(2) 
PARAMETRIC_REPRESENTATION_CONTEXT() REPRESENTATION_CONTEXT('2D SPACE',''
  ) );
#96 = ORIENTED_EDGE('',*,*,#97,.T.);
#97 = EDGE_CURVE('',#76,#98,#100,.T.);
#98 = VERTEX_POINT('',#99);
#99 = CARTESIAN_POINT('',(0.113369820438,0.509850519404,0.15245787027));
#100 = SURFACE_CURVE('',#101,(#104),.PCURVE_S1.);
#101 = B_SPLINE_CURVE_WITH_KNOTS('',1,(#102,#103),.UNSPECIFIED.,.F.,.F.,
  (2,2),(0.,1.36E-04),.PIECEWISE_BEZIER_KNOTS.);
#102 = CARTESIAN_POINT('',(0.113369820438,0.509986260313,0.15245787027)
  );
#103 = CARTESIAN_POINT('',(0.113369820438,0.509850519404,0.15245787027)
  );
#104 = PCURVE('',#85,#105);
#105 = DEFINITIONAL_REPRESENTATION('',(#106),#110);
#106 = LINE('',#107,#108);
#107 = CARTESIAN_POINT('',(0.,0.));
#108 = VECTOR('',#109,1.);
#109 = DIRECTION('',(1.,0.));
#110 = ( GEOMETRIC_REPRESENTATION_CONTEXT(2) 
PARAMETRIC_REPRESENTATION_CONTEXT() REPRESENTATION_CONTEXT('2D SPACE',''
  ) );
#111 = ORIENTED_EDGE('',*,*,#112,.T.);
#112 = EDGE_CURVE('',#98,#113,#115,.T.);
#113 = VERTEX_POINT('',#114);
#114 = CARTESIAN_POINT('',(0.113505561347,0.509850519404,0.15245787027)
  );
#115 = SURFACE_CURVE('',#116,(#119),.PCURVE_S1.);
#116 = B_SPLINE_CURVE_WITH_KNOTS('',1,(#117,#118),.UNSPECIFIED.,.F.,.F.,
  (2,2),(0.,1.36E-04),.PIECEWISE_BEZIER_KNOTS.);
#117 = CARTESIAN_POINT('',(0.113369820438,0.509850519404,0.15245787027)
  );
#118 = CARTESIAN_POINT('',(0.113505561347,0.509850519404,0.15245787027)
  );
#119 = PCURVE('',#85,#120);
#120 = DEFINITIONAL_REPRESENTATION('',(#121),#125);
#121 = LINE('',#122,#123);
#122 = CARTESIAN_POINT('',(1.36E-04,0.));
#123 = VECTOR('',#124,1.);
#124 = DIRECTION('',(0.,1.));
#125 = ( GEOMETRIC_REPRESENTATION_CONTEXT(2) 
PARAMETRIC_REPRESENTATION_CONTEXT() REPRESENTATION_CONTEXT('2D SPACE',''
  ) );
#126 = ORIENTED_EDGE('',*,*,#127,.F.);
#127 = EDGE_CURVE('',#78,#113,#128,.T.);
#128 = SURFACE_CURVE('',#129,(#132),.PCURVE_S1.);
#129 = B_SPLINE_CURVE_WITH_KNOTS('',1,(#130,#131),.UNSPECIFIED.,.F.,.F.,
  (2,2),(0.,1.36E-04),.PIECEWISE_BEZIER_KNOTS.);
#130 = CARTESIAN_POINT('',(0.113505561347,0.509986260313,0.15245787027)
  );
#131 = CARTESIAN_POINT('',(0.113505561347,0.509850519404,0.15245787027)
  );
#132 = PCURVE('',#85,#133);
#133 = DEFINITIONAL_REPRESENTATION('',(#134),#138);
#134 = LINE('',#135,#136);
#135 = CARTESIAN_POINT('',(0.,1.36E-04));
#136 = VECTOR('',#137,1.);
#137 = DIRECTION('',(1.,0.));
#138 = ( GEOMETRIC_REPRESENTATION_CONTEXT(2) 
PARAMETRIC_REPRESENTATION_CONTEXT() REPRESENTATION_CONTEXT('2D SPACE',''
  ) );
#139 = ( GEOMETRIC_REPRESENTATION_CONTEXT(3) 
GLOBAL_UNCERTAINTY_ASSIGNED_CONTEXT((#143)) GLOBAL_UNIT_ASSIGNED_CONTEXT
((#140,#141,#142)) REPRESENTATION_CONTEXT('Context #1',
  '3D Context with UNIT and UNCERTAINTY') );
#140 = ( LENGTH_UNIT() NAMED_UNIT(*) SI_UNIT(.MILLI.,.METRE.) );
#141 = ( NAMED_UNIT(*) PLANE_ANGLE_UNIT() SI_UNIT($,.RADIAN.) );
#142 = ( NAMED_UNIT(*) SI_UNIT($,.STERADIAN.) SOLID_ANGLE_UNIT() );
#143 = UNCERTAINTY_MEASURE_WITH_UNIT(LENGTH_MEASURE(1.E-07),#140,
  'distance_accuracy_value','confusion accuracy');
#144 = CONTEXT_DEPENDENT_SHAPE_REPRESENTATION(#145,#147);
#145 = ( REPRESENTATION_RELATIONSHIP('','',#68,#10) 
REPRESENTATION_RELATIONSHIP_WITH_TRANSFORMATION(#146) 
SHAPE_REPRESENTATION_RELATIONSHIP() );
#146 = ITEM_DEFINED_TRANSFORMATION('','',#11,#15);
#147 = PRODUCT_DEFINITION_SHAPE('Placement','Placement of an item',#148
  );
#148 = NEXT_ASSEMBLY_USAGE_OCCURRENCE('1','','',#5,#63,$);
#149 = PRODUCT_RELATED_PRODUCT_CATEGORY('part',$,(#65));
#150 = SHAPE_DEFINITION_REPRESENTATION(#151,#157);
#151 = PRODUCT_DEFINITION_SHAPE('','',#152);
#152 = PRODUCT_DEFINITION('design','',#153,#156);
#153 = PRODUCT_DEFINITION_FORMATION('','',#154);
#154 = PRODUCT('Open CASCADE STEP translator 7.9 1.2',
  'Open CASCADE STEP translator 7.9 1.2','',(#155));
#155 = PRODUCT_CONTEXT('',#2,'mechanical');
#156 = PRODUCT_DEFINITION_CONTEXT('part definition',#2,'design');
#157 = MANIFOLD_SURFACE_SHAPE_REPRESENTATION('',(#11,#158),#228);
#158 = SHELL_BASED_SURFACE_MODEL('',(#159));
#159 = OPEN_SHELL('',(#160));
#160 = ADVANCED_FACE('',(#161),#174,.T.);
#161 = FACE_BOUND('',#162,.T.);
#162 = EDGE_LOOP('',(#163,#185,#200,#215));
#163 = ORIENTED_EDGE('',*,*,#164,.F.);
#164 = EDGE_CURVE('',#165,#167,#169,.T.);
#165 = VERTEX_POINT('',#166);
#166 = CARTESIAN_POINT('',(0.113369820438,0.509850519404,0.146726211556)
  );
#167 = VERTEX_POINT('',#168);
#168 = CARTESIAN_POINT('',(0.113505561347,0.509850519404,0.146726211556)
  );
#169 = SURFACE_CURVE('',#170,(#173),.PCURVE_S1.);
#170 = B_SPLINE_CURVE_WITH_KNOTS('',1,(#171,#172),.UNSPECIFIED.,.F.,.F.,
  (2,2),(0.,1.36E-04),.PIECEWISE_BEZIER_KNOTS.);
#171 = CARTESIAN_POINT('',(0.113369820438,0.509850519404,0.146726211556)
  );
#172 = CARTESIAN_POINT('',(0.113505561347,0.509850519404,0.146726211556)
  );
#173 = PCURVE('',#174,#179);
#174 = B_SPLINE_SURFACE_WITH_KNOTS('',1,1,(
    (#175,#176)
    ,(#177,#178
    )),.UNSPECIFIED.,.F.,.F.,.F.,(2,2),(2,2),(0.,2.89E-04),(0.,1.36E-04)
  ,.PIECEWISE_BEZIER_KNOTS.);
#175 = CARTESIAN_POINT('',(0.113369820438,0.509850519404,0.146726211556)
  );
#176 = CARTESIAN_POINT('',(0.113505561347,0.509850519404,0.146726211556)
  );
#177 = CARTESIAN_POINT('',(0.113369820438,0.510139374416,0.146726211556)
  );
#178 = CARTESIAN_POINT('',(0.113505561347,0.510139374416,0.146726211556)
  );
#179 = DEFINITIONAL_REPRESENTATION('',(#180),#184);
#180 = LINE('',#181,#182);
#181 = CARTESIAN_POINT('',(0.,0.));
#182 = VECTOR('',#183,1.);
#183 = DIRECTION('',(0.,1.));
#184 = ( GEOMETRIC_REPRESENTATION_CONTEXT(2) 
PARAMETRIC_REPRESENTATION_CONTEXT() REPRESENTATION_CONTEXT('2D SPACE',''
  ) );
#185 = ORIENTED_EDGE('',*,*,#186,.T.);
#186 = EDGE_CURVE('',#165,#187,#189,.T.);
#187 = VERTEX_POINT('',#188);
#188 = CARTESIAN_POINT('',(0.113369820438,0.510139374416,0.146726211556)
  );
#189 = SURFACE_CURVE('',#190,(#193),.PCURVE_S1.);
#190 = B_SPLINE_CURVE_WITH_KNOTS('',1,(#191,#192),.UNSPECIFIED.,.F.,.F.,
  (2,2),(0.,2.89E-04),.PIECEWISE_BEZIER_KNOTS.);
#191 = CARTESIAN_POINT('',(0.113369820438,0.509850519404,0.146726211556)
  );
#192 = CARTESIAN_POINT('',(0.113369820438,0.510139374416,0.146726211556)
  );
#193 = PCURVE('',#174,#194);
#194 = DEFINITIONAL_REPRESENTATION('',(#195),#199);
#195 = LINE('',#196,#197);
#196 = CARTESIAN_POINT('',(0.,0.));
#197 = VECTOR('',#198,1.);
#198 = DIRECTION('',(1.,0.));
#199 = ( GEOMETRIC_REPRESENTATION_CONTEXT(2) 
PARAMETRIC_REPRESENTATION_CONTEXT() REPRESENTATION_CONTEXT('2D SPACE',''
  ) );
#200 = ORIENTED_EDGE('',*,*,#201,.T.);
#201 = EDGE_CURVE('',#187,#202,#204,.T.);
#202 = VERTEX_POINT('',#203);
#203 = CARTESIAN_POINT('',(0.113505561347,0.510139374416,0.146726211556)
  );
#204 = SURFACE_CURVE('',#205,(#208),.PCURVE_S1.);
#205 = B_SPLINE_CURVE_WITH_KNOTS('',1,(#206,#207),.UNSPECIFIED.,.F.,.F.,
  (2,2),(0.,1.36E-04),.PIECEWISE_BEZIER_KNOTS.);
#206 = CARTESIAN_POINT('',(0.113369820438,0.510139374416,0.146726211556)
  );
#207 = CARTESIAN_POINT('',(0.113505561347,0.510139374416,0.146726211556)
  );
#208 = PCURVE('',#174,#209);
#209 = DEFINITIONAL_REPRESENTATION('',(#210),#214);
#210 = LINE('',#211,#212);
#211 = CARTESIAN_POINT('',(2.89E-04,0.));
#212 = VECTOR('',#213,1.);
#213 = DIRECTION('',(0.,1.));
#214 = ( GEOMETRIC_REPRESENTATION_CONTEXT(2) 
PARAMETRIC_REPRESENTATION_CONTEXT() REPRESENTATION_CONTEXT('2D SPACE',''
  ) );
#215 = ORIENTED_EDGE('',*,*,#216,.F.);
#216 = EDGE_CURVE('',#167,#202,#217,.T.);
#217 = SURFACE_CURVE('',#218,(#221),.PCURVE_S1.);
#218 = B_SPLINE_CURVE_WITH_KNOTS('',1,(#219,#220),.UNSPECIFIED.,.F.,.F.,
  (2,2),(0.,2.89E-04),.PIECEWISE_BEZIER_KNOTS.);
#219 = CARTESIAN_POINT('',(0.113505561347,0.509850519404,0.146726211556)
  );
#220 = CARTESIAN_POINT('',(0.113505561347,0.510139374416,0.146726211556)
  );
#221 = PCURVE('',#174,#222);
#222 = DEFINITIONAL_REPRESENTATION('',(#223),#227);
#223 = LINE('',#224,#225);
#224 = CARTESIAN_POINT('',(0.,1.36E-04));
#225 = VECTOR('',#226,1.);
#226 = DIRECTION('',(1.,0.));
#227 = ( GEOMETRIC_REPRESENTATION_CONTEXT(2) 
PARAMETRIC_REPRESENTATION_CONTEXT() REPRESENTATION_CONTEXT('2D SPACE',''
  ) );
#228 = ( GEOMETRIC_REPRESENTATION_CONTEXT(3) 
GLOBAL_UNCERTAINTY_ASSIGNED_CONTEXT((#232)) GLOBAL_UNIT_ASSIGNED_CONTEXT
((#229,#230,#231)) REPRESENTATION_CONTEXT('Context #1',
  '3D Context with UNIT and UNCERTAINTY') );
#229 = ( LENGTH_UNIT() NAMED_UNIT(*) SI_UNIT(.MILLI.,.METRE.) );
#230 = ( NAMED_UNIT(*) PLANE_ANGLE_UNIT() SI_UNIT($,.RADIAN.) );
#231 = ( NAMED_UNIT(*) SI_UNIT($,.STERADIAN.) SOLID_ANGLE_UNIT() );
#232 = UNCERTAINTY_MEASURE_WITH_UNIT(LENGTH_MEASURE(1.E-07),#229,
  'distance_accuracy_value','confusion accuracy');
#233 = CONTEXT_DEPENDENT_SHAPE_REPRESENTATION(#234,#236);
#234 = ( REPRESENTATION_RELATIONSHIP('','',#157,#10) 
REPRESENTATION_RELATIONSHIP_WITH_TRANSFORMATION(#235) 
SHAPE_REPRESENTATION_RELATIONSHIP() );
#235 = ITEM_DEFINED_TRANSFORMATION('','',#11,#19);
#236 = PRODUCT_DEFINITION_SHAPE('Placement','Placement of an item',#237
  );
#237 = NEXT_ASSEMBLY_USAGE_OCCURRENCE('2','','',#5,#152,$);
#238 = PRODUCT_RELATED_PRODUCT_CATEGORY('part',$,(#154));
#239 = SHAPE_DEFINITION_REPRESENTATION(#240,#246);
#240 = PRODUCT_DEFINITION_SHAPE('','',#241);
#241 = PRODUCT_DEFINITION('design','',#242,#245);
#242 = PRODUCT_DEFINITION_FORMATION('','',#243);
#243 = PRODUCT('Open CASCADE STEP translator 7.9 1.3',
  'Open CASCADE STEP translator 7.9 1.3','',(#244));
#244 = PRODUCT_CONTEXT('',#2,'mechanical');
#245 = PRODUCT_DEFINITION_CONTEXT('part definition',#2,'design');
#246 = MANIFOLD_SURFACE_SHAPE_REPRESENTATION('',(#11,#247),#313);
#247 = SHELL_BASED_SURFACE_MODEL('',(#248));
#248 = OPEN_SHELL('',(#249));
#249 = ADVANCED_FACE('',(#250),#263,.T.);
#250 = FACE_BOUND('',#251,.T.);
#251 = EDGE_LOOP('',(#252,#273,#287,#301));
#252 = ORIENTED_EDGE('',*,*,#253,.T.);
#253 = EDGE_CURVE('',#254,#256,#258,.T.);
#254 = VERTEX_POINT('',#255);
#255 = CARTESIAN_POINT('',(0.113505561347,0.509850519404,0.146726211556)
  );
#256 = VERTEX_POINT('',#257);
#257 = CARTESIAN_POINT('',(0.113505561347,0.509850519404,0.14691616041)
  );
#258 = SURFACE_CURVE('',#259,(#262),.PCURVE_S1.);
#259 = B_SPLINE_CURVE_WITH_KNOTS('',1,(#260,#261),.UNSPECIFIED.,.F.,.F.,
  (2,2),(0.,1.),.PIECEWISE_BEZIER_KNOTS.);
#260 = CARTESIAN_POINT('',(0.113505561347,0.509850519404,0.146726211556)
  );
#261 = CARTESIAN_POINT('',(0.113505561347,0.509850519404,0.14691616041)
  );
#262 = PCURVE('',#263,#268);
#263 = PLANE('',#264);
#264 = AXIS2_PLACEMENT_3D('',#265,#266,#267);
#265 = CARTESIAN_POINT('',(0.113505561347,0.50999494691,0.146821185983)
  );
#266 = DIRECTION('',(-1.,-0.,-0.));
#267 = DIRECTION('',(0.,0.,-1.));
#268 = DEFINITIONAL_REPRESENTATION('',(#269),#272);
#269 = B_SPLINE_CURVE_WITH_KNOTS('',1,(#270,#271),.UNSPECIFIED.,.F.,.F.,
  (2,2),(0.,1.),.PIECEWISE_BEZIER_KNOTS.);
#270 = CARTESIAN_POINT('',(9.497442699999E-05,1.44427506E-04));
#271 = CARTESIAN_POINT('',(-9.497442700002E-05,1.44427506E-04));
#272 = ( GEOMETRIC_REPRESENTATION_CONTEXT(2) 
PARAMETRIC_REPRESENTATION_CONTEXT() REPRESENTATION_CONTEXT('2D SPACE',''
  ) );
#273 = ORIENTED_EDGE('',*,*,#274,.T.);
#274 = EDGE_CURVE('',#256,#275,#277,.T.);
#275 = VERTEX_POINT('',#276);
#276 = CARTESIAN_POINT('',(0.113505561347,0.510139374416,0.14691616041)
  );
#277 = SURFACE_CURVE('',#278,(#281),.PCURVE_S1.);
#278 = B_SPLINE_CURVE_WITH_KNOTS('',1,(#279,#280),.UNSPECIFIED.,.F.,.F.,
  (2,2),(0.,1.),.PIECEWISE_BEZIER_KNOTS.);
#279 = CARTESIAN_POINT('',(0.113505561347,0.509850519404,0.14691616041)
  );
#280 = CARTESIAN_POINT('',(0.113505561347,0.510139374416,0.14691616041)
  );
#281 = PCURVE('',#263,#282);
#282 = DEFINITIONAL_REPRESENTATION('',(#283),#286);
#283 = B_SPLINE_CURVE_WITH_KNOTS('',1,(#284,#285),.UNSPECIFIED.,.F.,.F.,
  (2,2),(0.,1.),.PIECEWISE_BEZIER_KNOTS.);
#284 = CARTESIAN_POINT('',(-9.497442700002E-05,1.44427506E-04));
#285 = CARTESIAN_POINT('',(-9.497442700002E-05,-1.44427506E-04));
#286 = ( GEOMETRIC_REPRESENTATION_CONTEXT(2) 
PARAMETRIC_REPRESENTATION_CONTEXT() REPRESENTATION_CONTEXT('2D SPACE',''
  ) );
#287 = ORIENTED_EDGE('',*,*,#288,.T.);
#288 = EDGE_CURVE('',#275,#289,#291,.T.);
#289 = VERTEX_POINT('',#290);
#290 = CARTESIAN_POINT('',(0.113505561347,0.510139374416,0.146726211556)
  );
#291 = SURFACE_CURVE('',#292,(#295),.PCURVE_S1.);
#292 = B_SPLINE_CURVE_WITH_KNOTS('',1,(#293,#294),.UNSPECIFIED.,.F.,.F.,
  (2,2),(0.,1.),.PIECEWISE_BEZIER_KNOTS.);
#293 = CARTESIAN_POINT('',(0.113505561347,0.510139374416,0.14691616041)
  );
#294 = CARTESIAN_POINT('',(0.113505561347,0.510139374416,0.146726211556)
  );
#295 = PCURVE('',#263,#296);
#296 = DEFINITIONAL_REPRESENTATION('',(#297),#300);
#297 = B_SPLINE_CURVE_WITH_KNOTS('',1,(#298,#299),.UNSPECIFIED.,.F.,.F.,
  (2,2),(0.,1.),.PIECEWISE_BEZIER_KNOTS.);
#298 = CARTESIAN_POINT('',(-9.497442700002E-05,-1.444275060001E-04));
#299 = CARTESIAN_POINT('',(9.497442699999E-05,-1.444275060001E-04));
#300 = ( GEOMETRIC_REPRESENTATION_CONTEXT(2) 
PARAMETRIC_REPRESENTATION_CONTEXT() REPRESENTATION_CONTEXT('2D SPACE',''
  ) );
#301 = ORIENTED_EDGE('',*,*,#302,.T.);
#302 = EDGE_CURVE('',#289,#254,#303,.T.);
#303 = SURFACE_CURVE('',#304,(#307),.PCURVE_S1.);
#304 = B_SPLINE_CURVE_WITH_KNOTS('',1,(#305,#306),.UNSPECIFIED.,.F.,.F.,
  (2,2),(0.,1.),.PIECEWISE_BEZIER_KNOTS.);
#305 = CARTESIAN_POINT('',(0.113505561347,0.510139374416,0.146726211556)
  );
#306 = CARTESIAN_POINT('',(0.113505561347,0.509850519404,0.146726211556)
  );
#307 = PCURVE('',#263,#308);
#308 = DEFINITIONAL_REPRESENTATION('',(#309),#312);
#309 = B_SPLINE_CURVE_WITH_KNOTS('',1,(#310,#311),.UNSPECIFIED.,.F.,.F.,
  (2,2),(0.,1.),.PIECEWISE_BEZIER_KNOTS.);
#310 = CARTESIAN_POINT('',(9.497442699999E-05,-1.444275060001E-04));
#311 = CARTESIAN_POINT('',(9.497442699999E-05,1.44427506E-04));
#312 = ( GEOMETRIC_REPRESENTATION_CONTEXT(2) 
PARAMETRIC_REPRESENTATION_CONTEXT() REPRESENTATION_CONTEXT('2D SPACE',''
  ) );
#313 = ( GEOMETRIC_REPRESENTATION_CONTEXT(3) 
GLOBAL_UNCERTAINTY_ASSIGNED_CONTEXT((#317)) GLOBAL_UNIT_ASSIGNED_CONTEXT
((#314,#315,#316)) REPRESENTATION_CONTEXT('Context #1',
  '3D Context with UNIT and UNCERTAINTY') );
#314 = ( LENGTH_UNIT() NAMED_UNIT(*) SI_UNIT(.MILLI.,.METRE.) );
#315 = ( NAMED_UNIT(*) PLANE_ANGLE_UNIT() SI_UNIT($,.RADIAN.) );
#316 = ( NAMED_UNIT(*) SI_UNIT($,.STERADIAN.) SOLID_ANGLE_UNIT() );
#317 = UNCERTAINTY_MEASURE_WITH_UNIT(LENGTH_MEASURE(1.E-07),#314,
  'distance_accuracy_value','confusion accuracy');
#318 = CONTEXT_DEPENDENT_SHAPE_REPRESENTATION(#319,#321);
#319 = ( REPRESENTATION_RELATIONSHIP('','',#246,#10) 
REPRESENTATION_RELATIONSHIP_WITH_TRANSFORMATION(#320) 
SHAPE_REPRESENTATION_RELATIONSHIP() );
#320 = ITEM_DEFINED_TRANSFORMATION('','',#11,#23);
#321 = PRODUCT_DEFINITION_SHAPE('Placement','Placement of an item',#322
  );
#322 = NEXT_ASSEMBLY_USAGE_OCCURRENCE('3','','',#5,#241,$);
#323 = PRODUCT_RELATED_PRODUCT_CATEGORY('part',$,(#243));
#324 = SHAPE_DEFINITION_REPRESENTATION(#325,#331);
#325 = PRODUCT_DEFINITION_SHAPE('','',#326);
#326 = PRODUCT_DEFINITION('design','',#327,#330);
#327 = PRODUCT_DEFINITION_FORMATION('','',#328);
#328 = PRODUCT('Open CASCADE STEP translator 7.9 1.4',
  'Open CASCADE STEP translator 7.9 1.4','',(#329));
#329 = PRODUCT_CONTEXT('',#2,'mechanical');
#330 = PRODUCT_DEFINITION_CONTEXT('part definition',#2,'design');
#331 = MANIFOLD_SURFACE_SHAPE_REPRESENTATION('',(#11,#332),#402);
#332 = SHELL_BASED_SURFACE_MODEL('',(#333));
#333 = OPEN_SHELL('',(#334));
#334 = ADVANCED_FACE('',(#335),#348,.T.);
#335 = FACE_BOUND('',#336,.T.);
#336 = EDGE_LOOP('',(#337,#359,#374,#389));
#337 = ORIENTED_EDGE('',*,*,#338,.F.);
#338 = EDGE_CURVE('',#339,#341,#343,.T.);
#339 = VERTEX_POINT('',#340);
#340 = CARTESIAN_POINT('',(0.113369820438,0.509850519404,0.14691616041)
  );
#341 = VERTEX_POINT('',#342);
#342 = CARTESIAN_POINT('',(0.113369820438,0.510139374416,0.14691616041)
  );
#343 = SURFACE_CURVE('',#344,(#347),.PCURVE_S1.);
#344 = B_SPLINE_CURVE_WITH_KNOTS('',1,(#345,#346),.UNSPECIFIED.,.F.,.F.,
  (2,2),(0.,2.89E-04),.PIECEWISE_BEZIER_KNOTS.);
#345 = CARTESIAN_POINT('',(0.113369820438,0.509850519404,0.14691616041)
  );
#346 = CARTESIAN_POINT('',(0.113369820438,0.510139374416,0.14691616041)
  );
#347 = PCURVE('',#348,#353);
#348 = B_SPLINE_SURFACE_WITH_KNOTS('',1,1,(
    (#349,#350)
    ,(#351,#352
    )),.UNSPECIFIED.,.F.,.F.,.F.,(2,2),(2,2),(0.,1.36E-04),(0.,2.89E-04)
  ,.PIECEWISE_BEZIER_KNOTS.);
#349 = CARTESIAN_POINT('',(0.113369820438,0.509850519404,0.14691616041)
  );
#350 = CARTESIAN_POINT('',(0.113369820438,0.510139374416,0.14691616041)
  );
#351 = CARTESIAN_POINT('',(0.113505561347,0.509850519404,0.14691616041)
  );
#352 = CARTESIAN_POINT('',(0.113505561347,0.510139374416,0.14691616041)
  );
#353 = DEFINITIONAL_REPRESENTATION('',(#354),#358);
#354 = LINE('',#355,#356);
#355 = CARTESIAN_POINT('',(0.,0.));
#356 = VECTOR('',#357,1.);
#357 = DIRECTION('',(0.,1.));
#358 = ( GEOMETRIC_REPRESENTATION_CONTEXT(2) 
PARAMETRIC_REPRESENTATION_CONTEXT() REPRESENTATION_CONTEXT('2D SPACE',''
  ) );
#359 = ORIENTED_EDGE('',*,*,#360,.T.);
#360 = EDGE_CURVE('',#339,#361,#363,.T.);
#361 = VERTEX_POINT('',#362);
#362 = CARTESIAN_POINT('',(0.113505561347,0.509850519404,0.14691616041)
  );
#363 = SURFACE_CURVE('',#364,(#367),.PCURVE_S1.);
#364 = B_SPLINE_CURVE_WITH_KNOTS('',1,(#365,#366),.UNSPECIFIED.,.F.,.F.,
  (2,2),(0.,1.36E-04),.PIECEWISE_BEZIER_KNOTS.);
#365 = CARTESIAN_POINT('',(0.113369820438,0.509850519404,0.14691616041)
  );
#366 = CARTESIAN_POINT('',(0.113505561347,0.509850519404,0.14691616041)
  );
#367 = PCURVE('',#348,#368);
#368 = DEFINITIONAL_REPRESENTATION('',(#369),#373);
#369 = LINE('',#370,#371);
#370 = CARTESIAN_POINT('',(0.,0.));
#371 = VECTOR('',#372,1.);
#372 = DIRECTION('',(1.,0.));
#373 = ( GEOMETRIC_REPRESENTATION_CONTEXT(2) 
PARAMETRIC_REPRESENTATION_CONTEXT() REPRESENTATION_CONTEXT('2D SPACE',''
  ) );
#374 = ORIENTED_EDGE('',*,*,#375,.T.);
#375 = EDGE_CURVE('',#361,#376,#378,.T.);
#376 = VERTEX_POINT('',#377);
#377 = CARTESIAN_POINT('',(0.113505561347,0.510139374416,0.14691616041)
  );
#378 = SURFACE_CURVE('',#379,(#382),.PCURVE_S1.);
#379 = B_SPLINE_CURVE_WITH_KNOTS('',1,(#380,#381),.UNSPECIFIED.,.F.,.F.,
  (2,2),(0.,2.89E-04),.PIECEWISE_BEZIER_KNOTS.);
#380 = CARTESIAN_POINT('',(0.113505561347,0.509850519404,0.14691616041)
  );
#381 = CARTESIAN_POINT('',(0.113505561347,0.510139374416,0.14691616041)
  );
#382 = PCURVE('',#348,#383);
#383 = DEFINITIONAL_REPRESENTATION('',(#384),#388);
#384 = LINE('',#385,#386);
#385 = CARTESIAN_POINT('',(1.36E-04,0.));
#386 = VECTOR('',#387,1.);
#387 = DIRECTION('',(0.,1.));
#388 = ( GEOMETRIC_REPRESENTATION_CONTEXT(2) 
PARAMETRIC_REPRESENTATION_CONTEXT() REPRESENTATION_CONTEXT('2D SPACE',''
  ) );
#389 = ORIENTED_EDGE('',*,*,#390,.F.);
#390 = EDGE_CURVE('',#341,#376,#391,.T.);
#391 = SURFACE_CURVE('',#392,(#395),.PCURVE_S1.);
#392 = B_SPLINE_CURVE_WITH_KNOTS('',1,(#393,#394),.UNSPECIFIED.,.F.,.F.,
  (2,2),(0.,1.36E-04),.PIECEWISE_BEZIER_KNOTS.);
#393 = CARTESIAN_POINT('',(0.113369820438,0.510139374416,0.14691616041)
  );
#394 = CARTESIAN_POINT('',(0.113505561347,0.510139374416,0.14691616041)
  );
#395 = PCURVE('',#348,#396);
#396 = DEFINITIONAL_REPRESENTATION('',(#397),#401);
#397 = LINE('',#398,#399);
#398 = CARTESIAN_POINT('',(0.,2.89E-04));
#399 = VECTOR('',#400,1.);
#400 = DIRECTION('',(1.,0.));
#401 = ( GEOMETRIC_REPRESENTATION_CONTEXT(2) 
PARAMETRIC_REPRESENTATION_CONTEXT() REPRESENTATION_CONTEXT('2D SPACE',''
  ) );
#402 = ( GEOMETRIC_REPRESENTATION_CONTEXT(3) 
GLOBAL_UNCERTAINTY_ASSIGNED_CONTEXT((#406)) GLOBAL_UNIT_ASSIGNED_CONTEXT
((#403,#404,#405)) REPRESENTATION_CONTEXT('Context #1',
  '3D Context with UNIT and UNCERTAINTY') );
#403 = ( LENGTH_UNIT() NAMED_UNIT(*) SI_UNIT(.MILLI.,.METRE.) );
#404 = ( NAMED_UNIT(*) PLANE_ANGLE_UNIT() SI_UNIT($,.RADIAN.) );
#405 = ( NAMED_UNIT(*) SI_UNIT($,.STERADIAN.) SOLID_ANGLE_UNIT() );
#406 = UNCERTAINTY_MEASURE_WITH_UNIT(LENGTH_MEASURE(1.E-07),#403,
  'distance_accuracy_value','confusion accuracy');
#407 = CONTEXT_DEPENDENT_SHAPE_REPRESENTATION(#408,#410);
#408 = ( REPRESENTATION_RELATIONSHIP('','',#331,#10) 
REPRESENTATION_RELATIONSHIP_WITH_TRANSFORMATION(#409) 
SHAPE_REPRESENTATION_RELATIONSHIP() );
#409 = ITEM_DEFINED_TRANSFORMATION('','',#11,#27);
#410 = PRODUCT_DEFINITION_SHAPE('Placement','Placement of an item',#411
  );
#411 = NEXT_ASSEMBLY_USAGE_OCCURRENCE('4','','',#5,#326,$);
#412 = PRODUCT_RELATED_PRODUCT_CATEGORY('part',$,(#328));
#413 = SHAPE_DEFINITION_REPRESENTATION(#414,#420);
#414 = PRODUCT_DEFINITION_SHAPE('','',#415);
#415 = PRODUCT_DEFINITION('design','',#416,#419);
#416 = PRODUCT_DEFINITION_FORMATION('','',#417);
#417 = PRODUCT('Open CASCADE STEP translator 7.9 1.5',
  'Open CASCADE STEP translator 7.9 1.5','',(#418));
#418 = PRODUCT_CONTEXT('',#2,'mechanical');
#419 = PRODUCT_DEFINITION_CONTEXT('part definition',#2,'design');
#420 = MANIFOLD_SURFACE_SHAPE_REPRESENTATION('',(#11,#421),#517);
#421 = SHELL_BASED_SURFACE_MODEL('',(#422));
#422 = OPEN_SHELL('',(#423));
#423 = ADVANCED_FACE('',(#424),#437,.T.);
#424 = FACE_BOUND('',#425,.T.);
#425 = EDGE_LOOP('',(#426,#447,#461,#475,#489,#503));
#426 = ORIENTED_EDGE('',*,*,#427,.F.);
#427 = EDGE_CURVE('',#428,#430,#432,.T.);
#428 = VERTEX_POINT('',#429);
#429 = CARTESIAN_POINT('',(0.113369820438,0.510139374416,0.146726211556)
  );
#430 = VERTEX_POINT('',#431);
#431 = CARTESIAN_POINT('',(0.113369820438,0.510139374416,0.152456829356)
  );
#432 = SURFACE_CURVE('',#433,(#436),.PCURVE_S1.);
#433 = B_SPLINE_CURVE_WITH_KNOTS('',1,(#434,#435),.UNSPECIFIED.,.F.,.F.,
  (2,2),(0.,1.),.PIECEWISE_BEZIER_KNOTS.);
#434 = CARTESIAN_POINT('',(0.113369820438,0.510139374416,0.146726211556)
  );
#435 = CARTESIAN_POINT('',(0.113369820438,0.510139374416,0.152456829356)
  );
#436 = PCURVE('',#437,#442);
#437 = PLANE('',#438);
#438 = AXIS2_PLACEMENT_3D('',#439,#440,#441);
#439 = CARTESIAN_POINT('',(0.113369820438,0.509992200364,0.149573545783)
  );
#440 = DIRECTION('',(1.,0.,0.));
#441 = DIRECTION('',(-0.,0.,1.));
#442 = DEFINITIONAL_REPRESENTATION('',(#443),#446);
#443 = B_SPLINE_CURVE_WITH_KNOTS('',1,(#444,#445),.UNSPECIFIED.,.F.,.F.,
  (2,2),(0.,1.),.PIECEWISE_BEZIER_KNOTS.);
#444 = CARTESIAN_POINT('',(-2.847334227262E-03,-1.471740519398E-04));
#445 = CARTESIAN_POINT('',(2.883283572738E-03,-1.471740519398E-04));
#446 = ( GEOMETRIC_REPRESENTATION_CONTEXT(2) 
PARAMETRIC_REPRESENTATION_CONTEXT() REPRESENTATION_CONTEXT('2D SPACE',''
  ) );
#447 = ORIENTED_EDGE('',*,*,#448,.F.);
#448 = EDGE_CURVE('',#449,#428,#451,.T.);
#449 = VERTEX_POINT('',#450);
#450 = CARTESIAN_POINT('',(0.113369820438,0.509850519404,0.146726211556)
  );
#451 = SURFACE_CURVE('',#452,(#455),.PCURVE_S1.);
#452 = B_SPLINE_CURVE_WITH_KNOTS('',1,(#453,#454),.UNSPECIFIED.,.F.,.F.,
  (2,2),(0.,1.),.PIECEWISE_BEZIER_KNOTS.);
#453 = CARTESIAN_POINT('',(0.113369820438,0.509850519404,0.146726211556)
  );
#454 = CARTESIAN_POINT('',(0.113369820438,0.510139374416,0.146726211556)
  );
#455 = PCURVE('',#437,#456);
#456 = DEFINITIONAL_REPRESENTATION('',(#457),#460);
#457 = B_SPLINE_CURVE_WITH_KNOTS('',1,(#458,#459),.UNSPECIFIED.,.F.,.F.,
  (2,2),(0.,1.),.PIECEWISE_BEZIER_KNOTS.);
#458 = CARTESIAN_POINT('',(-2.847334227262E-03,1.416809600603E-04));
#459 = CARTESIAN_POINT('',(-2.847334227262E-03,-1.471740519396E-04));
#460 = ( GEOMETRIC_REPRESENTATION_CONTEXT(2) 
PARAMETRIC_REPRESENTATION_CONTEXT() REPRESENTATION_CONTEXT('2D SPACE',''
  ) );
#461 = ORIENTED_EDGE('',*,*,#462,.F.);
#462 = EDGE_CURVE('',#463,#449,#465,.T.);
#463 = VERTEX_POINT('',#464);
#464 = CARTESIAN_POINT('',(0.113369820438,0.509850519404,0.15245787027)
  );
#465 = SURFACE_CURVE('',#466,(#469),.PCURVE_S1.);
#466 = B_SPLINE_CURVE_WITH_KNOTS('',1,(#467,#468),.UNSPECIFIED.,.F.,.F.,
  (2,2),(0.,1.),.PIECEWISE_BEZIER_KNOTS.);
#467 = CARTESIAN_POINT('',(0.113369820438,0.509850519404,0.15245787027)
  );
#468 = CARTESIAN_POINT('',(0.113369820438,0.509850519404,0.146726211556)
  );
#469 = PCURVE('',#437,#470);
#470 = DEFINITIONAL_REPRESENTATION('',(#471),#474);
#471 = B_SPLINE_CURVE_WITH_KNOTS('',1,(#472,#473),.UNSPECIFIED.,.F.,.F.,
  (2,2),(0.,1.),.PIECEWISE_BEZIER_KNOTS.);
#472 = CARTESIAN_POINT('',(2.884324486738E-03,1.416809600603E-04));
#473 = CARTESIAN_POINT('',(-2.847334227262E-03,1.416809600603E-04));
#474 = ( GEOMETRIC_REPRESENTATION_CONTEXT(2) 
PARAMETRIC_REPRESENTATION_CONTEXT() REPRESENTATION_CONTEXT('2D SPACE',''
  ) );
#475 = ORIENTED_EDGE('',*,*,#476,.F.);
#476 = EDGE_CURVE('',#477,#463,#479,.T.);
#477 = VERTEX_POINT('',#478);
#478 = CARTESIAN_POINT('',(0.113369820438,0.509986260313,0.15245787027)
  );
#479 = SURFACE_CURVE('',#480,(#483),.PCURVE_S1.);
#480 = B_SPLINE_CURVE_WITH_KNOTS('',1,(#481,#482),.UNSPECIFIED.,.F.,.F.,
  (2,2),(0.,1.),.PIECEWISE_BEZIER_KNOTS.);
#481 = CARTESIAN_POINT('',(0.113369820438,0.509986260313,0.15245787027)
  );
#482 = CARTESIAN_POINT('',(0.113369820438,0.509850519404,0.15245787027)
  );
#483 = PCURVE('',#437,#484);
#484 = DEFINITIONAL_REPRESENTATION('',(#485),#488);
#485 = B_SPLINE_CURVE_WITH_KNOTS('',1,(#486,#487),.UNSPECIFIED.,.F.,.F.,
  (2,2),(0.,1.),.PIECEWISE_BEZIER_KNOTS.);
#486 = CARTESIAN_POINT('',(2.884324486738E-03,5.940051060249E-06));
#487 = CARTESIAN_POINT('',(2.884324486738E-03,1.416809600603E-04));
#488 = ( GEOMETRIC_REPRESENTATION_CONTEXT(2) 
PARAMETRIC_REPRESENTATION_CONTEXT() REPRESENTATION_CONTEXT('2D SPACE',''
  ) );
#489 = ORIENTED_EDGE('',*,*,#490,.F.);
#490 = EDGE_CURVE('',#491,#477,#493,.T.);
#491 = VERTEX_POINT('',#492);
#492 = CARTESIAN_POINT('',(0.113369820438,0.509986260313,0.14691616041)
  );
#493 = SURFACE_CURVE('',#494,(#497),.PCURVE_S1.);
#494 = B_SPLINE_CURVE_WITH_KNOTS('',1,(#495,#496),.UNSPECIFIED.,.F.,.F.,
  (2,2),(0.,1.),.PIECEWISE_BEZIER_KNOTS.);
#495 = CARTESIAN_POINT('',(0.113369820438,0.509986260313,0.14691616041)
  );
#496 = CARTESIAN_POINT('',(0.113369820438,0.509986260313,0.15245787027)
  );
#497 = PCURVE('',#437,#498);
#498 = DEFINITIONAL_REPRESENTATION('',(#499),#502);
#499 = B_SPLINE_CURVE_WITH_KNOTS('',1,(#500,#501),.UNSPECIFIED.,.F.,.F.,
  (2,2),(0.,1.),.PIECEWISE_BEZIER_KNOTS.);
#500 = CARTESIAN_POINT('',(-2.657385373262E-03,5.940051060249E-06));
#501 = CARTESIAN_POINT('',(2.884324486738E-03,5.940051060249E-06));
#502 = ( GEOMETRIC_REPRESENTATION_CONTEXT(2) 
PARAMETRIC_REPRESENTATION_CONTEXT() REPRESENTATION_CONTEXT('2D SPACE',''
  ) );
#503 = ORIENTED_EDGE('',*,*,#504,.F.);
#504 = EDGE_CURVE('',#505,#491,#507,.T.);
#505 = VERTEX_POINT('',#506);
#506 = CARTESIAN_POINT('',(0.113369820438,0.510139374416,0.14691616041)
  );
#507 = SURFACE_CURVE('',#508,(#511),.PCURVE_S1.);
#508 = B_SPLINE_CURVE_WITH_KNOTS('',1,(#509,#510),.UNSPECIFIED.,.F.,.F.,
  (2,2),(0.,1.),.PIECEWISE_BEZIER_KNOTS.);
#509 = CARTESIAN_POINT('',(0.113369820438,0.510139374416,0.14691616041)
  );
#510 = CARTESIAN_POINT('',(0.113369820438,0.509986260313,0.14691616041)
  );
#511 = PCURVE('',#437,#512);
#512 = DEFINITIONAL_REPRESENTATION('',(#513),#516);
#513 = B_SPLINE_CURVE_WITH_KNOTS('',1,(#514,#515),.UNSPECIFIED.,.F.,.F.,
  (2,2),(0.,1.),.PIECEWISE_BEZIER_KNOTS.);
#514 = CARTESIAN_POINT('',(-2.657385373262E-03,-1.471740519398E-04));
#515 = CARTESIAN_POINT('',(-2.657385373262E-03,5.940051060249E-06));
#516 = ( GEOMETRIC_REPRESENTATION_CONTEXT(2) 
PARAMETRIC_REPRESENTATION_CONTEXT() REPRESENTATION_CONTEXT('2D SPACE',''
  ) );
#517 = ( GEOMETRIC_REPRESENTATION_CONTEXT(3) 
GLOBAL_UNCERTAINTY_ASSIGNED_CONTEXT((#521)) GLOBAL_UNIT_ASSIGNED_CONTEXT
((#518,#519,#520)) REPRESENTATION_CONTEXT('Context #1',
  '3D Context with UNIT and UNCERTAINTY') );
#518 = ( LENGTH_UNIT() NAMED_UNIT(*) SI_UNIT(.MILLI.,.METRE.) );
#519 = ( NAMED_UNIT(*) PLANE_ANGLE_UNIT() SI_UNIT($,.RADIAN.) );
#520 = ( NAMED_UNIT(*) SI_UNIT($,.STERADIAN.) SOLID_ANGLE_UNIT() );
#521 = UNCERTAINTY_MEASURE_WITH_UNIT(LENGTH_MEASURE(1.E-07),#518,
  'distance_accuracy_value','confusion accuracy');
#522 = CONTEXT_DEPENDENT_SHAPE_REPRESENTATION(#523,#525);
#523 = ( REPRESENTATION_RELATIONSHIP('','',#420,#10) 
REPRESENTATION_RELATIONSHIP_WITH_TRANSFORMATION(#524) 
SHAPE_REPRESENTATION_RELATIONSHIP() );
#524 = ITEM_DEFINED_TRANSFORMATION('','',#11,#31);
#525 = PRODUCT_DEFINITION_SHAPE('Placement','Placement of an item',#526
  );
#526 = NEXT_ASSEMBLY_USAGE_OCCURRENCE('5','','',#5,#415,$);
#527 = PRODUCT_RELATED_PRODUCT_CATEGORY('part',$,(#417));
#528 = SHAPE_DEFINITION_REPRESENTATION(#529,#535);
#529 = PRODUCT_DEFINITION_SHAPE('','',#530);
#530 = PRODUCT_DEFINITION('design','',#531,#534);
#531 = PRODUCT_DEFINITION_FORMATION('','',#532);
#532 = PRODUCT('Open CASCADE STEP translator 7.9 1.6',
  'Open CASCADE STEP translator 7.9 1.6','',(#533));
#533 = PRODUCT_CONTEXT('',#2,'mechanical');
#534 = PRODUCT_DEFINITION_CONTEXT('part definition',#2,'design');
#535 = MANIFOLD_SURFACE_SHAPE_REPRESENTATION('',(#11,#536),#606);
#536 = SHELL_BASED_SURFACE_MODEL('',(#537));
#537 = OPEN_SHELL('',(#538));
#538 = ADVANCED_FACE('',(#539),#552,.T.);
#539 = FACE_BOUND('',#540,.T.);
#540 = EDGE_LOOP('',(#541,#563,#578,#593));
#541 = ORIENTED_EDGE('',*,*,#542,.F.);
#542 = EDGE_CURVE('',#543,#545,#547,.T.);
#543 = VERTEX_POINT('',#544);
#544 = CARTESIAN_POINT('',(0.113369820438,0.510139374416,0.146726211556)
  );
#545 = VERTEX_POINT('',#546);
#546 = CARTESIAN_POINT('',(0.113369820438,0.510139374416,0.152456829356)
  );
#547 = SURFACE_CURVE('',#548,(#551),.PCURVE_S1.);
#548 = B_SPLINE_CURVE_WITH_KNOTS('',1,(#549,#550),.UNSPECIFIED.,.F.,.F.,
  (2,2),(0.,5.731E-03),.PIECEWISE_BEZIER_KNOTS.);
#549 = CARTESIAN_POINT('',(0.113369820438,0.510139374416,0.146726211556)
  );
#550 = CARTESIAN_POINT('',(0.113369820438,0.510139374416,0.152456829356)
  );
#551 = PCURVE('',#552,#557);
#552 = B_SPLINE_SURFACE_WITH_KNOTS('',1,1,(
    (#553,#554)
    ,(#555,#556
    )),.UNSPECIFIED.,.F.,.F.,.F.,(2,2),(2,2),(0.,1.36E-04),(0.,5.731E-03
    ),.PIECEWISE_BEZIER_KNOTS.);
#553 = CARTESIAN_POINT('',(0.113369820438,0.510139374416,0.146726211556)
  );
#554 = CARTESIAN_POINT('',(0.113369820438,0.510139374416,0.152456829356)
  );
#555 = CARTESIAN_POINT('',(0.113505561347,0.510139374416,0.146726211556)
  );
#556 = CARTESIAN_POINT('',(0.113505561347,0.510139374416,0.152456829356)
  );
#557 = DEFINITIONAL_REPRESENTATION('',(#558),#562);
#558 = LINE('',#559,#560);
#559 = CARTESIAN_POINT('',(0.,0.));
#560 = VECTOR('',#561,1.);
#561 = DIRECTION('',(0.,1.));
#562 = ( GEOMETRIC_REPRESENTATION_CONTEXT(2) 
PARAMETRIC_REPRESENTATION_CONTEXT() REPRESENTATION_CONTEXT('2D SPACE',''
  ) );
#563 = ORIENTED_EDGE('',*,*,#564,.T.);
#564 = EDGE_CURVE('',#543,#565,#567,.T.);
#565 = VERTEX_POINT('',#566);
#566 = CARTESIAN_POINT('',(0.113505561347,0.510139374416,0.146726211556)
  );
#567 = SURFACE_CURVE('',#568,(#571),.PCURVE_S1.);
#568 = B_SPLINE_CURVE_WITH_KNOTS('',1,(#569,#570),.UNSPECIFIED.,.F.,.F.,
  (2,2),(0.,1.36E-04),.PIECEWISE_BEZIER_KNOTS.);
#569 = CARTESIAN_POINT('',(0.113369820438,0.510139374416,0.146726211556)
  );
#570 = CARTESIAN_POINT('',(0.113505561347,0.510139374416,0.146726211556)
  );
#571 = PCURVE('',#552,#572);
#572 = DEFINITIONAL_REPRESENTATION('',(#573),#577);
#573 = LINE('',#574,#575);
#574 = CARTESIAN_POINT('',(0.,0.));
#575 = VECTOR('',#576,1.);
#576 = DIRECTION('',(1.,0.));
#577 = ( GEOMETRIC_REPRESENTATION_CONTEXT(2) 
PARAMETRIC_REPRESENTATION_CONTEXT() REPRESENTATION_CONTEXT('2D SPACE',''
  ) );
#578 = ORIENTED_EDGE('',*,*,#579,.T.);
#579 = EDGE_CURVE('',#565,#580,#582,.T.);
#580 = VERTEX_POINT('',#581);
#581 = CARTESIAN_POINT('',(0.113505561347,0.510139374416,0.152456829356)
  );
#582 = SURFACE_CURVE('',#583,(#586),.PCURVE_S1.);
#583 = B_SPLINE_CURVE_WITH_KNOTS('',1,(#584,#585),.UNSPECIFIED.,.F.,.F.,
  (2,2),(0.,5.731E-03),.PIECEWISE_BEZIER_KNOTS.);
#584 = CARTESIAN_POINT('',(0.113505561347,0.510139374416,0.146726211556)
  );
#585 = CARTESIAN_POINT('',(0.113505561347,0.510139374416,0.152456829356)
  );
#586 = PCURVE('',#552,#587);
#587 = DEFINITIONAL_REPRESENTATION('',(#588),#592);
#588 = LINE('',#589,#590);
#589 = CARTESIAN_POINT('',(1.36E-04,0.));
#590 = VECTOR('',#591,1.);
#591 = DIRECTION('',(0.,1.));
#592 = ( GEOMETRIC_REPRESENTATION_CONTEXT(2) 
PARAMETRIC_REPRESENTATION_CONTEXT() REPRESENTATION_CONTEXT('2D SPACE',''
  ) );
#593 = ORIENTED_EDGE('',*,*,#594,.F.);
#594 = EDGE_CURVE('',#545,#580,#595,.T.);
#595 = SURFACE_CURVE('',#596,(#599),.PCURVE_S1.);
#596 = B_SPLINE_CURVE_WITH_KNOTS('',1,(#597,#598),.UNSPECIFIED.,.F.,.F.,
  (2,2),(0.,1.36E-04),.PIECEWISE_BEZIER_KNOTS.);
#597 = CARTESIAN_POINT('',(0.113369820438,0.510139374416,0.152456829356)
  );
#598 = CARTESIAN_POINT('',(0.113505561347,0.510139374416,0.152456829356)
  );
#599 = PCURVE('',#552,#600);
#600 = DEFINITIONAL_REPRESENTATION('',(#601),#605);
#601 = LINE('',#602,#603);
#602 = CARTESIAN_POINT('',(0.,5.731E-03));
#603 = VECTOR('',#604,1.);
#604 = DIRECTION('',(1.,0.));
#605 = ( GEOMETRIC_REPRESENTATION_CONTEXT(2) 
PARAMETRIC_REPRESENTATION_CONTEXT() REPRESENTATION_CONTEXT('2D SPACE',''
  ) );
#606 = ( GEOMETRIC_REPRESENTATION_CONTEXT(3) 
GLOBAL_UNCERTAINTY_ASSIGNED_CONTEXT((#610)) GLOBAL_UNIT_ASSIGNED_CONTEXT
((#607,#608,#609)) REPRESENTATION_CONTEXT('Context #1',
  '3D Context with UNIT and UNCERTAINTY') );
#607 = ( LENGTH_UNIT() NAMED_UNIT(*) SI_UNIT(.MILLI.,.METRE.) );
#608 = ( NAMED_UNIT(*) PLANE_ANGLE_UNIT() SI_UNIT($,.RADIAN.) );
#609 = ( NAMED_UNIT(*) SI_UNIT($,.STERADIAN.) SOLID_ANGLE_UNIT() );
#610 = UNCERTAINTY_MEASURE_WITH_UNIT(LENGTH_MEASURE(1.E-07),#607,
  'distance_accuracy_value','confusion accuracy');
#611 = CONTEXT_DEPENDENT_SHAPE_REPRESENTATION(#612,#614);
#612 = ( REPRESENTATION_RELATIONSHIP('','',#535,#10) 
REPRESENTATION_RELATIONSHIP_WITH_TRANSFORMATION(#613) 
SHAPE_REPRESENTATION_RELATIONSHIP() );
#613 = ITEM_DEFINED_TRANSFORMATION('','',#11,#35);
#614 = PRODUCT_DEFINITION_SHAPE('Placement','Placement of an item',#615
  );
#615 = NEXT_ASSEMBLY_USAGE_OCCURRENCE('6','','',#5,#530,$);
#616 = PRODUCT_RELATED_PRODUCT_CATEGORY('part',$,(#532));
#617 = SHAPE_DEFINITION_REPRESENTATION(#618,#624);
#618 = PRODUCT_DEFINITION_SHAPE('','',#619);
#619 = PRODUCT_DEFINITION('design','',#620,#623);
#620 = PRODUCT_DEFINITION_FORMATION('','',#621);
#621 = PRODUCT('Open CASCADE STEP translator 7.9 1.7',
  'Open CASCADE STEP translator 7.9 1.7','',(#622));
#622 = PRODUCT_CONTEXT('',#2,'mechanical');
#623 = PRODUCT_DEFINITION_CONTEXT('part definition',#2,'design');
#624 = MANIFOLD_SURFACE_SHAPE_REPRESENTATION('',(#11,#625),#691);
#625 = SHELL_BASED_SURFACE_MODEL('',(#626));
#626 = OPEN_SHELL('',(#627));
#627 = ADVANCED_FACE('',(#628),#641,.T.);
#628 = FACE_BOUND('',#629,.T.);
#629 = EDGE_LOOP('',(#630,#651,#665,#679));
#630 = ORIENTED_EDGE('',*,*,#631,.T.);
#631 = EDGE_CURVE('',#632,#634,#636,.T.);
#632 = VERTEX_POINT('',#633);
#633 = CARTESIAN_POINT('',(0.113369820438,0.510139374416,0.146726211556)
  );
#634 = VERTEX_POINT('',#635);
#635 = CARTESIAN_POINT('',(0.113369820438,0.509850519404,0.146726211556)
  );
#636 = SURFACE_CURVE('',#637,(#640),.PCURVE_S1.);
#637 = B_SPLINE_CURVE_WITH_KNOTS('',1,(#638,#639),.UNSPECIFIED.,.F.,.F.,
  (2,2),(0.,1.),.PIECEWISE_BEZIER_KNOTS.);
#638 = CARTESIAN_POINT('',(0.113369820438,0.510139374416,0.146726211556)
  );
#639 = CARTESIAN_POINT('',(0.113369820438,0.509850519404,0.146726211556)
  );
#640 = PCURVE('',#641,#646);
#641 = PLANE('',#642);
#642 = AXIS2_PLACEMENT_3D('',#643,#644,#645);
#643 = CARTESIAN_POINT('',(0.113437690892,0.50999494691,0.146726211556)
  );
#644 = DIRECTION('',(0.,0.,1.));
#645 = DIRECTION('',(1.,0.,-0.));
#646 = DEFINITIONAL_REPRESENTATION('',(#647),#650);
#647 = B_SPLINE_CURVE_WITH_KNOTS('',1,(#648,#649),.UNSPECIFIED.,.F.,.F.,
  (2,2),(0.,1.),.PIECEWISE_BEZIER_KNOTS.);
#648 = CARTESIAN_POINT('',(-6.787045449999E-05,1.44427506E-04));
#649 = CARTESIAN_POINT('',(-6.787045449999E-05,-1.444275060001E-04));
#650 = ( GEOMETRIC_REPRESENTATION_CONTEXT(2) 
PARAMETRIC_REPRESENTATION_CONTEXT() REPRESENTATION_CONTEXT('2D SPACE',''
  ) );
#651 = ORIENTED_EDGE('',*,*,#652,.T.);
#652 = EDGE_CURVE('',#634,#653,#655,.T.);
#653 = VERTEX_POINT('',#654);
#654 = CARTESIAN_POINT('',(0.113505561347,0.509850519404,0.146726211556)
  );
#655 = SURFACE_CURVE('',#656,(#659),.PCURVE_S1.);
#656 = B_SPLINE_CURVE_WITH_KNOTS('',1,(#657,#658),.UNSPECIFIED.,.F.,.F.,
  (2,2),(0.,1.),.PIECEWISE_BEZIER_KNOTS.);
#657 = CARTESIAN_POINT('',(0.113369820438,0.509850519404,0.146726211556)
  );
#658 = CARTESIAN_POINT('',(0.113505561347,0.509850519404,0.146726211556)
  );
#659 = PCURVE('',#641,#660);
#660 = DEFINITIONAL_REPRESENTATION('',(#661),#664);
#661 = B_SPLINE_CURVE_WITH_KNOTS('',1,(#662,#663),.UNSPECIFIED.,.F.,.F.,
  (2,2),(0.,1.),.PIECEWISE_BEZIER_KNOTS.);
#662 = CARTESIAN_POINT('',(-6.787045449999E-05,-1.444275060001E-04));
#663 = CARTESIAN_POINT('',(6.787045450002E-05,-1.444275060001E-04));
#664 = ( GEOMETRIC_REPRESENTATION_CONTEXT(2) 
PARAMETRIC_REPRESENTATION_CONTEXT() REPRESENTATION_CONTEXT('2D SPACE',''
  ) );
#665 = ORIENTED_EDGE('',*,*,#666,.T.);
#666 = EDGE_CURVE('',#653,#667,#669,.T.);
#667 = VERTEX_POINT('',#668);
#668 = CARTESIAN_POINT('',(0.113505561347,0.510139374416,0.146726211556)
  );
#669 = SURFACE_CURVE('',#670,(#673),.PCURVE_S1.);
#670 = B_SPLINE_CURVE_WITH_KNOTS('',1,(#671,#672),.UNSPECIFIED.,.F.,.F.,
  (2,2),(0.,1.),.PIECEWISE_BEZIER_KNOTS.);
#671 = CARTESIAN_POINT('',(0.113505561347,0.509850519404,0.146726211556)
  );
#672 = CARTESIAN_POINT('',(0.113505561347,0.510139374416,0.146726211556)
  );
#673 = PCURVE('',#641,#674);
#674 = DEFINITIONAL_REPRESENTATION('',(#675),#678);
#675 = B_SPLINE_CURVE_WITH_KNOTS('',1,(#676,#677),.UNSPECIFIED.,.F.,.F.,
  (2,2),(0.,1.),.PIECEWISE_BEZIER_KNOTS.);
#676 = CARTESIAN_POINT('',(6.787045450002E-05,-1.444275060001E-04));
#677 = CARTESIAN_POINT('',(6.787045450002E-05,1.444275059999E-04));
#678 = ( GEOMETRIC_REPRESENTATION_CONTEXT(2) 
PARAMETRIC_REPRESENTATION_CONTEXT() REPRESENTATION_CONTEXT('2D SPACE',''
  ) );
#679 = ORIENTED_EDGE('',*,*,#680,.T.);
#680 = EDGE_CURVE('',#667,#632,#681,.T.);
#681 = SURFACE_CURVE('',#682,(#685),.PCURVE_S1.);
#682 = B_SPLINE_CURVE_WITH_KNOTS('',1,(#683,#684),.UNSPECIFIED.,.F.,.F.,
  (2,2),(0.,1.),.PIECEWISE_BEZIER_KNOTS.);
#683 = CARTESIAN_POINT('',(0.113505561347,0.510139374416,0.146726211556)
  );
#684 = CARTESIAN_POINT('',(0.113369820438,0.510139374416,0.146726211556)
  );
#685 = PCURVE('',#641,#686);
#686 = DEFINITIONAL_REPRESENTATION('',(#687),#690);
#687 = B_SPLINE_CURVE_WITH_KNOTS('',1,(#688,#689),.UNSPECIFIED.,.F.,.F.,
  (2,2),(0.,1.),.PIECEWISE_BEZIER_KNOTS.);
#688 = CARTESIAN_POINT('',(6.787045450002E-05,1.44427506E-04));
#689 = CARTESIAN_POINT('',(-6.787045449999E-05,1.44427506E-04));
#690 = ( GEOMETRIC_REPRESENTATION_CONTEXT(2) 
PARAMETRIC_REPRESENTATION_CONTEXT() REPRESENTATION_CONTEXT('2D SPACE',''
  ) );
#691 = ( GEOMETRIC_REPRESENTATION_CONTEXT(3) 
GLOBAL_UNCERTAINTY_ASSIGNED_CONTEXT((#695)) GLOBAL_UNIT_ASSIGNED_CONTEXT
((#692,#693,#694)) REPRESENTATION_CONTEXT('Context #1',
  '3D Context with UNIT and UNCERTAINTY') );
#692 = ( LENGTH_UNIT() NAMED_UNIT(*) SI_UNIT(.MILLI.,.METRE.) );
#693 = ( NAMED_UNIT(*) PLANE_ANGLE_UNIT() SI_UNIT($,.RADIAN.) );
#694 = ( NAMED_UNIT(*) SI_UNIT($,.STERADIAN.) SOLID_ANGLE_UNIT() );
#695 = UNCERTAINTY_MEASURE_WITH_UNIT(LENGTH_MEASURE(1.E-07),#692,
  'distance_accuracy_value','confusion accuracy');
#696 = CONTEXT_DEPENDENT_SHAPE_REPRESENTATION(#697,#699);
#697 = ( REPRESENTATION_RELATIONSHIP('','',#624,#10) 
REPRESENTATION_RELATIONSHIP_WITH_TRANSFORMATION(#698) 
SHAPE_REPRESENTATION_RELATIONSHIP() );
#698 = ITEM_DEFINED_TRANSFORMATION('','',#11,#39);
#699 = PRODUCT_DEFINITION_SHAPE('Placement','Placement of an item',#700
  );
#700 = NEXT_ASSEMBLY_USAGE_OCCURRENCE('7','','',#5,#619,$);
#701 = PRODUCT_RELATED_PRODUCT_CATEGORY('part',$,(#621));
#702 = SHAPE_DEFINITION_REPRESENTATION(#703,#709);
#703 = PRODUCT_DEFINITION_SHAPE('','',#704);
#704 = PRODUCT_DEFINITION('design','',#705,#708);
#705 = PRODUCT_DEFINITION_FORMATION('','',#706);
#706 = PRODUCT('Open CASCADE STEP translator 7.9 1.8',
  'Open CASCADE STEP translator 7.9 1.8','',(#707));
#707 = PRODUCT_CONTEXT('',#2,'mechanical');
#708 = PRODUCT_DEFINITION_CONTEXT('part definition',#2,'design');
#709 = MANIFOLD_SURFACE_SHAPE_REPRESENTATION('',(#11,#710),#780);
#710 = SHELL_BASED_SURFACE_MODEL('',(#711));
#711 = OPEN_SHELL('',(#712));
#712 = ADVANCED_FACE('',(#713),#726,.T.);
#713 = FACE_BOUND('',#714,.T.);
#714 = EDGE_LOOP('',(#715,#737,#752,#767));
#715 = ORIENTED_EDGE('',*,*,#716,.F.);
#716 = EDGE_CURVE('',#717,#719,#721,.T.);
#717 = VERTEX_POINT('',#718);
#718 = CARTESIAN_POINT('',(0.113369820438,0.509986260313,0.14691616041)
  );
#719 = VERTEX_POINT('',#720);
#720 = CARTESIAN_POINT('',(0.113369820438,0.509986260313,0.15245787027)
  );
#721 = SURFACE_CURVE('',#722,(#725),.PCURVE_S1.);
#722 = B_SPLINE_CURVE_WITH_KNOTS('',1,(#723,#724),.UNSPECIFIED.,.F.,.F.,
  (2,2),(0.,5.542E-03),.PIECEWISE_BEZIER_KNOTS.);
#723 = CARTESIAN_POINT('',(0.113369820438,0.509986260313,0.14691616041)
  );
#724 = CARTESIAN_POINT('',(0.113369820438,0.509986260313,0.15245787027)
  );
#725 = PCURVE('',#726,#731);
#726 = B_SPLINE_SURFACE_WITH_KNOTS('',1,1,(
    (#727,#728)
    ,(#729,#730
    )),.UNSPECIFIED.,.F.,.F.,.F.,(2,2),(2,2),(0.,1.36E-04),(0.,5.542E-03
    ),.PIECEWISE_BEZIER_KNOTS.);
#727 = CARTESIAN_POINT('',(0.113369820438,0.509986260313,0.14691616041)
  );
#728 = CARTESIAN_POINT('',(0.113369820438,0.509986260313,0.15245787027)
  );
#729 = CARTESIAN_POINT('',(0.113505561347,0.509986260313,0.14691616041)
  );
#730 = CARTESIAN_POINT('',(0.113505561347,0.509986260313,0.15245787027)
  );
#731 = DEFINITIONAL_REPRESENTATION('',(#732),#736);
#732 = LINE('',#733,#734);
#733 = CARTESIAN_POINT('',(0.,0.));
#734 = VECTOR('',#735,1.);
#735 = DIRECTION('',(0.,1.));
#736 = ( GEOMETRIC_REPRESENTATION_CONTEXT(2) 
PARAMETRIC_REPRESENTATION_CONTEXT() REPRESENTATION_CONTEXT('2D SPACE',''
  ) );
#737 = ORIENTED_EDGE('',*,*,#738,.T.);
#738 = EDGE_CURVE('',#717,#739,#741,.T.);
#739 = VERTEX_POINT('',#740);
#740 = CARTESIAN_POINT('',(0.113505561347,0.509986260313,0.14691616041)
  );
#741 = SURFACE_CURVE('',#742,(#745),.PCURVE_S1.);
#742 = B_SPLINE_CURVE_WITH_KNOTS('',1,(#743,#744),.UNSPECIFIED.,.F.,.F.,
  (2,2),(0.,1.36E-04),.PIECEWISE_BEZIER_KNOTS.);
#743 = CARTESIAN_POINT('',(0.113369820438,0.509986260313,0.14691616041)
  );
#744 = CARTESIAN_POINT('',(0.113505561347,0.509986260313,0.14691616041)
  );
#745 = PCURVE('',#726,#746);
#746 = DEFINITIONAL_REPRESENTATION('',(#747),#751);
#747 = LINE('',#748,#749);
#748 = CARTESIAN_POINT('',(0.,0.));
#749 = VECTOR('',#750,1.);
#750 = DIRECTION('',(1.,0.));
#751 = ( GEOMETRIC_REPRESENTATION_CONTEXT(2) 
PARAMETRIC_REPRESENTATION_CONTEXT() REPRESENTATION_CONTEXT('2D SPACE',''
  ) );
#752 = ORIENTED_EDGE('',*,*,#753,.T.);
#753 = EDGE_CURVE('',#739,#754,#756,.T.);
#754 = VERTEX_POINT('',#755);
#755 = CARTESIAN_POINT('',(0.113505561347,0.509986260313,0.15245787027)
  );
#756 = SURFACE_CURVE('',#757,(#760),.PCURVE_S1.);
#757 = B_SPLINE_CURVE_WITH_KNOTS('',1,(#758,#759),.UNSPECIFIED.,.F.,.F.,
  (2,2),(0.,5.542E-03),.PIECEWISE_BEZIER_KNOTS.);
#758 = CARTESIAN_POINT('',(0.113505561347,0.509986260313,0.14691616041)
  );
#759 = CARTESIAN_POINT('',(0.113505561347,0.509986260313,0.15245787027)
  );
#760 = PCURVE('',#726,#761);
#761 = DEFINITIONAL_REPRESENTATION('',(#762),#766);
#762 = LINE('',#763,#764);
#763 = CARTESIAN_POINT('',(1.36E-04,0.));
#764 = VECTOR('',#765,1.);
#765 = DIRECTION('',(0.,1.));
#766 = ( GEOMETRIC_REPRESENTATION_CONTEXT(2) 
PARAMETRIC_REPRESENTATION_CONTEXT() REPRESENTATION_CONTEXT('2D SPACE',''
  ) );
#767 = ORIENTED_EDGE('',*,*,#768,.F.);
#768 = EDGE_CURVE('',#719,#754,#769,.T.);
#769 = SURFACE_CURVE('',#770,(#773),.PCURVE_S1.);
#770 = B_SPLINE_CURVE_WITH_KNOTS('',1,(#771,#772),.UNSPECIFIED.,.F.,.F.,
  (2,2),(0.,1.36E-04),.PIECEWISE_BEZIER_KNOTS.);
#771 = CARTESIAN_POINT('',(0.113369820438,0.509986260313,0.15245787027)
  );
#772 = CARTESIAN_POINT('',(0.113505561347,0.509986260313,0.15245787027)
  );
#773 = PCURVE('',#726,#774);
#774 = DEFINITIONAL_REPRESENTATION('',(#775),#779);
#775 = LINE('',#776,#777);
#776 = CARTESIAN_POINT('',(0.,5.542E-03));
#777 = VECTOR('',#778,1.);
#778 = DIRECTION('',(1.,0.));
#779 = ( GEOMETRIC_REPRESENTATION_CONTEXT(2) 
PARAMETRIC_REPRESENTATION_CONTEXT() REPRESENTATION_CONTEXT('2D SPACE',''
  ) );
#780 = ( GEOMETRIC_REPRESENTATION_CONTEXT(3) 
GLOBAL_UNCERTAINTY_ASSIGNED_CONTEXT((#784)) GLOBAL_UNIT_ASSIGNED_CONTEXT
((#781,#782,#783)) REPRESENTATION_CONTEXT('Context #1',
  '3D Context with UNIT and UNCERTAINTY') );
#781 = ( LENGTH_UNIT() NAMED_UNIT(*) SI_UNIT(.MILLI.,.METRE.) );
#782 = ( NAMED_UNIT(*) PLANE_ANGLE_UNIT() SI_UNIT($,.RADIAN.) );
#783 = ( NAMED_UNIT(*) SI_UNIT($,.STERADIAN.) SOLID_ANGLE_UNIT() );
#784 = UNCERTAINTY_MEASURE_WITH_UNIT(LENGTH_MEASURE(1.E-07),#781,
  'distance_accuracy_value','confusion accuracy');
#785 = CONTEXT_DEPENDENT_SHAPE_REPRESENTATION(#786,#788);
#786 = ( REPRESENTATION_RELATIONSHIP('','',#709,#10) 
REPRESENTATION_RELATIONSHIP_WITH_TRANSFORMATION(#787) 
SHAPE_REPRESENTATION_RELATIONSHIP() );
#787 = ITEM_DEFINED_TRANSFORMATION('','',#11,#43);
#788 = PRODUCT_DEFINITION_SHAPE('Placement','Placement of an item',#789
  );
#789 = NEXT_ASSEMBLY_USAGE_OCCURRENCE('8','','',#5,#704,$);
#790 = PRODUCT_RELATED_PRODUCT_CATEGORY('part',$,(#706));
#791 = SHAPE_DEFINITION_REPRESENTATION(#792,#798);
#792 = PRODUCT_DEFINITION_SHAPE('','',#793);
#793 = PRODUCT_DEFINITION('design','',#794,#797);
#794 = PRODUCT_DEFINITION_FORMATION('','',#795);
#795 = PRODUCT('Open CASCADE STEP translator 7.9 1.9',
  'Open CASCADE STEP translator 7.9 1.9','',(#796));
#796 = PRODUCT_CONTEXT('',#2,'mechanical');
#797 = PRODUCT_DEFINITION_CONTEXT('part definition',#2,'design');
#798 = MANIFOLD_SURFACE_SHAPE_REPRESENTATION('',(#11,#799),#865);
#799 = SHELL_BASED_SURFACE_MODEL('',(#800));
#800 = OPEN_SHELL('',(#801));
#801 = ADVANCED_FACE('',(#802),#815,.T.);
#802 = FACE_BOUND('',#803,.T.);
#803 = EDGE_LOOP('',(#804,#825,#839,#853));
#804 = ORIENTED_EDGE('',*,*,#805,.F.);
#805 = EDGE_CURVE('',#806,#808,#810,.T.);
#806 = VERTEX_POINT('',#807);
#807 = CARTESIAN_POINT('',(0.113505561347,0.509986260313,0.146726211556)
  );
#808 = VERTEX_POINT('',#809);
#809 = CARTESIAN_POINT('',(0.113369820438,0.509986260313,0.146726211556)
  );
#810 = SURFACE_CURVE('',#811,(#814),.PCURVE_S1.);
#811 = B_SPLINE_CURVE_WITH_KNOTS('',1,(#812,#813),.UNSPECIFIED.,.F.,.F.,
  (2,2),(0.,1.),.PIECEWISE_BEZIER_KNOTS.);
#812 = CARTESIAN_POINT('',(0.113505561347,0.509986260313,0.146726211556)
  );
#813 = CARTESIAN_POINT('',(0.113369820438,0.509986260313,0.146726211556)
  );
#814 = PCURVE('',#815,#820);
#815 = PLANE('',#816);
#816 = AXIS2_PLACEMENT_3D('',#817,#818,#819);
#817 = CARTESIAN_POINT('',(0.113437690893,0.509918389859,0.146726211556)
  );
#818 = DIRECTION('',(-0.,-0.,-1.));
#819 = DIRECTION('',(-1.,0.,0.));
#820 = DEFINITIONAL_REPRESENTATION('',(#821),#824);
#821 = B_SPLINE_CURVE_WITH_KNOTS('',1,(#822,#823),.UNSPECIFIED.,.F.,.F.,
  (2,2),(0.,1.),.PIECEWISE_BEZIER_KNOTS.);
#822 = CARTESIAN_POINT('',(-6.787045449999E-05,6.787045449996E-05));
#823 = CARTESIAN_POINT('',(6.787045450002E-05,6.787045449996E-05));
#824 = ( GEOMETRIC_REPRESENTATION_CONTEXT(2) 
PARAMETRIC_REPRESENTATION_CONTEXT() REPRESENTATION_CONTEXT('2D SPACE',''
  ) );
#825 = ORIENTED_EDGE('',*,*,#826,.F.);
#826 = EDGE_CURVE('',#827,#806,#829,.T.);
#827 = VERTEX_POINT('',#828);
#828 = CARTESIAN_POINT('',(0.113505561347,0.509850519404,0.146726211556)
  );
#829 = SURFACE_CURVE('',#830,(#833),.PCURVE_S1.);
#830 = B_SPLINE_CURVE_WITH_KNOTS('',1,(#831,#832),.UNSPECIFIED.,.F.,.F.,
  (2,2),(0.,1.),.PIECEWISE_BEZIER_KNOTS.);
#831 = CARTESIAN_POINT('',(0.113505561347,0.509850519404,0.146726211556)
  );
#832 = CARTESIAN_POINT('',(0.113505561347,0.509986260313,0.146726211556)
  );
#833 = PCURVE('',#815,#834);
#834 = DEFINITIONAL_REPRESENTATION('',(#835),#838);
#835 = B_SPLINE_CURVE_WITH_KNOTS('',1,(#836,#837),.UNSPECIFIED.,.F.,.F.,
  (2,2),(0.,1.),.PIECEWISE_BEZIER_KNOTS.);
#836 = CARTESIAN_POINT('',(-6.787045449999E-05,-6.787045450007E-05));
#837 = CARTESIAN_POINT('',(-6.787045449999E-05,6.787045449996E-05));
#838 = ( GEOMETRIC_REPRESENTATION_CONTEXT(2) 
PARAMETRIC_REPRESENTATION_CONTEXT() REPRESENTATION_CONTEXT('2D SPACE',''
  ) );
#839 = ORIENTED_EDGE('',*,*,#840,.F.);
#840 = EDGE_CURVE('',#841,#827,#843,.T.);
#841 = VERTEX_POINT('',#842);
#842 = CARTESIAN_POINT('',(0.113369820438,0.509850519404,0.146726211556)
  );
#843 = SURFACE_CURVE('',#844,(#847),.PCURVE_S1.);
#844 = B_SPLINE_CURVE_WITH_KNOTS('',1,(#845,#846),.UNSPECIFIED.,.F.,.F.,
  (2,2),(0.,1.),.PIECEWISE_BEZIER_KNOTS.);
#845 = CARTESIAN_POINT('',(0.113369820438,0.509850519404,0.146726211556)
  );
#846 = CARTESIAN_POINT('',(0.113505561347,0.509850519404,0.146726211556)
  );
#847 = PCURVE('',#815,#848);
#848 = DEFINITIONAL_REPRESENTATION('',(#849),#852);
#849 = B_SPLINE_CURVE_WITH_KNOTS('',1,(#850,#851),.UNSPECIFIED.,.F.,.F.,
  (2,2),(0.,1.),.PIECEWISE_BEZIER_KNOTS.);
#850 = CARTESIAN_POINT('',(6.787045450002E-05,-6.787045450007E-05));
#851 = CARTESIAN_POINT('',(-6.787045449999E-05,-6.787045450007E-05));
#852 = ( GEOMETRIC_REPRESENTATION_CONTEXT(2) 
PARAMETRIC_REPRESENTATION_CONTEXT() REPRESENTATION_CONTEXT('2D SPACE',''
  ) );
#853 = ORIENTED_EDGE('',*,*,#854,.F.);
#854 = EDGE_CURVE('',#808,#841,#855,.T.);
#855 = SURFACE_CURVE('',#856,(#859),.PCURVE_S1.);
#856 = B_SPLINE_CURVE_WITH_KNOTS('',1,(#857,#858),.UNSPECIFIED.,.F.,.F.,
  (2,2),(0.,1.),.PIECEWISE_BEZIER_KNOTS.);
#857 = CARTESIAN_POINT('',(0.113369820438,0.509986260313,0.146726211556)
  );
#858 = CARTESIAN_POINT('',(0.113369820438,0.509850519404,0.146726211556)
  );
#859 = PCURVE('',#815,#860);
#860 = DEFINITIONAL_REPRESENTATION('',(#861),#864);
#861 = B_SPLINE_CURVE_WITH_KNOTS('',1,(#862,#863),.UNSPECIFIED.,.F.,.F.,
  (2,2),(0.,1.),.PIECEWISE_BEZIER_KNOTS.);
#862 = CARTESIAN_POINT('',(6.787045450002E-05,6.787045449996E-05));
#863 = CARTESIAN_POINT('',(6.787045450002E-05,-6.787045450007E-05));
#864 = ( GEOMETRIC_REPRESENTATION_CONTEXT(2) 
PARAMETRIC_REPRESENTATION_CONTEXT() REPRESENTATION_CONTEXT('2D SPACE',''
  ) );
#865 = ( GEOMETRIC_REPRESENTATION_CONTEXT(3) 
GLOBAL_UNCERTAINTY_ASSIGNED_CONTEXT((#869)) GLOBAL_UNIT_ASSIGNED_CONTEXT
((#866,#867,#868)) REPRESENTATION_CONTEXT('Context #1',
  '3D Context with UNIT and UNCERTAINTY') );
#866 = ( LENGTH_UNIT() NAMED_UNIT(*) SI_UNIT(.MILLI.,.METRE.) );
#867 = ( NAMED_UNIT(*) PLANE_ANGLE_UNIT() SI_UNIT($,.RADIAN.) );
#868 = ( NAMED_UNIT(*) SI_UNIT($,.STERADIAN.) SOLID_ANGLE_UNIT() );
#869 = UNCERTAINTY_MEASURE_WITH_UNIT(LENGTH_MEASURE(1.E-07),#866,
  'distance_accuracy_value','confusion accuracy');
#870 = CONTEXT_DEPENDENT_SHAPE_REPRESENTATION(#871,#873);
#871 = ( REPRESENTATION_RELATIONSHIP('','',#798,#10) 
REPRESENTATION_RELATIONSHIP_WITH_TRANSFORMATION(#872) 
SHAPE_REPRESENTATION_RELATIONSHIP() );
#872 = ITEM_DEFINED_TRANSFORMATION('','',#11,#47);
#873 = PRODUCT_DEFINITION_SHAPE('Placement','Placement of an item',#874
  );
#874 = NEXT_ASSEMBLY_USAGE_OCCURRENCE('9','','',#5,#793,$);
#875 = PRODUCT_RELATED_PRODUCT_CATEGORY('part',$,(#795));
#876 = SHAPE_DEFINITION_REPRESENTATION(#877,#883);
#877 = PRODUCT_DEFINITION_SHAPE('','',#878);
#878 = PRODUCT_DEFINITION('design','',#879,#882);
#879 = PRODUCT_DEFINITION_FORMATION('','',#880);
#880 = PRODUCT('Open CASCADE STEP translator 7.9 1.10',
  'Open CASCADE STEP translator 7.9 1.10','',(#881));
#881 = PRODUCT_CONTEXT('',#2,'mechanical');
#882 = PRODUCT_DEFINITION_CONTEXT('part definition',#2,'design');
#883 = MANIFOLD_SURFACE_SHAPE_REPRESENTATION('',(#11,#884),#938);
#884 = SHELL_BASED_SURFACE_MODEL('',(#885));
#885 = OPEN_SHELL('',(#886));
#886 = ADVANCED_FACE('',(#887),#900,.T.);
#887 = FACE_BOUND('',#888,.T.);
#888 = EDGE_LOOP('',(#889,#910,#924));
#889 = ORIENTED_EDGE('',*,*,#890,.T.);
#890 = EDGE_CURVE('',#891,#893,#895,.T.);
#891 = VERTEX_POINT('',#892);
#892 = CARTESIAN_POINT('',(0.113505561347,0.509986260313,0.146726211556)
  );
#893 = VERTEX_POINT('',#894);
#894 = CARTESIAN_POINT('',(0.113505561347,0.509850519404,0.146726211556)
  );
#895 = SURFACE_CURVE('',#896,(#899),.PCURVE_S1.);
#896 = B_SPLINE_CURVE_WITH_KNOTS('',1,(#897,#898),.UNSPECIFIED.,.F.,.F.,
  (2,2),(0.,1.),.PIECEWISE_BEZIER_KNOTS.);
#897 = CARTESIAN_POINT('',(0.113505561347,0.509986260313,0.146726211556)
  );
#898 = CARTESIAN_POINT('',(0.113505561347,0.509850519404,0.146726211556)
  );
#899 = PCURVE('',#900,#905);
#900 = PLANE('',#901);
#901 = AXIS2_PLACEMENT_3D('',#902,#903,#904);
#902 = CARTESIAN_POINT('',(0.113505561347,0.509894242446,0.14682463209)
  );
#903 = DIRECTION('',(1.,0.,0.));
#904 = DIRECTION('',(-0.,0.,1.));
#905 = DEFINITIONAL_REPRESENTATION('',(#906),#909);
#906 = B_SPLINE_CURVE_WITH_KNOTS('',1,(#907,#908),.UNSPECIFIED.,.F.,.F.,
  (2,2),(0.,1.),.PIECEWISE_BEZIER_KNOTS.);
#907 = CARTESIAN_POINT('',(-9.842053356363E-05,-9.201786717983E-05));
#908 = CARTESIAN_POINT('',(-9.842053356363E-05,4.372304182021E-05));
#909 = ( GEOMETRIC_REPRESENTATION_CONTEXT(2) 
PARAMETRIC_REPRESENTATION_CONTEXT() REPRESENTATION_CONTEXT('2D SPACE',''
  ) );
#910 = ORIENTED_EDGE('',*,*,#911,.T.);
#911 = EDGE_CURVE('',#893,#912,#914,.T.);
#912 = VERTEX_POINT('',#913);
#913 = CARTESIAN_POINT('',(0.113505561347,0.509850519404,0.14691616041)
  );
#914 = SURFACE_CURVE('',#915,(#918),.PCURVE_S1.);
#915 = B_SPLINE_CURVE_WITH_KNOTS('',1,(#916,#917),.UNSPECIFIED.,.F.,.F.,
  (2,2),(0.,1.),.PIECEWISE_BEZIER_KNOTS.);
#916 = CARTESIAN_POINT('',(0.113505561347,0.509850519404,0.146726211556)
  );
#917 = CARTESIAN_POINT('',(0.113505561347,0.509850519404,0.14691616041)
  );
#918 = PCURVE('',#900,#919);
#919 = DEFINITIONAL_REPRESENTATION('',(#920),#923);
#920 = B_SPLINE_CURVE_WITH_KNOTS('',1,(#921,#922),.UNSPECIFIED.,.F.,.F.,
  (2,2),(0.,1.),.PIECEWISE_BEZIER_KNOTS.);
#921 = CARTESIAN_POINT('',(-9.842053356363E-05,4.372304182021E-05));
#922 = CARTESIAN_POINT('',(9.152832043638E-05,4.372304182021E-05));
#923 = ( GEOMETRIC_REPRESENTATION_CONTEXT(2) 
PARAMETRIC_REPRESENTATION_CONTEXT() REPRESENTATION_CONTEXT('2D SPACE',''
  ) );
#924 = ORIENTED_EDGE('',*,*,#925,.T.);
#925 = EDGE_CURVE('',#912,#926,#928,.T.);
#926 = VERTEX_POINT('',#927);
#927 = CARTESIAN_POINT('',(0.113505561347,0.510003633507,0.14691616041)
  );
#928 = SURFACE_CURVE('',#929,(#932),.PCURVE_S1.);
#929 = B_SPLINE_CURVE_WITH_KNOTS('',1,(#930,#931),.UNSPECIFIED.,.F.,.F.,
  (2,2),(0.,1.),.PIECEWISE_BEZIER_KNOTS.);
#930 = CARTESIAN_POINT('',(0.113505561347,0.509850519404,0.14691616041)
  );
#931 = CARTESIAN_POINT('',(0.113505561347,0.510003633507,0.14691616041)
  );
#932 = PCURVE('',#900,#933);
#933 = DEFINITIONAL_REPRESENTATION('',(#934),#937);
#934 = B_SPLINE_CURVE_WITH_KNOTS('',1,(#935,#936),.UNSPECIFIED.,.F.,.F.,
  (2,2),(0.,1.),.PIECEWISE_BEZIER_KNOTS.);
#935 = CARTESIAN_POINT('',(9.152832043638E-05,4.372304182021E-05));
#936 = CARTESIAN_POINT('',(9.152832043638E-05,-1.093910611798E-04));
#937 = ( GEOMETRIC_REPRESENTATION_CONTEXT(2) 
PARAMETRIC_REPRESENTATION_CONTEXT() REPRESENTATION_CONTEXT('2D SPACE',''
  ) );
#938 = ( GEOMETRIC_REPRESENTATION_CONTEXT(3) 
GLOBAL_UNCERTAINTY_ASSIGNED_CONTEXT((#942)) GLOBAL_UNIT_ASSIGNED_CONTEXT
((#939,#940,#941)) REPRESENTATION_CONTEXT('Context #1',
  '3D Context with UNIT and UNCERTAINTY') );
#939 = ( LENGTH_UNIT() NAMED_UNIT(*) SI_UNIT(.MILLI.,.METRE.) );
#940 = ( NAMED_UNIT(*) PLANE_ANGLE_UNIT() SI_UNIT($,.RADIAN.) );
#941 = ( NAMED_UNIT(*) SI_UNIT($,.STERADIAN.) SOLID_ANGLE_UNIT() );
#942 = UNCERTAINTY_MEASURE_WITH_UNIT(LENGTH_MEASURE(1.E-07),#939,
  'distance_accuracy_value','confusion accuracy');
#943 = CONTEXT_DEPENDENT_SHAPE_REPRESENTATION(#944,#946);
#944 = ( REPRESENTATION_RELATIONSHIP('','',#883,#10) 
REPRESENTATION_RELATIONSHIP_WITH_TRANSFORMATION(#945) 
SHAPE_REPRESENTATION_RELATIONSHIP() );
#945 = ITEM_DEFINED_TRANSFORMATION('','',#11,#51);
#946 = PRODUCT_DEFINITION_SHAPE('Placement','Placement of an item',#947
  );
#947 = NEXT_ASSEMBLY_USAGE_OCCURRENCE('10','','',#5,#878,$);
#948 = PRODUCT_RELATED_PRODUCT_CATEGORY('part',$,(#880));
ENDSEC;
END-ISO-10303-21;
