ISO-10303-21;
HEADER;
FILE_DESCRIPTION(('Open CASCADE Model'),'2;1');
FILE_NAME('Open CASCADE Shape Model','2026-06-29T02:10:42',('Author'),(
    'Open CASCADE'),'Open CASCADE STEP processor 7.9','Open CASCADE 7.9'
  ,'Unknown');
FILE_SCHEMA(('AUTOMOTIVE_DESIGN { 1 0 10303 214 1 1 1 1 }'));
ENDSEC;
DATA;
#1 = APPLICATION_PROTOCOL_DEFINITION('international standard',
  'automotive_design',2000,#2);
#2 = APPLICATION_CONTEXT(
  'core data for automotive mechanical design processes');
#3 = SHAPE_DEFINITION_REPRESENTATION(#4,#10);
#4 = PRODUCT_DEFINITION_SHAPE('','',#5);
#5 = PRODUCT_DEFINITION('design','',#6,#9);
#6 = PRODUCT_DEFINITION_FORMATION('','',#7);
#7 = PRODUCT('Open CASCADE STEP translator 7.9 1',
  'Open CASCADE STEP translator 7.9 1','',(#8));
#8 = PRODUCT_CONTEXT('',#2,'mechanical');
#9 = PRODUCT_DEFINITION_CONTEXT('part definition',#2,'design');
#10 = SHAPE_REPRESENTATION('',(#11,#15,#19,#23,#27,#31,#35,#39,#43),#47
  );
#11 = AXIS2_PLACEMENT_3D('',#12,#13,#14);
#12 = CARTESIAN_POINT('',(0.,0.,0.));
#13 = DIRECTION('',(0.,0.,1.));
#14 = DIRECTION('',(1.,0.,-0.));
#15 = AXIS2_PLACEMENT_3D('',#16,#17,#18);
#16 = CARTESIAN_POINT('',(0.,0.,0.));
#17 = DIRECTION('',(0.,0.,1.));
#18 = DIRECTION('',(1.,0.,-0.));
#19 = AXIS2_PLACEMENT_3D('',#20,#21,#22);
#20 = CARTESIAN_POINT('',(0.,0.,0.));
#21 = DIRECTION('',(0.,0.,1.));
#22 = DIRECTION('',(1.,0.,-0.));
#23 = AXIS2_PLACEMENT_3D('',#24,#25,#26);
#24 = CARTESIAN_POINT('',(0.,0.,0.));
#25 = DIRECTION('',(0.,0.,1.));
#26 = DIRECTION('',(1.,0.,-0.));
#27 = AXIS2_PLACEMENT_3D('',#28,#29,#30);
#28 = CARTESIAN_POINT('',(0.,0.,0.));
#29 = DIRECTION('',(0.,0.,1.));
#30 = DIRECTION('',(1.,0.,-0.));
#31 = AXIS2_PLACEMENT_3D('',#32,#33,#34);
#32 = CARTESIAN_POINT('',(0.,0.,0.));
#33 = DIRECTION('',(0.,0.,1.));
#34 = DIRECTION('',(1.,0.,-0.));
#35 = AXIS2_PLACEMENT_3D('',#36,#37,#38);
#36 = CARTESIAN_POINT('',(0.,0.,0.));
#37 = DIRECTION('',(0.,0.,1.));
#38 = DIRECTION('',(1.,0.,-0.));
#39 = AXIS2_PLACEMENT_3D('',#40,#41,#42);
#40 = CARTESIAN_POINT('',(0.,0.,0.));
#41 = DIRECTION('',(0.,0.,1.));
#42 = DIRECTION('',(1.,0.,-0.));
#43 = AXIS2_PLACEMENT_3D('',#44,#45,#46);
#44 = CARTESIAN_POINT('',(0.,0.,0.));
#45 = DIRECTION('',(0.,0.,1.));
#46 = DIRECTION('',(1.,0.,-0.));
#47 = ( GEOMETRIC_REPRESENTATION_CONTEXT(3) 
GLOBAL_UNCERTAINTY_ASSIGNED_CONTEXT((#51)) GLOBAL_UNIT_ASSIGNED_CONTEXT(
(#48,#49,#50)) REPRESENTATION_CONTEXT('Context #1',
  '3D Context with UNIT and UNCERTAINTY') );
#48 = ( LENGTH_UNIT() NAMED_UNIT(*) SI_UNIT(.MILLI.,.METRE.) );
#49 = ( NAMED_UNIT(*) PLANE_ANGLE_UNIT() SI_UNIT($,.RADIAN.) );
#50 = ( NAMED_UNIT(*) SI_UNIT($,.STERADIAN.) SOLID_ANGLE_UNIT() );
#51 = UNCERTAINTY_MEASURE_WITH_UNIT(LENGTH_MEASURE(1.E-07),#48,
  'distance_accuracy_value','confusion accuracy');
#52 = PRODUCT_RELATED_PRODUCT_CATEGORY('part',$,(#7));
#53 = SHAPE_DEFINITION_REPRESENTATION(#54,#60);
#54 = PRODUCT_DEFINITION_SHAPE('','',#55);
#55 = PRODUCT_DEFINITION('design','',#56,#59);
#56 = PRODUCT_DEFINITION_FORMATION('','',#57);
#57 = PRODUCT('Open CASCADE STEP translator 7.9 1.1',
  'Open CASCADE STEP translator 7.9 1.1','',(#58));
#58 = PRODUCT_CONTEXT('',#2,'mechanical');
#59 = PRODUCT_DEFINITION_CONTEXT('part definition',#2,'design');
#60 = MANIFOLD_SURFACE_SHAPE_REPRESENTATION('',(#11,#61),#131);
#61 = SHELL_BASED_SURFACE_MODEL('',(#62));
#62 = OPEN_SHELL('',(#63));
#63 = ADVANCED_FACE('',(#64),#77,.T.);
#64 = FACE_BOUND('',#65,.T.);
#65 = EDGE_LOOP('',(#66,#88,#103,#118));
#66 = ORIENTED_EDGE('',*,*,#67,.F.);
#67 = EDGE_CURVE('',#68,#70,#72,.T.);
#68 = VERTEX_POINT('',#69);
#69 = CARTESIAN_POINT('',(3.00000306E-04,3.00000306E-04,
    1.80000003108E-02));
#70 = VERTEX_POINT('',#71);
#71 = CARTESIAN_POINT('',(3.00000306E-04,0.666599999994,
    1.80000003108E-02));
#72 = SURFACE_CURVE('',#73,(#76),.PCURVE_S1.);
#73 = B_SPLINE_CURVE_WITH_KNOTS('',1,(#74,#75),.UNSPECIFIED.,.F.,.F.,(2,
    2),(-0.33315,0.33315),.PIECEWISE_BEZIER_KNOTS.);
#74 = CARTESIAN_POINT('',(3.00000306E-04,3.00000306E-04,
    1.80000003108E-02));
#75 = CARTESIAN_POINT('',(3.00000306E-04,0.666599999994,
    1.80000003108E-02));
#76 = PCURVE('',#77,#82);
#77 = B_SPLINE_SURFACE_WITH_KNOTS('',1,1,(
    (#78,#79)
    ,(#80,#81
    )),.UNSPECIFIED.,.F.,.F.,.F.,(2,2),(2,2),(-0.4997,0.4997),(-0.33315,
    0.33315),.PIECEWISE_BEZIER_KNOTS.);
#78 = CARTESIAN_POINT('',(3.00000306E-04,3.00000306E-04,
    1.80000003108E-02));
#79 = CARTESIAN_POINT('',(3.00000306E-04,0.666599999994,
    1.80000003108E-02));
#80 = CARTESIAN_POINT('',(0.999699999694,3.00000306E-04,
    1.80000003108E-02));
#81 = CARTESIAN_POINT('',(0.999699999694,0.666599999994,
    1.80000003108E-02));
#82 = DEFINITIONAL_REPRESENTATION('',(#83),#87);
#83 = LINE('',#84,#85);
#84 = CARTESIAN_POINT('',(-0.4997,0.));
#85 = VECTOR('',#86,1.);
#86 = DIRECTION('',(0.,1.));
#87 = ( GEOMETRIC_REPRESENTATION_CONTEXT(2) 
PARAMETRIC_REPRESENTATION_CONTEXT() REPRESENTATION_CONTEXT('2D SPACE',''
  ) );
#88 = ORIENTED_EDGE('',*,*,#89,.T.);
#89 = EDGE_CURVE('',#68,#90,#92,.T.);
#90 = VERTEX_POINT('',#91);
#91 = CARTESIAN_POINT('',(0.999699999694,3.00000306E-04,
    1.80000003108E-02));
#92 = SURFACE_CURVE('',#93,(#96),.PCURVE_S1.);
#93 = B_SPLINE_CURVE_WITH_KNOTS('',1,(#94,#95),.UNSPECIFIED.,.F.,.F.,(2,
    2),(-0.4997,0.4997),.PIECEWISE_BEZIER_KNOTS.);
#94 = CARTESIAN_POINT('',(3.00000306E-04,3.00000306E-04,
    1.80000003108E-02));
#95 = CARTESIAN_POINT('',(0.999699999694,3.00000306E-04,
    1.80000003108E-02));
#96 = PCURVE('',#77,#97);
#97 = DEFINITIONAL_REPRESENTATION('',(#98),#102);
#98 = LINE('',#99,#100);
#99 = CARTESIAN_POINT('',(0.,-0.33315));
#100 = VECTOR('',#101,1.);
#101 = DIRECTION('',(1.,0.));
#102 = ( GEOMETRIC_REPRESENTATION_CONTEXT(2) 
PARAMETRIC_REPRESENTATION_CONTEXT() REPRESENTATION_CONTEXT('2D SPACE',''
  ) );
#103 = ORIENTED_EDGE('',*,*,#104,.T.);
#104 = EDGE_CURVE('',#90,#105,#107,.T.);
#105 = VERTEX_POINT('',#106);
#106 = CARTESIAN_POINT('',(0.999699999694,0.666599999994,
    1.80000003108E-02));
#107 = SURFACE_CURVE('',#108,(#111),.PCURVE_S1.);
#108 = B_SPLINE_CURVE_WITH_KNOTS('',1,(#109,#110),.UNSPECIFIED.,.F.,.F.,
  (2,2),(-0.33315,0.33315),.PIECEWISE_BEZIER_KNOTS.);
#109 = CARTESIAN_POINT('',(0.999699999694,3.00000306E-04,
    1.80000003108E-02));
#110 = CARTESIAN_POINT('',(0.999699999694,0.666599999994,
    1.80000003108E-02));
#111 = PCURVE('',#77,#112);
#112 = DEFINITIONAL_REPRESENTATION('',(#113),#117);
#113 = LINE('',#114,#115);
#114 = CARTESIAN_POINT('',(0.4997,0.));
#115 = VECTOR('',#116,1.);
#116 = DIRECTION('',(0.,1.));
#117 = ( GEOMETRIC_REPRESENTATION_CONTEXT(2) 
PARAMETRIC_REPRESENTATION_CONTEXT() REPRESENTATION_CONTEXT('2D SPACE',''
  ) );
#118 = ORIENTED_EDGE('',*,*,#119,.F.);
#119 = EDGE_CURVE('',#70,#105,#120,.T.);
#120 = SURFACE_CURVE('',#121,(#124),.PCURVE_S1.);
#121 = B_SPLINE_CURVE_WITH_KNOTS('',1,(#122,#123),.UNSPECIFIED.,.F.,.F.,
  (2,2),(-0.4997,0.4997),.PIECEWISE_BEZIER_KNOTS.);
#122 = CARTESIAN_POINT('',(3.00000306E-04,0.666599999994,
    1.80000003108E-02));
#123 = CARTESIAN_POINT('',(0.999699999694,0.666599999994,
    1.80000003108E-02));
#124 = PCURVE('',#77,#125);
#125 = DEFINITIONAL_REPRESENTATION('',(#126),#130);
#126 = LINE('',#127,#128);
#127 = CARTESIAN_POINT('',(0.,0.33315));
#128 = VECTOR('',#129,1.);
#129 = DIRECTION('',(1.,0.));
#130 = ( GEOMETRIC_REPRESENTATION_CONTEXT(2) 
PARAMETRIC_REPRESENTATION_CONTEXT() REPRESENTATION_CONTEXT('2D SPACE',''
  ) );
#131 = ( GEOMETRIC_REPRESENTATION_CONTEXT(3) 
GLOBAL_UNCERTAINTY_ASSIGNED_CONTEXT((#135)) GLOBAL_UNIT_ASSIGNED_CONTEXT
((#132,#133,#134)) REPRESENTATION_CONTEXT('Context #1',
  '3D Context with UNIT and UNCERTAINTY') );
#132 = ( LENGTH_UNIT() NAMED_UNIT(*) SI_UNIT(.MILLI.,.METRE.) );
#133 = ( NAMED_UNIT(*) PLANE_ANGLE_UNIT() SI_UNIT($,.RADIAN.) );
#134 = ( NAMED_UNIT(*) SI_UNIT($,.STERADIAN.) SOLID_ANGLE_UNIT() );
#135 = UNCERTAINTY_MEASURE_WITH_UNIT(LENGTH_MEASURE(1.E-07),#132,
  'distance_accuracy_value','confusion accuracy');
#136 = CONTEXT_DEPENDENT_SHAPE_REPRESENTATION(#137,#139);
#137 = ( REPRESENTATION_RELATIONSHIP('','',#60,#10) 
REPRESENTATION_RELATIONSHIP_WITH_TRANSFORMATION(#138) 
SHAPE_REPRESENTATION_RELATIONSHIP() );
#138 = ITEM_DEFINED_TRANSFORMATION('','',#11,#15);
#139 = PRODUCT_DEFINITION_SHAPE('Placement','Placement of an item',#140
  );
#140 = NEXT_ASSEMBLY_USAGE_OCCURRENCE('1','','',#5,#55,$);
#141 = PRODUCT_RELATED_PRODUCT_CATEGORY('part',$,(#57));
#142 = SHAPE_DEFINITION_REPRESENTATION(#143,#149);
#143 = PRODUCT_DEFINITION_SHAPE('','',#144);
#144 = PRODUCT_DEFINITION('design','',#145,#148);
#145 = PRODUCT_DEFINITION_FORMATION('','',#146);
#146 = PRODUCT('Open CASCADE STEP translator 7.9 1.2',
  'Open CASCADE STEP translator 7.9 1.2','',(#147));
#147 = PRODUCT_CONTEXT('',#2,'mechanical');
#148 = PRODUCT_DEFINITION_CONTEXT('part definition',#2,'design');
#149 = MANIFOLD_SURFACE_SHAPE_REPRESENTATION('',(#11,#150),#220);
#150 = SHELL_BASED_SURFACE_MODEL('',(#151));
#151 = OPEN_SHELL('',(#152));
#152 = ADVANCED_FACE('',(#153),#166,.T.);
#153 = FACE_BOUND('',#154,.T.);
#154 = EDGE_LOOP('',(#155,#177,#192,#207));
#155 = ORIENTED_EDGE('',*,*,#156,.F.);
#156 = EDGE_CURVE('',#157,#159,#161,.T.);
#157 = VERTEX_POINT('',#158);
#158 = CARTESIAN_POINT('',(3.00000306E-04,3.00000306E-04,
    3.000000000708E-10));
#159 = VERTEX_POINT('',#160);
#160 = CARTESIAN_POINT('',(3.00000306E-04,0.666599999994,
    3.000000000708E-10));
#161 = SURFACE_CURVE('',#162,(#165),.PCURVE_S1.);
#162 = B_SPLINE_CURVE_WITH_KNOTS('',1,(#163,#164),.UNSPECIFIED.,.F.,.F.,
  (2,2),(-0.33315,0.33315),.PIECEWISE_BEZIER_KNOTS.);
#163 = CARTESIAN_POINT('',(3.00000306E-04,3.00000306E-04,
    3.000000000708E-10));
#164 = CARTESIAN_POINT('',(3.00000306E-04,0.666599999994,
    3.000000000708E-10));
#165 = PCURVE('',#166,#171);
#166 = B_SPLINE_SURFACE_WITH_KNOTS('',1,1,(
    (#167,#168)
    ,(#169,#170
  )),.UNSPECIFIED.,.F.,.F.,.F.,(2,2),(2,2),(-0.4997,0.4997),(-0.33315,
    0.33315),.PIECEWISE_BEZIER_KNOTS.);
#167 = CARTESIAN_POINT('',(3.00000306E-04,3.00000306E-04,
    3.000000000708E-10));
#168 = CARTESIAN_POINT('',(3.00000306E-04,0.666599999994,
    3.000000000708E-10));
#169 = CARTESIAN_POINT('',(0.999699999694,3.00000306E-04,
    3.000000000708E-10));
#170 = CARTESIAN_POINT('',(0.999699999694,0.666599999994,
    3.000000000708E-10));
#171 = DEFINITIONAL_REPRESENTATION('',(#172),#176);
#172 = LINE('',#173,#174);
#173 = CARTESIAN_POINT('',(-0.4997,0.));
#174 = VECTOR('',#175,1.);
#175 = DIRECTION('',(0.,1.));
#176 = ( GEOMETRIC_REPRESENTATION_CONTEXT(2) 
PARAMETRIC_REPRESENTATION_CONTEXT() REPRESENTATION_CONTEXT('2D SPACE',''
  ) );
#177 = ORIENTED_EDGE('',*,*,#178,.T.);
#178 = EDGE_CURVE('',#157,#179,#181,.T.);
#179 = VERTEX_POINT('',#180);
#180 = CARTESIAN_POINT('',(0.999699999694,3.00000306E-04,
    3.000000000708E-10));
#181 = SURFACE_CURVE('',#182,(#185),.PCURVE_S1.);
#182 = B_SPLINE_CURVE_WITH_KNOTS('',1,(#183,#184),.UNSPECIFIED.,.F.,.F.,
  (2,2),(-0.4997,0.4997),.PIECEWISE_BEZIER_KNOTS.);
#183 = CARTESIAN_POINT('',(3.00000306E-04,3.00000306E-04,
    3.000000000708E-10));
#184 = CARTESIAN_POINT('',(0.999699999694,3.00000306E-04,
    3.000000000708E-10));
#185 = PCURVE('',#166,#186);
#186 = DEFINITIONAL_REPRESENTATION('',(#187),#191);
#187 = LINE('',#188,#189);
#188 = CARTESIAN_POINT('',(0.,-0.33315));
#189 = VECTOR('',#190,1.);
#190 = DIRECTION('',(1.,0.));
#191 = ( GEOMETRIC_REPRESENTATION_CONTEXT(2) 
PARAMETRIC_REPRESENTATION_CONTEXT() REPRESENTATION_CONTEXT('2D SPACE',''
  ) );
#192 = ORIENTED_EDGE('',*,*,#193,.T.);
#193 = EDGE_CURVE('',#179,#194,#196,.T.);
#194 = VERTEX_POINT('',#195);
#195 = CARTESIAN_POINT('',(0.999699999694,0.666599999994,
    3.000000000708E-10));
#196 = SURFACE_CURVE('',#197,(#200),.PCURVE_S1.);
#197 = B_SPLINE_CURVE_WITH_KNOTS('',1,(#198,#199),.UNSPECIFIED.,.F.,.F.,
  (2,2),(-0.33315,0.33315),.PIECEWISE_BEZIER_KNOTS.);
#198 = CARTESIAN_POINT('',(0.999699999694,3.00000306E-04,
    3.000000000708E-10));
#199 = CARTESIAN_POINT('',(0.999699999694,0.666599999994,
    3.000000000708E-10));
#200 = PCURVE('',#166,#201);
#201 = DEFINITIONAL_REPRESENTATION('',(#202),#206);
#202 = LINE('',#203,#204);
#203 = CARTESIAN_POINT('',(0.4997,0.));
#204 = VECTOR('',#205,1.);
#205 = DIRECTION('',(0.,1.));
#206 = ( GEOMETRIC_REPRESENTATION_CONTEXT(2) 
PARAMETRIC_REPRESENTATION_CONTEXT() REPRESENTATION_CONTEXT('2D SPACE',''
  ) );
#207 = ORIENTED_EDGE('',*,*,#208,.F.);
#208 = EDGE_CURVE('',#159,#194,#209,.T.);
#209 = SURFACE_CURVE('',#210,(#213),.PCURVE_S1.);
#210 = B_SPLINE_CURVE_WITH_KNOTS('',1,(#211,#212),.UNSPECIFIED.,.F.,.F.,
  (2,2),(-0.4997,0.4997),.PIECEWISE_BEZIER_KNOTS.);
#211 = CARTESIAN_POINT('',(3.00000306E-04,0.666599999994,
    3.000000000708E-10));
#212 = CARTESIAN_POINT('',(0.999699999694,0.666599999994,
    3.000000000708E-10));
#213 = PCURVE('',#166,#214);
#214 = DEFINITIONAL_REPRESENTATION('',(#215),#219);
#215 = LINE('',#216,#217);
#216 = CARTESIAN_POINT('',(0.,0.33315));
#217 = VECTOR('',#218,1.);
#218 = DIRECTION('',(1.,0.));
#219 = ( GEOMETRIC_REPRESENTATION_CONTEXT(2) 
PARAMETRIC_REPRESENTATION_CONTEXT() REPRESENTATION_CONTEXT('2D SPACE',''
  ) );
#220 = ( GEOMETRIC_REPRESENTATION_CONTEXT(3) 
GLOBAL_UNCERTAINTY_ASSIGNED_CONTEXT((#224)) GLOBAL_UNIT_ASSIGNED_CONTEXT
((#221,#222,#223)) REPRESENTATION_CONTEXT('Context #1',
  '3D Context with UNIT and UNCERTAINTY') );
#221 = ( LENGTH_UNIT() NAMED_UNIT(*) SI_UNIT(.MILLI.,.METRE.) );
#222 = ( NAMED_UNIT(*) PLANE_ANGLE_UNIT() SI_UNIT($,.RADIAN.) );
#223 = ( NAMED_UNIT(*) SI_UNIT($,.STERADIAN.) SOLID_ANGLE_UNIT() );
#224 = UNCERTAINTY_MEASURE_WITH_UNIT(LENGTH_MEASURE(1.E-07),#221,
  'distance_accuracy_value','confusion accuracy');
#225 = CONTEXT_DEPENDENT_SHAPE_REPRESENTATION(#226,#228);
#226 = ( REPRESENTATION_RELATIONSHIP('','',#149,#10) 
REPRESENTATION_RELATIONSHIP_WITH_TRANSFORMATION(#227) 
SHAPE_REPRESENTATION_RELATIONSHIP() );
#227 = ITEM_DEFINED_TRANSFORMATION('','',#11,#19);
#228 = PRODUCT_DEFINITION_SHAPE('Placement','Placement of an item',#229
  );
#229 = NEXT_ASSEMBLY_USAGE_OCCURRENCE('2','','',#5,#144,$);
#230 = PRODUCT_RELATED_PRODUCT_CATEGORY('part',$,(#146));
#231 = SHAPE_DEFINITION_REPRESENTATION(#232,#238);
#232 = PRODUCT_DEFINITION_SHAPE('','',#233);
#233 = PRODUCT_DEFINITION('design','',#234,#237);
#234 = PRODUCT_DEFINITION_FORMATION('','',#235);
#235 = PRODUCT('Open CASCADE STEP translator 7.9 1.3',
  'Open CASCADE STEP translator 7.9 1.3','',(#236));
#236 = PRODUCT_CONTEXT('',#2,'mechanical');
#237 = PRODUCT_DEFINITION_CONTEXT('part definition',#2,'design');
#238 = MANIFOLD_SURFACE_SHAPE_REPRESENTATION('',(#11,#239),#309);
#239 = SHELL_BASED_SURFACE_MODEL('',(#240));
#240 = OPEN_SHELL('',(#241));
#241 = ADVANCED_FACE('',(#242),#255,.T.);
#242 = FACE_BOUND('',#243,.T.);
#243 = EDGE_LOOP('',(#244,#266,#281,#296));
#244 = ORIENTED_EDGE('',*,*,#245,.F.);
#245 = EDGE_CURVE('',#246,#248,#250,.T.);
#246 = VERTEX_POINT('',#247);
#247 = CARTESIAN_POINT('',(3.00000306E-04,0.666600000001,
    3.000000000708E-10));
#248 = VERTEX_POINT('',#249);
#249 = CARTESIAN_POINT('',(0.999699999694,0.666600000001,
    3.000000000708E-10));
#250 = SURFACE_CURVE('',#251,(#254),.PCURVE_S1.);
#251 = B_SPLINE_CURVE_WITH_KNOTS('',1,(#252,#253),.UNSPECIFIED.,.F.,.F.,
  (2,2),(-0.4997,0.4997),.PIECEWISE_BEZIER_KNOTS.);
#252 = CARTESIAN_POINT('',(3.00000306E-04,0.666600000001,
    3.000000000708E-10));
#253 = CARTESIAN_POINT('',(0.999699999694,0.666600000001,
    3.000000000708E-10));
#254 = PCURVE('',#255,#260);
#255 = B_SPLINE_SURFACE_WITH_KNOTS('',1,1,(
    (#256,#257)
    ,(#258,#259
    )),.UNSPECIFIED.,.F.,.F.,.F.,(2,2),(2,2),(0.,1.8E-02),(-0.4997,
    0.4997),.PIECEWISE_BEZIER_KNOTS.);
#256 = CARTESIAN_POINT('',(3.00000306E-04,0.666600000001,
    3.000000000708E-10));
#257 = CARTESIAN_POINT('',(0.999699999694,0.666600000001,
    3.000000000708E-10));
#258 = CARTESIAN_POINT('',(3.00000306E-04,0.666600000001,
    1.80000002908E-02));
#259 = CARTESIAN_POINT('',(0.999699999694,0.666600000001,
    1.80000002908E-02));
#260 = DEFINITIONAL_REPRESENTATION('',(#261),#265);
#261 = LINE('',#262,#263);
#262 = CARTESIAN_POINT('',(0.,0.));
#263 = VECTOR('',#264,1.);
#264 = DIRECTION('',(0.,1.));
#265 = ( GEOMETRIC_REPRESENTATION_CONTEXT(2) 
PARAMETRIC_REPRESENTATION_CONTEXT() REPRESENTATION_CONTEXT('2D SPACE',''
  ) );
#266 = ORIENTED_EDGE('',*,*,#267,.T.);
#267 = EDGE_CURVE('',#246,#268,#270,.T.);
#268 = VERTEX_POINT('',#269);
#269 = CARTESIAN_POINT('',(3.00000306E-04,0.666600000001,
    1.80000002908E-02));
#270 = SURFACE_CURVE('',#271,(#274),.PCURVE_S1.);
#271 = B_SPLINE_CURVE_WITH_KNOTS('',1,(#272,#273),.UNSPECIFIED.,.F.,.F.,
  (2,2),(0.,1.8E-02),.PIECEWISE_BEZIER_KNOTS.);
#272 = CARTESIAN_POINT('',(3.00000306E-04,0.666600000001,
    3.000000000708E-10));
#273 = CARTESIAN_POINT('',(3.00000306E-04,0.666600000001,
    1.80000002908E-02));
#274 = PCURVE('',#255,#275);
#275 = DEFINITIONAL_REPRESENTATION('',(#276),#280);
#276 = LINE('',#277,#278);
#277 = CARTESIAN_POINT('',(0.,-0.4997));
#278 = VECTOR('',#279,1.);
#279 = DIRECTION('',(1.,0.));
#280 = ( GEOMETRIC_REPRESENTATION_CONTEXT(2) 
PARAMETRIC_REPRESENTATION_CONTEXT() REPRESENTATION_CONTEXT('2D SPACE',''
  ) );
#281 = ORIENTED_EDGE('',*,*,#282,.T.);
#282 = EDGE_CURVE('',#268,#283,#285,.T.);
#283 = VERTEX_POINT('',#284);
#284 = CARTESIAN_POINT('',(0.999699999694,0.666600000001,
    1.80000002908E-02));
#285 = SURFACE_CURVE('',#286,(#289),.PCURVE_S1.);
#286 = B_SPLINE_CURVE_WITH_KNOTS('',1,(#287,#288),.UNSPECIFIED.,.F.,.F.,
  (2,2),(-0.4997,0.4997),.PIECEWISE_BEZIER_KNOTS.);
#287 = CARTESIAN_POINT('',(3.00000306E-04,0.666600000001,
    1.80000002908E-02));
#288 = CARTESIAN_POINT('',(0.999699999694,0.666600000001,
    1.80000002908E-02));
#289 = PCURVE('',#255,#290);
#290 = DEFINITIONAL_REPRESENTATION('',(#291),#295);
#291 = LINE('',#292,#293);
#292 = CARTESIAN_POINT('',(1.8E-02,0.));
#293 = VECTOR('',#294,1.);
#294 = DIRECTION('',(0.,1.));
#295 = ( GEOMETRIC_REPRESENTATION_CONTEXT(2) 
PARAMETRIC_REPRESENTATION_CONTEXT() REPRESENTATION_CONTEXT('2D SPACE',''
  ) );
#296 = ORIENTED_EDGE('',*,*,#297,.F.);
#297 = EDGE_CURVE('',#248,#283,#298,.T.);
#298 = SURFACE_CURVE('',#299,(#302),.PCURVE_S1.);
#299 = B_SPLINE_CURVE_WITH_KNOTS('',1,(#300,#301),.UNSPECIFIED.,.F.,.F.,
  (2,2),(0.,1.8E-02),.PIECEWISE_BEZIER_KNOTS.);
#300 = CARTESIAN_POINT('',(0.999699999694,0.666600000001,
    3.000000000708E-10));
#301 = CARTESIAN_POINT('',(0.999699999694,0.666600000001,
    1.80000002908E-02));
#302 = PCURVE('',#255,#303);
#303 = DEFINITIONAL_REPRESENTATION('',(#304),#308);
#304 = LINE('',#305,#306);
#305 = CARTESIAN_POINT('',(0.,0.4997));
#306 = VECTOR('',#307,1.);
#307 = DIRECTION('',(1.,0.));
#308 = ( GEOMETRIC_REPRESENTATION_CONTEXT(2) 
PARAMETRIC_REPRESENTATION_CONTEXT() REPRESENTATION_CONTEXT('2D SPACE',''
  ) );
#309 = ( GEOMETRIC_REPRESENTATION_CONTEXT(3) 
GLOBAL_UNCERTAINTY_ASSIGNED_CONTEXT((#313)) GLOBAL_UNIT_ASSIGNED_CONTEXT
((#310,#311,#312)) REPRESENTATION_CONTEXT('Context #1',
  '3D Context with UNIT and UNCERTAINTY') );
#310 = ( LENGTH_UNIT() NAMED_UNIT(*) SI_UNIT(.MILLI.,.METRE.) );
#311 = ( NAMED_UNIT(*) PLANE_ANGLE_UNIT() SI_UNIT($,.RADIAN.) );
#312 = ( NAMED_UNIT(*) SI_UNIT($,.STERADIAN.) SOLID_ANGLE_UNIT() );
#313 = UNCERTAINTY_MEASURE_WITH_UNIT(LENGTH_MEASURE(1.E-07),#310,
  'distance_accuracy_value','confusion accuracy');
#314 = CONTEXT_DEPENDENT_SHAPE_REPRESENTATION(#315,#317);
#315 = ( REPRESENTATION_RELATIONSHIP('','',#238,#10) 
REPRESENTATION_RELATIONSHIP_WITH_TRANSFORMATION(#316) 
SHAPE_REPRESENTATION_RELATIONSHIP() );
#316 = ITEM_DEFINED_TRANSFORMATION('','',#11,#23);
#317 = PRODUCT_DEFINITION_SHAPE('Placement','Placement of an item',#318
  );
#318 = NEXT_ASSEMBLY_USAGE_OCCURRENCE('3','','',#5,#233,$);
#319 = PRODUCT_RELATED_PRODUCT_CATEGORY('part',$,(#235));
#320 = SHAPE_DEFINITION_REPRESENTATION(#321,#327);
#321 = PRODUCT_DEFINITION_SHAPE('','',#322);
#322 = PRODUCT_DEFINITION('design','',#323,#326);
#323 = PRODUCT_DEFINITION_FORMATION('','',#324);
#324 = PRODUCT('Open CASCADE STEP translator 7.9 1.4',
  'Open CASCADE STEP translator 7.9 1.4','',(#325));
#325 = PRODUCT_CONTEXT('',#2,'mechanical');
#326 = PRODUCT_DEFINITION_CONTEXT('part definition',#2,'design');
#327 = MANIFOLD_SURFACE_SHAPE_REPRESENTATION('',(#11,#328),#398);
#328 = SHELL_BASED_SURFACE_MODEL('',(#329));
#329 = OPEN_SHELL('',(#330));
#330 = ADVANCED_FACE('',(#331),#344,.T.);
#331 = FACE_BOUND('',#332,.T.);
#332 = EDGE_LOOP('',(#333,#355,#370,#385));
#333 = ORIENTED_EDGE('',*,*,#334,.F.);
#334 = EDGE_CURVE('',#335,#337,#339,.T.);
#335 = VERTEX_POINT('',#336);
#336 = CARTESIAN_POINT('',(3.00000306E-04,3.00000306E-04,
    1.80000003108E-02));
#337 = VERTEX_POINT('',#338);
#338 = CARTESIAN_POINT('',(3.00000306E-04,0.666599999994,
    1.80000003108E-02));
#339 = SURFACE_CURVE('',#340,(#343),.PCURVE_S1.);
#340 = B_SPLINE_CURVE_WITH_KNOTS('',1,(#341,#342),.UNSPECIFIED.,.F.,.F.,
  (2,2),(-0.33315,0.33315),.PIECEWISE_BEZIER_KNOTS.);
#341 = CARTESIAN_POINT('',(3.00000306E-04,3.00000306E-04,
    1.80000003108E-02));
#342 = CARTESIAN_POINT('',(3.00000306E-04,0.666599999994,
    1.80000003108E-02));
#343 = PCURVE('',#344,#349);
#344 = B_SPLINE_SURFACE_WITH_KNOTS('',1,1,(
    (#345,#346)
    ,(#347,#348
    )),.UNSPECIFIED.,.F.,.F.,.F.,(2,2),(2,2),(-1.8E-02,0.),(-0.33315,
    0.33315),.PIECEWISE_BEZIER_KNOTS.);
#345 = CARTESIAN_POINT('',(3.00000306E-04,3.00000306E-04,
    1.80000003108E-02));
#346 = CARTESIAN_POINT('',(3.00000306E-04,0.666599999994,
    1.80000003108E-02));
#347 = CARTESIAN_POINT('',(3.00000306E-04,3.00000306E-04,
    3.200000021908E-10));
#348 = CARTESIAN_POINT('',(3.00000306E-04,0.666599999994,
    3.200000021908E-10));
#349 = DEFINITIONAL_REPRESENTATION('',(#350),#354);
#350 = LINE('',#351,#352);
#351 = CARTESIAN_POINT('',(-1.8E-02,0.));
#352 = VECTOR('',#353,1.);
#353 = DIRECTION('',(0.,1.));
#354 = ( GEOMETRIC_REPRESENTATION_CONTEXT(2) 
PARAMETRIC_REPRESENTATION_CONTEXT() REPRESENTATION_CONTEXT('2D SPACE',''
  ) );
#355 = ORIENTED_EDGE('',*,*,#356,.T.);
#356 = EDGE_CURVE('',#335,#357,#359,.T.);
#357 = VERTEX_POINT('',#358);
#358 = CARTESIAN_POINT('',(3.00000306E-04,3.00000306E-04,
    3.200000021908E-10));
#359 = SURFACE_CURVE('',#360,(#363),.PCURVE_S1.);
#360 = B_SPLINE_CURVE_WITH_KNOTS('',1,(#361,#362),.UNSPECIFIED.,.F.,.F.,
  (2,2),(-1.8E-02,0.),.PIECEWISE_BEZIER_KNOTS.);
#361 = CARTESIAN_POINT('',(3.00000306E-04,3.00000306E-04,
    1.80000003108E-02));
#362 = CARTESIAN_POINT('',(3.00000306E-04,3.00000306E-04,
    3.200000021908E-10));
#363 = PCURVE('',#344,#364);
#364 = DEFINITIONAL_REPRESENTATION('',(#365),#369);
#365 = LINE('',#366,#367);
#366 = CARTESIAN_POINT('',(0.,-0.33315));
#367 = VECTOR('',#368,1.);
#368 = DIRECTION('',(1.,0.));
#369 = ( GEOMETRIC_REPRESENTATION_CONTEXT(2) 
PARAMETRIC_REPRESENTATION_CONTEXT() REPRESENTATION_CONTEXT('2D SPACE',''
  ) );
#370 = ORIENTED_EDGE('',*,*,#371,.T.);
#371 = EDGE_CURVE('',#357,#372,#374,.T.);
#372 = VERTEX_POINT('',#373);
#373 = CARTESIAN_POINT('',(3.00000306E-04,0.666599999994,
    3.200000021908E-10));
#374 = SURFACE_CURVE('',#375,(#378),.PCURVE_S1.);
#375 = B_SPLINE_CURVE_WITH_KNOTS('',1,(#376,#377),.UNSPECIFIED.,.F.,.F.,
  (2,2),(-0.33315,0.33315),.PIECEWISE_BEZIER_KNOTS.);
#376 = CARTESIAN_POINT('',(3.00000306E-04,3.00000306E-04,
    3.200000021908E-10));
#377 = CARTESIAN_POINT('',(3.00000306E-04,0.666599999994,
    3.200000021908E-10));
#378 = PCURVE('',#344,#379);
#379 = DEFINITIONAL_REPRESENTATION('',(#380),#384);
#380 = LINE('',#381,#382);
#381 = CARTESIAN_POINT('',(0.,0.));
#382 = VECTOR('',#383,1.);
#383 = DIRECTION('',(0.,1.));
#384 = ( GEOMETRIC_REPRESENTATION_CONTEXT(2) 
PARAMETRIC_REPRESENTATION_CONTEXT() REPRESENTATION_CONTEXT('2D SPACE',''
  ) );
#385 = ORIENTED_EDGE('',*,*,#386,.F.);
#386 = EDGE_CURVE('',#337,#372,#387,.T.);
#387 = SURFACE_CURVE('',#388,(#391),.PCURVE_S1.);
#388 = B_SPLINE_CURVE_WITH_KNOTS('',1,(#389,#390),.UNSPECIFIED.,.F.,.F.,
  (2,2),(-1.8E-02,0.),.PIECEWISE_BEZIER_KNOTS.);
#389 = CARTESIAN_POINT('',(3.00000306E-04,0.666599999994,
    1.80000003108E-02));
#390 = CARTESIAN_POINT('',(3.00000306E-04,0.666599999994,
    3.200000021908E-10));
#391 = PCURVE('',#344,#392);
#392 = DEFINITIONAL_REPRESENTATION('',(#393),#397);
#393 = LINE('',#394,#395);
#394 = CARTESIAN_POINT('',(0.,0.33315));
#395 = VECTOR('',#396,1.);
#396 = DIRECTION('',(1.,0.));
#397 = ( GEOMETRIC_REPRESENTATION_CONTEXT(2) 
PARAMETRIC_REPRESENTATION_CONTEXT() REPRESENTATION_CONTEXT('2D SPACE',''
  ) );
#398 = ( GEOMETRIC_REPRESENTATION_CONTEXT(3) 
GLOBAL_UNCERTAINTY_ASSIGNED_CONTEXT((#402)) GLOBAL_UNIT_ASSIGNED_CONTEXT
((#399,#400,#401)) REPRESENTATION_CONTEXT('Context #1',
  '3D Context with UNIT and UNCERTAINTY') );
#399 = ( LENGTH_UNIT() NAMED_UNIT(*) SI_UNIT(.MILLI.,.METRE.) );
#400 = ( NAMED_UNIT(*) PLANE_ANGLE_UNIT() SI_UNIT($,.RADIAN.) );
#401 = ( NAMED_UNIT(*) SI_UNIT($,.STERADIAN.) SOLID_ANGLE_UNIT() );
#402 = UNCERTAINTY_MEASURE_WITH_UNIT(LENGTH_MEASURE(1.E-07),#399,
  'distance_accuracy_value','confusion accuracy');
#403 = CONTEXT_DEPENDENT_SHAPE_REPRESENTATION(#404,#406);
#404 = ( REPRESENTATION_RELATIONSHIP('','',#327,#10) 
REPRESENTATION_RELATIONSHIP_WITH_TRANSFORMATION(#405) 
SHAPE_REPRESENTATION_RELATIONSHIP() );
#405 = ITEM_DEFINED_TRANSFORMATION('','',#11,#27);
#406 = PRODUCT_DEFINITION_SHAPE('Placement','Placement of an item',#407
  );
#407 = NEXT_ASSEMBLY_USAGE_OCCURRENCE('4','','',#5,#322,$);
#408 = PRODUCT_RELATED_PRODUCT_CATEGORY('part',$,(#324));
#409 = SHAPE_DEFINITION_REPRESENTATION(#410,#416);
#410 = PRODUCT_DEFINITION_SHAPE('','',#411);
#411 = PRODUCT_DEFINITION('design','',#412,#415);
#412 = PRODUCT_DEFINITION_FORMATION('','',#413);
#413 = PRODUCT('Open CASCADE STEP translator 7.9 1.5',
  'Open CASCADE STEP translator 7.9 1.5','',(#414));
#414 = PRODUCT_CONTEXT('',#2,'mechanical');
#415 = PRODUCT_DEFINITION_CONTEXT('part definition',#2,'design');
#416 = MANIFOLD_SURFACE_SHAPE_REPRESENTATION('',(#11,#417),#487);
#417 = SHELL_BASED_SURFACE_MODEL('',(#418));
#418 = OPEN_SHELL('',(#419));
#419 = ADVANCED_FACE('',(#420),#433,.T.);
#420 = FACE_BOUND('',#421,.T.);
#421 = EDGE_LOOP('',(#422,#444,#459,#474));
#422 = ORIENTED_EDGE('',*,*,#423,.F.);
#423 = EDGE_CURVE('',#424,#426,#428,.T.);
#424 = VERTEX_POINT('',#425);
#425 = CARTESIAN_POINT('',(3.00000306E-04,3.00000306E-04,
    3.000000000708E-10));
#426 = VERTEX_POINT('',#427);
#427 = CARTESIAN_POINT('',(0.999699999694,3.00000306E-04,
    3.000000000708E-10));
#428 = SURFACE_CURVE('',#429,(#432),.PCURVE_S1.);
#429 = B_SPLINE_CURVE_WITH_KNOTS('',1,(#430,#431),.UNSPECIFIED.,.F.,.F.,
  (2,2),(-0.4997,0.4997),.PIECEWISE_BEZIER_KNOTS.);
#430 = CARTESIAN_POINT('',(3.00000306E-04,3.00000306E-04,
    3.000000000708E-10));
#431 = CARTESIAN_POINT('',(0.999699999694,3.00000306E-04,
    3.000000000708E-10));
#432 = PCURVE('',#433,#438);
#433 = B_SPLINE_SURFACE_WITH_KNOTS('',1,1,(
    (#434,#435)
    ,(#436,#437
    )),.UNSPECIFIED.,.F.,.F.,.F.,(2,2),(2,2),(0.,1.8E-02),(-0.4997,
    0.4997),.PIECEWISE_BEZIER_KNOTS.);
#434 = CARTESIAN_POINT('',(3.00000306E-04,3.00000306E-04,
    3.000000000708E-10));
#435 = CARTESIAN_POINT('',(0.999699999694,3.00000306E-04,
    3.000000000708E-10));
#436 = CARTESIAN_POINT('',(3.00000306E-04,3.00000306E-04,
    1.80000002908E-02));
#437 = CARTESIAN_POINT('',(0.999699999694,3.00000306E-04,
    1.80000002908E-02));
#438 = DEFINITIONAL_REPRESENTATION('',(#439),#443);
#439 = LINE('',#440,#441);
#440 = CARTESIAN_POINT('',(0.,0.));
#441 = VECTOR('',#442,1.);
#442 = DIRECTION('',(0.,1.));
#443 = ( GEOMETRIC_REPRESENTATION_CONTEXT(2) 
PARAMETRIC_REPRESENTATION_CONTEXT() REPRESENTATION_CONTEXT('2D SPACE',''
  ) );
#444 = ORIENTED_EDGE('',*,*,#445,.T.);
#445 = EDGE_CURVE('',#424,#446,#448,.T.);
#446 = VERTEX_POINT('',#447);
#447 = CARTESIAN_POINT('',(3.00000306E-04,3.00000306E-04,
    1.80000002908E-02));
#448 = SURFACE_CURVE('',#449,(#452),.PCURVE_S1.);
#449 = B_SPLINE_CURVE_WITH_KNOTS('',1,(#450,#451),.UNSPECIFIED.,.F.,.F.,
  (2,2),(0.,1.8E-02),.PIECEWISE_BEZIER_KNOTS.);
#450 = CARTESIAN_POINT('',(3.00000306E-04,3.00000306E-04,
    3.000000000708E-10));
#451 = CARTESIAN_POINT('',(3.00000306E-04,3.00000306E-04,
    1.80000002908E-02));
#452 = PCURVE('',#433,#453);
#453 = DEFINITIONAL_REPRESENTATION('',(#454),#458);
#454 = LINE('',#455,#456);
#455 = CARTESIAN_POINT('',(0.,-0.4997));
#456 = VECTOR('',#457,1.);
#457 = DIRECTION('',(1.,0.));
#458 = ( GEOMETRIC_REPRESENTATION_CONTEXT(2) 
PARAMETRIC_REPRESENTATION_CONTEXT() REPRESENTATION_CONTEXT('2D SPACE',''
  ) );
#459 = ORIENTED_EDGE('',*,*,#460,.T.);
#460 = EDGE_CURVE('',#446,#461,#463,.T.);
#461 = VERTEX_POINT('',#462);
#462 = CARTESIAN_POINT('',(0.999699999694,3.00000306E-04,
    1.80000002908E-02));
#463 = SURFACE_CURVE('',#464,(#467),.PCURVE_S1.);
#464 = B_SPLINE_CURVE_WITH_KNOTS('',1,(#465,#466),.UNSPECIFIED.,.F.,.F.,
  (2,2),(-0.4997,0.4997),.PIECEWISE_BEZIER_KNOTS.);
#465 = CARTESIAN_POINT('',(3.00000306E-04,3.00000306E-04,
    1.80000002908E-02));
#466 = CARTESIAN_POINT('',(0.999699999694,3.00000306E-04,
    1.80000002908E-02));
#467 = PCURVE('',#433,#468);
#468 = DEFINITIONAL_REPRESENTATION('',(#469),#473);
#469 = LINE('',#470,#471);
#470 = CARTESIAN_POINT('',(1.8E-02,0.));
#471 = VECTOR('',#472,1.);
#472 = DIRECTION('',(0.,1.));
#473 = ( GEOMETRIC_REPRESENTATION_CONTEXT(2) 
PARAMETRIC_REPRESENTATION_CONTEXT() REPRESENTATION_CONTEXT('2D SPACE',''
  ) );
#474 = ORIENTED_EDGE('',*,*,#475,.F.);
#475 = EDGE_CURVE('',#426,#461,#476,.T.);
#476 = SURFACE_CURVE('',#477,(#480),.PCURVE_S1.);
#477 = B_SPLINE_CURVE_WITH_KNOTS('',1,(#478,#479),.UNSPECIFIED.,.F.,.F.,
  (2,2),(0.,1.8E-02),.PIECEWISE_BEZIER_KNOTS.);
#478 = CARTESIAN_POINT('',(0.999699999694,3.00000306E-04,
    3.000000000708E-10));
#479 = CARTESIAN_POINT('',(0.999699999694,3.00000306E-04,
    1.80000002908E-02));
#480 = PCURVE('',#433,#481);
#481 = DEFINITIONAL_REPRESENTATION('',(#482),#486);
#482 = LINE('',#483,#484);
#483 = CARTESIAN_POINT('',(0.,0.4997));
#484 = VECTOR('',#485,1.);
#485 = DIRECTION('',(1.,0.));
#486 = ( GEOMETRIC_REPRESENTATION_CONTEXT(2) 
PARAMETRIC_REPRESENTATION_CONTEXT() REPRESENTATION_CONTEXT('2D SPACE',''
  ) );
#487 = ( GEOMETRIC_REPRESENTATION_CONTEXT(3) 
GLOBAL_UNCERTAINTY_ASSIGNED_CONTEXT((#491)) GLOBAL_UNIT_ASSIGNED_CONTEXT
((#488,#489,#490)) REPRESENTATION_CONTEXT('Context #1',
  '3D Context with UNIT and UNCERTAINTY') );
#488 = ( LENGTH_UNIT() NAMED_UNIT(*) SI_UNIT(.MILLI.,.METRE.) );
#489 = ( NAMED_UNIT(*) PLANE_ANGLE_UNIT() SI_UNIT($,.RADIAN.) );
#490 = ( NAMED_UNIT(*) SI_UNIT($,.STERADIAN.) SOLID_ANGLE_UNIT() );
#491 = UNCERTAINTY_MEASURE_WITH_UNIT(LENGTH_MEASURE(1.E-07),#488,
  'distance_accuracy_value','confusion accuracy');
#492 = CONTEXT_DEPENDENT_SHAPE_REPRESENTATION(#493,#495);
#493 = ( REPRESENTATION_RELATIONSHIP('','',#416,#10) 
REPRESENTATION_RELATIONSHIP_WITH_TRANSFORMATION(#494) 
SHAPE_REPRESENTATION_RELATIONSHIP() );
#494 = ITEM_DEFINED_TRANSFORMATION('','',#11,#31);
#495 = PRODUCT_DEFINITION_SHAPE('Placement','Placement of an item',#496
  );
#496 = NEXT_ASSEMBLY_USAGE_OCCURRENCE('5','','',#5,#411,$);
#497 = PRODUCT_RELATED_PRODUCT_CATEGORY('part',$,(#413));
#498 = SHAPE_DEFINITION_REPRESENTATION(#499,#505);
#499 = PRODUCT_DEFINITION_SHAPE('','',#500);
#500 = PRODUCT_DEFINITION('design','',#501,#504);
#501 = PRODUCT_DEFINITION_FORMATION('','',#502);
#502 = PRODUCT('Open CASCADE STEP translator 7.9 1.6',
  'Open CASCADE STEP translator 7.9 1.6','',(#503));
#503 = PRODUCT_CONTEXT('',#2,'mechanical');
#504 = PRODUCT_DEFINITION_CONTEXT('part definition',#2,'design');
#505 = MANIFOLD_SURFACE_SHAPE_REPRESENTATION('',(#11,#506),#576);
#506 = SHELL_BASED_SURFACE_MODEL('',(#507));
#507 = OPEN_SHELL('',(#508));
#508 = ADVANCED_FACE('',(#509),#522,.T.);
#509 = FACE_BOUND('',#510,.T.);
#510 = EDGE_LOOP('',(#511,#533,#548,#563));
#511 = ORIENTED_EDGE('',*,*,#512,.F.);
#512 = EDGE_CURVE('',#513,#515,#517,.T.);
#513 = VERTEX_POINT('',#514);
#514 = CARTESIAN_POINT('',(0.999699999694,3.00000306E-04,
    1.80000003108E-02));
#515 = VERTEX_POINT('',#516);
#516 = CARTESIAN_POINT('',(0.999699999694,0.666599999994,
    1.80000003108E-02));
#517 = SURFACE_CURVE('',#518,(#521),.PCURVE_S1.);
#518 = B_SPLINE_CURVE_WITH_KNOTS('',1,(#519,#520),.UNSPECIFIED.,.F.,.F.,
  (2,2),(-0.33315,0.33315),.PIECEWISE_BEZIER_KNOTS.);
#519 = CARTESIAN_POINT('',(0.999699999694,3.00000306E-04,
    1.80000003108E-02));
#520 = CARTESIAN_POINT('',(0.999699999694,0.666599999994,
    1.80000003108E-02));
#521 = PCURVE('',#522,#527);
#522 = B_SPLINE_SURFACE_WITH_KNOTS('',1,1,(
    (#523,#524)
    ,(#525,#526
    )),.UNSPECIFIED.,.F.,.F.,.F.,(2,2),(2,2),(-1.8E-02,0.),(-0.33315,
    0.33315),.PIECEWISE_BEZIER_KNOTS.);
#523 = CARTESIAN_POINT('',(0.999699999694,3.00000306E-04,
    1.80000003108E-02));
#524 = CARTESIAN_POINT('',(0.999699999694,0.666599999994,
    1.80000003108E-02));
#525 = CARTESIAN_POINT('',(0.999699999694,3.00000306E-04,
    3.200000021908E-10));
#526 = CARTESIAN_POINT('',(0.999699999694,0.666599999994,
    3.200000021908E-10));
#527 = DEFINITIONAL_REPRESENTATION('',(#528),#532);
#528 = LINE('',#529,#530);
#529 = CARTESIAN_POINT('',(-1.8E-02,0.));
#530 = VECTOR('',#531,1.);
#531 = DIRECTION('',(0.,1.));
#532 = ( GEOMETRIC_REPRESENTATION_CONTEXT(2) 
PARAMETRIC_REPRESENTATION_CONTEXT() REPRESENTATION_CONTEXT('2D SPACE',''
  ) );
#533 = ORIENTED_EDGE('',*,*,#534,.T.);
#534 = EDGE_CURVE('',#513,#535,#537,.T.);
#535 = VERTEX_POINT('',#536);
#536 = CARTESIAN_POINT('',(0.999699999694,3.00000306E-04,
    3.200000021908E-10));
#537 = SURFACE_CURVE('',#538,(#541),.PCURVE_S1.);
#538 = B_SPLINE_CURVE_WITH_KNOTS('',1,(#539,#540),.UNSPECIFIED.,.F.,.F.,
  (2,2),(-1.8E-02,0.),.PIECEWISE_BEZIER_KNOTS.);
#539 = CARTESIAN_POINT('',(0.999699999694,3.00000306E-04,
    1.80000003108E-02));
#540 = CARTESIAN_POINT('',(0.999699999694,3.00000306E-04,
    3.200000021908E-10));
#541 = PCURVE('',#522,#542);
#542 = DEFINITIONAL_REPRESENTATION('',(#543),#547);
#543 = LINE('',#544,#545);
#544 = CARTESIAN_POINT('',(0.,-0.33315));
#545 = VECTOR('',#546,1.);
#546 = DIRECTION('',(1.,0.));
#547 = ( GEOMETRIC_REPRESENTATION_CONTEXT(2) 
PARAMETRIC_REPRESENTATION_CONTEXT() REPRESENTATION_CONTEXT('2D SPACE',''
  ) );
#548 = ORIENTED_EDGE('',*,*,#549,.T.);
#549 = EDGE_CURVE('',#535,#550,#552,.T.);
#550 = VERTEX_POINT('',#551);
#551 = CARTESIAN_POINT('',(0.999699999694,0.666599999994,
    3.200000021908E-10));
#552 = SURFACE_CURVE('',#553,(#556),.PCURVE_S1.);
#553 = B_SPLINE_CURVE_WITH_KNOTS('',1,(#554,#555),.UNSPECIFIED.,.F.,.F.,
  (2,2),(-0.33315,0.33315),.PIECEWISE_BEZIER_KNOTS.);
#554 = CARTESIAN_POINT('',(0.999699999694,3.00000306E-04,
    3.200000021908E-10));
#555 = CARTESIAN_POINT('',(0.999699999694,0.666599999994,
    3.200000021908E-10));
#556 = PCURVE('',#522,#557);
#557 = DEFINITIONAL_REPRESENTATION('',(#558),#562);
#558 = LINE('',#559,#560);
#559 = CARTESIAN_POINT('',(0.,0.));
#560 = VECTOR('',#561,1.);
#561 = DIRECTION('',(0.,1.));
#562 = ( GEOMETRIC_REPRESENTATION_CONTEXT(2) 
PARAMETRIC_REPRESENTATION_CONTEXT() REPRESENTATION_CONTEXT('2D SPACE',''
  ) );
#563 = ORIENTED_EDGE('',*,*,#564,.F.);
#564 = EDGE_CURVE('',#515,#550,#565,.T.);
#565 = SURFACE_CURVE('',#566,(#569),.PCURVE_S1.);
#566 = B_SPLINE_CURVE_WITH_KNOTS('',1,(#567,#568),.UNSPECIFIED.,.F.,.F.,
  (2,2),(-1.8E-02,0.),.PIECEWISE_BEZIER_KNOTS.);
#567 = CARTESIAN_POINT('',(0.999699999694,0.666599999994,
    1.80000003108E-02));
#568 = CARTESIAN_POINT('',(0.999699999694,0.666599999994,
    3.200000021908E-10));
#569 = PCURVE('',#522,#570);
#570 = DEFINITIONAL_REPRESENTATION('',(#571),#575);
#571 = LINE('',#572,#573);
#572 = CARTESIAN_POINT('',(0.,0.33315));
#573 = VECTOR('',#574,1.);
#574 = DIRECTION('',(1.,0.));
#575 = ( GEOMETRIC_REPRESENTATION_CONTEXT(2) 
PARAMETRIC_REPRESENTATION_CONTEXT() REPRESENTATION_CONTEXT('2D SPACE',''
  ) );
#576 = ( GEOMETRIC_REPRESENTATION_CONTEXT(3) 
GLOBAL_UNCERTAINTY_ASSIGNED_CONTEXT((#580)) GLOBAL_UNIT_ASSIGNED_CONTEXT
((#577,#578,#579)) REPRESENTATION_CONTEXT('Context #1',
  '3D Context with UNIT and UNCERTAINTY') );
#577 = ( LENGTH_UNIT() NAMED_UNIT(*) SI_UNIT(.MILLI.,.METRE.) );
#578 = ( NAMED_UNIT(*) PLANE_ANGLE_UNIT() SI_UNIT($,.RADIAN.) );
#579 = ( NAMED_UNIT(*) SI_UNIT($,.STERADIAN.) SOLID_ANGLE_UNIT() );
#580 = UNCERTAINTY_MEASURE_WITH_UNIT(LENGTH_MEASURE(1.E-07),#577,
  'distance_accuracy_value','confusion accuracy');
#581 = CONTEXT_DEPENDENT_SHAPE_REPRESENTATION(#582,#584);
#582 = ( REPRESENTATION_RELATIONSHIP('','',#505,#10) 
REPRESENTATION_RELATIONSHIP_WITH_TRANSFORMATION(#583) 
SHAPE_REPRESENTATION_RELATIONSHIP() );
#583 = ITEM_DEFINED_TRANSFORMATION('','',#11,#35);
#584 = PRODUCT_DEFINITION_SHAPE('Placement','Placement of an item',#585
  );
#585 = NEXT_ASSEMBLY_USAGE_OCCURRENCE('6','','',#5,#500,$);
#586 = PRODUCT_RELATED_PRODUCT_CATEGORY('part',$,(#502));
#587 = SHAPE_DEFINITION_REPRESENTATION(#588,#594);
#588 = PRODUCT_DEFINITION_SHAPE('','',#589);
#589 = PRODUCT_DEFINITION('design','',#590,#593);
#590 = PRODUCT_DEFINITION_FORMATION('','',#591);
#591 = PRODUCT('Open CASCADE STEP translator 7.9 1.7',
  'Open CASCADE STEP translator 7.9 1.7','',(#592));
#592 = PRODUCT_CONTEXT('',#2,'mechanical');
#593 = PRODUCT_DEFINITION_CONTEXT('part definition',#2,'design');
#594 = MANIFOLD_SURFACE_SHAPE_REPRESENTATION('',(#11,#595),#676);
#595 = SHELL_BASED_SURFACE_MODEL('',(#596));
#596 = OPEN_SHELL('',(#597));
#597 = ADVANCED_FACE('',(#598),#611,.T.);
#598 = FACE_BOUND('',#599,.T.);
#599 = EDGE_LOOP('',(#600,#639,#657,#658));
#600 = ORIENTED_EDGE('',*,*,#601,.F.);
#601 = EDGE_CURVE('',#602,#604,#606,.T.);
#602 = VERTEX_POINT('',#603);
#603 = CARTESIAN_POINT('',(0.15000000022,0.519999999994,
    3.000000000708E-10));
#604 = VERTEX_POINT('',#605);
#605 = CARTESIAN_POINT('',(0.15000000022,0.519999999994,
    1.80000002908E-02));
#606 = SEAM_CURVE('',#607,(#610,#632),.PCURVE_S1.);
#607 = B_SPLINE_CURVE_WITH_KNOTS('',1,(#608,#609),.UNSPECIFIED.,.F.,.F.,
  (2,2),(0.,1.8E-02),.PIECEWISE_BEZIER_KNOTS.);
#608 = CARTESIAN_POINT('',(0.15000000022,0.519999999994,
    3.000000000708E-10));
#609 = CARTESIAN_POINT('',(0.15000000022,0.519999999994,
    1.80000002908E-02));
#610 = PCURVE('',#611,#626);
#611 = ( BOUNDED_SURFACE() B_SPLINE_SURFACE(2,1,(
    (#612,#613)
    ,(#614,#615)
    ,(#616,#617)
    ,(#618,#619)
    ,(#620,#621)
    ,(#622,#623)
,(#624,#625
    )),.UNSPECIFIED.,.T.,.F.,.F.) B_SPLINE_SURFACE_WITH_KNOTS((1,2,2,2,2
    ,1),(2,2),(-2.094395,0.,2.094395,4.18879,6.283185,8.37758),(0.,
1.8E-02),.UNSPECIFIED.) GEOMETRIC_REPRESENTATION_ITEM() 
RATIONAL_B_SPLINE_SURFACE((
    (1.,1.)
    ,(0.5,0.5)
    ,(1.,1.)
    ,(0.5,0.5)
    ,(1.,1.)
    ,(0.5,0.5)
,(1.,1.))) REPRESENTATION_ITEM('') SURFACE() );
#612 = CARTESIAN_POINT('',(0.15000000022,0.519999999994,
    3.000000000708E-10));
#613 = CARTESIAN_POINT('',(0.15000000022,0.519999999994,
    1.80000002908E-02));
#614 = CARTESIAN_POINT('',(0.15000000022,0.433397459673,
    3.000000000708E-10));
#615 = CARTESIAN_POINT('',(0.15000000022,0.433397459673,
    1.80000002908E-02));
#616 = CARTESIAN_POINT('',(0.22500000019,0.476698729834,
    3.000000000708E-10));
#617 = CARTESIAN_POINT('',(0.22500000019,0.476698729834,
    1.80000002908E-02));
#618 = CARTESIAN_POINT('',(0.30000000016,0.519999999994,
    3.000000000708E-10));
#619 = CARTESIAN_POINT('',(0.30000000016,0.519999999994,
    1.80000002908E-02));
#620 = CARTESIAN_POINT('',(0.22500000019,0.563301270154,
    3.000000000708E-10));
#621 = CARTESIAN_POINT('',(0.22500000019,0.563301270154,
    1.80000002908E-02));
#622 = CARTESIAN_POINT('',(0.15000000022,0.606602540315,
    3.000000000708E-10));
#623 = CARTESIAN_POINT('',(0.15000000022,0.606602540315,
    1.80000002908E-02));
#624 = CARTESIAN_POINT('',(0.15000000022,0.519999999994,
    3.000000000708E-10));
#625 = CARTESIAN_POINT('',(0.15000000022,0.519999999994,
    1.80000002908E-02));
#626 = DEFINITIONAL_REPRESENTATION('',(#627),#631);
#627 = LINE('',#628,#629);
#628 = CARTESIAN_POINT('',(0.,0.));
#629 = VECTOR('',#630,1.);
#630 = DIRECTION('',(0.,1.));
#631 = ( GEOMETRIC_REPRESENTATION_CONTEXT(2) 
PARAMETRIC_REPRESENTATION_CONTEXT() REPRESENTATION_CONTEXT('2D SPACE',''
  ) );
#632 = PCURVE('',#611,#633);
#633 = DEFINITIONAL_REPRESENTATION('',(#634),#638);
#634 = LINE('',#635,#636);
#635 = CARTESIAN_POINT('',(6.283185,0.));
#636 = VECTOR('',#637,1.);
#637 = DIRECTION('',(0.,1.));
#638 = ( GEOMETRIC_REPRESENTATION_CONTEXT(2) 
PARAMETRIC_REPRESENTATION_CONTEXT() REPRESENTATION_CONTEXT('2D SPACE',''
  ) );
#639 = ORIENTED_EDGE('',*,*,#640,.T.);
#640 = EDGE_CURVE('',#602,#602,#641,.T.);
#641 = SURFACE_CURVE('',#642,(#650),.PCURVE_S1.);
#642 = ( BOUNDED_CURVE() B_SPLINE_CURVE(2,(#643,#644,#645,#646,#647,#648
,#649),.UNSPECIFIED.,.T.,.F.) B_SPLINE_CURVE_WITH_KNOTS((1,2,2,2,2,1),(
-2.094395,0.,2.094395,4.18879,6.283185,8.37758),.UNSPECIFIED.) CURVE() 
GEOMETRIC_REPRESENTATION_ITEM() RATIONAL_B_SPLINE_CURVE((1.,0.5,1.,0.5,
1.,0.5,1.)) REPRESENTATION_ITEM('') );
#643 = CARTESIAN_POINT('',(0.15000000022,0.519999999994,
    3.000000000708E-10));
#644 = CARTESIAN_POINT('',(0.15000000022,0.433397459673,
    3.000000000708E-10));
#645 = CARTESIAN_POINT('',(0.22500000019,0.476698729834,
    3.000000000708E-10));
#646 = CARTESIAN_POINT('',(0.30000000016,0.519999999994,
    3.000000000708E-10));
#647 = CARTESIAN_POINT('',(0.22500000019,0.563301270154,
    3.000000000708E-10));
#648 = CARTESIAN_POINT('',(0.15000000022,0.606602540315,
    3.000000000708E-10));
#649 = CARTESIAN_POINT('',(0.15000000022,0.519999999994,
    3.000000000708E-10));
#650 = PCURVE('',#611,#651);
#651 = DEFINITIONAL_REPRESENTATION('',(#652),#656);
#652 = LINE('',#653,#654);
#653 = CARTESIAN_POINT('',(0.,0.));
#654 = VECTOR('',#655,1.);
#655 = DIRECTION('',(1.,0.));
#656 = ( GEOMETRIC_REPRESENTATION_CONTEXT(2) 
PARAMETRIC_REPRESENTATION_CONTEXT() REPRESENTATION_CONTEXT('2D SPACE',''
  ) );
#657 = ORIENTED_EDGE('',*,*,#601,.T.);
#658 = ORIENTED_EDGE('',*,*,#659,.F.);
#659 = EDGE_CURVE('',#604,#604,#660,.T.);
#660 = SURFACE_CURVE('',#661,(#669),.PCURVE_S1.);
#661 = ( BOUNDED_CURVE() B_SPLINE_CURVE(2,(#662,#663,#664,#665,#666,#667
,#668),.UNSPECIFIED.,.T.,.F.) B_SPLINE_CURVE_WITH_KNOTS((1,2,2,2,2,1),(
-2.094395,0.,2.094395,4.18879,6.283185,8.37758),.UNSPECIFIED.) CURVE() 
GEOMETRIC_REPRESENTATION_ITEM() RATIONAL_B_SPLINE_CURVE((1.,0.5,1.,0.5,
1.,0.5,1.)) REPRESENTATION_ITEM('') );
#662 = CARTESIAN_POINT('',(0.15000000022,0.519999999994,
    1.80000002908E-02));
#663 = CARTESIAN_POINT('',(0.15000000022,0.433397459673,
    1.80000002908E-02));
#664 = CARTESIAN_POINT('',(0.22500000019,0.476698729834,
    1.80000002908E-02));
#665 = CARTESIAN_POINT('',(0.30000000016,0.519999999994,
    1.80000002908E-02));
#666 = CARTESIAN_POINT('',(0.22500000019,0.563301270154,
    1.80000002908E-02));
#667 = CARTESIAN_POINT('',(0.15000000022,0.606602540315,
    1.80000002908E-02));
#668 = CARTESIAN_POINT('',(0.15000000022,0.519999999994,
    1.80000002908E-02));
#669 = PCURVE('',#611,#670);
#670 = DEFINITIONAL_REPRESENTATION('',(#671),#675);
#671 = LINE('',#672,#673);
#672 = CARTESIAN_POINT('',(0.,1.8E-02));
#673 = VECTOR('',#674,1.);
#674 = DIRECTION('',(1.,0.));
#675 = ( GEOMETRIC_REPRESENTATION_CONTEXT(2) 
PARAMETRIC_REPRESENTATION_CONTEXT() REPRESENTATION_CONTEXT('2D SPACE',''
  ) );
#676 = ( GEOMETRIC_REPRESENTATION_CONTEXT(3) 
GLOBAL_UNCERTAINTY_ASSIGNED_CONTEXT((#680)) GLOBAL_UNIT_ASSIGNED_CONTEXT
((#677,#678,#679)) REPRESENTATION_CONTEXT('Context #1',
  '3D Context with UNIT and UNCERTAINTY') );
#677 = ( LENGTH_UNIT() NAMED_UNIT(*) SI_UNIT(.MILLI.,.METRE.) );
#678 = ( NAMED_UNIT(*) PLANE_ANGLE_UNIT() SI_UNIT($,.RADIAN.) );
#679 = ( NAMED_UNIT(*) SI_UNIT($,.STERADIAN.) SOLID_ANGLE_UNIT() );
#680 = UNCERTAINTY_MEASURE_WITH_UNIT(LENGTH_MEASURE(1.E-07),#677,
  'distance_accuracy_value','confusion accuracy');
#681 = CONTEXT_DEPENDENT_SHAPE_REPRESENTATION(#682,#684);
#682 = ( REPRESENTATION_RELATIONSHIP('','',#594,#10) 
REPRESENTATION_RELATIONSHIP_WITH_TRANSFORMATION(#683) 
SHAPE_REPRESENTATION_RELATIONSHIP() );
#683 = ITEM_DEFINED_TRANSFORMATION('','',#11,#39);
#684 = PRODUCT_DEFINITION_SHAPE('Placement','Placement of an item',#685
  );
#685 = NEXT_ASSEMBLY_USAGE_OCCURRENCE('7','','',#5,#589,$);
#686 = PRODUCT_RELATED_PRODUCT_CATEGORY('part',$,(#591));
#687 = SHAPE_DEFINITION_REPRESENTATION(#688,#694);
#688 = PRODUCT_DEFINITION_SHAPE('','',#689);
#689 = PRODUCT_DEFINITION('design','',#690,#693);
#690 = PRODUCT_DEFINITION_FORMATION('','',#691);
#691 = PRODUCT('Open CASCADE STEP translator 7.9 1.8',
  'Open CASCADE STEP translator 7.9 1.8','',(#692));
#692 = PRODUCT_CONTEXT('',#2,'mechanical');
#693 = PRODUCT_DEFINITION_CONTEXT('part definition',#2,'design');
#694 = MANIFOLD_SURFACE_SHAPE_REPRESENTATION('',(#11,#695),#776);
#695 = SHELL_BASED_SURFACE_MODEL('',(#696));
#696 = OPEN_SHELL('',(#697));
#697 = ADVANCED_FACE('',(#698),#711,.T.);
#698 = FACE_BOUND('',#699,.T.);
#699 = EDGE_LOOP('',(#700,#739,#757,#758));
#700 = ORIENTED_EDGE('',*,*,#701,.F.);
#701 = EDGE_CURVE('',#702,#704,#706,.T.);
#702 = VERTEX_POINT('',#703);
#703 = CARTESIAN_POINT('',(0.15000000022,0.120000000248,
    3.000000000708E-10));
#704 = VERTEX_POINT('',#705);
#705 = CARTESIAN_POINT('',(0.15000000022,0.120000000248,
    1.80000002908E-02));
#706 = SEAM_CURVE('',#707,(#710,#732),.PCURVE_S1.);
#707 = B_SPLINE_CURVE_WITH_KNOTS('',1,(#708,#709),.UNSPECIFIED.,.F.,.F.,
  (2,2),(0.,1.8E-02),.PIECEWISE_BEZIER_KNOTS.);
#708 = CARTESIAN_POINT('',(0.15000000022,0.120000000248,
    3.000000000708E-10));
#709 = CARTESIAN_POINT('',(0.15000000022,0.120000000248,
    1.80000002908E-02));
#710 = PCURVE('',#711,#726);
#711 = ( BOUNDED_SURFACE() B_SPLINE_SURFACE(2,1,(
    (#712,#713)
    ,(#714,#715)
    ,(#716,#717)
    ,(#718,#719)
    ,(#720,#721)
    ,(#722,#723)
,(#724,#725
    )),.UNSPECIFIED.,.T.,.F.,.F.) B_SPLINE_SURFACE_WITH_KNOTS((1,2,2,2,2
    ,1),(2,2),(-2.094395,0.,2.094395,4.18879,6.283185,8.37758),(0.,
1.8E-02),.UNSPECIFIED.) GEOMETRIC_REPRESENTATION_ITEM() 
RATIONAL_B_SPLINE_SURFACE((
    (1.,1.)
    ,(0.5,0.5)
    ,(1.,1.)
    ,(0.5,0.5)
    ,(1.,1.)
    ,(0.5,0.5)
,(1.,1.))) REPRESENTATION_ITEM('') SURFACE() );
#712 = CARTESIAN_POINT('',(0.15000000022,0.120000000248,
    3.000000000708E-10));
#713 = CARTESIAN_POINT('',(0.15000000022,0.120000000248,
    1.80000002908E-02));
#714 = CARTESIAN_POINT('',(0.15000000022,3.339745992714E-02,
    3.000000000708E-10));
#715 = CARTESIAN_POINT('',(0.15000000022,3.339745992714E-02,
    1.80000002908E-02));
#716 = CARTESIAN_POINT('',(0.22500000019,7.669873008757E-02,
    3.000000000708E-10));
#717 = CARTESIAN_POINT('',(0.22500000019,7.669873008757E-02,
    1.80000002908E-02));
#718 = CARTESIAN_POINT('',(0.30000000016,0.120000000248,
    3.000000000708E-10));
#719 = CARTESIAN_POINT('',(0.30000000016,0.120000000248,
    1.80000002908E-02));
#720 = CARTESIAN_POINT('',(0.22500000019,0.163301270408,
    3.000000000708E-10));
#721 = CARTESIAN_POINT('',(0.22500000019,0.163301270408,
    1.80000002908E-02));
#722 = CARTESIAN_POINT('',(0.15000000022,0.206602540569,
    3.000000000708E-10));
#723 = CARTESIAN_POINT('',(0.15000000022,0.206602540569,
    1.80000002908E-02));
#724 = CARTESIAN_POINT('',(0.15000000022,0.120000000248,
    3.000000000708E-10));
#725 = CARTESIAN_POINT('',(0.15000000022,0.120000000248,
    1.80000002908E-02));
#726 = DEFINITIONAL_REPRESENTATION('',(#727),#731);
#727 = LINE('',#728,#729);
#728 = CARTESIAN_POINT('',(0.,0.));
#729 = VECTOR('',#730,1.);
#730 = DIRECTION('',(0.,1.));
#731 = ( GEOMETRIC_REPRESENTATION_CONTEXT(2) 
PARAMETRIC_REPRESENTATION_CONTEXT() REPRESENTATION_CONTEXT('2D SPACE',''
  ) );
#732 = PCURVE('',#711,#733);
#733 = DEFINITIONAL_REPRESENTATION('',(#734),#738);
#734 = LINE('',#735,#736);
#735 = CARTESIAN_POINT('',(6.283185,0.));
#736 = VECTOR('',#737,1.);
#737 = DIRECTION('',(0.,1.));
#738 = ( GEOMETRIC_REPRESENTATION_CONTEXT(2) 
PARAMETRIC_REPRESENTATION_CONTEXT() REPRESENTATION_CONTEXT('2D SPACE',''
  ) );
#739 = ORIENTED_EDGE('',*,*,#740,.T.);
#740 = EDGE_CURVE('',#702,#702,#741,.T.);
#741 = SURFACE_CURVE('',#742,(#750),.PCURVE_S1.);
#742 = ( BOUNDED_CURVE() B_SPLINE_CURVE(2,(#743,#744,#745,#746,#747,#748
,#749),.UNSPECIFIED.,.T.,.F.) B_SPLINE_CURVE_WITH_KNOTS((1,2,2,2,2,1),(
-2.094395,0.,2.094395,4.18879,6.283185,8.37758),.UNSPECIFIED.) CURVE() 
GEOMETRIC_REPRESENTATION_ITEM() RATIONAL_B_SPLINE_CURVE((1.,0.5,1.,0.5,
1.,0.5,1.)) REPRESENTATION_ITEM('') );
#743 = CARTESIAN_POINT('',(0.15000000022,0.120000000248,
    3.000000000708E-10));
#744 = CARTESIAN_POINT('',(0.15000000022,3.339745992714E-02,
    3.000000000708E-10));
#745 = CARTESIAN_POINT('',(0.22500000019,7.669873008757E-02,
    3.000000000708E-10));
#746 = CARTESIAN_POINT('',(0.30000000016,0.120000000248,
    3.000000000708E-10));
#747 = CARTESIAN_POINT('',(0.22500000019,0.163301270408,
    3.000000000708E-10));
#748 = CARTESIAN_POINT('',(0.15000000022,0.206602540569,
    3.000000000708E-10));
#749 = CARTESIAN_POINT('',(0.15000000022,0.120000000248,
    3.000000000708E-10));
#750 = PCURVE('',#711,#751);
#751 = DEFINITIONAL_REPRESENTATION('',(#752),#756);
#752 = LINE('',#753,#754);
#753 = CARTESIAN_POINT('',(0.,0.));
#754 = VECTOR('',#755,1.);
#755 = DIRECTION('',(1.,0.));
#756 = ( GEOMETRIC_REPRESENTATION_CONTEXT(2) 
PARAMETRIC_REPRESENTATION_CONTEXT() REPRESENTATION_CONTEXT('2D SPACE',''
  ) );
#757 = ORIENTED_EDGE('',*,*,#701,.T.);
#758 = ORIENTED_EDGE('',*,*,#759,.F.);
#759 = EDGE_CURVE('',#704,#704,#760,.T.);
#760 = SURFACE_CURVE('',#761,(#769),.PCURVE_S1.);
#761 = ( BOUNDED_CURVE() B_SPLINE_CURVE(2,(#762,#763,#764,#765,#766,#767
,#768),.UNSPECIFIED.,.T.,.F.) B_SPLINE_CURVE_WITH_KNOTS((1,2,2,2,2,1),(
-2.094395,0.,2.094395,4.18879,6.283185,8.37758),.UNSPECIFIED.) CURVE() 
GEOMETRIC_REPRESENTATION_ITEM() RATIONAL_B_SPLINE_CURVE((1.,0.5,1.,0.5,
1.,0.5,1.)) REPRESENTATION_ITEM('') );
#762 = CARTESIAN_POINT('',(0.15000000022,0.120000000248,
    1.80000002908E-02));
#763 = CARTESIAN_POINT('',(0.15000000022,3.339745992714E-02,
    1.80000002908E-02));
#764 = CARTESIAN_POINT('',(0.22500000019,7.669873008757E-02,
    1.80000002908E-02));
#765 = CARTESIAN_POINT('',(0.30000000016,0.120000000248,
    1.80000002908E-02));
#766 = CARTESIAN_POINT('',(0.22500000019,0.163301270408,
    1.80000002908E-02));
#767 = CARTESIAN_POINT('',(0.15000000022,0.206602540569,
    1.80000002908E-02));
#768 = CARTESIAN_POINT('',(0.15000000022,0.120000000248,
    1.80000002908E-02));
#769 = PCURVE('',#711,#770);
#770 = DEFINITIONAL_REPRESENTATION('',(#771),#775);
#771 = LINE('',#772,#773);
#772 = CARTESIAN_POINT('',(0.,1.8E-02));
#773 = VECTOR('',#774,1.);
#774 = DIRECTION('',(1.,0.));
#775 = ( GEOMETRIC_REPRESENTATION_CONTEXT(2) 
PARAMETRIC_REPRESENTATION_CONTEXT() REPRESENTATION_CONTEXT('2D SPACE',''
  ) );
#776 = ( GEOMETRIC_REPRESENTATION_CONTEXT(3) 
GLOBAL_UNCERTAINTY_ASSIGNED_CONTEXT((#780)) GLOBAL_UNIT_ASSIGNED_CONTEXT
((#777,#778,#779)) REPRESENTATION_CONTEXT('Context #1',
  '3D Context with UNIT and UNCERTAINTY') );
#777 = ( LENGTH_UNIT() NAMED_UNIT(*) SI_UNIT(.MILLI.,.METRE.) );
#778 = ( NAMED_UNIT(*) PLANE_ANGLE_UNIT() SI_UNIT($,.RADIAN.) );
#779 = ( NAMED_UNIT(*) SI_UNIT($,.STERADIAN.) SOLID_ANGLE_UNIT() );
#780 = UNCERTAINTY_MEASURE_WITH_UNIT(LENGTH_MEASURE(1.E-07),#777,
  'distance_accuracy_value','confusion accuracy');
#781 = CONTEXT_DEPENDENT_SHAPE_REPRESENTATION(#782,#784);
#782 = ( REPRESENTATION_RELATIONSHIP('','',#694,#10) 
REPRESENTATION_RELATIONSHIP_WITH_TRANSFORMATION(#783) 
SHAPE_REPRESENTATION_RELATIONSHIP() );
#783 = ITEM_DEFINED_TRANSFORMATION('','',#11,#43);
#784 = PRODUCT_DEFINITION_SHAPE('Placement','Placement of an item',#785
  );
#785 = NEXT_ASSEMBLY_USAGE_OCCURRENCE('8','','',#5,#689,$);
#786 = PRODUCT_RELATED_PRODUCT_CATEGORY('part',$,(#691));
ENDSEC;
END-ISO-10303-21;
