ISO-10303-21;
HEADER;
FILE_DESCRIPTION(('Open CASCADE Model'),'2;1');
FILE_NAME('Open CASCADE Shape Model','2026-07-02T20:44:05',('Author'),(
    'Open CASCADE'),'Open CASCADE STEP processor 7.9','Open CASCADE 7.9'
  ,'Unknown');
FILE_SCHEMA(('AUTOMOTIVE_DESIGN { 1 0 10303 214 1 1 1 1 }'));
ENDSEC;
DATA;
#1 = APPLICATION_PROTOCOL_DEFINITION('international standard',
  'automotive_design',2000,#2);
#2 = APPLICATION_CONTEXT(
  'core data for automotive mechanical design processes');
#3 = SHAPE_DEFINITION_REPRESENTATION(#4,#10);
#4 = PRODUCT_DEFINITION_SHAPE('','',#5);
#5 = PRODUCT_DEFINITION('design','',#6,#9);
#6 = PRODUCT_DEFINITION_FORMATION('','',#7);
#7 = PRODUCT('Open CASCADE STEP translator 7.9 1',
  'Open CASCADE STEP translator 7.9 1','',(#8));
#8 = PRODUCT_CONTEXT('',#2,'mechanical');
#9 = PRODUCT_DEFINITION_CONTEXT('part definition',#2,'design');
#10 = SHAPE_REPRESENTATION('',(#11,#15,#19,#23,#27,#31,#35),#39);
#11 = AXIS2_PLACEMENT_3D('',#12,#13,#14);
#12 = CARTESIAN_POINT('',(0.,0.,0.));
#13 = DIRECTION('',(0.,0.,1.));
#14 = DIRECTION('',(1.,0.,-0.));
#15 = AXIS2_PLACEMENT_3D('',#16,#17,#18);
#16 = CARTESIAN_POINT('',(0.,0.,0.));
#17 = DIRECTION('',(0.,0.,1.));
#18 = DIRECTION('',(1.,0.,-0.));
#19 = AXIS2_PLACEMENT_3D('',#20,#21,#22);
#20 = CARTESIAN_POINT('',(0.,0.,0.));
#21 = DIRECTION('',(0.,0.,1.));
#22 = DIRECTION('',(1.,0.,-0.));
#23 = AXIS2_PLACEMENT_3D('',#24,#25,#26);
#24 = CARTESIAN_POINT('',(0.,0.,0.));
#25 = DIRECTION('',(0.,0.,1.));
#26 = DIRECTION('',(1.,0.,-0.));
#27 = AXIS2_PLACEMENT_3D('',#28,#29,#30);
#28 = CARTESIAN_POINT('',(0.,0.,0.));
#29 = DIRECTION('',(0.,0.,1.));
#30 = DIRECTION('',(1.,0.,-0.));
#31 = AXIS2_PLACEMENT_3D('',#32,#33,#34);
#32 = CARTESIAN_POINT('',(0.,0.,0.));
#33 = DIRECTION('',(0.,0.,1.));
#34 = DIRECTION('',(1.,0.,-0.));
#35 = AXIS2_PLACEMENT_3D('',#36,#37,#38);
#36 = CARTESIAN_POINT('',(0.,0.,0.));
#37 = DIRECTION('',(0.,0.,1.));
#38 = DIRECTION('',(1.,0.,-0.));
#39 = ( GEOMETRIC_REPRESENTATION_CONTEXT(3) 
GLOBAL_UNCERTAINTY_ASSIGNED_CONTEXT((#43)) GLOBAL_UNIT_ASSIGNED_CONTEXT(
(#40,#41,#42)) REPRESENTATION_CONTEXT('Context #1',
  '3D Context with UNIT and UNCERTAINTY') );
#40 = ( LENGTH_UNIT() NAMED_UNIT(*) SI_UNIT(.MILLI.,.METRE.) );
#41 = ( NAMED_UNIT(*) PLANE_ANGLE_UNIT() SI_UNIT($,.RADIAN.) );
#42 = ( NAMED_UNIT(*) SI_UNIT($,.STERADIAN.) SOLID_ANGLE_UNIT() );
#43 = UNCERTAINTY_MEASURE_WITH_UNIT(LENGTH_MEASURE(1.E-07),#40,
  'distance_accuracy_value','confusion accuracy');
#44 = PRODUCT_RELATED_PRODUCT_CATEGORY('part',$,(#7));
#45 = SHAPE_DEFINITION_REPRESENTATION(#46,#52);
#46 = PRODUCT_DEFINITION_SHAPE('','',#47);
#47 = PRODUCT_DEFINITION('design','',#48,#51);
#48 = PRODUCT_DEFINITION_FORMATION('','',#49);
#49 = PRODUCT('Open CASCADE STEP translator 7.9 1.1',
  'Open CASCADE STEP translator 7.9 1.1','',(#50));
#50 = PRODUCT_CONTEXT('',#2,'mechanical');
#51 = PRODUCT_DEFINITION_CONTEXT('part definition',#2,'design');
#52 = MANIFOLD_SURFACE_SHAPE_REPRESENTATION('',(#11,#53),#134);
#53 = SHELL_BASED_SURFACE_MODEL('',(#54));
#54 = OPEN_SHELL('',(#55));
#55 = ADVANCED_FACE('',(#56),#69,.T.);
#56 = FACE_BOUND('',#57,.T.);
#57 = EDGE_LOOP('',(#58,#97,#115,#116));
#58 = ORIENTED_EDGE('',*,*,#59,.F.);
#59 = EDGE_CURVE('',#60,#62,#64,.T.);
#60 = VERTEX_POINT('',#61);
#61 = CARTESIAN_POINT('',(0.271500002756,0.101500004869,4.000000584E-02)
  );
#62 = VERTEX_POINT('',#63);
#63 = CARTESIAN_POINT('',(0.271500002756,0.101500004869,
    6.160000003141E-09));
#64 = SEAM_CURVE('',#65,(#68,#90),.PCURVE_S1.);
#65 = B_SPLINE_CURVE_WITH_KNOTS('',1,(#66,#67),.UNSPECIFIED.,.F.,.F.,(2,
    2),(0.24,0.28),.PIECEWISE_BEZIER_KNOTS.);
#66 = CARTESIAN_POINT('',(0.271500002756,0.101500004869,4.000000584E-02)
  );
#67 = CARTESIAN_POINT('',(0.271500002756,0.101500004869,
    6.160000003141E-09));
#68 = PCURVE('',#69,#84);
#69 = ( BOUNDED_SURFACE() B_SPLINE_SURFACE(2,1,(
    (#70,#71)
    ,(#72,#73)
    ,(#74,#75)
    ,(#76,#77)
    ,(#78,#79)
    ,(#80,#81)
,(#82,#83
    )),.UNSPECIFIED.,.T.,.F.,.F.) B_SPLINE_SURFACE_WITH_KNOTS((1,2,2,2,2
    ,1),(2,2),(-2.094395,0.,2.094395,4.18879,6.283185,8.37758),(0.24,
0.28),.UNSPECIFIED.) GEOMETRIC_REPRESENTATION_ITEM() 
RATIONAL_B_SPLINE_SURFACE((
    (1.,1.)
    ,(0.5,0.5)
    ,(1.,1.)
    ,(0.5,0.5)
    ,(1.,1.)
    ,(0.5,0.5)
,(1.,1.))) REPRESENTATION_ITEM('') SURFACE() );
#70 = CARTESIAN_POINT('',(0.271500002756,0.101500004869,4.000000584E-02)
  );
#71 = CARTESIAN_POINT('',(0.271500002756,0.101500004869,
    6.160000003141E-09));
#72 = CARTESIAN_POINT('',(0.271500002756,-7.431463976439E-02,
    4.000000584E-02));
#73 = CARTESIAN_POINT('',(0.271500002756,-7.431463976439E-02,
    6.160000003141E-09));
#74 = CARTESIAN_POINT('',(0.119250004598,1.35926825523E-02,
    4.000000584E-02));
#75 = CARTESIAN_POINT('',(0.119250004598,1.35926825523E-02,
    6.160000003141E-09));
#76 = CARTESIAN_POINT('',(-3.299999356E-02,0.101500004869,
    4.000000584E-02));
#77 = CARTESIAN_POINT('',(-3.299999356E-02,0.101500004869,
    6.160000003141E-09));
#78 = CARTESIAN_POINT('',(0.119250004598,0.189407327186,4.000000584E-02)
  );
#79 = CARTESIAN_POINT('',(0.119250004598,0.189407327186,
    6.160000003141E-09));
#80 = CARTESIAN_POINT('',(0.271500002756,0.277314649502,4.000000584E-02)
  );
#81 = CARTESIAN_POINT('',(0.271500002756,0.277314649502,
    6.160000003141E-09));
#82 = CARTESIAN_POINT('',(0.271500002756,0.101500004869,4.000000584E-02)
  );
#83 = CARTESIAN_POINT('',(0.271500002756,0.101500004869,
    6.160000003141E-09));
#84 = DEFINITIONAL_REPRESENTATION('',(#85),#89);
#85 = LINE('',#86,#87);
#86 = CARTESIAN_POINT('',(0.,0.));
#87 = VECTOR('',#88,1.);
#88 = DIRECTION('',(0.,1.));
#89 = ( GEOMETRIC_REPRESENTATION_CONTEXT(2) 
PARAMETRIC_REPRESENTATION_CONTEXT() REPRESENTATION_CONTEXT('2D SPACE',''
  ) );
#90 = PCURVE('',#69,#91);
#91 = DEFINITIONAL_REPRESENTATION('',(#92),#96);
#92 = LINE('',#93,#94);
#93 = CARTESIAN_POINT('',(6.283185,0.));
#94 = VECTOR('',#95,1.);
#95 = DIRECTION('',(0.,1.));
#96 = ( GEOMETRIC_REPRESENTATION_CONTEXT(2) 
PARAMETRIC_REPRESENTATION_CONTEXT() REPRESENTATION_CONTEXT('2D SPACE',''
  ) );
#97 = ORIENTED_EDGE('',*,*,#98,.T.);
#98 = EDGE_CURVE('',#60,#60,#99,.T.);
#99 = SURFACE_CURVE('',#100,(#108),.PCURVE_S1.);
#100 = ( BOUNDED_CURVE() B_SPLINE_CURVE(2,(#101,#102,#103,#104,#105,#106
,#107),.UNSPECIFIED.,.T.,.F.) B_SPLINE_CURVE_WITH_KNOTS((1,2,2,2,2,1),(
-2.094395,0.,2.094395,4.18879,6.283185,8.37758),.UNSPECIFIED.) CURVE() 
GEOMETRIC_REPRESENTATION_ITEM() RATIONAL_B_SPLINE_CURVE((1.,0.5,1.,0.5,
1.,0.5,1.)) REPRESENTATION_ITEM('') );
#101 = CARTESIAN_POINT('',(0.271500002756,0.101500004869,4.000000584E-02
    ));
#102 = CARTESIAN_POINT('',(0.271500002756,-7.431463976439E-02,
    4.000000584E-02));
#103 = CARTESIAN_POINT('',(0.119250004598,1.35926825523E-02,
    4.000000584E-02));
#104 = CARTESIAN_POINT('',(-3.299999356E-02,0.101500004869,
    4.000000584E-02));
#105 = CARTESIAN_POINT('',(0.119250004598,0.189407327186,4.000000584E-02
    ));
#106 = CARTESIAN_POINT('',(0.271500002756,0.277314649502,4.000000584E-02
    ));
#107 = CARTESIAN_POINT('',(0.271500002756,0.101500004869,4.000000584E-02
    ));
#108 = PCURVE('',#69,#109);
#109 = DEFINITIONAL_REPRESENTATION('',(#110),#114);
#110 = LINE('',#111,#112);
#111 = CARTESIAN_POINT('',(0.,0.24));
#112 = VECTOR('',#113,1.);
#113 = DIRECTION('',(1.,0.));
#114 = ( GEOMETRIC_REPRESENTATION_CONTEXT(2) 
PARAMETRIC_REPRESENTATION_CONTEXT() REPRESENTATION_CONTEXT('2D SPACE',''
  ) );
#115 = ORIENTED_EDGE('',*,*,#59,.T.);
#116 = ORIENTED_EDGE('',*,*,#117,.F.);
#117 = EDGE_CURVE('',#62,#62,#118,.T.);
#118 = SURFACE_CURVE('',#119,(#127),.PCURVE_S1.);
#119 = ( BOUNDED_CURVE() B_SPLINE_CURVE(2,(#120,#121,#122,#123,#124,#125
,#126),.UNSPECIFIED.,.T.,.F.) B_SPLINE_CURVE_WITH_KNOTS((1,2,2,2,2,1),(
-2.094395,0.,2.094395,4.18879,6.283185,8.37758),.UNSPECIFIED.) CURVE() 
GEOMETRIC_REPRESENTATION_ITEM() RATIONAL_B_SPLINE_CURVE((1.,0.5,1.,0.5,
1.,0.5,1.)) REPRESENTATION_ITEM('') );
#120 = CARTESIAN_POINT('',(0.271500002756,0.101500004869,
    6.160000003141E-09));
#121 = CARTESIAN_POINT('',(0.271500002756,-7.431463976439E-02,
    6.160000003141E-09));
#122 = CARTESIAN_POINT('',(0.119250004598,1.35926825523E-02,
    6.160000003141E-09));
#123 = CARTESIAN_POINT('',(-3.299999356E-02,0.101500004869,
    6.160000003141E-09));
#124 = CARTESIAN_POINT('',(0.119250004598,0.189407327186,
    6.160000003141E-09));
#125 = CARTESIAN_POINT('',(0.271500002756,0.277314649502,
    6.160000003141E-09));
#126 = CARTESIAN_POINT('',(0.271500002756,0.101500004869,
    6.160000003141E-09));
#127 = PCURVE('',#69,#128);
#128 = DEFINITIONAL_REPRESENTATION('',(#129),#133);
#129 = LINE('',#130,#131);
#130 = CARTESIAN_POINT('',(0.,0.28));
#131 = VECTOR('',#132,1.);
#132 = DIRECTION('',(1.,0.));
#133 = ( GEOMETRIC_REPRESENTATION_CONTEXT(2) 
PARAMETRIC_REPRESENTATION_CONTEXT() REPRESENTATION_CONTEXT('2D SPACE',''
  ) );
#134 = ( GEOMETRIC_REPRESENTATION_CONTEXT(3) 
GLOBAL_UNCERTAINTY_ASSIGNED_CONTEXT((#138)) GLOBAL_UNIT_ASSIGNED_CONTEXT
((#135,#136,#137)) REPRESENTATION_CONTEXT('Context #1',
  '3D Context with UNIT and UNCERTAINTY') );
#135 = ( LENGTH_UNIT() NAMED_UNIT(*) SI_UNIT(.MILLI.,.METRE.) );
#136 = ( NAMED_UNIT(*) PLANE_ANGLE_UNIT() SI_UNIT($,.RADIAN.) );
#137 = ( NAMED_UNIT(*) SI_UNIT($,.STERADIAN.) SOLID_ANGLE_UNIT() );
#138 = UNCERTAINTY_MEASURE_WITH_UNIT(LENGTH_MEASURE(1.E-07),#135,
  'distance_accuracy_value','confusion accuracy');
#139 = CONTEXT_DEPENDENT_SHAPE_REPRESENTATION(#140,#142);
#140 = ( REPRESENTATION_RELATIONSHIP('','',#52,#10) 
REPRESENTATION_RELATIONSHIP_WITH_TRANSFORMATION(#141) 
SHAPE_REPRESENTATION_RELATIONSHIP() );
#141 = ITEM_DEFINED_TRANSFORMATION('','',#11,#15);
#142 = PRODUCT_DEFINITION_SHAPE('Placement','Placement of an item',#143
  );
#143 = NEXT_ASSEMBLY_USAGE_OCCURRENCE('1','','',#5,#47,$);
#144 = PRODUCT_RELATED_PRODUCT_CATEGORY('part',$,(#49));
#145 = SHAPE_DEFINITION_REPRESENTATION(#146,#152);
#146 = PRODUCT_DEFINITION_SHAPE('','',#147);
#147 = PRODUCT_DEFINITION('design','',#148,#151);
#148 = PRODUCT_DEFINITION_FORMATION('','',#149);
#149 = PRODUCT('Open CASCADE STEP translator 7.9 1.2',
  'Open CASCADE STEP translator 7.9 1.2','',(#150));
#150 = PRODUCT_CONTEXT('',#2,'mechanical');
#151 = PRODUCT_DEFINITION_CONTEXT('part definition',#2,'design');
#152 = MANIFOLD_SURFACE_SHAPE_REPRESENTATION('',(#11,#153),#184);
#153 = SHELL_BASED_SURFACE_MODEL('',(#154));
#154 = OPEN_SHELL('',(#155));
#155 = ADVANCED_FACE('',(#156),#169,.T.);
#156 = FACE_BOUND('',#157,.T.);
#157 = EDGE_LOOP('',(#158));
#158 = ORIENTED_EDGE('',*,*,#159,.F.);
#159 = EDGE_CURVE('',#160,#160,#162,.T.);
#160 = VERTEX_POINT('',#161);
#161 = CARTESIAN_POINT('',(0.2715,0.1015,0.));
#162 = SURFACE_CURVE('',#163,(#168),.PCURVE_S1.);
#163 = CIRCLE('',#164,0.108);
#164 = AXIS2_PLACEMENT_3D('',#165,#166,#167);
#165 = CARTESIAN_POINT('',(0.1635,0.1015,0.));
#166 = DIRECTION('',(0.,0.,1.));
#167 = DIRECTION('',(1.,0.,-0.));
#168 = PCURVE('',#169,#174);
#169 = PLANE('',#170);
#170 = AXIS2_PLACEMENT_3D('',#171,#172,#173);
#171 = CARTESIAN_POINT('',(0.163499996808,0.1015,0.));
#172 = DIRECTION('',(-0.,-0.,-1.));
#173 = DIRECTION('',(-1.,0.,0.));
#174 = DEFINITIONAL_REPRESENTATION('',(#175),#183);
#175 = ( BOUNDED_CURVE() B_SPLINE_CURVE(2,(#176,#177,#178,#179,#180,#181
,#182),.UNSPECIFIED.,.T.,.F.) B_SPLINE_CURVE_WITH_KNOTS((1,2,2,2,2,1),(
    -2.094395102393,0.,2.094395102393,4.188790204786,6.28318530718,
8.377580409573),.UNSPECIFIED.) CURVE() GEOMETRIC_REPRESENTATION_ITEM() 
RATIONAL_B_SPLINE_CURVE((1.,0.5,1.,0.5,1.,0.5,1.)) REPRESENTATION_ITEM(
  '') );
#176 = CARTESIAN_POINT('',(-0.108000003192,-4.718447854657E-16));
#177 = CARTESIAN_POINT('',(-0.108000003192,0.187061487217));
#178 = CARTESIAN_POINT('',(5.39999968077E-02,9.353074360872E-02));
#179 = CARTESIAN_POINT('',(0.215999996808,-4.453924146041E-16));
#180 = CARTESIAN_POINT('',(5.39999968077E-02,-9.353074360872E-02));
#181 = CARTESIAN_POINT('',(-0.108000003192,-0.187061487217));
#182 = CARTESIAN_POINT('',(-0.108000003192,-4.718447854657E-16));
#183 = ( GEOMETRIC_REPRESENTATION_CONTEXT(2) 
PARAMETRIC_REPRESENTATION_CONTEXT() REPRESENTATION_CONTEXT('2D SPACE',''
  ) );
#184 = ( GEOMETRIC_REPRESENTATION_CONTEXT(3) 
GLOBAL_UNCERTAINTY_ASSIGNED_CONTEXT((#188)) GLOBAL_UNIT_ASSIGNED_CONTEXT
((#185,#186,#187)) REPRESENTATION_CONTEXT('Context #1',
  '3D Context with UNIT and UNCERTAINTY') );
#185 = ( LENGTH_UNIT() NAMED_UNIT(*) SI_UNIT(.MILLI.,.METRE.) );
#186 = ( NAMED_UNIT(*) PLANE_ANGLE_UNIT() SI_UNIT($,.RADIAN.) );
#187 = ( NAMED_UNIT(*) SI_UNIT($,.STERADIAN.) SOLID_ANGLE_UNIT() );
#188 = UNCERTAINTY_MEASURE_WITH_UNIT(LENGTH_MEASURE(1.E-07),#185,
  'distance_accuracy_value','confusion accuracy');
#189 = CONTEXT_DEPENDENT_SHAPE_REPRESENTATION(#190,#192);
#190 = ( REPRESENTATION_RELATIONSHIP('','',#152,#10) 
REPRESENTATION_RELATIONSHIP_WITH_TRANSFORMATION(#191) 
SHAPE_REPRESENTATION_RELATIONSHIP() );
#191 = ITEM_DEFINED_TRANSFORMATION('','',#11,#19);
#192 = PRODUCT_DEFINITION_SHAPE('Placement','Placement of an item',#193
  );
#193 = NEXT_ASSEMBLY_USAGE_OCCURRENCE('2','','',#5,#147,$);
#194 = PRODUCT_RELATED_PRODUCT_CATEGORY('part',$,(#149));
#195 = SHAPE_DEFINITION_REPRESENTATION(#196,#202);
#196 = PRODUCT_DEFINITION_SHAPE('','',#197);
#197 = PRODUCT_DEFINITION('design','',#198,#201);
#198 = PRODUCT_DEFINITION_FORMATION('','',#199);
#199 = PRODUCT('Open CASCADE STEP translator 7.9 1.3',
  'Open CASCADE STEP translator 7.9 1.3','',(#200));
#200 = PRODUCT_CONTEXT('',#2,'mechanical');
#201 = PRODUCT_DEFINITION_CONTEXT('part definition',#2,'design');
#202 = MANIFOLD_SURFACE_SHAPE_REPRESENTATION('',(#11,#203),#230);
#203 = SHELL_BASED_SURFACE_MODEL('',(#204));
#204 = OPEN_SHELL('',(#205));
#205 = ADVANCED_FACE('',(#206),#219,.T.);
#206 = FACE_BOUND('',#207,.T.);
#207 = EDGE_LOOP('',(#208));
#208 = ORIENTED_EDGE('',*,*,#209,.T.);
#209 = EDGE_CURVE('',#210,#210,#212,.T.);
#210 = VERTEX_POINT('',#211);
#211 = CARTESIAN_POINT('',(0.265,0.1015,1.));
#212 = SURFACE_CURVE('',#213,(#218),.PCURVE_S1.);
#213 = CIRCLE('',#214,0.1015);
#214 = AXIS2_PLACEMENT_3D('',#215,#216,#217);
#215 = CARTESIAN_POINT('',(0.1635,0.1015,1.));
#216 = DIRECTION('',(0.,0.,1.));
#217 = DIRECTION('',(1.,0.,-0.));
#218 = PCURVE('',#219,#224);
#219 = PLANE('',#220);
#220 = AXIS2_PLACEMENT_3D('',#221,#222,#223);
#221 = CARTESIAN_POINT('',(0.163499997,0.1015,1.));
#222 = DIRECTION('',(0.,0.,1.));
#223 = DIRECTION('',(1.,0.,-0.));
#224 = DEFINITIONAL_REPRESENTATION('',(#225),#229);
#225 = CIRCLE('',#226,0.1015);
#226 = AXIS2_PLACEMENT_2D('',#227,#228);
#227 = CARTESIAN_POINT('',(3.000174858547E-09,-4.579669976579E-16));
#228 = DIRECTION('',(1.,0.));
#229 = ( GEOMETRIC_REPRESENTATION_CONTEXT(2) 
PARAMETRIC_REPRESENTATION_CONTEXT() REPRESENTATION_CONTEXT('2D SPACE',''
  ) );
#230 = ( GEOMETRIC_REPRESENTATION_CONTEXT(3) 
GLOBAL_UNCERTAINTY_ASSIGNED_CONTEXT((#234)) GLOBAL_UNIT_ASSIGNED_CONTEXT
((#231,#232,#233)) REPRESENTATION_CONTEXT('Context #1',
  '3D Context with UNIT and UNCERTAINTY') );
#231 = ( LENGTH_UNIT() NAMED_UNIT(*) SI_UNIT(.MILLI.,.METRE.) );
#232 = ( NAMED_UNIT(*) PLANE_ANGLE_UNIT() SI_UNIT($,.RADIAN.) );
#233 = ( NAMED_UNIT(*) SI_UNIT($,.STERADIAN.) SOLID_ANGLE_UNIT() );
#234 = UNCERTAINTY_MEASURE_WITH_UNIT(LENGTH_MEASURE(1.E-07),#231,
  'distance_accuracy_value','confusion accuracy');
#235 = CONTEXT_DEPENDENT_SHAPE_REPRESENTATION(#236,#238);
#236 = ( REPRESENTATION_RELATIONSHIP('','',#202,#10) 
REPRESENTATION_RELATIONSHIP_WITH_TRANSFORMATION(#237) 
SHAPE_REPRESENTATION_RELATIONSHIP() );
#237 = ITEM_DEFINED_TRANSFORMATION('','',#11,#23);
#238 = PRODUCT_DEFINITION_SHAPE('Placement','Placement of an item',#239
  );
#239 = NEXT_ASSEMBLY_USAGE_OCCURRENCE('3','','',#5,#197,$);
#240 = PRODUCT_RELATED_PRODUCT_CATEGORY('part',$,(#199));
#241 = SHAPE_DEFINITION_REPRESENTATION(#242,#248);
#242 = PRODUCT_DEFINITION_SHAPE('','',#243);
#243 = PRODUCT_DEFINITION('design','',#244,#247);
#244 = PRODUCT_DEFINITION_FORMATION('','',#245);
#245 = PRODUCT('Open CASCADE STEP translator 7.9 1.4',
  'Open CASCADE STEP translator 7.9 1.4','',(#246));
#246 = PRODUCT_CONTEXT('',#2,'mechanical');
#247 = PRODUCT_DEFINITION_CONTEXT('part definition',#2,'design');
#248 = MANIFOLD_SURFACE_SHAPE_REPRESENTATION('',(#11,#249),#330);
#249 = SHELL_BASED_SURFACE_MODEL('',(#250));
#250 = OPEN_SHELL('',(#251));
#251 = ADVANCED_FACE('',(#252),#265,.T.);
#252 = FACE_BOUND('',#253,.T.);
#253 = EDGE_LOOP('',(#254,#293,#311,#312));
#254 = ORIENTED_EDGE('',*,*,#255,.F.);
#255 = EDGE_CURVE('',#256,#258,#260,.T.);
#256 = VERTEX_POINT('',#257);
#257 = CARTESIAN_POINT('',(0.26500000313,0.101500004869,0.999999993));
#258 = VERTEX_POINT('',#259);
#259 = CARTESIAN_POINT('',(0.26500000313,0.101500004869,4.00000058E-02)
  );
#260 = SEAM_CURVE('',#261,(#264,#286),.PCURVE_S1.);
#261 = B_SPLINE_CURVE_WITH_KNOTS('',1,(#262,#263),.UNSPECIFIED.,.F.,.F.,
  (2,2),(-0.72,0.24),.PIECEWISE_BEZIER_KNOTS.);
#262 = CARTESIAN_POINT('',(0.26500000313,0.101500004869,0.999999993));
#263 = CARTESIAN_POINT('',(0.26500000313,0.101500004869,4.00000058E-02)
  );
#264 = PCURVE('',#265,#280);
#265 = ( BOUNDED_SURFACE() B_SPLINE_SURFACE(2,1,(
    (#266,#267)
    ,(#268,#269)
    ,(#270,#271)
    ,(#272,#273)
    ,(#274,#275)
    ,(#276,#277)
,(#278,#279
    )),.UNSPECIFIED.,.T.,.F.,.F.) B_SPLINE_SURFACE_WITH_KNOTS((1,2,2,2,2
    ,1),(2,2),(-2.094395,0.,2.094395,4.18879,6.283185,8.37758),(-0.72,
0.24),.UNSPECIFIED.) GEOMETRIC_REPRESENTATION_ITEM() 
RATIONAL_B_SPLINE_SURFACE((
    (1.,1.)
    ,(0.5,0.5)
    ,(1.,1.)
    ,(0.5,0.5)
    ,(1.,1.)
    ,(0.5,0.5)
,(1.,1.))) REPRESENTATION_ITEM('') SURFACE() );
#266 = CARTESIAN_POINT('',(0.26500000313,0.101500004869,0.999999993));
#267 = CARTESIAN_POINT('',(0.26500000313,0.101500004869,4.00000058E-02)
  );
#268 = CARTESIAN_POINT('',(0.26500000313,-7.431463976439E-02,0.999999993
    ));
#269 = CARTESIAN_POINT('',(0.26500000313,-7.431463976439E-02,
    4.00000058E-02));
#270 = CARTESIAN_POINT('',(0.112750004972,1.35926825523E-02,0.999999993)
  );
#271 = CARTESIAN_POINT('',(0.112750004972,1.35926825523E-02,
    4.00000058E-02));
#272 = CARTESIAN_POINT('',(-3.9499993186E-02,0.101500004869,0.999999993)
  );
#273 = CARTESIAN_POINT('',(-3.9499993186E-02,0.101500004869,
    4.00000058E-02));
#274 = CARTESIAN_POINT('',(0.112750004972,0.189407327186,0.999999993));
#275 = CARTESIAN_POINT('',(0.112750004972,0.189407327186,4.00000058E-02)
  );
#276 = CARTESIAN_POINT('',(0.26500000313,0.277314649502,0.999999993));
#277 = CARTESIAN_POINT('',(0.26500000313,0.277314649502,4.00000058E-02)
  );
#278 = CARTESIAN_POINT('',(0.26500000313,0.101500004869,0.999999993));
#279 = CARTESIAN_POINT('',(0.26500000313,0.101500004869,4.00000058E-02)
  );
#280 = DEFINITIONAL_REPRESENTATION('',(#281),#285);
#281 = LINE('',#282,#283);
#282 = CARTESIAN_POINT('',(0.,0.));
#283 = VECTOR('',#284,1.);
#284 = DIRECTION('',(0.,1.));
#285 = ( GEOMETRIC_REPRESENTATION_CONTEXT(2) 
PARAMETRIC_REPRESENTATION_CONTEXT() REPRESENTATION_CONTEXT('2D SPACE',''
  ) );
#286 = PCURVE('',#265,#287);
#287 = DEFINITIONAL_REPRESENTATION('',(#288),#292);
#288 = LINE('',#289,#290);
#289 = CARTESIAN_POINT('',(6.283185,0.));
#290 = VECTOR('',#291,1.);
#291 = DIRECTION('',(0.,1.));
#292 = ( GEOMETRIC_REPRESENTATION_CONTEXT(2) 
PARAMETRIC_REPRESENTATION_CONTEXT() REPRESENTATION_CONTEXT('2D SPACE',''
  ) );
#293 = ORIENTED_EDGE('',*,*,#294,.T.);
#294 = EDGE_CURVE('',#256,#256,#295,.T.);
#295 = SURFACE_CURVE('',#296,(#304),.PCURVE_S1.);
#296 = ( BOUNDED_CURVE() B_SPLINE_CURVE(2,(#297,#298,#299,#300,#301,#302
,#303),.UNSPECIFIED.,.T.,.F.) B_SPLINE_CURVE_WITH_KNOTS((1,2,2,2,2,1),(
-2.094395,0.,2.094395,4.18879,6.283185,8.37758),.UNSPECIFIED.) CURVE() 
GEOMETRIC_REPRESENTATION_ITEM() RATIONAL_B_SPLINE_CURVE((1.,0.5,1.,0.5,
1.,0.5,1.)) REPRESENTATION_ITEM('') );
#297 = CARTESIAN_POINT('',(0.26500000313,0.101500004869,0.999999993));
#298 = CARTESIAN_POINT('',(0.26500000313,-7.431463976439E-02,0.999999993
    ));
#299 = CARTESIAN_POINT('',(0.112750004972,1.35926825523E-02,0.999999993)
  );
#300 = CARTESIAN_POINT('',(-3.9499993186E-02,0.101500004869,0.999999993)
  );
#301 = CARTESIAN_POINT('',(0.112750004972,0.189407327186,0.999999993));
#302 = CARTESIAN_POINT('',(0.26500000313,0.277314649502,0.999999993));
#303 = CARTESIAN_POINT('',(0.26500000313,0.101500004869,0.999999993));
#304 = PCURVE('',#265,#305);
#305 = DEFINITIONAL_REPRESENTATION('',(#306),#310);
#306 = LINE('',#307,#308);
#307 = CARTESIAN_POINT('',(0.,-0.72));
#308 = VECTOR('',#309,1.);
#309 = DIRECTION('',(1.,0.));
#310 = ( GEOMETRIC_REPRESENTATION_CONTEXT(2) 
PARAMETRIC_REPRESENTATION_CONTEXT() REPRESENTATION_CONTEXT('2D SPACE',''
  ) );
#311 = ORIENTED_EDGE('',*,*,#255,.T.);
#312 = ORIENTED_EDGE('',*,*,#313,.F.);
#313 = EDGE_CURVE('',#258,#258,#314,.T.);
#314 = SURFACE_CURVE('',#315,(#323),.PCURVE_S1.);
#315 = ( BOUNDED_CURVE() B_SPLINE_CURVE(2,(#316,#317,#318,#319,#320,#321
,#322),.UNSPECIFIED.,.T.,.F.) B_SPLINE_CURVE_WITH_KNOTS((1,2,2,2,2,1),(
-2.094395,0.,2.094395,4.18879,6.283185,8.37758),.UNSPECIFIED.) CURVE() 
GEOMETRIC_REPRESENTATION_ITEM() RATIONAL_B_SPLINE_CURVE((1.,0.5,1.,0.5,
1.,0.5,1.)) REPRESENTATION_ITEM('') );
#316 = CARTESIAN_POINT('',(0.26500000313,0.101500004869,4.00000058E-02)
  );
#317 = CARTESIAN_POINT('',(0.26500000313,-7.431463976439E-02,
    4.00000058E-02));
#318 = CARTESIAN_POINT('',(0.112750004972,1.35926825523E-02,
    4.00000058E-02));
#319 = CARTESIAN_POINT('',(-3.9499993186E-02,0.101500004869,
    4.00000058E-02));
#320 = CARTESIAN_POINT('',(0.112750004972,0.189407327186,4.00000058E-02)
  );
#321 = CARTESIAN_POINT('',(0.26500000313,0.277314649502,4.00000058E-02)
  );
#322 = CARTESIAN_POINT('',(0.26500000313,0.101500004869,4.00000058E-02)
  );
#323 = PCURVE('',#265,#324);
#324 = DEFINITIONAL_REPRESENTATION('',(#325),#329);
#325 = LINE('',#326,#327);
#326 = CARTESIAN_POINT('',(0.,0.24));
#327 = VECTOR('',#328,1.);
#328 = DIRECTION('',(1.,0.));
#329 = ( GEOMETRIC_REPRESENTATION_CONTEXT(2) 
PARAMETRIC_REPRESENTATION_CONTEXT() REPRESENTATION_CONTEXT('2D SPACE',''
  ) );
#330 = ( GEOMETRIC_REPRESENTATION_CONTEXT(3) 
GLOBAL_UNCERTAINTY_ASSIGNED_CONTEXT((#334)) GLOBAL_UNIT_ASSIGNED_CONTEXT
((#331,#332,#333)) REPRESENTATION_CONTEXT('Context #1',
  '3D Context with UNIT and UNCERTAINTY') );
#331 = ( LENGTH_UNIT() NAMED_UNIT(*) SI_UNIT(.MILLI.,.METRE.) );
#332 = ( NAMED_UNIT(*) PLANE_ANGLE_UNIT() SI_UNIT($,.RADIAN.) );
#333 = ( NAMED_UNIT(*) SI_UNIT($,.STERADIAN.) SOLID_ANGLE_UNIT() );
#334 = UNCERTAINTY_MEASURE_WITH_UNIT(LENGTH_MEASURE(1.E-07),#331,
  'distance_accuracy_value','confusion accuracy');
#335 = CONTEXT_DEPENDENT_SHAPE_REPRESENTATION(#336,#338);
#336 = ( REPRESENTATION_RELATIONSHIP('','',#248,#10) 
REPRESENTATION_RELATIONSHIP_WITH_TRANSFORMATION(#337) 
SHAPE_REPRESENTATION_RELATIONSHIP() );
#337 = ITEM_DEFINED_TRANSFORMATION('','',#11,#27);
#338 = PRODUCT_DEFINITION_SHAPE('Placement','Placement of an item',#339
  );
#339 = NEXT_ASSEMBLY_USAGE_OCCURRENCE('4','','',#5,#243,$);
#340 = PRODUCT_RELATED_PRODUCT_CATEGORY('part',$,(#245));
#341 = SHAPE_DEFINITION_REPRESENTATION(#342,#348);
#342 = PRODUCT_DEFINITION_SHAPE('','',#343);
#343 = PRODUCT_DEFINITION('design','',#344,#347);
#344 = PRODUCT_DEFINITION_FORMATION('','',#345);
#345 = PRODUCT('Open CASCADE STEP translator 7.9 1.5',
  'Open CASCADE STEP translator 7.9 1.5','',(#346));
#346 = PRODUCT_CONTEXT('',#2,'mechanical');
#347 = PRODUCT_DEFINITION_CONTEXT('part definition',#2,'design');
#348 = MANIFOLD_SURFACE_SHAPE_REPRESENTATION('',(#11,#349),#403);
#349 = SHELL_BASED_SURFACE_MODEL('',(#350));
#350 = OPEN_SHELL('',(#351));
#351 = ADVANCED_FACE('',(#352,#380),#365,.T.);
#352 = FACE_BOUND('',#353,.T.);
#353 = EDGE_LOOP('',(#354));
#354 = ORIENTED_EDGE('',*,*,#355,.F.);
#355 = EDGE_CURVE('',#356,#356,#358,.T.);
#356 = VERTEX_POINT('',#357);
#357 = CARTESIAN_POINT('',(0.271,0.1015,4.E-02));
#358 = SURFACE_CURVE('',#359,(#364),.PCURVE_S1.);
#359 = CIRCLE('',#360,0.1075);
#360 = AXIS2_PLACEMENT_3D('',#361,#362,#363);
#361 = CARTESIAN_POINT('',(0.1635,0.1015,4.E-02));
#362 = DIRECTION('',(0.,0.,1.));
#363 = DIRECTION('',(1.,0.,-0.));
#364 = PCURVE('',#365,#370);
#365 = PLANE('',#366);
#366 = AXIS2_PLACEMENT_3D('',#367,#368,#369);
#367 = CARTESIAN_POINT('',(0.163499996822,0.1015,4.E-02));
#368 = DIRECTION('',(-0.,-0.,-1.));
#369 = DIRECTION('',(-1.,0.,0.));
#370 = DEFINITIONAL_REPRESENTATION('',(#371),#379);
#371 = ( BOUNDED_CURVE() B_SPLINE_CURVE(2,(#372,#373,#374,#375,#376,#377
,#378),.UNSPECIFIED.,.T.,.F.) B_SPLINE_CURVE_WITH_KNOTS((1,2,2,2,2,1),(
    -2.094395102393,0.,2.094395102393,4.188790204786,6.28318530718,
8.377580409573),.UNSPECIFIED.) CURVE() GEOMETRIC_REPRESENTATION_ITEM() 
RATIONAL_B_SPLINE_CURVE((1.,0.5,1.,0.5,1.,0.5,1.)) REPRESENTATION_ITEM(
  '') );
#372 = CARTESIAN_POINT('',(-0.107500003178,-4.857225732735E-16));
#373 = CARTESIAN_POINT('',(-0.107500003178,0.186195461814));
#374 = CARTESIAN_POINT('',(5.374999682247E-02,9.309773090683E-02));
#375 = CARTESIAN_POINT('',(0.214999996822,-4.593926670918E-16));
#376 = CARTESIAN_POINT('',(5.374999682247E-02,-9.309773090683E-02));
#377 = CARTESIAN_POINT('',(-0.107500003178,-0.186195461814));
#378 = CARTESIAN_POINT('',(-0.107500003178,-4.857225732735E-16));
#379 = ( GEOMETRIC_REPRESENTATION_CONTEXT(2) 
PARAMETRIC_REPRESENTATION_CONTEXT() REPRESENTATION_CONTEXT('2D SPACE',''
  ) );
#380 = FACE_BOUND('',#381,.F.);
#381 = EDGE_LOOP('',(#382));
#382 = ORIENTED_EDGE('',*,*,#383,.T.);
#383 = EDGE_CURVE('',#384,#384,#386,.T.);
#384 = VERTEX_POINT('',#385);
#385 = CARTESIAN_POINT('',(0.2715,0.1015,4.E-02));
#386 = SURFACE_CURVE('',#387,(#392),.PCURVE_S1.);
#387 = CIRCLE('',#388,0.108);
#388 = AXIS2_PLACEMENT_3D('',#389,#390,#391);
#389 = CARTESIAN_POINT('',(0.1635,0.1015,4.E-02));
#390 = DIRECTION('',(0.,0.,1.));
#391 = DIRECTION('',(1.,0.,-0.));
#392 = PCURVE('',#365,#393);
#393 = DEFINITIONAL_REPRESENTATION('',(#394),#402);
#394 = ( BOUNDED_CURVE() B_SPLINE_CURVE(2,(#395,#396,#397,#398,#399,#400
,#401),.UNSPECIFIED.,.T.,.F.) B_SPLINE_CURVE_WITH_KNOTS((1,2,2,2,2,1),(
    -2.094395102393,0.,2.094395102393,4.188790204786,6.28318530718,
8.377580409573),.UNSPECIFIED.) CURVE() GEOMETRIC_REPRESENTATION_ITEM() 
RATIONAL_B_SPLINE_CURVE((1.,0.5,1.,0.5,1.,0.5,1.)) REPRESENTATION_ITEM(
  '') );
#395 = CARTESIAN_POINT('',(-0.108000003178,-4.857225732735E-16));
#396 = CARTESIAN_POINT('',(-0.108000003178,0.187061487217));
#397 = CARTESIAN_POINT('',(5.399999682247E-02,9.353074360872E-02));
#398 = CARTESIAN_POINT('',(0.215999996822,-4.592702024119E-16));
#399 = CARTESIAN_POINT('',(5.399999682247E-02,-9.353074360872E-02));
#400 = CARTESIAN_POINT('',(-0.108000003178,-0.187061487217));
#401 = CARTESIAN_POINT('',(-0.108000003178,-4.857225732735E-16));
#402 = ( GEOMETRIC_REPRESENTATION_CONTEXT(2) 
PARAMETRIC_REPRESENTATION_CONTEXT() REPRESENTATION_CONTEXT('2D SPACE',''
  ) );
#403 = ( GEOMETRIC_REPRESENTATION_CONTEXT(3) 
GLOBAL_UNCERTAINTY_ASSIGNED_CONTEXT((#407)) GLOBAL_UNIT_ASSIGNED_CONTEXT
((#404,#405,#406)) REPRESENTATION_CONTEXT('Context #1',
  '3D Context with UNIT and UNCERTAINTY') );
#404 = ( LENGTH_UNIT() NAMED_UNIT(*) SI_UNIT(.MILLI.,.METRE.) );
#405 = ( NAMED_UNIT(*) PLANE_ANGLE_UNIT() SI_UNIT($,.RADIAN.) );
#406 = ( NAMED_UNIT(*) SI_UNIT($,.STERADIAN.) SOLID_ANGLE_UNIT() );
#407 = UNCERTAINTY_MEASURE_WITH_UNIT(LENGTH_MEASURE(1.E-07),#404,
  'distance_accuracy_value','confusion accuracy');
#408 = CONTEXT_DEPENDENT_SHAPE_REPRESENTATION(#409,#411);
#409 = ( REPRESENTATION_RELATIONSHIP('','',#348,#10) 
REPRESENTATION_RELATIONSHIP_WITH_TRANSFORMATION(#410) 
SHAPE_REPRESENTATION_RELATIONSHIP() );
#410 = ITEM_DEFINED_TRANSFORMATION('','',#11,#31);
#411 = PRODUCT_DEFINITION_SHAPE('Placement','Placement of an item',#412
  );
#412 = NEXT_ASSEMBLY_USAGE_OCCURRENCE('5','','',#5,#343,$);
#413 = PRODUCT_RELATED_PRODUCT_CATEGORY('part',$,(#345));
#414 = SHAPE_DEFINITION_REPRESENTATION(#415,#421);
#415 = PRODUCT_DEFINITION_SHAPE('','',#416);
#416 = PRODUCT_DEFINITION('design','',#417,#420);
#417 = PRODUCT_DEFINITION_FORMATION('','',#418);
#418 = PRODUCT('Open CASCADE STEP translator 7.9 1.6',
  'Open CASCADE STEP translator 7.9 1.6','',(#419));
#419 = PRODUCT_CONTEXT('',#2,'mechanical');
#420 = PRODUCT_DEFINITION_CONTEXT('part definition',#2,'design');
#421 = MANIFOLD_SURFACE_SHAPE_REPRESENTATION('',(#11,#422),#503);
#422 = SHELL_BASED_SURFACE_MODEL('',(#423));
#423 = OPEN_SHELL('',(#424));
#424 = ADVANCED_FACE('',(#425),#438,.T.);
#425 = FACE_BOUND('',#426,.T.);
#426 = EDGE_LOOP('',(#427,#466,#484,#485));
#427 = ORIENTED_EDGE('',*,*,#428,.F.);
#428 = EDGE_CURVE('',#429,#431,#433,.T.);
#429 = VERTEX_POINT('',#430);
#430 = CARTESIAN_POINT('',(0.271500002756,0.101500004869,0.999999993));
#431 = VERTEX_POINT('',#432);
#432 = CARTESIAN_POINT('',(0.271500002756,0.101500004869,4.00000058E-02)
  );
#433 = SEAM_CURVE('',#434,(#437,#459),.PCURVE_S1.);
#434 = B_SPLINE_CURVE_WITH_KNOTS('',1,(#435,#436),.UNSPECIFIED.,.F.,.F.,
  (2,2),(-0.72,0.24),.PIECEWISE_BEZIER_KNOTS.);
#435 = CARTESIAN_POINT('',(0.271500002756,0.101500004869,0.999999993));
#436 = CARTESIAN_POINT('',(0.271500002756,0.101500004869,4.00000058E-02)
  );
#437 = PCURVE('',#438,#453);
#438 = ( BOUNDED_SURFACE() B_SPLINE_SURFACE(2,1,(
    (#439,#440)
    ,(#441,#442)
    ,(#443,#444)
    ,(#445,#446)
    ,(#447,#448)
    ,(#449,#450)
,(#451,#452
    )),.UNSPECIFIED.,.T.,.F.,.F.) B_SPLINE_SURFACE_WITH_KNOTS((1,2,2,2,2
    ,1),(2,2),(-2.094395,0.,2.094395,4.18879,6.283185,8.37758),(-0.72,
0.24),.UNSPECIFIED.) GEOMETRIC_REPRESENTATION_ITEM() 
RATIONAL_B_SPLINE_SURFACE((
    (1.,1.)
    ,(0.5,0.5)
    ,(1.,1.)
    ,(0.5,0.5)
    ,(1.,1.)
    ,(0.5,0.5)
,(1.,1.))) REPRESENTATION_ITEM('') SURFACE() );
#439 = CARTESIAN_POINT('',(0.271500002756,0.101500004869,0.999999993));
#440 = CARTESIAN_POINT('',(0.271500002756,0.101500004869,4.00000058E-02)
  );
#441 = CARTESIAN_POINT('',(0.271500002756,-8.555450716074E-02,
    0.999999993));
#442 = CARTESIAN_POINT('',(0.271500002756,-8.555450716074E-02,
    4.00000058E-02));
#443 = CARTESIAN_POINT('',(0.109500002599,7.972748854129E-03,0.999999993
    ));
#444 = CARTESIAN_POINT('',(0.109500002599,7.972748854129E-03,
    4.00000058E-02));
#445 = CARTESIAN_POINT('',(-5.2499997559E-02,0.101500004869,0.999999993)
  );
#446 = CARTESIAN_POINT('',(-5.2499997559E-02,0.101500004869,
    4.00000058E-02));
#447 = CARTESIAN_POINT('',(0.109500002598,0.195027260884,0.999999993));
#448 = CARTESIAN_POINT('',(0.109500002598,0.195027260884,4.00000058E-02)
  );
#449 = CARTESIAN_POINT('',(0.271500002756,0.288554516899,0.999999993));
#450 = CARTESIAN_POINT('',(0.271500002756,0.288554516899,4.00000058E-02)
  );
#451 = CARTESIAN_POINT('',(0.271500002756,0.101500004869,0.999999993));
#452 = CARTESIAN_POINT('',(0.271500002756,0.101500004869,4.00000058E-02)
  );
#453 = DEFINITIONAL_REPRESENTATION('',(#454),#458);
#454 = LINE('',#455,#456);
#455 = CARTESIAN_POINT('',(0.,0.));
#456 = VECTOR('',#457,1.);
#457 = DIRECTION('',(0.,1.));
#458 = ( GEOMETRIC_REPRESENTATION_CONTEXT(2) 
PARAMETRIC_REPRESENTATION_CONTEXT() REPRESENTATION_CONTEXT('2D SPACE',''
  ) );
#459 = PCURVE('',#438,#460);
#460 = DEFINITIONAL_REPRESENTATION('',(#461),#465);
#461 = LINE('',#462,#463);
#462 = CARTESIAN_POINT('',(6.283185,0.));
#463 = VECTOR('',#464,1.);
#464 = DIRECTION('',(0.,1.));
#465 = ( GEOMETRIC_REPRESENTATION_CONTEXT(2) 
PARAMETRIC_REPRESENTATION_CONTEXT() REPRESENTATION_CONTEXT('2D SPACE',''
  ) );
#466 = ORIENTED_EDGE('',*,*,#467,.T.);
#467 = EDGE_CURVE('',#429,#429,#468,.T.);
#468 = SURFACE_CURVE('',#469,(#477),.PCURVE_S1.);
#469 = ( BOUNDED_CURVE() B_SPLINE_CURVE(2,(#470,#471,#472,#473,#474,#475
,#476),.UNSPECIFIED.,.T.,.F.) B_SPLINE_CURVE_WITH_KNOTS((1,2,2,2,2,1),(
-2.094395,0.,2.094395,4.18879,6.283185,8.37758),.UNSPECIFIED.) CURVE() 
GEOMETRIC_REPRESENTATION_ITEM() RATIONAL_B_SPLINE_CURVE((1.,0.5,1.,0.5,
1.,0.5,1.)) REPRESENTATION_ITEM('') );
#470 = CARTESIAN_POINT('',(0.271500002756,0.101500004869,0.999999993));
#471 = CARTESIAN_POINT('',(0.271500002756,-8.555450716074E-02,
    0.999999993));
#472 = CARTESIAN_POINT('',(0.109500002599,7.972748854129E-03,0.999999993
    ));
#473 = CARTESIAN_POINT('',(-5.2499997559E-02,0.101500004869,0.999999993)
  );
#474 = CARTESIAN_POINT('',(0.109500002598,0.195027260884,0.999999993));
#475 = CARTESIAN_POINT('',(0.271500002756,0.288554516899,0.999999993));
#476 = CARTESIAN_POINT('',(0.271500002756,0.101500004869,0.999999993));
#477 = PCURVE('',#438,#478);
#478 = DEFINITIONAL_REPRESENTATION('',(#479),#483);
#479 = LINE('',#480,#481);
#480 = CARTESIAN_POINT('',(0.,-0.72));
#481 = VECTOR('',#482,1.);
#482 = DIRECTION('',(1.,0.));
#483 = ( GEOMETRIC_REPRESENTATION_CONTEXT(2) 
PARAMETRIC_REPRESENTATION_CONTEXT() REPRESENTATION_CONTEXT('2D SPACE',''
  ) );
#484 = ORIENTED_EDGE('',*,*,#428,.T.);
#485 = ORIENTED_EDGE('',*,*,#486,.F.);
#486 = EDGE_CURVE('',#431,#431,#487,.T.);
#487 = SURFACE_CURVE('',#488,(#496),.PCURVE_S1.);
#488 = ( BOUNDED_CURVE() B_SPLINE_CURVE(2,(#489,#490,#491,#492,#493,#494
,#495),.UNSPECIFIED.,.T.,.F.) B_SPLINE_CURVE_WITH_KNOTS((1,2,2,2,2,1),(
-2.094395,0.,2.094395,4.18879,6.283185,8.37758),.UNSPECIFIED.) CURVE() 
GEOMETRIC_REPRESENTATION_ITEM() RATIONAL_B_SPLINE_CURVE((1.,0.5,1.,0.5,
1.,0.5,1.)) REPRESENTATION_ITEM('') );
#489 = CARTESIAN_POINT('',(0.271500002756,0.101500004869,4.00000058E-02)
  );
#490 = CARTESIAN_POINT('',(0.271500002756,-8.555450716074E-02,
    4.00000058E-02));
#491 = CARTESIAN_POINT('',(0.109500002599,7.972748854129E-03,
    4.00000058E-02));
#492 = CARTESIAN_POINT('',(-5.2499997559E-02,0.101500004869,
    4.00000058E-02));
#493 = CARTESIAN_POINT('',(0.109500002598,0.195027260884,4.00000058E-02)
  );
#494 = CARTESIAN_POINT('',(0.271500002756,0.288554516899,4.00000058E-02)
  );
#495 = CARTESIAN_POINT('',(0.271500002756,0.101500004869,4.00000058E-02)
  );
#496 = PCURVE('',#438,#497);
#497 = DEFINITIONAL_REPRESENTATION('',(#498),#502);
#498 = LINE('',#499,#500);
#499 = CARTESIAN_POINT('',(0.,0.24));
#500 = VECTOR('',#501,1.);
#501 = DIRECTION('',(1.,0.));
#502 = ( GEOMETRIC_REPRESENTATION_CONTEXT(2) 
PARAMETRIC_REPRESENTATION_CONTEXT() REPRESENTATION_CONTEXT('2D SPACE',''
  ) );
#503 = ( GEOMETRIC_REPRESENTATION_CONTEXT(3) 
GLOBAL_UNCERTAINTY_ASSIGNED_CONTEXT((#507)) GLOBAL_UNIT_ASSIGNED_CONTEXT
((#504,#505,#506)) REPRESENTATION_CONTEXT('Context #1',
  '3D Context with UNIT and UNCERTAINTY') );
#504 = ( LENGTH_UNIT() NAMED_UNIT(*) SI_UNIT(.MILLI.,.METRE.) );
#505 = ( NAMED_UNIT(*) PLANE_ANGLE_UNIT() SI_UNIT($,.RADIAN.) );
#506 = ( NAMED_UNIT(*) SI_UNIT($,.STERADIAN.) SOLID_ANGLE_UNIT() );
#507 = UNCERTAINTY_MEASURE_WITH_UNIT(LENGTH_MEASURE(1.E-07),#504,
  'distance_accuracy_value','confusion accuracy');
#508 = CONTEXT_DEPENDENT_SHAPE_REPRESENTATION(#509,#511);
#509 = ( REPRESENTATION_RELATIONSHIP('','',#421,#10) 
REPRESENTATION_RELATIONSHIP_WITH_TRANSFORMATION(#510) 
SHAPE_REPRESENTATION_RELATIONSHIP() );
#510 = ITEM_DEFINED_TRANSFORMATION('','',#11,#35);
#511 = PRODUCT_DEFINITION_SHAPE('Placement','Placement of an item',#512
  );
#512 = NEXT_ASSEMBLY_USAGE_OCCURRENCE('6','','',#5,#416,$);
#513 = PRODUCT_RELATED_PRODUCT_CATEGORY('part',$,(#418));
ENDSEC;
END-ISO-10303-21;
