solid 
 facet normal  0.000000e+00  1.000000e+00  0.000000e+00
   outer loop
     vertex  2.000000e-01  5.000000e-02  2.000000e-01
     vertex  2.000000e-01  5.000000e-02  1.000000e-01
     vertex  1.000000e-01  5.000000e-02  1.000000e-01
   endloop
 endfacet
 facet normal  0.000000e+00  1.000000e+00  0.000000e+00
   outer loop
     vertex  2.000000e-01  5.000000e-02  2.000000e-01
     vertex  1.000000e-01  5.000000e-02  1.000000e-01
     vertex  1.000000e-01  5.000000e-02  2.000000e-01
   endloop
 endfacet
 facet normal  0.000000e+00  1.000000e+00  0.000000e+00
   outer loop
     vertex  2.000000e-01  5.000000e-02  3.000000e-01
     vertex  2.000000e-01  5.000000e-02  2.000000e-01
     vertex  1.000000e-01  5.000000e-02  2.000000e-01
   endloop
 endfacet
 facet normal  0.000000e+00  1.000000e+00  0.000000e+00
   outer loop
     vertex  2.000000e-01  5.000000e-02  3.000000e-01
     vertex  1.000000e-01  5.000000e-02  2.000000e-01
     vertex  1.000000e-01  5.000000e-02  3.000000e-01
   endloop
 endfacet
 facet normal -1.000000e+00  0.000000e+00  0.000000e+00
   outer loop
     vertex  1.000000e-01  5.000000e-12  2.000000e-01
     vertex  1.000000e-01  5.000000e-02  2.000000e-01
     vertex  1.000000e-01  5.000000e-02  1.000000e-01
   endloop
 endfacet
 facet normal -1.000000e+00  0.000000e+00  0.000000e+00
   outer loop
     vertex  1.000000e-01  5.000000e-12  2.000000e-01
     vertex  1.000000e-01  5.000000e-02  1.000000e-01
     vertex  1.000000e-01  5.000000e-12  1.000000e-01
   endloop
 endfacet
 facet normal  1.224647e-16 -1.000000e+00  0.000000e+00
   outer loop
     vertex  2.000000e-01  4.990001e-11  2.000000e-01
     vertex  1.000000e-01  4.990000e-11  2.000000e-01
     vertex  1.000000e-01  4.990000e-11  1.000000e-01
   endloop
 endfacet
 facet normal  1.224647e-16 -1.000000e+00  0.000000e+00
   outer loop
     vertex  2.000000e-01  4.990001e-11  2.000000e-01
     vertex  1.000000e-01  4.990000e-11  1.000000e-01
     vertex  2.000000e-01  4.990001e-11  1.000000e-01
   endloop
 endfacet
 facet normal -1.000000e+00  0.000000e+00  0.000000e+00
   outer loop
     vertex  2.000000e-01  5.000000e-12  2.000000e-01
     vertex  2.000000e-01  5.000000e-02  2.000000e-01
     vertex  2.000000e-01  5.000000e-02  1.000000e-01
   endloop
 endfacet
 facet normal -1.000000e+00  0.000000e+00  0.000000e+00
   outer loop
     vertex  2.000000e-01  5.000000e-12  2.000000e-01
     vertex  2.000000e-01  5.000000e-02  1.000000e-01
     vertex  2.000000e-01  5.000000e-12  1.000000e-01
   endloop
 endfacet
 facet normal  0.000000e+00  0.000000e+00  1.000000e+00
   outer loop
     vertex  2.000000e-01  5.000000e-02  1.000000e-01
     vertex  1.000000e-01  5.000000e-02  1.000000e-01
     vertex  1.000000e-01  4.990000e-11  1.000000e-01
   endloop
 endfacet
 facet normal  0.000000e+00  0.000000e+00  1.000000e+00
   outer loop
     vertex  2.000000e-01  5.000000e-02  1.000000e-01
     vertex  1.000000e-01  4.990000e-11  1.000000e-01
     vertex  2.000000e-01  4.990000e-11  1.000000e-01
   endloop
 endfacet
 facet normal  0.000000e+00  0.000000e+00  1.000000e+00
   outer loop
     vertex  2.000000e-01  5.000000e-02  2.000000e-01
     vertex  1.000000e-01  5.000000e-02  2.000000e-01
     vertex  1.000000e-01  4.990000e-11  2.000000e-01
   endloop
 endfacet
 facet normal  0.000000e+00  0.000000e+00  1.000000e+00
   outer loop
     vertex  2.000000e-01  5.000000e-02  2.000000e-01
     vertex  1.000000e-01  4.990000e-11  2.000000e-01
     vertex  2.000000e-01  4.990000e-11  2.000000e-01
   endloop
 endfacet
 facet normal  0.000000e+00  0.000000e+00  1.000000e+00
   outer loop
     vertex  2.000000e-01  5.000000e-02  3.000000e-01
     vertex  1.000000e-01  5.000000e-02  3.000000e-01
     vertex  1.000000e-01  4.990000e-11  3.000000e-01
   endloop
 endfacet
 facet normal  0.000000e+00  0.000000e+00  1.000000e+00
   outer loop
     vertex  2.000000e-01  5.000000e-02  3.000000e-01
     vertex  1.000000e-01  4.990000e-11  3.000000e-01
     vertex  2.000000e-01  4.990000e-11  3.000000e-01
   endloop
 endfacet
 facet normal  0.000000e+00  0.000000e+00  1.000000e+00
   outer loop
     vertex  2.000000e-01  5.000000e-02  4.000000e-01
     vertex  1.000000e-01  5.000000e-02  4.000000e-01
     vertex  1.000000e-01  4.990000e-11  4.000000e-01
   endloop
 endfacet
 facet normal  0.000000e+00  0.000000e+00  1.000000e+00
   outer loop
     vertex  2.000000e-01  5.000000e-02  4.000000e-01
     vertex  1.000000e-01  4.990000e-11  4.000000e-01
     vertex  2.000000e-01  4.990000e-11  4.000000e-01
   endloop
 endfacet
 facet normal  0.000000e+00  0.000000e+00  1.000000e+00
   outer loop
     vertex  2.000000e-01  5.000000e-02  5.000000e-01
     vertex  1.000000e-01  5.000000e-02  5.000000e-01
     vertex  1.000000e-01  4.990000e-11  5.000000e-01
   endloop
 endfacet
 facet normal  0.000000e+00  0.000000e+00  1.000000e+00
   outer loop
     vertex  2.000000e-01  5.000000e-02  5.000000e-01
     vertex  1.000000e-01  4.990000e-11  5.000000e-01
     vertex  2.000000e-01  4.990000e-11  5.000000e-01
   endloop
 endfacet
 facet normal  0.000000e+00  0.000000e+00  1.000000e+00
   outer loop
     vertex  2.000000e-01  5.000000e-02  6.000000e-01
     vertex  1.000000e-01  5.000000e-02  6.000000e-01
     vertex  1.000000e-01  4.990000e-11  6.000000e-01
   endloop
 endfacet
 facet normal  0.000000e+00  0.000000e+00  1.000000e+00
   outer loop
     vertex  2.000000e-01  5.000000e-02  6.000000e-01
     vertex  1.000000e-01  4.990000e-11  6.000000e-01
     vertex  2.000000e-01  4.990000e-11  6.000000e-01
   endloop
 endfacet
 facet normal  0.000000e+00  0.000000e+00  1.000000e+00
   outer loop
     vertex  2.000000e-01  5.000000e-02  7.000000e-01
     vertex  1.000000e-01  5.000000e-02  7.000000e-01
     vertex  1.000000e-01  4.990000e-11  7.000000e-01
   endloop
 endfacet
 facet normal  0.000000e+00  0.000000e+00  1.000000e+00
   outer loop
     vertex  2.000000e-01  5.000000e-02  7.000000e-01
     vertex  1.000000e-01  4.990000e-11  7.000000e-01
     vertex  2.000000e-01  4.990000e-11  7.000000e-01
   endloop
 endfacet
 facet normal  0.000000e+00  0.000000e+00  1.000000e+00
   outer loop
     vertex  2.000000e-01  5.000000e-02  8.000000e-01
     vertex  1.000000e-01  5.000000e-02  8.000000e-01
     vertex  1.000000e-01  4.990000e-11  8.000000e-01
   endloop
 endfacet
 facet normal  0.000000e+00  0.000000e+00  1.000000e+00
   outer loop
     vertex  2.000000e-01  5.000000e-02  8.000000e-01
     vertex  1.000000e-01  4.990000e-11  8.000000e-01
     vertex  2.000000e-01  4.990000e-11  8.000000e-01
   endloop
 endfacet
 facet normal  0.000000e+00  0.000000e+00  1.000000e+00
   outer loop
     vertex  2.000000e-01  5.000000e-02  9.000000e-01
     vertex  1.000000e-01  5.000000e-02  9.000000e-01
     vertex  1.000000e-01  4.990000e-11  9.000000e-01
   endloop
 endfacet
 facet normal  0.000000e+00  0.000000e+00  1.000000e+00
   outer loop
     vertex  2.000000e-01  5.000000e-02  9.000000e-01
     vertex  1.000000e-01  4.990000e-11  9.000000e-01
     vertex  2.000000e-01  4.990000e-11  9.000000e-01
   endloop
 endfacet
 facet normal  0.000000e+00  0.000000e+00  1.000000e+00
   outer loop
     vertex  2.000000e-01  5.000000e-02  1.000000e+00
     vertex  1.000000e-01  5.000000e-02  1.000000e+00
     vertex  1.000000e-01  4.990000e-11  1.000000e+00
   endloop
 endfacet
 facet normal  0.000000e+00  0.000000e+00  1.000000e+00
   outer loop
     vertex  2.000000e-01  5.000000e-02  1.000000e+00
     vertex  1.000000e-01  4.990000e-11  1.000000e+00
     vertex  2.000000e-01  4.990000e-11  1.000000e+00
   endloop
 endfacet
 facet normal  0.000000e+00 -1.000000e+00  0.000000e+00
   outer loop
     vertex  2.000000e-01  5.000000e-02  9.000000e-01
     vertex  2.000000e-01  5.000000e-02  1.000000e+00
     vertex  1.000000e-01  5.000000e-02  1.000000e+00
   endloop
 endfacet
 facet normal  0.000000e+00 -1.000000e+00  0.000000e+00
   outer loop
     vertex  2.000000e-01  5.000000e-02  9.000000e-01
     vertex  1.000000e-01  5.000000e-02  1.000000e+00
     vertex  1.000000e-01  5.000000e-02  9.000000e-01
   endloop
 endfacet
 facet normal  0.000000e+00 -1.000000e+00  0.000000e+00
   outer loop
     vertex  2.000000e-01  5.000000e-02  8.000000e-01
     vertex  2.000000e-01  5.000000e-02  9.000000e-01
     vertex  1.000000e-01  5.000000e-02  9.000000e-01
   endloop
 endfacet
 facet normal  0.000000e+00 -1.000000e+00  0.000000e+00
   outer loop
     vertex  2.000000e-01  5.000000e-02  8.000000e-01
     vertex  1.000000e-01  5.000000e-02  9.000000e-01
     vertex  1.000000e-01  5.000000e-02  8.000000e-01
   endloop
 endfacet
 facet normal -1.000000e+00  0.000000e+00  0.000000e+00
   outer loop
     vertex  1.000000e-01  5.000000e-12  9.000000e-01
     vertex  1.000000e-01  5.000000e-02  9.000000e-01
     vertex  1.000000e-01  5.000000e-02  8.000000e-01
   endloop
 endfacet
 facet normal -1.000000e+00  0.000000e+00  0.000000e+00
   outer loop
     vertex  1.000000e-01  5.000000e-12  9.000000e-01
     vertex  1.000000e-01  5.000000e-02  8.000000e-01
     vertex  1.000000e-01  5.000000e-12  8.000000e-01
   endloop
 endfacet
 facet normal -1.000000e+00  0.000000e+00  0.000000e+00
   outer loop
     vertex  1.000000e-01  5.000000e-12  8.000000e-01
     vertex  1.000000e-01  5.000000e-02  8.000000e-01
     vertex  1.000000e-01  5.000000e-02  7.000000e-01
   endloop
 endfacet
 facet normal -1.000000e+00  0.000000e+00  0.000000e+00
   outer loop
     vertex  1.000000e-01  5.000000e-12  8.000000e-01
     vertex  1.000000e-01  5.000000e-02  7.000000e-01
     vertex  1.000000e-01  5.000000e-12  7.000000e-01
   endloop
 endfacet
 facet normal -1.000000e+00  0.000000e+00  0.000000e+00
   outer loop
     vertex  1.000000e-01  5.000000e-12  7.000000e-01
     vertex  1.000000e-01  5.000000e-02  7.000000e-01
     vertex  1.000000e-01  5.000000e-02  6.000000e-01
   endloop
 endfacet
 facet normal -1.000000e+00  0.000000e+00  0.000000e+00
   outer loop
     vertex  1.000000e-01  5.000000e-12  7.000000e-01
     vertex  1.000000e-01  5.000000e-02  6.000000e-01
     vertex  1.000000e-01  5.000000e-12  6.000000e-01
   endloop
 endfacet
 facet normal -1.000000e+00  0.000000e+00  0.000000e+00
   outer loop
     vertex  1.000000e-01  5.000000e-12  6.000000e-01
     vertex  1.000000e-01  5.000000e-02  6.000000e-01
     vertex  1.000000e-01  5.000000e-02  5.000000e-01
   endloop
 endfacet
 facet normal -1.000000e+00  0.000000e+00  0.000000e+00
   outer loop
     vertex  1.000000e-01  5.000000e-12  6.000000e-01
     vertex  1.000000e-01  5.000000e-02  5.000000e-01
     vertex  1.000000e-01  5.000000e-12  5.000000e-01
   endloop
 endfacet
 facet normal -1.000000e+00  0.000000e+00  0.000000e+00
   outer loop
     vertex  1.000000e-01  5.000000e-12  5.000000e-01
     vertex  1.000000e-01  5.000000e-02  5.000000e-01
     vertex  1.000000e-01  5.000000e-02  4.000000e-01
   endloop
 endfacet
 facet normal -1.000000e+00  0.000000e+00  0.000000e+00
   outer loop
     vertex  1.000000e-01  5.000000e-12  5.000000e-01
     vertex  1.000000e-01  5.000000e-02  4.000000e-01
     vertex  1.000000e-01  5.000000e-12  4.000000e-01
   endloop
 endfacet
 facet normal -1.000000e+00  0.000000e+00  0.000000e+00
   outer loop
     vertex  1.000000e-01  5.000000e-12  4.000000e-01
     vertex  1.000000e-01  5.000000e-02  4.000000e-01
     vertex  1.000000e-01  5.000000e-02  3.000000e-01
   endloop
 endfacet
 facet normal -1.000000e+00  0.000000e+00  0.000000e+00
   outer loop
     vertex  1.000000e-01  5.000000e-12  4.000000e-01
     vertex  1.000000e-01  5.000000e-02  3.000000e-01
     vertex  1.000000e-01  5.000000e-12  3.000000e-01
   endloop
 endfacet
 facet normal -1.000000e+00  0.000000e+00  0.000000e+00
   outer loop
     vertex  1.000000e-01  5.000000e-12  3.000000e-01
     vertex  1.000000e-01  5.000000e-02  3.000000e-01
     vertex  1.000000e-01  5.000000e-02  2.000000e-01
   endloop
 endfacet
 facet normal -1.000000e+00  0.000000e+00  0.000000e+00
   outer loop
     vertex  1.000000e-01  5.000000e-12  3.000000e-01
     vertex  1.000000e-01  5.000000e-02  2.000000e-01
     vertex  1.000000e-01  5.000000e-12  2.000000e-01
   endloop
 endfacet
 facet normal -1.000000e+00  0.000000e+00  0.000000e+00
   outer loop
     vertex  1.000000e-01  5.000000e-12  2.000000e-01
     vertex  1.000000e-01  5.000000e-02  2.000000e-01
     vertex  1.000000e-01  5.000000e-02  1.000000e-01
   endloop
 endfacet
 facet normal -1.000000e+00  0.000000e+00  0.000000e+00
   outer loop
     vertex  1.000000e-01  5.000000e-12  2.000000e-01
     vertex  1.000000e-01  5.000000e-02  1.000000e-01
     vertex  1.000000e-01  5.000000e-12  1.000000e-01
   endloop
 endfacet
 facet normal -1.000000e+00  0.000000e+00  0.000000e+00
   outer loop
     vertex  1.000000e-01  5.000000e-12  1.000000e-01
     vertex  1.000000e-01  5.000000e-02  1.000000e-01
     vertex  1.000000e-01  5.000000e-02  5.000000e-11
   endloop
 endfacet
 facet normal -1.000000e+00  0.000000e+00  0.000000e+00
   outer loop
     vertex  1.000000e-01  5.000000e-12  1.000000e-01
     vertex  1.000000e-01  5.000000e-02  5.000000e-11
     vertex  1.000000e-01  5.000000e-12  5.000000e-11
   endloop
 endfacet
 facet normal  0.000000e+00  1.000000e+00  0.000000e+00
   outer loop
     vertex  2.000000e-01  5.000000e-02  1.000000e-01
     vertex  2.000000e-01  5.000000e-02  5.000000e-11
     vertex  1.000000e-01  5.000000e-02  5.000000e-11
   endloop
 endfacet
 facet normal  0.000000e+00  1.000000e+00  0.000000e+00
   outer loop
     vertex  2.000000e-01  5.000000e-02  1.000000e-01
     vertex  1.000000e-01  5.000000e-02  5.000000e-11
     vertex  1.000000e-01  5.000000e-02  1.000000e-01
   endloop
 endfacet
 facet normal  0.000000e+00  0.000000e+00 -1.000000e+00
   outer loop
     vertex  2.000000e-01  5.000000e-12  5.000000e-11
     vertex  1.000000e-01  5.000000e-12  5.000000e-11
     vertex  1.000000e-01  5.000000e-02  5.000000e-11
   endloop
 endfacet
 facet normal  0.000000e+00  0.000000e+00 -1.000000e+00
   outer loop
     vertex  2.000000e-01  5.000000e-12  5.000000e-11
     vertex  1.000000e-01  5.000000e-02  5.000000e-11
     vertex  2.000000e-01  5.000000e-02  5.000000e-11
   endloop
 endfacet
 facet normal  0.000000e+00  0.000000e+00 -1.000000e+00
   outer loop
     vertex  2.000000e-01  5.000000e-12  1.000000e-01
     vertex  1.000000e-01  5.000000e-12  1.000000e-01
     vertex  1.000000e-01  5.000000e-02  1.000000e-01
   endloop
 endfacet
 facet normal  0.000000e+00  0.000000e+00 -1.000000e+00
   outer loop
     vertex  2.000000e-01  5.000000e-12  1.000000e-01
     vertex  1.000000e-01  5.000000e-02  1.000000e-01
     vertex  2.000000e-01  5.000000e-02  1.000000e-01
   endloop
 endfacet
 facet normal  0.000000e+00  0.000000e+00 -1.000000e+00
   outer loop
     vertex  2.000000e-01  5.000000e-12  1.000000e+00
     vertex  1.000000e-01  5.000000e-12  1.000000e+00
     vertex  1.000000e-01  5.000000e-02  1.000000e+00
   endloop
 endfacet
 facet normal  0.000000e+00  0.000000e+00 -1.000000e+00
   outer loop
     vertex  2.000000e-01  5.000000e-12  1.000000e+00
     vertex  1.000000e-01  5.000000e-02  1.000000e+00
     vertex  2.000000e-01  5.000000e-02  1.000000e+00
   endloop
 endfacet
endsolid
