ISO-10303-21;
HEADER;
FILE_DESCRIPTION(('Open CASCADE Model'),'2;1');
FILE_NAME('Open CASCADE Shape Model','2026-06-29T15:27:08',('Author'),(
    'Open CASCADE'),'Open CASCADE STEP processor 7.9','Open CASCADE 7.9'
  ,'Unknown');
FILE_SCHEMA(('AUTOMOTIVE_DESIGN { 1 0 10303 214 1 1 1 1 }'));
ENDSEC;
DATA;
#1 = APPLICATION_PROTOCOL_DEFINITION('international standard',
  'automotive_design',2000,#2);
#2 = APPLICATION_CONTEXT(
  'core data for automotive mechanical design processes');
#3 = SHAPE_DEFINITION_REPRESENTATION(#4,#10);
#4 = PRODUCT_DEFINITION_SHAPE('','',#5);
#5 = PRODUCT_DEFINITION('design','',#6,#9);
#6 = PRODUCT_DEFINITION_FORMATION('','',#7);
#7 = PRODUCT('Open CASCADE STEP translator 7.9 1',
  'Open CASCADE STEP translator 7.9 1','',(#8));
#8 = PRODUCT_CONTEXT('',#2,'mechanical');
#9 = PRODUCT_DEFINITION_CONTEXT('part definition',#2,'design');
#10 = SHAPE_REPRESENTATION('',(#11,#15,#19,#23,#27),#31);
#11 = AXIS2_PLACEMENT_3D('',#12,#13,#14);
#12 = CARTESIAN_POINT('',(0.,0.,0.));
#13 = DIRECTION('',(0.,0.,1.));
#14 = DIRECTION('',(1.,0.,-0.));
#15 = AXIS2_PLACEMENT_3D('',#16,#17,#18);
#16 = CARTESIAN_POINT('',(0.,0.,0.));
#17 = DIRECTION('',(0.,0.,1.));
#18 = DIRECTION('',(1.,0.,-0.));
#19 = AXIS2_PLACEMENT_3D('',#20,#21,#22);
#20 = CARTESIAN_POINT('',(0.,0.,0.));
#21 = DIRECTION('',(0.,0.,1.));
#22 = DIRECTION('',(1.,0.,-0.));
#23 = AXIS2_PLACEMENT_3D('',#24,#25,#26);
#24 = CARTESIAN_POINT('',(0.,0.,0.));
#25 = DIRECTION('',(0.,0.,1.));
#26 = DIRECTION('',(1.,0.,-0.));
#27 = AXIS2_PLACEMENT_3D('',#28,#29,#30);
#28 = CARTESIAN_POINT('',(0.,0.,0.));
#29 = DIRECTION('',(0.,0.,1.));
#30 = DIRECTION('',(1.,0.,-0.));
#31 = ( GEOMETRIC_REPRESENTATION_CONTEXT(3) 
GLOBAL_UNCERTAINTY_ASSIGNED_CONTEXT((#35)) GLOBAL_UNIT_ASSIGNED_CONTEXT(
(#32,#33,#34)) REPRESENTATION_CONTEXT('Context #1',
  '3D Context with UNIT and UNCERTAINTY') );
#32 = ( LENGTH_UNIT() NAMED_UNIT(*) SI_UNIT(.MILLI.,.METRE.) );
#33 = ( NAMED_UNIT(*) PLANE_ANGLE_UNIT() SI_UNIT($,.RADIAN.) );
#34 = ( NAMED_UNIT(*) SI_UNIT($,.STERADIAN.) SOLID_ANGLE_UNIT() );
#35 = UNCERTAINTY_MEASURE_WITH_UNIT(LENGTH_MEASURE(1.E-07),#32,
  'distance_accuracy_value','confusion accuracy');
#36 = PRODUCT_RELATED_PRODUCT_CATEGORY('part',$,(#7));
#37 = SHAPE_DEFINITION_REPRESENTATION(#38,#44);
#38 = PRODUCT_DEFINITION_SHAPE('','',#39);
#39 = PRODUCT_DEFINITION('design','',#40,#43);
#40 = PRODUCT_DEFINITION_FORMATION('','',#41);
#41 = PRODUCT('Open CASCADE STEP translator 7.9 1.1',
  'Open CASCADE STEP translator 7.9 1.1','',(#42));
#42 = PRODUCT_CONTEXT('',#2,'mechanical');
#43 = PRODUCT_DEFINITION_CONTEXT('part definition',#2,'design');
#44 = MANIFOLD_SURFACE_SHAPE_REPRESENTATION('',(#11,#45),#126);
#45 = SHELL_BASED_SURFACE_MODEL('',(#46));
#46 = OPEN_SHELL('',(#47));
#47 = ADVANCED_FACE('',(#48),#61,.T.);
#48 = FACE_BOUND('',#49,.T.);
#49 = EDGE_LOOP('',(#50,#89,#107,#108));
#50 = ORIENTED_EDGE('',*,*,#51,.F.);
#51 = EDGE_CURVE('',#52,#54,#56,.T.);
#52 = VERTEX_POINT('',#53);
#53 = CARTESIAN_POINT('',(1.0500009946E-04,0.416666666694,
    1.0500009946E-04));
#54 = VERTEX_POINT('',#55);
#55 = CARTESIAN_POINT('',(2.1000009892E-04,0.416666666694,
    1.0500009946E-04));
#56 = SEAM_CURVE('',#57,(#60,#82),.PCURVE_S1.);
#57 = B_SPLINE_CURVE_WITH_KNOTS('',1,(#58,#59),.UNSPECIFIED.,.F.,.F.,(2,
    2),(-2.1E-04,-1.05E-04),.PIECEWISE_BEZIER_KNOTS.);
#58 = CARTESIAN_POINT('',(1.0500009946E-04,0.416666666694,
    1.0500009946E-04));
#59 = CARTESIAN_POINT('',(2.1000009892E-04,0.416666666694,
    1.0500009946E-04));
#60 = PCURVE('',#61,#76);
#61 = ( BOUNDED_SURFACE() B_SPLINE_SURFACE(2,1,(
    (#62,#63)
    ,(#64,#65)
    ,(#66,#67)
    ,(#68,#69)
    ,(#70,#71)
    ,(#72,#73)
,(#74,#75
    )),.UNSPECIFIED.,.T.,.F.,.F.) B_SPLINE_SURFACE_WITH_KNOTS((1,2,2,2,2
    ,1),(2,2),(-2.094395,0.,2.094395,4.18879,6.283185,8.37758),(-2.1E-04
,-1.05E-04),.UNSPECIFIED.) GEOMETRIC_REPRESENTATION_ITEM() 
RATIONAL_B_SPLINE_SURFACE((
    (1.,1.)
    ,(0.5,0.5)
    ,(1.,1.)
    ,(0.5,0.5)
    ,(1.,1.)
    ,(0.5,0.5)
,(1.,1.))) REPRESENTATION_ITEM('') SURFACE() );
#62 = CARTESIAN_POINT('',(1.0500009946E-04,0.416666666694,
    1.0500009946E-04));
#63 = CARTESIAN_POINT('',(2.1000009892E-04,0.416666666694,
    1.0500009946E-04));
#64 = CARTESIAN_POINT('',(1.0500009946E-04,-0.127664159108,
    1.0500009946E-04));
#65 = CARTESIAN_POINT('',(2.1000009892E-04,-0.127664159108,
    1.0500009946E-04));
#66 = CARTESIAN_POINT('',(1.0500009946E-04,0.144501253793,0.471479999954
    ));
#67 = CARTESIAN_POINT('',(2.1000009892E-04,0.144501253793,0.471479999954
    ));
#68 = CARTESIAN_POINT('',(1.0500009946E-04,0.416666666694,0.942854999808
    ));
#69 = CARTESIAN_POINT('',(2.1000009892E-04,0.416666666694,0.942854999808
    ));
#70 = CARTESIAN_POINT('',(1.0500009946E-04,0.688832079595,0.471479999954
    ));
#71 = CARTESIAN_POINT('',(2.1000009892E-04,0.688832079595,0.471479999954
    ));
#72 = CARTESIAN_POINT('',(1.0500009946E-04,0.960997492496,
    1.050000994605E-04));
#73 = CARTESIAN_POINT('',(2.1000009892E-04,0.960997492496,
    1.050000994605E-04));
#74 = CARTESIAN_POINT('',(1.0500009946E-04,0.416666666694,
    1.0500009946E-04));
#75 = CARTESIAN_POINT('',(2.1000009892E-04,0.416666666694,
    1.0500009946E-04));
#76 = DEFINITIONAL_REPRESENTATION('',(#77),#81);
#77 = LINE('',#78,#79);
#78 = CARTESIAN_POINT('',(0.,0.));
#79 = VECTOR('',#80,1.);
#80 = DIRECTION('',(0.,1.));
#81 = ( GEOMETRIC_REPRESENTATION_CONTEXT(2) 
PARAMETRIC_REPRESENTATION_CONTEXT() REPRESENTATION_CONTEXT('2D SPACE',''
  ) );
#82 = PCURVE('',#61,#83);
#83 = DEFINITIONAL_REPRESENTATION('',(#84),#88);
#84 = LINE('',#85,#86);
#85 = CARTESIAN_POINT('',(6.283185,0.));
#86 = VECTOR('',#87,1.);
#87 = DIRECTION('',(0.,1.));
#88 = ( GEOMETRIC_REPRESENTATION_CONTEXT(2) 
PARAMETRIC_REPRESENTATION_CONTEXT() REPRESENTATION_CONTEXT('2D SPACE',''
  ) );
#89 = ORIENTED_EDGE('',*,*,#90,.T.);
#90 = EDGE_CURVE('',#52,#52,#91,.T.);
#91 = SURFACE_CURVE('',#92,(#100),.PCURVE_S1.);
#92 = ( BOUNDED_CURVE() B_SPLINE_CURVE(2,(#93,#94,#95,#96,#97,#98,#99),
.UNSPECIFIED.,.T.,.F.) B_SPLINE_CURVE_WITH_KNOTS((1,2,2,2,2,1),(
-2.094395,0.,2.094395,4.18879,6.283185,8.37758),.UNSPECIFIED.) CURVE() 
GEOMETRIC_REPRESENTATION_ITEM() RATIONAL_B_SPLINE_CURVE((1.,0.5,1.,0.5,
1.,0.5,1.)) REPRESENTATION_ITEM('') );
#93 = CARTESIAN_POINT('',(1.0500009946E-04,0.416666666694,
    1.0500009946E-04));
#94 = CARTESIAN_POINT('',(1.0500009946E-04,-0.127664159108,
    1.0500009946E-04));
#95 = CARTESIAN_POINT('',(1.0500009946E-04,0.144501253793,0.471479999954
    ));
#96 = CARTESIAN_POINT('',(1.0500009946E-04,0.416666666694,0.942854999808
    ));
#97 = CARTESIAN_POINT('',(1.0500009946E-04,0.688832079595,0.471479999954
    ));
#98 = CARTESIAN_POINT('',(1.0500009946E-04,0.960997492496,
    1.050000994605E-04));
#99 = CARTESIAN_POINT('',(1.0500009946E-04,0.416666666694,
    1.0500009946E-04));
#100 = PCURVE('',#61,#101);
#101 = DEFINITIONAL_REPRESENTATION('',(#102),#106);
#102 = LINE('',#103,#104);
#103 = CARTESIAN_POINT('',(0.,-2.1E-04));
#104 = VECTOR('',#105,1.);
#105 = DIRECTION('',(1.,0.));
#106 = ( GEOMETRIC_REPRESENTATION_CONTEXT(2) 
PARAMETRIC_REPRESENTATION_CONTEXT() REPRESENTATION_CONTEXT('2D SPACE',''
  ) );
#107 = ORIENTED_EDGE('',*,*,#51,.T.);
#108 = ORIENTED_EDGE('',*,*,#109,.F.);
#109 = EDGE_CURVE('',#54,#54,#110,.T.);
#110 = SURFACE_CURVE('',#111,(#119),.PCURVE_S1.);
#111 = ( BOUNDED_CURVE() B_SPLINE_CURVE(2,(#112,#113,#114,#115,#116,#117
,#118),.UNSPECIFIED.,.T.,.F.) B_SPLINE_CURVE_WITH_KNOTS((1,2,2,2,2,1),(
-2.094395,0.,2.094395,4.18879,6.283185,8.37758),.UNSPECIFIED.) CURVE() 
GEOMETRIC_REPRESENTATION_ITEM() RATIONAL_B_SPLINE_CURVE((1.,0.5,1.,0.5,
1.,0.5,1.)) REPRESENTATION_ITEM('') );
#112 = CARTESIAN_POINT('',(2.1000009892E-04,0.416666666694,
    1.0500009946E-04));
#113 = CARTESIAN_POINT('',(2.1000009892E-04,-0.127664159108,
    1.0500009946E-04));
#114 = CARTESIAN_POINT('',(2.1000009892E-04,0.144501253793,
    0.471479999954));
#115 = CARTESIAN_POINT('',(2.1000009892E-04,0.416666666694,
    0.942854999808));
#116 = CARTESIAN_POINT('',(2.1000009892E-04,0.688832079595,
    0.471479999954));
#117 = CARTESIAN_POINT('',(2.1000009892E-04,0.960997492496,
    1.050000994605E-04));
#118 = CARTESIAN_POINT('',(2.1000009892E-04,0.416666666694,
    1.0500009946E-04));
#119 = PCURVE('',#61,#120);
#120 = DEFINITIONAL_REPRESENTATION('',(#121),#125);
#121 = LINE('',#122,#123);
#122 = CARTESIAN_POINT('',(0.,-1.05E-04));
#123 = VECTOR('',#124,1.);
#124 = DIRECTION('',(1.,0.));
#125 = ( GEOMETRIC_REPRESENTATION_CONTEXT(2) 
PARAMETRIC_REPRESENTATION_CONTEXT() REPRESENTATION_CONTEXT('2D SPACE',''
  ) );
#126 = ( GEOMETRIC_REPRESENTATION_CONTEXT(3) 
GLOBAL_UNCERTAINTY_ASSIGNED_CONTEXT((#130)) GLOBAL_UNIT_ASSIGNED_CONTEXT
((#127,#128,#129)) REPRESENTATION_CONTEXT('Context #1',
  '3D Context with UNIT and UNCERTAINTY') );
#127 = ( LENGTH_UNIT() NAMED_UNIT(*) SI_UNIT(.MILLI.,.METRE.) );
#128 = ( NAMED_UNIT(*) PLANE_ANGLE_UNIT() SI_UNIT($,.RADIAN.) );
#129 = ( NAMED_UNIT(*) SI_UNIT($,.STERADIAN.) SOLID_ANGLE_UNIT() );
#130 = UNCERTAINTY_MEASURE_WITH_UNIT(LENGTH_MEASURE(1.E-07),#127,
  'distance_accuracy_value','confusion accuracy');
#131 = CONTEXT_DEPENDENT_SHAPE_REPRESENTATION(#132,#134);
#132 = ( REPRESENTATION_RELATIONSHIP('','',#44,#10) 
REPRESENTATION_RELATIONSHIP_WITH_TRANSFORMATION(#133) 
SHAPE_REPRESENTATION_RELATIONSHIP() );
#133 = ITEM_DEFINED_TRANSFORMATION('','',#11,#15);
#134 = PRODUCT_DEFINITION_SHAPE('Placement','Placement of an item',#135
  );
#135 = NEXT_ASSEMBLY_USAGE_OCCURRENCE('1','','',#5,#39,$);
#136 = PRODUCT_RELATED_PRODUCT_CATEGORY('part',$,(#41));
#137 = SHAPE_DEFINITION_REPRESENTATION(#138,#144);
#138 = PRODUCT_DEFINITION_SHAPE('','',#139);
#139 = PRODUCT_DEFINITION('design','',#140,#143);
#140 = PRODUCT_DEFINITION_FORMATION('','',#141);
#141 = PRODUCT('Open CASCADE STEP translator 7.9 1.2',
  'Open CASCADE STEP translator 7.9 1.2','',(#142));
#142 = PRODUCT_CONTEXT('',#2,'mechanical');
#143 = PRODUCT_DEFINITION_CONTEXT('part definition',#2,'design');
#144 = MANIFOLD_SURFACE_SHAPE_REPRESENTATION('',(#11,#145),#226);
#145 = SHELL_BASED_SURFACE_MODEL('',(#146));
#146 = OPEN_SHELL('',(#147));
#147 = ADVANCED_FACE('',(#148),#161,.T.);
#148 = FACE_BOUND('',#149,.T.);
#149 = EDGE_LOOP('',(#150,#189,#207,#208));
#150 = ORIENTED_EDGE('',*,*,#151,.F.);
#151 = EDGE_CURVE('',#152,#154,#156,.T.);
#152 = VERTEX_POINT('',#153);
#153 = CARTESIAN_POINT('',(1.0500009946E-04,0.416666666694,
    1.0500009946E-04));
#154 = VERTEX_POINT('',#155);
#155 = CARTESIAN_POINT('',(9.999999918029E-11,0.416666666694,
    1.0500009946E-04));
#156 = SEAM_CURVE('',#157,(#160,#182),.PCURVE_S1.);
#157 = B_SPLINE_CURVE_WITH_KNOTS('',1,(#158,#159),.UNSPECIFIED.,.F.,.F.,
  (2,2),(-2.1E-04,-1.05E-04),.PIECEWISE_BEZIER_KNOTS.);
#158 = CARTESIAN_POINT('',(1.0500009946E-04,0.416666666694,
    1.0500009946E-04));
#159 = CARTESIAN_POINT('',(9.999999918029E-11,0.416666666694,
    1.0500009946E-04));
#160 = PCURVE('',#161,#176);
#161 = ( BOUNDED_SURFACE() B_SPLINE_SURFACE(2,1,(
    (#162,#163)
    ,(#164,#165)
    ,(#166,#167)
    ,(#168,#169)
    ,(#170,#171)
    ,(#172,#173)
,(#174,#175
    )),.UNSPECIFIED.,.T.,.F.,.F.) B_SPLINE_SURFACE_WITH_KNOTS((1,2,2,2,2
    ,1),(2,2),(-2.094395,0.,2.094395,4.18879,6.283185,8.37758),(-2.1E-04
,-1.05E-04),.UNSPECIFIED.) GEOMETRIC_REPRESENTATION_ITEM() 
RATIONAL_B_SPLINE_SURFACE((
    (1.,1.)
    ,(0.5,0.5)
    ,(1.,1.)
    ,(0.5,0.5)
    ,(1.,1.)
    ,(0.5,0.5)
,(1.,1.))) REPRESENTATION_ITEM('') SURFACE() );
#162 = CARTESIAN_POINT('',(1.0500009946E-04,0.416666666694,
    1.0500009946E-04));
#163 = CARTESIAN_POINT('',(9.999999918029E-11,0.416666666694,
    1.0500009946E-04));
#164 = CARTESIAN_POINT('',(1.0500009946E-04,-0.127664159108,
    1.0500009946E-04));
#165 = CARTESIAN_POINT('',(9.999999918029E-11,-0.127664159108,
    1.0500009946E-04));
#166 = CARTESIAN_POINT('',(1.0500009946E-04,0.144501253793,
    0.471479999954));
#167 = CARTESIAN_POINT('',(9.999999918029E-11,0.144501253793,
    0.471479999954));
#168 = CARTESIAN_POINT('',(1.0500009946E-04,0.416666666694,
    0.942854999808));
#169 = CARTESIAN_POINT('',(9.999999918029E-11,0.416666666694,
    0.942854999808));
#170 = CARTESIAN_POINT('',(1.0500009946E-04,0.688832079595,
    0.471479999954));
#171 = CARTESIAN_POINT('',(9.999999918029E-11,0.688832079595,
    0.471479999954));
#172 = CARTESIAN_POINT('',(1.0500009946E-04,0.960997492496,
    1.050000994605E-04));
#173 = CARTESIAN_POINT('',(9.999999918029E-11,0.960997492496,
    1.050000994605E-04));
#174 = CARTESIAN_POINT('',(1.0500009946E-04,0.416666666694,
    1.0500009946E-04));
#175 = CARTESIAN_POINT('',(9.999999918029E-11,0.416666666694,
    1.0500009946E-04));
#176 = DEFINITIONAL_REPRESENTATION('',(#177),#181);
#177 = LINE('',#178,#179);
#178 = CARTESIAN_POINT('',(0.,0.));
#179 = VECTOR('',#180,1.);
#180 = DIRECTION('',(0.,1.));
#181 = ( GEOMETRIC_REPRESENTATION_CONTEXT(2) 
PARAMETRIC_REPRESENTATION_CONTEXT() REPRESENTATION_CONTEXT('2D SPACE',''
  ) );
#182 = PCURVE('',#161,#183);
#183 = DEFINITIONAL_REPRESENTATION('',(#184),#188);
#184 = LINE('',#185,#186);
#185 = CARTESIAN_POINT('',(6.283185,0.));
#186 = VECTOR('',#187,1.);
#187 = DIRECTION('',(0.,1.));
#188 = ( GEOMETRIC_REPRESENTATION_CONTEXT(2) 
PARAMETRIC_REPRESENTATION_CONTEXT() REPRESENTATION_CONTEXT('2D SPACE',''
  ) );
#189 = ORIENTED_EDGE('',*,*,#190,.T.);
#190 = EDGE_CURVE('',#152,#152,#191,.T.);
#191 = SURFACE_CURVE('',#192,(#200),.PCURVE_S1.);
#192 = ( BOUNDED_CURVE() B_SPLINE_CURVE(2,(#193,#194,#195,#196,#197,#198
,#199),.UNSPECIFIED.,.T.,.F.) B_SPLINE_CURVE_WITH_KNOTS((1,2,2,2,2,1),(
-2.094395,0.,2.094395,4.18879,6.283185,8.37758),.UNSPECIFIED.) CURVE() 
GEOMETRIC_REPRESENTATION_ITEM() RATIONAL_B_SPLINE_CURVE((1.,0.5,1.,0.5,
1.,0.5,1.)) REPRESENTATION_ITEM('') );
#193 = CARTESIAN_POINT('',(1.0500009946E-04,0.416666666694,
    1.0500009946E-04));
#194 = CARTESIAN_POINT('',(1.0500009946E-04,-0.127664159108,
    1.0500009946E-04));
#195 = CARTESIAN_POINT('',(1.0500009946E-04,0.144501253793,
    0.471479999954));
#196 = CARTESIAN_POINT('',(1.0500009946E-04,0.416666666694,
    0.942854999808));
#197 = CARTESIAN_POINT('',(1.0500009946E-04,0.688832079595,
    0.471479999954));
#198 = CARTESIAN_POINT('',(1.0500009946E-04,0.960997492496,
    1.050000994605E-04));
#199 = CARTESIAN_POINT('',(1.0500009946E-04,0.416666666694,
    1.0500009946E-04));
#200 = PCURVE('',#161,#201);
#201 = DEFINITIONAL_REPRESENTATION('',(#202),#206);
#202 = LINE('',#203,#204);
#203 = CARTESIAN_POINT('',(0.,-2.1E-04));
#204 = VECTOR('',#205,1.);
#205 = DIRECTION('',(1.,0.));
#206 = ( GEOMETRIC_REPRESENTATION_CONTEXT(2) 
PARAMETRIC_REPRESENTATION_CONTEXT() REPRESENTATION_CONTEXT('2D SPACE',''
  ) );
#207 = ORIENTED_EDGE('',*,*,#151,.T.);
#208 = ORIENTED_EDGE('',*,*,#209,.F.);
#209 = EDGE_CURVE('',#154,#154,#210,.T.);
#210 = SURFACE_CURVE('',#211,(#219),.PCURVE_S1.);
#211 = ( BOUNDED_CURVE() B_SPLINE_CURVE(2,(#212,#213,#214,#215,#216,#217
,#218),.UNSPECIFIED.,.T.,.F.) B_SPLINE_CURVE_WITH_KNOTS((1,2,2,2,2,1),(
-2.094395,0.,2.094395,4.18879,6.283185,8.37758),.UNSPECIFIED.) CURVE() 
GEOMETRIC_REPRESENTATION_ITEM() RATIONAL_B_SPLINE_CURVE((1.,0.5,1.,0.5,
1.,0.5,1.)) REPRESENTATION_ITEM('') );
#212 = CARTESIAN_POINT('',(9.999999918029E-11,0.416666666694,
    1.0500009946E-04));
#213 = CARTESIAN_POINT('',(9.999999918029E-11,-0.127664159108,
    1.0500009946E-04));
#214 = CARTESIAN_POINT('',(9.999999918029E-11,0.144501253793,
    0.471479999954));
#215 = CARTESIAN_POINT('',(9.999999918029E-11,0.416666666694,
    0.942854999808));
#216 = CARTESIAN_POINT('',(9.999999918029E-11,0.688832079595,
    0.471479999954));
#217 = CARTESIAN_POINT('',(9.999999918029E-11,0.960997492496,
    1.050000994605E-04));
#218 = CARTESIAN_POINT('',(9.999999918029E-11,0.416666666694,
    1.0500009946E-04));
#219 = PCURVE('',#161,#220);
#220 = DEFINITIONAL_REPRESENTATION('',(#221),#225);
#221 = LINE('',#222,#223);
#222 = CARTESIAN_POINT('',(0.,-1.05E-04));
#223 = VECTOR('',#224,1.);
#224 = DIRECTION('',(1.,0.));
#225 = ( GEOMETRIC_REPRESENTATION_CONTEXT(2) 
PARAMETRIC_REPRESENTATION_CONTEXT() REPRESENTATION_CONTEXT('2D SPACE',''
  ) );
#226 = ( GEOMETRIC_REPRESENTATION_CONTEXT(3) 
GLOBAL_UNCERTAINTY_ASSIGNED_CONTEXT((#230)) GLOBAL_UNIT_ASSIGNED_CONTEXT
((#227,#228,#229)) REPRESENTATION_CONTEXT('Context #1',
  '3D Context with UNIT and UNCERTAINTY') );
#227 = ( LENGTH_UNIT() NAMED_UNIT(*) SI_UNIT(.MILLI.,.METRE.) );
#228 = ( NAMED_UNIT(*) PLANE_ANGLE_UNIT() SI_UNIT($,.RADIAN.) );
#229 = ( NAMED_UNIT(*) SI_UNIT($,.STERADIAN.) SOLID_ANGLE_UNIT() );
#230 = UNCERTAINTY_MEASURE_WITH_UNIT(LENGTH_MEASURE(1.E-07),#227,
  'distance_accuracy_value','confusion accuracy');
#231 = CONTEXT_DEPENDENT_SHAPE_REPRESENTATION(#232,#234);
#232 = ( REPRESENTATION_RELATIONSHIP('','',#144,#10) 
REPRESENTATION_RELATIONSHIP_WITH_TRANSFORMATION(#233) 
SHAPE_REPRESENTATION_RELATIONSHIP() );
#233 = ITEM_DEFINED_TRANSFORMATION('','',#11,#19);
#234 = PRODUCT_DEFINITION_SHAPE('Placement','Placement of an item',#235
  );
#235 = NEXT_ASSEMBLY_USAGE_OCCURRENCE('2','','',#5,#139,$);
#236 = PRODUCT_RELATED_PRODUCT_CATEGORY('part',$,(#141));
#237 = SHAPE_DEFINITION_REPRESENTATION(#238,#244);
#238 = PRODUCT_DEFINITION_SHAPE('','',#239);
#239 = PRODUCT_DEFINITION('design','',#240,#243);
#240 = PRODUCT_DEFINITION_FORMATION('','',#241);
#241 = PRODUCT('Open CASCADE STEP translator 7.9 1.3',
  'Open CASCADE STEP translator 7.9 1.3','',(#242));
#242 = PRODUCT_CONTEXT('',#2,'mechanical');
#243 = PRODUCT_DEFINITION_CONTEXT('part definition',#2,'design');
#244 = MANIFOLD_SURFACE_SHAPE_REPRESENTATION('',(#11,#245),#326);
#245 = SHELL_BASED_SURFACE_MODEL('',(#246));
#246 = OPEN_SHELL('',(#247));
#247 = ADVANCED_FACE('',(#248),#261,.T.);
#248 = FACE_BOUND('',#249,.T.);
#249 = EDGE_LOOP('',(#250,#289,#307,#308));
#250 = ORIENTED_EDGE('',*,*,#251,.F.);
#251 = EDGE_CURVE('',#252,#254,#256,.T.);
#252 = VERTEX_POINT('',#253);
#253 = CARTESIAN_POINT('',(1.050000994601E-04,0.416666666694,
    1.0500009946E-04));
#254 = VERTEX_POINT('',#255);
#255 = CARTESIAN_POINT('',(1.000000992793E-10,0.416666666694,
    1.0500009946E-04));
#256 = SEAM_CURVE('',#257,(#260,#282),.PCURVE_S1.);
#257 = B_SPLINE_CURVE_WITH_KNOTS('',1,(#258,#259),.UNSPECIFIED.,.F.,.F.,
  (2,2),(-2.1E-04,-1.05E-04),.PIECEWISE_BEZIER_KNOTS.);
#258 = CARTESIAN_POINT('',(1.050000994601E-04,0.416666666694,
    1.0500009946E-04));
#259 = CARTESIAN_POINT('',(1.000000992793E-10,0.416666666694,
    1.0500009946E-04));
#260 = PCURVE('',#261,#276);
#261 = ( BOUNDED_SURFACE() B_SPLINE_SURFACE(2,1,(
    (#262,#263)
    ,(#264,#265)
    ,(#266,#267)
    ,(#268,#269)
    ,(#270,#271)
    ,(#272,#273)
,(#274,#275
    )),.UNSPECIFIED.,.T.,.F.,.F.) B_SPLINE_SURFACE_WITH_KNOTS((1,2,2,2,2
    ,1),(2,2),(-2.094395,0.,2.094395,4.18879,6.283185,8.37758),(-2.1E-04
,-1.05E-04),.UNSPECIFIED.) GEOMETRIC_REPRESENTATION_ITEM() 
RATIONAL_B_SPLINE_SURFACE((
    (1.,1.)
    ,(0.5,0.5)
    ,(1.,1.)
    ,(0.5,0.5)
    ,(1.,1.)
    ,(0.5,0.5)
,(1.,1.))) REPRESENTATION_ITEM('') SURFACE() );
#262 = CARTESIAN_POINT('',(1.050000994601E-04,0.416666666694,
    1.0500009946E-04));
#263 = CARTESIAN_POINT('',(1.000000992793E-10,0.416666666694,
    1.0500009946E-04));
#264 = CARTESIAN_POINT('',(1.050000994601E-04,-0.127664159108,
    1.0500009946E-04));
#265 = CARTESIAN_POINT('',(1.000000992793E-10,-0.127664159108,
    1.0500009946E-04));
#266 = CARTESIAN_POINT('',(1.050000994601E-04,0.144501253793,
    0.471479999954));
#267 = CARTESIAN_POINT('',(1.000000992793E-10,0.144501253793,
    0.471479999954));
#268 = CARTESIAN_POINT('',(1.050000994601E-04,0.416666666694,
    0.942854999808));
#269 = CARTESIAN_POINT('',(1.000000992793E-10,0.416666666694,
    0.942854999808));
#270 = CARTESIAN_POINT('',(1.050000994601E-04,0.688832079595,
    0.471479999954));
#271 = CARTESIAN_POINT('',(1.000000992793E-10,0.688832079595,
    0.471479999954));
#272 = CARTESIAN_POINT('',(1.050000994601E-04,0.960997492496,
    1.050000994605E-04));
#273 = CARTESIAN_POINT('',(1.000000992793E-10,0.960997492496,
    1.050000994605E-04));
#274 = CARTESIAN_POINT('',(1.050000994601E-04,0.416666666694,
    1.0500009946E-04));
#275 = CARTESIAN_POINT('',(1.000000992793E-10,0.416666666694,
    1.0500009946E-04));
#276 = DEFINITIONAL_REPRESENTATION('',(#277),#281);
#277 = LINE('',#278,#279);
#278 = CARTESIAN_POINT('',(0.,0.));
#279 = VECTOR('',#280,1.);
#280 = DIRECTION('',(0.,1.));
#281 = ( GEOMETRIC_REPRESENTATION_CONTEXT(2) 
PARAMETRIC_REPRESENTATION_CONTEXT() REPRESENTATION_CONTEXT('2D SPACE',''
  ) );
#282 = PCURVE('',#261,#283);
#283 = DEFINITIONAL_REPRESENTATION('',(#284),#288);
#284 = LINE('',#285,#286);
#285 = CARTESIAN_POINT('',(6.283185,0.));
#286 = VECTOR('',#287,1.);
#287 = DIRECTION('',(0.,1.));
#288 = ( GEOMETRIC_REPRESENTATION_CONTEXT(2) 
PARAMETRIC_REPRESENTATION_CONTEXT() REPRESENTATION_CONTEXT('2D SPACE',''
  ) );
#289 = ORIENTED_EDGE('',*,*,#290,.T.);
#290 = EDGE_CURVE('',#252,#252,#291,.T.);
#291 = SURFACE_CURVE('',#292,(#300),.PCURVE_S1.);
#292 = ( BOUNDED_CURVE() B_SPLINE_CURVE(2,(#293,#294,#295,#296,#297,#298
,#299),.UNSPECIFIED.,.T.,.F.) B_SPLINE_CURVE_WITH_KNOTS((1,2,2,2,2,1),(
-2.094395,0.,2.094395,4.18879,6.283185,8.37758),.UNSPECIFIED.) CURVE() 
GEOMETRIC_REPRESENTATION_ITEM() RATIONAL_B_SPLINE_CURVE((1.,0.5,1.,0.5,
1.,0.5,1.)) REPRESENTATION_ITEM('') );
#293 = CARTESIAN_POINT('',(1.050000994601E-04,0.416666666694,
    1.0500009946E-04));
#294 = CARTESIAN_POINT('',(1.050000994601E-04,-0.127664159108,
    1.0500009946E-04));
#295 = CARTESIAN_POINT('',(1.050000994601E-04,0.144501253793,
    0.471479999954));
#296 = CARTESIAN_POINT('',(1.050000994601E-04,0.416666666694,
    0.942854999808));
#297 = CARTESIAN_POINT('',(1.050000994601E-04,0.688832079595,
    0.471479999954));
#298 = CARTESIAN_POINT('',(1.050000994601E-04,0.960997492496,
    1.050000994605E-04));
#299 = CARTESIAN_POINT('',(1.050000994601E-04,0.416666666694,
    1.0500009946E-04));
#300 = PCURVE('',#261,#301);
#301 = DEFINITIONAL_REPRESENTATION('',(#302),#306);
#302 = LINE('',#303,#304);
#303 = CARTESIAN_POINT('',(0.,-2.1E-04));
#304 = VECTOR('',#305,1.);
#305 = DIRECTION('',(1.,0.));
#306 = ( GEOMETRIC_REPRESENTATION_CONTEXT(2) 
PARAMETRIC_REPRESENTATION_CONTEXT() REPRESENTATION_CONTEXT('2D SPACE',''
  ) );
#307 = ORIENTED_EDGE('',*,*,#251,.T.);
#308 = ORIENTED_EDGE('',*,*,#309,.F.);
#309 = EDGE_CURVE('',#254,#254,#310,.T.);
#310 = SURFACE_CURVE('',#311,(#319),.PCURVE_S1.);
#311 = ( BOUNDED_CURVE() B_SPLINE_CURVE(2,(#312,#313,#314,#315,#316,#317
,#318),.UNSPECIFIED.,.T.,.F.) B_SPLINE_CURVE_WITH_KNOTS((1,2,2,2,2,1),(
-2.094395,0.,2.094395,4.18879,6.283185,8.37758),.UNSPECIFIED.) CURVE() 
GEOMETRIC_REPRESENTATION_ITEM() RATIONAL_B_SPLINE_CURVE((1.,0.5,1.,0.5,
1.,0.5,1.)) REPRESENTATION_ITEM('') );
#312 = CARTESIAN_POINT('',(1.000000992793E-10,0.416666666694,
    1.0500009946E-04));
#313 = CARTESIAN_POINT('',(1.000000992793E-10,-0.127664159108,
    1.0500009946E-04));
#314 = CARTESIAN_POINT('',(1.000000992793E-10,0.144501253793,
    0.471479999954));
#315 = CARTESIAN_POINT('',(1.000000992793E-10,0.416666666694,
    0.942854999808));
#316 = CARTESIAN_POINT('',(1.000000992793E-10,0.688832079595,
    0.471479999954));
#317 = CARTESIAN_POINT('',(1.000000992793E-10,0.960997492496,
    1.050000994605E-04));
#318 = CARTESIAN_POINT('',(1.000000992793E-10,0.416666666694,
    1.0500009946E-04));
#319 = PCURVE('',#261,#320);
#320 = DEFINITIONAL_REPRESENTATION('',(#321),#325);
#321 = LINE('',#322,#323);
#322 = CARTESIAN_POINT('',(0.,-1.05E-04));
#323 = VECTOR('',#324,1.);
#324 = DIRECTION('',(1.,0.));
#325 = ( GEOMETRIC_REPRESENTATION_CONTEXT(2) 
PARAMETRIC_REPRESENTATION_CONTEXT() REPRESENTATION_CONTEXT('2D SPACE',''
  ) );
#326 = ( GEOMETRIC_REPRESENTATION_CONTEXT(3) 
GLOBAL_UNCERTAINTY_ASSIGNED_CONTEXT((#330)) GLOBAL_UNIT_ASSIGNED_CONTEXT
((#327,#328,#329)) REPRESENTATION_CONTEXT('Context #1',
  '3D Context with UNIT and UNCERTAINTY') );
#327 = ( LENGTH_UNIT() NAMED_UNIT(*) SI_UNIT(.MILLI.,.METRE.) );
#328 = ( NAMED_UNIT(*) PLANE_ANGLE_UNIT() SI_UNIT($,.RADIAN.) );
#329 = ( NAMED_UNIT(*) SI_UNIT($,.STERADIAN.) SOLID_ANGLE_UNIT() );
#330 = UNCERTAINTY_MEASURE_WITH_UNIT(LENGTH_MEASURE(1.E-07),#327,
  'distance_accuracy_value','confusion accuracy');
#331 = CONTEXT_DEPENDENT_SHAPE_REPRESENTATION(#332,#334);
#332 = ( REPRESENTATION_RELATIONSHIP('','',#244,#10) 
REPRESENTATION_RELATIONSHIP_WITH_TRANSFORMATION(#333) 
SHAPE_REPRESENTATION_RELATIONSHIP() );
#333 = ITEM_DEFINED_TRANSFORMATION('','',#11,#23);
#334 = PRODUCT_DEFINITION_SHAPE('Placement','Placement of an item',#335
  );
#335 = NEXT_ASSEMBLY_USAGE_OCCURRENCE('3','','',#5,#239,$);
#336 = PRODUCT_RELATED_PRODUCT_CATEGORY('part',$,(#241));
#337 = SHAPE_DEFINITION_REPRESENTATION(#338,#344);
#338 = PRODUCT_DEFINITION_SHAPE('','',#339);
#339 = PRODUCT_DEFINITION('design','',#340,#343);
#340 = PRODUCT_DEFINITION_FORMATION('','',#341);
#341 = PRODUCT('Open CASCADE STEP translator 7.9 1.4',
  'Open CASCADE STEP translator 7.9 1.4','',(#342));
#342 = PRODUCT_CONTEXT('',#2,'mechanical');
#343 = PRODUCT_DEFINITION_CONTEXT('part definition',#2,'design');
#344 = MANIFOLD_SURFACE_SHAPE_REPRESENTATION('',(#11,#345),#426);
#345 = SHELL_BASED_SURFACE_MODEL('',(#346));
#346 = OPEN_SHELL('',(#347));
#347 = ADVANCED_FACE('',(#348),#361,.T.);
#348 = FACE_BOUND('',#349,.T.);
#349 = EDGE_LOOP('',(#350,#389,#407,#408));
#350 = ORIENTED_EDGE('',*,*,#351,.F.);
#351 = EDGE_CURVE('',#352,#354,#356,.T.);
#352 = VERTEX_POINT('',#353);
#353 = CARTESIAN_POINT('',(1.050000994601E-04,0.416666666694,
    1.0500009946E-04));
#354 = VERTEX_POINT('',#355);
#355 = CARTESIAN_POINT('',(2.100000989201E-04,0.416666666694,
    1.0500009946E-04));
#356 = SEAM_CURVE('',#357,(#360,#382),.PCURVE_S1.);
#357 = B_SPLINE_CURVE_WITH_KNOTS('',1,(#358,#359),.UNSPECIFIED.,.F.,.F.,
  (2,2),(-2.1E-04,-1.05E-04),.PIECEWISE_BEZIER_KNOTS.);
#358 = CARTESIAN_POINT('',(1.050000994601E-04,0.416666666694,
    1.0500009946E-04));
#359 = CARTESIAN_POINT('',(2.100000989201E-04,0.416666666694,
    1.0500009946E-04));
#360 = PCURVE('',#361,#376);
#361 = ( BOUNDED_SURFACE() B_SPLINE_SURFACE(2,1,(
    (#362,#363)
    ,(#364,#365)
    ,(#366,#367)
    ,(#368,#369)
    ,(#370,#371)
    ,(#372,#373)
,(#374,#375
    )),.UNSPECIFIED.,.T.,.F.,.F.) B_SPLINE_SURFACE_WITH_KNOTS((1,2,2,2,2
    ,1),(2,2),(-2.094395,0.,2.094395,4.18879,6.283185,8.37758),(-2.1E-04
,-1.05E-04),.UNSPECIFIED.) GEOMETRIC_REPRESENTATION_ITEM() 
RATIONAL_B_SPLINE_SURFACE((
    (1.,1.)
    ,(0.5,0.5)
    ,(1.,1.)
    ,(0.5,0.5)
    ,(1.,1.)
    ,(0.5,0.5)
,(1.,1.))) REPRESENTATION_ITEM('') SURFACE() );
#362 = CARTESIAN_POINT('',(1.050000994601E-04,0.416666666694,
    1.0500009946E-04));
#363 = CARTESIAN_POINT('',(2.100000989201E-04,0.416666666694,
    1.0500009946E-04));
#364 = CARTESIAN_POINT('',(1.050000994601E-04,-0.127664159108,
    1.0500009946E-04));
#365 = CARTESIAN_POINT('',(2.100000989201E-04,-0.127664159108,
    1.0500009946E-04));
#366 = CARTESIAN_POINT('',(1.050000994601E-04,0.144501253793,
    0.471479999954));
#367 = CARTESIAN_POINT('',(2.100000989201E-04,0.144501253793,
    0.471479999954));
#368 = CARTESIAN_POINT('',(1.050000994601E-04,0.416666666694,
    0.942854999808));
#369 = CARTESIAN_POINT('',(2.100000989201E-04,0.416666666694,
    0.942854999808));
#370 = CARTESIAN_POINT('',(1.050000994601E-04,0.688832079595,
    0.471479999954));
#371 = CARTESIAN_POINT('',(2.100000989201E-04,0.688832079595,
    0.471479999954));
#372 = CARTESIAN_POINT('',(1.050000994601E-04,0.960997492496,
    1.050000994605E-04));
#373 = CARTESIAN_POINT('',(2.100000989201E-04,0.960997492496,
    1.050000994605E-04));
#374 = CARTESIAN_POINT('',(1.050000994601E-04,0.416666666694,
    1.0500009946E-04));
#375 = CARTESIAN_POINT('',(2.100000989201E-04,0.416666666694,
    1.0500009946E-04));
#376 = DEFINITIONAL_REPRESENTATION('',(#377),#381);
#377 = LINE('',#378,#379);
#378 = CARTESIAN_POINT('',(0.,0.));
#379 = VECTOR('',#380,1.);
#380 = DIRECTION('',(0.,1.));
#381 = ( GEOMETRIC_REPRESENTATION_CONTEXT(2) 
PARAMETRIC_REPRESENTATION_CONTEXT() REPRESENTATION_CONTEXT('2D SPACE',''
  ) );
#382 = PCURVE('',#361,#383);
#383 = DEFINITIONAL_REPRESENTATION('',(#384),#388);
#384 = LINE('',#385,#386);
#385 = CARTESIAN_POINT('',(6.283185,0.));
#386 = VECTOR('',#387,1.);
#387 = DIRECTION('',(0.,1.));
#388 = ( GEOMETRIC_REPRESENTATION_CONTEXT(2) 
PARAMETRIC_REPRESENTATION_CONTEXT() REPRESENTATION_CONTEXT('2D SPACE',''
  ) );
#389 = ORIENTED_EDGE('',*,*,#390,.T.);
#390 = EDGE_CURVE('',#352,#352,#391,.T.);
#391 = SURFACE_CURVE('',#392,(#400),.PCURVE_S1.);
#392 = ( BOUNDED_CURVE() B_SPLINE_CURVE(2,(#393,#394,#395,#396,#397,#398
,#399),.UNSPECIFIED.,.T.,.F.) B_SPLINE_CURVE_WITH_KNOTS((1,2,2,2,2,1),(
-2.094395,0.,2.094395,4.18879,6.283185,8.37758),.UNSPECIFIED.) CURVE() 
GEOMETRIC_REPRESENTATION_ITEM() RATIONAL_B_SPLINE_CURVE((1.,0.5,1.,0.5,
1.,0.5,1.)) REPRESENTATION_ITEM('') );
#393 = CARTESIAN_POINT('',(1.050000994601E-04,0.416666666694,
    1.0500009946E-04));
#394 = CARTESIAN_POINT('',(1.050000994601E-04,-0.127664159108,
    1.0500009946E-04));
#395 = CARTESIAN_POINT('',(1.050000994601E-04,0.144501253793,
    0.471479999954));
#396 = CARTESIAN_POINT('',(1.050000994601E-04,0.416666666694,
    0.942854999808));
#397 = CARTESIAN_POINT('',(1.050000994601E-04,0.688832079595,
    0.471479999954));
#398 = CARTESIAN_POINT('',(1.050000994601E-04,0.960997492496,
    1.050000994605E-04));
#399 = CARTESIAN_POINT('',(1.050000994601E-04,0.416666666694,
    1.0500009946E-04));
#400 = PCURVE('',#361,#401);
#401 = DEFINITIONAL_REPRESENTATION('',(#402),#406);
#402 = LINE('',#403,#404);
#403 = CARTESIAN_POINT('',(0.,-2.1E-04));
#404 = VECTOR('',#405,1.);
#405 = DIRECTION('',(1.,0.));
#406 = ( GEOMETRIC_REPRESENTATION_CONTEXT(2) 
PARAMETRIC_REPRESENTATION_CONTEXT() REPRESENTATION_CONTEXT('2D SPACE',''
  ) );
#407 = ORIENTED_EDGE('',*,*,#351,.T.);
#408 = ORIENTED_EDGE('',*,*,#409,.F.);
#409 = EDGE_CURVE('',#354,#354,#410,.T.);
#410 = SURFACE_CURVE('',#411,(#419),.PCURVE_S1.);
#411 = ( BOUNDED_CURVE() B_SPLINE_CURVE(2,(#412,#413,#414,#415,#416,#417
,#418),.UNSPECIFIED.,.T.,.F.) B_SPLINE_CURVE_WITH_KNOTS((1,2,2,2,2,1),(
-2.094395,0.,2.094395,4.18879,6.283185,8.37758),.UNSPECIFIED.) CURVE() 
GEOMETRIC_REPRESENTATION_ITEM() RATIONAL_B_SPLINE_CURVE((1.,0.5,1.,0.5,
1.,0.5,1.)) REPRESENTATION_ITEM('') );
#412 = CARTESIAN_POINT('',(2.100000989201E-04,0.416666666694,
    1.0500009946E-04));
#413 = CARTESIAN_POINT('',(2.100000989201E-04,-0.127664159108,
    1.0500009946E-04));
#414 = CARTESIAN_POINT('',(2.100000989201E-04,0.144501253793,
    0.471479999954));
#415 = CARTESIAN_POINT('',(2.100000989201E-04,0.416666666694,
    0.942854999808));
#416 = CARTESIAN_POINT('',(2.100000989201E-04,0.688832079595,
    0.471479999954));
#417 = CARTESIAN_POINT('',(2.100000989201E-04,0.960997492496,
    1.050000994605E-04));
#418 = CARTESIAN_POINT('',(2.100000989201E-04,0.416666666694,
    1.0500009946E-04));
#419 = PCURVE('',#361,#420);
#420 = DEFINITIONAL_REPRESENTATION('',(#421),#425);
#421 = LINE('',#422,#423);
#422 = CARTESIAN_POINT('',(0.,-1.05E-04));
#423 = VECTOR('',#424,1.);
#424 = DIRECTION('',(1.,0.));
#425 = ( GEOMETRIC_REPRESENTATION_CONTEXT(2) 
PARAMETRIC_REPRESENTATION_CONTEXT() REPRESENTATION_CONTEXT('2D SPACE',''
  ) );
#426 = ( GEOMETRIC_REPRESENTATION_CONTEXT(3) 
GLOBAL_UNCERTAINTY_ASSIGNED_CONTEXT((#430)) GLOBAL_UNIT_ASSIGNED_CONTEXT
((#427,#428,#429)) REPRESENTATION_CONTEXT('Context #1',
  '3D Context with UNIT and UNCERTAINTY') );
#427 = ( LENGTH_UNIT() NAMED_UNIT(*) SI_UNIT(.MILLI.,.METRE.) );
#428 = ( NAMED_UNIT(*) PLANE_ANGLE_UNIT() SI_UNIT($,.RADIAN.) );
#429 = ( NAMED_UNIT(*) SI_UNIT($,.STERADIAN.) SOLID_ANGLE_UNIT() );
#430 = UNCERTAINTY_MEASURE_WITH_UNIT(LENGTH_MEASURE(1.E-07),#427,
  'distance_accuracy_value','confusion accuracy');
#431 = CONTEXT_DEPENDENT_SHAPE_REPRESENTATION(#432,#434);
#432 = ( REPRESENTATION_RELATIONSHIP('','',#344,#10) 
REPRESENTATION_RELATIONSHIP_WITH_TRANSFORMATION(#433) 
SHAPE_REPRESENTATION_RELATIONSHIP() );
#433 = ITEM_DEFINED_TRANSFORMATION('','',#11,#27);
#434 = PRODUCT_DEFINITION_SHAPE('Placement','Placement of an item',#435
  );
#435 = NEXT_ASSEMBLY_USAGE_OCCURRENCE('4','','',#5,#339,$);
#436 = PRODUCT_RELATED_PRODUCT_CATEGORY('part',$,(#341));
ENDSEC;
END-ISO-10303-21;
