ISO-10303-21;
HEADER;
FILE_DESCRIPTION(('Open CASCADE Model'),'2;1');
FILE_NAME('Open CASCADE Shape Model','2026-06-29T02:10:40',('Author'),(
    'Open CASCADE'),'Open CASCADE STEP processor 7.9','Open CASCADE 7.9'
  ,'Unknown');
FILE_SCHEMA(('AUTOMOTIVE_DESIGN { 1 0 10303 214 1 1 1 1 }'));
ENDSEC;
DATA;
#1 = APPLICATION_PROTOCOL_DEFINITION('international standard',
  'automotive_design',2000,#2);
#2 = APPLICATION_CONTEXT(
  'core data for automotive mechanical design processes');
#3 = SHAPE_DEFINITION_REPRESENTATION(#4,#10);
#4 = PRODUCT_DEFINITION_SHAPE('','',#5);
#5 = PRODUCT_DEFINITION('design','',#6,#9);
#6 = PRODUCT_DEFINITION_FORMATION('','',#7);
#7 = PRODUCT('Open CASCADE STEP translator 7.9 1',
  'Open CASCADE STEP translator 7.9 1','',(#8));
#8 = PRODUCT_CONTEXT('',#2,'mechanical');
#9 = PRODUCT_DEFINITION_CONTEXT('part definition',#2,'design');
#10 = SHAPE_REPRESENTATION('',(#11,#15,#19,#23,#27,#31,#35,#39,#43,#47),
  #51);
#11 = AXIS2_PLACEMENT_3D('',#12,#13,#14);
#12 = CARTESIAN_POINT('',(0.,0.,0.));
#13 = DIRECTION('',(0.,0.,1.));
#14 = DIRECTION('',(1.,0.,-0.));
#15 = AXIS2_PLACEMENT_3D('',#16,#17,#18);
#16 = CARTESIAN_POINT('',(0.,0.,0.));
#17 = DIRECTION('',(0.,0.,1.));
#18 = DIRECTION('',(1.,0.,-0.));
#19 = AXIS2_PLACEMENT_3D('',#20,#21,#22);
#20 = CARTESIAN_POINT('',(0.,0.,0.));
#21 = DIRECTION('',(0.,0.,1.));
#22 = DIRECTION('',(1.,0.,-0.));
#23 = AXIS2_PLACEMENT_3D('',#24,#25,#26);
#24 = CARTESIAN_POINT('',(0.,0.,0.));
#25 = DIRECTION('',(0.,0.,1.));
#26 = DIRECTION('',(1.,0.,-0.));
#27 = AXIS2_PLACEMENT_3D('',#28,#29,#30);
#28 = CARTESIAN_POINT('',(0.,0.,0.));
#29 = DIRECTION('',(0.,0.,1.));
#30 = DIRECTION('',(1.,0.,-0.));
#31 = AXIS2_PLACEMENT_3D('',#32,#33,#34);
#32 = CARTESIAN_POINT('',(0.,0.,0.));
#33 = DIRECTION('',(0.,0.,1.));
#34 = DIRECTION('',(1.,0.,-0.));
#35 = AXIS2_PLACEMENT_3D('',#36,#37,#38);
#36 = CARTESIAN_POINT('',(0.,0.,0.));
#37 = DIRECTION('',(0.,0.,1.));
#38 = DIRECTION('',(1.,0.,-0.));
#39 = AXIS2_PLACEMENT_3D('',#40,#41,#42);
#40 = CARTESIAN_POINT('',(0.,0.,0.));
#41 = DIRECTION('',(0.,0.,1.));
#42 = DIRECTION('',(1.,0.,-0.));
#43 = AXIS2_PLACEMENT_3D('',#44,#45,#46);
#44 = CARTESIAN_POINT('',(0.,0.,0.));
#45 = DIRECTION('',(0.,0.,1.));
#46 = DIRECTION('',(1.,0.,-0.));
#47 = AXIS2_PLACEMENT_3D('',#48,#49,#50);
#48 = CARTESIAN_POINT('',(0.,0.,0.));
#49 = DIRECTION('',(0.,0.,1.));
#50 = DIRECTION('',(1.,0.,-0.));
#51 = ( GEOMETRIC_REPRESENTATION_CONTEXT(3) 
GLOBAL_UNCERTAINTY_ASSIGNED_CONTEXT((#55)) GLOBAL_UNIT_ASSIGNED_CONTEXT(
(#52,#53,#54)) REPRESENTATION_CONTEXT('Context #1',
  '3D Context with UNIT and UNCERTAINTY') );
#52 = ( LENGTH_UNIT() NAMED_UNIT(*) SI_UNIT(.MILLI.,.METRE.) );
#53 = ( NAMED_UNIT(*) PLANE_ANGLE_UNIT() SI_UNIT($,.RADIAN.) );
#54 = ( NAMED_UNIT(*) SI_UNIT($,.STERADIAN.) SOLID_ANGLE_UNIT() );
#55 = UNCERTAINTY_MEASURE_WITH_UNIT(LENGTH_MEASURE(1.E-07),#52,
  'distance_accuracy_value','confusion accuracy');
#56 = PRODUCT_RELATED_PRODUCT_CATEGORY('part',$,(#7));
#57 = SHAPE_DEFINITION_REPRESENTATION(#58,#64);
#58 = PRODUCT_DEFINITION_SHAPE('','',#59);
#59 = PRODUCT_DEFINITION('design','',#60,#63);
#60 = PRODUCT_DEFINITION_FORMATION('','',#61);
#61 = PRODUCT('Open CASCADE STEP translator 7.9 1.1',
  'Open CASCADE STEP translator 7.9 1.1','',(#62));
#62 = PRODUCT_CONTEXT('',#2,'mechanical');
#63 = PRODUCT_DEFINITION_CONTEXT('part definition',#2,'design');
#64 = MANIFOLD_SURFACE_SHAPE_REPRESENTATION('',(#11,#65),#128);
#65 = SHELL_BASED_SURFACE_MODEL('',(#66));
#66 = OPEN_SHELL('',(#67));
#67 = ADVANCED_FACE('',(#68),#81,.T.);
#68 = FACE_BOUND('',#69,.T.);
#69 = EDGE_LOOP('',(#70,#109,#110));
#70 = ORIENTED_EDGE('',*,*,#71,.F.);
#71 = EDGE_CURVE('',#72,#74,#76,.T.);
#72 = VERTEX_POINT('',#73);
#73 = CARTESIAN_POINT('',(0.208667737693,0.208667737693,
    1.605000021776E-09));
#74 = VERTEX_POINT('',#75);
#75 = CARTESIAN_POINT('',(0.417335473781,0.208667737693,0.208667737692)
  );
#76 = SEAM_CURVE('',#77,(#80,#102),.PCURVE_S1.);
#77 = B_SPLINE_CURVE_WITH_KNOTS('',1,(#78,#79),.UNSPECIFIED.,.F.,.F.,(2,
    2),(-0.295101,0.),.PIECEWISE_BEZIER_KNOTS.);
#78 = CARTESIAN_POINT('',(0.208667737693,0.208667737693,
    1.605000021776E-09));
#79 = CARTESIAN_POINT('',(0.417335473781,0.208667737693,0.208667737692)
  );
#80 = PCURVE('',#81,#96);
#81 = ( BOUNDED_SURFACE() B_SPLINE_SURFACE(2,1,(
    (#82,#83)
    ,(#84,#85)
    ,(#86,#87)
    ,(#88,#89)
    ,(#90,#91)
    ,(#92,#93)
,(#94,#95
    )),.UNSPECIFIED.,.T.,.F.,.F.) B_SPLINE_SURFACE_WITH_KNOTS((1,2,2,2,2
    ,1),(2,2),(-2.094395,0.,2.094395,4.18879,6.283185,8.37758),(
-0.295101,0.),.UNSPECIFIED.) GEOMETRIC_REPRESENTATION_ITEM() 
RATIONAL_B_SPLINE_SURFACE((
    (1.,1.)
    ,(0.5,0.5)
    ,(1.,1.)
    ,(0.5,0.5)
    ,(1.,1.)
    ,(0.5,0.5)
,(1.,1.))) REPRESENTATION_ITEM('') SURFACE() );
#82 = CARTESIAN_POINT('',(0.208667737693,0.208667737693,
    1.605000021776E-09));
#83 = CARTESIAN_POINT('',(0.417335473781,0.208667737693,0.208667737692)
  );
#84 = CARTESIAN_POINT('',(0.208667737693,0.208667737693,
    1.605000021776E-09));
#85 = CARTESIAN_POINT('',(0.417335473781,0.570090858498,0.208667737692)
  );
#86 = CARTESIAN_POINT('',(0.208667737693,0.208667737693,
    1.605000021776E-09));
#87 = CARTESIAN_POINT('',(0.104333869649,0.389379298095,0.208667737692)
  );
#88 = CARTESIAN_POINT('',(0.208667737693,0.208667737693,
    1.605000021776E-09));
#89 = CARTESIAN_POINT('',(-0.208667734483,0.208667737693,0.208667737692)
  );
#90 = CARTESIAN_POINT('',(0.208667737693,0.208667737693,
    1.605000021776E-09));
#91 = CARTESIAN_POINT('',(0.104333869649,2.795617729061E-02,
    0.208667737692));
#92 = CARTESIAN_POINT('',(0.208667737693,0.208667737693,
    1.605000021776E-09));
#93 = CARTESIAN_POINT('',(0.417335473781,-0.152755383112,0.208667737692)
  );
#94 = CARTESIAN_POINT('',(0.208667737693,0.208667737693,
    1.605000021776E-09));
#95 = CARTESIAN_POINT('',(0.417335473781,0.208667737693,0.208667737692)
  );
#96 = DEFINITIONAL_REPRESENTATION('',(#97),#101);
#97 = LINE('',#98,#99);
#98 = CARTESIAN_POINT('',(0.,0.));
#99 = VECTOR('',#100,1.);
#100 = DIRECTION('',(0.,1.));
#101 = ( GEOMETRIC_REPRESENTATION_CONTEXT(2) 
PARAMETRIC_REPRESENTATION_CONTEXT() REPRESENTATION_CONTEXT('2D SPACE',''
  ) );
#102 = PCURVE('',#81,#103);
#103 = DEFINITIONAL_REPRESENTATION('',(#104),#108);
#104 = LINE('',#105,#106);
#105 = CARTESIAN_POINT('',(6.283185,0.));
#106 = VECTOR('',#107,1.);
#107 = DIRECTION('',(0.,1.));
#108 = ( GEOMETRIC_REPRESENTATION_CONTEXT(2) 
PARAMETRIC_REPRESENTATION_CONTEXT() REPRESENTATION_CONTEXT('2D SPACE',''
  ) );
#109 = ORIENTED_EDGE('',*,*,#71,.T.);
#110 = ORIENTED_EDGE('',*,*,#111,.F.);
#111 = EDGE_CURVE('',#74,#74,#112,.T.);
#112 = SURFACE_CURVE('',#113,(#121),.PCURVE_S1.);
#113 = ( BOUNDED_CURVE() B_SPLINE_CURVE(2,(#114,#115,#116,#117,#118,#119
,#120),.UNSPECIFIED.,.T.,.F.) B_SPLINE_CURVE_WITH_KNOTS((1,2,2,2,2,1),(
-2.094395,0.,2.094395,4.18879,6.283185,8.37758),.UNSPECIFIED.) CURVE() 
GEOMETRIC_REPRESENTATION_ITEM() RATIONAL_B_SPLINE_CURVE((1.,0.5,1.,0.5,
1.,0.5,1.)) REPRESENTATION_ITEM('') );
#114 = CARTESIAN_POINT('',(0.417335473781,0.208667737693,0.208667737692)
  );
#115 = CARTESIAN_POINT('',(0.417335473781,0.570090858498,0.208667737692)
  );
#116 = CARTESIAN_POINT('',(0.104333869649,0.389379298095,0.208667737692)
  );
#117 = CARTESIAN_POINT('',(-0.208667734483,0.208667737693,0.208667737692
    ));
#118 = CARTESIAN_POINT('',(0.104333869649,2.795617729061E-02,
    0.208667737692));
#119 = CARTESIAN_POINT('',(0.417335473781,-0.152755383112,0.208667737692
    ));
#120 = CARTESIAN_POINT('',(0.417335473781,0.208667737693,0.208667737692)
  );
#121 = PCURVE('',#81,#122);
#122 = DEFINITIONAL_REPRESENTATION('',(#123),#127);
#123 = LINE('',#124,#125);
#124 = CARTESIAN_POINT('',(0.,0.));
#125 = VECTOR('',#126,1.);
#126 = DIRECTION('',(1.,0.));
#127 = ( GEOMETRIC_REPRESENTATION_CONTEXT(2) 
PARAMETRIC_REPRESENTATION_CONTEXT() REPRESENTATION_CONTEXT('2D SPACE',''
  ) );
#128 = ( GEOMETRIC_REPRESENTATION_CONTEXT(3) 
GLOBAL_UNCERTAINTY_ASSIGNED_CONTEXT((#132)) GLOBAL_UNIT_ASSIGNED_CONTEXT
((#129,#130,#131)) REPRESENTATION_CONTEXT('Context #1',
  '3D Context with UNIT and UNCERTAINTY') );
#129 = ( LENGTH_UNIT() NAMED_UNIT(*) SI_UNIT(.MILLI.,.METRE.) );
#130 = ( NAMED_UNIT(*) PLANE_ANGLE_UNIT() SI_UNIT($,.RADIAN.) );
#131 = ( NAMED_UNIT(*) SI_UNIT($,.STERADIAN.) SOLID_ANGLE_UNIT() );
#132 = UNCERTAINTY_MEASURE_WITH_UNIT(LENGTH_MEASURE(1.E-07),#129,
  'distance_accuracy_value','confusion accuracy');
#133 = CONTEXT_DEPENDENT_SHAPE_REPRESENTATION(#134,#136);
#134 = ( REPRESENTATION_RELATIONSHIP('','',#64,#10) 
REPRESENTATION_RELATIONSHIP_WITH_TRANSFORMATION(#135) 
SHAPE_REPRESENTATION_RELATIONSHIP() );
#135 = ITEM_DEFINED_TRANSFORMATION('','',#11,#15);
#136 = PRODUCT_DEFINITION_SHAPE('Placement','Placement of an item',#137
  );
#137 = NEXT_ASSEMBLY_USAGE_OCCURRENCE('1','','',#5,#59,$);
#138 = PRODUCT_RELATED_PRODUCT_CATEGORY('part',$,(#61));
#139 = SHAPE_DEFINITION_REPRESENTATION(#140,#146);
#140 = PRODUCT_DEFINITION_SHAPE('','',#141);
#141 = PRODUCT_DEFINITION('design','',#142,#145);
#142 = PRODUCT_DEFINITION_FORMATION('','',#143);
#143 = PRODUCT('Open CASCADE STEP translator 7.9 1.2',
  'Open CASCADE STEP translator 7.9 1.2','',(#144));
#144 = PRODUCT_CONTEXT('',#2,'mechanical');
#145 = PRODUCT_DEFINITION_CONTEXT('part definition',#2,'design');
#146 = MANIFOLD_SURFACE_SHAPE_REPRESENTATION('',(#11,#147),#228);
#147 = SHELL_BASED_SURFACE_MODEL('',(#148));
#148 = OPEN_SHELL('',(#149));
#149 = ADVANCED_FACE('',(#150),#163,.T.);
#150 = FACE_BOUND('',#151,.T.);
#151 = EDGE_LOOP('',(#152,#191,#209,#210));
#152 = ORIENTED_EDGE('',*,*,#153,.F.);
#153 = EDGE_CURVE('',#154,#156,#158,.T.);
#154 = VERTEX_POINT('',#155);
#155 = CARTESIAN_POINT('',(8.02568231775E-02,0.208667737693,
    0.796147671601));
#156 = VERTEX_POINT('',#157);
#157 = CARTESIAN_POINT('',(1.605000021776E-09,0.208667737693,
    0.715890850029));
#158 = SEAM_CURVE('',#159,(#162,#184),.PCURVE_S1.);
#159 = B_SPLINE_CURVE_WITH_KNOTS('',1,(#160,#161),.UNSPECIFIED.,.F.,.F.,
  (2,2),(-0.1135,0.),.PIECEWISE_BEZIER_KNOTS.);
#160 = CARTESIAN_POINT('',(8.02568231775E-02,0.208667737693,
    0.796147671601));
#161 = CARTESIAN_POINT('',(1.605000021776E-09,0.208667737693,
    0.715890850029));
#162 = PCURVE('',#163,#178);
#163 = ( BOUNDED_SURFACE() B_SPLINE_SURFACE(2,1,(
    (#164,#165)
    ,(#166,#167)
    ,(#168,#169)
    ,(#170,#171)
    ,(#172,#173)
    ,(#174,#175)
,(#176,#177
    )),.UNSPECIFIED.,.T.,.F.,.F.) B_SPLINE_SURFACE_WITH_KNOTS((1,2,2,2,2
    ,1),(2,2),(-2.094395,0.,2.094395,4.18879,6.283185,8.37758),(-0.1135,
0.),.UNSPECIFIED.) GEOMETRIC_REPRESENTATION_ITEM() 
RATIONAL_B_SPLINE_SURFACE((
    (1.,1.)
    ,(0.5,0.5)
    ,(1.,1.)
    ,(0.5,0.5)
    ,(1.,1.)
    ,(0.5,0.5)
,(1.,1.))) REPRESENTATION_ITEM('') SURFACE() );
#164 = CARTESIAN_POINT('',(8.02568231775E-02,0.208667737693,
    0.796147671601));
#165 = CARTESIAN_POINT('',(1.605000021776E-09,0.208667737693,
    0.715890850029));
#166 = CARTESIAN_POINT('',(8.02568231775E-02,0.43108196588,
    0.796147671601));
#167 = CARTESIAN_POINT('',(1.605000021776E-09,0.570090858498,
    0.715890850029));
#168 = CARTESIAN_POINT('',(0.272873194951,0.319874851787,0.796147671601)
  );
#169 = CARTESIAN_POINT('',(0.313001605737,0.389379298095,0.715890850029)
  );
#170 = CARTESIAN_POINT('',(0.465489566724,0.208667737693,0.796147671601)
  );
#171 = CARTESIAN_POINT('',(0.626003209869,0.208667737693,0.715890850029)
  );
#172 = CARTESIAN_POINT('',(0.272873194951,9.746062359938E-02,
    0.796147671601));
#173 = CARTESIAN_POINT('',(0.313001605737,2.795617729061E-02,
    0.715890850029));
#174 = CARTESIAN_POINT('',(8.02568231775E-02,-1.374649049423E-02,
    0.796147671601));
#175 = CARTESIAN_POINT('',(1.605000354843E-09,-0.152755383112,
    0.715890850029));
#176 = CARTESIAN_POINT('',(8.02568231775E-02,0.208667737693,
    0.796147671601));
#177 = CARTESIAN_POINT('',(1.605000021776E-09,0.208667737693,
    0.715890850029));
#178 = DEFINITIONAL_REPRESENTATION('',(#179),#183);
#179 = LINE('',#180,#181);
#180 = CARTESIAN_POINT('',(0.,0.));
#181 = VECTOR('',#182,1.);
#182 = DIRECTION('',(0.,1.));
#183 = ( GEOMETRIC_REPRESENTATION_CONTEXT(2) 
PARAMETRIC_REPRESENTATION_CONTEXT() REPRESENTATION_CONTEXT('2D SPACE',''
  ) );
#184 = PCURVE('',#163,#185);
#185 = DEFINITIONAL_REPRESENTATION('',(#186),#190);
#186 = LINE('',#187,#188);
#187 = CARTESIAN_POINT('',(6.283185,0.));
#188 = VECTOR('',#189,1.);
#189 = DIRECTION('',(0.,1.));
#190 = ( GEOMETRIC_REPRESENTATION_CONTEXT(2) 
PARAMETRIC_REPRESENTATION_CONTEXT() REPRESENTATION_CONTEXT('2D SPACE',''
  ) );
#191 = ORIENTED_EDGE('',*,*,#192,.T.);
#192 = EDGE_CURVE('',#154,#154,#193,.T.);
#193 = SURFACE_CURVE('',#194,(#202),.PCURVE_S1.);
#194 = ( BOUNDED_CURVE() B_SPLINE_CURVE(2,(#195,#196,#197,#198,#199,#200
,#201),.UNSPECIFIED.,.T.,.F.) B_SPLINE_CURVE_WITH_KNOTS((1,2,2,2,2,1),(
-2.094395,0.,2.094395,4.18879,6.283185,8.37758),.UNSPECIFIED.) CURVE() 
GEOMETRIC_REPRESENTATION_ITEM() RATIONAL_B_SPLINE_CURVE((1.,0.5,1.,0.5,
1.,0.5,1.)) REPRESENTATION_ITEM('') );
#195 = CARTESIAN_POINT('',(8.02568231775E-02,0.208667737693,
    0.796147671601));
#196 = CARTESIAN_POINT('',(8.02568231775E-02,0.43108196588,
    0.796147671601));
#197 = CARTESIAN_POINT('',(0.272873194951,0.319874851787,0.796147671601)
  );
#198 = CARTESIAN_POINT('',(0.465489566724,0.208667737693,0.796147671601)
  );
#199 = CARTESIAN_POINT('',(0.272873194951,9.746062359938E-02,
    0.796147671601));
#200 = CARTESIAN_POINT('',(8.02568231775E-02,-1.374649049423E-02,
    0.796147671601));
#201 = CARTESIAN_POINT('',(8.02568231775E-02,0.208667737693,
    0.796147671601));
#202 = PCURVE('',#163,#203);
#203 = DEFINITIONAL_REPRESENTATION('',(#204),#208);
#204 = LINE('',#205,#206);
#205 = CARTESIAN_POINT('',(0.,-0.1135));
#206 = VECTOR('',#207,1.);
#207 = DIRECTION('',(1.,0.));
#208 = ( GEOMETRIC_REPRESENTATION_CONTEXT(2) 
PARAMETRIC_REPRESENTATION_CONTEXT() REPRESENTATION_CONTEXT('2D SPACE',''
  ) );
#209 = ORIENTED_EDGE('',*,*,#153,.T.);
#210 = ORIENTED_EDGE('',*,*,#211,.F.);
#211 = EDGE_CURVE('',#156,#156,#212,.T.);
#212 = SURFACE_CURVE('',#213,(#221),.PCURVE_S1.);
#213 = ( BOUNDED_CURVE() B_SPLINE_CURVE(2,(#214,#215,#216,#217,#218,#219
,#220),.UNSPECIFIED.,.T.,.F.) B_SPLINE_CURVE_WITH_KNOTS((1,2,2,2,2,1),(
-2.094395,0.,2.094395,4.18879,6.283185,8.37758),.UNSPECIFIED.) CURVE() 
GEOMETRIC_REPRESENTATION_ITEM() RATIONAL_B_SPLINE_CURVE((1.,0.5,1.,0.5,
1.,0.5,1.)) REPRESENTATION_ITEM('') );
#214 = CARTESIAN_POINT('',(1.605000021776E-09,0.208667737693,
    0.715890850029));
#215 = CARTESIAN_POINT('',(1.605000021776E-09,0.570090858498,
    0.715890850029));
#216 = CARTESIAN_POINT('',(0.313001605737,0.389379298095,0.715890850029)
  );
#217 = CARTESIAN_POINT('',(0.626003209869,0.208667737693,0.715890850029)
  );
#218 = CARTESIAN_POINT('',(0.313001605737,2.795617729061E-02,
    0.715890850029));
#219 = CARTESIAN_POINT('',(1.605000354843E-09,-0.152755383112,
    0.715890850029));
#220 = CARTESIAN_POINT('',(1.605000021776E-09,0.208667737693,
    0.715890850029));
#221 = PCURVE('',#163,#222);
#222 = DEFINITIONAL_REPRESENTATION('',(#223),#227);
#223 = LINE('',#224,#225);
#224 = CARTESIAN_POINT('',(0.,0.));
#225 = VECTOR('',#226,1.);
#226 = DIRECTION('',(1.,0.));
#227 = ( GEOMETRIC_REPRESENTATION_CONTEXT(2) 
PARAMETRIC_REPRESENTATION_CONTEXT() REPRESENTATION_CONTEXT('2D SPACE',''
  ) );
#228 = ( GEOMETRIC_REPRESENTATION_CONTEXT(3) 
GLOBAL_UNCERTAINTY_ASSIGNED_CONTEXT((#232)) GLOBAL_UNIT_ASSIGNED_CONTEXT
((#229,#230,#231)) REPRESENTATION_CONTEXT('Context #1',
  '3D Context with UNIT and UNCERTAINTY') );
#229 = ( LENGTH_UNIT() NAMED_UNIT(*) SI_UNIT(.MILLI.,.METRE.) );
#230 = ( NAMED_UNIT(*) PLANE_ANGLE_UNIT() SI_UNIT($,.RADIAN.) );
#231 = ( NAMED_UNIT(*) SI_UNIT($,.STERADIAN.) SOLID_ANGLE_UNIT() );
#232 = UNCERTAINTY_MEASURE_WITH_UNIT(LENGTH_MEASURE(1.E-07),#229,
  'distance_accuracy_value','confusion accuracy');
#233 = CONTEXT_DEPENDENT_SHAPE_REPRESENTATION(#234,#236);
#234 = ( REPRESENTATION_RELATIONSHIP('','',#146,#10) 
REPRESENTATION_RELATIONSHIP_WITH_TRANSFORMATION(#235) 
SHAPE_REPRESENTATION_RELATIONSHIP() );
#235 = ITEM_DEFINED_TRANSFORMATION('','',#11,#19);
#236 = PRODUCT_DEFINITION_SHAPE('Placement','Placement of an item',#237
  );
#237 = NEXT_ASSEMBLY_USAGE_OCCURRENCE('2','','',#5,#141,$);
#238 = PRODUCT_RELATED_PRODUCT_CATEGORY('part',$,(#143));
#239 = SHAPE_DEFINITION_REPRESENTATION(#240,#246);
#240 = PRODUCT_DEFINITION_SHAPE('','',#241);
#241 = PRODUCT_DEFINITION('design','',#242,#245);
#242 = PRODUCT_DEFINITION_FORMATION('','',#243);
#243 = PRODUCT('Open CASCADE STEP translator 7.9 1.3',
  'Open CASCADE STEP translator 7.9 1.3','',(#244));
#244 = PRODUCT_CONTEXT('',#2,'mechanical');
#245 = PRODUCT_DEFINITION_CONTEXT('part definition',#2,'design');
#246 = MANIFOLD_SURFACE_SHAPE_REPRESENTATION('',(#11,#247),#336);
#247 = SHELL_BASED_SURFACE_MODEL('',(#248));
#248 = OPEN_SHELL('',(#249));
#249 = ADVANCED_FACE('',(#250),#263,.T.);
#250 = FACE_BOUND('',#251,.T.);
#251 = EDGE_LOOP('',(#252,#295,#315,#316));
#252 = ORIENTED_EDGE('',*,*,#253,.F.);
#253 = EDGE_CURVE('',#254,#256,#258,.T.);
#254 = VERTEX_POINT('',#255);
#255 = CARTESIAN_POINT('',(1.60500004028E-09,0.208667737693,
    0.715890850029));
#256 = VERTEX_POINT('',#257);
#257 = CARTESIAN_POINT('',(1.60500004028E-09,0.208667737693,
    0.208667737692));
#258 = SEAM_CURVE('',#259,(#262,#288),.PCURVE_S1.);
#259 = B_SPLINE_CURVE_WITH_KNOTS('',1,(#260,#261),.UNSPECIFIED.,.F.,.F.,
  (2,2),(-0.715891,-0.208668),.PIECEWISE_BEZIER_KNOTS.);
#260 = CARTESIAN_POINT('',(1.60500004028E-09,0.208667737693,
    0.715890850029));
#261 = CARTESIAN_POINT('',(1.60500004028E-09,0.208667737693,
    0.208667737692));
#262 = PCURVE('',#263,#282);
#263 = ( BOUNDED_SURFACE() B_SPLINE_SURFACE(2,1,(
    (#264,#265)
    ,(#266,#267)
    ,(#268,#269)
    ,(#270,#271)
    ,(#272,#273)
    ,(#274,#275)
    ,(#276,#277)
    ,(#278,#279)
,(#280,#281
    )),.UNSPECIFIED.,.T.,.F.,.F.) B_SPLINE_SURFACE_WITH_KNOTS((3,2,2,2,3
    ),(2,2),(3.141593,4.18879,6.283185,8.37758,9.424778),(-0.715891,
-0.208668),.UNSPECIFIED.) GEOMETRIC_REPRESENTATION_ITEM() 
RATIONAL_B_SPLINE_SURFACE((
    (0.75,0.75)
    ,(0.75,0.75)
    ,(1.,1.)
    ,(0.5,0.5)
    ,(1.,1.)
    ,(0.5,0.5)
    ,(1.,1.)
    ,(0.75,0.75)
,(0.75,0.75))) REPRESENTATION_ITEM('') SURFACE() );
#264 = CARTESIAN_POINT('',(1.60500004028E-09,0.208667737693,
    0.715890850029));
#265 = CARTESIAN_POINT('',(1.60500004028E-09,0.208667737693,
    0.208667737692));
#266 = CARTESIAN_POINT('',(1.60494951588E-09,0.329142111295,
    0.715890850029));
#267 = CARTESIAN_POINT('',(1.60494951588E-09,0.329142111295,
    0.208667737692));
#268 = CARTESIAN_POINT('',(0.104333869649,0.389379298095,0.715890850029)
  );
#269 = CARTESIAN_POINT('',(0.104333869649,0.389379298095,0.208667737692)
  );
#270 = CARTESIAN_POINT('',(0.417335473781,0.570090858498,0.715890850029)
  );
#271 = CARTESIAN_POINT('',(0.417335473781,0.570090858498,0.208667737692)
  );
#272 = CARTESIAN_POINT('',(0.417335473781,0.208667737693,0.715890850029)
  );
#273 = CARTESIAN_POINT('',(0.417335473781,0.208667737693,0.208667737692)
  );
#274 = CARTESIAN_POINT('',(0.417335473781,-0.152755383112,0.715890850029
    ));
#275 = CARTESIAN_POINT('',(0.417335473781,-0.152755383112,0.208667737692
    ));
#276 = CARTESIAN_POINT('',(0.104333869649,2.795617729061E-02,
    0.715890850029));
#277 = CARTESIAN_POINT('',(0.104333869649,2.795617729061E-02,
    0.208667737692));
#278 = CARTESIAN_POINT('',(1.605050564679E-09,8.819336409137E-02,
    0.715890850029));
#279 = CARTESIAN_POINT('',(1.605050564679E-09,8.819336409137E-02,
    0.208667737692));
#280 = CARTESIAN_POINT('',(1.60500004028E-09,0.208667737693,
    0.715890850029));
#281 = CARTESIAN_POINT('',(1.60500004028E-09,0.208667737693,
    0.208667737692));
#282 = DEFINITIONAL_REPRESENTATION('',(#283),#287);
#283 = LINE('',#284,#285);
#284 = CARTESIAN_POINT('',(3.141593,0.));
#285 = VECTOR('',#286,1.);
#286 = DIRECTION('',(0.,1.));
#287 = ( GEOMETRIC_REPRESENTATION_CONTEXT(2) 
PARAMETRIC_REPRESENTATION_CONTEXT() REPRESENTATION_CONTEXT('2D SPACE',''
  ) );
#288 = PCURVE('',#263,#289);
#289 = DEFINITIONAL_REPRESENTATION('',(#290),#294);
#290 = LINE('',#291,#292);
#291 = CARTESIAN_POINT('',(9.424778,0.));
#292 = VECTOR('',#293,1.);
#293 = DIRECTION('',(0.,1.));
#294 = ( GEOMETRIC_REPRESENTATION_CONTEXT(2) 
PARAMETRIC_REPRESENTATION_CONTEXT() REPRESENTATION_CONTEXT('2D SPACE',''
  ) );
#295 = ORIENTED_EDGE('',*,*,#296,.T.);
#296 = EDGE_CURVE('',#254,#254,#297,.T.);
#297 = SURFACE_CURVE('',#298,(#308),.PCURVE_S1.);
#298 = ( BOUNDED_CURVE() B_SPLINE_CURVE(2,(#299,#300,#301,#302,#303,#304
,#305,#306,#307),.UNSPECIFIED.,.T.,.F.) B_SPLINE_CURVE_WITH_KNOTS((3,2,2
    ,2,3),(3.141593,4.18879,6.283185,8.37758,9.424778),.UNSPECIFIED.) 
CURVE() GEOMETRIC_REPRESENTATION_ITEM() RATIONAL_B_SPLINE_CURVE((0.75,
0.75,1.,0.5,1.,0.5,1.,0.75,0.75)) REPRESENTATION_ITEM('') );
#299 = CARTESIAN_POINT('',(1.60500004028E-09,0.208667737693,
    0.715890850029));
#300 = CARTESIAN_POINT('',(1.60494951588E-09,0.329142111295,
    0.715890850029));
#301 = CARTESIAN_POINT('',(0.104333869649,0.389379298095,0.715890850029)
  );
#302 = CARTESIAN_POINT('',(0.417335473781,0.570090858498,0.715890850029)
  );
#303 = CARTESIAN_POINT('',(0.417335473781,0.208667737693,0.715890850029)
  );
#304 = CARTESIAN_POINT('',(0.417335473781,-0.152755383112,0.715890850029
    ));
#305 = CARTESIAN_POINT('',(0.104333869649,2.795617729061E-02,
    0.715890850029));
#306 = CARTESIAN_POINT('',(1.605050564679E-09,8.819336409137E-02,
    0.715890850029));
#307 = CARTESIAN_POINT('',(1.60500004028E-09,0.208667737693,
    0.715890850029));
#308 = PCURVE('',#263,#309);
#309 = DEFINITIONAL_REPRESENTATION('',(#310),#314);
#310 = LINE('',#311,#312);
#311 = CARTESIAN_POINT('',(0.,-0.715891));
#312 = VECTOR('',#313,1.);
#313 = DIRECTION('',(1.,0.));
#314 = ( GEOMETRIC_REPRESENTATION_CONTEXT(2) 
PARAMETRIC_REPRESENTATION_CONTEXT() REPRESENTATION_CONTEXT('2D SPACE',''
  ) );
#315 = ORIENTED_EDGE('',*,*,#253,.T.);
#316 = ORIENTED_EDGE('',*,*,#317,.F.);
#317 = EDGE_CURVE('',#256,#256,#318,.T.);
#318 = SURFACE_CURVE('',#319,(#329),.PCURVE_S1.);
#319 = ( BOUNDED_CURVE() B_SPLINE_CURVE(2,(#320,#321,#322,#323,#324,#325
,#326,#327,#328),.UNSPECIFIED.,.T.,.F.) B_SPLINE_CURVE_WITH_KNOTS((3,2,2
    ,2,3),(3.141593,4.18879,6.283185,8.37758,9.424778),.UNSPECIFIED.) 
CURVE() GEOMETRIC_REPRESENTATION_ITEM() RATIONAL_B_SPLINE_CURVE((0.75,
0.75,1.,0.5,1.,0.5,1.,0.75,0.75)) REPRESENTATION_ITEM('') );
#320 = CARTESIAN_POINT('',(1.60500004028E-09,0.208667737693,
    0.208667737692));
#321 = CARTESIAN_POINT('',(1.60494951588E-09,0.329142111295,
    0.208667737692));
#322 = CARTESIAN_POINT('',(0.104333869649,0.389379298095,0.208667737692)
  );
#323 = CARTESIAN_POINT('',(0.417335473781,0.570090858498,0.208667737692)
  );
#324 = CARTESIAN_POINT('',(0.417335473781,0.208667737693,0.208667737692)
  );
#325 = CARTESIAN_POINT('',(0.417335473781,-0.152755383112,0.208667737692
    ));
#326 = CARTESIAN_POINT('',(0.104333869649,2.795617729061E-02,
    0.208667737692));
#327 = CARTESIAN_POINT('',(1.605050564679E-09,8.819336409137E-02,
    0.208667737692));
#328 = CARTESIAN_POINT('',(1.60500004028E-09,0.208667737693,
    0.208667737692));
#329 = PCURVE('',#263,#330);
#330 = DEFINITIONAL_REPRESENTATION('',(#331),#335);
#331 = LINE('',#332,#333);
#332 = CARTESIAN_POINT('',(0.,-0.208668));
#333 = VECTOR('',#334,1.);
#334 = DIRECTION('',(1.,0.));
#335 = ( GEOMETRIC_REPRESENTATION_CONTEXT(2) 
PARAMETRIC_REPRESENTATION_CONTEXT() REPRESENTATION_CONTEXT('2D SPACE',''
  ) );
#336 = ( GEOMETRIC_REPRESENTATION_CONTEXT(3) 
GLOBAL_UNCERTAINTY_ASSIGNED_CONTEXT((#340)) GLOBAL_UNIT_ASSIGNED_CONTEXT
((#337,#338,#339)) REPRESENTATION_CONTEXT('Context #1',
  '3D Context with UNIT and UNCERTAINTY') );
#337 = ( LENGTH_UNIT() NAMED_UNIT(*) SI_UNIT(.MILLI.,.METRE.) );
#338 = ( NAMED_UNIT(*) PLANE_ANGLE_UNIT() SI_UNIT($,.RADIAN.) );
#339 = ( NAMED_UNIT(*) SI_UNIT($,.STERADIAN.) SOLID_ANGLE_UNIT() );
#340 = UNCERTAINTY_MEASURE_WITH_UNIT(LENGTH_MEASURE(1.E-07),#337,
  'distance_accuracy_value','confusion accuracy');
#341 = CONTEXT_DEPENDENT_SHAPE_REPRESENTATION(#342,#344);
#342 = ( REPRESENTATION_RELATIONSHIP('','',#246,#10) 
REPRESENTATION_RELATIONSHIP_WITH_TRANSFORMATION(#343) 
SHAPE_REPRESENTATION_RELATIONSHIP() );
#343 = ITEM_DEFINED_TRANSFORMATION('','',#11,#23);
#344 = PRODUCT_DEFINITION_SHAPE('Placement','Placement of an item',#345
  );
#345 = NEXT_ASSEMBLY_USAGE_OCCURRENCE('3','','',#5,#241,$);
#346 = PRODUCT_RELATED_PRODUCT_CATEGORY('part',$,(#243));
#347 = SHAPE_DEFINITION_REPRESENTATION(#348,#354);
#348 = PRODUCT_DEFINITION_SHAPE('','',#349);
#349 = PRODUCT_DEFINITION('design','',#350,#353);
#350 = PRODUCT_DEFINITION_FORMATION('','',#351);
#351 = PRODUCT('Open CASCADE STEP translator 7.9 1.4',
  'Open CASCADE STEP translator 7.9 1.4','',(#352));
#352 = PRODUCT_CONTEXT('',#2,'mechanical');
#353 = PRODUCT_DEFINITION_CONTEXT('part definition',#2,'design');
#354 = MANIFOLD_SURFACE_SHAPE_REPRESENTATION('',(#11,#355),#444);
#355 = SHELL_BASED_SURFACE_MODEL('',(#356));
#356 = OPEN_SHELL('',(#357));
#357 = ADVANCED_FACE('',(#358),#371,.T.);
#358 = FACE_BOUND('',#359,.T.);
#359 = EDGE_LOOP('',(#360,#403,#423,#424));
#360 = ORIENTED_EDGE('',*,*,#361,.F.);
#361 = EDGE_CURVE('',#362,#364,#366,.T.);
#362 = VERTEX_POINT('',#363);
#363 = CARTESIAN_POINT('',(0.337078652209,0.208667737693,0.940609950431)
  );
#364 = VERTEX_POINT('',#365);
#365 = CARTESIAN_POINT('',(0.337078652209,0.208667737693,0.999999998395)
  );
#366 = SEAM_CURVE('',#367,(#370,#396),.PCURVE_S1.);
#367 = B_SPLINE_CURVE_WITH_KNOTS('',1,(#368,#369),.UNSPECIFIED.,.F.,.F.,
  (2,2),(-5.939E-02,0.),.PIECEWISE_BEZIER_KNOTS.);
#368 = CARTESIAN_POINT('',(0.337078652209,0.208667737693,0.940609950431)
  );
#369 = CARTESIAN_POINT('',(0.337078652209,0.208667737693,0.999999998395)
  );
#370 = PCURVE('',#371,#390);
#371 = ( BOUNDED_SURFACE() B_SPLINE_SURFACE(2,1,(
    (#372,#373)
    ,(#374,#375)
    ,(#376,#377)
    ,(#378,#379)
    ,(#380,#381)
    ,(#382,#383)
    ,(#384,#385)
    ,(#386,#387)
,(#388,#389
    )),.UNSPECIFIED.,.T.,.F.,.F.) B_SPLINE_SURFACE_WITH_KNOTS((3,2,2,2,3
    ),(2,2),(3.141593,4.18879,6.283185,8.37758,9.424778),(-5.939E-02,0.)
,.UNSPECIFIED.) GEOMETRIC_REPRESENTATION_ITEM() 
RATIONAL_B_SPLINE_SURFACE((
    (0.75,0.75)
    ,(0.75,0.75)
    ,(1.,1.)
    ,(0.5,0.5)
    ,(1.,1.)
    ,(0.5,0.5)
    ,(1.,1.)
    ,(0.75,0.75)
,(0.75,0.75))) REPRESENTATION_ITEM('') SURFACE() );
#372 = CARTESIAN_POINT('',(0.337078652209,0.208667737693,0.940609950431)
  );
#373 = CARTESIAN_POINT('',(0.337078652209,0.208667737693,0.999999998395)
  );
#374 = CARTESIAN_POINT('',(0.337078652209,0.282805813756,0.940609950432)
  );
#375 = CARTESIAN_POINT('',(0.337078652209,0.282805813756,0.999999998395)
  );
#376 = CARTESIAN_POINT('',(0.272873194951,0.319874851787,0.940609950431)
  );
#377 = CARTESIAN_POINT('',(0.272873194951,0.319874851787,0.999999998395)
  );
#378 = CARTESIAN_POINT('',(8.0256823177E-02,0.431081965881,
    0.940609950431));
#379 = CARTESIAN_POINT('',(8.0256823177E-02,0.431081965881,
    0.999999998395));
#380 = CARTESIAN_POINT('',(8.0256823177E-02,0.208667737693,
    0.940609950431));
#381 = CARTESIAN_POINT('',(8.0256823177E-02,0.208667737693,
    0.999999998395));
#382 = CARTESIAN_POINT('',(8.0256823177E-02,-1.37464904951E-02,
    0.940609950431));
#383 = CARTESIAN_POINT('',(8.0256823177E-02,-1.37464904951E-02,
    0.999999998395));
#384 = CARTESIAN_POINT('',(0.272873194951,9.746062359895E-02,
    0.940609950431));
#385 = CARTESIAN_POINT('',(0.272873194951,9.746062359895E-02,
    0.999999998395));
#386 = CARTESIAN_POINT('',(0.337078652209,0.13452966163,0.940609950431)
  );
#387 = CARTESIAN_POINT('',(0.337078652209,0.13452966163,0.999999998395)
  );
#388 = CARTESIAN_POINT('',(0.337078652209,0.208667737693,0.940609950431)
  );
#389 = CARTESIAN_POINT('',(0.337078652209,0.208667737693,0.999999998395)
  );
#390 = DEFINITIONAL_REPRESENTATION('',(#391),#395);
#391 = LINE('',#392,#393);
#392 = CARTESIAN_POINT('',(3.141593,0.));
#393 = VECTOR('',#394,1.);
#394 = DIRECTION('',(0.,1.));
#395 = ( GEOMETRIC_REPRESENTATION_CONTEXT(2) 
PARAMETRIC_REPRESENTATION_CONTEXT() REPRESENTATION_CONTEXT('2D SPACE',''
  ) );
#396 = PCURVE('',#371,#397);
#397 = DEFINITIONAL_REPRESENTATION('',(#398),#402);
#398 = LINE('',#399,#400);
#399 = CARTESIAN_POINT('',(9.424778,0.));
#400 = VECTOR('',#401,1.);
#401 = DIRECTION('',(0.,1.));
#402 = ( GEOMETRIC_REPRESENTATION_CONTEXT(2) 
PARAMETRIC_REPRESENTATION_CONTEXT() REPRESENTATION_CONTEXT('2D SPACE',''
  ) );
#403 = ORIENTED_EDGE('',*,*,#404,.T.);
#404 = EDGE_CURVE('',#362,#362,#405,.T.);
#405 = SURFACE_CURVE('',#406,(#416),.PCURVE_S1.);
#406 = ( BOUNDED_CURVE() B_SPLINE_CURVE(2,(#407,#408,#409,#410,#411,#412
,#413,#414,#415),.UNSPECIFIED.,.T.,.F.) B_SPLINE_CURVE_WITH_KNOTS((3,2,2
    ,2,3),(3.141593,4.18879,6.283185,8.37758,9.424778),.UNSPECIFIED.) 
CURVE() GEOMETRIC_REPRESENTATION_ITEM() RATIONAL_B_SPLINE_CURVE((0.75,
0.75,1.,0.5,1.,0.5,1.,0.75,0.75)) REPRESENTATION_ITEM('') );
#407 = CARTESIAN_POINT('',(0.337078652209,0.208667737693,0.940609950431)
  );
#408 = CARTESIAN_POINT('',(0.337078652209,0.282805813756,0.940609950432)
  );
#409 = CARTESIAN_POINT('',(0.272873194951,0.319874851787,0.940609950431)
  );
#410 = CARTESIAN_POINT('',(8.0256823177E-02,0.431081965881,
    0.940609950431));
#411 = CARTESIAN_POINT('',(8.0256823177E-02,0.208667737693,
    0.940609950431));
#412 = CARTESIAN_POINT('',(8.0256823177E-02,-1.37464904951E-02,
    0.940609950431));
#413 = CARTESIAN_POINT('',(0.272873194951,9.746062359895E-02,
    0.940609950431));
#414 = CARTESIAN_POINT('',(0.337078652209,0.13452966163,0.940609950431)
  );
#415 = CARTESIAN_POINT('',(0.337078652209,0.208667737693,0.940609950431)
  );
#416 = PCURVE('',#371,#417);
#417 = DEFINITIONAL_REPRESENTATION('',(#418),#422);
#418 = LINE('',#419,#420);
#419 = CARTESIAN_POINT('',(0.,-5.939E-02));
#420 = VECTOR('',#421,1.);
#421 = DIRECTION('',(1.,0.));
#422 = ( GEOMETRIC_REPRESENTATION_CONTEXT(2) 
PARAMETRIC_REPRESENTATION_CONTEXT() REPRESENTATION_CONTEXT('2D SPACE',''
  ) );
#423 = ORIENTED_EDGE('',*,*,#361,.T.);
#424 = ORIENTED_EDGE('',*,*,#425,.F.);
#425 = EDGE_CURVE('',#364,#364,#426,.T.);
#426 = SURFACE_CURVE('',#427,(#437),.PCURVE_S1.);
#427 = ( BOUNDED_CURVE() B_SPLINE_CURVE(2,(#428,#429,#430,#431,#432,#433
,#434,#435,#436),.UNSPECIFIED.,.T.,.F.) B_SPLINE_CURVE_WITH_KNOTS((3,2,2
    ,2,3),(3.141593,4.18879,6.283185,8.37758,9.424778),.UNSPECIFIED.) 
CURVE() GEOMETRIC_REPRESENTATION_ITEM() RATIONAL_B_SPLINE_CURVE((0.75,
0.75,1.,0.5,1.,0.5,1.,0.75,0.75)) REPRESENTATION_ITEM('') );
#428 = CARTESIAN_POINT('',(0.337078652209,0.208667737693,0.999999998395)
  );
#429 = CARTESIAN_POINT('',(0.337078652209,0.282805813756,0.999999998395)
  );
#430 = CARTESIAN_POINT('',(0.272873194951,0.319874851787,0.999999998395)
  );
#431 = CARTESIAN_POINT('',(8.0256823177E-02,0.431081965881,
    0.999999998395));
#432 = CARTESIAN_POINT('',(8.0256823177E-02,0.208667737693,
    0.999999998395));
#433 = CARTESIAN_POINT('',(8.0256823177E-02,-1.37464904951E-02,
    0.999999998395));
#434 = CARTESIAN_POINT('',(0.272873194951,9.746062359895E-02,
    0.999999998395));
#435 = CARTESIAN_POINT('',(0.337078652209,0.13452966163,0.999999998395)
  );
#436 = CARTESIAN_POINT('',(0.337078652209,0.208667737693,0.999999998395)
  );
#437 = PCURVE('',#371,#438);
#438 = DEFINITIONAL_REPRESENTATION('',(#439),#443);
#439 = LINE('',#440,#441);
#440 = CARTESIAN_POINT('',(0.,0.));
#441 = VECTOR('',#442,1.);
#442 = DIRECTION('',(1.,0.));
#443 = ( GEOMETRIC_REPRESENTATION_CONTEXT(2) 
PARAMETRIC_REPRESENTATION_CONTEXT() REPRESENTATION_CONTEXT('2D SPACE',''
  ) );
#444 = ( GEOMETRIC_REPRESENTATION_CONTEXT(3) 
GLOBAL_UNCERTAINTY_ASSIGNED_CONTEXT((#448)) GLOBAL_UNIT_ASSIGNED_CONTEXT
((#445,#446,#447)) REPRESENTATION_CONTEXT('Context #1',
  '3D Context with UNIT and UNCERTAINTY') );
#445 = ( LENGTH_UNIT() NAMED_UNIT(*) SI_UNIT(.MILLI.,.METRE.) );
#446 = ( NAMED_UNIT(*) PLANE_ANGLE_UNIT() SI_UNIT($,.RADIAN.) );
#447 = ( NAMED_UNIT(*) SI_UNIT($,.STERADIAN.) SOLID_ANGLE_UNIT() );
#448 = UNCERTAINTY_MEASURE_WITH_UNIT(LENGTH_MEASURE(1.E-07),#445,
  'distance_accuracy_value','confusion accuracy');
#449 = CONTEXT_DEPENDENT_SHAPE_REPRESENTATION(#450,#452);
#450 = ( REPRESENTATION_RELATIONSHIP('','',#354,#10) 
REPRESENTATION_RELATIONSHIP_WITH_TRANSFORMATION(#451) 
SHAPE_REPRESENTATION_RELATIONSHIP() );
#451 = ITEM_DEFINED_TRANSFORMATION('','',#11,#27);
#452 = PRODUCT_DEFINITION_SHAPE('Placement','Placement of an item',#453
  );
#453 = NEXT_ASSEMBLY_USAGE_OCCURRENCE('4','','',#5,#349,$);
#454 = PRODUCT_RELATED_PRODUCT_CATEGORY('part',$,(#351));
#455 = SHAPE_DEFINITION_REPRESENTATION(#456,#462);
#456 = PRODUCT_DEFINITION_SHAPE('','',#457);
#457 = PRODUCT_DEFINITION('design','',#458,#461);
#458 = PRODUCT_DEFINITION_FORMATION('','',#459);
#459 = PRODUCT('Open CASCADE STEP translator 7.9 1.5',
  'Open CASCADE STEP translator 7.9 1.5','',(#460));
#460 = PRODUCT_CONTEXT('',#2,'mechanical');
#461 = PRODUCT_DEFINITION_CONTEXT('part definition',#2,'design');
#462 = MANIFOLD_SURFACE_SHAPE_REPRESENTATION('',(#11,#463),#490);
#463 = SHELL_BASED_SURFACE_MODEL('',(#464));
#464 = OPEN_SHELL('',(#465));
#465 = ADVANCED_FACE('',(#466),#479,.T.);
#466 = FACE_BOUND('',#467,.T.);
#467 = EDGE_LOOP('',(#468));
#468 = ORIENTED_EDGE('',*,*,#469,.T.);
#469 = EDGE_CURVE('',#470,#470,#472,.T.);
#470 = VERTEX_POINT('',#471);
#471 = CARTESIAN_POINT('',(0.337079,0.208668,1.));
#472 = SURFACE_CURVE('',#473,(#478),.PCURVE_S1.);
#473 = CIRCLE('',#474,0.128411);
#474 = AXIS2_PLACEMENT_3D('',#475,#476,#477);
#475 = CARTESIAN_POINT('',(0.208668,0.208668,1.));
#476 = DIRECTION('',(0.,0.,1.));
#477 = DIRECTION('',(1.,0.,-0.));
#478 = PCURVE('',#479,#484);
#479 = PLANE('',#480);
#480 = AXIS2_PLACEMENT_3D('',#481,#482,#483);
#481 = CARTESIAN_POINT('',(0.208667996204,0.208668,1.));
#482 = DIRECTION('',(0.,0.,1.));
#483 = DIRECTION('',(1.,0.,-0.));
#484 = DEFINITIONAL_REPRESENTATION('',(#485),#489);
#485 = CIRCLE('',#486,0.128411);
#486 = AXIS2_PLACEMENT_2D('',#487,#488);
#487 = CARTESIAN_POINT('',(3.79562017927E-09,-5.551115123126E-16));
#488 = DIRECTION('',(1.,0.));
#489 = ( GEOMETRIC_REPRESENTATION_CONTEXT(2) 
PARAMETRIC_REPRESENTATION_CONTEXT() REPRESENTATION_CONTEXT('2D SPACE',''
  ) );
#490 = ( GEOMETRIC_REPRESENTATION_CONTEXT(3) 
GLOBAL_UNCERTAINTY_ASSIGNED_CONTEXT((#494)) GLOBAL_UNIT_ASSIGNED_CONTEXT
((#491,#492,#493)) REPRESENTATION_CONTEXT('Context #1',
  '3D Context with UNIT and UNCERTAINTY') );
#491 = ( LENGTH_UNIT() NAMED_UNIT(*) SI_UNIT(.MILLI.,.METRE.) );
#492 = ( NAMED_UNIT(*) PLANE_ANGLE_UNIT() SI_UNIT($,.RADIAN.) );
#493 = ( NAMED_UNIT(*) SI_UNIT($,.STERADIAN.) SOLID_ANGLE_UNIT() );
#494 = UNCERTAINTY_MEASURE_WITH_UNIT(LENGTH_MEASURE(1.E-07),#491,
  'distance_accuracy_value','confusion accuracy');
#495 = CONTEXT_DEPENDENT_SHAPE_REPRESENTATION(#496,#498);
#496 = ( REPRESENTATION_RELATIONSHIP('','',#462,#10) 
REPRESENTATION_RELATIONSHIP_WITH_TRANSFORMATION(#497) 
SHAPE_REPRESENTATION_RELATIONSHIP() );
#497 = ITEM_DEFINED_TRANSFORMATION('','',#11,#31);
#498 = PRODUCT_DEFINITION_SHAPE('Placement','Placement of an item',#499
  );
#499 = NEXT_ASSEMBLY_USAGE_OCCURRENCE('5','','',#5,#457,$);
#500 = PRODUCT_RELATED_PRODUCT_CATEGORY('part',$,(#459));
#501 = SHAPE_DEFINITION_REPRESENTATION(#502,#508);
#502 = PRODUCT_DEFINITION_SHAPE('','',#503);
#503 = PRODUCT_DEFINITION('design','',#504,#507);
#504 = PRODUCT_DEFINITION_FORMATION('','',#505);
#505 = PRODUCT('Open CASCADE STEP translator 7.9 1.6',
  'Open CASCADE STEP translator 7.9 1.6','',(#506));
#506 = PRODUCT_CONTEXT('',#2,'mechanical');
#507 = PRODUCT_DEFINITION_CONTEXT('part definition',#2,'design');
#508 = MANIFOLD_SURFACE_SHAPE_REPRESENTATION('',(#11,#509),#563);
#509 = SHELL_BASED_SURFACE_MODEL('',(#510));
#510 = OPEN_SHELL('',(#511));
#511 = ADVANCED_FACE('',(#512,#540),#525,.T.);
#512 = FACE_BOUND('',#513,.T.);
#513 = EDGE_LOOP('',(#514));
#514 = ORIENTED_EDGE('',*,*,#515,.F.);
#515 = EDGE_CURVE('',#516,#516,#518,.T.);
#516 = VERTEX_POINT('',#517);
#517 = CARTESIAN_POINT('',(0.337079,0.208668,0.94061));
#518 = SURFACE_CURVE('',#519,(#524),.PCURVE_S1.);
#519 = CIRCLE('',#520,0.128411);
#520 = AXIS2_PLACEMENT_3D('',#521,#522,#523);
#521 = CARTESIAN_POINT('',(0.208668,0.208668,0.94061));
#522 = DIRECTION('',(0.,0.,1.));
#523 = DIRECTION('',(1.,0.,-0.));
#524 = PCURVE('',#525,#530);
#525 = PLANE('',#526);
#526 = AXIS2_PLACEMENT_3D('',#527,#528,#529);
#527 = CARTESIAN_POINT('',(0.208667996204,0.208668,0.94061));
#528 = DIRECTION('',(-0.,-0.,-1.));
#529 = DIRECTION('',(-1.,0.,0.));
#530 = DEFINITIONAL_REPRESENTATION('',(#531),#539);
#531 = ( BOUNDED_CURVE() B_SPLINE_CURVE(2,(#532,#533,#534,#535,#536,#537
,#538),.UNSPECIFIED.,.T.,.F.) B_SPLINE_CURVE_WITH_KNOTS((1,2,2,2,2,1),(
    -2.094395102393,0.,2.094395102393,4.188790204786,6.28318530718,
8.377580409573),.UNSPECIFIED.) CURVE() GEOMETRIC_REPRESENTATION_ITEM() 
RATIONAL_B_SPLINE_CURVE((1.,0.5,1.,0.5,1.,0.5,1.)) REPRESENTATION_ITEM(
  '') );
#532 = CARTESIAN_POINT('',(-0.128411003796,-5.551115123126E-16));
#533 = CARTESIAN_POINT('',(-0.128411003796,0.222414376251));
#534 = CARTESIAN_POINT('',(6.420549620438E-02,0.111207188125));
#535 = CARTESIAN_POINT('',(0.256821996204,-5.236598882875E-16));
#536 = CARTESIAN_POINT('',(6.420549620438E-02,-0.111207188125));
#537 = CARTESIAN_POINT('',(-0.128411003796,-0.222414376251));
#538 = CARTESIAN_POINT('',(-0.128411003796,-5.551115123126E-16));
#539 = ( GEOMETRIC_REPRESENTATION_CONTEXT(2) 
PARAMETRIC_REPRESENTATION_CONTEXT() REPRESENTATION_CONTEXT('2D SPACE',''
  ) );
#540 = FACE_BOUND('',#541,.F.);
#541 = EDGE_LOOP('',(#542));
#542 = ORIENTED_EDGE('',*,*,#543,.T.);
#543 = EDGE_CURVE('',#544,#544,#546,.T.);
#544 = VERTEX_POINT('',#545);
#545 = CARTESIAN_POINT('',(0.304976,0.208668,0.94061));
#546 = SURFACE_CURVE('',#547,(#552),.PCURVE_S1.);
#547 = CIRCLE('',#548,9.6308E-02);
#548 = AXIS2_PLACEMENT_3D('',#549,#550,#551);
#549 = CARTESIAN_POINT('',(0.208668,0.208668,0.94061));
#550 = DIRECTION('',(0.,0.,1.));
#551 = DIRECTION('',(1.,0.,-0.));
#552 = PCURVE('',#525,#553);
#553 = DEFINITIONAL_REPRESENTATION('',(#554),#562);
#554 = ( BOUNDED_CURVE() B_SPLINE_CURVE(2,(#555,#556,#557,#558,#559,#560
,#561),.UNSPECIFIED.,.T.,.F.) B_SPLINE_CURVE_WITH_KNOTS((1,2,2,2,2,1),(
    -2.094395102393,0.,2.094395102393,4.188790204786,6.28318530718,
8.377580409573),.UNSPECIFIED.) CURVE() GEOMETRIC_REPRESENTATION_ITEM() 
RATIONAL_B_SPLINE_CURVE((1.,0.5,1.,0.5,1.,0.5,1.)) REPRESENTATION_ITEM(
  '') );
#555 = CARTESIAN_POINT('',(-9.630800379562E-02,-5.551115123126E-16));
#556 = CARTESIAN_POINT('',(-9.630800379562E-02,0.166810349175));
#557 = CARTESIAN_POINT('',(4.815399620438E-02,8.340517458767E-02));
#558 = CARTESIAN_POINT('',(0.192615996204,-5.315228555261E-16));
#559 = CARTESIAN_POINT('',(4.815399620438E-02,-8.340517458767E-02));
#560 = CARTESIAN_POINT('',(-9.630800379562E-02,-0.166810349175));
#561 = CARTESIAN_POINT('',(-9.630800379562E-02,-5.551115123126E-16));
#562 = ( GEOMETRIC_REPRESENTATION_CONTEXT(2) 
PARAMETRIC_REPRESENTATION_CONTEXT() REPRESENTATION_CONTEXT('2D SPACE',''
  ) );
#563 = ( GEOMETRIC_REPRESENTATION_CONTEXT(3) 
GLOBAL_UNCERTAINTY_ASSIGNED_CONTEXT((#567)) GLOBAL_UNIT_ASSIGNED_CONTEXT
((#564,#565,#566)) REPRESENTATION_CONTEXT('Context #1',
  '3D Context with UNIT and UNCERTAINTY') );
#564 = ( LENGTH_UNIT() NAMED_UNIT(*) SI_UNIT(.MILLI.,.METRE.) );
#565 = ( NAMED_UNIT(*) PLANE_ANGLE_UNIT() SI_UNIT($,.RADIAN.) );
#566 = ( NAMED_UNIT(*) SI_UNIT($,.STERADIAN.) SOLID_ANGLE_UNIT() );
#567 = UNCERTAINTY_MEASURE_WITH_UNIT(LENGTH_MEASURE(1.E-07),#564,
  'distance_accuracy_value','confusion accuracy');
#568 = CONTEXT_DEPENDENT_SHAPE_REPRESENTATION(#569,#571);
#569 = ( REPRESENTATION_RELATIONSHIP('','',#508,#10) 
REPRESENTATION_RELATIONSHIP_WITH_TRANSFORMATION(#570) 
SHAPE_REPRESENTATION_RELATIONSHIP() );
#570 = ITEM_DEFINED_TRANSFORMATION('','',#11,#35);
#571 = PRODUCT_DEFINITION_SHAPE('Placement','Placement of an item',#572
  );
#572 = NEXT_ASSEMBLY_USAGE_OCCURRENCE('6','','',#5,#503,$);
#573 = PRODUCT_RELATED_PRODUCT_CATEGORY('part',$,(#505));
#574 = SHAPE_DEFINITION_REPRESENTATION(#575,#581);
#575 = PRODUCT_DEFINITION_SHAPE('','',#576);
#576 = PRODUCT_DEFINITION('design','',#577,#580);
#577 = PRODUCT_DEFINITION_FORMATION('','',#578);
#578 = PRODUCT('Open CASCADE STEP translator 7.9 1.7',
  'Open CASCADE STEP translator 7.9 1.7','',(#579));
#579 = PRODUCT_CONTEXT('',#2,'mechanical');
#580 = PRODUCT_DEFINITION_CONTEXT('part definition',#2,'design');
#581 = MANIFOLD_SURFACE_SHAPE_REPRESENTATION('',(#11,#582),#663);
#582 = SHELL_BASED_SURFACE_MODEL('',(#583));
#583 = OPEN_SHELL('',(#584));
#584 = ADVANCED_FACE('',(#585),#598,.T.);
#585 = FACE_BOUND('',#586,.T.);
#586 = EDGE_LOOP('',(#587,#626,#644,#645));
#587 = ORIENTED_EDGE('',*,*,#588,.F.);
#588 = EDGE_CURVE('',#589,#591,#593,.T.);
#589 = VERTEX_POINT('',#590);
#590 = CARTESIAN_POINT('',(0.30497592358,0.208667737693,0.940609950432)
  );
#591 = VERTEX_POINT('',#592);
#592 = CARTESIAN_POINT('',(0.30497592358,0.208667737693,0.844301764545)
  );
#593 = SEAM_CURVE('',#594,(#597,#619),.PCURVE_S1.);
#594 = B_SPLINE_CURVE_WITH_KNOTS('',1,(#595,#596),.UNSPECIFIED.,.F.,.F.,
  (2,2),(-9.6308E-02,0.),.PIECEWISE_BEZIER_KNOTS.);
#595 = CARTESIAN_POINT('',(0.30497592358,0.208667737693,0.940609950432)
  );
#596 = CARTESIAN_POINT('',(0.30497592358,0.208667737693,0.844301764545)
  );
#597 = PCURVE('',#598,#613);
#598 = ( BOUNDED_SURFACE() B_SPLINE_SURFACE(2,1,(
    (#599,#600)
    ,(#601,#602)
    ,(#603,#604)
    ,(#605,#606)
    ,(#607,#608)
    ,(#609,#610)
,(#611,#612
    )),.UNSPECIFIED.,.T.,.F.,.F.) B_SPLINE_SURFACE_WITH_KNOTS((1,2,2,2,2
    ,1),(2,2),(-2.094395,0.,2.094395,4.18879,6.283185,8.37758),(
-9.6308E-02,0.),.UNSPECIFIED.) GEOMETRIC_REPRESENTATION_ITEM() 
RATIONAL_B_SPLINE_SURFACE((
    (1.,1.)
    ,(0.5,0.5)
    ,(1.,1.)
    ,(0.5,0.5)
    ,(1.,1.)
    ,(0.5,0.5)
,(1.,1.))) REPRESENTATION_ITEM('') SURFACE() );
#599 = CARTESIAN_POINT('',(0.30497592358,0.208667737693,0.940609950432)
  );
#600 = CARTESIAN_POINT('',(0.30497592358,0.208667737693,0.844301764545)
  );
#601 = CARTESIAN_POINT('',(0.30497592358,4.185706655236E-02,
    0.940609950432));
#602 = CARTESIAN_POINT('',(0.30497592358,4.185706655236E-02,
    0.844301764545));
#603 = CARTESIAN_POINT('',(0.16051364475,0.125262402123,0.940609950432)
  );
#604 = CARTESIAN_POINT('',(0.16051364475,0.125262402123,0.844301764545)
  );
#605 = CARTESIAN_POINT('',(1.60513659195E-02,0.208667737693,
    0.940609950432));
#606 = CARTESIAN_POINT('',(1.60513659195E-02,0.208667737693,
    0.844301764545));
#607 = CARTESIAN_POINT('',(0.16051364475,0.292073073263,0.940609950432)
  );
#608 = CARTESIAN_POINT('',(0.16051364475,0.292073073263,0.844301764545)
  );
#609 = CARTESIAN_POINT('',(0.30497592358,0.375478408834,0.940609950432)
  );
#610 = CARTESIAN_POINT('',(0.30497592358,0.375478408834,0.844301764545)
  );
#611 = CARTESIAN_POINT('',(0.30497592358,0.208667737693,0.940609950432)
  );
#612 = CARTESIAN_POINT('',(0.30497592358,0.208667737693,0.844301764545)
  );
#613 = DEFINITIONAL_REPRESENTATION('',(#614),#618);
#614 = LINE('',#615,#616);
#615 = CARTESIAN_POINT('',(0.,0.));
#616 = VECTOR('',#617,1.);
#617 = DIRECTION('',(0.,1.));
#618 = ( GEOMETRIC_REPRESENTATION_CONTEXT(2) 
PARAMETRIC_REPRESENTATION_CONTEXT() REPRESENTATION_CONTEXT('2D SPACE',''
  ) );
#619 = PCURVE('',#598,#620);
#620 = DEFINITIONAL_REPRESENTATION('',(#621),#625);
#621 = LINE('',#622,#623);
#622 = CARTESIAN_POINT('',(6.283185,0.));
#623 = VECTOR('',#624,1.);
#624 = DIRECTION('',(0.,1.));
#625 = ( GEOMETRIC_REPRESENTATION_CONTEXT(2) 
PARAMETRIC_REPRESENTATION_CONTEXT() REPRESENTATION_CONTEXT('2D SPACE',''
  ) );
#626 = ORIENTED_EDGE('',*,*,#627,.T.);
#627 = EDGE_CURVE('',#589,#589,#628,.T.);
#628 = SURFACE_CURVE('',#629,(#637),.PCURVE_S1.);
#629 = ( BOUNDED_CURVE() B_SPLINE_CURVE(2,(#630,#631,#632,#633,#634,#635
,#636),.UNSPECIFIED.,.T.,.F.) B_SPLINE_CURVE_WITH_KNOTS((1,2,2,2,2,1),(
-2.094395,0.,2.094395,4.18879,6.283185,8.37758),.UNSPECIFIED.) CURVE() 
GEOMETRIC_REPRESENTATION_ITEM() RATIONAL_B_SPLINE_CURVE((1.,0.5,1.,0.5,
1.,0.5,1.)) REPRESENTATION_ITEM('') );
#630 = CARTESIAN_POINT('',(0.30497592358,0.208667737693,0.940609950432)
  );
#631 = CARTESIAN_POINT('',(0.30497592358,4.185706655236E-02,
    0.940609950432));
#632 = CARTESIAN_POINT('',(0.16051364475,0.125262402123,0.940609950432)
  );
#633 = CARTESIAN_POINT('',(1.60513659195E-02,0.208667737693,
    0.940609950432));
#634 = CARTESIAN_POINT('',(0.16051364475,0.292073073263,0.940609950432)
  );
#635 = CARTESIAN_POINT('',(0.30497592358,0.375478408834,0.940609950432)
  );
#636 = CARTESIAN_POINT('',(0.30497592358,0.208667737693,0.940609950432)
  );
#637 = PCURVE('',#598,#638);
#638 = DEFINITIONAL_REPRESENTATION('',(#639),#643);
#639 = LINE('',#640,#641);
#640 = CARTESIAN_POINT('',(0.,-9.6308E-02));
#641 = VECTOR('',#642,1.);
#642 = DIRECTION('',(1.,0.));
#643 = ( GEOMETRIC_REPRESENTATION_CONTEXT(2) 
PARAMETRIC_REPRESENTATION_CONTEXT() REPRESENTATION_CONTEXT('2D SPACE',''
  ) );
#644 = ORIENTED_EDGE('',*,*,#588,.T.);
#645 = ORIENTED_EDGE('',*,*,#646,.F.);
#646 = EDGE_CURVE('',#591,#591,#647,.T.);
#647 = SURFACE_CURVE('',#648,(#656),.PCURVE_S1.);
#648 = ( BOUNDED_CURVE() B_SPLINE_CURVE(2,(#649,#650,#651,#652,#653,#654
,#655),.UNSPECIFIED.,.T.,.F.) B_SPLINE_CURVE_WITH_KNOTS((1,2,2,2,2,1),(
-2.094395,0.,2.094395,4.18879,6.283185,8.37758),.UNSPECIFIED.) CURVE() 
GEOMETRIC_REPRESENTATION_ITEM() RATIONAL_B_SPLINE_CURVE((1.,0.5,1.,0.5,
1.,0.5,1.)) REPRESENTATION_ITEM('') );
#649 = CARTESIAN_POINT('',(0.30497592358,0.208667737693,0.844301764545)
  );
#650 = CARTESIAN_POINT('',(0.30497592358,4.185706655236E-02,
    0.844301764545));
#651 = CARTESIAN_POINT('',(0.16051364475,0.125262402123,0.844301764545)
  );
#652 = CARTESIAN_POINT('',(1.60513659195E-02,0.208667737693,
    0.844301764545));
#653 = CARTESIAN_POINT('',(0.16051364475,0.292073073263,0.844301764545)
  );
#654 = CARTESIAN_POINT('',(0.30497592358,0.375478408834,0.844301764545)
  );
#655 = CARTESIAN_POINT('',(0.30497592358,0.208667737693,0.844301764545)
  );
#656 = PCURVE('',#598,#657);
#657 = DEFINITIONAL_REPRESENTATION('',(#658),#662);
#658 = LINE('',#659,#660);
#659 = CARTESIAN_POINT('',(0.,0.));
#660 = VECTOR('',#661,1.);
#661 = DIRECTION('',(1.,0.));
#662 = ( GEOMETRIC_REPRESENTATION_CONTEXT(2) 
PARAMETRIC_REPRESENTATION_CONTEXT() REPRESENTATION_CONTEXT('2D SPACE',''
  ) );
#663 = ( GEOMETRIC_REPRESENTATION_CONTEXT(3) 
GLOBAL_UNCERTAINTY_ASSIGNED_CONTEXT((#667)) GLOBAL_UNIT_ASSIGNED_CONTEXT
((#664,#665,#666)) REPRESENTATION_CONTEXT('Context #1',
  '3D Context with UNIT and UNCERTAINTY') );
#664 = ( LENGTH_UNIT() NAMED_UNIT(*) SI_UNIT(.MILLI.,.METRE.) );
#665 = ( NAMED_UNIT(*) PLANE_ANGLE_UNIT() SI_UNIT($,.RADIAN.) );
#666 = ( NAMED_UNIT(*) SI_UNIT($,.STERADIAN.) SOLID_ANGLE_UNIT() );
#667 = UNCERTAINTY_MEASURE_WITH_UNIT(LENGTH_MEASURE(1.E-07),#664,
  'distance_accuracy_value','confusion accuracy');
#668 = CONTEXT_DEPENDENT_SHAPE_REPRESENTATION(#669,#671);
#669 = ( REPRESENTATION_RELATIONSHIP('','',#581,#10) 
REPRESENTATION_RELATIONSHIP_WITH_TRANSFORMATION(#670) 
SHAPE_REPRESENTATION_RELATIONSHIP() );
#670 = ITEM_DEFINED_TRANSFORMATION('','',#11,#39);
#671 = PRODUCT_DEFINITION_SHAPE('Placement','Placement of an item',#672
  );
#672 = NEXT_ASSEMBLY_USAGE_OCCURRENCE('7','','',#5,#576,$);
#673 = PRODUCT_RELATED_PRODUCT_CATEGORY('part',$,(#578));
#674 = SHAPE_DEFINITION_REPRESENTATION(#675,#681);
#675 = PRODUCT_DEFINITION_SHAPE('','',#676);
#676 = PRODUCT_DEFINITION('design','',#677,#680);
#677 = PRODUCT_DEFINITION_FORMATION('','',#678);
#678 = PRODUCT('Open CASCADE STEP translator 7.9 1.8',
  'Open CASCADE STEP translator 7.9 1.8','',(#679));
#679 = PRODUCT_CONTEXT('',#2,'mechanical');
#680 = PRODUCT_DEFINITION_CONTEXT('part definition',#2,'design');
#681 = MANIFOLD_SURFACE_SHAPE_REPRESENTATION('',(#11,#682),#763);
#682 = SHELL_BASED_SURFACE_MODEL('',(#683));
#683 = OPEN_SHELL('',(#684));
#684 = ADVANCED_FACE('',(#685),#698,.T.);
#685 = FACE_BOUND('',#686,.T.);
#686 = EDGE_LOOP('',(#687,#726,#744,#745));
#687 = ORIENTED_EDGE('',*,*,#688,.F.);
#688 = EDGE_CURVE('',#689,#691,#693,.T.);
#689 = VERTEX_POINT('',#690);
#690 = CARTESIAN_POINT('',(0.337078652209,0.208667737693,0.844301764544)
  );
#691 = VERTEX_POINT('',#692);
#692 = CARTESIAN_POINT('',(0.337078652209,0.208667737693,0.796147671601)
  );
#693 = SEAM_CURVE('',#694,(#697,#719),.PCURVE_S1.);
#694 = B_SPLINE_CURVE_WITH_KNOTS('',1,(#695,#696),.UNSPECIFIED.,.F.,.F.,
  (2,2),(-4.8154E-02,0.),.PIECEWISE_BEZIER_KNOTS.);
#695 = CARTESIAN_POINT('',(0.337078652209,0.208667737693,0.844301764544)
  );
#696 = CARTESIAN_POINT('',(0.337078652209,0.208667737693,0.796147671601)
  );
#697 = PCURVE('',#698,#713);
#698 = ( BOUNDED_SURFACE() B_SPLINE_SURFACE(2,1,(
    (#699,#700)
    ,(#701,#702)
    ,(#703,#704)
    ,(#705,#706)
    ,(#707,#708)
    ,(#709,#710)
,(#711,#712
    )),.UNSPECIFIED.,.T.,.F.,.F.) B_SPLINE_SURFACE_WITH_KNOTS((1,2,2,2,2
    ,1),(2,2),(-2.094395,0.,2.094395,4.18879,6.283185,8.37758),(
-4.8154E-02,0.),.UNSPECIFIED.) GEOMETRIC_REPRESENTATION_ITEM() 
RATIONAL_B_SPLINE_SURFACE((
    (1.,1.)
    ,(0.5,0.5)
    ,(1.,1.)
    ,(0.5,0.5)
    ,(1.,1.)
    ,(0.5,0.5)
,(1.,1.))) REPRESENTATION_ITEM('') SURFACE() );
#699 = CARTESIAN_POINT('',(0.337078652209,0.208667737693,0.844301764544)
  );
#700 = CARTESIAN_POINT('',(0.337078652209,0.208667737693,0.796147671601)
  );
#701 = CARTESIAN_POINT('',(0.337078652209,-1.37464904951E-02,
    0.844301764544));
#702 = CARTESIAN_POINT('',(0.337078652209,-1.37464904951E-02,
    0.796147671601));
#703 = CARTESIAN_POINT('',(0.144462280435,9.746062359895E-02,
    0.844301764544));
#704 = CARTESIAN_POINT('',(0.144462280435,9.746062359895E-02,
    0.796147671601));
#705 = CARTESIAN_POINT('',(-4.8154091339E-02,0.208667737693,
    0.844301764544));
#706 = CARTESIAN_POINT('',(-4.8154091339E-02,0.208667737693,
    0.796147671601));
#707 = CARTESIAN_POINT('',(0.144462280435,0.319874851787,0.844301764544)
  );
#708 = CARTESIAN_POINT('',(0.144462280435,0.319874851787,0.796147671601)
  );
#709 = CARTESIAN_POINT('',(0.337078652209,0.431081965881,0.844301764544)
  );
#710 = CARTESIAN_POINT('',(0.337078652209,0.431081965881,0.796147671601)
  );
#711 = CARTESIAN_POINT('',(0.337078652209,0.208667737693,0.844301764544)
  );
#712 = CARTESIAN_POINT('',(0.337078652209,0.208667737693,0.796147671601)
  );
#713 = DEFINITIONAL_REPRESENTATION('',(#714),#718);
#714 = LINE('',#715,#716);
#715 = CARTESIAN_POINT('',(0.,0.));
#716 = VECTOR('',#717,1.);
#717 = DIRECTION('',(0.,1.));
#718 = ( GEOMETRIC_REPRESENTATION_CONTEXT(2) 
PARAMETRIC_REPRESENTATION_CONTEXT() REPRESENTATION_CONTEXT('2D SPACE',''
  ) );
#719 = PCURVE('',#698,#720);
#720 = DEFINITIONAL_REPRESENTATION('',(#721),#725);
#721 = LINE('',#722,#723);
#722 = CARTESIAN_POINT('',(6.283185,0.));
#723 = VECTOR('',#724,1.);
#724 = DIRECTION('',(0.,1.));
#725 = ( GEOMETRIC_REPRESENTATION_CONTEXT(2) 
PARAMETRIC_REPRESENTATION_CONTEXT() REPRESENTATION_CONTEXT('2D SPACE',''
  ) );
#726 = ORIENTED_EDGE('',*,*,#727,.T.);
#727 = EDGE_CURVE('',#689,#689,#728,.T.);
#728 = SURFACE_CURVE('',#729,(#737),.PCURVE_S1.);
#729 = ( BOUNDED_CURVE() B_SPLINE_CURVE(2,(#730,#731,#732,#733,#734,#735
,#736),.UNSPECIFIED.,.T.,.F.) B_SPLINE_CURVE_WITH_KNOTS((1,2,2,2,2,1),(
-2.094395,0.,2.094395,4.18879,6.283185,8.37758),.UNSPECIFIED.) CURVE() 
GEOMETRIC_REPRESENTATION_ITEM() RATIONAL_B_SPLINE_CURVE((1.,0.5,1.,0.5,
1.,0.5,1.)) REPRESENTATION_ITEM('') );
#730 = CARTESIAN_POINT('',(0.337078652209,0.208667737693,0.844301764544)
  );
#731 = CARTESIAN_POINT('',(0.337078652209,-1.37464904951E-02,
    0.844301764544));
#732 = CARTESIAN_POINT('',(0.144462280435,9.746062359895E-02,
    0.844301764544));
#733 = CARTESIAN_POINT('',(-4.8154091339E-02,0.208667737693,
    0.844301764544));
#734 = CARTESIAN_POINT('',(0.144462280435,0.319874851787,0.844301764544)
  );
#735 = CARTESIAN_POINT('',(0.337078652209,0.431081965881,0.844301764544)
  );
#736 = CARTESIAN_POINT('',(0.337078652209,0.208667737693,0.844301764544)
  );
#737 = PCURVE('',#698,#738);
#738 = DEFINITIONAL_REPRESENTATION('',(#739),#743);
#739 = LINE('',#740,#741);
#740 = CARTESIAN_POINT('',(0.,-4.8154E-02));
#741 = VECTOR('',#742,1.);
#742 = DIRECTION('',(1.,0.));
#743 = ( GEOMETRIC_REPRESENTATION_CONTEXT(2) 
PARAMETRIC_REPRESENTATION_CONTEXT() REPRESENTATION_CONTEXT('2D SPACE',''
  ) );
#744 = ORIENTED_EDGE('',*,*,#688,.T.);
#745 = ORIENTED_EDGE('',*,*,#746,.F.);
#746 = EDGE_CURVE('',#691,#691,#747,.T.);
#747 = SURFACE_CURVE('',#748,(#756),.PCURVE_S1.);
#748 = ( BOUNDED_CURVE() B_SPLINE_CURVE(2,(#749,#750,#751,#752,#753,#754
,#755),.UNSPECIFIED.,.T.,.F.) B_SPLINE_CURVE_WITH_KNOTS((1,2,2,2,2,1),(
-2.094395,0.,2.094395,4.18879,6.283185,8.37758),.UNSPECIFIED.) CURVE() 
GEOMETRIC_REPRESENTATION_ITEM() RATIONAL_B_SPLINE_CURVE((1.,0.5,1.,0.5,
1.,0.5,1.)) REPRESENTATION_ITEM('') );
#749 = CARTESIAN_POINT('',(0.337078652209,0.208667737693,0.796147671601)
  );
#750 = CARTESIAN_POINT('',(0.337078652209,-1.37464904951E-02,
    0.796147671601));
#751 = CARTESIAN_POINT('',(0.144462280435,9.746062359895E-02,
    0.796147671601));
#752 = CARTESIAN_POINT('',(-4.8154091339E-02,0.208667737693,
    0.796147671601));
#753 = CARTESIAN_POINT('',(0.144462280435,0.319874851787,0.796147671601)
  );
#754 = CARTESIAN_POINT('',(0.337078652209,0.431081965881,0.796147671601)
  );
#755 = CARTESIAN_POINT('',(0.337078652209,0.208667737693,0.796147671601)
  );
#756 = PCURVE('',#698,#757);
#757 = DEFINITIONAL_REPRESENTATION('',(#758),#762);
#758 = LINE('',#759,#760);
#759 = CARTESIAN_POINT('',(0.,0.));
#760 = VECTOR('',#761,1.);
#761 = DIRECTION('',(1.,0.));
#762 = ( GEOMETRIC_REPRESENTATION_CONTEXT(2) 
PARAMETRIC_REPRESENTATION_CONTEXT() REPRESENTATION_CONTEXT('2D SPACE',''
  ) );
#763 = ( GEOMETRIC_REPRESENTATION_CONTEXT(3) 
GLOBAL_UNCERTAINTY_ASSIGNED_CONTEXT((#767)) GLOBAL_UNIT_ASSIGNED_CONTEXT
((#764,#765,#766)) REPRESENTATION_CONTEXT('Context #1',
  '3D Context with UNIT and UNCERTAINTY') );
#764 = ( LENGTH_UNIT() NAMED_UNIT(*) SI_UNIT(.MILLI.,.METRE.) );
#765 = ( NAMED_UNIT(*) PLANE_ANGLE_UNIT() SI_UNIT($,.RADIAN.) );
#766 = ( NAMED_UNIT(*) SI_UNIT($,.STERADIAN.) SOLID_ANGLE_UNIT() );
#767 = UNCERTAINTY_MEASURE_WITH_UNIT(LENGTH_MEASURE(1.E-07),#764,
  'distance_accuracy_value','confusion accuracy');
#768 = CONTEXT_DEPENDENT_SHAPE_REPRESENTATION(#769,#771);
#769 = ( REPRESENTATION_RELATIONSHIP('','',#681,#10) 
REPRESENTATION_RELATIONSHIP_WITH_TRANSFORMATION(#770) 
SHAPE_REPRESENTATION_RELATIONSHIP() );
#770 = ITEM_DEFINED_TRANSFORMATION('','',#11,#43);
#771 = PRODUCT_DEFINITION_SHAPE('Placement','Placement of an item',#772
  );
#772 = NEXT_ASSEMBLY_USAGE_OCCURRENCE('8','','',#5,#676,$);
#773 = PRODUCT_RELATED_PRODUCT_CATEGORY('part',$,(#678));
#774 = SHAPE_DEFINITION_REPRESENTATION(#775,#781);
#775 = PRODUCT_DEFINITION_SHAPE('','',#776);
#776 = PRODUCT_DEFINITION('design','',#777,#780);
#777 = PRODUCT_DEFINITION_FORMATION('','',#778);
#778 = PRODUCT('Open CASCADE STEP translator 7.9 1.9',
  'Open CASCADE STEP translator 7.9 1.9','',(#779));
#779 = PRODUCT_CONTEXT('',#2,'mechanical');
#780 = PRODUCT_DEFINITION_CONTEXT('part definition',#2,'design');
#781 = MANIFOLD_SURFACE_SHAPE_REPRESENTATION('',(#11,#782),#836);
#782 = SHELL_BASED_SURFACE_MODEL('',(#783));
#783 = OPEN_SHELL('',(#784));
#784 = ADVANCED_FACE('',(#785,#813),#798,.T.);
#785 = FACE_BOUND('',#786,.T.);
#786 = EDGE_LOOP('',(#787));
#787 = ORIENTED_EDGE('',*,*,#788,.F.);
#788 = EDGE_CURVE('',#789,#789,#791,.T.);
#789 = VERTEX_POINT('',#790);
#790 = CARTESIAN_POINT('',(8.0257E-02,0.208668,0.844302));
#791 = SURFACE_CURVE('',#792,(#797),.PCURVE_S1.);
#792 = CIRCLE('',#793,0.128411);
#793 = AXIS2_PLACEMENT_3D('',#794,#795,#796);
#794 = CARTESIAN_POINT('',(0.208668,0.208668,0.844302));
#795 = DIRECTION('',(0.,0.,-1.));
#796 = DIRECTION('',(-1.,0.,-0.));
#797 = PCURVE('',#798,#803);
#798 = PLANE('',#799);
#799 = AXIS2_PLACEMENT_3D('',#800,#801,#802);
#800 = CARTESIAN_POINT('',(0.208668003796,0.208668,0.844302));
#801 = DIRECTION('',(0.,0.,1.));
#802 = DIRECTION('',(1.,0.,-0.));
#803 = DEFINITIONAL_REPRESENTATION('',(#804),#812);
#804 = ( BOUNDED_CURVE() B_SPLINE_CURVE(2,(#805,#806,#807,#808,#809,#810
,#811),.UNSPECIFIED.,.T.,.F.) B_SPLINE_CURVE_WITH_KNOTS((1,2,2,2,2,1),(
    -2.094395102393,0.,2.094395102393,4.188790204786,6.28318530718,
8.377580409573),.UNSPECIFIED.) CURVE() GEOMETRIC_REPRESENTATION_ITEM() 
RATIONAL_B_SPLINE_CURVE((1.,0.5,1.,0.5,1.,0.5,1.)) REPRESENTATION_ITEM(
  '') );
#805 = CARTESIAN_POINT('',(-0.128411003796,-6.106226635438E-16));
#806 = CARTESIAN_POINT('',(-0.128411003796,0.222414376251));
#807 = CARTESIAN_POINT('',(6.420549620438E-02,0.111207188125));
#808 = CARTESIAN_POINT('',(0.256821996204,-5.791710395188E-16));
#809 = CARTESIAN_POINT('',(6.420549620438E-02,-0.111207188125));
#810 = CARTESIAN_POINT('',(-0.128411003796,-0.222414376251));
#811 = CARTESIAN_POINT('',(-0.128411003796,-6.106226635438E-16));
#812 = ( GEOMETRIC_REPRESENTATION_CONTEXT(2) 
PARAMETRIC_REPRESENTATION_CONTEXT() REPRESENTATION_CONTEXT('2D SPACE',''
  ) );
#813 = FACE_BOUND('',#814,.F.);
#814 = EDGE_LOOP('',(#815));
#815 = ORIENTED_EDGE('',*,*,#816,.T.);
#816 = EDGE_CURVE('',#817,#817,#819,.T.);
#817 = VERTEX_POINT('',#818);
#818 = CARTESIAN_POINT('',(0.11236,0.208668,0.844302));
#819 = SURFACE_CURVE('',#820,(#825),.PCURVE_S1.);
#820 = CIRCLE('',#821,9.6308E-02);
#821 = AXIS2_PLACEMENT_3D('',#822,#823,#824);
#822 = CARTESIAN_POINT('',(0.208668,0.208668,0.844302));
#823 = DIRECTION('',(0.,0.,-1.));
#824 = DIRECTION('',(-1.,0.,-0.));
#825 = PCURVE('',#798,#826);
#826 = DEFINITIONAL_REPRESENTATION('',(#827),#835);
#827 = ( BOUNDED_CURVE() B_SPLINE_CURVE(2,(#828,#829,#830,#831,#832,#833
,#834),.UNSPECIFIED.,.T.,.F.) B_SPLINE_CURVE_WITH_KNOTS((1,2,2,2,2,1),(
    -2.094395102393,0.,2.094395102393,4.188790204786,6.28318530718,
8.377580409573),.UNSPECIFIED.) CURVE() GEOMETRIC_REPRESENTATION_ITEM() 
RATIONAL_B_SPLINE_CURVE((1.,0.5,1.,0.5,1.,0.5,1.)) REPRESENTATION_ITEM(
  '') );
#828 = CARTESIAN_POINT('',(-9.630800379562E-02,-6.106226635438E-16));
#829 = CARTESIAN_POINT('',(-9.630800379562E-02,0.166810349175));
#830 = CARTESIAN_POINT('',(4.815399620438E-02,8.340517458767E-02));
#831 = CARTESIAN_POINT('',(0.192615996204,-5.870340067574E-16));
#832 = CARTESIAN_POINT('',(4.815399620438E-02,-8.340517458767E-02));
#833 = CARTESIAN_POINT('',(-9.630800379562E-02,-0.166810349175));
#834 = CARTESIAN_POINT('',(-9.630800379562E-02,-6.106226635438E-16));
#835 = ( GEOMETRIC_REPRESENTATION_CONTEXT(2) 
PARAMETRIC_REPRESENTATION_CONTEXT() REPRESENTATION_CONTEXT('2D SPACE',''
  ) );
#836 = ( GEOMETRIC_REPRESENTATION_CONTEXT(3) 
GLOBAL_UNCERTAINTY_ASSIGNED_CONTEXT((#840)) GLOBAL_UNIT_ASSIGNED_CONTEXT
((#837,#838,#839)) REPRESENTATION_CONTEXT('Context #1',
  '3D Context with UNIT and UNCERTAINTY') );
#837 = ( LENGTH_UNIT() NAMED_UNIT(*) SI_UNIT(.MILLI.,.METRE.) );
#838 = ( NAMED_UNIT(*) PLANE_ANGLE_UNIT() SI_UNIT($,.RADIAN.) );
#839 = ( NAMED_UNIT(*) SI_UNIT($,.STERADIAN.) SOLID_ANGLE_UNIT() );
#840 = UNCERTAINTY_MEASURE_WITH_UNIT(LENGTH_MEASURE(1.E-07),#837,
  'distance_accuracy_value','confusion accuracy');
#841 = CONTEXT_DEPENDENT_SHAPE_REPRESENTATION(#842,#844);
#842 = ( REPRESENTATION_RELATIONSHIP('','',#781,#10) 
REPRESENTATION_RELATIONSHIP_WITH_TRANSFORMATION(#843) 
SHAPE_REPRESENTATION_RELATIONSHIP() );
#843 = ITEM_DEFINED_TRANSFORMATION('','',#11,#47);
#844 = PRODUCT_DEFINITION_SHAPE('Placement','Placement of an item',#845
  );
#845 = NEXT_ASSEMBLY_USAGE_OCCURRENCE('9','','',#5,#776,$);
#846 = PRODUCT_RELATED_PRODUCT_CATEGORY('part',$,(#778));
ENDSEC;
END-ISO-10303-21;
