ISO-10303-21;
HEADER;
FILE_DESCRIPTION(('Open CASCADE Model'),'2;1');
FILE_NAME('Open CASCADE Shape Model','2026-06-29T02:10:34',('Author'),(
    'Open CASCADE'),'Open CASCADE STEP processor 7.9','Open CASCADE 7.9'
  ,'Unknown');
FILE_SCHEMA(('AUTOMOTIVE_DESIGN { 1 0 10303 214 1 1 1 1 }'));
ENDSEC;
DATA;
#1 = APPLICATION_PROTOCOL_DEFINITION('international standard',
  'automotive_design',2000,#2);
#2 = APPLICATION_CONTEXT(
  'core data for automotive mechanical design processes');
#3 = SHAPE_DEFINITION_REPRESENTATION(#4,#10);
#4 = PRODUCT_DEFINITION_SHAPE('','',#5);
#5 = PRODUCT_DEFINITION('design','',#6,#9);
#6 = PRODUCT_DEFINITION_FORMATION('','',#7);
#7 = PRODUCT('Open CASCADE STEP translator 7.9 1',
  'Open CASCADE STEP translator 7.9 1','',(#8));
#8 = PRODUCT_CONTEXT('',#2,'mechanical');
#9 = PRODUCT_DEFINITION_CONTEXT('part definition',#2,'design');
#10 = SHAPE_REPRESENTATION('',(#11,#15,#19,#23,#27),#31);
#11 = AXIS2_PLACEMENT_3D('',#12,#13,#14);
#12 = CARTESIAN_POINT('',(0.,0.,0.));
#13 = DIRECTION('',(0.,0.,1.));
#14 = DIRECTION('',(1.,0.,-0.));
#15 = AXIS2_PLACEMENT_3D('',#16,#17,#18);
#16 = CARTESIAN_POINT('',(0.,0.,0.));
#17 = DIRECTION('',(0.,0.,1.));
#18 = DIRECTION('',(1.,0.,-0.));
#19 = AXIS2_PLACEMENT_3D('',#20,#21,#22);
#20 = CARTESIAN_POINT('',(0.,0.,0.));
#21 = DIRECTION('',(0.,0.,1.));
#22 = DIRECTION('',(1.,0.,-0.));
#23 = AXIS2_PLACEMENT_3D('',#24,#25,#26);
#24 = CARTESIAN_POINT('',(0.,0.,0.));
#25 = DIRECTION('',(0.,0.,1.));
#26 = DIRECTION('',(1.,0.,-0.));
#27 = AXIS2_PLACEMENT_3D('',#28,#29,#30);
#28 = CARTESIAN_POINT('',(0.,0.,0.));
#29 = DIRECTION('',(0.,0.,1.));
#30 = DIRECTION('',(1.,0.,-0.));
#31 = ( GEOMETRIC_REPRESENTATION_CONTEXT(3) 
GLOBAL_UNCERTAINTY_ASSIGNED_CONTEXT((#35)) GLOBAL_UNIT_ASSIGNED_CONTEXT(
(#32,#33,#34)) REPRESENTATION_CONTEXT('Context #1',
  '3D Context with UNIT and UNCERTAINTY') );
#32 = ( LENGTH_UNIT() NAMED_UNIT(*) SI_UNIT(.MILLI.,.METRE.) );
#33 = ( NAMED_UNIT(*) PLANE_ANGLE_UNIT() SI_UNIT($,.RADIAN.) );
#34 = ( NAMED_UNIT(*) SI_UNIT($,.STERADIAN.) SOLID_ANGLE_UNIT() );
#35 = UNCERTAINTY_MEASURE_WITH_UNIT(LENGTH_MEASURE(1.E-07),#32,
  'distance_accuracy_value','confusion accuracy');
#36 = PRODUCT_RELATED_PRODUCT_CATEGORY('part',$,(#7));
#37 = SHAPE_DEFINITION_REPRESENTATION(#38,#44);
#38 = PRODUCT_DEFINITION_SHAPE('','',#39);
#39 = PRODUCT_DEFINITION('design','',#40,#43);
#40 = PRODUCT_DEFINITION_FORMATION('','',#41);
#41 = PRODUCT('Open CASCADE STEP translator 7.9 1.1',
  'Open CASCADE STEP translator 7.9 1.1','',(#42));
#42 = PRODUCT_CONTEXT('',#2,'mechanical');
#43 = PRODUCT_DEFINITION_CONTEXT('part definition',#2,'design');
#44 = MANIFOLD_SURFACE_SHAPE_REPRESENTATION('',(#11,#45),#142);
#45 = SHELL_BASED_SURFACE_MODEL('',(#46));
#46 = OPEN_SHELL('',(#47));
#47 = ADVANCED_FACE('',(#48),#64,.T.);
#48 = FACE_BOUND('',#49,.T.);
#49 = EDGE_LOOP('',(#50,#99,#123,#141));
#50 = ORIENTED_EDGE('',*,*,#51,.F.);
#51 = EDGE_CURVE('',#52,#52,#54,.T.);
#52 = VERTEX_POINT('',#53);
#53 = CARTESIAN_POINT('',(7.908080212922E-02,0.112301278547,
    0.852964511242));
#54 = SURFACE_CURVE('',#55,(#63),.PCURVE_S1.);
#55 = B_SPLINE_CURVE_WITH_KNOTS('',3,(#56,#57,#58,#59,#60,#61,#62),
  .UNSPECIFIED.,.T.,.F.,(1,3,3,3,1),(-0.785398,0.,0.785398,1.570796,
    2.356194),.UNSPECIFIED.);
#56 = CARTESIAN_POINT('',(7.908080212922E-02,0.112301278547,
    0.852964511242));
#57 = CARTESIAN_POINT('',(7.908080212922E-02,0.112301278547,
    0.856212536796));
#58 = CARTESIAN_POINT('',(7.58327765755E-02,0.112301278547,
    0.856212536796));
#59 = CARTESIAN_POINT('',(7.58327765755E-02,0.112301278547,
    0.852964511242));
#60 = CARTESIAN_POINT('',(7.58327765755E-02,0.112301278547,
    0.849716485688));
#61 = CARTESIAN_POINT('',(7.908080212922E-02,0.112301278547,
    0.849716485688));
#62 = CARTESIAN_POINT('',(7.908080212922E-02,0.112301278547,
    0.852964511242));
#63 = PCURVE('',#64,#93);
#64 = B_SPLINE_SURFACE_WITH_KNOTS('',3,3,(
    (#65,#66,#67,#68,#69,#70,#71)
    ,(#72,#73,#74,#75,#76,#77,#78)
    ,(#79,#80,#81,#82,#83,#84,#85)
    ,(#86,#87,#88,#89,#90,#91,#92
    )),.UNSPECIFIED.,.F.,.T.,.F.,(4,4),(1,3,3,3,1),(0.,6.283185),(
    -0.785398,0.,0.785398,1.570796,2.356194),.UNSPECIFIED.);
#65 = CARTESIAN_POINT('',(7.908080212922E-02,0.112301278547,
    0.852964511242));
#66 = CARTESIAN_POINT('',(7.908080212922E-02,0.112301278547,
    0.856212536796));
#67 = CARTESIAN_POINT('',(7.58327765755E-02,0.112301278547,
    0.856212536796));
#68 = CARTESIAN_POINT('',(7.58327765755E-02,0.112301278547,
    0.852964511242));
#69 = CARTESIAN_POINT('',(7.58327765755E-02,0.112301278547,
    0.849716485688));
#70 = CARTESIAN_POINT('',(7.908080212922E-02,0.112301278547,
    0.849716485688));
#71 = CARTESIAN_POINT('',(7.908080212922E-02,0.112301278547,
    0.852964511242));
#72 = CARTESIAN_POINT('',(8.961941483848E-02,0.112301278547,
    0.852964511242));
#73 = CARTESIAN_POINT('',(8.961941483848E-02,0.112301278547,
    0.877289762215));
#74 = CARTESIAN_POINT('',(6.529416386624E-02,0.112301278547,
    0.877289762215));
#75 = CARTESIAN_POINT('',(6.529416386624E-02,0.112301278547,
    0.852964511242));
#76 = CARTESIAN_POINT('',(6.529416386624E-02,0.112301278547,
    0.828639260269));
#77 = CARTESIAN_POINT('',(8.961941483848E-02,0.112301278547,
    0.828639260269));
#78 = CARTESIAN_POINT('',(8.961941483848E-02,0.112301278547,
    0.852964511242));
#79 = CARTESIAN_POINT('',(9.7121209732E-02,0.104799483654,0.852964511242
    ));
#80 = CARTESIAN_POINT('',(9.7121209732E-02,0.104799483654,0.892293352002
    ));
#81 = CARTESIAN_POINT('',(5.779236897272E-02,0.104799483654,
    0.892293352002));
#82 = CARTESIAN_POINT('',(5.779236897272E-02,0.104799483654,
    0.852964511242));
#83 = CARTESIAN_POINT('',(5.779236897272E-02,0.104799483654,
    0.813635670482));
#84 = CARTESIAN_POINT('',(9.7121209732E-02,0.104799483654,0.813635670482
    ));
#85 = CARTESIAN_POINT('',(9.7121209732E-02,0.104799483654,0.852964511242
    ));
#86 = CARTESIAN_POINT('',(9.7121209732E-02,9.4260870944E-02,
    0.852964511242));
#87 = CARTESIAN_POINT('',(9.7121209732E-02,9.4260870944E-02,
    0.892293352002));
#88 = CARTESIAN_POINT('',(5.779236897272E-02,9.4260870944E-02,
    0.892293352002));
#89 = CARTESIAN_POINT('',(5.779236897272E-02,9.4260870944E-02,
    0.852964511242));
#90 = CARTESIAN_POINT('',(5.779236897272E-02,9.4260870944E-02,
    0.813635670482));
#91 = CARTESIAN_POINT('',(9.7121209732E-02,9.4260870944E-02,
    0.813635670482));
#92 = CARTESIAN_POINT('',(9.7121209732E-02,9.4260870944E-02,
    0.852964511242));
#93 = DEFINITIONAL_REPRESENTATION('',(#94),#98);
#94 = LINE('',#95,#96);
#95 = CARTESIAN_POINT('',(0.,0.));
#96 = VECTOR('',#97,1.);
#97 = DIRECTION('',(0.,1.));
#98 = ( GEOMETRIC_REPRESENTATION_CONTEXT(2) 
PARAMETRIC_REPRESENTATION_CONTEXT() REPRESENTATION_CONTEXT('2D SPACE',''
  ) );
#99 = ORIENTED_EDGE('',*,*,#100,.T.);
#100 = EDGE_CURVE('',#52,#101,#103,.T.);
#101 = VERTEX_POINT('',#102);
#102 = CARTESIAN_POINT('',(9.7121209732E-02,9.4260870944E-02,
    0.852964511242));
#103 = SEAM_CURVE('',#104,(#109,#116),.PCURVE_S1.);
#104 = B_SPLINE_CURVE_WITH_KNOTS('',3,(#105,#106,#107,#108),
  .UNSPECIFIED.,.F.,.F.,(4,4),(0.,6.283185),.PIECEWISE_BEZIER_KNOTS.);
#105 = CARTESIAN_POINT('',(7.908080212922E-02,0.112301278547,
    0.852964511242));
#106 = CARTESIAN_POINT('',(8.961941483848E-02,0.112301278547,
    0.852964511242));
#107 = CARTESIAN_POINT('',(9.7121209732E-02,0.104799483654,
    0.852964511242));
#108 = CARTESIAN_POINT('',(9.7121209732E-02,9.4260870944E-02,
    0.852964511242));
#109 = PCURVE('',#64,#110);
#110 = DEFINITIONAL_REPRESENTATION('',(#111),#115);
#111 = LINE('',#112,#113);
#112 = CARTESIAN_POINT('',(0.,0.));
#113 = VECTOR('',#114,1.);
#114 = DIRECTION('',(1.,0.));
#115 = ( GEOMETRIC_REPRESENTATION_CONTEXT(2) 
PARAMETRIC_REPRESENTATION_CONTEXT() REPRESENTATION_CONTEXT('2D SPACE',''
  ) );
#116 = PCURVE('',#64,#117);
#117 = DEFINITIONAL_REPRESENTATION('',(#118),#122);
#118 = LINE('',#119,#120);
#119 = CARTESIAN_POINT('',(0.,1.570796));
#120 = VECTOR('',#121,1.);
#121 = DIRECTION('',(1.,0.));
#122 = ( GEOMETRIC_REPRESENTATION_CONTEXT(2) 
PARAMETRIC_REPRESENTATION_CONTEXT() REPRESENTATION_CONTEXT('2D SPACE',''
  ) );
#123 = ORIENTED_EDGE('',*,*,#124,.T.);
#124 = EDGE_CURVE('',#101,#101,#125,.T.);
#125 = SURFACE_CURVE('',#126,(#134),.PCURVE_S1.);
#126 = B_SPLINE_CURVE_WITH_KNOTS('',3,(#127,#128,#129,#130,#131,#132,
    #133),.UNSPECIFIED.,.T.,.F.,(1,3,3,3,1),(-0.785398,0.,0.785398,
    1.570796,2.356194),.UNSPECIFIED.);
#127 = CARTESIAN_POINT('',(9.7121209732E-02,9.4260870944E-02,
    0.852964511242));
#128 = CARTESIAN_POINT('',(9.7121209732E-02,9.4260870944E-02,
    0.892293352002));
#129 = CARTESIAN_POINT('',(5.779236897272E-02,9.4260870944E-02,
    0.892293352002));
#130 = CARTESIAN_POINT('',(5.779236897272E-02,9.4260870944E-02,
    0.852964511242));
#131 = CARTESIAN_POINT('',(5.779236897272E-02,9.4260870944E-02,
    0.813635670482));
#132 = CARTESIAN_POINT('',(9.7121209732E-02,9.4260870944E-02,
    0.813635670482));
#133 = CARTESIAN_POINT('',(9.7121209732E-02,9.4260870944E-02,
    0.852964511242));
#134 = PCURVE('',#64,#135);
#135 = DEFINITIONAL_REPRESENTATION('',(#136),#140);
#136 = LINE('',#137,#138);
#137 = CARTESIAN_POINT('',(6.283185,0.));
#138 = VECTOR('',#139,1.);
#139 = DIRECTION('',(0.,1.));
#140 = ( GEOMETRIC_REPRESENTATION_CONTEXT(2) 
PARAMETRIC_REPRESENTATION_CONTEXT() REPRESENTATION_CONTEXT('2D SPACE',''
  ) );
#141 = ORIENTED_EDGE('',*,*,#100,.F.);
#142 = ( GEOMETRIC_REPRESENTATION_CONTEXT(3) 
GLOBAL_UNCERTAINTY_ASSIGNED_CONTEXT((#146)) GLOBAL_UNIT_ASSIGNED_CONTEXT
((#143,#144,#145)) REPRESENTATION_CONTEXT('Context #1',
  '3D Context with UNIT and UNCERTAINTY') );
#143 = ( LENGTH_UNIT() NAMED_UNIT(*) SI_UNIT(.MILLI.,.METRE.) );
#144 = ( NAMED_UNIT(*) PLANE_ANGLE_UNIT() SI_UNIT($,.RADIAN.) );
#145 = ( NAMED_UNIT(*) SI_UNIT($,.STERADIAN.) SOLID_ANGLE_UNIT() );
#146 = UNCERTAINTY_MEASURE_WITH_UNIT(LENGTH_MEASURE(1.E-07),#143,
  'distance_accuracy_value','confusion accuracy');
#147 = CONTEXT_DEPENDENT_SHAPE_REPRESENTATION(#148,#150);
#148 = ( REPRESENTATION_RELATIONSHIP('','',#44,#10) 
REPRESENTATION_RELATIONSHIP_WITH_TRANSFORMATION(#149) 
SHAPE_REPRESENTATION_RELATIONSHIP() );
#149 = ITEM_DEFINED_TRANSFORMATION('','',#11,#15);
#150 = PRODUCT_DEFINITION_SHAPE('Placement','Placement of an item',#151
  );
#151 = NEXT_ASSEMBLY_USAGE_OCCURRENCE('1','','',#5,#39,$);
#152 = PRODUCT_RELATED_PRODUCT_CATEGORY('part',$,(#41));
#153 = SHAPE_DEFINITION_REPRESENTATION(#154,#160);
#154 = PRODUCT_DEFINITION_SHAPE('','',#155);
#155 = PRODUCT_DEFINITION('design','',#156,#159);
#156 = PRODUCT_DEFINITION_FORMATION('','',#157);
#157 = PRODUCT('Open CASCADE STEP translator 7.9 1.2',
  'Open CASCADE STEP translator 7.9 1.2','',(#158));
#158 = PRODUCT_CONTEXT('',#2,'mechanical');
#159 = PRODUCT_DEFINITION_CONTEXT('part definition',#2,'design');
#160 = MANIFOLD_SURFACE_SHAPE_REPRESENTATION('',(#11,#161),#192);
#161 = SHELL_BASED_SURFACE_MODEL('',(#162));
#162 = OPEN_SHELL('',(#163));
#163 = ADVANCED_FACE('',(#164),#177,.T.);
#164 = FACE_BOUND('',#165,.T.);
#165 = EDGE_LOOP('',(#166));
#166 = ORIENTED_EDGE('',*,*,#167,.F.);
#167 = EDGE_CURVE('',#168,#168,#170,.T.);
#168 = VERTEX_POINT('',#169);
#169 = CARTESIAN_POINT('',(7.7633E-02,8.622E-02,0.854412));
#170 = SURFACE_CURVE('',#171,(#176),.PCURVE_S1.);
#171 = CIRCLE('',#172,1.447E-03);
#172 = AXIS2_PLACEMENT_3D('',#173,#174,#175);
#173 = CARTESIAN_POINT('',(7.7633E-02,8.622E-02,0.852965));
#174 = DIRECTION('',(0.,1.,0.));
#175 = DIRECTION('',(0.,-0.,1.));
#176 = PCURVE('',#177,#182);
#177 = PLANE('',#178);
#178 = AXIS2_PLACEMENT_3D('',#179,#180,#181);
#179 = CARTESIAN_POINT('',(7.7633E-02,8.622E-02,0.852964999957));
#180 = DIRECTION('',(-0.,-1.,-0.));
#181 = DIRECTION('',(0.,0.,-1.));
#182 = DEFINITIONAL_REPRESENTATION('',(#183),#191);
#183 = ( BOUNDED_CURVE() B_SPLINE_CURVE(2,(#184,#185,#186,#187,#188,#189
,#190),.UNSPECIFIED.,.T.,.F.) B_SPLINE_CURVE_WITH_KNOTS((1,2,2,2,2,1),(
    -2.094395102393,0.,2.094395102393,4.188790204786,6.28318530718,
8.377580409573),.UNSPECIFIED.) CURVE() GEOMETRIC_REPRESENTATION_ITEM() 
RATIONAL_B_SPLINE_CURVE((1.,0.5,1.,0.5,1.,0.5,1.)) REPRESENTATION_ITEM(
  '') );
#184 = CARTESIAN_POINT('',(-1.447000042771E-03,0.));
#185 = CARTESIAN_POINT('',(-1.447000042771E-03,2.506277518552E-03));
#186 = CARTESIAN_POINT('',(7.234999572291E-04,1.253138759276E-03));
#187 = CARTESIAN_POINT('',(2.893999957229E-03,3.544127836732E-19));
#188 = CARTESIAN_POINT('',(7.234999572291E-04,-1.253138759276E-03));
#189 = CARTESIAN_POINT('',(-1.447000042771E-03,-2.506277518552E-03));
#190 = CARTESIAN_POINT('',(-1.447000042771E-03,0.));
#191 = ( GEOMETRIC_REPRESENTATION_CONTEXT(2) 
PARAMETRIC_REPRESENTATION_CONTEXT() REPRESENTATION_CONTEXT('2D SPACE',''
  ) );
#192 = ( GEOMETRIC_REPRESENTATION_CONTEXT(3) 
GLOBAL_UNCERTAINTY_ASSIGNED_CONTEXT((#196)) GLOBAL_UNIT_ASSIGNED_CONTEXT
((#193,#194,#195)) REPRESENTATION_CONTEXT('Context #1',
  '3D Context with UNIT and UNCERTAINTY') );
#193 = ( LENGTH_UNIT() NAMED_UNIT(*) SI_UNIT(.MILLI.,.METRE.) );
#194 = ( NAMED_UNIT(*) PLANE_ANGLE_UNIT() SI_UNIT($,.RADIAN.) );
#195 = ( NAMED_UNIT(*) SI_UNIT($,.STERADIAN.) SOLID_ANGLE_UNIT() );
#196 = UNCERTAINTY_MEASURE_WITH_UNIT(LENGTH_MEASURE(1.E-07),#193,
  'distance_accuracy_value','confusion accuracy');
#197 = CONTEXT_DEPENDENT_SHAPE_REPRESENTATION(#198,#200);
#198 = ( REPRESENTATION_RELATIONSHIP('','',#160,#10) 
REPRESENTATION_RELATIONSHIP_WITH_TRANSFORMATION(#199) 
SHAPE_REPRESENTATION_RELATIONSHIP() );
#199 = ITEM_DEFINED_TRANSFORMATION('','',#11,#19);
#200 = PRODUCT_DEFINITION_SHAPE('Placement','Placement of an item',#201
  );
#201 = NEXT_ASSEMBLY_USAGE_OCCURRENCE('2','','',#5,#155,$);
#202 = PRODUCT_RELATED_PRODUCT_CATEGORY('part',$,(#157));
#203 = SHAPE_DEFINITION_REPRESENTATION(#204,#210);
#204 = PRODUCT_DEFINITION_SHAPE('','',#205);
#205 = PRODUCT_DEFINITION('design','',#206,#209);
#206 = PRODUCT_DEFINITION_FORMATION('','',#207);
#207 = PRODUCT('Open CASCADE STEP translator 7.9 1.3',
  'Open CASCADE STEP translator 7.9 1.3','',(#208));
#208 = PRODUCT_CONTEXT('',#2,'mechanical');
#209 = PRODUCT_DEFINITION_CONTEXT('part definition',#2,'design');
#210 = MANIFOLD_SURFACE_SHAPE_REPRESENTATION('',(#11,#211),#308);
#211 = SHELL_BASED_SURFACE_MODEL('',(#212));
#212 = OPEN_SHELL('',(#213));
#213 = ADVANCED_FACE('',(#214),#230,.T.);
#214 = FACE_BOUND('',#215,.T.);
#215 = EDGE_LOOP('',(#216,#265,#289,#307));
#216 = ORIENTED_EDGE('',*,*,#217,.F.);
#217 = EDGE_CURVE('',#218,#218,#220,.T.);
#218 = VERTEX_POINT('',#219);
#219 = CARTESIAN_POINT('',(7.908080212922E-02,0.112301278547,
    0.852964511242));
#220 = SURFACE_CURVE('',#221,(#229),.PCURVE_S1.);
#221 = B_SPLINE_CURVE_WITH_KNOTS('',3,(#222,#223,#224,#225,#226,#227,
    #228),.UNSPECIFIED.,.T.,.F.,(1,3,3,3,1),(-0.785398,0.,0.785398,
    1.570796,2.356194),.UNSPECIFIED.);
#222 = CARTESIAN_POINT('',(7.908080212922E-02,0.112301278547,
    0.852964511242));
#223 = CARTESIAN_POINT('',(7.908080212922E-02,0.112301278547,
    0.856212536796));
#224 = CARTESIAN_POINT('',(7.58327765755E-02,0.112301278547,
    0.856212536796));
#225 = CARTESIAN_POINT('',(7.58327765755E-02,0.112301278547,
    0.852964511242));
#226 = CARTESIAN_POINT('',(7.58327765755E-02,0.112301278547,
    0.849716485688));
#227 = CARTESIAN_POINT('',(7.908080212922E-02,0.112301278547,
    0.849716485688));
#228 = CARTESIAN_POINT('',(7.908080212922E-02,0.112301278547,
    0.852964511242));
#229 = PCURVE('',#230,#259);
#230 = B_SPLINE_SURFACE_WITH_KNOTS('',3,3,(
    (#231,#232,#233,#234,#235,#236,#237)
    ,(#238,#239,#240,#241,#242,#243,#244)
    ,(#245,#246,#247,#248,#249,#250,#251)
    ,(#252,#253,#254,#255,#256,#257,#258
    )),.UNSPECIFIED.,.F.,.T.,.F.,(4,4),(1,3,3,3,1),(0.,6.283185),(
    -0.785398,0.,0.785398,1.570796,2.356194),.UNSPECIFIED.);
#231 = CARTESIAN_POINT('',(7.908080212922E-02,0.112301278547,
    0.852964511242));
#232 = CARTESIAN_POINT('',(7.908080212922E-02,0.112301278547,
    0.856212536796));
#233 = CARTESIAN_POINT('',(7.58327765755E-02,0.112301278547,
    0.856212536796));
#234 = CARTESIAN_POINT('',(7.58327765755E-02,0.112301278547,
    0.852964511242));
#235 = CARTESIAN_POINT('',(7.58327765755E-02,0.112301278547,
    0.849716485688));
#236 = CARTESIAN_POINT('',(7.908080212922E-02,0.112301278547,
    0.849716485688));
#237 = CARTESIAN_POINT('',(7.908080212922E-02,0.112301278547,
    0.852964511242));
#238 = CARTESIAN_POINT('',(8.961941483848E-02,0.112301278547,
    0.852964511242));
#239 = CARTESIAN_POINT('',(8.961941483848E-02,0.112301278547,
    0.877289762215));
#240 = CARTESIAN_POINT('',(6.529416386624E-02,0.112301278547,
    0.877289762215));
#241 = CARTESIAN_POINT('',(6.529416386624E-02,0.112301278547,
    0.852964511242));
#242 = CARTESIAN_POINT('',(6.529416386624E-02,0.112301278547,
    0.828639260269));
#243 = CARTESIAN_POINT('',(8.961941483848E-02,0.112301278547,
    0.828639260269));
#244 = CARTESIAN_POINT('',(8.961941483848E-02,0.112301278547,
    0.852964511242));
#245 = CARTESIAN_POINT('',(9.7121209732E-02,0.104799483654,
    0.852964511242));
#246 = CARTESIAN_POINT('',(9.7121209732E-02,0.104799483654,
    0.892293352002));
#247 = CARTESIAN_POINT('',(5.779236897272E-02,0.104799483654,
    0.892293352002));
#248 = CARTESIAN_POINT('',(5.779236897272E-02,0.104799483654,
    0.852964511242));
#249 = CARTESIAN_POINT('',(5.779236897272E-02,0.104799483654,
    0.813635670482));
#250 = CARTESIAN_POINT('',(9.7121209732E-02,0.104799483654,
    0.813635670482));
#251 = CARTESIAN_POINT('',(9.7121209732E-02,0.104799483654,
    0.852964511242));
#252 = CARTESIAN_POINT('',(9.7121209732E-02,9.4260870944E-02,
    0.852964511242));
#253 = CARTESIAN_POINT('',(9.7121209732E-02,9.4260870944E-02,
    0.892293352002));
#254 = CARTESIAN_POINT('',(5.779236897272E-02,9.4260870944E-02,
    0.892293352002));
#255 = CARTESIAN_POINT('',(5.779236897272E-02,9.4260870944E-02,
    0.852964511242));
#256 = CARTESIAN_POINT('',(5.779236897272E-02,9.4260870944E-02,
    0.813635670482));
#257 = CARTESIAN_POINT('',(9.7121209732E-02,9.4260870944E-02,
    0.813635670482));
#258 = CARTESIAN_POINT('',(9.7121209732E-02,9.4260870944E-02,
    0.852964511242));
#259 = DEFINITIONAL_REPRESENTATION('',(#260),#264);
#260 = LINE('',#261,#262);
#261 = CARTESIAN_POINT('',(0.,0.));
#262 = VECTOR('',#263,1.);
#263 = DIRECTION('',(0.,1.));
#264 = ( GEOMETRIC_REPRESENTATION_CONTEXT(2) 
PARAMETRIC_REPRESENTATION_CONTEXT() REPRESENTATION_CONTEXT('2D SPACE',''
  ) );
#265 = ORIENTED_EDGE('',*,*,#266,.T.);
#266 = EDGE_CURVE('',#218,#267,#269,.T.);
#267 = VERTEX_POINT('',#268);
#268 = CARTESIAN_POINT('',(9.7121209732E-02,9.4260870944E-02,
    0.852964511242));
#269 = SEAM_CURVE('',#270,(#275,#282),.PCURVE_S1.);
#270 = B_SPLINE_CURVE_WITH_KNOTS('',3,(#271,#272,#273,#274),
  .UNSPECIFIED.,.F.,.F.,(4,4),(0.,6.283185),.PIECEWISE_BEZIER_KNOTS.);
#271 = CARTESIAN_POINT('',(7.908080212922E-02,0.112301278547,
    0.852964511242));
#272 = CARTESIAN_POINT('',(8.961941483848E-02,0.112301278547,
    0.852964511242));
#273 = CARTESIAN_POINT('',(9.7121209732E-02,0.104799483654,
    0.852964511242));
#274 = CARTESIAN_POINT('',(9.7121209732E-02,9.4260870944E-02,
    0.852964511242));
#275 = PCURVE('',#230,#276);
#276 = DEFINITIONAL_REPRESENTATION('',(#277),#281);
#277 = LINE('',#278,#279);
#278 = CARTESIAN_POINT('',(0.,0.));
#279 = VECTOR('',#280,1.);
#280 = DIRECTION('',(1.,0.));
#281 = ( GEOMETRIC_REPRESENTATION_CONTEXT(2) 
PARAMETRIC_REPRESENTATION_CONTEXT() REPRESENTATION_CONTEXT('2D SPACE',''
  ) );
#282 = PCURVE('',#230,#283);
#283 = DEFINITIONAL_REPRESENTATION('',(#284),#288);
#284 = LINE('',#285,#286);
#285 = CARTESIAN_POINT('',(0.,1.570796));
#286 = VECTOR('',#287,1.);
#287 = DIRECTION('',(1.,0.));
#288 = ( GEOMETRIC_REPRESENTATION_CONTEXT(2) 
PARAMETRIC_REPRESENTATION_CONTEXT() REPRESENTATION_CONTEXT('2D SPACE',''
  ) );
#289 = ORIENTED_EDGE('',*,*,#290,.T.);
#290 = EDGE_CURVE('',#267,#267,#291,.T.);
#291 = SURFACE_CURVE('',#292,(#300),.PCURVE_S1.);
#292 = B_SPLINE_CURVE_WITH_KNOTS('',3,(#293,#294,#295,#296,#297,#298,
    #299),.UNSPECIFIED.,.T.,.F.,(1,3,3,3,1),(-0.785398,0.,0.785398,
    1.570796,2.356194),.UNSPECIFIED.);
#293 = CARTESIAN_POINT('',(9.7121209732E-02,9.4260870944E-02,
    0.852964511242));
#294 = CARTESIAN_POINT('',(9.7121209732E-02,9.4260870944E-02,
    0.892293352002));
#295 = CARTESIAN_POINT('',(5.779236897272E-02,9.4260870944E-02,
    0.892293352002));
#296 = CARTESIAN_POINT('',(5.779236897272E-02,9.4260870944E-02,
    0.852964511242));
#297 = CARTESIAN_POINT('',(5.779236897272E-02,9.4260870944E-02,
    0.813635670482));
#298 = CARTESIAN_POINT('',(9.7121209732E-02,9.4260870944E-02,
    0.813635670482));
#299 = CARTESIAN_POINT('',(9.7121209732E-02,9.4260870944E-02,
    0.852964511242));
#300 = PCURVE('',#230,#301);
#301 = DEFINITIONAL_REPRESENTATION('',(#302),#306);
#302 = LINE('',#303,#304);
#303 = CARTESIAN_POINT('',(6.283185,0.));
#304 = VECTOR('',#305,1.);
#305 = DIRECTION('',(0.,1.));
#306 = ( GEOMETRIC_REPRESENTATION_CONTEXT(2) 
PARAMETRIC_REPRESENTATION_CONTEXT() REPRESENTATION_CONTEXT('2D SPACE',''
  ) );
#307 = ORIENTED_EDGE('',*,*,#266,.F.);
#308 = ( GEOMETRIC_REPRESENTATION_CONTEXT(3) 
GLOBAL_UNCERTAINTY_ASSIGNED_CONTEXT((#312)) GLOBAL_UNIT_ASSIGNED_CONTEXT
((#309,#310,#311)) REPRESENTATION_CONTEXT('Context #1',
  '3D Context with UNIT and UNCERTAINTY') );
#309 = ( LENGTH_UNIT() NAMED_UNIT(*) SI_UNIT(.MILLI.,.METRE.) );
#310 = ( NAMED_UNIT(*) PLANE_ANGLE_UNIT() SI_UNIT($,.RADIAN.) );
#311 = ( NAMED_UNIT(*) SI_UNIT($,.STERADIAN.) SOLID_ANGLE_UNIT() );
#312 = UNCERTAINTY_MEASURE_WITH_UNIT(LENGTH_MEASURE(1.E-07),#309,
  'distance_accuracy_value','confusion accuracy');
#313 = CONTEXT_DEPENDENT_SHAPE_REPRESENTATION(#314,#316);
#314 = ( REPRESENTATION_RELATIONSHIP('','',#210,#10) 
REPRESENTATION_RELATIONSHIP_WITH_TRANSFORMATION(#315) 
SHAPE_REPRESENTATION_RELATIONSHIP() );
#315 = ITEM_DEFINED_TRANSFORMATION('','',#11,#23);
#316 = PRODUCT_DEFINITION_SHAPE('Placement','Placement of an item',#317
  );
#317 = NEXT_ASSEMBLY_USAGE_OCCURRENCE('3','','',#5,#205,$);
#318 = PRODUCT_RELATED_PRODUCT_CATEGORY('part',$,(#207));
#319 = SHAPE_DEFINITION_REPRESENTATION(#320,#326);
#320 = PRODUCT_DEFINITION_SHAPE('','',#321);
#321 = PRODUCT_DEFINITION('design','',#322,#325);
#322 = PRODUCT_DEFINITION_FORMATION('','',#323);
#323 = PRODUCT('Open CASCADE STEP translator 7.9 1.4',
  'Open CASCADE STEP translator 7.9 1.4','',(#324));
#324 = PRODUCT_CONTEXT('',#2,'mechanical');
#325 = PRODUCT_DEFINITION_CONTEXT('part definition',#2,'design');
#326 = MANIFOLD_SURFACE_SHAPE_REPRESENTATION('',(#11,#327),#354);
#327 = SHELL_BASED_SURFACE_MODEL('',(#328));
#328 = OPEN_SHELL('',(#329));
#329 = ADVANCED_FACE('',(#330),#343,.T.);
#330 = FACE_BOUND('',#331,.T.);
#331 = EDGE_LOOP('',(#332));
#332 = ORIENTED_EDGE('',*,*,#333,.T.);
#333 = EDGE_CURVE('',#334,#334,#336,.T.);
#334 = VERTEX_POINT('',#335);
#335 = CARTESIAN_POINT('',(7.7633E-02,0.112301,0.854412));
#336 = SURFACE_CURVE('',#337,(#342),.PCURVE_S1.);
#337 = CIRCLE('',#338,1.447E-03);
#338 = AXIS2_PLACEMENT_3D('',#339,#340,#341);
#339 = CARTESIAN_POINT('',(7.7633E-02,0.112301,0.852965));
#340 = DIRECTION('',(0.,1.,0.));
#341 = DIRECTION('',(0.,-0.,1.));
#342 = PCURVE('',#343,#348);
#343 = PLANE('',#344);
#344 = AXIS2_PLACEMENT_3D('',#345,#346,#347);
#345 = CARTESIAN_POINT('',(7.7633E-02,0.112301,0.852964999957));
#346 = DIRECTION('',(0.,1.,0.));
#347 = DIRECTION('',(0.,-0.,1.));
#348 = DEFINITIONAL_REPRESENTATION('',(#349),#353);
#349 = CIRCLE('',#350,1.447E-03);
#350 = AXIS2_PLACEMENT_2D('',#351,#352);
#351 = CARTESIAN_POINT('',(4.277089793447E-11,0.));
#352 = DIRECTION('',(1.,0.));
#353 = ( GEOMETRIC_REPRESENTATION_CONTEXT(2) 
PARAMETRIC_REPRESENTATION_CONTEXT() REPRESENTATION_CONTEXT('2D SPACE',''
  ) );
#354 = ( GEOMETRIC_REPRESENTATION_CONTEXT(3) 
GLOBAL_UNCERTAINTY_ASSIGNED_CONTEXT((#358)) GLOBAL_UNIT_ASSIGNED_CONTEXT
((#355,#356,#357)) REPRESENTATION_CONTEXT('Context #1',
  '3D Context with UNIT and UNCERTAINTY') );
#355 = ( LENGTH_UNIT() NAMED_UNIT(*) SI_UNIT(.MILLI.,.METRE.) );
#356 = ( NAMED_UNIT(*) PLANE_ANGLE_UNIT() SI_UNIT($,.RADIAN.) );
#357 = ( NAMED_UNIT(*) SI_UNIT($,.STERADIAN.) SOLID_ANGLE_UNIT() );
#358 = UNCERTAINTY_MEASURE_WITH_UNIT(LENGTH_MEASURE(1.E-07),#355,
  'distance_accuracy_value','confusion accuracy');
#359 = CONTEXT_DEPENDENT_SHAPE_REPRESENTATION(#360,#362);
#360 = ( REPRESENTATION_RELATIONSHIP('','',#326,#10) 
REPRESENTATION_RELATIONSHIP_WITH_TRANSFORMATION(#361) 
SHAPE_REPRESENTATION_RELATIONSHIP() );
#361 = ITEM_DEFINED_TRANSFORMATION('','',#11,#27);
#362 = PRODUCT_DEFINITION_SHAPE('Placement','Placement of an item',#363
  );
#363 = NEXT_ASSEMBLY_USAGE_OCCURRENCE('4','','',#5,#321,$);
#364 = PRODUCT_RELATED_PRODUCT_CATEGORY('part',$,(#323));
ENDSEC;
END-ISO-10303-21;
