ISO-10303-21;
HEADER;
FILE_DESCRIPTION(('Open CASCADE Model'),'2;1');
FILE_NAME('Open CASCADE Shape Model','2026-06-29T02:10:41',('Author'),(
    'Open CASCADE'),'Open CASCADE STEP processor 7.9','Open CASCADE 7.9'
  ,'Unknown');
FILE_SCHEMA(('AUTOMOTIVE_DESIGN { 1 0 10303 214 1 1 1 1 }'));
ENDSEC;
DATA;
#1 = APPLICATION_PROTOCOL_DEFINITION('international standard',
  'automotive_design',2000,#2);
#2 = APPLICATION_CONTEXT(
  'core data for automotive mechanical design processes');
#3 = SHAPE_DEFINITION_REPRESENTATION(#4,#10);
#4 = PRODUCT_DEFINITION_SHAPE('','',#5);
#5 = PRODUCT_DEFINITION('design','',#6,#9);
#6 = PRODUCT_DEFINITION_FORMATION('','',#7);
#7 = PRODUCT('Open CASCADE STEP translator 7.9 1',
  'Open CASCADE STEP translator 7.9 1','',(#8));
#8 = PRODUCT_CONTEXT('',#2,'mechanical');
#9 = PRODUCT_DEFINITION_CONTEXT('part definition',#2,'design');
#10 = SHAPE_REPRESENTATION('',(#11,#15,#19),#23);
#11 = AXIS2_PLACEMENT_3D('',#12,#13,#14);
#12 = CARTESIAN_POINT('',(0.,0.,0.));
#13 = DIRECTION('',(0.,0.,1.));
#14 = DIRECTION('',(1.,0.,-0.));
#15 = AXIS2_PLACEMENT_3D('',#16,#17,#18);
#16 = CARTESIAN_POINT('',(0.,0.,0.));
#17 = DIRECTION('',(0.,0.,1.));
#18 = DIRECTION('',(1.,0.,-0.));
#19 = AXIS2_PLACEMENT_3D('',#20,#21,#22);
#20 = CARTESIAN_POINT('',(0.,0.,0.));
#21 = DIRECTION('',(0.,0.,1.));
#22 = DIRECTION('',(1.,0.,-0.));
#23 = ( GEOMETRIC_REPRESENTATION_CONTEXT(3) 
GLOBAL_UNCERTAINTY_ASSIGNED_CONTEXT((#27)) GLOBAL_UNIT_ASSIGNED_CONTEXT(
(#24,#25,#26)) REPRESENTATION_CONTEXT('Context #1',
  '3D Context with UNIT and UNCERTAINTY') );
#24 = ( LENGTH_UNIT() NAMED_UNIT(*) SI_UNIT(.MILLI.,.METRE.) );
#25 = ( NAMED_UNIT(*) PLANE_ANGLE_UNIT() SI_UNIT($,.RADIAN.) );
#26 = ( NAMED_UNIT(*) SI_UNIT($,.STERADIAN.) SOLID_ANGLE_UNIT() );
#27 = UNCERTAINTY_MEASURE_WITH_UNIT(LENGTH_MEASURE(1.E-07),#24,
  'distance_accuracy_value','confusion accuracy');
#28 = PRODUCT_RELATED_PRODUCT_CATEGORY('part',$,(#7));
#29 = SHAPE_DEFINITION_REPRESENTATION(#30,#36);
#30 = PRODUCT_DEFINITION_SHAPE('','',#31);
#31 = PRODUCT_DEFINITION('design','',#32,#35);
#32 = PRODUCT_DEFINITION_FORMATION('','',#33);
#33 = PRODUCT('Open CASCADE STEP translator 7.9 1.1',
  'Open CASCADE STEP translator 7.9 1.1','',(#34));
#34 = PRODUCT_CONTEXT('',#2,'mechanical');
#35 = PRODUCT_DEFINITION_CONTEXT('part definition',#2,'design');
#36 = MANIFOLD_SURFACE_SHAPE_REPRESENTATION('',(#11,#37),#100);
#37 = SHELL_BASED_SURFACE_MODEL('',(#38));
#38 = OPEN_SHELL('',(#39));
#39 = ADVANCED_FACE('',(#40),#53,.T.);
#40 = FACE_BOUND('',#41,.T.);
#41 = EDGE_LOOP('',(#42,#81,#82));
#42 = ORIENTED_EDGE('',*,*,#43,.F.);
#43 = EDGE_CURVE('',#44,#46,#48,.T.);
#44 = VERTEX_POINT('',#45);
#45 = CARTESIAN_POINT('',(0.42857142898,0.5,0.100000002286));
#46 = VERTEX_POINT('',#47);
#47 = CARTESIAN_POINT('',(0.442857143184,0.5,8.571428808163E-02));
#48 = SEAM_CURVE('',#49,(#52,#74),.PCURVE_S1.);
#49 = B_SPLINE_CURVE_WITH_KNOTS('',1,(#50,#51),.UNSPECIFIED.,.F.,.F.,(2,
    2),(-2.0203E-02,0.),.PIECEWISE_BEZIER_KNOTS.);
#50 = CARTESIAN_POINT('',(0.42857142898,0.5,0.100000002286));
#51 = CARTESIAN_POINT('',(0.442857143184,0.5,8.571428808163E-02));
#52 = PCURVE('',#53,#68);
#53 = ( BOUNDED_SURFACE() B_SPLINE_SURFACE(2,1,(
    (#54,#55)
    ,(#56,#57)
    ,(#58,#59)
    ,(#60,#61)
    ,(#62,#63)
    ,(#64,#65)
,(#66,#67
    )),.UNSPECIFIED.,.T.,.F.,.F.) B_SPLINE_SURFACE_WITH_KNOTS((1,2,2,2,2
    ,1),(2,2),(-2.094395,0.,2.094395,4.18879,6.283185,8.37758),(
-2.0203E-02,0.),.UNSPECIFIED.) GEOMETRIC_REPRESENTATION_ITEM() 
RATIONAL_B_SPLINE_SURFACE((
    (1.,1.)
    ,(0.5,0.5)
    ,(1.,1.)
    ,(0.5,0.5)
    ,(1.,1.)
    ,(0.5,0.5)
,(1.,1.))) REPRESENTATION_ITEM('') SURFACE() );
#54 = CARTESIAN_POINT('',(0.42857142898,0.5,0.100000002286));
#55 = CARTESIAN_POINT('',(0.442857143184,0.5,8.571428808163E-02));
#56 = CARTESIAN_POINT('',(0.42857142898,0.5,0.100000002286));
#57 = CARTESIAN_POINT('',(0.442857143184,0.475256417176,
    8.571428808163E-02));
#58 = CARTESIAN_POINT('',(0.42857142898,0.5,0.100000002286));
#59 = CARTESIAN_POINT('',(0.421428571878,0.487628208588,
    8.571428808163E-02));
#60 = CARTESIAN_POINT('',(0.42857142898,0.5,0.100000002286));
#61 = CARTESIAN_POINT('',(0.400000000572,0.5,8.571428808163E-02));
#62 = CARTESIAN_POINT('',(0.42857142898,0.5,0.100000002286));
#63 = CARTESIAN_POINT('',(0.421428571878,0.512371791412,
    8.571428808163E-02));
#64 = CARTESIAN_POINT('',(0.42857142898,0.5,0.100000002286));
#65 = CARTESIAN_POINT('',(0.442857143184,0.524743582824,
    8.571428808163E-02));
#66 = CARTESIAN_POINT('',(0.42857142898,0.5,0.100000002286));
#67 = CARTESIAN_POINT('',(0.442857143184,0.5,8.571428808163E-02));
#68 = DEFINITIONAL_REPRESENTATION('',(#69),#73);
#69 = LINE('',#70,#71);
#70 = CARTESIAN_POINT('',(0.,0.));
#71 = VECTOR('',#72,1.);
#72 = DIRECTION('',(0.,1.));
#73 = ( GEOMETRIC_REPRESENTATION_CONTEXT(2) 
PARAMETRIC_REPRESENTATION_CONTEXT() REPRESENTATION_CONTEXT('2D SPACE',''
  ) );
#74 = PCURVE('',#53,#75);
#75 = DEFINITIONAL_REPRESENTATION('',(#76),#80);
#76 = LINE('',#77,#78);
#77 = CARTESIAN_POINT('',(6.283185,0.));
#78 = VECTOR('',#79,1.);
#79 = DIRECTION('',(0.,1.));
#80 = ( GEOMETRIC_REPRESENTATION_CONTEXT(2) 
PARAMETRIC_REPRESENTATION_CONTEXT() REPRESENTATION_CONTEXT('2D SPACE',''
  ) );
#81 = ORIENTED_EDGE('',*,*,#43,.T.);
#82 = ORIENTED_EDGE('',*,*,#83,.F.);
#83 = EDGE_CURVE('',#46,#46,#84,.T.);
#84 = SURFACE_CURVE('',#85,(#93),.PCURVE_S1.);
#85 = ( BOUNDED_CURVE() B_SPLINE_CURVE(2,(#86,#87,#88,#89,#90,#91,#92),
.UNSPECIFIED.,.T.,.F.) B_SPLINE_CURVE_WITH_KNOTS((1,2,2,2,2,1),(
-2.094395,0.,2.094395,4.18879,6.283185,8.37758),.UNSPECIFIED.) CURVE() 
GEOMETRIC_REPRESENTATION_ITEM() RATIONAL_B_SPLINE_CURVE((1.,0.5,1.,0.5,
1.,0.5,1.)) REPRESENTATION_ITEM('') );
#86 = CARTESIAN_POINT('',(0.442857143184,0.5,8.571428808163E-02));
#87 = CARTESIAN_POINT('',(0.442857143184,0.475256417176,
    8.571428808163E-02));
#88 = CARTESIAN_POINT('',(0.421428571878,0.487628208588,
    8.571428808163E-02));
#89 = CARTESIAN_POINT('',(0.400000000572,0.5,8.571428808163E-02));
#90 = CARTESIAN_POINT('',(0.421428571878,0.512371791412,
    8.571428808163E-02));
#91 = CARTESIAN_POINT('',(0.442857143184,0.524743582824,
    8.571428808163E-02));
#92 = CARTESIAN_POINT('',(0.442857143184,0.5,8.571428808163E-02));
#93 = PCURVE('',#53,#94);
#94 = DEFINITIONAL_REPRESENTATION('',(#95),#99);
#95 = LINE('',#96,#97);
#96 = CARTESIAN_POINT('',(0.,0.));
#97 = VECTOR('',#98,1.);
#98 = DIRECTION('',(1.,0.));
#99 = ( GEOMETRIC_REPRESENTATION_CONTEXT(2) 
PARAMETRIC_REPRESENTATION_CONTEXT() REPRESENTATION_CONTEXT('2D SPACE',''
  ) );
#100 = ( GEOMETRIC_REPRESENTATION_CONTEXT(3) 
GLOBAL_UNCERTAINTY_ASSIGNED_CONTEXT((#104)) GLOBAL_UNIT_ASSIGNED_CONTEXT
((#101,#102,#103)) REPRESENTATION_CONTEXT('Context #1',
  '3D Context with UNIT and UNCERTAINTY') );
#101 = ( LENGTH_UNIT() NAMED_UNIT(*) SI_UNIT(.MILLI.,.METRE.) );
#102 = ( NAMED_UNIT(*) PLANE_ANGLE_UNIT() SI_UNIT($,.RADIAN.) );
#103 = ( NAMED_UNIT(*) SI_UNIT($,.STERADIAN.) SOLID_ANGLE_UNIT() );
#104 = UNCERTAINTY_MEASURE_WITH_UNIT(LENGTH_MEASURE(1.E-07),#101,
  'distance_accuracy_value','confusion accuracy');
#105 = CONTEXT_DEPENDENT_SHAPE_REPRESENTATION(#106,#108);
#106 = ( REPRESENTATION_RELATIONSHIP('','',#36,#10) 
REPRESENTATION_RELATIONSHIP_WITH_TRANSFORMATION(#107) 
SHAPE_REPRESENTATION_RELATIONSHIP() );
#107 = ITEM_DEFINED_TRANSFORMATION('','',#11,#15);
#108 = PRODUCT_DEFINITION_SHAPE('Placement','Placement of an item',#109
  );
#109 = NEXT_ASSEMBLY_USAGE_OCCURRENCE('1','','',#5,#31,$);
#110 = PRODUCT_RELATED_PRODUCT_CATEGORY('part',$,(#33));
#111 = SHAPE_DEFINITION_REPRESENTATION(#112,#118);
#112 = PRODUCT_DEFINITION_SHAPE('','',#113);
#113 = PRODUCT_DEFINITION('design','',#114,#117);
#114 = PRODUCT_DEFINITION_FORMATION('','',#115);
#115 = PRODUCT('Open CASCADE STEP translator 7.9 1.2',
  'Open CASCADE STEP translator 7.9 1.2','',(#116));
#116 = PRODUCT_CONTEXT('',#2,'mechanical');
#117 = PRODUCT_DEFINITION_CONTEXT('part definition',#2,'design');
#118 = MANIFOLD_SURFACE_SHAPE_REPRESENTATION('',(#11,#119),#150);
#119 = SHELL_BASED_SURFACE_MODEL('',(#120));
#120 = OPEN_SHELL('',(#121));
#121 = ADVANCED_FACE('',(#122),#135,.T.);
#122 = FACE_BOUND('',#123,.T.);
#123 = EDGE_LOOP('',(#124));
#124 = ORIENTED_EDGE('',*,*,#125,.F.);
#125 = EDGE_CURVE('',#126,#126,#128,.T.);
#126 = VERTEX_POINT('',#127);
#127 = CARTESIAN_POINT('',(0.442857,0.5,8.5714E-02));
#128 = SURFACE_CURVE('',#129,(#134),.PCURVE_S1.);
#129 = CIRCLE('',#130,1.4286E-02);
#130 = AXIS2_PLACEMENT_3D('',#131,#132,#133);
#131 = CARTESIAN_POINT('',(0.428571,0.5,8.5714E-02));
#132 = DIRECTION('',(0.,0.,1.));
#133 = DIRECTION('',(1.,0.,-0.));
#134 = PCURVE('',#135,#140);
#135 = PLANE('',#136);
#136 = AXIS2_PLACEMENT_3D('',#137,#138,#139);
#137 = CARTESIAN_POINT('',(0.428570999578,0.5,8.5714E-02));
#138 = DIRECTION('',(-0.,-0.,-1.));
#139 = DIRECTION('',(-1.,0.,0.));
#140 = DEFINITIONAL_REPRESENTATION('',(#141),#149);
#141 = ( BOUNDED_CURVE() B_SPLINE_CURVE(2,(#142,#143,#144,#145,#146,#147
,#148),.UNSPECIFIED.,.T.,.F.) B_SPLINE_CURVE_WITH_KNOTS((1,2,2,2,2,1),(
    -2.094395102393,0.,2.094395102393,4.188790204786,6.28318530718,
8.377580409573),.UNSPECIFIED.) CURVE() GEOMETRIC_REPRESENTATION_ITEM() 
RATIONAL_B_SPLINE_CURVE((1.,0.5,1.,0.5,1.,0.5,1.)) REPRESENTATION_ITEM(
  '') );
#142 = CARTESIAN_POINT('',(-1.428600042227E-02,-1.110223024625E-16));
#143 = CARTESIAN_POINT('',(-1.428600042227E-02,2.474407783693E-02));
#144 = CARTESIAN_POINT('',(7.142999577729E-03,1.237203891846E-02));
#145 = CARTESIAN_POINT('',(2.857199957773E-02,-1.07523241628E-16));
#146 = CARTESIAN_POINT('',(7.142999577729E-03,-1.237203891846E-02));
#147 = CARTESIAN_POINT('',(-1.428600042227E-02,-2.474407783693E-02));
#148 = CARTESIAN_POINT('',(-1.428600042227E-02,-1.110223024625E-16));
#149 = ( GEOMETRIC_REPRESENTATION_CONTEXT(2) 
PARAMETRIC_REPRESENTATION_CONTEXT() REPRESENTATION_CONTEXT('2D SPACE',''
  ) );
#150 = ( GEOMETRIC_REPRESENTATION_CONTEXT(3) 
GLOBAL_UNCERTAINTY_ASSIGNED_CONTEXT((#154)) GLOBAL_UNIT_ASSIGNED_CONTEXT
((#151,#152,#153)) REPRESENTATION_CONTEXT('Context #1',
  '3D Context with UNIT and UNCERTAINTY') );
#151 = ( LENGTH_UNIT() NAMED_UNIT(*) SI_UNIT(.MILLI.,.METRE.) );
#152 = ( NAMED_UNIT(*) PLANE_ANGLE_UNIT() SI_UNIT($,.RADIAN.) );
#153 = ( NAMED_UNIT(*) SI_UNIT($,.STERADIAN.) SOLID_ANGLE_UNIT() );
#154 = UNCERTAINTY_MEASURE_WITH_UNIT(LENGTH_MEASURE(1.E-07),#151,
  'distance_accuracy_value','confusion accuracy');
#155 = CONTEXT_DEPENDENT_SHAPE_REPRESENTATION(#156,#158);
#156 = ( REPRESENTATION_RELATIONSHIP('','',#118,#10) 
REPRESENTATION_RELATIONSHIP_WITH_TRANSFORMATION(#157) 
SHAPE_REPRESENTATION_RELATIONSHIP() );
#157 = ITEM_DEFINED_TRANSFORMATION('','',#11,#19);
#158 = PRODUCT_DEFINITION_SHAPE('Placement','Placement of an item',#159
  );
#159 = NEXT_ASSEMBLY_USAGE_OCCURRENCE('2','','',#5,#113,$);
#160 = PRODUCT_RELATED_PRODUCT_CATEGORY('part',$,(#115));
ENDSEC;
END-ISO-10303-21;
