solid 
 facet normal  6.965260e-01 -1.723455e-01  6.965260e-01
   outer loop
     vertex  4.348901e-01  4.966691e-01  9.285715e-02
     vertex  4.428571e-01  5.000000e-01  8.571429e-02
     vertex  4.285714e-01  5.000000e-01  1.000000e-01
   endloop
 endfacet
 facet normal  6.834025e-01 -7.805760e-02  7.258567e-01
   outer loop
     vertex  4.348901e-01  4.966691e-01  9.285715e-02
     vertex  4.424892e-01  4.967786e-01  8.571429e-02
     vertex  4.428571e-01  5.000000e-01  8.571429e-02
   endloop
 endfacet
 facet normal  6.672894e-01 -2.363961e-01  7.062873e-01
   outer loop
     vertex  4.348901e-01  4.966691e-01  9.285715e-02
     vertex  4.414132e-01  4.937414e-01  8.571429e-02
     vertex  4.424892e-01  4.967786e-01  8.571429e-02
   endloop
 endfacet
 facet normal  6.008502e-01 -3.787258e-01  7.039501e-01
   outer loop
     vertex  4.348901e-01  4.966691e-01  9.285715e-02
     vertex  4.397570e-01  4.911137e-01  8.571429e-02
     vertex  4.414132e-01  4.937414e-01  8.571429e-02
   endloop
 endfacet
 facet normal  4.949215e-01 -4.944897e-01  7.145157e-01
   outer loop
     vertex  4.321429e-01  4.938141e-01  9.285715e-02
     vertex  4.374675e-01  4.888222e-01  8.571429e-02
     vertex  4.397570e-01  4.911137e-01  8.571429e-02
   endloop
 endfacet
 facet normal  3.759948e-01 -6.042068e-01  7.025397e-01
   outer loop
     vertex  4.321429e-01  4.938141e-01  9.285715e-02
     vertex  4.346703e-01  4.870816e-01  8.571429e-02
     vertex  4.374675e-01  4.888222e-01  8.571429e-02
   endloop
 endfacet
 facet normal  2.261561e-01 -6.676367e-01  7.093058e-01
   outer loop
     vertex  4.321429e-01  4.938141e-01  9.285715e-02
     vertex  4.315792e-01  4.860345e-01  8.571429e-02
     vertex  4.346703e-01  4.870816e-01  8.571429e-02
   endloop
 endfacet
 facet normal  5.018779e-01 -4.829323e-01  7.175618e-01
   outer loop
     vertex  4.321429e-01  4.938141e-01  9.285715e-02
     vertex  4.397570e-01  4.911137e-01  8.571429e-02
     vertex  4.348901e-01  4.966691e-01  9.285715e-02
   endloop
 endfacet
 facet normal  7.181290e-02 -7.043066e-01  7.062542e-01
   outer loop
     vertex  4.282967e-01  4.928624e-01  9.285715e-02
     vertex  4.284441e-01  4.857149e-01  8.571429e-02
     vertex  4.315792e-01  4.860345e-01  8.571429e-02
   endloop
 endfacet
 facet normal -8.017523e-02 -7.054247e-01  7.042357e-01
   outer loop
     vertex  4.282967e-01  4.928624e-01  9.285715e-02
     vertex  4.254897e-01  4.860506e-01  8.571429e-02
     vertex  4.284441e-01  4.857149e-01  8.571429e-02
   endloop
 endfacet
 facet normal  1.666204e-01 -6.733882e-01  7.202680e-01
   outer loop
     vertex  4.282967e-01  4.928624e-01  9.285715e-02
     vertex  4.315792e-01  4.860345e-01  8.571429e-02
     vertex  4.321429e-01  4.938141e-01  9.285715e-02
   endloop
 endfacet
 facet normal -2.169627e-01 -6.683290e-01  7.115220e-01
   outer loop
     vertex  4.250000e-01  4.938141e-01  9.285715e-02
     vertex  4.228721e-01  4.869004e-01  8.571429e-02
     vertex  4.254897e-01  4.860506e-01  8.571429e-02
   endloop
 endfacet
 facet normal -3.399857e-01 -6.230949e-01  7.043880e-01
   outer loop
     vertex  4.250000e-01  4.938141e-01  9.285715e-02
     vertex  4.206400e-01  4.881184e-01  8.571429e-02
     vertex  4.228721e-01  4.869004e-01  8.571429e-02
   endloop
 endfacet
 facet normal -4.453546e-01 -5.475161e-01  7.084387e-01
   outer loop
     vertex  4.250000e-01  4.938141e-01  9.285715e-02
     vertex  4.185539e-01  4.898152e-01  8.571429e-02
     vertex  4.206400e-01  4.881184e-01  8.571429e-02
   endloop
 endfacet
 facet normal -1.936579e-01 -6.708506e-01  7.158604e-01
   outer loop
     vertex  4.250000e-01  4.938141e-01  9.285715e-02
     vertex  4.254897e-01  4.860506e-01  8.571429e-02
     vertex  4.282967e-01  4.928624e-01  9.285715e-02
   endloop
 endfacet
 facet normal -5.453163e-01 -4.513177e-01  7.063586e-01
   outer loop
     vertex  4.225275e-01  4.961933e-01  9.285715e-02
     vertex  4.166933e-01  4.920633e-01  8.571429e-02
     vertex  4.185539e-01  4.898152e-01  8.571429e-02
   endloop
 endfacet
 facet normal -6.298805e-01 -3.279119e-01  7.040769e-01
   outer loop
     vertex  4.225275e-01  4.961933e-01  9.285715e-02
     vertex  4.152573e-01  4.948217e-01  8.571429e-02
     vertex  4.166933e-01  4.920633e-01  8.571429e-02
   endloop
 endfacet
 facet normal -4.831961e-01 -5.021521e-01  7.171924e-01
   outer loop
     vertex  4.225275e-01  4.961933e-01  9.285715e-02
     vertex  4.185539e-01  4.898152e-01  8.571429e-02
     vertex  4.250000e-01  4.938141e-01  9.285715e-02
   endloop
 endfacet
 facet normal -6.770401e-01 -1.781043e-01  7.140697e-01
   outer loop
     vertex  4.214286e-01  5.000000e-01  9.285715e-02
     vertex  4.144326e-01  4.979564e-01  8.571429e-02
     vertex  4.152573e-01  4.948217e-01  8.571429e-02
   endloop
 endfacet
 facet normal -7.114221e-01 -1.990290e-02  7.024830e-01
   outer loop
     vertex  4.214286e-01  5.000000e-01  9.285715e-02
     vertex  4.143405e-01  5.012499e-01  8.571429e-02
     vertex  4.144326e-01  4.979564e-01  8.571429e-02
   endloop
 endfacet
 facet normal -6.902159e-01  1.413689e-01  7.096597e-01
   outer loop
     vertex  4.214286e-01  5.000000e-01  9.285715e-02
     vertex  4.149950e-01  5.044456e-01  8.571429e-02
     vertex  4.143405e-01  5.012499e-01  8.571429e-02
   endloop
 endfacet
 facet normal -6.688668e-01 -1.930852e-01  7.178686e-01
   outer loop
     vertex  4.214286e-01  5.000000e-01  9.285715e-02
     vertex  4.152573e-01  4.948217e-01  8.571429e-02
     vertex  4.225275e-01  4.961933e-01  9.285715e-02
   endloop
 endfacet
 facet normal -6.446433e-01  2.931920e-01  7.060265e-01
   outer loop
     vertex  4.225275e-01  5.038067e-01  9.285715e-02
     vertex  4.162983e-01  5.073111e-01  8.571429e-02
     vertex  4.149950e-01  5.044456e-01  8.571429e-02
   endloop
 endfacet
 facet normal -5.687758e-01  4.246785e-01  7.043737e-01
   outer loop
     vertex  4.225275e-01  5.038067e-01  9.285715e-02
     vertex  4.180746e-01  5.096901e-01  8.571429e-02
     vertex  4.162983e-01  5.073111e-01  8.571429e-02
   endloop
 endfacet
 facet normal -6.665906e-01  1.924281e-01  7.201586e-01
   outer loop
     vertex  4.225275e-01  5.038067e-01  9.285715e-02
     vertex  4.149950e-01  5.044456e-01  8.571429e-02
     vertex  4.214286e-01  5.000000e-01  9.285715e-02
   endloop
 endfacet
 facet normal -4.682839e-01  5.242724e-01  7.112304e-01
   outer loop
     vertex  4.250000e-01  5.061859e-01  9.285715e-02
     vertex  4.201232e-01  5.115200e-01  8.571429e-02
     vertex  4.180746e-01  5.096901e-01  8.571429e-02
   endloop
 endfacet
 facet normal -3.672003e-01  6.074883e-01  7.043592e-01
   outer loop
     vertex  4.250000e-01  5.061859e-01  9.285715e-02
     vertex  4.222983e-01  5.128347e-01  8.571429e-02
     vertex  4.201232e-01  5.115200e-01  8.571429e-02
   endloop
 endfacet
 facet normal -2.486628e-01  6.602774e-01  7.086611e-01
   outer loop
     vertex  4.250000e-01  5.061859e-01  9.285715e-02
     vertex  4.248198e-01  5.137843e-01  8.571429e-02
     vertex  4.222983e-01  5.128347e-01  8.571429e-02
   endloop
 endfacet
 facet normal -4.840132e-01  5.030013e-01  7.160453e-01
   outer loop
     vertex  4.250000e-01  5.061859e-01  9.285715e-02
     vertex  4.180746e-01  5.096901e-01  8.571429e-02
     vertex  4.225275e-01  5.038067e-01  9.285715e-02
   endloop
 endfacet
 facet normal -1.150806e-01  6.986539e-01  7.061439e-01
   outer loop
     vertex  4.282967e-01  5.071376e-01  9.285715e-02
     vertex  4.277038e-01  5.142593e-01  8.571429e-02
     vertex  4.248198e-01  5.137843e-01  8.571429e-02
   endloop
 endfacet
 facet normal  3.436098e-02  7.091577e-01  7.042121e-01
   outer loop
     vertex  4.282967e-01  5.071376e-01  9.285715e-02
     vertex  4.308136e-01  5.141087e-01  8.571429e-02
     vertex  4.277038e-01  5.142593e-01  8.571429e-02
   endloop
 endfacet
 facet normal -1.932894e-01  6.695743e-01  7.171537e-01
   outer loop
     vertex  4.282967e-01  5.071376e-01  9.285715e-02
     vertex  4.248198e-01  5.137843e-01  8.571429e-02
     vertex  4.250000e-01  5.061859e-01  9.285715e-02
   endloop
 endfacet
 facet normal  1.877743e-01  6.748864e-01  7.136310e-01
   outer loop
     vertex  4.321429e-01  5.061859e-01  9.285715e-02
     vertex  4.339383e-01  5.132393e-01  8.571429e-02
     vertex  4.308136e-01  5.141087e-01  8.571429e-02
   endloop
 endfacet
 facet normal  3.416757e-01  6.243730e-01  7.024358e-01
   outer loop
     vertex  4.321429e-01  5.061859e-01  9.285715e-02
     vertex  4.368288e-01  5.116575e-01  8.571429e-02
     vertex  4.339383e-01  5.132393e-01  8.571429e-02
   endloop
 endfacet
 facet normal  4.699402e-01  5.244288e-01  7.100216e-01
   outer loop
     vertex  4.321429e-01  5.061859e-01  9.285715e-02
     vertex  4.392569e-01  5.094817e-01  8.571429e-02
     vertex  4.368288e-01  5.116575e-01  8.571429e-02
   endloop
 endfacet
 facet normal  1.671447e-01  6.755075e-01  7.181590e-01
   outer loop
     vertex  4.321429e-01  5.061859e-01  9.285715e-02
     vertex  4.308136e-01  5.141087e-01  8.571429e-02
     vertex  4.282967e-01  5.071376e-01  9.285715e-02
   endloop
 endfacet
 facet normal  6.965260e-01  1.723455e-01  6.965260e-01
   outer loop
     vertex  4.348901e-01  5.033309e-01  9.285715e-02
     vertex  4.285714e-01  5.000000e-01  1.000000e-01
     vertex  4.428571e-01  5.000000e-01  8.571429e-02
   endloop
 endfacet
 facet normal  5.784045e-01  4.090043e-01  7.058071e-01
   outer loop
     vertex  4.348901e-01  5.033309e-01  9.285715e-02
     vertex  4.410725e-01  5.069141e-01  8.571429e-02
     vertex  4.392569e-01  5.094817e-01  8.571429e-02
   endloop
 endfacet
 facet normal  6.533144e-01  2.771884e-01  7.045190e-01
   outer loop
     vertex  4.348901e-01  5.033309e-01  9.285715e-02
     vertex  4.422304e-01  5.041851e-01  8.571429e-02
     vertex  4.410725e-01  5.069141e-01  8.571429e-02
   endloop
 endfacet
 facet normal  6.801065e-01  1.523099e-01  7.171170e-01
   outer loop
     vertex  4.348901e-01  5.033309e-01  9.285715e-02
     vertex  4.427107e-01  5.020403e-01  8.571429e-02
     vertex  4.422304e-01  5.041851e-01  8.571429e-02
   endloop
 endfacet
 facet normal  6.779564e-01  4.866286e-02  7.334896e-01
   outer loop
     vertex  4.348901e-01  5.033309e-01  9.285715e-02
     vertex  4.428571e-01  5.000000e-01  8.571429e-02
     vertex  4.427107e-01  5.020403e-01  8.571429e-02
   endloop
 endfacet
 facet normal  5.000371e-01  4.811609e-01  7.200327e-01
   outer loop
     vertex  4.348901e-01  5.033309e-01  9.285715e-02
     vertex  4.392569e-01  5.094817e-01  8.571429e-02
     vertex  4.321429e-01  5.061859e-01  9.285715e-02
   endloop
 endfacet
 facet normal -6.657054e-01  2.468907e-01 -7.041884e-01
   outer loop
     vertex  4.317308e-01  4.983346e-01  9.642857e-02
     vertex  4.348901e-01  4.966691e-01  9.285715e-02
     vertex  4.285714e-01  5.000000e-01  1.000000e-01
   endloop
 endfacet
 facet normal  5.770643e-01 -4.144287e-01  7.037369e-01
   outer loop
     vertex  4.311589e-01  4.975383e-01  9.642857e-02
     vertex  4.348901e-01  4.966691e-01  9.285715e-02
     vertex  4.317308e-01  4.983346e-01  9.642857e-02
   endloop
 endfacet
 facet normal  5.298843e-01 -5.098814e-01  6.776751e-01
   outer loop
     vertex  4.311589e-01  4.975383e-01  9.642857e-02
     vertex  4.321429e-01  4.938141e-01  9.285715e-02
     vertex  4.348901e-01  4.966691e-01  9.285715e-02
   endloop
 endfacet
 facet normal  4.396578e-01 -5.584404e-01  7.034525e-01
   outer loop
     vertex  4.303571e-01  4.969071e-01  9.642857e-02
     vertex  4.321429e-01  4.938141e-01  9.285715e-02
     vertex  4.311589e-01  4.975383e-01  9.642857e-02
   endloop
 endfacet
 facet normal  1.766281e-01 -7.138340e-01  6.776751e-01
   outer loop
     vertex  4.294096e-01  4.965283e-01  9.642857e-02
     vertex  4.282967e-01  4.928624e-01  9.285715e-02
     vertex  4.321429e-01  4.938141e-01  9.285715e-02
   endloop
 endfacet
 facet normal  2.637947e-01 -6.599750e-01  7.034525e-01
   outer loop
     vertex  4.294096e-01  4.965283e-01  9.642857e-02
     vertex  4.321429e-01  4.938141e-01  9.285715e-02
     vertex  4.303571e-01  4.969071e-01  9.642857e-02
   endloop
 endfacet
 facet normal  7.037369e-02 -7.069667e-01  7.037369e-01
   outer loop
     vertex  4.284341e-01  4.964312e-01  9.642857e-02
     vertex  4.282967e-01  4.928624e-01  9.285715e-02
     vertex  4.294096e-01  4.965283e-01  9.642857e-02
   endloop
 endfacet
 facet normal -1.455599e-01 -6.970297e-01  7.021124e-01
   outer loop
     vertex  4.268349e-01  4.955660e-01  9.523810e-02
     vertex  4.282967e-01  4.928624e-01  9.285715e-02
     vertex  4.284341e-01  4.964312e-01  9.642857e-02
   endloop
 endfacet
 facet normal -2.040417e-01 -7.068211e-01  6.773263e-01
   outer loop
     vertex  4.268349e-01  4.955660e-01  9.523810e-02
     vertex  4.250000e-01  4.938141e-01  9.285715e-02
     vertex  4.282967e-01  4.928624e-01  9.285715e-02
   endloop
 endfacet
 facet normal -2.040417e-01  7.068211e-01  6.773263e-01
   outer loop
     vertex  4.268349e-01  5.044340e-01  9.523810e-02
     vertex  4.282967e-01  5.071376e-01  9.285715e-02
     vertex  4.250000e-01  5.061859e-01  9.285715e-02
   endloop
 endfacet
 facet normal -1.455599e-01  6.970297e-01  7.021124e-01
   outer loop
     vertex  4.284341e-01  5.035688e-01  9.642857e-02
     vertex  4.282967e-01  5.071376e-01  9.285715e-02
     vertex  4.268349e-01  5.044340e-01  9.523810e-02
   endloop
 endfacet
 facet normal  7.037369e-02  7.069667e-01  7.037369e-01
   outer loop
     vertex  4.294096e-01  5.034717e-01  9.642857e-02
     vertex  4.282967e-01  5.071376e-01  9.285715e-02
     vertex  4.284341e-01  5.035688e-01  9.642857e-02
   endloop
 endfacet
 facet normal  1.766281e-01  7.138340e-01  6.776751e-01
   outer loop
     vertex  4.294096e-01  5.034717e-01  9.642857e-02
     vertex  4.321429e-01  5.061859e-01  9.285715e-02
     vertex  4.282967e-01  5.071376e-01  9.285715e-02
   endloop
 endfacet
 facet normal  2.637947e-01  6.599750e-01  7.034525e-01
   outer loop
     vertex  4.303571e-01  5.030929e-01  9.642857e-02
     vertex  4.321429e-01  5.061859e-01  9.285715e-02
     vertex  4.294096e-01  5.034717e-01  9.642857e-02
   endloop
 endfacet
 facet normal  4.396578e-01  5.584404e-01  7.034525e-01
   outer loop
     vertex  4.311589e-01  5.024617e-01  9.642857e-02
     vertex  4.321429e-01  5.061859e-01  9.285715e-02
     vertex  4.303571e-01  5.030929e-01  9.642857e-02
   endloop
 endfacet
 facet normal  5.298843e-01  5.098814e-01  6.776751e-01
   outer loop
     vertex  4.311589e-01  5.024617e-01  9.642857e-02
     vertex  4.348901e-01  5.033309e-01  9.285715e-02
     vertex  4.321429e-01  5.061859e-01  9.285715e-02
   endloop
 endfacet
 facet normal  5.770643e-01  4.144287e-01  7.037369e-01
   outer loop
     vertex  4.317308e-01  5.016654e-01  9.642857e-02
     vertex  4.348901e-01  5.033309e-01  9.285715e-02
     vertex  4.311589e-01  5.024617e-01  9.642857e-02
   endloop
 endfacet
 facet normal -7.008900e-01 -1.605419e-01 -6.949673e-01
   outer loop
     vertex  4.317308e-01  5.016654e-01  9.642857e-02
     vertex  4.285714e-01  5.000000e-01  1.000000e-01
     vertex  4.348901e-01  5.033309e-01  9.285715e-02
   endloop
 endfacet
 facet normal  5.798005e-01 -4.163938e-01  7.003196e-01
   outer loop
     vertex  4.300240e-01  4.989613e-01  9.821429e-02
     vertex  4.311589e-01  4.975383e-01  9.642857e-02
     vertex  4.317308e-01  4.983346e-01  9.642857e-02
   endloop
 endfacet
 facet normal  6.024261e-01 -3.717978e-01  7.062926e-01
   outer loop
     vertex  4.300240e-01  4.989613e-01  9.821429e-02
     vertex  4.317308e-01  4.983346e-01  9.642857e-02
     vertex  4.285714e-01  5.000000e-01  1.000000e-01
   endloop
 endfacet
 facet normal  5.457329e-01 -4.509955e-01  7.062426e-01
   outer loop
     vertex  4.298652e-01  4.987691e-01  9.821429e-02
     vertex  4.300240e-01  4.989613e-01  9.821429e-02
     vertex  4.285714e-01  5.000000e-01  1.000000e-01
   endloop
 endfacet
 facet normal  5.457329e-01 -4.509955e-01  7.062426e-01
   outer loop
     vertex  4.298652e-01  4.987691e-01  9.821429e-02
     vertex  4.311589e-01  4.975383e-01  9.642857e-02
     vertex  4.300240e-01  4.989613e-01  9.821429e-02
   endloop
 endfacet
 facet normal  4.396578e-01 -5.584404e-01  7.034525e-01
   outer loop
     vertex  4.298652e-01  4.987691e-01  9.821429e-02
     vertex  4.303571e-01  4.969071e-01  9.642857e-02
     vertex  4.311589e-01  4.975383e-01  9.642857e-02
   endloop
 endfacet
 facet normal -1.644227e-01 -6.796812e-01  7.148416e-01
   outer loop
     vertex  4.273810e-01  4.979380e-01  9.761905e-02
     vertex  4.268349e-01  4.955660e-01  9.523810e-02
     vertex  4.284341e-01  4.964312e-01  9.642857e-02
   endloop
 endfacet
 facet normal -5.204539e-01 -5.398457e-01  6.615847e-01
   outer loop
     vertex  4.249841e-01  4.983036e-01  9.603175e-02
     vertex  4.273810e-01  4.979380e-01  9.761905e-02
     vertex  4.273496e-01  4.986977e-01  9.821429e-02
   endloop
 endfacet
 facet normal -4.354526e-01 -5.314255e-01  7.266140e-01
   outer loop
     vertex  4.238318e-01  4.963991e-01  9.404762e-02
     vertex  4.250000e-01  4.938141e-01  9.285715e-02
     vertex  4.268349e-01  4.955660e-01  9.523810e-02
   endloop
 endfacet
 facet normal -5.439950e-01 -4.247592e-01  7.236360e-01
   outer loop
     vertex  4.238318e-01  4.963991e-01  9.404762e-02
     vertex  4.273810e-01  4.979380e-01  9.761905e-02
     vertex  4.249841e-01  4.983036e-01  9.603175e-02
   endloop
 endfacet
 facet normal -6.460934e-01 -1.865111e-01  7.401195e-01
   outer loop
     vertex  4.238318e-01  4.963991e-01  9.404762e-02
     vertex  4.214286e-01  5.000000e-01  9.285715e-02
     vertex  4.225275e-01  4.961933e-01  9.285715e-02
   endloop
 endfacet
 facet normal -5.194341e-01 -5.398117e-01  6.624134e-01
   outer loop
     vertex  4.238318e-01  4.963991e-01  9.404762e-02
     vertex  4.225275e-01  4.961933e-01  9.285715e-02
     vertex  4.250000e-01  4.938141e-01  9.285715e-02
   endloop
 endfacet
 facet normal -4.338202e-01 -5.865990e-01  6.838871e-01
   outer loop
     vertex  4.238318e-01  4.963991e-01  9.404762e-02
     vertex  4.268349e-01  4.955660e-01  9.523810e-02
     vertex  4.273810e-01  4.979380e-01  9.761905e-02
   endloop
 endfacet
 facet normal -6.983602e-01 -1.567994e-01  6.983602e-01
   outer loop
     vertex  4.238095e-01  5.000000e-01  9.523810e-02
     vertex  4.249841e-01  4.983036e-01  9.603175e-02
     vertex  4.250000e-01  5.000000e-01  9.642857e-02
   endloop
 endfacet
 facet normal -7.406716e-01 -2.150201e-01  6.365312e-01
   outer loop
     vertex  4.238095e-01  5.000000e-01  9.523810e-02
     vertex  4.238318e-01  4.963991e-01  9.404762e-02
     vertex  4.249841e-01  4.983036e-01  9.603175e-02
   endloop
 endfacet
 facet normal -6.878702e-01 -2.316662e-01  6.878702e-01
   outer loop
     vertex  4.238095e-01  5.000000e-01  9.523810e-02
     vertex  4.214286e-01  5.000000e-01  9.285715e-02
     vertex  4.238318e-01  4.963991e-01  9.404762e-02
   endloop
 endfacet
 facet normal -7.054756e-01  6.788442e-02  7.054756e-01
   outer loop
     vertex  4.244812e-01  5.007945e-01  9.583334e-02
     vertex  4.238095e-01  5.000000e-01  9.523810e-02
     vertex  4.250000e-01  5.000000e-01  9.642857e-02
   endloop
 endfacet
 facet normal -5.194341e-01  5.398117e-01  6.624134e-01
   outer loop
     vertex  4.238318e-01  5.036009e-01  9.404762e-02
     vertex  4.250000e-01  5.061859e-01  9.285715e-02
     vertex  4.225275e-01  5.038067e-01  9.285715e-02
   endloop
 endfacet
 facet normal -4.354526e-01  5.314255e-01  7.266140e-01
   outer loop
     vertex  4.238318e-01  5.036009e-01  9.404762e-02
     vertex  4.268349e-01  5.044340e-01  9.523810e-02
     vertex  4.250000e-01  5.061859e-01  9.285715e-02
   endloop
 endfacet
 facet normal -6.878702e-01  2.316662e-01  6.878702e-01
   outer loop
     vertex  4.238318e-01  5.036009e-01  9.404762e-02
     vertex  4.214286e-01  5.000000e-01  9.285715e-02
     vertex  4.238095e-01  5.000000e-01  9.523810e-02
   endloop
 endfacet
 facet normal -7.730603e-01  2.034181e-01  6.008317e-01
   outer loop
     vertex  4.238318e-01  5.036009e-01  9.404762e-02
     vertex  4.238095e-01  5.000000e-01  9.523810e-02
     vertex  4.244812e-01  5.007945e-01  9.583334e-02
   endloop
 endfacet
 facet normal -6.927055e-01  2.662099e-01  6.702921e-01
   outer loop
     vertex  4.238318e-01  5.036009e-01  9.404762e-02
     vertex  4.244812e-01  5.007945e-01  9.583334e-02
     vertex  4.248779e-01  5.023263e-01  9.563492e-02
   endloop
 endfacet
 facet normal -6.460934e-01  1.865111e-01  7.401195e-01
   outer loop
     vertex  4.238318e-01  5.036009e-01  9.404762e-02
     vertex  4.225275e-01  5.038067e-01  9.285715e-02
     vertex  4.214286e-01  5.000000e-01  9.285715e-02
   endloop
 endfacet
 facet normal  2.533574e-01  6.338625e-01  7.307724e-01
   outer loop
     vertex  4.298652e-01  5.012309e-01  9.821429e-02
     vertex  4.303571e-01  5.030929e-01  9.642857e-02
     vertex  4.294096e-01  5.034717e-01  9.642857e-02
   endloop
 endfacet
 facet normal  4.396578e-01  5.584404e-01  7.034525e-01
   outer loop
     vertex  4.298652e-01  5.012309e-01  9.821429e-02
     vertex  4.311589e-01  5.024617e-01  9.642857e-02
     vertex  4.303571e-01  5.030929e-01  9.642857e-02
   endloop
 endfacet
 facet normal  5.457329e-01  4.509955e-01  7.062426e-01
   outer loop
     vertex  4.300240e-01  5.010387e-01  9.821429e-02
     vertex  4.311589e-01  5.024617e-01  9.642857e-02
     vertex  4.298652e-01  5.012309e-01  9.821429e-02
   endloop
 endfacet
 facet normal  5.798005e-01  4.163938e-01  7.003196e-01
   outer loop
     vertex  4.300240e-01  5.010387e-01  9.821429e-02
     vertex  4.317308e-01  5.016654e-01  9.642857e-02
     vertex  4.311589e-01  5.024617e-01  9.642857e-02
   endloop
 endfacet
 facet normal  6.024261e-01  3.717978e-01  7.062926e-01
   outer loop
     vertex  4.300240e-01  5.010387e-01  9.821429e-02
     vertex  4.285714e-01  5.000000e-01  1.000000e-01
     vertex  4.317308e-01  5.016654e-01  9.642857e-02
   endloop
 endfacet
 facet normal  5.457329e-01  4.509955e-01  7.062426e-01
   outer loop
     vertex  4.300240e-01  5.010387e-01  9.821429e-02
     vertex  4.298652e-01  5.012309e-01  9.821429e-02
     vertex  4.285714e-01  5.000000e-01  1.000000e-01
   endloop
 endfacet
 facet normal  2.539473e-01 -6.353383e-01  7.292846e-01
   outer loop
     vertex  4.285027e-01  4.982156e-01  9.821429e-02
     vertex  4.294096e-01  4.965283e-01  9.642857e-02
     vertex  4.303571e-01  4.969071e-01  9.642857e-02
   endloop
 endfacet
 facet normal -2.522079e-01 -6.032510e-01  7.566237e-01
   outer loop
     vertex  4.285027e-01  4.982156e-01  9.821429e-02
     vertex  4.273496e-01  4.986977e-01  9.821429e-02
     vertex  4.273810e-01  4.979380e-01  9.761905e-02
   endloop
 endfacet
 facet normal -2.815054e-01 -6.733270e-01  6.836559e-01
   outer loop
     vertex  4.285027e-01  4.982156e-01  9.821429e-02
     vertex  4.285714e-01  5.000000e-01  1.000000e-01
     vertex  4.273496e-01  4.986977e-01  9.821429e-02
   endloop
 endfacet
 facet normal  2.782110e-01 -6.847706e-01  6.735635e-01
   outer loop
     vertex  4.285027e-01  4.982156e-01  9.821429e-02
     vertex  4.298652e-01  4.987691e-01  9.821429e-02
     vertex  4.285714e-01  5.000000e-01  1.000000e-01
   endloop
 endfacet
 facet normal  7.037369e-02 -7.069667e-01  7.037369e-01
   outer loop
     vertex  4.285027e-01  4.982156e-01  9.821429e-02
     vertex  4.284341e-01  4.964312e-01  9.642857e-02
     vertex  4.294096e-01  4.965283e-01  9.642857e-02
   endloop
 endfacet
 facet normal -1.990074e-01 -6.893820e-01  6.965260e-01
   outer loop
     vertex  4.285027e-01  4.982156e-01  9.821429e-02
     vertex  4.273810e-01  4.979380e-01  9.761905e-02
     vertex  4.284341e-01  4.964312e-01  9.642857e-02
   endloop
 endfacet
 facet normal  2.570385e-01 -6.326581e-01  7.305306e-01
   outer loop
     vertex  4.285027e-01  4.982156e-01  9.821429e-02
     vertex  4.303571e-01  4.969071e-01  9.642857e-02
     vertex  4.298652e-01  4.987691e-01  9.821429e-02
   endloop
 endfacet
 facet normal  0.000000e+00  0.000000e+00  0.000000e+00
   outer loop
     vertex  4.282139e-01  5.008182e-01  9.910715e-02
     vertex  4.285714e-01  5.000000e-01  1.000000e-01
     vertex  4.285714e-01  5.000000e-01  1.000000e-01
   endloop
 endfacet
 facet normal  6.899908e-02  6.931575e-01  7.174760e-01
   outer loop
     vertex  4.282139e-01  5.008182e-01  9.910715e-02
     vertex  4.294096e-01  5.034717e-01  9.642857e-02
     vertex  4.284341e-01  5.035688e-01  9.642857e-02
   endloop
 endfacet
 facet normal  2.389383e-01  6.344116e-01  7.351397e-01
   outer loop
     vertex  4.282139e-01  5.008182e-01  9.910715e-02
     vertex  4.298652e-01  5.012309e-01  9.821429e-02
     vertex  4.294096e-01  5.034717e-01  9.642857e-02
   endloop
 endfacet
 facet normal  1.530647e-01  7.583544e-01  6.336165e-01
   outer loop
     vertex  4.282139e-01  5.008182e-01  9.910715e-02
     vertex  4.285714e-01  5.000000e-01  1.000000e-01
     vertex  4.298652e-01  5.012309e-01  9.821429e-02
   endloop
 endfacet
 facet normal -4.328781e-01  6.032336e-01  6.698700e-01
   outer loop
     vertex  4.261278e-01  5.026046e-01  9.642857e-02
     vertex  4.268349e-01  5.044340e-01  9.523810e-02
     vertex  4.238318e-01  5.036009e-01  9.404762e-02
   endloop
 endfacet
 facet normal -5.495421e-01  4.362771e-01  7.125067e-01
   outer loop
     vertex  4.261278e-01  5.026046e-01  9.642857e-02
     vertex  4.238318e-01  5.036009e-01  9.404762e-02
     vertex  4.248779e-01  5.023263e-01  9.563492e-02
   endloop
 endfacet
 facet normal -5.477226e-01  4.517540e-01  7.042147e-01
   outer loop
     vertex  4.261278e-01  5.026046e-01  9.642857e-02
     vertex  4.248779e-01  5.023263e-01  9.563492e-02
     vertex  4.273496e-01  5.013023e-01  9.821429e-02
   endloop
 endfacet
 facet normal -1.592906e-01  6.952666e-01  7.008787e-01
   outer loop
     vertex  4.274989e-01  5.024545e-01  9.732143e-02
     vertex  4.282139e-01  5.008182e-01  9.910715e-02
     vertex  4.284341e-01  5.035688e-01  9.642857e-02
   endloop
 endfacet
 facet normal -1.509201e-01  6.921689e-01  7.057799e-01
   outer loop
     vertex  4.274989e-01  5.024545e-01  9.732143e-02
     vertex  4.284341e-01  5.035688e-01  9.642857e-02
     vertex  4.268349e-01  5.044340e-01  9.523810e-02
   endloop
 endfacet
 facet normal -3.877436e-01  6.033537e-01  6.968638e-01
   outer loop
     vertex  4.274989e-01  5.024545e-01  9.732143e-02
     vertex  4.268349e-01  5.044340e-01  9.523810e-02
     vertex  4.261278e-01  5.026046e-01  9.642857e-02
   endloop
 endfacet
 facet normal -3.919742e-01  5.947121e-01  7.019072e-01
   outer loop
     vertex  4.274989e-01  5.024545e-01  9.732143e-02
     vertex  4.273496e-01  5.013023e-01  9.821429e-02
     vertex  4.282139e-01  5.008182e-01  9.910715e-02
   endloop
 endfacet
 facet normal -3.919742e-01  5.947121e-01  7.019072e-01
   outer loop
     vertex  4.274989e-01  5.024545e-01  9.732143e-02
     vertex  4.261278e-01  5.026046e-01  9.642857e-02
     vertex  4.273496e-01  5.013023e-01  9.821429e-02
   endloop
 endfacet
 facet normal -6.277198e-01 -2.718107e-01  7.294428e-01
   outer loop
     vertex  4.267857e-01  5.000000e-01  9.821429e-02
     vertex  4.249841e-01  4.983036e-01  9.603175e-02
     vertex  4.273496e-01  4.986977e-01  9.821429e-02
   endloop
 endfacet
 facet normal -6.983602e-01 -1.567994e-01  6.983602e-01
   outer loop
     vertex  4.267857e-01  5.000000e-01  9.821429e-02
     vertex  4.250000e-01  5.000000e-01  9.642857e-02
     vertex  4.249841e-01  4.983036e-01  9.603175e-02
   endloop
 endfacet
 facet normal -5.770397e-01 -2.498655e-01  7.775554e-01
   outer loop
     vertex  4.272632e-01  5.002866e-01  9.866072e-02
     vertex  4.267857e-01  5.000000e-01  9.821429e-02
     vertex  4.273496e-01  4.986977e-01  9.821429e-02
   endloop
 endfacet
 facet normal -7.207218e-01 -2.235809e-01  6.561796e-01
   outer loop
     vertex  4.272632e-01  5.002866e-01  9.866072e-02
     vertex  4.273496e-01  4.986977e-01  9.821429e-02
     vertex  4.285714e-01  5.000000e-01  1.000000e-01
   endloop
 endfacet
 facet normal -7.050442e-01  7.632328e-02  7.050442e-01
   outer loop
     vertex  4.272632e-01  5.002866e-01  9.866072e-02
     vertex  4.250000e-01  5.000000e-01  9.642857e-02
     vertex  4.267857e-01  5.000000e-01  9.821429e-02
   endloop
 endfacet
 facet normal -7.049453e-01  6.857747e-02  7.059385e-01
   outer loop
     vertex  4.272632e-01  5.002866e-01  9.866072e-02
     vertex  4.244812e-01  5.007945e-01  9.583334e-02
     vertex  4.250000e-01  5.000000e-01  9.642857e-02
   endloop
 endfacet
 facet normal -6.637896e-01  2.626085e-01  7.003000e-01
   outer loop
     vertex  4.272632e-01  5.002866e-01  9.866072e-02
     vertex  4.248779e-01  5.023263e-01  9.563492e-02
     vertex  4.244812e-01  5.007945e-01  9.583334e-02
   endloop
 endfacet
 facet normal -5.771814e-01  4.737029e-01  6.651821e-01
   outer loop
     vertex  4.272632e-01  5.002866e-01  9.866072e-02
     vertex  4.285714e-01  5.000000e-01  1.000000e-01
     vertex  4.282139e-01  5.008182e-01  9.910715e-02
   endloop
 endfacet
 facet normal -5.954464e-01  3.652088e-01  7.155879e-01
   outer loop
     vertex  4.272632e-01  5.002866e-01  9.866072e-02
     vertex  4.273496e-01  5.013023e-01  9.821429e-02
     vertex  4.248779e-01  5.023263e-01  9.563492e-02
   endloop
 endfacet
 facet normal -5.570825e-01  3.734440e-01  7.417538e-01
   outer loop
     vertex  4.272632e-01  5.002866e-01  9.866072e-02
     vertex  4.282139e-01  5.008182e-01  9.910715e-02
     vertex  4.273496e-01  5.013023e-01  9.821429e-02
   endloop
 endfacet
 facet normal  0.000000e+00  0.000000e+00 -1.000000e+00
   outer loop
     vertex  4.178778e-01  5.094734e-01  8.571400e-02
     vertex  4.424419e-01  5.034189e-01  8.571400e-02
     vertex  4.428570e-01  5.000000e-01  8.571400e-02
   endloop
 endfacet
 facet normal  0.000000e+00  0.000000e+00 -1.000000e+00
   outer loop
     vertex  4.178778e-01  5.094734e-01  8.571400e-02
     vertex  4.412206e-01  5.066390e-01  8.571400e-02
     vertex  4.424419e-01  5.034189e-01  8.571400e-02
   endloop
 endfacet
 facet normal  0.000000e+00  0.000000e+00 -1.000000e+00
   outer loop
     vertex  4.178778e-01  5.094734e-01  8.571400e-02
     vertex  4.392642e-01  5.094734e-01  8.571400e-02
     vertex  4.412206e-01  5.066390e-01  8.571400e-02
   endloop
 endfacet
 facet normal  0.000000e+00  0.000000e+00 -1.000000e+00
   outer loop
     vertex  4.178778e-01  5.094734e-01  8.571400e-02
     vertex  4.366864e-01  5.117571e-01  8.571400e-02
     vertex  4.392642e-01  5.094734e-01  8.571400e-02
   endloop
 endfacet
 facet normal  0.000000e+00  0.000000e+00 -1.000000e+00
   outer loop
     vertex  4.178778e-01  5.094734e-01  8.571400e-02
     vertex  4.336369e-01  5.133576e-01  8.571400e-02
     vertex  4.366864e-01  5.117571e-01  8.571400e-02
   endloop
 endfacet
 facet normal  0.000000e+00  0.000000e+00 -1.000000e+00
   outer loop
     vertex  4.178778e-01  5.094734e-01  8.571400e-02
     vertex  4.302930e-01  5.141818e-01  8.571400e-02
     vertex  4.336369e-01  5.133576e-01  8.571400e-02
   endloop
 endfacet
 facet normal  0.000000e+00  0.000000e+00 -1.000000e+00
   outer loop
     vertex  4.178778e-01  5.094734e-01  8.571400e-02
     vertex  4.268490e-01  5.141818e-01  8.571400e-02
     vertex  4.302930e-01  5.141818e-01  8.571400e-02
   endloop
 endfacet
 facet normal  0.000000e+00  0.000000e+00 -1.000000e+00
   outer loop
     vertex  4.178778e-01  5.094734e-01  8.571400e-02
     vertex  4.235051e-01  5.133576e-01  8.571400e-02
     vertex  4.268490e-01  5.141818e-01  8.571400e-02
   endloop
 endfacet
 facet normal  0.000000e+00  0.000000e+00 -1.000000e+00
   outer loop
     vertex  4.178778e-01  5.094734e-01  8.571400e-02
     vertex  4.204556e-01  5.117571e-01  8.571400e-02
     vertex  4.235051e-01  5.133576e-01  8.571400e-02
   endloop
 endfacet
 facet normal  0.000000e+00  0.000000e+00 -1.000000e+00
   outer loop
     vertex  4.178778e-01  5.094734e-01  8.571400e-02
     vertex  4.147001e-01  5.034189e-01  8.571400e-02
     vertex  4.159214e-01  5.066390e-01  8.571400e-02
   endloop
 endfacet
 facet normal  0.000000e+00  0.000000e+00 -1.000000e+00
   outer loop
     vertex  4.178778e-01  5.094734e-01  8.571400e-02
     vertex  4.142850e-01  5.000000e-01  8.571400e-02
     vertex  4.147001e-01  5.034189e-01  8.571400e-02
   endloop
 endfacet
 facet normal  0.000000e+00  0.000000e+00 -1.000000e+00
   outer loop
     vertex  4.178778e-01  5.094734e-01  8.571400e-02
     vertex  4.147001e-01  4.965811e-01  8.571400e-02
     vertex  4.142850e-01  5.000000e-01  8.571400e-02
   endloop
 endfacet
 facet normal  0.000000e+00  0.000000e+00 -1.000000e+00
   outer loop
     vertex  4.178778e-01  5.094734e-01  8.571400e-02
     vertex  4.159214e-01  4.933610e-01  8.571400e-02
     vertex  4.147001e-01  4.965811e-01  8.571400e-02
   endloop
 endfacet
 facet normal  0.000000e+00  0.000000e+00 -1.000000e+00
   outer loop
     vertex  4.178778e-01  5.094734e-01  8.571400e-02
     vertex  4.178778e-01  4.905266e-01  8.571400e-02
     vertex  4.159214e-01  4.933610e-01  8.571400e-02
   endloop
 endfacet
 facet normal  0.000000e+00 -0.000000e+00 -1.000000e+00
   outer loop
     vertex  4.178778e-01  5.094734e-01  8.571400e-02
     vertex  4.204556e-01  4.882429e-01  8.571400e-02
     vertex  4.178778e-01  4.905266e-01  8.571400e-02
   endloop
 endfacet
 facet normal  0.000000e+00  0.000000e+00 -1.000000e+00
   outer loop
     vertex  4.178778e-01  5.094734e-01  8.571400e-02
     vertex  4.235051e-01  4.866424e-01  8.571400e-02
     vertex  4.204556e-01  4.882429e-01  8.571400e-02
   endloop
 endfacet
 facet normal  0.000000e+00  0.000000e+00 -1.000000e+00
   outer loop
     vertex  4.178778e-01  5.094734e-01  8.571400e-02
     vertex  4.268490e-01  4.858182e-01  8.571400e-02
     vertex  4.235051e-01  4.866424e-01  8.571400e-02
   endloop
 endfacet
 facet normal  0.000000e+00  0.000000e+00 -1.000000e+00
   outer loop
     vertex  4.178778e-01  5.094734e-01  8.571400e-02
     vertex  4.302930e-01  4.858182e-01  8.571400e-02
     vertex  4.268490e-01  4.858182e-01  8.571400e-02
   endloop
 endfacet
 facet normal  0.000000e+00  0.000000e+00 -1.000000e+00
   outer loop
     vertex  4.178778e-01  5.094734e-01  8.571400e-02
     vertex  4.336369e-01  4.866424e-01  8.571400e-02
     vertex  4.302930e-01  4.858182e-01  8.571400e-02
   endloop
 endfacet
 facet normal  0.000000e+00  0.000000e+00 -1.000000e+00
   outer loop
     vertex  4.178778e-01  5.094734e-01  8.571400e-02
     vertex  4.366864e-01  4.882429e-01  8.571400e-02
     vertex  4.336369e-01  4.866424e-01  8.571400e-02
   endloop
 endfacet
 facet normal  0.000000e+00  0.000000e+00 -1.000000e+00
   outer loop
     vertex  4.178778e-01  5.094734e-01  8.571400e-02
     vertex  4.392642e-01  4.905266e-01  8.571400e-02
     vertex  4.366864e-01  4.882429e-01  8.571400e-02
   endloop
 endfacet
 facet normal  0.000000e+00  0.000000e+00 -1.000000e+00
   outer loop
     vertex  4.178778e-01  5.094734e-01  8.571400e-02
     vertex  4.412206e-01  4.933610e-01  8.571400e-02
     vertex  4.392642e-01  4.905266e-01  8.571400e-02
   endloop
 endfacet
 facet normal  0.000000e+00  0.000000e+00 -1.000000e+00
   outer loop
     vertex  4.178778e-01  5.094734e-01  8.571400e-02
     vertex  4.424419e-01  4.965811e-01  8.571400e-02
     vertex  4.412206e-01  4.933610e-01  8.571400e-02
   endloop
 endfacet
 facet normal  0.000000e+00  0.000000e+00 -1.000000e+00
   outer loop
     vertex  4.178778e-01  5.094734e-01  8.571400e-02
     vertex  4.428570e-01  5.000000e-01  8.571400e-02
     vertex  4.424419e-01  4.965811e-01  8.571400e-02
   endloop
 endfacet
endsolid
