solid 
 facet normal  1.000000e+00  0.000000e+00  0.000000e+00
   outer loop
     vertex  1.014050e-01  1.428378e-01  2.569245e-01
     vertex  1.014050e-01  1.424622e-01  2.569245e-01
     vertex  1.014050e-01  1.424622e-01  2.567270e-01
   endloop
 endfacet
 facet normal  1.000000e+00  0.000000e+00  0.000000e+00
   outer loop
     vertex  1.014050e-01  1.428378e-01  2.569245e-01
     vertex  1.014050e-01  1.424622e-01  2.567270e-01
     vertex  1.014050e-01  1.428378e-01  2.567270e-01
   endloop
 endfacet
 facet normal  0.000000e+00 -1.000000e+00  0.000000e+00
   outer loop
     vertex  1.018808e-01  1.428378e-01  2.567270e-01
     vertex  1.018808e-01  1.428378e-01  2.569245e-01
     vertex  1.014050e-01  1.428378e-01  2.569245e-01
   endloop
 endfacet
 facet normal  0.000000e+00 -1.000000e+00  0.000000e+00
   outer loop
     vertex  1.018808e-01  1.428378e-01  2.567270e-01
     vertex  1.014050e-01  1.428378e-01  2.569245e-01
     vertex  1.014050e-01  1.428378e-01  2.567270e-01
   endloop
 endfacet
 facet normal  0.000000e+00  1.000000e+00  0.000000e+00
   outer loop
     vertex  1.018808e-01  1.424622e-01  2.567270e-01
     vertex  1.014050e-01  1.424622e-01  2.567270e-01
     vertex  1.014050e-01  1.424622e-01  2.569245e-01
   endloop
 endfacet
 facet normal  0.000000e+00  1.000000e+00 -0.000000e+00
   outer loop
     vertex  1.018808e-01  1.424622e-01  2.567270e-01
     vertex  1.014050e-01  1.424622e-01  2.569245e-01
     vertex  1.018808e-01  1.424622e-01  2.569245e-01
   endloop
 endfacet
 facet normal  0.000000e+00  0.000000e+00 -1.000000e+00
   outer loop
     vertex  1.014050e-01  1.424622e-01  2.567270e-01
     vertex  1.014050e-01  1.428378e-01  2.567270e-01
     vertex  1.018808e-01  1.428378e-01  2.567270e-01
   endloop
 endfacet
 facet normal  0.000000e+00  0.000000e+00 -1.000000e+00
   outer loop
     vertex  1.014050e-01  1.424622e-01  2.567270e-01
     vertex  1.018808e-01  1.428378e-01  2.567270e-01
     vertex  1.018808e-01  1.424622e-01  2.567270e-01
   endloop
 endfacet
 facet normal  0.000000e+00  0.000000e+00 -1.000000e+00
   outer loop
     vertex  1.014050e-01  1.424622e-01  2.569245e-01
     vertex  1.014050e-01  1.428378e-01  2.569245e-01
     vertex  1.018808e-01  1.428378e-01  2.569245e-01
   endloop
 endfacet
 facet normal  0.000000e+00  0.000000e+00 -1.000000e+00
   outer loop
     vertex  1.014050e-01  1.424622e-01  2.569245e-01
     vertex  1.018808e-01  1.428378e-01  2.569245e-01
     vertex  1.018808e-01  1.424622e-01  2.569245e-01
   endloop
 endfacet
 facet normal -1.000000e+00  0.000000e+00 -0.000000e+00
   outer loop
     vertex  1.018808e-01  1.428378e-01  2.569245e-01
     vertex  1.018808e-01  1.428378e-01  2.567270e-01
     vertex  1.018808e-01  1.424622e-01  2.567270e-01
   endloop
 endfacet
 facet normal -1.000000e+00 -0.000000e+00  0.000000e+00
   outer loop
     vertex  1.018808e-01  1.428378e-01  2.569245e-01
     vertex  1.018808e-01  1.424622e-01  2.567270e-01
     vertex  1.018808e-01  1.424622e-01  2.569245e-01
   endloop
 endfacet
endsolid
